<svg width="231" height="38" fill="none" xmlns="http://www.w3.org/2000/svg"><path d="M.294 24.086l9.856 2.234c.059.014.12.014.178 0l14.615-3.829a.365.365 0 01.132-.01l21.508 2.27a.41.41 0 00.12-.008l17.8-3.927a.37.37 0 00.294-.364v-2.05a.372.372 0 00-.408-.37L46.644 19.82a.238.238 0 01-.056 0l-21.25-1.095a.401.401 0 00-.133.018l-14.89 4.765a.392.392 0 01-.175.013l-9.7-1.639a.372.372 0 00-.44.368v1.471a.373.373 0 00.294.365z" fill="#fff"/><path d="M.373 19.657l9.767 1.078a.389.389 0 00.174-.022l14.892-5.628a.389.389 0 01.13-.023l21.28-.164 17.807.239a.372.372 0 00.376-.373v-2.128a.372.372 0 00-.325-.37l-17.821-2.29a.396.396 0 00-.072 0l-21.247 1.387a.373.373 0 00-.125.031l-14.898 6.52a.374.374 0 01-.17.03l-9.7-.538a.375.375 0 00-.4.379v1.507a.374.374 0 00.332.365z" fill="#fff"/><path d="M.415 15.223l9.735-.069a.365.365 0 00.164-.038l14.898-7.39a.371.371 0 01.12-.036l21.244-2.636a.37.37 0 01.134 0l17.629 4.298a.372.372 0 00.46-.361V6.863a.373.373 0 00-.245-.35L46.874.154a.375.375 0 00-.193-.022L25.329 4.024a.35.35 0 00-.114.042L10.298 12.31a.362.362 0 01-.148.045l-9.761.639a.372.372 0 00-.349.376v1.486a.374.374 0 00.375.366zm24.855 11.29v2.942a.369.369 0 00.295.362l20.963 4.758c.079.017.16.009.234-.024l17.817-7.93a.375.375 0 00.221-.342v-2.084a.373.373 0 00-.488-.353l-17.607 5.805a.37.37 0 01-.18.013l-20.82-3.513a.372.372 0 00-.434.366z" fill="#fff"/><path d="M.04 10.405V8.946a.372.372 0 01.306-.366L9.79 6.853a.374.374 0 01.441.366v2.015a.374.374 0 01-.326.37L.46 10.78a.375.375 0 01-.42-.376zm122.35-7.303h5.745a.294.294 0 01.295.294l-.018 15.418a.295.295 0 01-.294.294h-2.839a.294.294 0 01-.295-.294V6.324a.296.296 0 00-.061-.193.296.296 0 00-.372-.078.293.293 0 00-.134.151l-5.574 12.724a.297.297 0 01-.278.18h-4.456a.298.298 0 01-.271-.177l-5.551-12.7a.294.294 0 00-.568.12v12.463a.295.295 0 01-.294.294h-2.835a.294.294 0 01-.294-.294V3.397a.295.295 0 01.294-.294h5.749a.297.297 0 01.274.182l5.501 13.218a.297.297 0 00.275.188.294.294 0 00.274-.188l5.457-13.218a.296.296 0 01.27-.183zm27.655.296v15.416a.295.295 0 01-.294.294h-2.982a.294.294 0 01-.294-.294V6.324a.295.295 0 00-.294-.295h-10.043a.294.294 0 00-.294.295v12.49a.294.294 0 01-.295.294h-2.978a.294.294 0 01-.295-.294V3.398a.294.294 0 01.295-.294h17.18a.294.294 0 01.294.294zm3.838 15.416V3.398a.295.295 0 01.294-.294h14.887a.294.294 0 01.294.294v2.196a.295.295 0 01-.294.294h-11.327a.294.294 0 00-.294.294v3.162a.29.29 0 00.181.271.296.296 0 00.113.023h8.785a.294.294 0 01.294.294v2.06a.295.295 0 01-.294.294h-8.781a.294.294 0 00-.294.294v3.44a.295.295 0 00.294.293h11.754a.294.294 0 01.294.295v2.206a.295.295 0 01-.294.294h-15.317a.297.297 0 01-.273-.18.292.292 0 01-.022-.114zm29.494-15.712c1.844 0 3.341.434 4.493 1.303 1.151.869 1.726 2.15 1.725 3.84 0 1.707-.56 2.968-1.68 3.784-1.12.816-2.632 1.224-4.538 1.223h-6.861a.294.294 0 00-.294.294v5.268a.295.295 0 01-.294.294h-2.978a.296.296 0 01-.294-.294V3.397a.295.295 0 01.294-.294h10.427v-.001zm-.184 7.384c.883 0 1.577-.19 2.082-.572.505-.382.756-.938.754-1.668 0-.733-.251-1.285-.754-1.658s-1.197-.56-2.082-.56h-6.677a.294.294 0 00-.294.294v3.867a.295.295 0 00.294.294l6.677.003zm47.808-7.088v15.416a.295.295 0 01-.294.294h-2.976a.294.294 0 01-.294-.294v-5.493a.295.295 0 00-.294-.294h-4.234a.293.293 0 00-.222.102l-5.172 5.884a.301.301 0 01-.224.1h-3.697a.293.293 0 01-.295-.35.29.29 0 01.081-.152l5.001-5.188a.297.297 0 00.068-.302.297.297 0 00-.24-.195c-1.353-.18-2.44-.613-3.26-1.3-.937-.785-1.406-1.932-1.406-3.442 0-1.66.576-2.922 1.727-3.783 1.151-.861 2.649-1.292 4.492-1.292h10.952a.292.292 0 01.201.087.29.29 0 01.086.202zm-11.067 6.928h7.209a.296.296 0 00.294-.294V6.256a.295.295 0 00-.294-.294h-7.209c-.854 0-1.54.196-2.059.588a1.924 1.924 0 00-.777 1.634c0 .686.255 1.217.765 1.59.511.371 1.202.552 2.071.552zM96.974 9.282v9.532a.294.294 0 00.294.294h2.882a.294.294 0 00.294-.294V4.592a.086.086 0 00-.018-.053.09.09 0 00-.101-.033.097.097 0 00-.046.033l-3.295 4.69a.098.098 0 00-.01.053zm98.82 3.604V3.398a.295.295 0 00-.294-.294h-2.884a.296.296 0 00-.294.294v14.035c0 .034.011.068.032.095a.161.161 0 00.262-.002l3.153-4.547a.168.168 0 00.025-.093zm12.786-9.784h-3.17a.293.293 0 00-.242.127l-10.854 15.646a.151.151 0 00-.025.075.156.156 0 00.017.076.143.143 0 00.054.057.142.142 0 00.075.022h3.211a.297.297 0 00.244-.127l10.811-15.647a.146.146 0 00.008-.15.148.148 0 00-.053-.058.15.15 0 00-.076-.021zm-1.31 6.188v9.523a.295.295 0 00.294.295h2.883a.294.294 0 00.294-.295V4.62a.13.13 0 00-.17-.12.13.13 0 00-.065.045l-3.214 4.67a.126.126 0 00-.022.076zM85.496 12.843V3.398a.294.294 0 00-.294-.294h-2.884a.294.294 0 00-.295.294v13.994a.148.148 0 00.184.123.147.147 0 00.07-.042l3.19-4.543a.147.147 0 00.03-.087zm9.621-9.741a.294.294 0 00-.244.126L83.987 18.805a.191.191 0 00.157.294h3.213a.295.295 0 00.245-.127L98.65 3.103h-3.533zM85.693 32.46l-1.364 3.045c-.14.312-.286.542-.44.688a.759.759 0 01-.542.215.761.761 0 01-.48-.141l.17-.406c.098.067.2.101.305.101.195 0 .357-.133.485-.4l.067-.147-1.788-2.955h.542l1.478 2.476 1.082-2.476h.485zm3.3 3.948V32.91H86.85v3.497h-.48V32.46h3.102v3.948h-.48zm2.142 0h-.48V32.46l.502-.006.53-.006c.52 0 .892.117 1.117.35.23.23.344.52.344.874 0 .346-.124.64-.372.88-.244.24-.594.361-1.05.361-.217 0-.415-.007-.591-.022v1.517zm.598-3.508c-.15 0-.35.003-.598.01v1.524c.214.019.406.028.575.028.29 0 .517-.07.683-.209.165-.143.248-.338.248-.586 0-.241-.076-.429-.226-.564-.15-.136-.378-.203-.682-.203zm1.417 3.508l1.697-3.97h.412l1.697 3.97h-.513l-.507-1.196h-1.8l-.501 1.196h-.486zm1.889-3.334l-.71 1.687h1.42l-.71-1.687zm2.595 3.328v-3.937c.586-.015.947-.022 1.082-.022.444 0 .766.088.965.265.203.177.305.413.305.71a.906.906 0 01-.187.587 1.05 1.05 0 01-.49.327v.011a.995.995 0 01.598.305c.146.158.22.368.22.632 0 .383-.132.67-.395.863-.26.188-.606.282-1.038.282-.399 0-.752-.008-1.06-.023zm1.116-1.794h-.637v1.343c.173.015.376.022.61.022.296 0 .524-.06.682-.18.161-.124.242-.305.242-.541a.54.54 0 00-.237-.474c-.154-.113-.374-.17-.66-.17zm-.045-1.714c-.112 0-.31.006-.592.017v1.274h.632a.828.828 0 00.541-.174.585.585 0 00.22-.485c0-.421-.267-.632-.8-.632zm4.84 3.514V32.91h-1.432l-.068.744c-.045.49-.103.908-.175 1.258a4.624 4.624 0 01-.231.818c-.083.2-.18.353-.293.462a.714.714 0 01-.322.203.95.95 0 01-.361.012l.006-.48a.456.456 0 00.192-.017c.056-.018.124-.077.203-.175.083-.101.154-.242.214-.422a5.12 5.12 0 00.186-.801c.06-.354.107-.775.141-1.264l.057-.79h2.363v3.949h-.48zm1.662 0V32.46h2.228v.45h-1.749v1.276h1.579v.45h-1.579v1.32h1.805v.452h-2.284zm5.895 0V34.62h-2.172v1.788h-.479V32.46h.479v1.709h2.172v-1.71h.479v3.949h-.479zm2.084 0h-.423V32.46h.48v3.158l2.397-3.158h.423v3.948h-.48v-3.159l-2.397 3.159zm4.061 0V32.46h2.228v.45h-1.749v1.276h1.579v.45h-1.579v1.32h1.805v.452h-2.284zm7.161 0V34.62h-2.171v1.788h-.479V32.46h.479v1.709h2.171v-1.71h.48v3.949h-.48zm1.662 0V32.46h2.228v.45h-1.748v1.276h1.579v.45h-1.579v1.32h1.804v.452h-2.284zm2.737.732v-1.184h.423c.12-.15.248-.456.383-.919.139-.466.228-1.062.265-1.788l.04-.79h2.323v3.497h.536v1.185h-.451v-.733h-3.068v.733h-.451zm1.522-3.524a7.545 7.545 0 01-.242 1.534c-.12.417-.229.686-.327.806h2.002v-3.045h-1.382l-.051.705zm3.21 2.786v-3.937c.586-.015.947-.022 1.083-.022.443 0 .765.088.964.265.203.177.305.413.305.71a.901.901 0 01-.187.587c-.124.15-.287.26-.49.327v.011a.996.996 0 01.598.305c.146.158.22.368.22.632 0 .383-.132.67-.395.863-.26.188-.606.282-1.038.282-.399 0-.752-.008-1.06-.023zm1.116-1.794h-.637v1.343c.173.015.376.022.609.022.297 0 .525-.06.683-.18.161-.124.242-.305.242-.541a.54.54 0 00-.237-.474c-.154-.113-.374-.17-.66-.17zm-.045-1.714c-.112 0-.31.006-.592.017v1.274h.632a.827.827 0 00.541-.174.584.584 0 00.22-.485c0-.421-.267-.632-.801-.632zm2.833 3.514h-.423V32.46h.479v3.158l2.397-3.158h.423v3.948h-.479v-3.159l-2.397 3.159zm8.561-3.948l-1.597 1.883 1.659 2.065h-.559l-1.624-2.059 1.562-1.89h.559zm-2.702 3.948V32.46h.479v3.948h-.479zm-.62-2.059l-1.596-1.89h.558l1.562 1.89-1.624 2.059h-.558l1.658-2.059zm4.509 2.059h-.423V32.46h.48v3.158l2.397-3.158h.423v3.948h-.48v-3.159l-2.397 3.159zm4.061 0V32.46h.485l1.483 2.024 1.421-2.024h.457v3.948h-.479v-3.193l-1.399 1.963h-.073l-1.416-1.946v3.176h-.479zm4.718-1.974c0-.576.19-1.057.57-1.444.379-.391.861-.587 1.443-.587.58 0 1.059.19 1.439.57.383.38.575.867.575 1.46 0 .584-.192 1.069-.575 1.456-.384.383-.863.575-1.439.575-.579 0-1.06-.19-1.443-.57-.38-.38-.57-.866-.57-1.46zm.508 0c0 .447.144.823.434 1.128.289.3.647.45 1.071.45.444 0 .805-.15 1.083-.45.282-.301.423-.677.423-1.128 0-.455-.144-.831-.434-1.128a1.428 1.428 0 00-1.072-.451c-.432 0-.791.148-1.077.445-.286.297-.428.675-.428 1.134zm7.142 1.229l.192.361a1.36 1.36 0 01-.536.322 2.129 2.129 0 01-.71.118c-.594 0-1.078-.184-1.45-.553-.368-.372-.553-.864-.553-1.477 0-.583.177-1.066.531-1.45.357-.387.836-.58 1.438-.58.504 0 .904.127 1.201.383l-.22.36c-.263-.195-.588-.292-.976-.292-.428 0-.78.146-1.054.44-.275.293-.412.672-.412 1.139 0 .47.141.851.423 1.145.286.29.658.434 1.117.434.387 0 .724-.117 1.009-.35zm.419-2.753v-.45h3.243v.45H165.9v3.498h-.479V32.91h-1.382zm4.888 1.44c-.146 0-.319.01-.518.033v1.568c.304.011.471.017.501.017.331 0 .585-.07.762-.209.18-.143.271-.353.271-.632 0-.252-.089-.443-.266-.575-.176-.135-.426-.203-.75-.203zm-.518-1.89v1.466c.236-.019.421-.028.552-.028.497 0 .869.107 1.117.321.248.215.372.514.372.897 0 .414-.141.735-.423.965-.278.225-.669.338-1.173.338-.12 0-.288-.002-.502-.006a31.497 31.497 0 00-.423-.005V32.46h.48zm2.913 3.948V32.46h.479v1.709h.852c.056-.515.259-.938.609-1.27.353-.33.79-.496 1.308-.496.576 0 1.046.19 1.41.57.365.376.548.863.548 1.46 0 .587-.185 1.072-.553 1.456-.365.383-.833.575-1.405.575-.518 0-.96-.171-1.325-.513-.361-.342-.56-.786-.598-1.331h-.846v1.788h-.479zm1.827-1.974c0 .447.136.823.406 1.128.275.3.617.45 1.027.45.443 0 .793-.148 1.049-.445.259-.297.389-.675.389-1.133 0-.463-.134-.84-.4-1.134-.267-.297-.613-.445-1.038-.445a1.33 1.33 0 00-1.027.445c-.27.297-.406.675-.406 1.134zm-45.921-7.893h-1.615a.094.094 0 00-.094.094v1.615c0 .052.042.095.094.095h1.615a.094.094 0 00.094-.095v-1.615a.094.094 0 00-.094-.094zm-44.227 2.403l1.697-3.91h.412l1.697 3.91h-.513l-.508-1.177h-1.798l-.502 1.177H83zm1.889-3.283l-.71 1.661h1.42l-.71-1.66zm3.073 3.283h-.48v-3.888l.503-.006.53-.006c.518 0 .89.115 1.116.345.23.226.344.513.344.861 0 .34-.124.63-.372.867-.245.237-.594.355-1.049.355a7.07 7.07 0 01-.592-.022v1.494zm.598-3.455c-.15 0-.35.004-.598.011V27c.214.018.406.028.575.028.29 0 .517-.069.682-.206.166-.14.249-.333.249-.578 0-.237-.076-.422-.226-.555-.15-.133-.378-.2-.682-.2zm5.072-.433l-1.399 1.91 1.45 1.978h-.57l-1.195-1.616-1.19 1.616h-.564l1.45-1.977-1.388-1.911h.564l1.145 1.555 1.127-1.555h.57zm1.178 3.888h-.423v-3.888h.48v3.11l2.396-3.11h.423v3.888h-.48v-3.11l-2.396 3.11zm3.524-3.444v-.444h3.242v.444h-1.382v3.444h-.479V25.5h-1.381zm3.889 3.444v-3.888h2.227v.444h-1.748v1.256h1.579v.444h-1.579v1.3h1.804v.444h-2.283zm6.13-3.888l-1.76 1.827 1.85 2.061h-.615l-1.787-2.027 1.731-1.861h.581zm-2.887 3.888v-3.888h.479v3.888h-.479zm3.082-3.444v-.444h3.242v.444h-1.382v3.444h-.479V25.5h-1.381zm6.967-.444l-1.364 3c-.139.307-.286.533-.44.677a.765.765 0 01-.541.211c-.2 0-.359-.046-.48-.138l.169-.4c.098.066.2.1.305.1.195 0 .357-.132.485-.395l.067-.144-1.787-2.911h.541l1.478 2.438 1.082-2.438h.485zm1.156 3.888h-.479v-3.888l.502-.006.53-.006c.518 0 .89.115 1.116.345.229.226.344.513.344.861 0 .34-.124.63-.372.867-.245.237-.594.355-1.049.355a7.15 7.15 0 01-.592-.022v1.494zm.598-3.455c-.151 0-.35.004-.598.011V27c.214.018.406.028.575.028.29 0 .517-.069.682-.206.166-.14.248-.333.248-.578 0-.237-.075-.422-.225-.555-.15-.133-.378-.2-.682-.2zm1.416 3.455l1.697-3.91h.412l1.697 3.91h-.513l-.508-1.177h-1.798l-.502 1.177h-.485zm1.889-3.283l-.71 1.661h1.42l-.71-1.66zm11.903-.161v-.444h3.242v.444h-1.381v3.444h-.48V25.5h-1.381zm4.368 3.444h-.479v-3.888l.502-.006.53-.006c.518 0 .891.115 1.116.345.229.226.344.513.344.861 0 .34-.124.63-.372.867-.244.237-.594.355-1.049.355a7.15 7.15 0 01-.592-.022v1.494zm.598-3.455c-.151 0-.35.004-.598.011V27c.214.018.406.028.575.028.29 0 .517-.069.682-.206.166-.14.249-.333.249-.578 0-.237-.076-.422-.226-.555-.15-.133-.378-.2-.682-.2zM139.371 27c0-.567.19-1.04.57-1.422.38-.385.861-.578 1.443-.578.579 0 1.058.187 1.438.561.383.374.575.854.575 1.439 0 .574-.192 1.052-.575 1.433-.383.378-.863.567-1.438.567-.579 0-1.06-.187-1.443-.561-.38-.374-.57-.854-.57-1.439zm.508 0c0 .44.145.811.434 1.111a1.44 1.44 0 001.071.445c.444 0 .805-.149 1.083-.445.282-.296.423-.667.423-1.111 0-.448-.145-.819-.434-1.111a1.44 1.44 0 00-1.072-.445c-.432 0-.791.147-1.077.44-.285.292-.428.664-.428 1.116zm4.818 1.944h-.423v-3.888h.479v3.11l2.396-3.11h.423v3.888h-.479v-3.11l-2.396 3.11zm3.523-3.444v-.444h3.242v.444h-1.381v3.444h-.48V25.5h-1.381zm3.889 3.444v-3.888h2.227v.444h-1.748v1.256h1.579v.444h-1.579v1.3h1.804v.444h-2.283zm5.673 0V25.5h-1.432l-.068.733c-.045.482-.103.895-.175 1.24a4.5 4.5 0 01-.231.805 1.32 1.32 0 01-.293.455.718.718 0 01-.321.2.962.962 0 01-.361.011l.006-.472a.456.456 0 00.191-.016c.057-.019.124-.076.203-.173.083-.1.154-.239.214-.416a5.08 5.08 0 00.187-.79c.06-.347.107-.762.14-1.244l.057-.777h2.362v3.888h-.479zm2.659-2.027c-.147 0-.32.01-.519.033v1.544c.305.012.472.017.502.017.331 0 .585-.068.761-.205.181-.141.271-.349.271-.623 0-.248-.088-.437-.265-.566-.177-.134-.427-.2-.75-.2zm-.519-1.861V26.5c.237-.018.421-.028.553-.028.496 0 .868.106 1.116.317.248.211.372.505.372.883 0 .408-.141.724-.423.95-.278.222-.669.334-1.172.334-.121 0-.288-.002-.502-.006a31.497 31.497 0 00-.423-.006v-3.888h.479zm5.576 3.155l.192.356c-.132.133-.31.239-.536.316a2.159 2.159 0 01-.71.117c-.594 0-1.077-.181-1.449-.544-.369-.367-.553-.852-.553-1.456 0-.574.177-1.05.53-1.428.357-.381.836-.572 1.438-.572.503 0 .904.126 1.201.378l-.22.355c-.263-.192-.588-.289-.976-.289-.428 0-.78.145-1.054.434-.274.289-.411.663-.411 1.122 0 .463.14.839.422 1.128.286.285.658.428 1.117.428a1.56 1.56 0 001.009-.345zm.419-2.711v-.444h3.242v.444h-1.382v3.444h-.479V25.5h-1.381zm3.889 3.439V25.06a63.52 63.52 0 011.082-.022c.444 0 .765.087.964.261a.876.876 0 01.305.7.884.884 0 01-.186.578 1.052 1.052 0 01-.491.322v.011c.252.04.451.14.598.3.146.156.22.363.22.622 0 .378-.132.661-.395.85-.259.186-.605.278-1.038.278-.398 0-.751-.007-1.059-.022zm1.116-1.767h-.637v1.322c.173.015.376.023.609.023.297 0 .524-.06.682-.178.162-.122.242-.3.242-.533a.53.53 0 00-.236-.467c-.155-.111-.374-.167-.66-.167zm-.045-1.689c-.113 0-.31.006-.592.017v1.256h.631a.839.839 0 00.542-.173.574.574 0 00.219-.477c0-.415-.266-.623-.8-.623zM172.975 27c0-.567.19-1.04.57-1.422.379-.385.861-.578 1.443-.578.579 0 1.058.187 1.438.561.383.374.575.854.575 1.439 0 .574-.192 1.052-.575 1.433-.384.378-.863.567-1.438.567-.579 0-1.06-.187-1.443-.561-.38-.374-.57-.854-.57-1.439zm.508 0c0 .44.144.811.434 1.111.289.296.646.445 1.071.445.444 0 .805-.149 1.083-.445.282-.296.423-.667.423-1.111 0-.448-.145-.819-.435-1.111a1.437 1.437 0 00-1.071-.445c-.432 0-.791.147-1.077.44-.285.292-.428.664-.428 1.116zm-41.299 1.211l.191.356c-.131.133-.31.239-.535.316a2.169 2.169 0 01-.711.117c-.594 0-1.077-.181-1.449-.544-.368-.367-.552-.852-.552-1.456 0-.574.176-1.05.53-1.428.357-.381.836-.572 1.437-.572.504 0 .904.126 1.201.378l-.22.355c-.263-.192-.588-.289-.975-.289-.428 0-.78.145-1.054.434-.275.289-.412.663-.412 1.122 0 .463.141.839.423 1.128.286.285.658.428 1.116.428.388 0 .724-.115 1.01-.345z" fill="#fff"/></svg>