<svg width="263" height="87" fill="none" xmlns="http://www.w3.org/2000/svg"><path d="M120.098 64.054v-3.127h.891c.285 0 .499.07.642.209.144.139.217.347.217.625a.69.69 0 01-.11.386.74.74 0 01-.296.26.59.59 0 01.339.264.875.875 0 01.127.48c0 .281-.078.502-.232.662-.153.16-.372.24-.657.24h-.921zm.393-1.462v1.125h.536a.454.454 0 00.355-.146c.087-.1.131-.237.131-.415 0-.376-.159-.564-.477-.564h-.545zm0-.331h.504a.423.423 0 00.329-.138.519.519 0 00.126-.365c0-.171-.038-.296-.113-.373-.076-.079-.192-.118-.348-.118h-.498v.994zm3.465.977H122.9l-.243.816h-.404l1.007-3.127h.338l1.009 3.127h-.404l-.247-.816zm-.953-.34h.852l-.427-1.42-.425 1.42zm2.443-1.97v2.789h.848v-2.79h.391v2.79h.842v-2.79h.395v3.127h-2.871v-3.127h.395zm4.664 2.31h-1.056l-.243.816h-.404l1.007-3.127h.337l1.01 3.127h-.404l-.247-.816zm-.953-.34h.852l-.427-1.42-.425 1.42zm5.069 1.156h-.395v-2.787h-1.224v2.787h-.393v-3.127h2.012v3.127zm2.33-3.126h.393v3.126h-.393v-2.41l-1.218 2.41h-.395v-3.127h.395v2.41l1.218-2.41zm1.093 3.126v-3.127h.891c.285 0 .499.07.642.209.144.139.217.347.217.625a.69.69 0 01-.11.386.74.74 0 01-.296.26.59.59 0 01.339.264.875.875 0 01.127.48c0 .281-.078.502-.232.662-.153.16-.372.24-.657.24h-.921zm.393-1.462v1.125h.536a.454.454 0 00.355-.146c.087-.1.131-.237.131-.415 0-.376-.159-.564-.477-.564h-.545zm0-.331h.504a.423.423 0 00.329-.138.519.519 0 00.126-.365c0-.171-.037-.296-.113-.373-.076-.079-.192-.118-.348-.118h-.498v.994zm4.041.505c0 .426-.091.755-.273.985-.182.23-.44.346-.775.346-.322 0-.577-.112-.765-.335-.186-.225-.282-.542-.289-.952v-.588c0-.418.092-.745.277-.981.184-.238.442-.356.773-.356.329 0 .585.113.768.34.185.227.279.55.284.971v.57zm-.393-.548c0-.33-.055-.576-.163-.737-.108-.161-.273-.242-.496-.242a.557.557 0 00-.492.245c-.11.163-.166.403-.168.721v.56c0 .32.055.563.166.73.111.168.277.252.498.252.22 0 .383-.078.489-.232.106-.155.161-.392.166-.71v-.587zm1 1.836v-3.127h.891c.285 0 .499.07.642.209.145.139.217.347.217.625a.69.69 0 01-.109.386.736.736 0 01-.297.26.589.589 0 01.34.264.883.883 0 01.126.48c0 .281-.077.502-.232.662-.153.16-.372.24-.657.24h-.921zm.393-1.462v1.125h.537a.45.45 0 00.354-.146c.088-.1.131-.237.131-.415 0-.376-.159-.564-.476-.564h-.546zm0-.331h.505a.42.42 0 00.328-.138.515.515 0 00.127-.365c0-.171-.038-.296-.114-.373-.076-.079-.192-.118-.348-.118h-.498v.994zm3.466.977h-1.057l-.242.816h-.404l1.007-3.127h.337l1.009 3.127h-.403l-.247-.816zm-.954-.34h.853l-.427-1.42-.426 1.42zm2.422-.068v1.224h-.392v-3.127h.996c.29 0 .519.088.685.262.166.174.249.405.249.694 0 .3-.08.532-.239.696-.157.161-.38.245-.667.25h-.632zm0-.337h.604c.174 0 .308-.053.401-.157.093-.105.14-.254.14-.449a.673.673 0 00-.144-.45.491.491 0 00-.395-.17h-.606v1.226zm3.545.116h-1.105v1.108h1.288v.337h-1.681v-3.127h1.659v.34h-1.266v1.005h1.105v.337zm2.734 1.445h-.395v-1.445h-1.259v1.445h-.392v-3.127h.392v1.345h1.259v-1.344h.395v3.126zm2.727 0h-.395v-1.445h-1.259v1.445h-.393v-3.127h.393v1.345h1.259v-1.344h.395v3.126zm2.177-.816h-1.056l-.243.816h-.404l1.007-3.127h.337l1.01 3.127h-.404l-.247-.816zm-.953-.34h.852l-.427-1.42-.425 1.42zm3.392 1.156v-1.218h-.541l-.539 1.218h-.419l.612-1.338c-.34-.159-.511-.44-.511-.846 0-.293.082-.523.245-.69.165-.167.395-.251.689-.252h.859v3.126h-.395zm-1.003-2.184c0 .189.048.34.142.455a.502.502 0 00.397.174h.464v-1.232h-.459c-.178 0-.313.053-.406.16-.092.108-.138.256-.138.443zm3.831.78h-.296v1.404h-.393v-3.127h.393v1.379h.24l.881-1.378h.489l-.992 1.511 1.065 1.615h-.481l-.906-1.404zm3.721.116c0 .426-.091.755-.273.985-.181.23-.44.346-.775.346-.322 0-.577-.112-.764-.335-.186-.225-.283-.542-.29-.952v-.588c0-.418.092-.745.277-.981.185-.238.442-.356.773-.356.329 0 .585.113.769.34.184.227.279.55.283.971v.57zm-.393-.548c0-.33-.054-.576-.163-.737-.107-.161-.273-.242-.496-.242a.559.559 0 00-.492.245c-.11.163-.166.403-.167.721v.56c0 .32.055.563.165.73a.56.56 0 00.498.252c.221 0 .384-.078.49-.232.106-.155.161-.392.165-.71v-.587zm1.507-1.29l.816 2.55.816-2.55h.507v3.126h-.393v-1.218l.037-1.22-.818 2.438h-.301l-.814-2.429.037 1.211v1.218h-.393v-3.127h.506zm4.849 3.126h-.395v-2.787h-1.224v2.787h-.393v-3.127h2.012v3.127zm2.158-.816h-1.057l-.242.816h-.404l1.007-3.127h.337l1.009 3.127h-.403l-.247-.816zm-.954-.34h.853l-.427-1.42-.426 1.42zm4.076 1.156h-.395v-1.445h-1.259v1.445h-.393v-3.127h.393v1.345h1.259v-1.344h.395v3.126zm2.31-3.126h.393v3.126h-.393v-2.41l-1.217 2.41h-.395v-3.127h.395v2.41l1.217-2.41zm2.456 3.126v-1.218h-.541l-.539 1.218h-.418l.612-1.338c-.341-.159-.511-.44-.511-.846 0-.293.081-.523.244-.69.165-.167.395-.251.69-.252h.859v3.126h-.396zm-1.002-2.184c0 .189.047.34.141.455a.502.502 0 00.398.174h.463v-1.232h-.459c-.178 0-.313.053-.406.16-.091.108-.137.256-.137.443zm-62.789-21.988l.235-.234h11.07l.234.234v14.776l-.234.234h-1.736l-.234-.234V42.32l-.704-.703h-5.723l-.703.703v12.337l-.235.234h-1.735l-.235-.234V39.882zm15.758 0l.234-.234h5.16c3.354 0 5.605 1.993 5.605 5.16 0 3.142-2.392 5.16-5.863 5.16h-2.228l-.704.703v3.987l-.234.234h-1.736l-.234-.234V39.882zm2.204 2.416v5.019l.704.704h2.204c2.393 0 3.683-1.126 3.683-3.213 0-2.158-1.197-3.214-3.542-3.214h-2.345l-.704.704zm12.087-2.416l.235-.234h1.712l.234.234v9.124l1.29.398 6.168-9.639.188-.117h1.642l.234.234v14.776l-.234.234h-1.712l-.235-.234v-8.842l-1.29-.399-6.051 9.358-.187.117h-1.759l-.235-.234V39.882zm15.918 0l.235-.234h2.134l.211.117 3.705 6.614h1.22l3.729-6.614.211-.117h2.087l.235.234v14.776l-.235.234h-1.665l-.234-.234v-9.123l-1.314-.352-2.884 5.019-.211.117h-.798l-.211-.117-2.791-4.972-1.313.352v9.076l-.235.234h-1.641l-.235-.234V39.882zm17.205.094l.211-.328h2.088l.234.14 3.33 7.6h1.29l2.932-7.6.235-.14h1.97l.211.328-5.254 12.266c-.868 2.04-2.111 2.955-3.705 2.955-.774 0-1.361-.094-1.924-.281l-.14-.305.469-1.525.305-.14c.351.14.774.21 1.196.21.797 0 1.384-.492 1.712-1.336l.117-.305v-.657l-5.277-10.882zm26.296 1.454l-1.102 1.267-.329.023c-1.032-.914-2.204-1.407-3.588-1.407-2.861 0-4.784 2.392-4.784 5.957 0 3.424 1.805 5.957 4.807 5.957 1.455 0 2.768-.563 3.917-1.665l.328.024 1.056 1.196-.024.328c-1.454 1.407-3.213 2.087-5.394 2.087-4.174 0-6.895-3.213-6.895-7.927 0-4.409 2.861-7.927 7.13-7.927 1.923 0 3.494.563 4.854 1.759l.024.328zm-125.046.113v-.057a4.87 4.87 0 00-2.4-4.01l-.297-11.444H77.65l-.298 11.443a4.858 4.858 0 00-2.396 3.964.118.118 0 000 .05v22.28h9.879V41.677c0-.044-.003-.094-.007-.134zM72.28 30.657l-.03-1.637h-4.345c0 .27-.044 1.637-.044 1.637h4.419z" fill="#fff"/><path d="M75.014 47.562v-.057a4.873 4.873 0 00-2.4-4.01l-.297-11.444h-4.482l-.288 11.45a4.85 4.85 0 00-2.396 4.015v16.26h9.88V47.693c0-.044-.014-.09-.017-.13zm19.672 0v-.057a4.859 4.859 0 00-2.4-4.01l-.294-11.444h-4.486l-.297 11.444a4.85 4.85 0 00-2.393 3.964.12.12 0 000 .05v16.26h9.87V47.693c0-.044.003-.09 0-.13z" fill="#fff"/><path d="M65.264 52.218l-6.775-3.322v14.88h6.775V52.217z" fill="#fff"/><path d="M58.775 52.218L52 48.896v14.88h6.775V52.217zm35.757-.063l6.972-3.259 10.147 9.251v5.629H94.178l.354-11.621zM82.1 24.638L82.067 23h-4.345c0 .27-.04 1.638-.04 1.638H82.1zm9.845 6.02l-.03-1.638H87.6c0 .27-.043 1.638-.043 1.638h4.388z" fill="#fff"/><path d="M107.687 61.747h-3.232v-3.322a1.613 1.613 0 011.615-1.615 1.616 1.616 0 011.617 1.614v3.323z" fill="#fff"/></svg>