<svg width="100" height="100" fill="none" xmlns="http://www.w3.org/2000/svg"><path d="M15.813 74.008l8.563 7.294 8.558-7.294h13.64V100h-5.36V79.368h-6.306l-10.531 8.976-10.537-8.976H7.533V100h-5.36V74.008h13.64z" fill="#312D2D"/><path d="M24.376 70.67a9.298 9.298 0 100-18.596 9.298 9.298 0 000 18.596z" fill="#EE3A23"/><path d="M30.995 61.372a6.619 6.619 0 10-13.237 0 6.619 6.619 0 0013.237 0zm5.36 0c0 6.615-5.363 11.978-11.978 11.978-6.615 0-11.978-5.363-11.978-11.978 0-6.615 5.363-11.977 11.978-11.978 6.615 0 11.977 5.363 11.978 11.978z" fill="#312D2D"/><path d="M41.52 30.477l8.563 7.294 8.558-7.294h13.64v23.092h-5.36V35.836h-6.306l-10.531 8.976-10.537-8.976H33.24v17.733h-5.36V30.477h13.64z" fill="#312D2D"/><path d="M50.084 27.138a9.298 9.298 0 100-18.596 9.298 9.298 0 000 18.596z" fill="#EE3A23"/><path d="M56.703 17.84a6.619 6.619 0 10-13.238.001 6.619 6.619 0 0013.237 0zm5.358 0c0 6.615-5.362 11.978-11.977 11.978S38.106 24.455 38.106 17.84c0-6.615 5.363-11.977 11.978-11.977 6.615 0 11.977 5.362 11.977 11.977zm4.969 56.168l8.563 7.294 8.558-7.294h13.64V100h-5.36V79.368h-6.306l-10.531 8.976-10.537-8.976H58.75V100h-5.36V74.008h13.64z" fill="#312D2D"/><path d="M75.593 70.67a9.298 9.298 0 100-18.596 9.298 9.298 0 000 18.596z" fill="#EE3A23"/><path d="M82.211 61.372a6.619 6.619 0 10-13.237 0 6.619 6.619 0 0013.237 0zm5.36 0c0 6.615-5.364 11.978-11.978 11.978-6.615 0-11.978-5.363-11.978-11.978 0-6.615 5.363-11.977 11.977-11.978 6.615 0 11.978 5.363 11.978 11.978zM55.095 57.53l-5.027 7.684-5.016-7.685 5.016-18.928.005-.01.006.01 5.016 18.928z" fill="#312D2D"/><path d="M50.079 44.432l-.006-.01.006-.011v.021zm.005 8.725v.027l-.01-.017.01-.01zm-.011-8.736l-.006.011v-.022l.006.011zm-.006 8.736l.006.01-.006.017v-.027zM38.652 5.82l11.453 4.893L61.509 5.82 50.105 0 38.652 5.82z" fill="#312D2D"/></svg>