<svg width="209" height="54" fill="none" xmlns="http://www.w3.org/2000/svg"><path d="M112.911 7.575H39.863v38.992h73.048V7.575z" fill="#fff"/><path d="M39.287 7v40.143h131.959V7H39.287zm73.623 39.567H39.863V7.575h73.048v38.992h-.001z" fill="#312D2D"/><path d="M53.484 27.328H49.48c-.17-.843-.342-1.686-.515-2.532a41.86 41.86 0 00-.542-2.344c-.356-1.371-.786-3.081-2.51-3.081v5.391c0 1.003.51 1.516 1.5 1.606v.96h-5.645v-.96c1.036-.036 1.532-.419 1.532-1.497V12.54c0-.996-.562-1.525-1.532-1.685V9.9h5.645v.955c-1.01.113-1.5.501-1.5 1.56v5.797h.477c.196 0 .402-.046.616-.142.213-.092.404-.28.578-.57.352-.578.617-1.17.793-1.762.176-.595.33-1.203.458-1.823.145-.688.28-1.27.398-1.753.117-.478.35-.997.698-1.564a2.13 2.13 0 01.633-.683c.25-.167.525-.251.823-.251.493 0 .88.209 1.164.628.218.319.343.705.396 1.158.017.139.027.284.031.435.052 2.526-2.397 2.693-2.765.59-.148.257-.276.646-.387 1.175-.11.528-.213.99-.306 1.38-.19.813-.377 1.429-.56 1.848-.18.424-.39.772-.625 1.053v.222c.689.302 1.255.801 1.708 1.497.453.696.817 1.543 1.098 2.54.12.436.248.898.379 1.383.129.487.244.902.341 1.245.295 1.04.587 1.425 1.626 1.547v.962h-.003zm23.924-8.878c.07.328.21.582.414.753.512.428 1.371.335 1.736-.237.211-.332.316-.763.316-1.296 0-.717-.291-1.498-.781-2.03-.524-.567-1.238-.852-2.14-.852-.644 0-1.231.176-1.763.533a4.43 4.43 0 00-1.337 1.434 7.77 7.77 0 00-.827 2.025 9.51 9.51 0 00-.306 2.432c0 .935.083 1.798.252 2.59.165.797.419 1.485.756 2.064a3.97 3.97 0 001.293 1.358c.523.332 1.123.499 1.806.499.422 0 .791-.088 1.11-.26.32-.171.634-.423.942-.758a4.95 4.95 0 00.76-1.103c.211-.41.392-.868.545-1.367l-.553-.64c-.251.745-.535 1.32-.857 1.726-.322.407-.756.608-1.299.608-.57 0-1.06-.444-1.47-1.337-.41-.893-.615-2.067-.615-3.525 0-.97.048-1.794.138-2.482.09-.688.21-1.237.364-1.648.156-.432.326-.734.508-.905a.858.858 0 01.603-.26c.797 0 .558.847.457 1.349-.089.438-.143.88-.052 1.33zm-14.71 2.896c0 2.131-.821 6.301-3.666 6.301-.469 0-.854-.079-1.147-.239a2.457 2.457 0 01-.73-.582h-.057v3.45c0 .286.038.537.113.751.076.214.183.368.322.465.13.093.32.172.563.248.241.071.444.117.605.135v.909h-5.313v-.91c.123-.017.279-.047.465-.093s.327-.091.42-.142c.156-.088.264-.244.318-.462.058-.214.086-.462.086-.741V17.87c-.047-.853-.355-1.535-1.274-1.656v-.898l3.585-.32.111.16v1.364l.058.025c.324-.55.684-.978 1.077-1.279.397-.302.787-.453 1.176-.453 2.874 0 3.288 4.528 3.288 6.533zm-2.64.05c0-1.07-.012-4.718-1.693-4.718-.645 0-1.008.456-1.266.994v6.963c.129.7.451 1.904 1.353 1.904 1.63 0 1.606-4.227 1.606-5.144zm12.002 5.672a4.101 4.101 0 01-.766.432c-.294.13-.606.196-.935.196-.603 0-1.048-.15-1.331-.448-.287-.297-.48-.726-.583-1.282h-.043a7.71 7.71 0 01-.483.712 3 3 0 01-.497.502c-.23.181-.452.315-.665.399-.214.09-.513.13-.895.13-.57 0-1.055-.281-1.457-.842-.402-.562-.605-1.303-.605-2.23 0-.533.045-.982.133-1.355.088-.373.213-.704.377-.989a2.44 2.44 0 01.51-.65c.194-.172.407-.335.638-.482.44-.269.97-.55 1.587-.839.62-.293 1.07-.553 1.357-.78v-1.181c0-.206-.01-.474-.03-.81a4.186 4.186 0 00-.125-.846 1.678 1.678 0 00-.325-.662.719.719 0 00-.58-.273.91.91 0 00-.542.155c-.422.296-.32.838-.217 1.36.086.428.118.764.031 1.194-.07.329-.21.582-.415.754-.511.428-1.371.334-1.736-.237-.21-.331-.316-.763-.316-1.296 0-.855.455-1.627 1.126-2.138a3.546 3.546 0 011.067-.57 3.572 3.572 0 011.12-.202c.475 0 .913.046 1.309.139a2.37 2.37 0 011.075.586c.303.286.545.7.723 1.245.18.545.268 1.253.268 2.13 0 .926-.01 2.025-.032 3.29a164.083 164.083 0 00-.032 2.507c0 .37.032.66.098.873.067.213.168.373.306.478.082.067.213.104.394.117.179.013.341.02.49.02v.893zm-3.658-6.398a7.773 7.773 0 00-.82.537 3.38 3.38 0 00-.66.63c-.184.23-.324.523-.427.88a4.555 4.555 0 00-.156 1.257c0 .642.089 1.103.262 1.388.176.289.39.432.645.432a.88.88 0 00.666-.277 2.71 2.71 0 00.46-.683l.03-4.164zm22.048 6.658h-4.474v-.898l.31-.092a.806.806 0 00.331-.201.96.96 0 00.246-.424c.046-.168.07-.41.07-.733v-3.522h-2.752v3.522c0 .288.025.523.072.712.05.189.13.336.244.445.078.071.176.133.291.184.116.047.231.084.35.11v.897h-4.474v-.898a4.17 4.17 0 00.372-.067c.123-.029.231-.067.32-.117a.694.694 0 00.324-.415 2.62 2.62 0 00.087-.738V17.38c0-.286-.03-.532-.092-.73-.06-.2-.166-.343-.319-.423a1.335 1.335 0 00-.354-.13 6.333 6.333 0 00-.336-.055v-.897h4.474v.897a1.89 1.89 0 00-.327.093.846.846 0 00-.314.2.832.832 0 00-.246.453 3.06 3.06 0 00-.07.7v2.826h2.752v-2.826c0-.268-.023-.499-.068-.691a.86.86 0 00-.57-.658 3.295 3.295 0 00-.319-.097v-.897h4.474v.897a2.68 2.68 0 00-.366.06 1.737 1.737 0 00-.324.125c-.144.071-.247.206-.315.399a2.404 2.404 0 00-.098.755v7.714c0 .293.03.542.09.743.063.2.169.34.322.41.118.06.22.101.311.123.09.025.219.046.38.062v.896h-.002zm8.398-10.736c.364.565.64 1.24.83 2.03.192.783.288 1.634.288 2.552 0 .91-.093 1.77-.281 2.574-.192.805-.465 1.497-.83 2.071-.386.612-.849 1.082-1.386 1.413-.537.327-1.153.491-1.844.491-.598 0-1.15-.143-1.652-.432-.502-.286-.947-.717-1.336-1.287-.373-.55-.666-1.228-.882-2.033-.217-.81-.325-1.71-.325-2.708 0-.986.096-1.858.284-2.625a6.946 6.946 0 01.85-2.046c.364-.57.81-1.015 1.343-1.33a3.41 3.41 0 011.784-.473c.688 0 1.29.155 1.813.473.522.315.972.758 1.344 1.33zm-1.885 8.514c.11-.461.189-1.015.239-1.673.053-.654.078-1.417.078-2.286 0-.57-.025-1.227-.072-1.961-.051-.738-.123-1.32-.221-1.744-.119-.515-.282-.922-.49-1.216-.208-.297-.472-.444-.79-.444-.35 0-.626.159-.835.478-.208.323-.37.734-.482 1.24a10.66 10.66 0 00-.213 1.64c-.04.629-.06 1.282-.06 1.961 0 .893.017 1.632.052 2.213.036.587.118 1.175.248 1.766.113.507.277.91.488 1.203.212.293.477.44.801.44.294 0 .547-.133.76-.41.209-.272.374-.674.497-1.207zm11.862-.712a8.443 8.443 0 01-.621 1.32c-.243.411-.52.767-.828 1.06-.329.311-.661.55-.997.71a2.683 2.683 0 01-1.159.238c-.726 0-1.354-.171-1.882-.516a4.148 4.148 0 01-1.305-1.388c-.342-.583-.601-1.27-.769-2.058a12.387 12.387 0 01-.254-2.574c0-.835.092-1.635.276-2.403a7.788 7.788 0 01.784-2.042 4.355 4.355 0 011.261-1.413 2.886 2.886 0 011.706-.54c.686 0 1.25.138 1.69.415.442.28.809.665 1.097 1.157.279.466.483 1.015.611 1.652.129.633.192 1.3.192 1.995v.797h-4.974c0 1.68.193 2.955.581 3.831.388.877 1.004 1.317 1.847 1.317.46 0 .875-.21 1.244-.633.367-.423.681-.956.942-1.601l.558.676zm-2.811-4.667c0-.495-.015-.998-.043-1.514a8.371 8.371 0 00-.155-1.265c-.083-.382-.198-.676-.342-.873-.146-.193-.33-.293-.548-.293-.379 0-.68.318-.906.96-.226.637-.347 1.647-.367 3.03l2.361-.045z" fill="#312D2D"/><path fill-rule="evenodd" clip-rule="evenodd" d="M112.914 36.462c-.379.15-.774.225-1.187.225-.917 0-1.667-.358-2.256-1.07-.585-.716-.879-1.642-.879-2.788 0-.572.052-1.063.158-1.472.106-.408.276-.82.513-1.23a4.57 4.57 0 01.839-1.063 8.148 8.148 0 011.125-.886c-.443-.806-.749-1.49-.925-2.054a5.897 5.897 0 01-.261-1.739c0-1.016.293-1.855.884-2.517.558-.624 1.222-.956 1.988-.988v1.139a1.04 1.04 0 00-.317.315c-.196.294-.295.677-.295 1.15 0 .409.091.875.272 1.392.089.256.203.54.34.849v5.503c-.474-.821-.918-1.61-1.332-2.364-.262.368-.449.8-.566 1.288a6.574 6.574 0 00-.171 1.478c0 .94.209 1.707.625 2.3.386.547.868.843 1.443.884v1.648h.002z" fill="#312D2D"/><path d="M164.68 36.603c0-.495-.016-.997-.043-1.514a8.243 8.243 0 00-.156-1.265c-.082-.381-.198-.676-.341-.873-.146-.193-.329-.293-.548-.293-.379 0-.68.318-.906.96-.226.637-.348 1.648-.368 3.032l2.362-.047zm2.81 4.667c-.171.465-.38.905-.62 1.32-.243.41-.52.767-.829 1.06a3.92 3.92 0 01-.998.708c-.336.16-.72.24-1.158.24-.726 0-1.354-.172-1.881-.517a4.157 4.157 0 01-1.306-1.387c-.342-.582-.6-1.27-.769-2.058a12.384 12.384 0 01-.253-2.574c0-.834.092-1.636.276-2.402a7.747 7.747 0 01.784-2.043 4.364 4.364 0 011.262-1.412 2.875 2.875 0 011.704-.54c.686 0 1.252.137 1.691.414.442.28.809.666 1.098 1.157.278.464.482 1.014.611 1.651.129.633.189 1.299.189 1.995v.798h-4.973c0 1.68.193 2.955.58 3.831.39.876 1.004 1.317 1.849 1.317.46 0 .874-.21 1.244-.633.366-.423.68-.955.941-1.602l.558.677zm-11.86.712c.107-.46.187-1.014.238-1.673.052-.654.078-1.417.078-2.285 0-.57-.025-1.229-.073-1.962-.05-.737-.123-1.32-.221-1.744-.118-.516-.281-.922-.49-1.216-.208-.298-.472-.445-.791-.445-.349 0-.625.16-.834.478-.208.324-.369.734-.482 1.24a10.89 10.89 0 00-.214 1.64 30.93 30.93 0 00-.061 1.962c0 .893.019 1.631.053 2.214.035.587.119 1.173.248 1.765.114.507.277.91.488 1.203.211.294.477.44.801.44.294 0 .548-.134.758-.41.213-.271.379-.674.502-1.207zm1.884-8.515c.364.566.641 1.241.831 2.029.191.785.287 1.635.287 2.553 0 .91-.094 1.769-.283 2.574-.191.806-.464 1.497-.828 2.07-.387.613-.849 1.082-1.386 1.414-.537.326-1.154.49-1.843.49a3.255 3.255 0 01-1.654-.431c-.503-.285-.946-.717-1.337-1.287-.371-.549-.666-1.229-.882-2.034-.216-.809-.323-1.711-.323-2.709 0-.985.095-1.856.283-2.625a6.971 6.971 0 01.849-2.046 4.033 4.033 0 011.344-1.33 3.41 3.41 0 011.784-.472c.689 0 1.291.154 1.813.473.523.317.973.762 1.345 1.331zm-20.929 3.136c0-.495-.015-.997-.042-1.514a8.505 8.505 0 00-.156-1.265c-.083-.381-.198-.676-.342-.873-.145-.193-.329-.293-.547-.293-.38 0-.681.318-.907.96-.226.637-.346 1.648-.368 3.032l2.362-.047zm2.171 6.018l-.002.003-.006.012-.004.005-.003.006-.007.012-.001.002-.007.008-.005.009-.001.002-.007.011-.003.005-.004.007-.007.01-.001.002-.006.01-.006.008-.009.013-.002.005-.004.007-.006.01-.001.001-.007.011-.005.009-.002.002-.007.011-.002.004-.003.007-.028.043-.003.004-.005.008-.007.01-.006.012-.005.006-.002.004-.015.02-.006.011-.022.032-.003.004-.024.033-.003.004-.01.013-.005.006-.006.01-.098.13-.001.003-.006.007-.07.087a4.312 4.312 0 01-.365.395 3.98 3.98 0 01-.998.708c-.336.16-.72.24-1.158.24-.725 0-1.353-.172-1.88-.517a4.16 4.16 0 01-1.307-1.387c-.342-.582-.601-1.27-.769-2.058a12.314 12.314 0 01-.254-2.574c0-.834.092-1.636.276-2.402a7.78 7.78 0 01.784-2.043 4.363 4.363 0 011.261-1.413 2.878 2.878 0 011.706-.54c.685 0 1.251.137 1.69.415.442.28.809.666 1.098 1.157.278.464.482 1.014.61 1.651.129.633.191 1.299.191 1.995v.798h-4.974c0 1.68.194 2.955.58 3.831.39.876 1.005 1.317 1.849 1.317.245 0 .474-.058.691-.176l.004-.002.005-.004.009-.005.005-.004.005-.002.008-.004.006-.004.003-.002.01-.006.006-.004h.002l.01-.006.008-.005.001-.001.008-.006.009-.006.01-.005.008-.006.001-.001.008-.005.009-.007h.001l.007-.006.009-.006.004-.002.005-.004.009-.006.005-.004.005-.003.008-.006.005-.004.003-.002.009-.008.006-.004.003-.002.01-.005.007-.006.002-.002.008-.007.008-.005v-.002l.009-.006.008-.008h.001l.009-.008.009-.006.002-.001.006-.006.009-.007.003-.002.006-.005.008-.007.003-.004.005-.004.009-.008.004-.003.004-.004.009-.008.006-.005.003-.003.015-.013.002-.001.009-.008.006-.008h.001l.018-.016.007-.008.009-.008v-.001l.007-.007.008-.009.002-.002.006-.006.009-.008.003-.004.004-.005.009-.008.004-.005.012-.013.005-.006.004-.003.009-.009.004-.007.002-.002.009-.01.007-.007h.002l.007-.01.009-.01.015-.017.002-.002.014-.017.003-.003.011-.015.006-.006.01-.011.006-.009.008-.01.009-.011.006-.008.01-.012.005-.006.012-.015.002-.004.014-.018.002-.002.029-.037.001-.002.013-.016.004-.005.01-.014.016-.02.007-.01.006-.01.009-.011.006-.008.01-.015.005-.005.012-.017.003-.004.013-.019h.001l.014-.022.014-.021.003-.004.011-.017.005-.006.01-.015.005-.007.009-.013.007-.011.007-.01.008-.013.006-.008.01-.015.004-.006.013-.021.013-.02v-.002l.042-.065.004-.007.009-.015.006-.009.008-.013.006-.01.007-.012.009-.014.005-.008.009-.017.003-.007.012-.019.002-.003.012-.022h.001l.013-.024.001-.002.011-.02.003-.006.01-.018.004-.007.009-.016.006-.01.007-.013.006-.014.007-.01.009-.017.004-.007.01-.019.002-.005.012-.021.002-.002.012-.025.012-.025.002-.002.011-.021.002-.006.01-.02.003-.008.008-.017.006-.011.007-.014.006-.013.005-.01.008-.018.004-.008.009-.02.002-.005.012-.024v-.002l.011-.025.013-.026.002-.002.009-.024.003-.005.009-.02.004-.01.007-.016.006-.013.006-.013c.028-.064.056-.128.082-.195l.558.676a8.269 8.269 0 01-.621 1.32l-.017.026zm-8.213-3.637c0 .868-.114 1.635-.342 2.31-.229.67-.538 1.228-.932 1.668a3.82 3.82 0 01-1.261.935 3.48 3.48 0 01-1.432.306h-6.279v-.96c.144-.02.332-.058.568-.1.234-.047.399-.102.492-.168a.899.899 0 00.37-.478c.067-.206.103-.47.103-.788V29.417c0-.942-.575-1.618-1.534-1.821v-.82h9.326v4.983h-.567c-.22-.947-.493-1.794-.82-2.528-.327-.737-.618-1.14-.871-1.202a2.958 2.958 0 00-.546-.114 5.029 5.029 0 00-.633-.038h-1.744v6.218c.224-.008.475-.025.75-.042.277-.021.54-.033.796-.033.653 0 1.246.087 1.782.26a3.695 3.695 0 011.434.86c.412.385.737.892.979 1.53.239.633.361 1.405.361 2.314zm-2.906.172c0-1.262-.214-2.226-.644-2.892-.43-.668-1.047-1.003-1.851-1.003a12.967 12.967 0 00-.7.05v6.683c.044.32.179.579.408.78.229.2.506.297.829.297.583 0 1.055-.343 1.417-1.035.36-.692.541-1.651.541-2.88z" fill="#fff"/><path d="M140.857 44.512c-1.112 0-1.458-1.343-1.474-2.223-.052-2.526 2.281-2.693 2.651-.59.147-.257.275-.646.385-1.174l.057-.265v-.024a21 21 0 00.311-1.591 25.04 25.04 0 00.303-3.971c0-.953-.333-1.63-1.338-1.757v-.897h7.366v.897c-.841.095-1.105.462-1.105 1.337v7.715c0 .293.034.54.093.742.061.2.169.34.32.411.117.06.223.101.313.122.091.026.216.046.379.062v.898h-4.636v-.898c.124-.017.249-.037.377-.066.126-.03.234-.068.322-.118a.715.715 0 00.329-.415c.061-.189.09-.437.09-.738V33.2h-1.647c-.025 2.045-.133 3.794-.324 5.244-.046.34-.093.664-.143.973-.05.309-.103.603-.159.882-.26 1.3-.636 4.214-2.47 4.214z" fill="#fff"/><path fill-rule="evenodd" clip-rule="evenodd" d="M120.196 36.314h-4.327c-.118-.19-.271-.44-.457-.748a18.632 18.632 0 01-.477-.82c-.52.694-1.041 1.19-1.557 1.49a3.349 3.349 0 01-.468.226v-1.645c.047.003.096.005.145.005.301 0 .56-.054.781-.166.222-.109.458-.307.707-.596a2162.474 2162.474 0 01-1.633-2.83v-5.503c.143.319.309.666.499 1.042.375-.372.646-.81.822-1.305.173-.5.261-1.02.261-1.566 0-.619-.106-1.11-.314-1.464-.209-.358-.48-.535-.811-.535a.866.866 0 00-.457.122v-1.139l.125-.003c.764 0 1.384.265 1.862.785.475.525.713 1.215.713 2.075 0 .748-.143 1.422-.427 2.01-.284.59-.758 1.165-1.42 1.733.535.987.948 1.731 1.239 2.228.295.498.681 1.153 1.169 1.967.308-.658.54-1.262.695-1.812.153-.553.231-1.013.231-1.388 0-.214-.109-.384-.325-.514-.219-.13-.528-.253-.925-.365v-.807h4.115v.807c-.447.054-.779.133-.992.23-.21.102-.422.301-.628.604-.088.127-.198.351-.327.673-.131.322-.253.633-.372.929l-.457 1.132c-.161.397-.36.81-.588 1.24.449.763.822 1.334 1.115 1.71.291.38.53.636.716.778.21.162.48.293.801.386.325.098.646.16.965.188v.846h.001z" fill="#fff"/></svg>