<svg width="60" height="61" fill="none" xmlns="http://www.w3.org/2000/svg"><path d="M57.531 28.544L30.795 55.367l-20.52-20.588 15.58-15.63 9.722 9.754 4.16-4.176-9.72-9.752 6.994-7.016 20.52 20.585z" fill="#EE3A23"/><path d="M60 27.857L37.37 5.155l-7.098 7.12-7.036-7.057L.857 27.67l3.169 3.18 1.785-1.792-1.384-1.388L23.237 8.8l6.758 6.781 7.326 7.35a2.41 2.41 0 01.707 1.713c0 .648-.25 1.253-.707 1.712a2.39 2.39 0 01-1.706.709c-.647 0-1.25-.25-1.707-.71l-8.763-8.79-.268.268-.07-.071-.624.625-13.287 13.33a4.934 4.934 0 00-1.447 3.504c0 1.322.515 2.566 1.447 3.503a4.892 4.892 0 003.491 1.451c.093 0 .184-.008.275-.013a4.94 4.94 0 001.432 3.777 4.915 4.915 0 003.491 1.449c.091 0 .185-.008.276-.013a4.943 4.943 0 001.431 3.78 4.916 4.916 0 003.492 1.448c.09 0 .181-.008.272-.013-.005.091-.012.183-.012.276 0 1.322.512 2.569 1.446 3.503a5.008 5.008 0 003.53 1.48h.045c1.359-.013 2.654-.588 3.656-1.622l26.28-26.364v-.005zM31.918 52.448c-.537.558-1.186.856-1.878.864a2.437 2.437 0 01-1.767-.74 2.41 2.41 0 01-.707-1.712c0-.648.25-1.254.704-1.71l8.688-8.715-1.785-1.79-8.688 8.715a2.41 2.41 0 01-3.413 0 2.429 2.429 0 010-3.425l8.77-8.799-1.784-1.79-8.771 8.799a2.41 2.41 0 01-3.413 0 2.429 2.429 0 010-3.425l8.228-8.254-1.785-1.791-8.228 8.254c-.455.456-1.06.71-1.707.71-.646 0-1.25-.251-1.707-.71a2.404 2.404 0 01-.707-1.712c0-.648.253-1.253.707-1.712l.195-.195 12.199-12.239 7.049 7.072a4.902 4.902 0 003.491 1.451 4.896 4.896 0 003.492-1.451 4.928 4.928 0 001.447-3.503 4.928 4.928 0 00-1.447-3.503l-7.026-7.049-.02-.02 5.312-5.33L56.425 27.86 31.931 52.433l.894.897-.91-.88.003-.002z" fill="#312D2D"/></svg>