<svg width="209" height="54" fill="none" xmlns="http://www.w3.org/2000/svg"><path d="M44.397 10.082C59.428 8.658 68.095 26.08 58.94 37.832c-7.69 9.872-22.91 7.438-27.65-4.052-4.15-10.06 2.105-22.654 13.107-23.695v-.003zm3.586 4.38c-.9-.133-2.361 0-3.34 0-.714 0-2.604.72-3.318 1.053-8.906 4.144-9.53 17.194-1.185 22.246l8.182-22.96c.125-.177-.281-.33-.34-.34zm10.38 11.797c-.1-2.887-1.382-5.954-3.337-8.04-.357-.38-1.989-1.887-2.395-1.849l-.441.451-3.107 9.273c.116.003.296.165.348.165h8.932zm-13.72 13.272c.91.13 2.358 0 3.34 0 3.899 0 8.292-4.418 9.619-7.925.119-.312.43-.888.107-1.07H47.547l-3.252 8.78c0 .053.31.21.348.215zM138.5 22.425h-10.38l-.218.221v2.876h8.566v4.129h-8.566v2.802H138.5v4.129h-14.663V18.296h14.446l.217.221v3.908zm-29.325 11.797v2.36h-3.92V18.443h9.799c2.889 0 5.891 3.578 6.417 6.312.796 4.138-2.512 9.467-6.852 9.467h-5.444zm.217-11.797l-.217.221v7.226l.217.221h5.227c.061 0 .99-.39 1.135-.469 2.558-1.383 2.404-5.403-.145-6.73-.195-.1-1.15-.469-1.281-.469h-4.936zm56.111-3.982v2.36h5.88c3.406 0 6.617 4.645 6.617 7.89 0 3.7-3.441 7.889-7.198 7.889h-9.219V18.443h3.92zm.218 6.341l-.218.222v7.225l.218.222h5.371c.552 0 1.841-1.156 2.169-1.631 1.417-2.065.468-4.952-1.846-5.775-.145-.053-.834-.262-.903-.262h-4.791zM67.073 36.582l6.313-18.142 5.09-.156 6.6 18.295h-4.138l-.784-1.973-8.049-.068-.822 2.04h-4.21v.004zm11.47-6.194c.031-.25-.036-.472-.1-.71-.377-1.407-1.387-4.345-2.003-5.634-.099-.206-.148-.442-.433-.445l-2.485 6.482.16.304h4.863l-.003.003zm23.518-12.092v18.138h-4.065V22.425h-6.823v14.01h-4.065v-18.14h14.953zm57.054 18.286h-4.21l-4.282-12.24-.433-.445-4.576 12.685h-4.355l6.475-18.295 5.069.154 6.312 18.14z" fill="#312D2D"/></svg>