<svg width="209" height="54" fill="none" xmlns="http://www.w3.org/2000/svg"><path d="M168.622 24.138c0-.931 1.279-1.682 2.954-1.682 1.747 0 3.53.823 4.736 2.166l2.18-2.649c-2.071-1.826-4.179-2.774-6.808-2.774-3.278 0-6.664 1.503-6.664 4.94 0 4.223 3.674 4.527 6.664 4.778 1.675.124 3.152.25 3.152 1.342 0 1.181-1.693 1.718-3.188 1.718-1.729 0-3.602-.733-4.971-2.362l-2.324 2.452c1.855 2.255 4.539 3.24 7.169 3.24 3.296 0 6.916-1.558 6.916-5.12 0-4.027-3.71-4.42-6.556-4.706-1.783-.18-3.26-.34-3.26-1.343zm-16.57 1.003c.595-1.486 1.873-2.345 3.764-2.345 1.909 0 3.044.912 3.531 2.345h-7.295zm3.945-5.942c-4.503 0-8.124 3.49-8.124 8.071 0 4.314 3.206 8.036 7.925 8.036 2.846 0 5.151-1.36 6.79-3.687l-2.485-2.093c-.883 1.342-2.468 2.13-4.359 2.13-1.927 0-3.927-1.432-4.088-3.545h11.761V26.86c-.036-4.42-3.062-7.66-7.42-7.66zm-46.073 0c-4.503 0-8.123 3.49-8.123 8.071 0 4.314 3.206 8.036 7.925 8.036 2.846 0 5.151-1.36 6.79-3.687l-2.485-2.093c-.883 1.342-2.468 2.13-4.359 2.13-1.928 0-3.927-1.432-4.089-3.545h11.761V26.86c-.018-4.42-3.061-7.66-7.42-7.66zm32.51 15.552h3.602V19.753h-3.602v14.999zm1.801-22.3c-1.459 0-2.702 1.217-2.702 2.738 0 1.504 1.207 2.614 2.774 2.614 1.531 0 2.648-1.074 2.648-2.56-.018-1.52-1.243-2.792-2.72-2.792zm-52.214 6.73a7.981 7.981 0 00-4.521 1.378V12.63h-3.602v14.64c0 4.456 3.656 8.036 8.105 8.036 4.484 0 8.159-3.561 8.159-8.071-.018-4.493-3.62-8.054-8.141-8.054zm-18.731.25c-4.017.412-7.296 3.848-7.296 7.947 0 4.331 3.73 7.964 8.088 7.964 4.34 0 8.087-3.633 8.087-7.964 0-1.843-.667-3.544-1.748-4.886l-7.996-9.844H67.76l5.53 6.783zm-27.918 8.86l-3.296-8.538h-2.52l-3.315 8.538-3.314-8.538H29l5.8 15.035h2.52l3.477-8.95 3.513 8.949h2.52l5.782-15.034h-3.908l-3.332 8.538zm77.466-5.12v-3.418h-3.603v14.999h3.603v-6.335c0-3.079 3.314-4.958 6.61-4.958v-3.705h-.36c-2.792 0-4.81 1.003-6.25 3.419v-.001zm11.437 0v-3.418h-3.602v14.999h3.602v-6.335c0-3.079 3.314-4.958 6.61-4.958v-3.705h-.36c-2.774 0-4.791 1.003-6.25 3.419v-.001zm-73.738 11.58h3.602V12.648h-3.602v22.104zM74.1 31.726c-2.486 0-4.503-1.986-4.503-4.456a4.475 4.475 0 014.485-4.474c2.503 0 4.539 1.986 4.539 4.474 0 2.47-2.036 4.456-4.521 4.456zm17.903 0a4.522 4.522 0 01-3.188-1.307 4.462 4.462 0 01-1.315-3.166c0-2.452 1.927-4.457 4.52-4.457 2.595 0 4.522 2.005 4.522 4.439 0 2.541-2.054 4.491-4.54 4.491zm-37.715 3.025h3.602V19.753h-3.602v14.999zm1.765-22.3c-1.46 0-2.684 1.217-2.684 2.757 0 1.557 1.279 2.613 2.684 2.613 1.566 0 2.755-1.29 2.755-2.685-.018-1.414-1.26-2.685-2.755-2.685zm49.926 12.69c.613-1.486 1.874-2.345 3.747-2.345 1.927 0 3.098.912 3.584 2.345h-7.331z" fill="#312D2D"/></svg>