<svg width="209" height="54" fill="none" xmlns="http://www.w3.org/2000/svg"><g clip-path="url(#clip0_1098_6195)"><path d="M68.006 8.026c4.78-.001 9.559.001 14.338-.001a9.064 9.064 0 015.476 1.86 9.163 9.163 0 013.33 5.064 9.293 9.293 0 01-.313 5.509 9.174 9.174 0 01-3.537 4.428c-1.492.983-3.28 1.52-5.065 1.478-4.743-.002-9.486 0-14.229 0V8.025zm4.54 4.598l.001 9.17c3.233-.002 6.466-.003 9.698 0a4.627 4.627 0 001.89-.391c1.582-.685 2.713-2.333 2.73-4.075.061-1.463-.654-2.92-1.817-3.79-.742-.567-1.662-.907-2.596-.915-3.302.002-6.604 0-9.906 0zM93.97 8.17c.843-.316 1.812-.048 2.444.577 4.972 3.634 9.957 7.25 14.936 10.875.002-3.865 0-7.73.001-11.596h4.54c.001 5.252-.002 10.502.002 15.754.009.54-.069 1.108-.382 1.561-.506.8-1.541 1.199-2.45.957-.506-.1-.891-.453-1.28-.764-4.924-3.584-9.851-7.165-14.772-10.752.002 3.86 0 7.72.001 11.581h-4.54v-16.03c-.02-.947.612-1.854 1.5-2.163zm27.54-.014c.714-.145 1.447-.131 2.172-.13 4.381.001 8.761-.002 13.142.002.61-.006 1.229.19 1.675.62.571.533.825 1.372.668 2.138-.187.992-1.106 1.798-2.116 1.81-4.704 0-9.409.003-14.115-.001-.474-.037-1.007.134-1.245.577-.275.43-.199 1.025.156 1.385.266.313.695.39 1.085.381 4.057-.008 8.116.008 12.172-.01 1.691.102 3.298 1.024 4.266 2.42a5.759 5.759 0 01.977 4.073 5.693 5.693 0 01-2.389 3.923 5.606 5.606 0 01-3.157 1.02c-5.202-.002-10.403.001-15.604-.002a2.25 2.25 0 01-2.001-1.322 2.319 2.319 0 01.266-2.361c.429-.572 1.136-.896 1.844-.887 5.13.002 10.259 0 15.389.002.694.043 1.302-.678 1.152-1.361-.097-.538-.601-.965-1.146-.952-4.062-.002-8.124-.001-12.185 0-1.474-.017-2.919-.673-3.937-1.742-1.272-1.305-1.84-3.25-1.492-5.043.389-2.228 2.217-4.106 4.423-4.54zm-42.438 24.34c.001-.586.782-.827 1.183-.468.192.166.233.431.225.673-.002 1.213 0 2.425 0 3.639.703-.003 1.406 0 2.11-.003.006-1.315-.016-2.631.01-3.946.079-.617 1.05-.715 1.307-.181.083.151.067.33.073.498-.007 1.203 0 2.407-.004 3.61.352-.01.728.201.757.587.03.463.043.932-.009 1.392-.065.59-.934.731-1.257.28-.192-.286-.114-.651-.132-.975-1.22-.005-2.44.01-3.66-.006-.402-.002-.643-.426-.612-.795.008-1.435-.012-2.872.01-4.305zm6.12-.114c.098-.69 1.275-.687 1.365.006.026.9.007 1.803.007 2.704.76-.982 1.5-1.981 2.262-2.962.266-.356.888-.362 1.141.013.152.228.12.518.129.78-.012 1.362.011 2.725-.011 4.087.004.578-.762.839-1.17.491-.213-.162-.24-.446-.238-.694 0-.78.002-1.561 0-2.342-.76.99-1.51 1.99-2.29 2.964-.364.45-1.235.19-1.206-.422.003-1.54-.015-3.084.01-4.625zm7.864.116c.061-.354.34-.67.723-.628.38-.041.666.272.723.628.593-.072 1.24.034 1.693.455 1.053.897 1.02 2.765-.079 3.614-.445.37-1.054.472-1.615.387-.012.463-.475.82-.92.676-.323-.058-.484-.378-.524-.676-.637.106-1.328-.065-1.783-.541-.976-.936-.886-2.742.203-3.554.446-.347 1.03-.423 1.579-.361zm-.655 1.508c-.472.345-.459 1.15.024 1.48.191.156.445.163.68.177.011-.623.006-1.244.004-1.866-.248.015-.52.02-.708.209zm2.05-.205c-.006.621-.011 1.241.003 1.862.445.035.923-.222 1.021-.686.194-.622-.392-1.273-1.024-1.175zm9.601-1.925c.798-.162 1.685-.015 2.313.533 1.315 1.07 1.397 3.278.244 4.498-.971 1.038-2.804 1.061-3.808.059-1.183-1.163-1.173-3.337.051-4.465a2.51 2.51 0 011.2-.625zm.236 1.323c-.966.364-1.096 1.692-.691 2.522.345.772 1.534.88 2.021.2.44-.632.456-1.536.074-2.2-.265-.485-.889-.705-1.404-.522zm9.949-1.091c.382-.438 1.182-.383 1.488.12.156.269.237.573.345.865.423 1.174.839 2.35 1.263 3.525.075.218.131.47.023.689-.22.466-1.002.465-1.219-.003-.111-.25-.179-.517-.259-.778h-1.896c-.092.285-.155.585-.299.85-.255.379-.882.368-1.146.004-.184-.219-.135-.535-.038-.779.48-1.31.963-2.619 1.441-3.93.074-.199.156-.401.297-.563zm.68 1.531a33.29 33.29 0 00-.515 1.572c.348-.002.698-.002 1.047-.003-.183-.521-.299-1.067-.532-1.569zm10.206-1.187c.028-.57.784-.76 1.176-.43a.766.766 0 01.221.578c.004.827-.002 1.655-.001 2.483.752-.987 1.497-1.978 2.255-2.958.339-.478 1.265-.27 1.242.367.005 1.505.005 3.012 0 4.518.031.444-.47.736-.862.627a.644.644 0 01-.521-.628c-.01-.849.003-1.698-.004-2.545-.753.964-1.488 1.942-2.243 2.904-.262.369-.869.385-1.141.022-.182-.27-.135-.61-.142-.918.018-1.34-.025-2.682.02-4.02zm-27.633.15c-.04-.344.222-.677.572-.688.533-.027 1.069-.013 1.602-.007.637.018 1.285.319 1.644.862.322.471.375 1.087.247 1.635-.178.725-.841 1.277-1.57 1.374-.367.042-.738.017-1.105.022-.03.48.063.975-.05 1.445-.211.607-1.253.517-1.328-.133-.027-1.503-.003-3.006-.012-4.51zm1.39.59c-.002.45-.002.898 0 1.346.345-.023.744.079 1.042-.147.389-.29.301-1.015-.169-1.168-.288-.056-.583-.026-.873-.03zm9.33-1.117c.298-.239.705-.16 1.058-.174.633.023 1.347-.11 1.892.301.733.496.787 1.687.116 2.26.395.19.743.52.863.956.149.657-.032 1.431-.603 1.834-.619.469-1.435.33-2.158.35-.346-.02-.72.066-1.042-.092-.257-.133-.357-.433-.347-.707-.008-1.328.002-2.657-.005-3.986-.001-.259.018-.558.226-.742zm1.192 1.116v.865c.28-.021.624.07.843-.16.152-.192.125-.552-.125-.65-.227-.095-.481-.043-.718-.055zm0 2.153v.995c.341-.009.693.034 1.026-.062.345-.118.446-.69.094-.858-.353-.145-.75-.052-1.12-.075zm9.099-3.117c.654-.418 1.462-.308 2.198-.327.322.014.688-.057.965.154.189.154.217.415.212.644-.007 1.44.003 2.881-.006 4.322.009.436-.469.733-.865.616a.628.628 0 01-.517-.61c-.014-.466.003-.933-.005-1.398-.485.584-.959 1.178-1.445 1.761-.244.308-.754.366-1.033.076-.251-.217-.322-.644-.097-.902.367-.439.779-.835 1.157-1.264-.536-.151-1.051-.517-1.198-1.084-.16-.7-.007-1.574.634-1.988zm1.052 1.061c-.408.156-.381.829.027.972.293.076.604.022.905.035v-1.078c-.311.01-.633-.03-.932.071zm-46.25 7.088c.349-.4 1.142-.256 1.23.304.042.532.006 1.067.017 1.602.652 0 1.365-.077 1.938.309.793.484.915 1.616.535 2.404-.292.595-.975.911-1.615.89-.57-.011-1.14.017-1.71-.012-.38-.04-.584-.437-.56-.79-.008-1.294.002-2.59-.005-3.885.004-.279-.012-.592.17-.822zm1.247 3.166l.001 1.079c.269-.006.541.023.808-.027.355-.064.564-.575.297-.843-.286-.297-.74-.185-1.106-.209zm3.47-3.352c.266-.08.594-.047.786.176.188.192.178.479.18.73-.011 1.393.01 2.788-.01 4.182.017.42-.404.734-.8.658-.376-.015-.635-.384-.606-.744a828.75 828.75 0 010-4.318c-.011-.295.154-.603.45-.684zm7.372.02c.888-.248 1.925-.077 2.6.584 1.18 1.062 1.25 3.086.24 4.283-.906 1.112-2.736 1.22-3.798.28-1.32-1.146-1.324-3.488.006-4.627a2.46 2.46 0 01.952-.52zm.422 1.28c-.968.354-1.106 1.69-.698 2.517.346.78 1.543.885 2.029.194.432-.627.449-1.527.072-2.183-.267-.49-.886-.705-1.403-.529zm9.706-.684c.136-.391.493-.729.927-.705.433-.02.815.292.935.703.507 1.425 1.029 2.846 1.523 4.276.19.468-.271.967-.748.853-.553-.042-.606-.688-.759-1.1-.632.002-1.265.002-1.897 0-.095.275-.163.562-.294.824-.29.45-1.064.348-1.242-.154-.096-.297.043-.587.143-.86.476-1.277.935-2.56 1.412-3.837zm.919 1.114c-.194.517-.341 1.05-.517 1.573.348-.002.697-.002 1.046-.003-.182-.522-.307-1.064-.53-1.57zm18.292-1.453c.228-.378.846-.435 1.126-.088.338.405.606.864.921 1.285.301-.415.577-.85.889-1.258.253-.331.803-.344 1.079-.034.239.244.216.662.008.92-.377.527-.769 1.044-1.146 1.572.489.642.967 1.292 1.443 1.944.183.248.214.624.019.876-.267.336-.851.356-1.115.006-.412-.53-.78-1.09-1.178-1.63-.389.532-.757 1.08-1.154 1.606-.28.404-.984.362-1.204-.081-.122-.29-.048-.636.151-.873.456-.621.921-1.235 1.372-1.86-.387-.534-.785-1.06-1.166-1.596a.701.701 0 01-.045-.789zm4.932.305c.006-.512.629-.771 1.046-.545.249.112.349.399.357.657.018.491 0 .985.006 1.477h2.082c.02-.56-.039-1.126.032-1.682.082-.56.885-.706 1.224-.298.18.193.161.474.163.719-.008 1.4.005 2.801-.006 4.202.006.516-.621.79-1.041.569-.26-.115-.365-.41-.366-.676-.015-.505.001-1.01-.005-1.516-.694 0-1.389-.001-2.083.001-.018.572.04 1.149-.031 1.719-.062.591-.927.729-1.251.281-.157-.202-.134-.468-.135-.707.01-1.4-.009-2.8.008-4.201zm6.058-.524c.417-.26 1.09-.001 1.083.538.026.858.002 1.718.01 2.578.741-.972 1.476-1.951 2.223-2.92.25-.37.844-.396 1.13-.057.171.192.142.469.148.709-.009 1.402.004 2.806-.006 4.209.012.39-.377.687-.747.636-.338.002-.658-.289-.636-.64-.009-.852.001-1.705-.002-2.557-.765.977-1.504 1.974-2.278 2.943-.347.477-1.245.248-1.239-.374-.021-1.443-.001-2.887-.009-4.33-.012-.275.056-.6.323-.735zm5.423.63c-.021-.363.281-.728.654-.724.36-.051.748.233.752.612.02.456-.003.912.008 1.369.576-.591 1.117-1.216 1.698-1.803.339-.336.979-.184 1.126.275.128.326-.09.646-.307.87-.454.474-.926.929-1.401 1.38.583.64 1.204 1.245 1.78 1.89.234.25.33.68.081.953-.284.34-.836.302-1.118-.022a73.26 73.26 0 01-1.863-2.02c-.008.579.022 1.16-.012 1.739-.073.546-.83.719-1.196.359-.198-.167-.208-.446-.208-.683.007-1.398-.004-2.797.006-4.195zm6.627-.444c.291-.38.878-.43 1.266-.176.226.151.34.412.433.66.477 1.34.955 2.677 1.436 4.015.091.24.134.539-.045.75-.252.359-.868.346-1.115-.007-.137-.267-.208-.56-.306-.842-.633.002-1.265 0-1.896.001-.115.308-.162.654-.366.92-.334.334-1.013.214-1.164-.254-.092-.208-.017-.432.055-.633.445-1.2.884-2.401 1.324-3.604.107-.284.193-.585.378-.83zm.722 1.43c-.184.54-.346 1.086-.529 1.626.35 0 .698 0 1.048.002-.172-.543-.343-1.086-.519-1.627zm-69.81-1.512c.198-.185.487-.134.733-.144.747.019 1.497-.027 2.243.022.596.123.58 1.13-.007 1.262-.595.083-1.203.013-1.802.036l.001.806c.764.003 1.633-.062 2.257.468.604.53.66 1.5.334 2.198-.298.598-.987.912-1.633.886-.602-.012-1.207.016-1.81-.013-.383-.03-.591-.435-.564-.786v-4.104c-.007-.234.05-.488.248-.63zm1.167 3.274v.994c.338-.014.687.046 1.015-.052.342-.11.454-.661.12-.844-.355-.164-.758-.082-1.135-.098zm9.815-2.197c-.462-.283-.336-1.148.227-1.209.995-.021 1.994-.008 2.99-.008.575-.017.79.816.382 1.164-.323.249-.755.124-1.13.152-.005 1.26.014 2.523-.008 3.784.004.433-.461.717-.856.616-.353-.042-.577-.402-.548-.742-.006-1.22 0-2.44-.002-3.658-.35-.023-.732.073-1.055-.1zm10.075-1.065c.294-.245.701-.13 1.05-.155.627.038 1.34-.138 1.879.276.741.488.803 1.695.128 2.268.418.196.786.56.878 1.028.07.465.024.974-.245 1.372-.315.481-.9.73-1.46.73-.537.004-1.074-.003-1.612.003-.222.005-.469-.012-.634-.18-.202-.183-.216-.476-.22-.729.002-1.294.002-2.588 0-3.88.005-.258.011-.563.236-.733zm1.181 1.106v.867c.201-.003.403.006.605-.013.298-.045.45-.478.233-.693-.214-.23-.56-.136-.838-.161zm0 2.155v.994c.345-.016.71.055 1.043-.06.343-.132.41-.681.072-.86-.355-.13-.745-.058-1.115-.074zm8.682-2.683c.32-.526.971-.732 1.554-.733.566.006 1.133-.01 1.701.007.327.01.56.337.534.653-.004 1.508.016 3.02-.011 4.529-.071.673-1.162.737-1.345.105-.075-.524-.01-1.058-.035-1.585-.497.602-.982 1.215-1.489 1.809-.305.34-.935.27-1.133-.152-.133-.248-.11-.584.097-.784.362-.407.741-.796 1.108-1.198-.516-.154-1.019-.5-1.182-1.04a2.142 2.142 0 01.2-1.611zm1.481.629c-.403.158-.4.8-.008.971.297.104.619.05.928.061v-1.075c-.305.012-.623-.042-.92.043zm5.45-.112c-.515-.24-.421-1.173.167-1.239a91.116 91.116 0 013.115.001c.568.112.643 1.02.12 1.248-.317.107-.661.045-.988.059-.004 1.265.008 2.53-.006 3.794-.008.554-.735.8-1.139.487-.233-.16-.27-.472-.272-.733l.001-3.548c-.332-.017-.682.056-.998-.069zm4.149-.476c-.019-.33.154-.72.516-.762.603-.031 1.209.001 1.813-.013.249.012.544-.052.74.147.379.33.217 1.084-.305 1.154-.45.044-.9.006-1.35.022l.002.83c.472.025.96-.062 1.423.06.485.223.474.995-.014 1.21-.461.1-.941.025-1.409.048v.887c.495.017.996-.04 1.488.032.61.145.566 1.181-.051 1.275-.712.027-1.424.003-2.135.012-.383.037-.751-.3-.716-.69-.002-1.404 0-2.809-.002-4.212z" fill="#312D2D"/></g><defs><clipPath id="clip0_1098_6195"><path fill="#fff" transform="translate(68 8)" d="M0 0h73v38H0z"/></clipPath></defs></svg>