<svg width="209" height="54" fill="none" xmlns="http://www.w3.org/2000/svg"><path d="M78 26.373c3.442.67 4.75-3.202 5.544-5.785.998-3.246 1.592-10.88 5.128-12.29 5.45-2.176 6.106 8.261 2.73 9.305-2.184.675-2.898-1.506-3.758-2.915-.079-.13-.062-.655-.435-.298-.305.293-1.642 6.936-2.088 8.167a13.292 13.292 0 01-1.878 3.508c3.033 1.638 4.638 4.363 5.784 7.494.7 1.909 2.015 8.72 3.251 9.619.697.506 1.423.428 2.157.74l.09 2.08H85.74c-.62-2.87-1.103-5.791-1.816-8.64-.546-2.178-1.492-6.688-3.55-7.857-.503-.285-1.957-.8-2.375-.341v11.776c0 .066.31 1.134.372 1.285.553 1.296 1.764 1.27 2.946 1.74l.03 2.037H69.001l.027-2.04c2.626-.485 3.145-.76 3.329-3.427.6-8.638-.467-17.95-.013-26.657-.224-2.197-1.37-2.618-3.316-3.234L69 8.603h12.343l-.02 2.046c-.635.177-2.21.485-2.64.905-.18.175-.687 1.69-.687 1.904v12.913l.004.002zm60.042-17.768V19.35l-1.456-.01c-.148-1.309-.592-2.594-1.052-3.817-.46-1.223-1.674-4.438-3.247-4.438h-5.544v13.223c4.797-.688 9.843-.08 12.105 4.677 2.278 4.796 1.297 13.673-4.013 16.227-.295.142-2.157.789-2.339.789h-14.958l.027-2.04c1.232-.383 2.68-.28 3.159-1.737l.142-28.953c-.242-1.686-1.843-2.231-3.299-2.63l-.029-2.037h20.502l.002.002zm-11.297 18.388v14.772c0 .068.513.89.642 1.018 1.097 1.075 2.986.916 4.063-.09 2.628-2.455 2.638-10.23 1.059-13.233-1.099-2.091-3.458-3.12-5.766-2.467h.002zm-18.096 13.842c-.632-.73-1.021-1.611-1.525-2.42-.099-.158.069-.35-.354-.264-3.263 4.781-10.224 4.564-11.52-1.642-.894-4.281.836-8.111 4.49-10.477-1.602-3.578-3.313-7.597-.658-11.17 2.692-3.625 8.525-2.532 9.044 2.11.358 3.2-.992 5.73-3.291 7.85l4.13 7.336c.403.303 2.623-5.316 1.617-6.353-.766-.79-2.588-.192-2.038-2.325h7.741l-.027 1.42c-4.316.308-4.251 5.849-6.201 8.774 1.487 2.667 3.123 5.56 6.636 5.519l.01 1.642h-8.054zm-4.971-26.207c-3.199.58-.908 6.989.368 8.642 2.371-1.151 2.879-9.231-.368-8.642zm-2.877 12.778c-1.69 1.597-1.794 5.34-1.138 7.427.915 2.907 4.061 4.444 6.337 1.942l-5.199-9.37z" fill="#312D2D"/></svg>