<svg width="209" height="54" fill="none" xmlns="http://www.w3.org/2000/svg"><g clip-path="url(#clip0_1074_6109)" fill="#312D2D"><path d="M66.863 12.285v5.1h-24.08c-1.342 0-3.292 2.155-3.65 3.423-1.356 4.85 2.639 13.687-5.099 14.825-.047-1.209.055-2.43.008-3.638-.236-5.913-1.565-13.346 3.633-17.548 1.077-.871 3.747-2.162 5.107-2.162h24.081zM33.837 45.64v-5.102h24.278c.41 0 2.123-1.11 2.457-1.472 4.019-4.332-2.594-15.676 6.291-16.775v14.617c0 3.72-5.02 8.731-8.748 8.731H33.837z"/><path d="M43.077 22.487c3.02.306 6.526.38 7.372 3.928.318-3.586 4.454-3.567 7.175-3.928v4.611c0 .15-.425 1.2-.547 1.417-.68 1.185-2.076 1.632-3.385 1.628.283.498.873.538 1.286.97.83.867 1.132 3.111.684 4.241-2.375-.16-4.702-.255-5.213-3.053-.92 2.841-2.823 2.79-5.407 3.14-.338-1.645-.165-3.454 1.172-4.615.354-.306.822-.35.987-.679-1.262.035-2.957-.432-3.578-1.628-.09-.177-.55-1.519-.55-1.61v-4.414l.004-.008zm45.41-10.202h3.342v12.557h-3.145v-7.456l-3.44 3.92-3.44-3.92v7.456h-3.146V12.285h3.244l3.342 4.312 3.243-4.312zm33.223 20.798l3.338 4.316c.271-.565 2.976-4.316 3.247-4.316h3.047v12.556h-3.145v-7.455l-3.421 3.72-3.263-3.72v7.456h-3.145V33.082h3.342zm39.315 0v6.867l4.915-6.867h2.949v12.556h-3.146v-7.063l-5.193 6.883-2.866.18V33.084h3.341zm-26.538-20.798v7.063l5.198-6.879 2.862-.184v12.557h-3.145v-7.064l-5.194 6.883-2.866.18V12.286h3.145zm-13.957 0v4.709h5.111v-4.71h3.145v12.558h-3.145v-4.905h-5.111v4.905h-3.145V12.285h3.145zM95.91 32.74c8.712-1.137 9.853 12.358 1.321 12.895-8.532.538-9.196-11.866-1.321-12.894zm-.204 2.94c-3.386.695-2.95 7.216 1.085 6.97 4.387-.272 4.065-8.03-1.085-6.97zm78.884-2.597v4.316c.275-.004.578.047.841-.043.72-.24 2.638-3.583 3.385-4.273h3.637l-4.12 5.788 4.906 6.768h-3.636l-3.936-5.097-1.077-.2v5.297h-3.342V33.084h3.342z"/><path d="M82 33.083v4.316c.39.012.747.067 1.097-.184.873-.628 2.115-3.336 3.13-4.133h3.44L85.6 38.87l5.049 6.77h-3.637l-4.07-5.255-.943-.043v5.297h-3.342V33.084H82zm60.94 0c-.13.93.319 2.205-.295 2.943h-5.602v1.765h5.111v2.747h-5.111v2.158h5.897v2.944h-9.043V33.082h9.043zm-49.735-8.241l4.938-12.534 2.835-.039 5.201 12.573h-3.341c-.028-.46-.276-1.586-.72-1.735-.373-.125-3.92-.11-4.502-.043-.908.106-.943 1.028-1.069 1.778h-3.342zm4.915-4.317h3.145c-.46-1.15-.782-2.401-1.286-3.531-.106-.24.016-.475-.385-.393l-1.478 3.924h.004zm12.538 12.024c2.139-.244 4.737.525 5.948 2.397l-1.903 2.049c-.68-.318-1.097-1.005-1.875-1.229-2.151-.62-4.443.35-4.683 2.712-.428 4.195 4.058 5.227 6.755 2.664l1.816 1.939c-2.614 3.814-8.806 3.213-11.087-.714-2.43-4.187.311-9.273 5.029-9.814v-.004zm44.863.534v2.943h-3.538v9.613h-3.342v-9.613h-3.735v-2.944h10.615zm-.393-20.798v2.746h-3.735v9.81h-3.342v-9.81h-3.735v-2.746h10.812zm-39.709 0v2.746h-4.521v9.81h-3.342V12.286h7.863z"/></g><defs><clipPath id="clip0_1074_6109"><path fill="#fff" d="M0 0h209v54H0z"/></clipPath></defs></svg>