<svg width="209" height="54" fill="none" xmlns="http://www.w3.org/2000/svg"><mask id="a" style="mask-type:luminance" maskUnits="userSpaceOnUse" x="38" y="13" width="134" height="27"><path d="M172 13.708H38v25.596h134V13.707z" fill="#fff"/></mask><g mask="url(#a)" fill="#312D2D"><path d="M109.54 35.011v-17.01h10.407v3.951h-6.067v13.06h-4.34zm23.501 0V28.35h-6.447v6.662h-4.339v-17.01h4.339v6.348h6.447v-6.348h4.34v17.01h-4.34zm29.524 0V21.952h-5.068v-3.95H172v3.95h-5.093v13.06h-4.342zm-11.454-.003v-9.692l-6.908 9.692h-3.629V18.003h4.34v9.59l6.792-9.59h3.747v17.005h-4.342zm-66.509.003V24.902l-4.333 5.34-4.332-5.34v10.11h-4.34v-17.01h4.283l4.39 5.848 4.39-5.849h4.282v17.01h-4.34zm12.578-5.982h4.034l-2.017-5.333-2.017 5.333zm6.295 5.98l-.908-2.383H95.82l-.908 2.383H90.55L97.224 18h4.012l6.677 17.008h-4.438zM37.996 21.457a7.892 7.892 0 012.205-5.475 7.41 7.41 0 015.307-2.274H62.85v3.939H45.513a3.654 3.654 0 00-2.607 1.12 3.892 3.892 0 00-1.088 2.69l-.023 6.613a3.91 3.91 0 01-.992 2.265 3.7 3.7 0 01-2.126 1.168l-.68.108V21.457zm.001 17.847v-3.94h17.342a3.656 3.656 0 002.607-1.121 3.894 3.894 0 001.088-2.69v-6.276c.004-.91.323-1.79.898-2.48a3.692 3.692 0 012.24-1.29l.681-.106v10.151a7.895 7.895 0 01-2.205 5.477 7.413 7.413 0 01-5.307 2.275H37.997z"/><path d="M52.688 31.625v-5.092l-2.261 2.787-2.26-2.787v5.092h-2.995v-10.02h2.836l2.419 3.223 2.418-3.223h2.836v10.02h-2.993z"/></g></svg>