<svg width="209" height="54" fill="none" xmlns="http://www.w3.org/2000/svg"><path d="M71.838 14.184v4.443h-20.94c-1.166 0-2.862 1.876-3.173 2.98-1.18 4.224 2.294 11.92-4.434 12.912-.041-1.053.048-2.115.007-3.168-.206-5.15-1.361-11.624 3.158-15.284.937-.759 3.259-1.883 4.442-1.883h20.94zM43.12 43.234v-4.443h21.11c.356 0 1.847-.967 2.138-1.281 3.494-3.773-2.257-13.654 5.47-14.611v12.73c0 3.24-4.366 7.605-7.607 7.605H43.12z" fill="#312D2D"/><path d="M51.154 23.07c2.625.266 5.675.331 6.41 3.421.277-3.124 3.874-3.107 6.24-3.421v4.016c0 .13-.37 1.046-.476 1.233-.591 1.033-1.805 1.422-2.943 1.419.246.434.759.468 1.117.844.722.755.985 2.71.595 3.694-2.065-.14-4.089-.222-4.533-2.659-.8 2.475-2.455 2.43-4.7 2.735-.295-1.432-.144-3.008 1.018-4.02.308-.266.715-.304.858-.59-1.097.03-2.57-.377-3.111-1.42-.079-.153-.479-1.322-.479-1.4v-3.845l.004-.007zm39.487-8.886h2.906V25.12h-2.735v-6.493l-2.991 3.414-2.992-3.414v6.493h-2.735V14.184h2.82l2.907 3.756 2.82-3.756zm28.889 18.113l2.903 3.76c.235-.492 2.588-3.76 2.824-3.76h2.649v10.937h-2.735V36.74l-2.974 3.24-2.838-3.24v6.494h-2.735V32.297h2.906zm34.188 0v5.981l4.273-5.98h2.565v10.936h-2.735v-6.152l-4.517 5.995-2.492.157V32.297h2.906zm-23.077-18.113v6.152l4.519-5.992 2.489-.16V25.12h-2.735v-6.152l-4.516 5.995-2.492.157V14.184h2.735zm-12.137 0v4.1h4.445v-4.1h2.735V25.12h-2.735v-4.272h-4.445v4.272h-2.735V14.184h2.735zM97.096 32c7.576-.99 8.567 10.763 1.148 11.23-7.419.47-7.996-10.334-1.148-11.23zm-.178 2.56c-2.944.605-2.564 6.285.943 6.07 3.816-.236 3.535-6.993-.943-6.07zm68.595-2.263v3.76c.239-.004.502.04.732-.038.625-.208 2.294-3.12 2.943-3.722h3.163l-3.583 5.042 4.266 5.895h-3.162l-3.422-4.44-.937-.174v4.614h-2.906V32.297h2.906z" fill="#312D2D"/><path d="M85 32.297v3.76c.339.01.65.058.954-.16.759-.548 1.84-2.906 2.721-3.6h2.992l-3.535 5.042 4.39 5.895h-3.163l-3.538-4.576-.82-.038v4.614h-2.907V32.297H85zm52.992 0c-.113.81.277 1.921-.257 2.564h-4.872v1.538h4.445v2.392h-4.445v1.88h5.129v2.563h-7.864V32.297h7.864zM94.744 25.12l4.294-10.916 2.465-.034 4.523 10.95h-2.906c-.024-.4-.24-1.38-.626-1.51-.325-.11-3.409-.096-3.914-.038-.79.092-.821.896-.93 1.548h-2.906zm4.273-3.76h2.735c-.4-1-.68-2.09-1.118-3.075-.092-.209.014-.414-.335-.342l-1.285 3.418h.003zm10.903 10.472c1.86-.211 4.119.459 5.172 2.089l-1.654 1.784c-.592-.277-.954-.875-1.631-1.07-1.87-.54-3.863.304-4.072 2.362-.373 3.653 3.528 4.552 5.874 2.32l1.579 1.689c-2.273 3.322-7.658 2.799-9.641-.622-2.113-3.647.27-8.076 4.373-8.548v-.003zm39.011.465v2.564h-3.076v8.373h-2.906v-8.373h-3.248v-2.564h9.23zm-.341-18.113v2.392h-3.248v8.544h-2.906v-8.544h-3.248v-2.392h9.402zm-34.53 0v2.392h-3.932v8.544h-2.906V14.184h6.838z" fill="#312D2D"/></svg>