<svg width="209" height="54" fill="none" xmlns="http://www.w3.org/2000/svg"><g clip-path="url(#clip0_1074_5959)"><path d="M52.24 13.186c.163-.392.163-.392 1.067-2.702-2.177-.261-3.369-.48-5.259-.436C45.583 8.741 42.83 8 39.913 8 30.012 8 22 16.498 22 27s8.012 19 17.913 19c9.902 0 17.914-8.498 17.914-19 0-5.447-2.178-10.328-5.588-13.814z" fill="#E1E1E1"/><path d="M50.923 15.843c-.04-.043-.082-.043-.123-.043-.041 0-.082.043-.123.043a12.371 12.371 0 01-2.548 2.397c-1.89 1.264-4.026 1.96-6.286 1.96-4.19 0-6.574-2.178-8.505-3.747-.04-.043-.082-.087-.082-.13 0-.044.041-.088.083-.131 2.999-2.44 5.464-4.01 7.97-4.925.082-.043.123-.087.123-.174s-.082-.13-.164-.174c-.452-.044-.904-.044-1.356-.044C31.49 10.832 24.67 18.065 24.67 27c0 4.924 2.055 9.326 5.342 12.29.04.043.082.043.164.043.041 0 .082-.044.123-.131l.617-2.092a.224.224 0 01.205-.13c8.135 1.873 11.627-2.79 11.052-5.71-.493-2.483-4.314-4.662-9.902-1.307-.04.044-.082.044-.123 0 0 0-.041 0-.041-.043-.041-.044-.082-.087-.082-.175l1.89-10.24c0-.044.04-.088.082-.131.04-.044.123 0 .164 0 .534.348 2.137 1.438 3.862 2.527.041.044.082.088.082.175-.04.436-.287 2.048-.37 2.745 0 .044 0 .13.042.174.04.044.082.044.164.044 9.368-2.658 11.34 3.573 11.093 6.537-.575 6.754-7.6 10.328-13.846 10.415-.082 0-.164.043-.164.13 0 .088.041.175.123.175 1.52.523 3.123.828 4.766.828 8.423 0 15.243-7.234 15.243-16.167 0-4.271-1.643-8.237-4.232-11.113z" fill="#312D2D"/><path d="M35.97 16.28c5.054 4.052 12.45 2.004 14.915-4.315-4.56 2.31-9.614 3.792-14.914 4.315z" fill="#312D2D"/><path d="M35.97 16.28a40.663 40.663 0 0014.915-4.314c-5.136-.61-10.477.74-14.914 4.314zm77.281 6.537c-1.931 0-3.081 1.307-4.026 2.92h-.042c0-1.656-.616-2.92-2.382-2.92-2.096 0-3.205 1.656-3.945 3.05h-.041c.123-.523.247-1.263.37-1.873a.67.67 0 00-.164-.567.65.65 0 00-.534-.261h-2.096l-1.89 11.2a.726.726 0 00.123.566c.124.13.288.218.494.218h2.218l.164-1.003c1.11-6.667 2.63-8.497 3.863-8.497.862 0 .986.871.78 2.048l-1.15 6.536a.675.675 0 00.164.61.648.648 0 00.534.262h2.178l.164-1.002c1.109-6.624 2.63-8.498 3.862-8.498.822 0 .945.828.74 2.048l-1.151 6.711c-.041.174 0 .349.124.523.123.13.287.218.451.218h2.26l1.274-7.583a8.41 8.41 0 00.164-1.656c-.041-2.004-.945-3.05-2.506-3.05zm12.572-2.528l.986.175c.288.043.534.087.617-.392l.328-1.308c.082-.392-.041-.48-.411-.566l-.904-.175c-.205 0-.534-.087-.616.393l-.37 1.35c-.041.306.042.48.37.523zm-28.76 2.877H92.75c-3.204 0-5.34 1.438-5.34 4.14 0 1.438.944 2.353 1.889 2.44v.043c-.37.131-.78.654-1.233 1.22-.78 1.047-1.355 1.744-1.848 1.744-.083 0-.165.087-.206.174l-.246 1.874c0 .087 0 .174.082.218a.305.305 0 00.205.087h.904c1.48 0 1.972-.61 3.41-2.528 1.11-1.568 1.52-2.048 2.219-2.048h.493l-.699 4.227c0 .087 0 .175.042.218.04.087.123.087.205.087h2.506c.123 0 .247-.087.247-.218l1.93-11.417c0-.087 0-.174-.04-.218-.041 0-.124-.043-.206-.043zm-3.574 5.229h-1.562c-.986 0-1.438-.349-1.438-1.046 0-1.177.699-1.787 2.055-1.787h1.479l-.534 2.833zM89.545 17.63c11.997-.523 30.937 1.83 30.937 1.83a.466.466 0 00.534-.305l.206-.653.328-1.09c.041-.087 0-.13-.041-.218-.041-.043-.082-.087-.164-.13-2.342-.349-19.639-2.702-32.211-2.397-11.833.305-21.776 2.789-24.446 3.53-.206.043-.37.218-.411.479l-.288 1.612c0 .088 0 .175.082.218.041.044.124.087.206.044 2.136-.523 5.136-1.046 9.08-1.569l-2.63 15.6c-.082.262-.082.568.411.568h2.547c.165 0 .37-.044.453-.48l2.465-15.078c0-.043.164-.828.986-1.046 1.068-.13 2.917-.218 4.026-.348l-2.753 16.385c-.082.567.165.523.37.523h2.67c.206 0 .535-.044.617-.567l2.588-15.731s.165-.828.986-1.003c1.315-.043 2.137-.13 3.452-.174zm33.156 2.223l1.109.174c.288.044.534.087.657-.392l.37-1.351c.082-.436-.041-.523-.411-.61l-1.027-.131c-.205-.044-.534-.087-.657.392l-.37 1.395c-.123.261-.041.436.329.523zm4.314 6.1c0-1.96-1.274-3.094-3.452-3.094-3.615 0-6.491 3.312-6.491 7.801 0 2.832 1.479 4.794 4.314 4.794 2.219 0 3.657-.916 4.519-1.744l-1.191-2.135c-.699.654-1.685 1.264-2.876 1.264-1.233 0-1.726-.828-1.767-2.179 3.78-.436 6.944-1.787 6.944-4.707zm-6.738 2.659c.41-1.743 1.355-3.312 2.793-3.312.699 0 1.069.305 1.069 1.002-.041 1.264-1.603 2.092-3.862 2.31zm15.653-5.796c-1.972 0-2.999 1.438-3.944 3.137h-.041c.123-.435.205-.828.288-1.263.082-.392 0-.785-.247-1.09-.246-.305-.575-.479-.945-.479h-1.438l-2.999 17.344h1.684c.74 0 1.397-.566 1.52-1.35l.658-3.88c.246.088.739.175 1.561.175 3.903 0 6.738-3.355 6.738-8.541.082-2.44-1.068-4.053-2.835-4.053zm-3.821 10.24c-.657 0-.986-.086-1.15-.13l.123-.654c.863-4.401 2.301-6.624 3.657-6.624.698 0 1.027.698 1.027 1.787-.082 3.486-1.685 5.622-3.657 5.622zm50.988-10.24c-4.191 0-7.108 3.53-7.108 8.672 0 2.44 1.191 3.922 2.917 3.922 1.849 0 2.958-1.438 3.821-3.181h.041c-.123.523-.206 1.176-.288 1.787a.953.953 0 00.247.784c.164.218.41.349.698.349h1.932c.04-.872.164-2.833.698-6.145l.945-5.447c-.493-.262-1.849-.741-3.903-.741zm.534 3.225c-.781 4.488-2.26 6.624-3.493 6.624-.698 0-1.027-.567-1.027-1.744 0-3.355 1.684-5.708 3.534-5.708.452 0 .862.087 1.068.13l-.082.698zm-11.587 4.357c-.328-.697-.657-1.176-.985-1.481l4.97-5.752h-2.71c-.453 0-.905.217-1.233.61l-3.493 4.27h-.616l.658-3.922c.04-.218 0-.48-.165-.653a.77.77 0 00-.575-.305h-2.178l-1.972 11.984h2.178c.492 0 .904-.393.986-.872l.699-4.053h.328c.657 0 1.068.741 1.766 2.353.822 1.874 1.233 2.572 2.672 2.572h1.191l.41-2.397h-.246c-.534 0-.986-.741-1.685-2.354zm-12.243-6.493c-.452 3.05-1.931 5.055-3.369 5.055-.74 0-.986-.566-.78-1.873l.369-2.354c.041-.392-.041-.784-.287-1.09-.247-.304-.576-.478-.946-.478h-1.52l-.698 4.052a9.88 9.88 0 00-.123 1.482c0 2.005.903 3.094 2.506 3.094 2.013 0 3.328-1.395 4.15-2.92h.04c-.328 1.83-.78 4.532-.944 6.232h2.917c.041-.872.247-2.833.78-6.145l.986-5.839h-2.998l-.083.784zm-13.476-1.09c-3.657 0-6.409 3.444-6.409 7.584 0 2.745 1.602 5.011 4.519 5.011 3.739 0 6.327-3.268 6.327-7.583.041-2.832-1.602-5.011-4.437-5.011zm-1.602 10.155c-1.151 0-1.726-1.046-1.726-2.615 0-2.223 1.191-5.055 3.081-5.055 1.151 0 1.726.915 1.726 2.571 0 2.179-1.068 5.099-3.081 5.099z" fill="#312D2D"/></g><defs><clipPath id="clip0_1074_5959"><path fill="#fff" transform="translate(22 8)" d="M0 0h165v38H0z"/></clipPath></defs></svg>