<svg width="209" height="54" fill="none" xmlns="http://www.w3.org/2000/svg"><path d="M66.552 35.343a1.172 1.172 0 01-.255-.254c.628-3.62 1.115-7.357 1.858-10.973.18-.881.02-1.516 1.017-1.6.856-.073 2.816-.105 3.638 0 .138.017.28-.01.375.124l1.245 7.352 4.375-7.47h4.375c.052 0 .225.262.245.357l-2.215 12.31a1.283 1.283 0 01-.28.156h-3.688l.873-5.975-3.057 5.48c-.333.68-2.566.64-2.953.319-.165-.137-.248-.364-.308-.566-.484-1.638-.52-3.891-.807-5.61-.25.048-.205.265-.25.437-.42 1.643-.432 3.76-.905 5.323-.045.152-.292.59-.407.59-.62 0-2.438.124-2.876 0zm-15.124 3.983c-.075-.022-.223-.258-.245-.356l2.877-16.193c.152-.202.387-.232.617-.257.545-.062 2.508-.087 2.998.005.155.03.313.102.385.25.115.226-.258.886.115.744.172-.065.535-.436.81-.563 2.043-.951 4.693-.767 6.13 1.125 1.758 2.313.575 7.286-1.247 9.34-1.783 2.011-5.736 3.264-7.69.93-.143.088-.14.188-.175.325-.33 1.205-.3 3.04-.693 4.165-.06.17-.363.49-.508.49-.664 0-2.944.132-3.374 0v-.005zm9.77-13.651c-.788-.762-2.4-.311-3.083.393-1.42 1.472-2.455 6.745.8 6.648 2.465-.075 3.858-5.517 2.282-7.041zM26.457 17.57c.638-.126 3.668-.124 4.338-.022.457.07.717.369.777.817-1.092 5.946-2.017 11.929-3.122 17.872-.152.814-.407 3.02-.777 3.582-.203.31-.505.463-.868.506-.74.087-3.705.12-4.375-.005-.492-.092-.652-.61-.565-1.05 1.148-5.989 2.035-12.027 3.165-18.017.197-1.048.258-3.448 1.427-3.682zm130.72 4.95c.06.02.148.137.17.207l-1.107 6.89 5.06-7.097h4c.017 0 .23.2.255.254L163.48 34.9c.005.132-.228.443-.305.443h-3.625c-.075 0-.305-.364-.248-.51l.998-6.34-4.875 6.85H151.3c-.238-.16-.203-.426-.19-.68.177-3.588 1.742-7.88 2.035-11.55.002-.152.32-.593.405-.593h3.627zm34.751 0c.035.01.232.204.255.254-.628 3.62-1.113 7.358-1.858 10.973-.06.294-.212 1.287-.365 1.441-.345.354-3.11.048-3.762.157l-.27-.876c-2.74 2.154-7.463 1.16-7.81-2.68-.265-2.915.765-6.607 3.282-8.305 1.453-.981 3.785-1.514 5.425-.74.223.105 1.068.86 1.165.77-.035-.304.227-.996.563-.996.712 0 2.875-.142 3.375 0v.002zm-6.965 2.762c-2.993.403-4.33 8.714-.005 7.225 1.845-.635 2.507-3.85 2.274-5.557-.152-1.12-1.147-1.82-2.267-1.668h-.002zM52.053 22.52c.11.035.3.379.275.533-.848 3.68-1.12 7.669-1.998 11.319-.047.199-.127.702-.242.819-.346.353-3.11.047-3.763.157l-.27-.877c-2.74 2.154-7.462 1.16-7.81-2.679-.26-2.87.745-6.558 3.208-8.256 1.47-1.013 3.822-1.583 5.5-.79.222.106 1.067.86 1.164.77-.034-.303.228-.996.563-.996h3.375-.002zm-6.965 2.762c-2.993.403-4.33 8.714-.005 7.225 1.845-.635 2.507-3.85 2.275-5.557-.153-1.12-1.148-1.82-2.268-1.668h-.003zm52.464-2.762c.135.038.363.369.308.54-.912 3.705-1.082 7.908-2.028 11.563-.112.438-.147.658-.647.725-.5.067-2.668.077-3.127-.01-.206-.04-.348-.135-.423-.331l.045-.66c-2.92 2.39-7.603 1.297-7.935-2.804-.135-1.66.317-3.819 1.015-5.333 1.485-3.217 5.87-5.216 8.855-2.694.06-.284.215-.996.565-.996.71 0 2.875-.142 3.375 0h-.003zm-6.967 2.767c-3 .433-4.31 8.81.1 7.2 1.85-.675 2.4-3.976 2.17-5.66-.148-1.082-1.223-1.69-2.27-1.54zm51.03 4.578c-.43 2.804 1.892 4.11 3.875 1.93.44-.483.11-.675 1.077-.794.403-.05 3.02-.043 3.17.114-.187 1.897-2.185 3.55-3.93 4.108-1.902.61-5.197.64-6.82-.687-2.632-2.149-1.2-8.229 1-10.338 2.705-2.594 10.068-2.913 10.615 1.76.063.534.108 3.91-.55 3.91h-8.437v-.003zm5-2.739c-.138-3.005-3.618-2.323-4.375 0h4.375zm-14.125-1.369h-3.188c-.214.18-.22.47-.275.722-.602 2.766-.892 5.62-1.442 8.398-.025.115-.372.466-.408.466h-3.625l-.172-.207 2.182-12.357c.048-.07.2-.259.24-.259h11.25c.168 0 .248.498.176.668-.968 3.6-1.031 7.907-2.023 11.435-.048.17-.225.72-.403.72h-3.625l-.167-.207 1.48-9.379zm-14.792-3.438c4.735 0 6.012 2.92 5.105 7.175-.715 3.359-2.765 5.821-6.373 6.103-5.492.428-7.395-2.366-6.082-7.552.94-3.715 3.455-5.724 7.35-5.726zm-.863 2.968c-2.357.34-3.797 5.828-1.837 7.125 1.63 1.078 3.162-.993 3.622-2.355.525-1.546.715-5.131-1.785-4.77z" fill="#312D2D"/><path d="M103.427 22.52l.168.207-.535 4.402 1.028-.03 3.309-4.357c.265-.167.468-.2.773-.227.545-.052 2.272-.082 2.755.008.732.137.01.946-.21 1.285-.458.702-3.587 4.54-3.597 4.877l2.307 5.789c.202.65.037.924-.625 1-.628.073-2.663.088-3.13-.248-.69-.493-1.57-4.071-2.122-4.982l-1.07-.07-.898 4.708c-.025.115-.372.466-.407.466h-3.688l-.115-.543c.767-3.573 1.155-7.235 1.902-10.808.105-.5.115-1.138.523-1.472h3.625l.007-.005zm67.876 0c.105.03.277.257.28.406.015.588-.87 4.049-.718 4.2L172.05 27c.512-.605 3.1-4.479 3.628-4.479h3.437l-.142.792-3.955 5.264 2.387 6.174c.107.578-.392.68-.847.722-.625.057-2.555.087-3.01-.251-.76-.568-1.461-4.245-2.268-5.087-.31-.02-.89-.152-1.02.19-.305 1.336-.385 2.833-.707 4.15-.065.264-.151.866-.505.866h-3.5c-.083 0-.383-.368-.288-.523.9-3.7 1.125-7.763 2.035-11.433.065-.264.15-.866.505-.866.748 0 2.965-.147 3.5 0l.003.002zM22.74 22.271l-2.25 13.32c-1.8-.086-4.327.63-4.49-1.909l1.735-9.61c.433-.87 1.42-1.8 2.442-1.8h2.563zm7.875 13.321l2.393-13.303c1.627.017 4.192-.478 4.367 1.787l-1.667 9.678c-.248.722-1.378 1.838-2.155 1.838h-2.938zm132.71-18.634c.337.291 1.275 1.656 1.142 2.112-.31 1.06-3.585 1.78-4.562 1.785-1.03.007-4.305-.68-4.643-1.785-.185-.603 1.055-2.271 1.595-2.353.368-.055 1.243.602 1.76.754.843.247 1.54.291 2.398.032.78-.234 1.56-1.195 2.307-.547l.003.002zm-5.835 22.244l.983.017.892 2.473c.44-.182.998-2.38 1.14-2.473l.983-.017v3.361h-.75v-2.24l-.888 2.041a.413.413 0 01-.727 0l-.888-2.042v2.241h-.75v-3.361h.005zm31.813 0c.892.157 1.245 1.35.187 1.556.128.274.802.192.837.891.021.404-.387.914-.774.914h-2.188v-3.361c.59.072 1.38-.1 1.938 0zm-1.188 1.37c1.733.256 1.73-1.007 0-.75v.75zm0 1.493c2.013.28 2.008-1.29 0-.996v.996zm-11.5-2.863v2.24c.508-.323 1.12-2.158 1.563-2.24.212-.04.467.02.687 0v3.361h-.75v-2.24c-.485.218-1.16 2.076-1.4 2.213-.182.104-.615-.013-.85.027v-3.361h.75zM138.99 41.07h-2.5c.007.704.58 1.192 1.287.97.173-.054.91-.779 1.085-.164-.86 1.427-3.072.852-3.127-.874-.082-2.462 3.427-2.47 3.255.067zm-.75-.499c-.128-1.165-1.555-1.152-1.75 0h1.75zm-24.875.499c.032.731.405 1.14 1.185.995.282-.052.332-.316.748-.38.875-.135.25.567-.113.759-1.21.64-2.545-.038-2.578-1.437-.059-2.505 3.513-2.435 3.136.062h-2.378zm1.75-.499c-.203-1.19-1.533-1.137-1.75 0h1.75zm69.34-1.339c2.977-.61 2.798 3.797.253 3.428-1.778-.256-1.763-3.12-.253-3.428zm.378.488c-1.023.194-.988 2.57.337 2.348 1.045-.177.952-2.592-.337-2.348zm-5.093-.518h.75l.072 1.372 1.303-.003v-1.369h.75v3.361h-.75l-.072-1.372-1.303.003v1.37h-.75v-3.362zm-14.625 3.361l-.617-.012c.032-.755-.34-.117-.686.022-.945.381-1.949-.41-1.507-1.377.39-.854 2.503-.256 2-1.247-.387-.767-1.372.366-1.94.124.117-1.205 2.75-1.098 2.75-.186v2.676zm-.75-1.618c-.44.164-1.235.06-1.38.563-.19 1.095 1.87.736 1.38-.563zm7.25 1.618l-.617-.012c.032-.755-.34-.117-.686.022-.945.381-1.949-.41-1.507-1.377.39-.854 2.503-.256 2-1.247-.387-.767-1.372.366-1.94.124.117-1.205 2.75-1.098 2.75-.186v2.676zm-.75-1.618c-.44.164-1.235.06-1.38.563-.19 1.095 1.87.736 1.38-.563zm-42.875 1.618l-.618-.012c.03-.805-.41-.028-.75.082-.937.301-1.91-.528-1.367-1.486.4-.708 1.835-.359 1.977-.775l-.052-.423c-.687-.75-1.155.349-1.94.124.117-1.205 2.75-1.098 2.75-.186v2.676zm-.908-1.596c-.615.19-1.494.075-1.159.979.72.547 1.695-.142 1.32-.944l-.161-.035zm16.408-1.765h.625v1.37l1.428.002.072-1.372h.75v3.361h-.75v-1.37l-1.383.056-.117 1.314h-.625v-3.361zm-11.625 0v3.361h-.75v-2.739h-1.5v2.74h-.625v-3.362h2.875zm15.375 0h.75v1.12c1.165-.124 2.503.16 2.053 1.614-.07.224-.555.627-.74.627h-2.063v-3.361zm2.095 1.897l-1.345-.157v.996c.75.005 1.733.212 1.345-.841v.002zm-29.345-1.897h.75v1.12c1.117-.214 2.677.341 2.032 1.713-.074.162-.62.528-.72.528h-2.062v-3.361zm2.095 1.897c-.258-.249-.993-.13-1.345-.154v.996c.555.216 2.04-.175 1.345-.842zm-10.095-.777c-.85.214-.69-.259-1.052-.508-1.265-.858-1.888 2.592-.163 2.229.5-.105.505-.822 1.215-.6-.105 1.19-1.428 1.546-2.368.926-.839-.553-.862-2.014-.257-2.734.69-.819 2.622-.592 2.625.685v.002zm40.975-1.092c.118.067.608 1.329.773 1.217.345-.658.44-1.467 1.375-1.245l-.96 1.68.96 1.679c-1.038.291-.875-.777-1.56-1.12-.373.627-.4 1.346-1.313 1.12-.157-.135.867-1.362.867-1.68 0-.32-1.022-1.547-.867-1.681.208.03.558-.07.725.024v.005zm21.525 1.712c.443-.04.623.297.633.69.04 1.335-2.6 1.422-2.758.057.845-.211.863.66 1.795.354.633-.69-.13-.999-.797-1.04v-.437c1.414.262 1.187-1.274.027-.786-.19.08-.275.502-.9.286.018-.891 1.12-.979 1.805-.864.867.147 1.118 1.25.195 1.489v.251zm-32 1.621h-.625v-.996c-1.918.217-2.323-.587-2.128-2.365h.628c-.09 1.11-.008 2.064 1.382 1.688l.118-1.688h.625v3.361zm-7.125-3.361v.622h-1.125v2.74h-.75v-2.74h-1.125v-.622h3zm-16.125 0v.622h-1.125v2.74h-.75v-2.74h-1.125v-.622h3zm49 0v.622h-1.5v2.74h-.625v-3.362h2.125zm-16.875 0h-.75v3.361h.75v-3.361z" fill="#312D2D"/></svg>