<svg width="209" height="54" fill="none" xmlns="http://www.w3.org/2000/svg"><g clip-path="url(#clip0_1097_6134)"><path d="M93.055 29.273v6.909c0 .182 0 .273-.093.364-.093.09-.185.181-.37.181h-4.453c-.185 0-.278-.09-.371-.181-.093-.091-.186-.273-.186-.364V17.818c0-.181.093-.272.186-.363.093-.091.186-.182.371-.182h5.565c.186 0 .279.09.371.182.093.09.186.273.186.363v3.546c0 .182-.093.273-.186.363-.093.091-.185.182-.37.182h-.65v2.819h.65c.37 0 .556.181.556.545v3.545c0 .364-.186.546-.557.546l-.649-.091zm2.412 0c-.186 0-.279-.091-.371-.182-.093-.091-.186-.182-.186-.364v-3.545c0-.182.093-.273.186-.364.092-.09.185-.182.37-.182h5.659c.371 0 .556.182.556.546v3.545c0 .364-.185.546-.556.546h-5.658zM104.371 22c-.093 0-.278-.09-.278-.182-.093-.09-.093-.181-.093-.363v-3.637c0-.363.185-.545.464-.545h3.895c.093 0 .279.09.371.182.093.09.186.273.186.363v3.637c0 .182-.093.273-.093.363-.093.091-.185.182-.371.182h-4.081zm0 14.727c-.093 0-.278-.09-.371-.181-.093-.091-.093-.182-.093-.364v-13c0-.182 0-.273.093-.364.093-.09.185-.181.278-.181h3.896c.093 0 .278.09.371.181.093.091.185.182.185.364v13c0 .182-.092.273-.092.364-.093.09-.186.181-.371.181h-3.896zm20.684 0c-.092 0-.185 0-.278-.09-.093-.092-.185-.092-.185-.183-.557-.909-1.206-1.818-1.948-2.909a238.48 238.48 0 01-2.319-3.454l-4.267 6.363s-.093.091-.185.091c-.093.091-.186.091-.279.091h-5.101a.512.512 0 01-.464-.273c-.093-.181-.093-.363.093-.545l6.678-9.454c0-.091.093-.091.186-.182.092 0 .185-.091.185-.091h6.307c.186 0 .279.09.371.182l6.586 9.545c.093.182.185.364.093.546a.513.513 0 01-.464.272l-5.009.091zm-.556-11.454s-.093.09-.186.09c-.093.091-.185.091-.185.091h-7.421c-.092 0-.092 0-.185-.09-.093 0-.186-.091-.186-.091l-5.008-7.091c-.093-.182-.186-.364-.093-.546a.512.512 0 01.464-.273h5.194c.093 0 .185 0 .278.091a.291.291 0 00.186.091l3.061 4.818 3.246-4.909.185-.181c.093-.091.186-.091.279-.091h5.194c.278 0 .371.09.464.272.092.182.092.364-.093.546l-5.194 7.273zm23.837 6.909c0 1.818-1.484 3.364-3.431 3.364-1.856 0-3.432-1.455-3.432-3.364 0-1.818 1.484-3.364 3.432-3.364 1.947 0 3.431 1.455 3.431 3.364zm9.369 0c0 1.818-1.484 3.364-3.432 3.364-1.855 0-3.432-1.455-3.432-3.364 0-1.818 1.484-3.364 3.432-3.364s3.432 1.455 3.432 3.364zm9.46 0c0 1.818-1.484 3.364-3.432 3.364-1.855 0-3.432-1.455-3.432-3.364 0-1.818 1.484-3.364 3.432-3.364 1.855 0 3.432 1.455 3.432 3.364zm-20.684-12.273c-.834-.818-1.855-1.273-3.061-1.273-1.113 0-2.133.364-2.968 1.182-.834.818-1.205 1.727-1.205 2.818v5.091h1.298v-5c0-.727.278-1.364.835-1.909.556-.545 1.206-.818 2.04-.818.835 0 1.577.273 2.134.909l.093.09.927-.908-.093-.182zm1.299-.999v8.908h1.298V18.91h-1.298zm10.017.999c-.834-.818-1.855-1.273-3.061-1.273-1.113 0-2.133.364-2.968 1.182-.834.818-1.206 1.727-1.206 2.818v1.182c0 1.091.372 2 1.206 2.818.835.727 1.855 1.091 2.968 1.091 1.206 0 2.227-.364 3.061-1.182l.093-.09-.927-.91-.093.091c-.557.637-1.299.91-2.134.91a2.906 2.906 0 01-2.04-.819c-.557-.545-.835-1.182-.835-1.909v-1.182c0-.727.278-1.363.835-1.909a2.906 2.906 0 012.04-.818c.835 0 1.577.273 2.134.909l.093.091.927-.91-.093-.09zm-20.869 0c-.835-.818-1.763-1.182-2.968-1.182-1.113 0-2.134.364-2.969 1.182-.834.818-1.205 1.727-1.205 2.818v7.727h1.298v-3.727c.278.273.649.546 1.113.727.557.273 1.113.364 1.763.364 1.113 0 2.133-.364 2.968-1.09.834-.82 1.205-1.728 1.205-2.82v-1.18c0-1.092-.371-2.092-1.205-2.82zM136 25.818c-.556.545-1.206.818-2.04.818a2.908 2.908 0 01-2.041-.818c-.557-.546-.835-1.182-.835-1.91v-1.18c0-.728.278-1.365.835-1.91.556-.546 1.206-.818 2.041-.818.834 0 1.484.273 2.04.818.557.545.835 1.182.835 1.91v1.18c0 .728-.186 1.364-.835 1.91zm29.032-.091c-.557.546-1.299.91-2.133.91a2.906 2.906 0 01-2.041-.819c-.557-.545-.835-1.182-.835-1.909h7.049v-1.273c0-1.09-.371-2.09-1.205-2.818-.835-.727-1.763-1.182-2.968-1.182-1.114 0-2.134.364-2.969 1.182-.834.727-1.205 1.727-1.205 2.818v1.182c0 1.091.371 2 1.205 2.818.835.727 1.855 1.091 2.969 1.091 1.205 0 2.226-.364 3.06-1.182l.093-.09-.927-.91-.093.182zm-4.174-5a2.907 2.907 0 012.041-.818c.834 0 1.484.273 2.04.818.557.546.835 1.182.835 1.91h-5.751c0-.728.278-1.364.835-1.91zm-58.528-.454v-2.364c0-.182-.092-.272-.185-.363-.093-.091-.186-.182-.371-.182h-6.307c-.186 0-.278.09-.371.182-.093.09-.093.181-.093.272v3.546c0 .182.093.273.185.363.093.091.186.182.371.182h6.308c.185 0 .278-.09.371-.182.092-.09.092-.181.092-.272v-1.182zM80.812 27c0 11.09-9.09 20-20.406 20C49.09 47 40 38.09 40 27c0-11 9.09-20 20.406-20 11.316 0 20.406 9 20.406 20z" fill="#312D2D"/><path d="M79.235 27c0 10.182-8.44 18.455-18.83 18.455-10.388 0-18.828-8.273-18.828-18.455 0-10.182 8.44-18.455 18.829-18.455 10.388 0 18.829 8.273 18.829 18.455z" fill="#312D2D"/><path d="M60.406 41.636c8.247 0 14.933-6.552 14.933-14.636 0-8.083-6.686-14.636-14.933-14.636-8.248 0-14.933 6.553-14.933 14.636 0 8.084 6.685 14.636 14.933 14.636z" fill="#E1E1E1"/><path d="M58.55 29.273v6.909c0 .182 0 .273-.092.364-.093.09-.186.181-.371.181h-4.452c-.186 0-.279-.09-.371-.181-.093-.091-.186-.273-.186-.364V17.818c0-.181.093-.272.186-.363.092-.091.185-.182.37-.182H59.2c.185 0 .278.09.37.182.094.09.186.273.186.363v3.546c0 .182-.092.273-.185.363-.093.091-.186.182-.371.182h-.65v2.819h.65c.37 0 .556.181.556.545v3.545c0 .364-.185.546-.556.546l-.65-.091zm2.32 0c-.186 0-.279-.091-.371-.182-.093 0-.093-.182-.093-.273v-3.636c0-.182.093-.273.185-.364.093-.09.186-.182.371-.182h5.658c.371 0 .557.182.557.546v3.545c0 .364-.186.546-.557.546h-5.75zm6.863-9v-2.364c0-.182-.093-.272-.185-.363-.093-.091-.186-.182-.371-.182h-6.308c-.185 0-.278.09-.37.182-.093.09-.093.181-.093.272v3.546c0 .182.093.273.185.363.093.091.186.182.371.182h6.308c.186 0 .279-.09.371-.182.093-.09.093-.181.093-.272v-1.182z" fill="#312D2D"/></g><defs><clipPath id="clip0_1097_6134"><path fill="#fff" transform="translate(40 7)" d="M0 0h128v40H0z"/></clipPath></defs></svg>