<svg width="209" height="54" fill="none" xmlns="http://www.w3.org/2000/svg"><g clip-path="url(#clip0_1097_6134)"><path d="M93.568 29.16v6.563c0 .173 0 .259-.088.345-.089.087-.177.173-.354.173h-4.243c-.177 0-.266-.086-.354-.173-.088-.086-.177-.259-.177-.345V18.278c0-.173.088-.26.177-.346.088-.086.177-.173.354-.173h5.304c.177 0 .265.087.353.173.089.086.177.26.177.346v3.368c0 .172-.088.259-.177.345-.088.087-.176.173-.353.173h-.619v2.677h.619c.353 0 .53.173.53.518v3.368c0 .346-.177.519-.53.519l-.619-.087zm2.299-.001c-.177 0-.265-.086-.354-.173-.088-.086-.177-.172-.177-.345v-3.368c0-.173.089-.26.177-.346.089-.086.177-.173.354-.173h5.393c.353 0 .53.173.53.519v3.368c0 .345-.177.518-.53.518h-5.393zm8.487-6.909c-.089 0-.266-.086-.266-.172-.088-.087-.088-.173-.088-.346v-3.454c0-.346.177-.519.442-.519h3.713c.089 0 .265.087.354.173.088.086.177.26.177.346v3.454c0 .173-.089.26-.089.346-.088.086-.177.172-.353.172h-3.89zm0 13.991c-.089 0-.266-.086-.354-.173-.088-.086-.088-.172-.088-.345v-12.35c0-.173 0-.26.088-.346.088-.086.177-.172.265-.172h3.713c.089 0 .266.086.354.172.088.087.177.173.177.346v12.35c0 .173-.089.259-.089.345-.088.087-.176.173-.353.173h-3.713zm19.714 0c-.088 0-.177 0-.265-.086-.088-.087-.177-.087-.177-.173-.53-.864-1.149-1.727-1.856-2.764a214.444 214.444 0 01-2.21-3.282l-4.067 6.046s-.088.086-.177.086c-.088.087-.177.087-.265.087h-4.862a.487.487 0 01-.442-.26c-.089-.172-.089-.345.088-.518l6.365-8.981c0-.087.089-.087.177-.173.088 0 .177-.086.177-.086h6.011c.177 0 .266.086.354.172l6.277 9.068c.088.173.177.346.088.519a.487.487 0 01-.442.259l-4.774.086zm-.53-10.882s-.089.087-.177.087c-.088.086-.177.086-.177.086h-7.072c-.089 0-.089 0-.177-.086-.088 0-.177-.087-.177-.087l-4.774-6.736c-.088-.173-.177-.346-.088-.518a.487.487 0 01.442-.26h4.951c.088 0 .176 0 .265.087.088.086.177.086.177.086l2.917 4.578 3.094-4.664.177-.173c.088-.086.177-.086.265-.086h4.951c.265 0 .354.086.442.259.088.173.088.345-.088.518l-4.951 6.91zm22.72 6.563c0 1.728-1.415 3.196-3.271 3.196-1.768 0-3.271-1.382-3.271-3.196 0-1.727 1.414-3.195 3.271-3.195 1.856 0 3.271 1.382 3.271 3.195zm8.929 0c0 1.728-1.414 3.196-3.271 3.196-1.768 0-3.271-1.382-3.271-3.196 0-1.727 1.415-3.195 3.271-3.195 1.857 0 3.271 1.382 3.271 3.195zm9.017 0c0 1.728-1.414 3.196-3.271 3.196-1.768 0-3.271-1.382-3.271-3.196 0-1.727 1.415-3.195 3.271-3.195 1.768 0 3.271 1.382 3.271 3.195zM144.49 20.264c-.796-.777-1.768-1.21-2.918-1.21-1.06 0-2.033.346-2.828 1.123-.796.778-1.15 1.641-1.15 2.678v4.836h1.238v-4.75c0-.69.265-1.295.796-1.814.53-.518 1.149-.777 1.944-.777.796 0 1.503.26 2.034.864l.088.086.884-.864-.088-.172zm1.238-.95v8.463h1.237v-8.463h-1.237zm9.548.95c-.796-.777-1.769-1.21-2.918-1.21-1.061 0-2.033.346-2.829 1.123-.795.778-1.149 1.641-1.149 2.678v1.122c0 1.037.354 1.9 1.149 2.678.796.69 1.768 1.036 2.829 1.036 1.149 0 2.122-.345 2.918-1.123l.088-.086-.884-.864-.089.087c-.53.604-1.237.863-2.033.863a2.779 2.779 0 01-1.945-.777c-.53-.518-.795-1.123-.795-1.814v-1.122c0-.691.265-1.296.795-1.814a2.778 2.778 0 011.945-.777c.796 0 1.503.259 2.033.863l.089.087.884-.864-.088-.086zm-19.892 0c-.796-.777-1.68-1.123-2.829-1.123-1.061 0-2.033.346-2.829 1.123-.796.777-1.149 1.64-1.149 2.677v7.341h1.237v-3.54c.266.258.619.517 1.061.69.531.26 1.061.346 1.68.346 1.061 0 2.033-.346 2.829-1.037.796-.777 1.149-1.64 1.149-2.677V22.94c0-1.036-.353-1.986-1.149-2.677zm-.884 5.614c-.531.518-1.149.777-1.945.777-.707 0-1.415-.26-1.945-.777-.53-.519-.796-1.123-.796-1.814V22.94c0-.69.266-1.295.796-1.813.53-.519 1.149-.778 1.945-.778s1.414.26 1.945.777c.53.519.795 1.123.795 1.814v1.123c0 .69-.176 1.295-.795 1.814zm27.671-.087c-.531.518-1.238.864-2.034.864-.707 0-1.414-.26-1.944-.778-.531-.518-.796-1.122-.796-1.813h6.719v-1.21c0-1.036-.354-1.986-1.15-2.677-.795-.69-1.679-1.122-2.829-1.122-1.06 0-2.033.345-2.829 1.122-.795.691-1.149 1.641-1.149 2.678v1.122c0 1.037.354 1.9 1.149 2.678.796.69 1.769 1.036 2.829 1.036 1.15 0 2.122-.345 2.918-1.123l.088-.086-.884-.864-.088.173zm-3.978-4.75a2.774 2.774 0 011.944-.777c.796 0 1.415.259 1.945.777.531.518.796 1.123.796 1.814h-5.481c0-.691.265-1.296.796-1.814zm-55.784-.432v-2.246c0-.172-.089-.259-.177-.345-.088-.086-.177-.173-.354-.173h-6.011c-.177 0-.265.087-.354.173-.088.086-.088.173-.088.259v3.368c0 .173.088.26.177.346.088.086.176.172.353.172h6.012c.177 0 .265-.086.353-.172.089-.087.089-.173.089-.26V20.61zM81.899 27c0 10.536-8.664 19-19.45 19C51.664 46 43 37.536 43 27c0-10.45 8.664-19 19.45-19 10.785 0 19.449 8.55 19.449 19z" fill="#312D2D"/><path d="M80.396 27c0 9.673-8.045 17.532-17.947 17.532-9.901 0-17.946-7.86-17.946-17.532 0-9.673 8.045-17.532 17.946-17.532 9.902 0 17.947 7.86 17.947 17.532z" fill="#312D2D"/><path d="M62.45 40.904c7.86 0 14.233-6.225 14.233-13.904 0-7.68-6.373-13.905-14.234-13.905-7.86 0-14.233 6.225-14.233 13.905 0 7.679 6.372 13.904 14.233 13.904z" fill="#E1E1E1"/><path d="M60.681 29.16v6.563c0 .173 0 .259-.088.345-.089.087-.177.173-.354.173h-4.243c-.177 0-.266-.086-.354-.173-.088-.086-.177-.259-.177-.345V18.278c0-.173.089-.26.177-.346.088-.086.177-.173.354-.173H61.3c.177 0 .265.087.354.173.088.086.176.26.176.346v3.368c0 .172-.088.259-.176.345-.089.087-.177.173-.354.173h-.619v2.677h.62c.353 0 .53.173.53.518v3.368c0 .346-.177.519-.53.519l-.62-.087zm2.21-.001c-.177 0-.265-.086-.353-.173-.089 0-.089-.172-.089-.259v-3.454c0-.173.089-.26.177-.346.088-.086.177-.173.354-.173h5.392c.354 0 .53.173.53.519v3.368c0 .345-.176.518-.53.518h-5.48zm6.542-8.55v-2.246c0-.172-.088-.259-.177-.345-.088-.086-.176-.173-.353-.173H62.89c-.177 0-.265.087-.353.173-.089.086-.089.173-.089.259v3.368c0 .173.089.26.177.346.088.086.177.172.354.172h6.011c.177 0 .266-.086.354-.172.088-.087.088-.173.088-.26V20.61z" fill="#312D2D"/></g><defs><clipPath id="clip0_1097_6134"><path fill="#fff" transform="translate(43 8)" d="M0 0h122v38H0z"/></clipPath></defs></svg>