<svg xmlns="http://www.w3.org/2000/svg" xmlns:xlink="http://www.w3.org/1999/xlink" xmlns:svgjs="http://svgjs.dev/svgjs" width="72" height="72"><svg width="72" height="72" fill="none" xmlns="http://www.w3.org/2000/svg"><g clip-path="url(#clip0_556_4605)"><path fill="#EE3A23" d="M0 0h72v72H0z"/><path d="M49 32.126v22.19a.685.685 0 00.68.684h6.642c.18 0 .352-.072.48-.2a.688.688 0 00.198-.485V21.21a.214.214 0 00-.146-.2.207.207 0 00-.234.077l-7.595 10.916a.228.228 0 00-.024.123zM22 39.97V17.694a.702.702 0 00-.198-.49.67.67 0 00-.48-.204h-6.644a.67.67 0 00-.48.203.702.702 0 00-.198.49v33.003a.352.352 0 00.076.179.34.34 0 00.348.113.337.337 0 00.162-.1l7.346-10.714A.352.352 0 0022 39.97zM44.583 17a.704.704 0 00-.581.3l-25.93 37.001a.454.454 0 00.375.699h7.652a.704.704 0 00.582-.3L53 17h-8.417z" fill="#fff"/></g><defs><clipPath id="SvgjsClipPath1013"><path fill="#fff" d="M0 0h72v72H0z"/></clipPath></defs></svg><style>@media (prefers-color-scheme:light){:root{filter:none}}@media (prefers-color-scheme:dark){:root{filter:none}}</style></svg>