<svg width="263" height="87" viewBox="0 0 263 87" fill="none" xmlns="http://www.w3.org/2000/svg">
<path d="M96.2047 49.6421C96.1713 49.6321 95.983 49.4378 95.9615 49.3879C96.5599 45.7653 97.0247 42.0256 97.7327 38.4079C97.9044 37.526 97.7518 36.8906 98.703 36.8059C99.5183 36.7337 101.387 36.7013 102.172 36.8059C102.303 36.8234 102.439 36.7959 102.529 36.9305L103.716 44.2878L107.888 36.8134H112.06C112.11 36.8134 112.274 37.075 112.294 37.1697L110.181 49.4876C110.15 49.5225 109.938 49.6445 109.914 49.6445H106.398L107.23 43.665L104.315 49.1487C103.998 49.8289 101.869 49.7891 101.499 49.4677C101.342 49.3306 101.263 49.1039 101.206 48.9021C100.744 47.2627 100.71 45.0079 100.436 43.2888C100.198 43.3361 100.241 43.5529 100.198 43.7248C99.7972 45.3692 99.7853 47.4869 99.3347 49.0516C99.2918 49.2036 99.0558 49.6421 98.9461 49.6421C98.3549 49.6421 96.6218 49.7666 96.2047 49.6421Z" fill="white"/>
<path d="M81.7821 53.6284C81.7106 53.606 81.57 53.3693 81.5485 53.2722L84.2924 37.0675C84.4378 36.8657 84.6619 36.8358 84.8812 36.8109C85.4009 36.7486 87.2722 36.7237 87.7395 36.8159C87.8873 36.8458 88.0375 36.918 88.1066 37.065C88.2162 37.2917 87.8611 37.952 88.2163 37.81C88.3807 37.7452 88.7264 37.374 88.9886 37.2469C90.9363 36.2952 93.4632 36.4795 94.8339 38.3731C96.5098 40.6876 95.3822 45.6631 93.6444 47.7186C91.9447 49.7317 88.1757 50.985 86.3115 48.6504C86.1756 48.7376 86.178 48.8373 86.1446 48.9743C85.83 50.1802 85.8586 52.0164 85.4843 53.1426C85.4271 53.312 85.1386 53.6334 85.0004 53.6334C84.3663 53.6334 82.1922 53.7655 81.7821 53.6334V53.6284ZM91.0984 39.9676C90.3475 39.2052 88.8098 39.6562 88.159 40.3613C86.805 41.8337 85.8181 47.1107 88.9219 47.0135C91.2724 46.9388 92.6002 41.4924 91.0984 39.9676Z" fill="white"/>
<path d="M57.9718 31.8578C58.5797 31.7308 61.469 31.7332 62.1079 31.8354C62.5441 31.9052 62.792 32.2041 62.8493 32.6526C61.8075 38.6023 60.9255 44.5893 59.8718 50.5365C59.7264 51.3512 59.4832 53.5587 59.1304 54.1217C58.9373 54.4307 58.6488 54.5852 58.3032 54.6275C57.5975 54.7147 54.7703 54.7471 54.1314 54.6225C53.6617 54.5304 53.5092 54.0121 53.5926 53.5711C54.6868 47.5791 55.5331 41.5372 56.6106 35.5427C56.7989 34.4938 56.8562 32.092 57.9718 31.8578Z" fill="white"/>
<path d="M182.621 36.8109C182.678 36.8308 182.761 36.9479 182.783 37.0177L181.727 43.9116L186.552 36.8109H190.366C190.383 36.8109 190.585 37.0102 190.609 37.065L188.631 49.1986C188.635 49.3306 188.414 49.6421 188.34 49.6421H184.883C184.812 49.6421 184.592 49.2783 184.647 49.1313L185.598 42.788L180.95 49.6421H177.016C176.79 49.4826 176.823 49.216 176.835 48.9619C177.004 45.3716 178.497 41.0763 178.776 37.4039C178.778 37.2519 179.081 36.8109 179.162 36.8109H182.621Z" fill="white"/>
<path d="M215.757 36.8109C215.79 36.8209 215.979 37.0152 216 37.065C215.402 40.6876 214.939 44.4274 214.229 48.045C214.172 48.339 214.026 49.3331 213.881 49.4876C213.552 49.8414 210.915 49.5349 210.293 49.6445L210.035 48.7675C207.423 50.9227 202.92 49.9286 202.588 46.0867C202.336 43.1692 203.318 39.4743 205.718 37.7751C207.103 36.7935 209.327 36.2603 210.891 37.0351C211.103 37.1398 211.909 37.8947 212.002 37.805C211.969 37.501 212.219 36.8084 212.539 36.8084C213.218 36.8084 215.28 36.6664 215.757 36.8084V36.8109ZM209.115 39.574C206.262 39.9776 204.986 48.2942 209.111 46.8043C210.87 46.1689 211.502 42.9524 211.28 41.2432C211.134 40.1221 210.186 39.422 209.118 39.574H209.115Z" fill="white"/>
<path d="M82.3781 36.8109C82.483 36.8458 82.6642 37.1896 82.6403 37.3441C81.8322 41.0265 81.5723 45.0179 80.7356 48.6704C80.6903 48.8697 80.614 49.373 80.5044 49.4901C80.1754 49.8439 77.5388 49.5374 76.9166 49.647L76.6591 48.77C74.0464 50.9252 69.5432 49.9311 69.2119 46.0892C68.9639 43.2165 69.9223 39.5266 72.2704 37.8274C73.6721 36.8134 75.9154 36.2428 77.515 37.0376C77.7271 37.1423 78.5329 37.8972 78.6259 37.8075C78.5925 37.5035 78.8428 36.8109 79.1622 36.8109H82.3805H82.3781ZM75.7366 39.574C72.8831 39.9776 71.6077 48.2942 75.7318 46.8042C77.4911 46.1689 78.1229 42.9524 77.9011 41.2432C77.7557 40.1221 76.8069 39.422 75.739 39.574H75.7366Z" fill="white"/>
<path d="M125.765 36.8109C125.894 36.8483 126.111 37.1796 126.058 37.3515C125.188 41.0589 125.026 45.2645 124.125 48.922C124.018 49.3605 123.984 49.5798 123.507 49.647C123.031 49.7143 120.964 49.7243 120.525 49.6371C120.33 49.5972 120.194 49.5025 120.122 49.3057L120.165 48.6455C117.381 51.0373 112.916 49.9435 112.599 45.84C112.47 44.1782 112.901 42.0181 113.567 40.5033C114.983 37.2843 119.164 35.2836 122.01 37.8075C122.068 37.5235 122.215 36.8109 122.549 36.8109C123.226 36.8109 125.291 36.6689 125.767 36.8109H125.765ZM119.121 39.5789C116.26 40.0125 115.011 48.3963 119.216 46.7843C120.98 46.1091 121.505 42.8054 121.286 41.1212C121.145 40.0374 120.12 39.4294 119.121 39.5789Z" fill="white"/>
<path d="M167.781 44.1608C167.371 46.9662 169.586 48.2742 171.476 46.0917C171.896 45.6083 171.581 45.4165 172.504 45.2969C172.887 45.2471 175.383 45.2545 175.526 45.4115C175.347 47.31 173.443 48.9644 171.779 49.5225C169.965 50.1329 166.823 50.1628 165.276 48.8348C162.765 46.6847 164.131 40.6004 166.229 38.4902C168.808 35.894 175.829 35.5751 176.351 40.2516C176.411 40.7848 176.454 44.1633 175.827 44.1633H167.781V44.1608ZM172.549 41.4201C172.418 38.4129 169.099 39.0956 168.377 41.4201H172.549Z" fill="white"/>
<path d="M159.08 40.0498H156.04C155.835 40.2292 155.831 40.5207 155.778 40.7724C155.204 43.5404 154.927 46.3956 154.403 49.1761C154.379 49.2908 154.047 49.6421 154.014 49.6421H150.557L150.393 49.4353L152.474 37.07C152.519 37.0002 152.665 36.8109 152.703 36.8109H163.43C163.59 36.8109 163.666 37.3092 163.597 37.4786C162.675 41.0813 162.615 45.3916 161.669 48.922C161.623 49.0914 161.454 49.6421 161.285 49.6421H157.828L157.669 49.4353L159.08 40.0498Z" fill="white"/>
<path d="M144.974 36.6091C149.489 36.6091 150.708 39.5316 149.842 43.7896C149.16 47.1506 147.206 49.6146 143.766 49.8962C138.528 50.3247 136.714 47.5293 137.966 42.3395C138.862 38.6222 141.26 36.6116 144.974 36.6091ZM144.152 39.5789C141.904 39.9203 140.531 45.4115 142.4 46.7096C143.954 47.7884 145.415 45.7155 145.854 44.3526C146.355 42.8054 146.536 39.2177 144.152 39.5789Z" fill="white"/>
<path d="M131.367 36.8109L131.527 37.0177L131.017 41.4226L131.996 41.3927L135.153 37.0326C135.405 36.8657 135.598 36.8333 135.889 36.8059C136.409 36.7536 138.056 36.7237 138.516 36.8134C139.215 36.9504 138.526 37.7602 138.316 38.099C137.88 38.8016 134.895 42.6435 134.886 42.9798L137.086 48.7725C137.279 49.4228 137.122 49.6969 136.49 49.7741C135.892 49.8464 133.951 49.8613 133.505 49.525C132.847 49.0316 132.008 45.4514 131.481 44.5395L130.461 44.4697L129.605 49.1811C129.582 49.2957 129.25 49.647 129.217 49.647H125.701L125.591 49.1039C126.323 45.5286 126.692 41.8636 127.405 38.2883C127.505 37.7876 127.515 37.1497 127.903 36.8159H131.36L131.367 36.8109Z" fill="white"/>
<path d="M196.09 36.8109C196.19 36.8408 196.354 37.0675 196.357 37.217C196.371 37.805 195.527 41.2682 195.673 41.4201L196.803 41.2931C197.291 40.6876 199.759 36.8109 200.262 36.8109H203.539L203.404 37.6032L199.632 42.8702L201.909 49.0491C202.011 49.6271 201.535 49.7293 201.101 49.7716C200.505 49.8289 198.664 49.8588 198.23 49.52C197.506 48.9519 196.838 45.272 196.068 44.4299C195.773 44.4099 195.22 44.2779 195.096 44.6192C194.805 45.9571 194.729 47.4545 194.421 48.7725C194.359 49.0366 194.278 49.6396 193.939 49.6396H190.602C190.523 49.6396 190.237 49.2708 190.328 49.1164C191.186 45.414 191.401 41.3479 192.268 37.6754C192.33 37.4113 192.411 36.8084 192.75 36.8084C193.463 36.8084 195.577 36.6614 196.087 36.8084L196.09 36.8109Z" fill="white"/>
<path d="M54.427 36.5617L52.2815 49.8912C50.5651 49.804 48.155 50.5215 48 47.9802L49.6544 38.3631C50.0668 37.4936 51.0085 36.5617 51.9835 36.5617H54.427Z" fill="white"/>
<path d="M61.9362 49.8912L64.2176 36.5792C65.7695 36.5966 68.2154 36.1008 68.3823 38.3681L66.7922 48.0525C66.5562 48.775 65.4787 49.8912 64.7373 49.8912H61.9362Z" fill="white"/>
<path d="M188.483 31.2449C188.805 31.5364 189.699 32.9017 189.572 33.3577C189.277 34.4191 186.154 35.1391 185.222 35.1441C184.239 35.1516 181.117 34.4639 180.795 33.3577C180.618 32.7548 181.801 31.0855 182.316 31.0032C182.666 30.9484 183.5 31.6062 183.994 31.7582C184.797 32.0048 185.462 32.0497 186.28 31.7905C187.024 31.5563 187.768 30.5946 188.48 31.2424L188.483 31.2449Z" fill="white"/>
<path d="M182.919 53.5039L183.856 53.5213L184.707 55.9953C185.126 55.8135 185.658 53.6135 185.794 53.5213L186.731 53.5039V56.8674H186.015V54.625L185.169 56.668C185.017 56.9521 184.638 56.962 184.475 56.668L183.629 54.625V56.8674H182.914V53.5039H182.919Z" fill="white"/>
<path d="M213.254 53.5039C214.105 53.6608 214.441 54.8542 213.433 55.061C213.554 55.3351 214.198 55.2529 214.231 55.953C214.25 56.3566 213.862 56.8674 213.492 56.8674H211.406V53.5039C211.969 53.5761 212.722 53.4042 213.254 53.5039ZM212.121 54.8742C213.773 55.1308 213.771 53.8676 212.121 54.1242V54.8742ZM212.121 56.3691C214.04 56.6481 214.036 55.0785 212.121 55.3725V56.3691Z" fill="white"/>
<path d="M201.156 53.5039V55.7462C201.639 55.4223 202.223 53.5861 202.645 53.5039C202.848 53.464 203.091 53.5238 203.301 53.5039V56.8674H202.586V54.625C202.123 54.8443 201.48 56.7029 201.251 56.84C201.077 56.9446 200.664 56.8275 200.44 56.8674V53.5039H201.156Z" fill="white"/>
<path d="M165.278 55.3725H162.894C162.901 56.0776 163.447 56.5659 164.122 56.3442C164.286 56.2893 164.989 55.5643 165.156 56.1797C164.336 57.6073 162.227 57.0318 162.174 55.3052C162.095 52.8411 165.442 52.8337 165.278 55.3725ZM164.563 54.8742C164.441 53.7082 163.08 53.7206 162.894 54.8742H164.563Z" fill="white"/>
<path d="M140.843 55.3725C140.874 56.105 141.229 56.5136 141.973 56.3691C142.242 56.3167 142.29 56.0527 142.686 55.9879C143.52 55.8533 142.924 56.5559 142.579 56.7478C141.425 57.3881 140.152 56.7104 140.121 55.3102C140.064 52.8038 143.47 52.8735 143.11 55.3725H140.843ZM142.512 54.8742C142.319 53.6832 141.05 53.7356 140.843 54.8742H142.512Z" fill="white"/>
<path d="M208.631 53.5338C211.471 52.9233 211.299 57.3333 208.872 56.9645C207.177 56.7079 207.192 53.8427 208.631 53.5338ZM208.991 54.0221C208.016 54.2164 208.05 56.5933 209.313 56.3716C210.31 56.1947 210.221 53.7779 208.991 54.0221Z" fill="white"/>
<path d="M204.135 53.5039H204.851L204.92 54.8767L206.162 54.8742V53.5039H206.877V56.8674H206.162L206.093 55.4946L204.851 55.4971V56.8674H204.135V53.5039Z" fill="white"/>
<path d="M190.19 56.8674L189.601 56.8549C189.632 56.1 189.277 56.7378 188.948 56.8773C188.046 57.2585 187.088 56.4662 187.51 55.4995C187.882 54.645 189.896 55.2429 189.417 54.2513C189.048 53.4839 188.108 54.6176 187.567 54.3759C187.679 53.17 190.19 53.2771 190.19 54.189V56.8674ZM189.474 55.2479C189.055 55.4123 188.297 55.3077 188.159 55.811C187.977 56.9072 189.942 56.5485 189.474 55.2479Z" fill="white"/>
<path d="M196.388 56.8674L195.799 56.8549C195.83 56.1 195.475 56.7378 195.146 56.8773C194.245 57.2585 193.286 56.4662 193.708 55.4995C194.08 54.645 196.094 55.2429 195.615 54.2513C195.246 53.4839 194.307 54.6176 193.765 54.3759C193.877 53.17 196.388 53.2771 196.388 54.189V56.8674ZM195.673 55.2479C195.253 55.4123 194.495 55.3077 194.357 55.811C194.175 56.9072 196.14 56.5485 195.673 55.2479Z" fill="white"/>
<path d="M154.789 56.8674L154.2 56.8549C154.229 56.0502 153.809 56.8275 153.485 56.9371C152.591 57.2386 151.664 56.4089 152.181 55.4497C152.562 54.7421 153.931 55.0909 154.066 54.6749L154.016 54.2513C153.361 53.5014 152.915 54.6001 152.167 54.3759C152.279 53.17 154.789 53.2771 154.789 54.189V56.8674ZM153.923 55.2703C153.337 55.4597 152.498 55.3451 152.817 56.2495C153.504 56.7976 154.434 56.1075 154.076 55.3052L153.923 55.2703Z" fill="white"/>
<path d="M169.569 53.5039H170.165V54.8742L171.526 54.8767L171.595 53.5039H172.31V56.8674H171.595V55.4971L170.277 55.5519L170.165 56.8674H169.569V53.5039Z" fill="white"/>
<path d="M158.484 53.5039V56.8674H157.769V54.1267H156.338V56.8674H155.742V53.5039H158.484Z" fill="white"/>
<path d="M173.145 53.5039H173.86V54.625C174.971 54.5005 176.246 54.7845 175.817 56.2395C175.75 56.4637 175.288 56.8674 175.111 56.8674H173.145V53.5039ZM175.142 55.4024L173.86 55.2454V56.242C174.575 56.247 175.512 56.4538 175.142 55.3999V55.4024Z" fill="white"/>
<path d="M147.16 53.5039H147.876V54.625C148.941 54.4108 150.429 54.9664 149.814 56.3392C149.742 56.5011 149.222 56.8674 149.127 56.8674H147.16V53.5039ZM149.158 55.4024C148.913 55.1532 148.212 55.2728 147.876 55.2479V56.2445C148.405 56.4613 149.821 56.0701 149.158 55.4024Z" fill="white"/>
<path d="M139.532 54.625C138.721 54.8393 138.874 54.3659 138.528 54.1168C137.322 53.2572 136.728 56.7104 138.373 56.3467C138.85 56.242 138.855 55.5245 139.532 55.7462C139.432 56.9371 138.171 57.2934 137.274 56.673C136.473 56.1199 136.452 54.6574 137.029 53.9374C137.687 53.1177 139.53 53.3444 139.532 54.6225V54.625Z" fill="white"/>
<path d="M178.604 53.5313C178.716 53.5985 179.183 54.8617 179.34 54.7496C179.669 54.0919 179.76 53.2821 180.652 53.5039L179.736 55.1856L180.652 56.8649C179.662 57.1564 179.817 56.0875 179.164 55.7437C178.809 56.3716 178.783 57.0916 177.913 56.8649C177.762 56.7303 178.74 55.502 178.74 55.1831C178.74 54.8642 177.765 53.6359 177.913 53.5014C178.11 53.5313 178.444 53.4316 178.604 53.5263V53.5313Z" fill="white"/>
<path d="M199.129 55.2454C199.551 55.2055 199.723 55.5419 199.732 55.9356C199.77 57.271 197.253 57.3582 197.103 55.9929C197.909 55.7811 197.925 56.6531 198.815 56.3466C199.418 55.6565 198.691 55.3476 198.054 55.3052V54.8692C199.403 55.1308 199.186 53.5936 198.08 54.0819C197.899 54.1616 197.818 54.5852 197.222 54.3684C197.239 53.4765 198.29 53.3893 198.943 53.5039C199.77 53.6509 200.009 54.7546 199.129 54.9938V55.2454Z" fill="white"/>
<path d="M168.615 56.8674H168.019V55.8708C166.191 56.0875 165.805 55.2828 165.991 53.5039H166.589C166.503 54.6151 166.582 55.5693 167.907 55.1931L168.019 53.5039H168.615V56.8674Z" fill="white"/>
<path d="M161.821 53.5039V54.1267H160.749V56.8674H160.033V54.1267H158.961V53.5039H161.821Z" fill="white"/>
<path d="M146.445 53.5039V54.1267H145.372V56.8674H144.657V54.1267H143.585V53.5039H146.445Z" fill="white"/>
<path d="M193.169 53.5039V54.1267H191.739V56.8674H191.143V53.5039H193.169Z" fill="white"/>
<path d="M177.078 53.5039H176.363V56.8674H177.078V53.5039Z" fill="white"/>
<path d="M212.121 55.3725V56.3691C214.04 56.6481 214.036 55.081 212.121 55.3725Z" fill="white"/>
<path d="M162.894 54.8742H164.563C164.441 53.7082 163.08 53.7206 162.894 54.8742Z" fill="white"/>
</svg>
