<svg width="263" height="87" viewBox="0 0 263 87" fill="none" xmlns="http://www.w3.org/2000/svg">
<path d="M120.098 64.0538V60.9275H120.989C121.274 60.9275 121.488 60.9969 121.631 61.1357C121.775 61.2746 121.848 61.4829 121.848 61.7606C121.848 61.9066 121.811 62.0354 121.738 62.1471C121.665 62.2587 121.566 62.3453 121.442 62.4069C121.585 62.4498 121.698 62.5379 121.781 62.671C121.866 62.8041 121.908 62.9644 121.908 63.1519C121.908 63.4325 121.83 63.653 121.676 63.8133C121.523 63.9736 121.304 64.0538 121.019 64.0538H120.098ZM120.491 62.5915V63.7167H121.027C121.176 63.7167 121.294 63.668 121.382 63.5706C121.469 63.4719 121.513 63.3337 121.513 63.1562C121.513 62.7798 121.354 62.5915 121.036 62.5915H120.491ZM120.491 62.2609H120.995C121.131 62.2609 121.241 62.2151 121.324 62.1234C121.408 62.0318 121.45 61.9102 121.45 61.7584C121.45 61.5866 121.412 61.4621 121.337 61.3848C121.261 61.3061 121.145 61.2667 120.989 61.2667H120.491V62.2609Z" fill="white"/>
<path d="M123.956 63.2378H122.9L122.657 64.0538H122.253L123.26 60.9275H123.598L124.607 64.0538H124.203L123.956 63.2378ZM123.003 62.8986H123.855L123.428 61.4771L123.003 62.8986Z" fill="white"/>
<path d="M125.446 60.9275V63.7167H126.294V60.9275H126.685V63.7167H127.527V60.9275H127.922V64.0538H125.051V60.9275H125.446Z" fill="white"/>
<path d="M130.11 63.2378H129.054L128.811 64.0538H128.407L129.414 60.9275H129.751L130.761 64.0538H130.357L130.11 63.2378ZM129.157 62.8986H130.009L129.582 61.4771L129.157 62.8986Z" fill="white"/>
<path d="M134.226 64.0538H133.831V61.2667H132.607V64.0538H132.214V60.9275H134.226V64.0538Z" fill="white"/>
<path d="M136.556 60.9275H136.949V64.0538H136.556V61.6446L135.338 64.0538H134.943V60.9275H135.338V63.3366L136.556 60.9275Z" fill="white"/>
<path d="M137.649 64.0538V60.9275H138.54C138.825 60.9275 139.039 60.9969 139.182 61.1357C139.326 61.2746 139.399 61.4829 139.399 61.7606C139.399 61.9066 139.362 62.0354 139.289 62.1471C139.216 62.2587 139.117 62.3453 138.993 62.4069C139.136 62.4498 139.249 62.5379 139.332 62.671C139.417 62.8041 139.459 62.9644 139.459 63.1519C139.459 63.4325 139.381 63.653 139.227 63.8133C139.074 63.9736 138.855 64.0538 138.57 64.0538H137.649ZM138.042 62.5915V63.7167H138.578C138.727 63.7167 138.845 63.668 138.933 63.5706C139.02 63.4719 139.064 63.3337 139.064 63.1562C139.064 62.7798 138.905 62.5915 138.587 62.5915H138.042ZM138.042 62.2609H138.546C138.682 62.2609 138.792 62.2151 138.875 62.1234C138.959 62.0318 139.001 61.9102 139.001 61.7584C139.001 61.5866 138.964 61.4621 138.888 61.3848C138.812 61.3061 138.696 61.2667 138.54 61.2667H138.042V62.2609Z" fill="white"/>
<path d="M142.083 62.7655C142.083 63.192 141.992 63.5205 141.81 63.751C141.628 63.9815 141.37 64.0967 141.035 64.0967C140.713 64.0967 140.458 63.9851 140.27 63.7617C140.084 63.537 139.988 63.2199 139.981 62.8105V62.2222C139.981 61.8042 140.073 61.4771 140.258 61.241C140.442 61.0033 140.7 60.8845 141.031 60.8845C141.36 60.8845 141.616 60.9983 141.799 61.2259C141.984 61.4521 142.078 61.7756 142.083 62.1964V62.7655ZM141.69 62.2179C141.69 61.8873 141.635 61.6418 141.527 61.4814C141.419 61.3197 141.254 61.2388 141.031 61.2388C140.814 61.2388 140.65 61.3204 140.539 61.4836C140.429 61.6468 140.373 61.8873 140.371 62.205V62.7655C140.371 63.0847 140.426 63.328 140.537 63.4955C140.648 63.663 140.814 63.7467 141.035 63.7467C141.255 63.7467 141.418 63.6694 141.524 63.5148C141.63 63.3602 141.685 63.1233 141.69 62.8041V62.2179Z" fill="white"/>
<path d="M142.69 64.0538V60.9275H143.581C143.866 60.9275 144.08 60.9969 144.223 61.1357C144.368 61.2746 144.44 61.4829 144.44 61.7606C144.44 61.9066 144.404 62.0354 144.331 62.1471C144.258 62.2587 144.159 62.3453 144.034 62.4069C144.178 62.4498 144.291 62.5379 144.374 62.671C144.458 62.8041 144.5 62.9644 144.5 63.1519C144.5 63.4325 144.423 63.653 144.268 63.8133C144.115 63.9736 143.896 64.0538 143.611 64.0538H142.69ZM143.083 62.5915V63.7167H143.62C143.769 63.7167 143.887 63.668 143.974 63.5706C144.062 63.4719 144.105 63.3337 144.105 63.1562C144.105 62.7798 143.946 62.5915 143.629 62.5915H143.083ZM143.083 62.2609H143.588C143.724 62.2609 143.833 62.2151 143.916 62.1234C144.001 62.0318 144.043 61.9102 144.043 61.7584C144.043 61.5866 144.005 61.4621 143.929 61.3848C143.853 61.3061 143.737 61.2667 143.581 61.2667H143.083V62.2609Z" fill="white"/>
<path d="M146.549 63.2378H145.492L145.25 64.0538H144.846L145.853 60.9275H146.19L147.199 64.0538H146.796L146.549 63.2378ZM145.595 62.8986H146.448L146.021 61.4771L145.595 62.8986Z" fill="white"/>
<path d="M148.017 62.8299V64.0538H147.625V60.9275H148.621C148.911 60.9275 149.14 61.0148 149.306 61.1894C149.472 61.3626 149.555 61.5938 149.555 61.883C149.555 62.1836 149.475 62.4155 149.316 62.5786C149.159 62.7404 148.936 62.8241 148.649 62.8299H148.017ZM148.017 62.4928H148.621C148.795 62.4928 148.929 62.4405 149.022 62.336C149.115 62.2315 149.162 62.0819 149.162 61.8873C149.162 61.6997 149.114 61.5494 149.018 61.4363C148.922 61.3233 148.79 61.2667 148.623 61.2667H148.017V62.4928Z" fill="white"/>
<path d="M151.562 62.6087H150.457V63.7167H151.745V64.0538H150.064V60.9275H151.723V61.2667H150.457V62.2716H151.562V62.6087Z" fill="white"/>
<path d="M154.296 64.0538H153.901V62.6087H152.642V64.0538H152.25V60.9275H152.642V62.2716H153.901V60.9275H154.296V64.0538Z" fill="white"/>
<path d="M157.023 64.0538H156.628V62.6087H155.369V64.0538H154.976V60.9275H155.369V62.2716H156.628V60.9275H157.023V64.0538Z" fill="white"/>
<path d="M159.2 63.2378H158.144L157.901 64.0538H157.497L158.504 60.9275H158.841L159.851 64.0538H159.447L159.2 63.2378ZM158.247 62.8986H159.099L158.672 61.4771L158.247 62.8986Z" fill="white"/>
<path d="M161.639 64.0538V62.8363H161.098L160.559 64.0538H160.14L160.752 62.7161C160.412 62.5572 160.241 62.2752 160.241 61.8701C160.241 61.5766 160.323 61.3469 160.486 61.1808C160.651 61.0134 160.881 60.9289 161.175 60.9275H162.034V64.0538H161.639ZM160.636 61.8701C160.636 62.059 160.684 62.2108 160.778 62.3253C160.873 62.4384 161.005 62.4963 161.175 62.4992H161.639V61.2667H161.18C161.002 61.2667 160.867 61.3204 160.774 61.4278C160.682 61.5351 160.636 61.6826 160.636 61.8701Z" fill="white"/>
<path d="M164.467 62.6495H164.171V64.0538H163.778V60.9275H164.171V62.306H164.411L165.292 60.9275H165.781L164.789 62.4391L165.854 64.0538H165.373L164.467 62.6495Z" fill="white"/>
<path d="M168.188 62.7655C168.188 63.192 168.097 63.5205 167.915 63.751C167.734 63.9815 167.475 64.0967 167.14 64.0967C166.818 64.0967 166.563 63.9851 166.376 63.7617C166.19 63.537 166.093 63.2199 166.086 62.8105V62.2222C166.086 61.8042 166.178 61.4771 166.363 61.241C166.548 61.0033 166.805 60.8845 167.136 60.8845C167.465 60.8845 167.721 60.9983 167.905 61.2259C168.089 61.4521 168.184 61.7756 168.188 62.1964V62.7655ZM167.795 62.2179C167.795 61.8873 167.741 61.6418 167.632 61.4814C167.525 61.3197 167.359 61.2388 167.136 61.2388C166.92 61.2388 166.756 61.3204 166.644 61.4836C166.534 61.6468 166.478 61.8873 166.477 62.205V62.7655C166.477 63.0847 166.532 63.328 166.642 63.4955C166.754 63.663 166.92 63.7467 167.14 63.7467C167.361 63.7467 167.524 63.6694 167.63 63.5148C167.736 63.3602 167.791 63.1233 167.795 62.8041V62.2179Z" fill="white"/>
<path d="M169.302 60.9275L170.118 63.4783L170.934 60.9275H171.441V64.0538H171.048V62.8363L171.085 61.6167L170.267 64.0538H169.966L169.152 61.6253L169.189 62.8363V64.0538H168.796V60.9275H169.302Z" fill="white"/>
<path d="M174.151 64.0538H173.756V61.2667H172.532V64.0538H172.139V60.9275H174.151V64.0538Z" fill="white"/>
<path d="M176.309 63.2378H175.252L175.01 64.0538H174.606L175.613 60.9275H175.95L176.959 64.0538H176.556L176.309 63.2378ZM175.355 62.8986H176.208L175.781 61.4771L175.355 62.8986Z" fill="white"/>
<path d="M179.431 64.0538H179.036V62.6087H177.777V64.0538H177.384V60.9275H177.777V62.2716H179.036V60.9275H179.431V64.0538Z" fill="white"/>
<path d="M181.741 60.9275H182.134V64.0538H181.741V61.6446L180.524 64.0538H180.129V60.9275H180.524V63.3366L181.741 60.9275Z" fill="white"/>
<path d="M184.197 64.0538V62.8363H183.656L183.117 64.0538H182.699L183.311 62.7161C182.97 62.5572 182.8 62.2752 182.8 61.8701C182.8 61.5766 182.881 61.3469 183.044 61.1808C183.209 61.0134 183.439 60.9289 183.734 60.9275H184.593V64.0538H184.197ZM183.195 61.8701C183.195 62.059 183.242 62.2108 183.336 62.3253C183.431 62.4384 183.563 62.4963 183.734 62.4992H184.197V61.2667H183.738C183.56 61.2667 183.425 61.3204 183.332 61.4278C183.241 61.5351 183.195 61.6826 183.195 61.8701Z" fill="white"/>
<path d="M120.406 39.8824L120.641 39.6479H131.711L131.945 39.8824V54.6578L131.711 54.8923H129.975L129.741 54.6578V42.3215L129.037 41.618H123.314L122.611 42.3215V54.6578L122.376 54.8923H120.641L120.406 54.6578V39.8824Z" fill="white"/>
<path d="M136.164 39.8824L136.398 39.6479H141.558C144.912 39.6479 147.163 41.6414 147.163 44.8076C147.163 47.9502 144.771 49.9672 141.3 49.9672H139.072L138.368 50.6708V54.6578L138.134 54.8923H136.398L136.164 54.6578V39.8824ZM138.368 42.2981V47.317L139.072 48.0206H141.276C143.669 48.0206 144.959 46.8949 144.959 44.8076C144.959 42.6499 143.762 41.5945 141.417 41.5945H139.072L138.368 42.2981Z" fill="white"/>
<path d="M150.455 39.8824L150.69 39.6479H152.402L152.636 39.8824V49.0056L153.926 49.4043L160.094 39.7652L160.282 39.6479H161.924L162.158 39.8824V54.6578L161.924 54.8923H160.212L159.977 54.6578V45.816L158.687 45.4173L152.636 54.7751L152.449 54.8923H150.69L150.455 54.6578V39.8824Z" fill="white"/>
<path d="M166.373 39.8824L166.608 39.6479H168.742L168.953 39.7652L172.658 46.3789H173.878L177.607 39.7652L177.818 39.6479H179.905L180.14 39.8824V54.6578L179.905 54.8923H178.24L178.006 54.6578V45.5346L176.692 45.1828L173.808 50.2017L173.597 50.319H172.799L172.588 50.2017L169.797 45.2297L168.484 45.5815V54.6578L168.249 54.8923H166.608L166.373 54.6578V39.8824Z" fill="white"/>
<path d="M183.578 39.9762L183.789 39.6479H185.877L186.111 39.7886L189.441 47.3874H190.731L193.663 39.7886L193.898 39.6479H195.868L196.079 39.9762L190.825 52.2421C189.957 54.2825 188.714 55.1972 187.12 55.1972C186.346 55.1972 185.759 55.1034 185.196 54.9158L185.056 54.6109L185.525 53.0864L185.83 52.9457C186.181 53.0864 186.604 53.1568 187.026 53.1568C187.823 53.1568 188.41 52.6643 188.738 51.82L188.855 51.5151V50.8584L183.578 39.9762Z" fill="white"/>
<path d="M209.874 41.4303L208.772 42.6968L208.443 42.7202C207.411 41.8056 206.239 41.3131 204.855 41.3131C201.994 41.3131 200.071 43.7053 200.071 47.2701C200.071 50.6942 201.876 53.2272 204.878 53.2272C206.333 53.2272 207.646 52.6643 208.795 51.562L209.123 51.5855L210.179 52.7816L210.155 53.1099C208.701 54.5171 206.942 55.1972 204.761 55.1972C200.587 55.1972 197.866 51.9842 197.866 47.2701C197.866 42.861 200.727 39.343 204.996 39.343C206.919 39.343 208.49 39.9059 209.85 41.102L209.874 41.4303Z" fill="white"/>
<path d="M84.8283 41.5427V41.4862C84.7967 40.6701 84.5601 39.8752 84.1409 39.1744C83.7214 38.4736 83.1328 37.8894 82.4288 37.4754L82.1314 26.0317H77.6496L77.3521 37.4754C76.6541 37.8842 76.0694 38.461 75.6507 39.1531C75.2323 39.8456 74.9933 40.6314 74.9558 41.4392C74.9522 41.4558 74.9522 41.4728 74.9558 41.4894V63.7687H84.835V41.8035C84.835 41.7636 84.835 41.7201 84.835 41.6767C84.835 41.6332 84.8319 41.583 84.8283 41.5427Z" fill="white"/>
<path d="M72.2799 30.6574L72.2499 29.0195H67.9048C67.9048 29.2905 67.8613 30.6574 67.8613 30.6574H72.2799Z" fill="white"/>
<path d="M75.0139 47.5623V47.5054C74.9819 46.6896 74.7456 45.8944 74.3261 45.1936C73.907 44.4928 73.318 43.9089 72.614 43.4949L72.3165 32.0513H67.8347L67.5471 43.5016C66.8491 43.9101 66.2637 44.4865 65.8453 45.179C65.4266 45.8711 65.1879 46.6572 65.1508 47.4655C65.1476 47.4821 65.1476 47.4991 65.1508 47.5156V63.7752H75.0305V47.8198C75.0305 47.7795 75.0305 47.7361 75.0305 47.6926C75.0305 47.6492 75.017 47.6026 75.0139 47.5623Z" fill="white"/>
<path d="M94.6855 47.5623V47.5054C94.6547 46.6892 94.4189 45.8936 93.9993 45.1928C93.5802 44.4916 92.9908 43.9077 92.2856 43.4949L91.9917 32.0513H87.5064L87.2089 43.4949C86.5113 43.9038 85.927 44.4809 85.5094 45.173C85.0915 45.8652 84.8529 46.6509 84.8161 47.4588C84.8126 47.4754 84.8126 47.4923 84.8161 47.5089V63.7689H94.6855V47.8198C94.6855 47.7795 94.6855 47.7361 94.6855 47.6926C94.6855 47.6492 94.6887 47.6026 94.6855 47.5623Z" fill="white"/>
<path d="M65.2639 52.2179L58.4893 48.896V63.7753H65.2639V52.2179Z" fill="white"/>
<path d="M58.7746 52.2179L52 48.896V63.7753H58.7746V52.2179Z" fill="white"/>
<path d="M94.5317 52.155L101.504 48.8962L111.651 58.1474V63.7756H94.1777L94.5317 52.155Z" fill="white"/>
<path d="M82.0998 24.6381L82.0666 23.0002H77.7215C77.7215 23.2708 77.6816 24.6381 77.6816 24.6381H82.0998Z" fill="white"/>
<path d="M91.9448 30.6576L91.9148 29.0198H87.6001C87.6001 29.2908 87.5566 30.6576 87.5566 30.6576H91.9448Z" fill="white"/>
<path d="M107.687 61.7468H104.455V58.4245C104.455 57.9966 104.625 57.5858 104.928 57.2832C105.231 56.9802 105.641 56.8103 106.07 56.8103C106.498 56.8103 106.909 56.9802 107.212 57.2828C107.515 57.5854 107.686 57.9962 107.687 58.4245V61.7468Z" fill="white"/>
</svg>
