<svg width="184" height="184" viewBox="0 0 184 184" fill="none" xmlns="http://www.w3.org/2000/svg">
<g clip-path="url(#clip0_201_24155)">
<path d="M151.222 80.8802C151.172 80.9298 151.123 80.9892 151.073 81.0388L96.9456 134.774L49.0567 87.223L99.4708 37.1646L103.184 33.4878C103.264 33.4085 103.343 33.3193 103.423 33.24C129.753 5.80751 158.938 2.54692 172.362 2.7154C176.834 2.77487 180.497 6.29313 180.656 10.7232C181.145 23.7952 178.451 52.1692 151.222 80.8802Z" fill="#EE3A23"/>
<path d="M183.471 4.24172L182.992 0.86221L179.578 0.436055C177.752 0.208111 134.634 -4.74718 104.431 25.2423C100.529 29.1173 95.2488 34.3996 89.4199 40.2271H52.1608L0 92.1982H46.5514L92.0948 137.42V184.01L144.425 132.217V92.3568C149.745 87.0249 154.566 82.2182 158.179 78.6207C189.24 47.769 183.721 6.01572 183.471 4.25163V4.24172ZM55.8937 49.1466H80.5268C66.1142 63.6161 51.1028 78.7396 46.6014 83.2787H21.6388L55.8937 49.1466ZM135.442 128.501L101.078 162.514V136.37L135.442 101.514V128.501ZM144.425 79.6811V79.6514L142.679 81.4254C126.988 97.1139 104.142 120.116 95.8277 128.501L54.8157 87.7781L94.3505 47.9771C100.728 41.5749 106.577 35.7376 110.789 31.5553C133.087 9.41505 164.367 8.6222 174.877 9.04836C175.416 19.2761 174.798 49.5034 151.831 72.3076C149.725 74.3988 147.21 76.9062 144.425 79.6811Z" fill="black"/>
<path d="M37.0395 142.267C37.5186 135.309 39.9939 121.048 51.7216 109.403L45.3737 103.1C26.27 122.069 27.9369 146.161 28.0167 147.182L28.3161 151.047L32.2087 151.285C32.3584 151.285 32.9673 151.325 33.9654 151.325C40.0937 151.325 60.7245 150.066 76.7041 134.209L70.3562 127.906C58.9079 139.274 44.1959 141.761 37.0495 142.276L37.0395 142.267Z" fill="black"/>
<path d="M123.455 59.632C119.113 55.3209 119.113 48.3042 123.455 43.9931L117.107 37.6899C109.262 45.4797 109.262 58.1553 117.107 65.9351C121.03 69.83 126.18 71.7725 131.33 71.7725C136.48 71.7725 141.631 69.8201 145.553 65.9351L139.205 59.632C134.863 63.9431 127.797 63.9431 123.455 59.632Z" fill="black"/>
</g>
<defs>
<clipPath id="clip0_201_24155">
<rect width="184" height="184" fill="white"/>
</clipPath>
</defs>
</svg>
