<svg width="263" height="87" viewBox="0 0 263 87" fill="none" xmlns="http://www.w3.org/2000/svg">
<g clip-path="url(#clip0_76_4076)">
<path fill-rule="evenodd" clip-rule="evenodd" d="M99.3383 35.049C97.4049 34.8543 95.4559 35.2369 93.7591 36.1443C92.0624 37.0517 90.7012 38.4393 89.8627 40.1164C89.0242 41.7936 88.7495 43.6778 89.0764 45.5103C89.4033 47.3427 90.3157 49.0334 91.6883 50.3499C93.0608 51.6663 94.8261 52.544 96.7415 52.8623C98.6569 53.1805 100.628 52.9237 102.385 52.1271C104.142 51.3305 105.597 50.0333 106.551 48.4137C107.505 46.7941 107.912 44.9317 107.714 43.0824C107.496 41.0268 106.545 39.1057 105.019 37.6425C103.494 36.1793 101.487 35.2634 99.3383 35.049ZM99.0334 48.759C97.9935 48.8923 96.9361 48.7108 96.0097 48.2399C95.0834 47.769 94.3346 47.0323 93.8687 46.1335C93.4028 45.2347 93.2431 44.2188 93.4122 43.2288C93.5812 42.2387 94.0705 41.3241 94.8112 40.6137C95.5519 39.9032 96.5068 39.4325 97.5417 39.2678C98.5766 39.103 99.6395 39.2525 100.581 39.6952C101.522 40.1379 102.295 40.8516 102.791 41.7359C103.286 42.6202 103.479 43.6307 103.343 44.6254C103.2 45.6716 102.7 46.6436 101.921 47.3909C101.142 48.1381 100.127 48.619 99.0334 48.759ZM112.747 35.405C112.421 35.4057 112.099 35.476 111.804 35.6108C111.51 35.7456 111.251 35.9414 111.045 36.184C110.84 36.4266 110.694 36.71 110.618 37.0134C110.541 37.3168 110.537 37.6327 110.604 37.938C110.81 38.9272 111.777 39.6031 112.829 39.6031H118.938L109.432 51.6328C109.361 51.7216 109.318 51.8274 109.307 51.9383C109.296 52.0492 109.318 52.1608 109.369 52.2606C109.421 52.3605 109.501 52.4446 109.6 52.5035C109.699 52.5625 109.813 52.5939 109.929 52.5943H124.841C125.893 52.5943 126.86 51.9186 127.067 50.9292C127.134 50.6239 127.13 50.3081 127.053 50.0047C126.977 49.7013 126.831 49.418 126.626 49.1754C126.421 48.9327 126.162 48.7369 125.867 48.602C125.573 48.4672 125.251 48.3967 124.925 48.3959H117.482L126.981 36.3755C127.052 36.2858 127.096 36.179 127.107 36.0671C127.118 35.9551 127.096 35.8424 127.044 35.7416C126.991 35.6408 126.911 35.5559 126.811 35.4965C126.711 35.437 126.596 35.4053 126.478 35.405H112.747ZM172.336 35.4534C171.842 35.5657 171.403 35.8357 171.092 36.2188C170.78 36.6019 170.615 37.0751 170.623 37.5603V44.5501L158.778 35.537C158.685 35.4665 158.573 35.4225 158.455 35.4101C158.337 35.3976 158.218 35.4173 158.112 35.4667C158.005 35.5162 157.915 35.5935 157.852 35.6896C157.789 35.7858 157.756 35.897 157.756 36.0104V50.4428C157.748 50.9279 157.914 51.4012 158.225 51.7843C158.537 52.1674 158.975 52.4374 159.469 52.5497C159.79 52.6171 160.122 52.6149 160.442 52.5431C160.761 52.4714 161.06 52.332 161.316 52.1351C161.571 51.9383 161.778 51.6891 161.919 51.4059C162.061 51.1227 162.134 50.8127 162.133 50.4988V43.4486L173.979 52.4618C174.072 52.5323 174.183 52.5763 174.301 52.5887C174.419 52.6011 174.538 52.5814 174.645 52.532C174.751 52.4826 174.841 52.4054 174.904 52.3092C174.967 52.2131 175 52.102 175 51.9886V37.5036C175 37.1898 174.927 36.8799 174.785 36.5968C174.644 36.3137 174.438 36.0646 174.182 35.8678C173.926 35.6711 173.628 35.5317 173.308 35.46C172.989 35.3882 172.656 35.386 172.336 35.4534ZM141.494 39.2013C146.505 39.2013 150.248 41.733 150.248 43.9975C150.248 46.2621 146.505 48.7938 141.494 48.7938C136.484 48.7938 132.741 46.2621 132.741 43.9975C132.741 41.733 136.484 39.2013 141.494 39.2013ZM141.494 35.0033C134.242 35.0033 128.364 39.0302 128.364 43.9975C128.364 48.9649 134.242 52.9918 141.494 52.9918C148.746 52.9918 154.625 48.9649 154.625 43.9975C154.625 39.0302 148.746 35.0033 141.494 35.0033Z" fill="white"/>
</g>
<defs>
<clipPath id="clip0_76_4076">
<rect width="86" height="18" fill="white" transform="translate(89 35)"/>
</clipPath>
</defs>
</svg>
