<svg width="100" height="100" viewBox="0 0 100 100" fill="none" xmlns="http://www.w3.org/2000/svg">
<g clip-path="url(#clip0_1051_6035)">
<path d="M50.4987 38.5288H32.0088V85.6603H50.4987V38.5288Z" fill="#EE3A23"/>
<path d="M76.2135 12.9032H57.7236V85.6603H76.2135V12.9032Z" fill="#EE3A23"/>
<path d="M17.552 7.35172V81.0475H96.2437V86.1908H12.3838V7.35172H17.552Z" fill="#312D2D"/>
<path d="M100.001 83.6192L85.2474 97.9963L81.6309 94.3215L92.6136 83.6187L81.6309 72.9163L85.2474 69.2421L100.001 83.6192Z" fill="#312D2D"/>
<path d="M29.4018 17.3569L25.7478 20.9944L14.9675 10.2719L4.18718 20.9944L0.533203 17.3569L14.9675 3L29.4018 17.3569Z" fill="#312D2D"/>
<path d="M22.6622 94.8703C11.6855 94.8703 2.75488 85.9838 2.75488 75.0612C2.75488 64.1386 11.6855 55.252 22.6622 55.252C33.6389 55.252 42.5695 64.1386 42.5695 75.0612C42.5695 85.9838 33.6389 94.8703 22.6622 94.8703Z" fill="white"/>
<path d="M22.6621 57.9933C32.1202 57.9933 39.8146 65.6497 39.8146 75.0612C39.8146 84.4726 32.1202 92.129 22.6621 92.129C13.204 92.129 5.50967 84.4726 5.50967 75.0612C5.50967 65.6497 13.204 57.9933 22.6621 57.9933ZM22.6621 52.5108C10.1455 52.5108 0 62.6062 0 75.0612C0 87.5161 10.1455 97.6115 22.6621 97.6115C35.1788 97.6115 45.3242 87.5161 45.3242 75.0612C45.3242 62.6062 35.1788 52.5108 22.6621 52.5108Z" fill="#312D2D"/>
<path d="M25.9712 75.1778L27.9694 85.7293H17.4137L19.4065 75.1778C17.808 74.1227 16.7529 72.3199 16.7529 70.268C16.7529 67.023 19.4012 64.3931 22.6622 64.3931C25.9233 64.3931 28.5662 67.023 28.5662 70.268C28.5662 72.304 27.5272 74.0962 25.9499 75.1566L25.9712 75.1778Z" fill="#312D2D"/>
</g>
<defs>
<clipPath id="clip0_1051_6035">
<rect width="100" height="100" fill="white"/>
</clipPath>
</defs>
</svg>
