<svg width="100" height="100" viewBox="0 0 100 100" fill="none" xmlns="http://www.w3.org/2000/svg">
<path d="M15.8133 74.0085L24.3757 81.3024L32.934 74.0085H46.5734V100H41.2144V79.3676H34.908L24.3768 88.3435L13.8397 79.3676H7.53289V100H2.17383V74.0085H15.8133Z" fill="#312D2D"/>
<path d="M24.3761 70.6698C29.5112 70.6698 33.6741 66.507 33.6741 61.3719C33.6741 56.2368 29.5112 52.0739 24.3761 52.0739C19.241 52.0739 15.0781 56.2368 15.0781 61.3719C15.0781 66.507 19.241 70.6698 24.3761 70.6698Z" fill="#EE3A23"/>
<path d="M30.9954 61.3717C30.9953 57.7165 28.0319 54.7535 24.3767 54.7535C20.7216 54.7536 17.7586 57.7166 17.7585 61.3717C17.7585 65.0269 20.7215 67.9903 24.3767 67.9904C28.032 67.9904 30.9954 65.027 30.9954 61.3717ZM36.3545 61.3717C36.3545 67.9867 30.9917 73.3495 24.3767 73.3495C17.7618 73.3494 12.3994 67.9866 12.3994 61.3717C12.3995 54.7569 17.7619 49.3945 24.3767 49.3944C30.9916 49.3944 36.3544 54.7568 36.3545 61.3717Z" fill="#312D2D"/>
<path d="M41.5203 30.4769L50.0827 37.7708L58.641 30.4769H72.2804V53.569H66.9214V35.836H60.6151L50.0838 44.8119L39.5468 35.836H33.2399V53.569H27.8809V30.4769H41.5203Z" fill="#312D2D"/>
<path d="M50.0841 27.1383C55.2192 27.1383 59.3821 22.9754 59.3821 17.8403C59.3821 12.7052 55.2192 8.54236 50.0841 8.54236C44.949 8.54236 40.7861 12.7052 40.7861 17.8403C40.7861 22.9754 44.949 27.1383 50.0841 27.1383Z" fill="#EE3A23"/>
<path d="M56.7025 17.8401C56.7024 14.185 53.7389 11.2219 50.0837 11.2219C46.4286 11.222 43.4656 14.185 43.4655 17.8401C43.4655 21.4953 46.4286 24.4588 50.0837 24.4589C53.739 24.4589 56.7025 21.4954 56.7025 17.8401ZM62.0615 17.8401C62.0615 24.4551 56.6987 29.8179 50.0837 29.8179C43.4688 29.8178 38.1064 24.4551 38.1064 17.8401C38.1066 11.2253 43.4689 5.86297 50.0837 5.86285C56.6986 5.86285 62.0614 11.2252 62.0615 17.8401Z" fill="#312D2D"/>
<path d="M67.0301 74.0085L75.5925 81.3024L84.1508 74.0085H97.7902V100H92.4311V79.3676H86.1248L75.5936 88.3435L65.0565 79.3676H58.7497V100H53.3906V74.0085H67.0301Z" fill="#312D2D"/>
<path d="M75.5929 70.6698C80.728 70.6698 84.8909 66.507 84.8909 61.3719C84.8909 56.2368 80.728 52.0739 75.5929 52.0739C70.4578 52.0739 66.2949 56.2368 66.2949 61.3719C66.2949 66.507 70.4578 70.6698 75.5929 70.6698Z" fill="#EE3A23"/>
<path d="M82.2113 61.3717C82.2112 57.7165 79.2477 54.7535 75.5925 54.7535C71.9374 54.7536 68.9744 57.7166 68.9743 61.3717C68.9743 65.0269 71.9374 67.9903 75.5925 67.9904C79.2478 67.9904 82.2113 65.0269 82.2113 61.3717ZM87.5703 61.3717C87.5703 67.9867 82.2075 73.3495 75.5925 73.3495C68.9776 73.3494 63.6152 67.9866 63.6152 61.3717C63.6153 54.7569 68.9777 49.3945 75.5925 49.3944C82.2074 49.3944 87.5702 54.7568 87.5703 61.3717Z" fill="#312D2D"/>
<path d="M55.0946 57.5294L50.0678 65.2143L45.0518 57.5294L50.0678 38.6012L50.0732 38.5905L50.0786 38.6012L55.0946 57.5294Z" fill="#312D2D"/>
<path d="M50.0787 44.4323L50.0732 44.4214L50.0787 44.4105V44.4323Z" fill="#312D2D"/>
<path d="M50.0841 53.1565V53.1837L50.0732 53.1674L50.0841 53.1565Z" fill="#312D2D"/>
<path d="M50.0728 44.4214L50.0674 44.4323V44.4105L50.0728 44.4214Z" fill="#312D2D"/>
<path d="M50.0674 53.1565L50.0728 53.1674L50.0674 53.1837V53.1565Z" fill="#312D2D"/>
<path d="M38.6523 5.81994L50.1046 10.7128L61.5087 5.81994L50.1046 0L38.6523 5.81994Z" fill="#312D2D"/>
</svg>
