<svg width="100" height="100" viewBox="0 0 100 100" fill="none" xmlns="http://www.w3.org/2000/svg">
<path d="M88 25V67H79.4971V61.5155H82.4609V30.4845H18.5391V34.2411H13V25H88Z" fill="#312D2D"/>
<path d="M100 10V52H91.5024V46.5155H94.4604V15.4845H30.5396V19.2357H25V10H100Z" fill="#312D2D"/>
<path d="M66 58H0V90H66V58Z" fill="#EE3A23"/>
<path d="M69.454 46.4108V73.5892H9.54601V46.4108H69.454ZM75 41H4V79H75V41Z" fill="#312D2D"/>
<path d="M41.8558 66.8424H37.37V70H33.8577V66.8424H31V64.0381H33.8577V62.5799H31V59.7757H33.8577V50H41.6224C43.8596 50 45.6528 50.5777 46.9905 51.7274C48.3283 52.8772 49 54.4083 49 56.3096C49 58.2109 48.3624 59.7757 47.093 60.8805C45.8178 61.9854 44.0474 62.5519 41.7818 62.5799H37.3757V64.0381H41.8615V66.8424H41.8558ZM37.37 59.7813H41.5655C42.8292 59.7813 43.797 59.4952 44.463 58.9176C45.129 58.3399 45.4649 57.4818 45.4649 56.3376C45.4649 55.3113 45.1347 54.4756 44.4801 53.825C43.8254 53.1744 42.9203 52.8379 41.7704 52.8099H37.3643V59.7869L37.37 59.7813Z" fill="#312D2D"/>
</svg>
