<svg width="345" height="222" viewBox="0 0 345 222" fill="none" xmlns="http://www.w3.org/2000/svg">
<rect opacity="0.1" width="345" height="222" fill="#312D2D"/>
<path d="M123.568 118.812C123.522 118.798 123.262 118.529 123.233 118.46C124.059 113.444 124.701 108.266 125.679 103.257C125.916 102.036 125.705 101.156 127.018 101.039C128.144 100.939 130.725 100.894 131.808 101.039C131.989 101.063 132.177 101.025 132.302 101.211L133.942 111.399L139.703 101.049H145.464C145.533 101.049 145.76 101.412 145.786 101.543L142.87 118.598C142.827 118.646 142.534 118.816 142.501 118.816H137.645L138.794 110.536L134.768 118.129C134.33 119.071 131.39 119.016 130.88 118.571C130.663 118.381 130.554 118.067 130.475 117.787C129.836 115.518 129.79 112.396 129.412 110.015C129.083 110.081 129.142 110.381 129.083 110.619C128.529 112.896 128.513 115.828 127.891 117.994C127.832 118.205 127.506 118.812 127.354 118.812C126.538 118.812 124.144 118.985 123.568 118.812Z" fill="#312D2D"/>
<path d="M103.652 124.332C103.553 124.301 103.359 123.973 103.329 123.838L107.118 101.401C107.319 101.122 107.628 101.08 107.931 101.046C108.649 100.96 111.233 100.925 111.878 101.053C112.082 101.094 112.29 101.194 112.385 101.398C112.537 101.712 112.046 102.626 112.537 102.429C112.764 102.34 113.241 101.825 113.603 101.65C116.293 100.332 119.783 100.587 121.675 103.209C123.99 106.414 122.433 113.303 120.033 116.149C117.685 118.936 112.481 120.671 109.906 117.439C109.719 117.56 109.722 117.698 109.676 117.888C109.241 119.557 109.281 122.1 108.764 123.659C108.685 123.894 108.287 124.339 108.096 124.339C107.22 124.339 104.218 124.521 103.652 124.339V124.332ZM116.517 105.417C115.48 104.361 113.356 104.985 112.458 105.962C110.588 108.001 109.225 115.307 113.511 115.173C116.757 115.069 118.591 107.528 116.517 105.417Z" fill="#312D2D"/>
<path d="M70.7706 94.1877C71.6101 94.0118 75.6 94.0153 76.4823 94.1567C77.0847 94.2533 77.4271 94.6673 77.5061 95.2882C76.0675 103.526 74.8494 111.816 73.3944 120.051C73.1935 121.179 72.8578 124.235 72.3705 125.015C72.1039 125.442 71.7055 125.656 71.2282 125.715C70.2538 125.836 66.3494 125.881 65.4671 125.708C64.8186 125.58 64.6079 124.863 64.7231 124.252C66.2342 115.956 67.4028 107.59 68.8909 99.2899C69.1509 97.8376 69.2299 94.512 70.7706 94.1877Z" fill="#312D2D"/>
<path d="M242.905 101.046C242.984 101.073 243.099 101.236 243.129 101.332L241.67 110.878L248.333 101.046H253.601C253.624 101.046 253.904 101.322 253.936 101.398L251.204 118.198C251.211 118.381 250.904 118.812 250.802 118.812H246.029C245.93 118.812 245.627 118.308 245.703 118.105L247.017 109.322L240.597 118.812H235.165C234.852 118.591 234.899 118.222 234.915 117.87C235.149 112.899 237.21 106.952 237.595 101.867C237.598 101.656 238.016 101.046 238.128 101.046H242.905Z" fill="#312D2D"/>
<path d="M288.664 101.046C288.71 101.06 288.97 101.329 289 101.398C288.174 106.414 287.535 111.592 286.554 116.601C286.475 117.008 286.274 118.384 286.073 118.598C285.619 119.088 281.978 118.664 281.119 118.816L280.763 117.601C277.155 120.585 270.937 119.209 270.479 113.889C270.13 109.85 271.486 104.734 274.801 102.381C276.714 101.022 279.786 100.283 281.945 101.356C282.238 101.501 283.351 102.546 283.479 102.422C283.433 102.001 283.779 101.042 284.22 101.042C285.158 101.042 288.006 100.846 288.664 101.042V101.046ZM279.493 104.872C275.552 105.43 273.791 116.946 279.486 114.883C281.916 114.003 282.788 109.549 282.482 107.183C282.281 105.631 280.971 104.661 279.496 104.872H279.493Z" fill="#312D2D"/>
<path d="M104.475 101.046C104.619 101.094 104.87 101.57 104.837 101.784C103.721 106.883 103.362 112.409 102.206 117.467C102.144 117.743 102.038 118.44 101.887 118.602C101.433 119.092 97.7917 118.667 96.9324 118.819L96.5769 117.605C92.9688 120.589 86.7502 119.212 86.2926 113.893C85.9502 109.915 87.2736 104.806 90.5163 102.453C92.452 101.049 95.5498 100.259 97.7588 101.36C98.0518 101.505 99.1645 102.55 99.2928 102.426C99.2468 102.005 99.5924 101.046 100.034 101.046H104.478H104.475ZM95.3029 104.872C91.3623 105.43 89.6011 116.946 95.2963 114.883C97.7258 114.003 98.5982 109.549 98.2921 107.183C98.0913 105.631 96.781 104.661 95.3062 104.872H95.3029Z" fill="#312D2D"/>
<path d="M164.39 101.046C164.567 101.098 164.867 101.556 164.795 101.794C163.593 106.928 163.369 112.751 162.125 117.815C161.977 118.422 161.931 118.726 161.272 118.819C160.614 118.912 157.759 118.926 157.154 118.805C156.884 118.75 156.696 118.619 156.597 118.346L156.657 117.432C152.812 120.744 146.646 119.229 146.208 113.548C146.03 111.247 146.626 108.256 147.544 106.158C149.5 101.701 155.274 98.9312 159.205 102.426C159.284 102.032 159.488 101.046 159.949 101.046C160.884 101.046 163.735 100.849 164.393 101.046H164.39ZM155.215 104.879C151.264 105.479 149.539 117.087 155.346 114.855C157.783 113.92 158.507 109.346 158.204 107.014C158.01 105.513 156.594 104.672 155.215 104.879Z" fill="#312D2D"/>
<path d="M222.412 111.223C221.846 115.107 224.904 116.918 227.515 113.896C228.094 113.227 227.659 112.961 228.933 112.796C229.463 112.727 232.91 112.737 233.108 112.954C232.861 115.583 230.23 117.874 227.933 118.646C225.427 119.492 221.088 119.533 218.952 117.694C215.485 114.717 217.372 106.293 220.269 103.371C223.831 99.7763 233.526 99.3348 234.247 105.81C234.329 106.548 234.388 111.226 233.523 111.226H222.412V111.223ZM228.996 107.428C228.815 103.264 224.232 104.209 223.235 107.428H228.996Z" fill="#312D2D"/>
<path d="M210.396 105.531H206.199C205.915 105.779 205.909 106.183 205.836 106.531C205.043 110.364 204.661 114.317 203.937 118.167C203.904 118.326 203.446 118.812 203.4 118.812H198.627L198.4 118.526L201.274 101.405C201.336 101.308 201.537 101.046 201.59 101.046H216.404C216.624 101.046 216.73 101.736 216.634 101.97C215.36 106.959 215.278 112.927 213.971 117.815C213.909 118.05 213.675 118.812 213.441 118.812H208.668L208.447 118.526L210.396 105.531Z" fill="#312D2D"/>
<path d="M190.917 100.766C197.152 100.766 198.834 104.813 197.639 110.709C196.698 115.362 193.998 118.774 189.248 119.164C182.015 119.757 179.51 115.887 181.238 108.701C182.476 103.554 185.788 100.77 190.917 100.766ZM189.781 104.879C186.677 105.351 184.781 112.954 187.362 114.752C189.508 116.245 191.526 113.375 192.132 111.488C192.823 109.346 193.073 104.378 189.781 104.879Z" fill="#312D2D"/>
<path d="M172.126 101.046L172.347 101.332L171.642 107.431L172.995 107.39L177.354 101.353C177.703 101.122 177.969 101.077 178.371 101.039C179.089 100.967 181.363 100.925 181.999 101.049C182.963 101.239 182.012 102.36 181.722 102.829C181.12 103.802 176.998 109.122 176.985 109.587L180.024 117.608C180.29 118.508 180.073 118.888 179.201 118.995C178.374 119.095 175.695 119.116 175.079 118.65C174.17 117.967 173.012 113.01 172.284 111.747L170.875 111.65L169.693 118.174C169.66 118.333 169.203 118.819 169.157 118.819H164.301L164.149 118.067C165.16 113.117 165.67 108.042 166.655 103.092C166.793 102.398 166.806 101.515 167.343 101.053H172.116L172.126 101.046Z" fill="#312D2D"/>
<path d="M261.505 101.046C261.643 101.087 261.87 101.401 261.874 101.608C261.893 102.422 260.728 107.217 260.929 107.428L262.489 107.252C263.164 106.414 266.571 101.046 267.266 101.046H271.792L271.605 102.143L266.397 109.436L269.541 117.991C269.682 118.791 269.024 118.933 268.425 118.991C267.602 119.071 265.06 119.112 264.461 118.643C263.46 117.856 262.539 112.761 261.475 111.595C261.067 111.568 260.303 111.385 260.132 111.857C259.73 113.71 259.625 115.783 259.2 117.608C259.115 117.974 259.003 118.809 258.535 118.809H253.927C253.818 118.809 253.423 118.298 253.548 118.084C254.733 112.958 255.029 107.328 256.228 102.243C256.313 101.877 256.425 101.042 256.893 101.042C257.877 101.042 260.797 100.839 261.502 101.042L261.505 101.046Z" fill="#312D2D"/>
<path d="M65.8753 100.701L62.9125 119.157C60.5422 119.036 57.214 120.03 57 116.511L59.2847 103.195C59.8542 101.991 61.1546 100.701 62.501 100.701H65.8753Z" fill="#312D2D"/>
<path d="M76.2453 119.157L79.3958 100.725C81.5389 100.749 84.9165 100.063 85.1469 103.202L82.9512 116.611C82.6252 117.612 81.1372 119.157 80.1134 119.157H76.2453Z" fill="#312D2D"/>
<path d="M251 93.3391C251.444 93.7427 252.679 95.6332 252.504 96.2645C252.096 97.7341 247.784 98.7311 246.496 98.738C245.14 98.7483 240.828 97.7962 240.383 96.2645C240.14 95.4297 241.772 93.1183 242.483 93.0045C242.967 92.9286 244.12 93.8393 244.801 94.0498C245.91 94.3913 246.829 94.4534 247.958 94.0946C248.985 93.7703 250.012 92.4387 250.997 93.3357L251 93.3391Z" fill="#312D2D"/>
<path d="M243.316 124.159L244.61 124.183L245.785 127.609C246.365 127.357 247.099 124.311 247.287 124.183L248.58 124.159V128.816H247.593V125.712L246.424 128.54C246.213 128.934 245.69 128.947 245.466 128.54L244.297 125.712V128.816H243.31V124.159H243.316Z" fill="#312D2D"/>
<path d="M285.208 124.159C286.383 124.377 286.847 126.029 285.454 126.315C285.622 126.695 286.511 126.581 286.557 127.55C286.584 128.109 286.047 128.816 285.537 128.816H282.656V124.159C283.433 124.259 284.473 124.021 285.208 124.159ZM283.644 126.057C285.925 126.412 285.922 124.663 283.644 125.018V126.057ZM283.644 128.126C286.294 128.513 286.287 126.339 283.644 126.747V128.126Z" fill="#312D2D"/>
<path d="M268.5 124.159V127.264C269.169 126.816 269.975 124.273 270.558 124.159C270.838 124.104 271.174 124.187 271.463 124.159V128.816H270.476V125.712C269.837 126.015 268.948 128.589 268.632 128.778C268.392 128.923 267.822 128.761 267.513 128.816V124.159H268.5Z" fill="#312D2D"/>
<path d="M218.955 126.747H215.663C215.673 127.723 216.427 128.399 217.359 128.092C217.586 128.016 218.557 127.012 218.787 127.864C217.655 129.841 214.741 129.044 214.669 126.653C214.56 123.242 219.182 123.231 218.955 126.747ZM217.968 126.057C217.8 124.442 215.92 124.459 215.663 126.057H217.968Z" fill="#312D2D"/>
<path d="M185.212 126.747C185.255 127.761 185.745 128.326 186.772 128.126C187.144 128.054 187.21 127.688 187.757 127.599C188.909 127.412 188.086 128.385 187.608 128.651C186.015 129.537 184.257 128.599 184.214 126.66C184.135 123.19 188.84 123.286 188.343 126.747H185.212ZM187.516 126.057C187.25 124.408 185.498 124.48 185.212 126.057H187.516Z" fill="#312D2D"/>
<path d="M278.824 124.201C282.745 123.355 282.508 129.461 279.157 128.951C276.816 128.596 276.836 124.628 278.824 124.201ZM279.321 124.877C277.975 125.146 278.021 128.437 279.766 128.13C281.142 127.885 281.02 124.539 279.321 124.877Z" fill="#312D2D"/>
<path d="M272.616 124.159H273.603L273.699 126.06L275.414 126.057V124.159H276.401V128.816H275.414L275.318 126.916L273.603 126.919V128.816H272.616V124.159Z" fill="#312D2D"/>
<path d="M253.357 128.816L252.544 128.799C252.587 127.754 252.096 128.637 251.642 128.83C250.398 129.358 249.074 128.261 249.657 126.922C250.17 125.739 252.952 126.567 252.29 125.194C251.78 124.132 250.483 125.701 249.736 125.367C249.891 123.697 253.357 123.845 253.357 125.108V128.816ZM252.369 126.574C251.79 126.802 250.743 126.657 250.552 127.354C250.302 128.872 253.015 128.375 252.369 126.574Z" fill="#312D2D"/>
<path d="M261.916 128.816L261.103 128.799C261.146 127.754 260.656 128.637 260.201 128.83C258.957 129.358 257.633 128.261 258.216 126.922C258.73 125.739 261.511 126.567 260.85 125.194C260.339 124.132 259.042 125.701 258.295 125.367C258.45 123.697 261.916 123.845 261.916 125.108V128.816ZM260.929 126.574C260.349 126.802 259.302 126.657 259.112 127.354C258.861 128.872 261.574 128.375 260.929 126.574Z" fill="#312D2D"/>
<path d="M204.47 128.816L203.657 128.799C203.697 127.685 203.117 128.761 202.67 128.913C201.435 129.33 200.154 128.182 200.869 126.853C201.395 125.874 203.285 126.357 203.473 125.781L203.404 125.194C202.498 124.156 201.883 125.677 200.849 125.367C201.004 123.697 204.47 123.845 204.47 125.108V128.816ZM203.275 126.605C202.465 126.867 201.307 126.709 201.748 127.961C202.696 128.72 203.98 127.764 203.486 126.653L203.275 126.605Z" fill="#312D2D"/>
<path d="M224.881 124.159H225.704V126.057L227.584 126.06L227.679 124.159H228.667V128.816H227.679V126.919L225.859 126.995L225.704 128.816H224.881V124.159Z" fill="#312D2D"/>
<path d="M209.573 124.159V128.816H208.585V125.022H206.61V128.816H205.787V124.159H209.573Z" fill="#312D2D"/>
<path d="M229.819 124.159H230.807V125.712C232.341 125.539 234.102 125.932 233.509 127.947C233.417 128.257 232.779 128.816 232.535 128.816H229.819V124.159ZM232.578 126.788L230.807 126.571V127.95C231.794 127.957 233.088 128.244 232.578 126.784V126.788Z" fill="#312D2D"/>
<path d="M193.936 124.159H194.923V125.712C196.395 125.415 198.449 126.184 197.6 128.085C197.501 128.309 196.783 128.816 196.652 128.816H193.936V124.159ZM196.694 126.788C196.355 126.443 195.388 126.609 194.923 126.574V127.954C195.654 128.254 197.61 127.712 196.694 126.788Z" fill="#312D2D"/>
<path d="M183.401 125.712C182.282 126.008 182.493 125.353 182.015 125.008C180.349 123.818 179.53 128.599 181.801 128.095C182.46 127.95 182.466 126.957 183.401 127.264C183.263 128.913 181.521 129.406 180.284 128.547C179.178 127.781 179.148 125.756 179.945 124.759C180.853 123.624 183.398 123.938 183.401 125.708V125.712Z" fill="#312D2D"/>
<path d="M237.358 124.197C237.512 124.29 238.158 126.039 238.375 125.884C238.829 124.973 238.954 123.852 240.186 124.159L238.921 126.488L240.186 128.813C238.819 129.217 239.033 127.737 238.131 127.261C237.641 128.13 237.605 129.127 236.403 128.813C236.196 128.627 237.545 126.926 237.545 126.484C237.545 126.043 236.199 124.342 236.403 124.156C236.676 124.197 237.137 124.059 237.358 124.19V124.197Z" fill="#312D2D"/>
<path d="M265.702 126.571C266.285 126.515 266.522 126.981 266.535 127.526C266.588 129.375 263.111 129.496 262.904 127.605C264.017 127.312 264.04 128.52 265.268 128.095C266.101 127.14 265.096 126.712 264.218 126.653V126.05C266.081 126.412 265.781 124.283 264.254 124.96C264.004 125.07 263.892 125.656 263.069 125.356C263.092 124.121 264.543 124.001 265.445 124.159C266.588 124.363 266.917 125.891 265.702 126.222V126.571Z" fill="#312D2D"/>
<path d="M223.564 128.816H222.741V127.436C220.216 127.737 219.683 126.622 219.94 124.159H220.766C220.647 125.698 220.756 127.019 222.586 126.498L222.741 124.159H223.564V128.816Z" fill="#312D2D"/>
<path d="M214.182 124.159V125.022H212.7V128.816H211.713V125.022H210.231V124.159H214.182Z" fill="#312D2D"/>
<path d="M192.948 124.159V125.022H191.467V128.816H190.479V125.022H188.998V124.159H192.948Z" fill="#312D2D"/>
<path d="M257.472 124.159V125.022H255.497V128.816H254.674V124.159H257.472Z" fill="#312D2D"/>
<path d="M235.251 124.159H234.263V128.816H235.251V124.159Z" fill="#312D2D"/>
<path d="M283.644 126.747V128.126C286.294 128.513 286.287 126.343 283.644 126.747Z" fill="#312D2D"/>
<path d="M215.663 126.057H217.968C217.8 124.442 215.92 124.459 215.663 126.057Z" fill="#312D2D"/>
</svg>
