<svg width="60" height="61" viewBox="0 0 60 61" fill="none" xmlns="http://www.w3.org/2000/svg">
<path d="M57.5311 28.5435L30.7949 55.3665L10.2744 34.7794L25.8541 19.1492L35.5766 28.9032L39.7373 24.7265L30.0173 14.975L37.0106 7.95898L57.5311 28.5435Z" fill="#EE3A23"/>
<path d="M60.0003 27.8568L37.3692 5.15479L30.2723 12.2747L23.2361 5.21811L0.857422 27.6694L4.02588 30.8481L5.81082 29.0574L4.4273 27.6694L23.2361 8.79957L29.9946 15.58L37.3212 22.9304C37.7756 23.3863 38.0281 23.9942 38.0281 24.6426C38.0281 25.291 37.7782 25.8964 37.3212 26.3548C36.8642 26.8133 36.2608 27.064 35.6145 27.064C34.9682 27.064 34.3648 26.8133 33.9078 26.3548L25.1447 17.5633L24.8771 17.8318L24.8064 17.7608L24.1828 18.3864L10.8955 31.7169C9.9639 32.6515 9.44886 33.8977 9.44886 35.2198C9.44886 36.542 9.9639 37.7856 10.8955 38.7228C11.8271 39.6599 13.0692 40.1741 14.3871 40.1741C14.4805 40.1741 14.5714 40.1665 14.6623 40.1615C14.5866 41.5191 15.0612 42.902 16.0938 43.9379C17.0557 44.903 18.3205 45.3867 19.5854 45.3867C19.6763 45.3867 19.7697 45.3791 19.8606 45.3741C19.7849 46.7342 20.2595 48.1172 21.2921 49.1531C22.254 50.1181 23.5188 50.6019 24.7837 50.6019C24.8746 50.6019 24.9655 50.5943 25.0564 50.5892C25.0513 50.6804 25.0437 50.7716 25.0437 50.8653C25.0437 52.1875 25.5562 53.4336 26.4904 54.3683C27.4245 55.3029 28.6944 55.8475 30.0199 55.8475C30.035 55.8475 30.0502 55.8475 30.0653 55.8475C31.4236 55.8348 32.7187 55.2598 33.721 54.2264L60.0003 27.8619V27.8568ZM31.9184 52.4484C31.3806 53.0056 30.7318 53.3045 30.0401 53.3121C29.3735 53.3171 28.7525 53.0562 28.2728 52.5725C27.8183 52.1166 27.5659 51.5087 27.5659 50.8603C27.5659 50.2118 27.8158 49.6065 28.2703 49.1506L36.9576 40.435L35.1727 38.6443L26.4853 47.3598C25.5436 48.3046 24.0137 48.3046 23.072 47.3598C22.1303 46.4151 22.1303 44.8802 23.072 43.9354L31.8427 35.1363L30.0577 33.3455L21.287 42.1447C20.3479 43.0894 18.8154 43.0894 17.8737 42.1447C16.932 41.1999 16.932 39.665 17.8737 38.7203L26.1016 30.4657L24.3166 28.6749L16.0887 36.9295C15.6343 37.3854 15.0284 37.6387 14.3821 37.6387C13.7358 37.6387 13.1324 37.388 12.6754 36.9295C12.2184 36.4711 11.9685 35.8657 11.9685 35.2173C11.9685 34.5689 12.221 33.9635 12.6754 33.5051L12.8698 33.3101L25.069 21.0713L32.1179 28.143C33.0495 29.0777 34.2916 29.5944 35.6095 29.5944C36.9273 29.5944 38.167 29.0802 39.1011 28.143C40.0352 27.2059 40.5477 25.9622 40.5477 24.6401C40.5477 23.3179 40.0352 22.0743 39.1011 21.1371L32.0749 14.0882L32.0547 14.0679L37.3666 8.73878L56.4254 27.8593L31.931 52.4332L32.8248 53.3298L31.9159 52.4509L31.9184 52.4484Z" fill="#312D2D"/>
</svg>
