<svg width="345" height="222" viewBox="0 0 345 222" fill="none" xmlns="http://www.w3.org/2000/svg">
<rect opacity="0.1" width="345" height="222" fill="#312D2D"/>
<path d="M158.297 137.039V132.848H159.492C159.873 132.848 160.16 132.941 160.352 133.127C160.546 133.313 160.643 133.592 160.643 133.965C160.643 134.16 160.594 134.333 160.496 134.483C160.398 134.632 160.266 134.748 160.099 134.831C160.291 134.889 160.442 135.007 160.554 135.185C160.667 135.364 160.724 135.578 160.724 135.83C160.724 136.206 160.62 136.502 160.413 136.717C160.207 136.931 159.914 137.039 159.532 137.039H158.297ZM158.824 135.079V136.587H159.543C159.743 136.587 159.901 136.522 160.018 136.391C160.135 136.259 160.194 136.074 160.194 135.836C160.194 135.331 159.981 135.079 159.555 135.079H158.824ZM158.824 134.635H159.5C159.682 134.635 159.829 134.574 159.941 134.451C160.054 134.328 160.11 134.165 160.11 133.962C160.11 133.731 160.06 133.564 159.958 133.461C159.856 133.355 159.701 133.302 159.492 133.302H158.824V134.635Z" fill="#312D2D"/>
<path d="M163.47 135.945H162.054L161.728 137.039H161.187L162.537 132.848H162.989L164.342 137.039H163.801L163.47 135.945ZM162.192 135.49H163.335L162.762 133.585L162.192 135.49Z" fill="#312D2D"/>
<path d="M165.468 132.848V136.587H166.605V132.848H167.129V136.587H168.257V132.848H168.787V137.039H164.938V132.848H165.468Z" fill="#312D2D"/>
<path d="M171.72 135.945H170.304L169.978 137.039H169.437L170.787 132.848H171.239L172.592 137.039H172.051L171.72 135.945ZM170.442 135.49H171.585L171.012 133.585L170.442 135.49Z" fill="#312D2D"/>
<path d="M177.238 137.039H176.709V133.302H175.068V137.039H174.541V132.848H177.238V137.039Z" fill="#312D2D"/>
<path d="M180.362 132.848H180.889V137.039H180.362V133.809L178.73 137.039H178.2V132.848H178.73V136.077L180.362 132.848Z" fill="#312D2D"/>
<path d="M181.827 137.039V132.848H183.022C183.403 132.848 183.69 132.941 183.882 133.127C184.076 133.313 184.173 133.592 184.173 133.965C184.173 134.16 184.124 134.333 184.026 134.483C183.928 134.632 183.796 134.748 183.629 134.831C183.821 134.889 183.972 135.007 184.084 135.185C184.197 135.364 184.254 135.578 184.254 135.83C184.254 136.206 184.15 136.502 183.943 136.717C183.737 136.931 183.444 137.039 183.062 137.039H181.827ZM182.354 135.079V136.587H183.073C183.273 136.587 183.431 136.522 183.548 136.391C183.665 136.259 183.724 136.074 183.724 135.836C183.724 135.331 183.511 135.079 183.085 135.079H182.354ZM182.354 134.635H183.03C183.213 134.635 183.359 134.574 183.471 134.451C183.584 134.328 183.64 134.165 183.64 133.962C183.64 133.731 183.59 133.564 183.488 133.461C183.386 133.355 183.231 133.302 183.022 133.302H182.354V134.635Z" fill="#312D2D"/>
<path d="M187.771 135.312C187.771 135.884 187.649 136.324 187.406 136.633C187.162 136.942 186.816 137.096 186.367 137.096C185.935 137.096 185.593 136.947 185.342 136.647C185.092 136.346 184.963 135.921 184.953 135.372V134.583C184.953 134.023 185.077 133.585 185.325 133.268C185.572 132.949 185.918 132.79 186.361 132.79C186.802 132.79 187.146 132.943 187.391 133.248C187.639 133.551 187.766 133.985 187.771 134.549V135.312ZM187.245 134.578C187.245 134.134 187.172 133.805 187.026 133.59C186.882 133.373 186.66 133.265 186.361 133.265C186.071 133.265 185.851 133.374 185.702 133.593C185.554 133.812 185.479 134.134 185.477 134.56V135.312C185.477 135.74 185.551 136.066 185.699 136.29C185.848 136.515 186.071 136.627 186.367 136.627C186.662 136.627 186.881 136.524 187.023 136.316C187.165 136.109 187.239 135.792 187.245 135.364V134.578Z" fill="#312D2D"/>
<path d="M188.586 137.039V132.848H189.781C190.163 132.848 190.449 132.941 190.641 133.127C190.835 133.313 190.932 133.592 190.932 133.965C190.932 134.16 190.883 134.333 190.785 134.483C190.687 134.632 190.555 134.748 190.388 134.831C190.58 134.889 190.732 135.007 190.843 135.185C190.956 135.364 191.013 135.578 191.013 135.83C191.013 136.206 190.909 136.502 190.702 136.717C190.496 136.931 190.203 137.039 189.821 137.039H188.586ZM189.113 135.079V136.587H189.832C190.032 136.587 190.19 136.522 190.307 136.391C190.425 136.259 190.483 136.074 190.483 135.836C190.483 135.331 190.27 135.079 189.844 135.079H189.113ZM189.113 134.635H189.789C189.972 134.635 190.118 134.574 190.23 134.451C190.343 134.328 190.4 134.165 190.4 133.962C190.4 133.731 190.349 133.564 190.247 133.461C190.145 133.355 189.99 133.302 189.781 133.302H189.113V134.635Z" fill="#312D2D"/>
<path d="M193.759 135.945H192.343L192.017 137.039H191.476L192.826 132.848H193.278L194.631 137.039H194.09L193.759 135.945ZM192.481 135.49H193.624L193.051 133.585L192.481 135.49Z" fill="#312D2D"/>
<path d="M195.728 135.398V137.039H195.201V132.848H196.537C196.926 132.848 197.233 132.965 197.455 133.199C197.678 133.431 197.789 133.741 197.789 134.129C197.789 134.532 197.683 134.843 197.47 135.061C197.258 135.278 196.96 135.39 196.574 135.398H195.728ZM195.728 134.946H196.537C196.771 134.946 196.95 134.876 197.075 134.736C197.2 134.596 197.262 134.395 197.262 134.134C197.262 133.883 197.198 133.681 197.069 133.53C196.941 133.378 196.764 133.302 196.54 133.302H195.728V134.946Z" fill="#312D2D"/>
<path d="M200.481 135.102H198.998V136.587H200.725V137.039H198.471V132.848H200.696V133.302H198.998V134.65H200.481V135.102Z" fill="#312D2D"/>
<path d="M204.145 137.039H203.615V135.102H201.929V137.039H201.402V132.848H201.929V134.65H203.615V132.848H204.145V137.039Z" fill="#312D2D"/>
<path d="M207.801 137.039H207.271V135.102H205.584V137.039H205.058V132.848H205.584V134.65H207.271V132.848H207.801V137.039Z" fill="#312D2D"/>
<path d="M210.72 135.945H209.304L208.978 137.039H208.437L209.787 132.848H210.239L211.592 137.039H211.051L210.72 135.945ZM209.442 135.49H210.585L210.012 133.585L209.442 135.49Z" fill="#312D2D"/>
<path d="M213.99 137.039V135.407H213.265L212.542 137.039H211.981L212.801 135.246C212.344 135.033 212.116 134.654 212.116 134.111C212.116 133.718 212.225 133.41 212.444 133.187C212.665 132.963 212.973 132.85 213.368 132.848H214.52V137.039H213.99ZM212.646 134.111C212.646 134.365 212.709 134.568 212.836 134.722C212.962 134.873 213.14 134.951 213.368 134.955H213.99V133.302H213.374C213.136 133.302 212.955 133.374 212.83 133.518C212.707 133.662 212.646 133.86 212.646 134.111Z" fill="#312D2D"/>
<path d="M217.781 135.156H217.384V137.039H216.857V132.848H217.384V134.696H217.706L218.887 132.848H219.543L218.213 134.874L219.641 137.039H218.996L217.781 135.156Z" fill="#312D2D"/>
<path d="M222.77 135.312C222.77 135.884 222.648 136.324 222.404 136.633C222.161 136.942 221.814 137.096 221.365 137.096C220.933 137.096 220.592 136.947 220.34 136.647C220.091 136.346 219.961 135.921 219.952 135.372V134.583C219.952 134.023 220.076 133.585 220.323 133.268C220.571 132.949 220.916 132.79 221.359 132.79C221.801 132.79 222.144 132.943 222.39 133.248C222.638 133.551 222.764 133.985 222.77 134.549V135.312ZM222.243 134.578C222.243 134.134 222.17 133.805 222.024 133.59C221.88 133.373 221.659 133.265 221.359 133.265C221.07 133.265 220.85 133.374 220.7 133.593C220.552 133.812 220.478 134.134 220.476 134.56V135.312C220.476 135.74 220.55 136.066 220.697 136.29C220.847 136.515 221.07 136.627 221.365 136.627C221.661 136.627 221.879 136.524 222.022 136.316C222.164 136.109 222.237 135.792 222.243 135.364V134.578Z" fill="#312D2D"/>
<path d="M224.264 132.848L225.358 136.267L226.452 132.848H227.131V137.039H226.604V135.407L226.653 133.772L225.556 137.039H225.153L224.062 133.783L224.111 135.407V137.039H223.585V132.848H224.264Z" fill="#312D2D"/>
<path d="M230.764 137.039H230.234V133.302H228.593V137.039H228.067V132.848H230.764V137.039Z" fill="#312D2D"/>
<path d="M233.657 135.945H232.241L231.915 137.039H231.374L232.724 132.848H233.176L234.529 137.039H233.988L233.657 135.945ZM232.379 135.49H233.522L232.949 133.585L232.379 135.49Z" fill="#312D2D"/>
<path d="M237.843 137.039H237.313V135.102H235.626V137.039H235.099V132.848H235.626V134.65H237.313V132.848H237.843V137.039Z" fill="#312D2D"/>
<path d="M240.94 132.848H241.467V137.039H240.94V133.809L239.308 137.039H238.778V132.848H239.308V136.077L240.94 132.848Z" fill="#312D2D"/>
<path d="M244.233 137.039V135.407H243.508L242.785 137.039H242.224L243.044 135.246C242.588 135.033 242.359 134.654 242.359 134.111C242.359 133.718 242.469 133.41 242.687 133.187C242.908 132.963 243.216 132.85 243.611 132.848H244.763V137.039H244.233ZM242.889 134.111C242.889 134.365 242.952 134.568 243.079 134.722C243.205 134.873 243.383 134.951 243.611 134.955H244.233V133.302H243.617C243.379 133.302 243.198 133.374 243.073 133.518C242.95 133.662 242.889 133.86 242.889 134.111Z" fill="#312D2D"/>
<path d="M158.71 104.633L159.024 104.319H173.865L174.18 104.633V124.442L173.865 124.757H171.539L171.224 124.442V107.903L170.281 106.96H162.609L161.666 107.903V124.442L161.351 124.757H159.024L158.71 124.442V104.633Z" fill="#312D2D"/>
<path d="M179.835 104.633L180.15 104.319H187.067C191.563 104.319 194.582 106.992 194.582 111.236C194.582 115.45 191.375 118.154 186.721 118.154H183.734L182.791 119.097V124.442L182.477 124.757H180.15L179.835 124.442V104.633ZM182.791 107.872V114.601L183.734 115.544H186.69C189.897 115.544 191.626 114.035 191.626 111.236C191.626 108.344 190.023 106.929 186.879 106.929H183.734L182.791 107.872Z" fill="#312D2D"/>
<path d="M198.996 104.633L199.31 104.319H201.605L201.92 104.633V116.864L203.649 117.399L211.919 104.476L212.17 104.319H214.371L214.685 104.633V124.442L214.371 124.757H212.076L211.761 124.442V112.588L210.032 112.054L201.92 124.599L201.668 124.757H199.31L198.996 124.442V104.633Z" fill="#312D2D"/>
<path d="M220.336 104.633L220.65 104.319H223.512L223.795 104.476L228.763 113.343H230.398L235.397 104.476L235.68 104.319H238.478L238.793 104.633V124.442L238.478 124.757H236.246L235.932 124.442V112.211L234.171 111.739L230.303 118.468L230.02 118.625H228.951L228.668 118.468L224.927 111.802L223.166 112.274V124.442L222.851 124.757H220.65L220.336 124.442V104.633Z" fill="#312D2D"/>
<path d="M243.402 104.759L243.685 104.319H246.484L246.798 104.508L251.263 114.695H252.992L256.923 104.508L257.237 104.319H259.878L260.161 104.759L253.118 121.204C251.955 123.939 250.288 125.165 248.15 125.165C247.113 125.165 246.326 125.04 245.572 124.788L245.383 124.379L246.012 122.335L246.421 122.147C246.892 122.335 247.458 122.43 248.024 122.43C249.093 122.43 249.879 121.77 250.32 120.638L250.477 120.229V119.348L243.402 104.759Z" fill="#312D2D"/>
<path d="M278.656 106.709L277.178 108.406L276.738 108.438C275.355 107.212 273.782 106.551 271.927 106.551C268.091 106.551 265.513 109.758 265.513 114.538C265.513 119.128 267.934 122.524 271.959 122.524C273.908 122.524 275.669 121.77 277.21 120.292L277.65 120.323L279.065 121.927L279.033 122.367C277.084 124.253 274.726 125.165 271.802 125.165C266.205 125.165 262.557 120.858 262.557 114.538C262.557 108.627 266.393 103.91 272.116 103.91C274.694 103.91 276.801 104.665 278.625 106.268L278.656 106.709Z" fill="#312D2D"/>
<path d="M111.012 106.859V106.784C110.969 105.69 110.652 104.624 110.09 103.684C109.528 102.745 108.739 101.962 107.795 101.407L107.396 86.0645H101.388L100.989 101.407C100.053 101.955 99.269 102.728 98.7076 103.656C98.1468 104.584 97.8263 105.638 97.776 106.721C97.7713 106.743 97.7713 106.766 97.776 106.788V136.657H111.021V107.209C111.021 107.156 111.021 107.097 111.021 107.039C111.021 106.981 111.017 106.913 111.012 106.859Z" fill="#312D2D"/>
<path d="M94.1885 92.2651L94.1482 90.0693H88.3229C88.3229 90.4327 88.2646 92.2651 88.2646 92.2651H94.1885Z" fill="#312D2D"/>
<path d="M97.8542 114.93V114.854C97.8113 113.76 97.4945 112.694 96.9321 111.754C96.3702 110.815 95.5805 110.032 94.6367 109.477L94.2379 94.1348H88.2294L87.8438 109.486C86.908 110.033 86.1231 110.806 85.5622 111.735C85.0008 112.662 84.6809 113.716 84.6311 114.8C84.6269 114.822 84.6269 114.845 84.6311 114.867V136.666H97.8764V115.275C97.8764 115.221 97.8764 115.163 97.8764 115.105C97.8764 115.046 97.8584 114.984 97.8542 114.93Z" fill="#312D2D"/>
<path d="M124.227 114.93V114.854C124.186 113.759 123.87 112.693 123.307 111.753C122.745 110.813 121.955 110.03 121.01 109.477L120.616 94.1348H114.602L114.204 109.477C113.268 110.025 112.485 110.799 111.925 111.727C111.365 112.655 111.045 113.708 110.996 114.791C110.991 114.813 110.991 114.836 110.996 114.858V136.657H124.227V115.275C124.227 115.221 124.227 115.163 124.227 115.105C124.227 115.046 124.232 114.984 124.227 114.93Z" fill="#312D2D"/>
<path d="M84.7827 121.171L75.7002 116.718V136.666H84.7827V121.171Z" fill="#312D2D"/>
<path d="M76.0825 121.171L67 116.718V136.666H76.0825V121.171Z" fill="#312D2D"/>
<path d="M124.02 121.087L133.368 116.718L146.971 129.12V136.666H123.546L124.02 121.087Z" fill="#312D2D"/>
<path d="M107.354 84.1958L107.309 82H101.484C101.484 82.3628 101.431 84.1958 101.431 84.1958H107.354Z" fill="#312D2D"/>
<path d="M120.553 92.2661L120.513 90.0703H114.728C114.728 90.4336 114.67 92.2661 114.67 92.2661H120.553Z" fill="#312D2D"/>
<path d="M133.314 118.07V135.545H145.999V129.631L133.314 118.07Z" fill="#E1E1E1"/>
<path d="M141.657 133.946H137.324V129.492C137.324 128.919 137.552 128.368 137.958 127.962C138.364 127.556 138.915 127.328 139.489 127.328C140.063 127.328 140.614 127.556 141.02 127.962C141.427 128.367 141.656 128.918 141.657 129.492V133.946Z" fill="#312D2D"/>
<path d="M71.543 120.252V135.545H74.8097V121.856L71.543 120.252Z" fill="#E1E1E1"/>
<path d="M80.7881 120.36V135.546H83.844V121.857L80.7881 120.36Z" fill="#E1E1E1"/>
<path d="M96.7562 115.79C96.7562 115.736 96.7562 115.678 96.7562 115.624V115.548C96.7149 114.454 96.3992 113.388 95.8378 112.448C95.2764 111.509 94.4873 110.726 93.5435 110.171L93.1447 95.1245H91.6348V112.662C92.2348 113.615 92.5722 114.71 92.6114 115.835V115.915C92.6114 115.969 92.6114 116.028 92.6114 116.081C92.6114 116.135 92.6114 116.198 92.6114 116.247V135.537H96.7562V115.96C96.7562 115.906 96.7562 115.848 96.7562 115.79Z" fill="#E1E1E1"/>
<path d="M109.879 107.603C109.879 107.55 109.879 107.492 109.879 107.437V107.362C109.836 106.268 109.52 105.202 108.957 104.262C108.395 103.323 107.605 102.54 106.662 101.985L106.263 86.938H104.753V104.7C105.267 105.601 105.557 106.612 105.6 107.648V107.729C105.6 107.783 105.6 107.836 105.6 107.895C105.6 107.953 105.6 108.011 105.6 108.06V135.537H109.874V107.756C109.879 107.72 109.879 107.657 109.879 107.603Z" fill="#E1E1E1"/>
<path d="M123.08 115.79C123.08 115.736 123.08 115.678 123.08 115.624V115.548C123.039 114.454 122.723 113.387 122.16 112.447C121.598 111.508 120.808 110.724 119.863 110.171L119.469 95.1245H117.954V112.662C118.55 113.617 118.887 114.71 118.931 115.835V115.915C118.931 115.969 118.931 116.028 118.931 116.081C118.931 116.135 118.931 116.198 118.931 116.247V135.537H123.08V115.96C123.08 115.906 123.08 115.848 123.08 115.79Z" fill="#E1E1E1"/>
</svg>
