<svg width="345" height="222" viewBox="0 0 345 222" fill="none" xmlns="http://www.w3.org/2000/svg">
<rect opacity="0.1" width="345" height="222" fill="#312D2D"/>
<g clip-path="url(#clip0_18_198)">
<mask id="mask0_18_198" style="mask-type:luminance" maskUnits="userSpaceOnUse" x="84" y="94" width="178" height="34">
<path d="M262 94H84V128H262V94Z" fill="white"/>
</mask>
<g mask="url(#mask0_18_198)">
<path d="M179.031 122.298V99.7026H192.856V104.951H184.796V122.298H179.031Z" fill="#312D2D"/>
<path d="M210.249 122.298V113.448H201.685V122.298H195.921V99.7026H201.685V108.135H210.249V99.7026H216.014V122.298H210.249Z" fill="#312D2D"/>
<path d="M249.467 122.298V104.951H242.734V99.7026H262.001V104.951H255.235V122.298H249.467Z" fill="#312D2D"/>
<path d="M234.251 122.294V109.42L225.075 122.294H220.255V99.7056H226.019V112.446L235.042 99.7056H240.019V122.294H234.251Z" fill="#312D2D"/>
<path d="M145.904 122.298V108.87L140.149 115.963L134.393 108.87V122.298H128.629V99.7026H134.318L140.149 107.472L145.98 99.7026H151.669V122.298H145.904Z" fill="#312D2D"/>
<path d="M162.613 114.351H167.97L165.291 107.266L162.613 114.351ZM170.974 122.295L169.768 119.129H160.806L159.599 122.295H153.805L162.67 99.7026H168L176.869 122.295H170.974Z" fill="#312D2D"/>
<path d="M83.9941 104.294C83.9997 101.565 85.0529 98.9495 86.9231 97.0202C88.7934 95.0909 91.3282 94.0049 93.9727 94H117.01V99.2324H93.9787C92.6793 99.2382 91.4347 99.7731 90.5155 100.721C89.5965 101.669 89.0772 102.953 89.0709 104.294L89.0407 113.078C88.9356 114.203 88.4722 115.261 87.7229 116.086C86.9736 116.911 85.9807 117.457 84.8991 117.638L83.9941 117.781V104.294Z" fill="#312D2D"/>
<path d="M83.9951 128V122.767H107.032C108.332 122.761 109.576 122.225 110.495 121.277C111.414 120.328 111.934 119.044 111.94 117.703V109.367C111.946 108.158 112.369 106.99 113.133 106.073C113.896 105.155 114.951 104.548 116.109 104.359L117.014 104.219V117.703C117.008 120.432 115.955 123.048 114.085 124.978C112.215 126.907 109.68 127.994 107.035 128H83.9951Z" fill="#312D2D"/>
<path d="M103.511 117.8V111.036L100.507 114.737L97.5051 111.036V117.8H93.5264V104.49H97.294L100.507 108.77L103.719 104.49H107.487V117.8H103.511Z" fill="#312D2D"/>
</g>
</g>
<defs>
<clipPath id="clip0_18_198">
<rect width="178" height="34" fill="white" transform="translate(84 94)"/>
</clipPath>
</defs>
</svg>
