<svg width="345" height="222" viewBox="0 0 345 222" fill="none" xmlns="http://www.w3.org/2000/svg">
<rect opacity="0.1" width="345" height="222" fill="#312D2D"/>
<g clip-path="url(#clip0_18_219)">
<path fill-rule="evenodd" clip-rule="evenodd" d="M120.59 96.0765C117.488 95.7736 114.36 96.3688 111.637 97.7803C108.915 99.1918 106.73 101.35 105.385 103.959C104.039 106.568 103.599 109.499 104.123 112.35C104.648 115.2 106.112 117.83 108.314 119.878C110.517 121.926 113.35 123.291 116.423 123.786C119.497 124.281 122.66 123.882 125.479 122.642C128.298 121.403 130.633 119.385 132.164 116.866C133.695 114.347 134.347 111.45 134.03 108.573C133.681 105.375 132.154 102.387 129.706 100.111C127.258 97.8347 124.039 96.41 120.59 96.0765ZM120.101 117.403C118.432 117.611 116.735 117.328 115.249 116.596C113.762 115.863 112.561 114.717 111.813 113.319C111.066 111.921 110.809 110.341 111.081 108.801C111.352 107.26 112.137 105.838 113.326 104.733C114.514 103.627 116.046 102.895 117.707 102.639C119.368 102.383 121.073 102.615 122.584 103.304C124.095 103.993 125.335 105.103 126.13 106.478C126.925 107.854 127.235 109.426 127.016 110.973C126.787 112.601 125.985 114.113 124.735 115.275C123.484 116.437 121.856 117.185 120.101 117.403ZM142.106 96.6303C141.583 96.6314 141.066 96.7408 140.593 96.9504C140.121 97.16 139.705 97.4646 139.376 97.8421C139.046 98.2195 138.812 98.6602 138.689 99.1322C138.567 99.6042 138.559 100.096 138.667 100.571C138.999 102.109 140.549 103.161 142.239 103.161H152.041L136.786 121.874C136.673 122.012 136.604 122.176 136.587 122.349C136.569 122.521 136.604 122.695 136.687 122.85C136.769 123.005 136.897 123.136 137.056 123.228C137.215 123.32 137.398 123.369 137.585 123.369H161.514C163.202 123.369 164.753 122.318 165.085 120.779C165.193 120.304 165.186 119.813 165.063 119.341C164.941 118.869 164.707 118.428 164.377 118.051C164.048 117.673 163.632 117.369 163.16 117.159C162.688 116.949 162.171 116.84 161.647 116.838H149.704L164.947 98.14C165.061 98.0005 165.131 97.8343 165.148 97.6601C165.166 97.486 165.131 97.3106 165.047 97.1539C164.964 96.9971 164.834 96.865 164.674 96.7726C164.514 96.6801 164.329 96.6308 164.14 96.6303H142.106ZM237.726 96.7056C236.933 96.8802 236.229 97.3002 235.729 97.8961C235.23 98.4921 234.964 99.2283 234.977 99.983V110.856L215.97 96.8356C215.821 96.7259 215.641 96.6575 215.452 96.6382C215.263 96.6188 215.072 96.6494 214.901 96.7263C214.729 96.8032 214.585 96.9234 214.484 97.073C214.383 97.2226 214.33 97.3956 214.331 97.572V120.022C214.318 120.777 214.583 121.513 215.083 122.109C215.583 122.705 216.287 123.125 217.079 123.3C217.593 123.405 218.127 123.401 218.64 123.29C219.152 123.178 219.632 122.961 220.042 122.655C220.452 122.349 220.783 121.961 221.01 121.521C221.237 121.08 221.355 120.598 221.354 120.11V109.142L240.362 123.163C240.511 123.273 240.69 123.341 240.879 123.36C241.068 123.38 241.259 123.349 241.431 123.272C241.602 123.195 241.746 123.075 241.847 122.926C241.948 122.776 242.001 122.603 242 122.427V99.8947C242.001 99.4066 241.883 98.9245 241.656 98.4841C241.429 98.0438 241.098 97.6563 240.688 97.3502C240.278 97.0441 239.798 96.8273 239.286 96.7158C238.773 96.6042 238.24 96.6007 237.726 96.7056ZM188.236 102.536C196.275 102.536 202.282 106.474 202.282 109.996C202.282 113.519 196.275 117.457 188.236 117.457C180.196 117.457 174.189 113.519 174.189 109.996C174.189 106.474 180.196 102.536 188.236 102.536ZM188.236 96.0054C176.599 96.0054 167.165 102.269 167.165 109.996C167.165 117.723 176.599 123.987 188.236 123.987C199.873 123.987 209.306 117.723 209.306 109.996C209.306 102.269 199.872 96.0054 188.236 96.0054Z" fill="#312D2D"/>
</g>
<defs>
<clipPath id="clip0_18_219">
<rect width="138" height="28" fill="white" transform="translate(104 96)"/>
</clipPath>
</defs>
</svg>
