<svg width="164" height="166" viewBox="0 0 164 166" fill="none" xmlns="http://www.w3.org/2000/svg">
<path fill-rule="evenodd" clip-rule="evenodd" d="M143.5 35.6108L81.9999 0L20.4994 35.6108L20.5307 35.6293L20.4994 35.6459L81.9999 71.2495L143.5 35.6459L143.469 35.6293L143.5 35.6108ZM81.9999 47.5078L61.5001 35.6385L61.4689 35.6219L61.5001 35.6034L81.9999 23.7362L102.499 35.6108L102.531 35.6293L102.499 35.6459L81.9999 47.5078Z" fill="#32333B"/>
<path fill-rule="evenodd" clip-rule="evenodd" d="M143.501 130.574L164 118.707V47.2488L81.9999 94.7192L0 47.2488L0 118.707L20.4995 130.574V82.8521L81.9999 118.455L143.501 82.8521V130.574Z" fill="#32333B"/>
<path fill-rule="evenodd" clip-rule="evenodd" d="M123.01 118.522L123.001 118.528L81.9998 142.264L40.9988 118.528L40.9895 118.522V142.258L40.9988 142.264L81.9998 166L123.001 142.264L123.01 142.258V118.522Z" fill="#32333B"/>
</svg>
