<svg width="209" height="54" viewBox="0 0 209 54" fill="none" xmlns="http://www.w3.org/2000/svg">
<path d="M44.3966 10.0821C59.4282 8.65761 68.0953 26.0792 58.9404 37.8323C51.249 47.7036 36.0286 45.2704 31.2901 33.7799C27.1409 23.7198 33.3951 11.1262 44.3966 10.0851V10.0821ZM47.9825 14.4619C47.0824 14.3291 45.6219 14.4619 44.6434 14.4619C43.9292 14.4619 42.0389 15.1815 41.3247 15.5148C32.4195 19.6586 31.7953 32.7093 40.14 37.7615L48.3222 14.801C48.4471 14.6241 48.0406 14.4707 47.9825 14.4619ZM58.3626 26.2591C58.2639 23.3718 56.9806 20.3045 55.0265 18.2193C54.6693 17.8388 53.0375 16.3317 52.6311 16.3701L52.1897 16.8213L49.0829 26.094C49.1991 26.0969 49.3791 26.2591 49.4314 26.2591H58.3626ZM44.6434 39.5311C45.5522 39.6608 47.0011 39.5311 47.9825 39.5311C51.8819 39.5311 56.275 35.113 57.6019 31.6063C57.721 31.2936 58.0316 30.7185 57.7093 30.5357H47.547L44.295 39.3158C44.295 39.3689 44.6057 39.5252 44.6434 39.5311Z" fill="#312D2D"/>
<path d="M138.5 22.425H128.12L127.902 22.6462V25.5218H136.468V29.6509H127.902V32.4527H138.5V36.5818H123.837V18.296H138.283L138.5 18.5172V22.425Z" fill="#312D2D"/>
<path d="M109.175 34.2223V36.5818H105.255V18.4434H115.054C117.943 18.4434 120.945 22.021 121.471 24.755C122.267 28.8929 118.959 34.2223 114.619 34.2223H109.175ZM109.392 22.425L109.175 22.6462V29.8721L109.392 30.0933H114.619C114.68 30.0933 115.609 29.7039 115.754 29.6243C118.312 28.2411 118.158 24.2212 115.609 22.894C115.414 22.7937 114.459 22.425 114.328 22.425H109.392Z" fill="#312D2D"/>
<path d="M165.503 18.4434V20.8029H171.383C174.789 20.8029 178 25.4481 178 28.6923C178 32.3937 174.559 36.5818 170.802 36.5818H161.583V18.4434H165.503ZM165.721 24.7845L165.503 25.0057V32.2315L165.721 32.4527H171.092C171.644 32.4527 172.933 31.2966 173.261 30.8217C174.678 28.7572 173.729 25.8698 171.415 25.047C171.27 24.9939 170.581 24.7845 170.512 24.7845H165.721Z" fill="#312D2D"/>
<path d="M67.0733 36.5818L73.3855 18.4405L78.4754 18.2842L85.0752 36.5788H80.9376L80.1537 34.6057L72.1051 34.5379L71.2834 36.5788H67.0733V36.5818ZM78.5422 30.3882C78.5742 30.1375 78.5074 29.9163 78.4435 29.6774C78.066 28.2706 77.0556 25.3331 76.4401 24.0442C76.3413 23.8377 76.292 23.6018 76.0074 23.5989L73.522 30.0815L73.6817 30.3852H78.5451L78.5422 30.3882Z" fill="#312D2D"/>
<path d="M102.061 18.296V36.4343H97.9959V22.425H91.1726V36.4343H87.1077V18.296H102.061Z" fill="#312D2D"/>
<path d="M159.115 36.5818H154.905L150.623 24.3421L150.19 23.8967L145.614 36.5818H141.259L147.734 18.2871L152.803 18.4405L159.115 36.5818Z" fill="#312D2D"/>
</svg>
