<svg width="209" height="54" viewBox="0 0 209 54" fill="none" xmlns="http://www.w3.org/2000/svg">
<path d="M54.8675 13.0676C67.2584 11.8945 74.4029 26.2417 66.8563 35.9207C60.516 44.0501 47.9695 42.0462 44.0634 32.5834C40.6432 24.2986 45.7987 13.9275 54.8675 13.0701V13.0676ZM57.8234 16.6745C57.0814 16.5652 55.8775 16.6745 55.0709 16.6745C54.4821 16.6745 52.924 17.2671 52.3352 17.5416C44.9945 20.9541 44.4799 31.7018 51.3587 35.8624L58.1034 16.9538C58.2064 16.8081 57.8713 16.6818 57.8234 16.6745ZM66.38 26.3899C66.2986 24.012 65.2407 21.486 63.6299 19.7688C63.3355 19.4555 61.9904 18.2144 61.6553 18.2459L61.2915 18.6176L58.7305 26.2539C58.8263 26.2563 58.9747 26.3899 59.0177 26.3899H66.38ZM55.0709 37.3197C55.8201 37.4266 57.0144 37.3197 57.8234 37.3197C61.0378 37.3197 64.6591 33.6813 65.7529 30.7934C65.8511 30.5359 66.1072 30.0623 65.8415 29.9117H57.4644L54.7837 37.1424C54.7837 37.1861 55.0398 37.3148 55.0709 37.3197Z" fill="#312D2D"/>
<path d="M132.439 23.2324H123.883L123.703 23.4145V25.7827H130.764V29.1831H123.703V31.4905H132.439V34.8909H120.352V19.832H132.26L132.439 20.0141V23.2324Z" fill="#312D2D"/>
<path d="M108.266 32.9478V34.8909H105.034V19.9534H113.112C115.494 19.9534 117.969 22.8996 118.402 25.1512C119.058 28.5588 116.331 32.9478 112.753 32.9478H108.266ZM108.445 23.2324L108.266 23.4145V29.3652L108.445 29.5474H112.753C112.803 29.5474 113.569 29.2268 113.689 29.1612C115.798 28.0221 115.671 24.7115 113.569 23.6186C113.409 23.536 112.622 23.2324 112.514 23.2324H108.445Z" fill="#312D2D"/>
<path d="M154.699 19.9534V21.8965H159.545C162.353 21.8965 165 25.7219 165 28.3937C165 31.4419 162.164 34.8909 159.067 34.8909H151.467V19.9534H154.699ZM154.878 25.1755L154.699 25.3576V31.3083L154.878 31.4905H159.306C159.761 31.4905 160.823 30.5384 161.094 30.1473C162.262 28.4471 161.479 26.0693 159.572 25.3916C159.452 25.3479 158.885 25.1755 158.827 25.1755H154.878Z" fill="#312D2D"/>
<path d="M73.5604 34.8909L78.7638 19.951L82.9595 19.8223L88.3998 34.8884H84.9891L84.3429 33.2635L77.7082 33.2077L77.0309 34.8884H73.5604V34.8909ZM83.0145 29.7903C83.0409 29.5838 82.9858 29.4017 82.9332 29.2049C82.622 28.0464 81.7891 25.6272 81.2817 24.5658C81.2003 24.3958 81.1596 24.2015 80.925 24.1991L78.8762 29.5377L79.0079 29.7878H83.0169L83.0145 29.7903Z" fill="#312D2D"/>
<path d="M102.402 19.832V34.7694H99.0507V23.2324H93.4261V34.7694H90.0752V19.832H102.402Z" fill="#312D2D"/>
<path d="M149.433 34.8909H145.962L142.432 24.8111L142.075 24.4444L138.303 34.8909H134.713L140.051 19.8247L144.23 19.951L149.433 34.8909Z" fill="#312D2D"/>
</svg>
