<svg width="209" height="54" viewBox="0 0 209 54" fill="none" xmlns="http://www.w3.org/2000/svg">
<path d="M168.622 24.1381C168.622 23.207 169.901 22.456 171.576 22.456C173.323 22.456 175.106 23.2794 176.312 24.6215L178.492 21.9732C176.421 20.147 174.313 19.1988 171.684 19.1988C168.406 19.1988 165.02 20.7022 165.02 24.1381C165.02 28.3622 168.694 28.6663 171.684 28.9174C173.359 29.0415 174.836 29.1677 174.836 30.2594C174.836 31.4401 173.143 31.9767 171.648 31.9767C169.919 31.9767 168.046 31.2436 166.677 29.6146L164.353 32.067C166.208 34.3222 168.892 35.3063 171.522 35.3063C174.818 35.3063 178.438 33.7491 178.438 30.1877C178.438 26.1601 174.728 25.767 171.882 25.4808C170.099 25.3015 168.622 25.1408 168.622 24.1381ZM152.052 25.1408C152.647 23.6553 153.925 22.796 155.816 22.796C157.725 22.796 158.86 23.7084 159.347 25.1408H152.052ZM155.997 19.1988C151.494 19.1988 147.873 22.6884 147.873 27.2705C147.873 31.5836 151.079 35.3063 155.798 35.3063C158.644 35.3063 160.949 33.9457 162.588 31.6194L160.103 29.5257C159.22 30.8677 157.635 31.6553 155.744 31.6553C153.817 31.6553 151.817 30.2236 151.656 28.1112H163.417V26.8588C163.381 22.4381 160.355 19.1988 155.997 19.1988ZM109.924 19.1988C105.421 19.1988 101.801 22.6884 101.801 27.2705C101.801 31.5836 105.007 35.3063 109.726 35.3063C112.572 35.3063 114.877 33.9457 116.516 31.6194L114.031 29.5257C113.148 30.8677 111.563 31.6553 109.672 31.6553C107.744 31.6553 105.745 30.2236 105.583 28.1112H117.344V26.8588C117.326 22.4381 114.283 19.1988 109.924 19.1988ZM142.434 34.7512H146.036V19.7532H142.434V34.7519V34.7512ZM144.235 12.4512C142.776 12.4512 141.533 13.6684 141.533 15.1891C141.533 16.6926 142.74 17.8029 144.307 17.8029C145.838 17.8029 146.955 16.7291 146.955 15.2436C146.937 13.7222 145.712 12.4512 144.235 12.4512ZM92.0208 19.1808C90.3278 19.1808 88.7972 19.6822 87.5 20.5588V12.6305H83.8979V27.2705C83.8979 31.7263 87.5542 35.3063 92.0028 35.3063C96.4875 35.3063 100.162 31.745 100.162 27.2346C100.144 22.7422 96.5417 19.1808 92.0208 19.1808ZM73.2896 19.4312C69.2729 19.8429 65.9944 23.2794 65.9944 27.3781C65.9944 31.7091 69.7236 35.3422 74.0819 35.3422C78.4222 35.3422 82.1688 31.7091 82.1688 27.3781C82.1688 25.5346 81.5021 23.8339 80.4215 22.4919L72.425 12.6484H67.7597L73.2896 19.4312ZM45.3722 28.2905L42.0757 19.7532H39.5556L36.241 28.2905L32.9271 19.7532H29L34.7993 34.7877H37.3208L40.7972 25.8388L44.3097 34.787H46.8306L52.6125 19.7532H48.7042L45.3722 28.2905ZM122.838 23.1719V19.7532H119.235V34.7519H122.838V28.4167C122.838 25.3381 126.152 23.4588 129.448 23.4588V19.7539H129.088C126.296 19.7539 124.278 20.7567 122.838 23.1726V23.1719ZM134.275 23.1719V19.7532H130.673V34.7519H134.275V28.4167C134.275 25.3381 137.589 23.4588 140.885 23.4588V19.7539H140.525C137.751 19.7539 135.734 20.7567 134.275 23.1726V23.1719ZM60.5375 34.7512H64.1389V12.6484H60.5368V34.7519L60.5375 34.7512ZM74.1 31.7263C71.6139 31.7263 69.5972 29.7401 69.5972 27.2705C69.5972 24.7829 71.6139 22.796 74.0819 22.796C76.5854 22.796 78.6208 24.7822 78.6208 27.2705C78.6208 29.7401 76.5854 31.7263 74.1 31.7263ZM92.0028 31.7263C91.411 31.7275 90.8247 31.6126 90.2777 31.3882C89.7308 31.1637 89.2338 30.8342 88.8154 30.4185C88.397 30.0028 88.0655 29.5091 87.8397 28.9658C87.614 28.4225 87.4985 27.8403 87.5 27.2526C87.5 24.8008 89.4271 22.796 92.0208 22.796C94.6146 22.796 96.5417 24.8008 96.5417 27.2346C96.5417 29.776 94.4882 31.7263 92.0028 31.7263ZM54.2875 34.7512H57.8896V19.7532H54.2875V34.7519V34.7512ZM56.0528 12.4512C54.5938 12.4512 53.3687 13.6684 53.3687 15.2077C53.3687 16.765 54.6479 17.8208 56.0528 17.8208C57.6194 17.8208 58.8083 16.5319 58.8083 15.136C58.7903 13.7222 57.5472 12.4512 56.0528 12.4512ZM105.979 25.1408C106.592 23.6553 107.853 22.796 109.726 22.796C111.653 22.796 112.824 23.7084 113.31 25.1408H105.979Z" fill="#312D2D"/>
</svg>
