<svg width="209" height="54" viewBox="0 0 209 54" fill="none" xmlns="http://www.w3.org/2000/svg">
<path d="M176.377 26.8556C176.377 25.8314 177.809 25.0053 179.685 25.0053C181.642 25.0053 183.639 25.9111 184.99 27.3874L187.431 24.4743C185.111 22.4654 182.751 21.4223 179.806 21.4223C176.134 21.4223 172.343 23.0761 172.343 26.8556C172.343 31.5021 176.457 31.8367 179.806 32.1128C181.682 32.2494 183.336 32.3882 183.336 33.5891C183.336 34.8879 181.44 35.4781 179.766 35.4781C177.829 35.4781 175.731 34.6717 174.198 32.8798L171.596 35.5774C173.673 38.0581 176.679 39.1407 179.624 39.1407C183.316 39.1407 187.371 37.4277 187.371 33.5102C187.371 29.0799 183.215 28.6474 180.028 28.3326C178.03 28.1354 176.377 27.9586 176.377 26.8556ZM157.818 27.9586C158.484 26.3246 159.916 25.3793 162.034 25.3793C164.172 25.3793 165.443 26.383 165.988 27.9586H157.818ZM162.236 21.4223C157.193 21.4223 153.138 25.261 153.138 30.3012C153.138 35.0457 156.729 39.1407 162.014 39.1407C165.201 39.1407 167.783 37.6439 169.619 35.0851L166.835 32.7819C165.847 34.2582 164.072 35.1246 161.953 35.1246C159.795 35.1246 157.555 33.5497 157.374 31.226H170.547V29.8483C170.506 24.9856 167.117 21.4223 162.236 21.4223ZM110.634 21.4223C105.591 21.4223 101.537 25.261 101.537 30.3012C101.537 35.0457 105.128 39.1407 110.413 39.1407C113.6 39.1407 116.182 37.6439 118.018 35.0851L115.234 32.7819C114.246 34.2582 112.471 35.1246 110.352 35.1246C108.194 35.1246 105.955 33.5497 105.773 31.226H118.946V29.8483C118.926 24.9856 115.517 21.4223 110.634 21.4223ZM147.046 38.53H151.08V22.0323H147.046V38.5308V38.53ZM149.063 14C147.43 14 146.037 15.339 146.037 17.0117C146.037 18.6655 147.389 19.8869 149.144 19.8869C150.859 19.8869 152.109 18.7057 152.109 17.0717C152.089 15.3981 150.717 14 149.063 14ZM90.5833 21.4026C88.6871 21.4026 86.9729 21.9541 85.52 22.9183V14.1972H81.4857V30.3012C81.4857 35.2027 85.5807 39.1407 90.5631 39.1407C95.586 39.1407 99.7012 35.2232 99.7012 30.2618C99.681 25.3201 95.6467 21.4026 90.5833 21.4026ZM69.6043 21.678C65.1057 22.1309 61.4338 25.9111 61.4338 30.4196C61.4338 35.1837 65.6104 39.1801 70.4918 39.1801C75.3529 39.1801 79.549 35.1837 79.549 30.4196C79.549 28.3918 78.8023 26.521 77.5921 25.0448L68.636 14.217H63.4109L69.6043 21.678ZM38.3369 31.4232L34.6448 22.0323H31.8222L28.1099 31.4232L24.3983 22.0323H20L26.4952 38.5702H29.3193L33.2129 28.7263L37.1469 38.5694H39.9702L46.446 22.0323H42.0687L38.3369 31.4232ZM125.098 25.7928V22.0323H121.064V38.5308H125.098V31.5621C125.098 28.1756 128.81 26.1083 132.502 26.1083V22.033H132.098C128.971 22.033 126.712 23.1361 125.098 25.7935V25.7928ZM137.908 25.7928V22.0323H133.874V38.5308H137.908V31.5621C137.908 28.1756 141.62 26.1083 145.311 26.1083V22.033H144.908C141.801 22.033 139.542 23.1361 137.908 25.7935V25.7928ZM55.322 38.53H59.3556V14.217H55.3212V38.5308L55.322 38.53ZM70.512 35.2027C67.7276 35.2027 65.4689 33.0179 65.4689 30.3012C65.4689 27.5649 67.7276 25.3793 70.4918 25.3793C73.2957 25.3793 75.5753 27.5641 75.5753 30.3012C75.5753 33.0179 73.2957 35.2027 70.512 35.2027ZM90.5631 35.2027C89.9003 35.204 89.2437 35.0776 88.6311 34.8307C88.0185 34.5838 87.4619 34.2213 86.9933 33.7641C86.5247 33.3068 86.1533 32.7638 85.9005 32.1661C85.6477 31.5685 85.5184 30.928 85.52 30.2815C85.52 27.5846 87.6783 25.3793 90.5833 25.3793C93.4883 25.3793 95.6467 27.5846 95.6467 30.2618C95.6467 33.0573 93.3468 35.2027 90.5631 35.2027ZM48.322 38.53H52.3563V22.0323H48.322V38.5308V38.53ZM50.2991 14C48.665 14 47.293 15.339 47.293 17.0322C47.293 18.7452 48.7257 19.9066 50.2991 19.9066C52.0538 19.9066 53.3853 18.4888 53.3853 16.9533C53.3651 15.3981 51.9729 14 50.2991 14ZM106.217 27.9586C106.903 26.3246 108.315 25.3793 110.413 25.3793C112.571 25.3793 113.882 26.383 114.427 27.9586H106.217Z" fill="#312D2D"/>
</svg>
