<svg width="209" height="54" viewBox="0 0 209 54" fill="none" xmlns="http://www.w3.org/2000/svg">
<g clip-path="url(#clip0_1098_6195)">
<path d="M68.0063 8.02599C72.7857 8.02496 77.565 8.02702 82.3443 8.02496C84.3056 8.02908 86.2615 8.68422 87.8201 9.88549C89.4577 11.1277 90.6574 12.9442 91.1509 14.9491C91.6038 16.7601 91.4992 18.7111 90.8368 20.4577C90.1649 22.2623 88.9022 23.8327 87.2999 24.8856C85.8076 25.8685 84.0204 26.4064 82.2354 26.3644C77.4924 26.3622 72.7494 26.3644 68.0063 26.3632C68.0063 20.2512 68.0063 14.1391 68.0063 8.02599ZM72.5464 12.6237C72.5464 15.6803 72.5453 18.7368 72.5475 21.7935C75.78 21.7923 79.0125 21.7913 82.245 21.7935C82.8924 21.7945 83.5418 21.6677 84.1347 21.403C85.7169 20.7178 86.848 19.0703 86.8641 17.328C86.9261 15.8653 86.2113 14.4079 85.048 13.5379C84.3056 12.9711 83.3858 12.6312 82.4522 12.6227C79.1503 12.6247 75.8484 12.6227 72.5464 12.6237ZM93.9689 8.17004C94.8117 7.85381 95.7806 8.12173 96.4132 8.74652C101.385 12.3807 106.37 15.9966 111.349 19.622C111.351 15.7566 111.349 11.8912 111.35 8.02599C112.864 8.02599 114.377 8.02599 115.89 8.02599C115.891 13.2777 115.888 18.5283 115.892 23.7799C115.901 24.3199 115.823 24.8877 115.51 25.3415C115.004 26.1417 113.969 26.5397 113.06 26.2977C112.554 26.1988 112.169 25.8449 111.78 25.5341C106.856 21.9495 101.929 18.3691 97.008 14.7822C97.0102 18.6423 97.008 22.5022 97.0092 26.3632C95.4955 26.3632 93.9828 26.3632 92.4691 26.3632C92.4691 21.0201 92.4691 15.677 92.4691 10.3328C92.4488 9.38648 93.0812 8.47875 93.9689 8.17004ZM121.509 8.15605C122.223 8.01097 122.956 8.02496 123.681 8.02599C128.062 8.02702 132.442 8.02378 136.823 8.02805C137.433 8.02172 138.052 8.21746 138.498 8.64872C139.069 9.18102 139.323 10.02 139.166 10.7857C138.979 11.7784 138.06 12.5839 137.05 12.5959C132.346 12.5969 127.641 12.599 122.935 12.5947C122.461 12.5582 121.928 12.7292 121.69 13.1722C121.415 13.6014 121.491 14.1972 121.846 14.5574C122.112 14.8704 122.541 14.9479 122.931 14.9382C126.988 14.9296 131.047 14.9457 135.103 14.9286C136.794 15.0296 138.401 15.9524 139.369 17.3484C140.191 18.5165 140.546 20.006 140.346 21.4213C140.145 22.9894 139.255 24.4542 137.957 25.3437C137.038 25.9934 135.922 26.3514 134.8 26.3632C129.598 26.3622 124.397 26.3654 119.196 26.3622C118.352 26.3547 117.534 25.8202 117.195 25.0404C116.84 24.2834 116.948 23.3368 117.461 22.6787C117.89 22.1065 118.597 21.7827 119.305 21.7923C124.435 21.7935 129.564 21.7913 134.694 21.7935C135.388 21.8365 135.996 21.1158 135.846 20.433C135.749 19.8952 135.245 19.4683 134.7 19.4812C130.638 19.479 126.576 19.48 122.515 19.4812C121.041 19.4638 119.596 18.808 118.578 17.7388C117.306 16.4342 116.738 14.4886 117.086 12.6957C117.475 10.4684 119.303 8.58951 121.509 8.15605ZM79.0712 32.4958C79.0723 31.9096 79.8532 31.6687 80.2538 32.0279C80.4461 32.1936 80.4866 32.4593 80.4792 32.7012C80.477 33.9144 80.4781 35.1265 80.4781 36.3396C81.1821 36.3374 81.885 36.3396 82.589 36.3374C82.5954 35.0222 82.5729 33.7057 82.5986 32.3914C82.6776 31.7741 83.6497 31.6762 83.906 32.2097C83.9894 32.3614 83.9733 32.5399 83.9787 32.7076C83.9723 33.9112 83.9798 35.1147 83.9745 36.3181C84.3271 36.3074 84.703 36.5193 84.7319 36.9054C84.7627 37.3678 84.7746 37.8368 84.7234 38.2971C84.6581 38.8875 83.7886 39.0284 83.466 38.5778C83.2738 38.2906 83.3516 37.926 83.3336 37.6023C82.1136 37.5969 80.8936 37.612 79.6748 37.5958C79.2721 37.5937 79.0306 37.17 79.0617 36.801C79.0701 35.3663 79.0498 33.9294 79.0712 32.4958ZM85.1902 32.3818C85.2894 31.6913 86.4656 31.6945 86.5564 32.3882C86.582 33.2884 86.5629 34.1907 86.5629 35.0921C87.3234 34.1101 88.0627 33.111 88.8254 32.1301C89.0914 31.7741 89.7131 31.7677 89.9662 32.1431C90.1179 32.371 90.0869 32.6614 90.0945 32.9239C90.0827 34.2854 90.1062 35.6481 90.0837 37.0097C90.0881 37.5883 89.3221 37.8486 88.9141 37.5012C88.7014 37.3388 88.6737 37.0548 88.6758 36.8075C88.6758 36.0267 88.678 35.2459 88.6769 34.465C87.9152 35.4545 87.1653 36.4548 86.3856 37.4291C86.0223 37.8787 85.1506 37.6184 85.1805 37.0075C85.1826 35.4663 85.1646 33.923 85.1902 32.3818ZM93.0546 32.4979C93.1165 32.1441 93.3943 31.8279 93.7777 31.8698C94.1581 31.829 94.4444 32.142 94.5008 32.4979C95.0938 32.4259 95.7413 32.5323 96.194 32.9528C97.2473 33.8499 97.2133 35.718 96.115 36.5666C95.6696 36.9376 95.0607 37.0387 94.4998 36.9538C94.4881 37.4173 94.0255 37.7744 93.5801 37.6302C93.2575 37.5721 93.0961 37.2517 93.0556 36.9538C92.419 37.0602 91.7279 36.8893 91.2728 36.4128C90.2974 35.4771 90.3871 33.6713 91.4757 32.8593C91.9221 32.5119 92.5066 32.4356 93.0546 32.4979ZM92.3998 34.0058C91.9276 34.351 91.9415 35.1566 92.4242 35.4857C92.6154 35.6416 92.8687 35.6492 93.1036 35.6632C93.1155 35.0404 93.11 34.4188 93.108 33.7972C92.8602 33.8122 92.5878 33.8176 92.3998 34.0058ZM94.4496 33.8015C94.4444 34.422 94.439 35.0425 94.4529 35.6632C94.8983 35.6976 95.3758 35.4406 95.4741 34.9769C95.6675 34.3554 95.0821 33.7036 94.4496 33.8015ZM104.051 31.8763C104.849 31.7139 105.736 31.8613 106.364 32.4087C107.679 33.4788 107.761 35.6868 106.608 36.9065C105.637 37.9453 103.804 37.968 102.8 36.9656C101.617 35.803 101.627 33.6294 102.851 32.5011C103.185 32.1872 103.604 31.9698 104.051 31.8763ZM104.287 33.1992C103.321 33.5627 103.191 34.8909 103.596 35.7212C103.941 36.4934 105.13 36.601 105.617 35.9213C106.057 35.2889 106.073 34.3854 105.691 33.7218C105.426 33.2357 104.802 33.0164 104.287 33.1992ZM114.236 32.1076C114.618 31.6698 115.418 31.7247 115.724 32.228C115.88 32.4969 115.961 32.8012 116.069 33.0927C116.492 34.2672 116.908 35.4437 117.332 36.6182C117.407 36.8365 117.463 37.0882 117.355 37.3066C117.135 37.7733 116.353 37.7722 116.136 37.3044C116.025 37.0537 115.957 36.7871 115.877 36.5257C115.244 36.5267 114.613 36.5267 113.981 36.5257C113.889 36.8107 113.826 37.1108 113.682 37.3764C113.427 37.755 112.8 37.7443 112.536 37.3797C112.352 37.1613 112.401 36.8451 112.498 36.601C112.978 35.291 113.461 33.9821 113.939 32.6712C114.013 32.4722 114.095 32.27 114.236 32.1076ZM114.916 33.6391C114.732 34.1585 114.559 34.6834 114.401 35.2115C114.749 35.2093 115.099 35.2093 115.448 35.2082C115.265 34.6866 115.149 34.1413 114.916 33.6391ZM125.122 32.4517C125.15 31.8817 125.906 31.6924 126.298 32.0226C126.452 32.1699 126.526 32.3872 126.519 32.6001C126.523 33.4272 126.517 34.2553 126.518 35.0835C127.27 34.0962 128.015 33.1046 128.773 32.1248C129.112 31.6472 130.038 31.8558 130.015 32.4915C130.02 33.9972 130.02 35.504 130.015 37.0097C130.046 37.4539 129.545 37.7464 129.153 37.6367C128.858 37.5851 128.628 37.3087 128.632 37.0086C128.622 36.1601 128.635 35.3114 128.628 34.464C127.875 35.4276 127.14 36.4063 126.385 37.3678C126.123 37.7367 125.516 37.7528 125.244 37.3904C125.062 37.1204 125.109 36.7795 125.102 36.472C125.12 35.1319 125.077 33.7896 125.122 32.4517ZM97.4887 32.6023C97.4492 32.2581 97.7109 31.9247 98.0613 31.914C98.5944 31.887 99.1297 31.9011 99.6626 31.9075C100.3 31.9247 100.948 32.2258 101.307 32.769C101.629 33.24 101.682 33.8563 101.554 34.4037C101.376 35.1286 100.713 35.6814 99.9842 35.7782C99.6167 35.8202 99.246 35.7954 98.8787 35.7997C98.8497 36.2794 98.9416 36.7753 98.8283 37.2452C98.618 37.8518 97.5764 37.7615 97.5006 37.1119C97.4738 35.6094 97.4984 34.1058 97.4887 32.6023ZM98.8787 33.1927C98.8775 33.6412 98.8775 34.0897 98.8787 34.5382C99.2236 34.5146 99.6231 34.6167 99.9213 34.3908C100.31 34.1005 100.222 33.3756 99.7525 33.2228C99.464 33.1669 99.1692 33.197 98.8787 33.1927ZM108.209 32.0753C108.507 31.8365 108.914 31.915 109.267 31.9011C109.9 31.9236 110.614 31.7913 111.159 32.2022C111.892 32.698 111.946 33.8886 111.275 34.4618C111.67 34.6522 112.018 34.9824 112.138 35.418C112.287 36.0751 112.106 36.8494 111.535 37.2517C110.916 37.7206 110.1 37.5818 109.377 37.6023C109.031 37.5818 108.657 37.6679 108.335 37.5098C108.078 37.3775 107.978 37.0774 107.988 36.8032C107.98 35.475 107.99 34.1456 107.983 32.8174C107.982 32.5582 108.001 32.2592 108.209 32.0753ZM109.401 33.1906C109.4 33.4788 109.4 33.7671 109.401 34.0563C109.681 34.0348 110.025 34.1262 110.244 33.8961C110.396 33.7036 110.369 33.3444 110.119 33.2454C109.892 33.1508 109.638 33.2035 109.401 33.1906ZM109.401 35.3437C109.401 35.675 109.4 36.0073 109.401 36.3386C109.742 36.33 110.094 36.373 110.427 36.2773C110.772 36.1589 110.873 35.5878 110.521 35.419C110.168 35.2738 109.771 35.3674 109.401 35.3437ZM118.5 32.2269C119.154 31.8086 119.962 31.9193 120.698 31.9C121.02 31.914 121.386 31.843 121.663 32.0538C121.852 32.2076 121.88 32.4689 121.875 32.698C121.868 34.1381 121.878 35.5793 121.869 37.0204C121.878 37.456 121.4 37.7528 121.004 37.6356C120.718 37.5883 120.482 37.3216 120.487 37.0269C120.473 36.5601 120.49 36.0933 120.482 35.6277C119.997 36.2117 119.523 36.8065 119.037 37.3893C118.793 37.6969 118.283 37.755 118.004 37.4646C117.753 37.2484 117.682 36.8215 117.907 36.5634C118.274 36.1245 118.686 35.7277 119.064 35.2986C118.528 35.148 118.013 34.7823 117.866 34.2155C117.706 33.5143 117.859 32.641 118.5 32.2269ZM119.552 33.2884C119.144 33.4444 119.171 34.1166 119.579 34.2596C119.872 34.336 120.183 34.2822 120.484 34.2951C120.484 33.9359 120.484 33.5767 120.484 33.2175C120.173 33.2261 119.851 33.1874 119.552 33.2884ZM73.3027 40.376C73.651 39.9759 74.4436 40.12 74.5323 40.6803C74.5739 41.2117 74.5376 41.7473 74.5493 42.2818C75.201 42.2818 75.9145 42.2054 76.4871 42.5905C77.2798 43.0755 77.4016 44.2069 77.0223 44.9953C76.7297 45.59 76.047 45.9063 75.4071 45.8858C74.8367 45.874 74.2663 45.9019 73.6969 45.8729C73.3166 45.8331 73.1126 45.4363 73.1361 45.0835C73.1286 43.7886 73.1393 42.4926 73.1318 41.1977C73.1361 40.9191 73.12 40.6062 73.3027 40.376ZM74.5493 43.5422C74.5493 43.9015 74.5493 44.2607 74.5504 44.621C74.8186 44.6146 75.091 44.6436 75.358 44.5941C75.7126 44.5296 75.922 44.0187 75.655 43.7509C75.3687 43.4541 74.9158 43.566 74.5493 43.5422ZM78.0191 40.1899C78.285 40.1103 78.613 40.1426 78.8053 40.3663C78.9933 40.5577 78.9826 40.8449 78.9847 41.0955C78.974 42.4894 78.9954 43.8843 78.9751 45.2782C78.9922 45.6976 78.5712 46.0117 78.1749 45.9364C77.799 45.9213 77.5405 45.5524 77.5693 45.1921C77.5661 43.7531 77.565 42.313 77.5693 40.8739C77.5575 40.5792 77.7231 40.2706 78.0191 40.1899ZM85.3911 40.2093C86.2786 39.962 87.316 40.133 87.9911 40.7944C89.1714 41.8559 89.2409 43.88 88.2303 45.077C87.3245 46.1891 85.4946 46.2977 84.4327 45.3567C83.1134 44.2113 83.1092 41.8688 84.4391 40.7298C84.7136 40.4889 85.0405 40.3082 85.3911 40.2093ZM85.813 41.4892C84.8451 41.8441 84.7073 43.1798 85.1153 44.0069C85.4614 44.7877 86.658 44.8921 87.1439 44.2005C87.5765 43.5735 87.5926 42.6743 87.2155 42.0183C86.9485 41.5289 86.33 41.3128 85.813 41.4892ZM95.5189 40.8062C95.6547 40.4148 96.0125 40.077 96.4462 40.1006C96.8788 40.0813 97.2612 40.3932 97.3809 40.804C97.8884 42.2291 98.4096 43.6498 98.9043 45.0803C99.0934 45.5481 98.6329 46.0472 98.1564 45.9331C97.6031 45.8912 97.5497 45.2449 97.397 44.8329C96.7646 44.835 96.1322 44.835 95.4997 44.8329C95.4046 45.1082 95.3373 45.3954 95.206 45.6567C94.9165 46.1073 94.142 46.0052 93.9637 45.5029C93.8675 45.2061 94.0074 44.9157 94.1067 44.6425C94.5832 43.3659 95.0424 42.0828 95.5189 40.8062ZM96.4376 41.9204C96.2444 42.4367 96.0969 42.9701 95.9206 43.4928C96.2689 43.4907 96.6181 43.4907 96.9675 43.4896C96.7848 42.9679 96.6598 42.4259 96.4376 41.9204ZM114.73 40.4674C114.958 40.0888 115.576 40.0318 115.856 40.3792C116.194 40.7837 116.462 41.2428 116.777 41.6645C117.078 41.2493 117.354 40.8148 117.666 40.4061C117.919 40.0749 118.469 40.062 118.745 40.3717C118.984 40.6158 118.961 41.0342 118.753 41.2923C118.376 41.8193 117.984 42.3356 117.607 42.8636C118.096 43.5057 118.574 44.1564 119.05 44.8082C119.233 45.0565 119.264 45.432 119.069 45.6836C118.802 46.0202 118.218 46.0396 117.954 45.69C117.542 45.1609 117.174 44.5995 116.776 44.0596C116.387 44.592 116.019 45.1394 115.622 45.6664C115.342 46.0697 114.638 46.0278 114.418 45.5846C114.296 45.2943 114.37 44.9491 114.569 44.7124C115.025 44.0908 115.49 43.4767 115.941 42.8518C115.554 42.3183 115.156 41.7924 114.775 41.2557C114.604 41.032 114.577 40.7073 114.73 40.4674ZM119.662 40.7718C119.668 40.2599 120.291 40.0006 120.708 40.2265C120.957 40.3394 121.057 40.6255 121.065 40.8837C121.083 41.3752 121.065 41.8688 121.071 42.3614C121.765 42.3614 122.459 42.3603 123.153 42.3614C123.173 41.801 123.114 41.2353 123.185 40.6793C123.267 40.1189 124.07 39.9727 124.409 40.3814C124.589 40.5739 124.57 40.8546 124.572 41.0998C124.564 42.5001 124.577 43.9015 124.566 45.3018C124.572 45.8181 123.945 46.0923 123.525 45.8708C123.265 45.7557 123.16 45.461 123.159 45.1953C123.144 44.6899 123.16 44.1843 123.154 43.6789C122.46 43.6789 121.765 43.6778 121.071 43.68C121.053 44.2521 121.111 44.8286 121.04 45.3986C120.978 45.9901 120.113 46.1278 119.789 45.6804C119.632 45.4782 119.655 45.2115 119.654 44.9727C119.664 43.5724 119.645 42.1721 119.662 40.7718ZM125.72 40.248C126.137 39.9888 126.81 40.2469 126.803 40.7858C126.829 41.644 126.805 42.5044 126.813 43.3638C127.554 42.3915 128.289 41.4128 129.036 40.4448C129.286 40.0749 129.88 40.048 130.166 40.3867C130.337 40.5792 130.308 40.8556 130.314 41.0955C130.305 42.498 130.318 43.9015 130.308 45.305C130.32 45.6944 129.931 45.9923 129.561 45.9407C129.223 45.9428 128.903 45.6524 128.925 45.3018C128.916 44.4489 128.926 43.5961 128.923 42.7442C128.158 43.7208 127.419 44.7178 126.645 45.6868C126.298 46.1644 125.4 45.9353 125.406 45.3126C125.385 43.8703 125.405 42.4259 125.397 40.9826C125.385 40.7083 125.453 40.3835 125.72 40.248ZM131.143 40.8783C131.122 40.5148 131.424 40.1501 131.797 40.1544C132.157 40.1028 132.545 40.3867 132.549 40.7664C132.569 41.2224 132.546 41.6784 132.557 42.1345C133.133 41.544 133.674 40.9191 134.255 40.3319C134.594 39.9964 135.234 40.148 135.381 40.6073C135.509 40.9331 135.291 41.2526 135.074 41.4774C134.62 41.9505 134.148 42.4055 133.673 42.8572C134.256 43.4971 134.877 44.1015 135.453 44.7479C135.687 44.9964 135.783 45.4276 135.534 45.6998C135.25 46.0396 134.698 46.002 134.416 45.6783C133.779 45.0211 133.165 44.3382 132.553 43.6574C132.545 44.237 132.575 44.8178 132.541 45.3965C132.468 45.9428 131.711 46.116 131.345 45.7557C131.147 45.589 131.137 45.3104 131.137 45.0727C131.144 43.6745 131.133 42.2764 131.143 40.8783ZM137.77 40.4341C138.061 40.0533 138.648 40.0039 139.036 40.2577C139.262 40.4094 139.376 40.6696 139.469 40.9181C139.946 42.2571 140.424 43.595 140.905 44.9329C140.996 45.1727 141.039 45.4717 140.86 45.6836C140.608 46.0418 139.992 46.0289 139.745 45.6761C139.608 45.4093 139.537 45.1157 139.439 44.8339C138.806 44.8361 138.174 44.8339 137.543 44.835C137.428 45.1427 137.381 45.4889 137.177 45.7546C136.843 46.089 136.164 45.9686 136.013 45.5008C135.921 45.2932 135.996 45.0685 136.068 44.8684C136.513 43.6681 136.952 42.4668 137.392 41.2644C137.499 40.9804 137.585 40.6793 137.77 40.4341ZM138.492 41.8645C138.308 42.4033 138.146 42.9497 137.963 43.4896C138.313 43.4907 138.661 43.4907 139.011 43.4917C138.839 42.9486 138.668 42.4055 138.492 41.8645ZM68.6815 40.3523C68.8802 40.1674 69.1686 40.2179 69.4154 40.2082C70.1621 40.2265 70.912 40.1813 71.6576 40.2297C72.2537 40.3534 72.2387 41.3601 71.6512 41.4924C71.0562 41.5752 70.4484 41.5053 69.8491 41.5279C69.8491 41.7967 69.8491 42.0656 69.8501 42.3345C70.614 42.3366 71.4825 42.2721 72.1073 42.8023C72.7109 43.3325 72.7675 44.3016 72.4407 44.9996C72.1426 45.5976 71.4536 45.9116 70.8084 45.8858C70.2059 45.874 69.6012 45.9019 68.9987 45.8729C68.6152 45.8438 68.4069 45.4384 68.4336 45.0867C68.4336 43.7187 68.4336 42.3506 68.4336 40.9826C68.4272 40.7492 68.4839 40.4954 68.6815 40.3523ZM69.8491 43.6262C69.8491 43.9564 69.8491 44.2876 69.8491 44.6199C70.1867 44.6059 70.536 44.6662 70.8639 44.5683C71.2058 44.4576 71.3179 43.9069 70.9836 43.7241C70.6289 43.5595 70.2262 43.6423 69.8491 43.6262ZM79.6641 41.4289C79.2016 41.146 79.3276 40.2813 79.8906 40.2201C80.8862 40.1986 81.885 40.2125 82.8817 40.2125C83.4563 40.1953 83.6711 41.0278 83.2629 41.3762C82.9404 41.6246 82.5078 41.4999 82.1339 41.5279C82.1275 42.7884 82.1467 44.051 82.1253 45.3115C82.1286 45.7449 81.6638 46.0289 81.2686 45.9277C80.9161 45.8858 80.6918 45.5255 80.7206 45.1856C80.7152 43.9661 80.7206 42.7464 80.7185 41.5279C80.3692 41.5053 79.9867 41.601 79.6641 41.4289ZM89.7387 40.3642C90.0335 40.1189 90.4405 40.2341 90.7898 40.2093C91.4158 40.2469 92.1283 40.0706 92.6678 40.4846C93.4092 40.9729 93.4711 42.1796 92.7961 42.7528C93.2138 42.9486 93.5823 43.3122 93.6741 43.7811C93.7435 44.2457 93.6976 44.7555 93.4295 45.1534C93.1144 45.6341 92.529 45.8826 91.9693 45.8837C91.4319 45.8869 90.8946 45.8804 90.3573 45.8858C90.135 45.8912 89.8882 45.874 89.7226 45.7062C89.5208 45.5234 89.5069 45.2298 89.5036 44.977C89.5048 43.6832 89.5048 42.3894 89.5036 41.0966C89.5079 40.8395 89.5145 40.5341 89.7387 40.3642ZM90.9202 41.4698C90.919 41.758 90.9202 42.0473 90.9202 42.3366C91.121 42.3345 91.3229 42.3431 91.5248 42.3237C91.8228 42.2786 91.9755 41.8462 91.7577 41.6311C91.544 41.4009 91.198 41.4946 90.9202 41.4698ZM90.9202 43.6251C90.9202 43.9564 90.9202 44.2876 90.9202 44.6189C91.2651 44.6027 91.6296 44.6737 91.9628 44.5586C92.3057 44.4274 92.373 43.8778 92.0354 43.6993C91.6797 43.5692 91.2897 43.6412 90.9202 43.6251ZM99.6018 40.9417C99.9223 40.4158 100.573 40.2103 101.156 40.2093C101.722 40.2147 102.289 40.1996 102.857 40.2158C103.184 40.2265 103.417 40.5534 103.391 40.8686C103.387 42.3775 103.407 43.8886 103.38 45.3975C103.309 46.0708 102.218 46.1353 102.035 45.5029C101.96 44.9792 102.025 44.4446 102 43.9176C101.503 44.5199 101.018 45.1329 100.511 45.7266C100.206 46.0665 99.5762 45.9966 99.3775 45.575C99.245 45.3265 99.2685 44.991 99.4746 44.791C99.8369 44.3844 100.216 43.995 100.583 43.5928C100.067 43.4391 99.5645 43.0938 99.4009 42.5539C99.2578 42.0204 99.3219 41.4193 99.6018 40.9417ZM101.083 41.5709C100.68 41.729 100.683 42.3711 101.075 42.5421C101.372 42.6464 101.694 42.5915 102.003 42.6034C102.003 42.2452 102.003 41.886 102.003 41.5279C101.698 41.5397 101.38 41.4859 101.083 41.5709ZM106.533 41.4591C106.018 41.2181 106.112 40.2857 106.7 40.2201C107.738 40.204 108.778 40.2018 109.815 40.2212C110.383 40.333 110.458 41.2407 109.935 41.4687C109.618 41.5763 109.274 41.5139 108.947 41.5279C108.943 42.7927 108.955 44.0574 108.941 45.3222C108.933 45.8761 108.206 46.1213 107.802 45.8094C107.569 45.6481 107.532 45.3373 107.53 45.0759C107.531 43.8929 107.531 42.7099 107.531 41.5279C107.199 41.5107 106.849 41.5838 106.533 41.4591ZM110.682 40.9826C110.663 40.6535 110.836 40.2631 111.198 40.2212C111.801 40.1899 112.407 40.2222 113.011 40.2082C113.26 40.2201 113.555 40.1556 113.751 40.3545C114.13 40.6847 113.968 41.4386 113.446 41.5085C112.996 41.5526 112.546 41.515 112.096 41.5311C112.097 41.8075 112.098 42.0839 112.098 42.3614C112.57 42.3861 113.058 42.299 113.521 42.4206C114.006 42.6442 113.995 43.4164 113.507 43.6315C113.046 43.7316 112.566 43.6563 112.098 43.6789C112.097 43.9736 112.097 44.2704 112.098 44.5662C112.593 44.5834 113.094 44.5253 113.586 44.5985C114.196 44.7425 114.152 45.7793 113.535 45.8729C112.823 45.8998 112.111 45.8761 111.4 45.8847C111.017 45.9224 110.649 45.5857 110.684 45.1953C110.682 43.7907 110.684 42.3861 110.682 40.9826Z" fill="#312D2D"/>
</g>
<defs>
<clipPath id="clip0_1098_6195">
<rect width="73" height="38" fill="white" transform="translate(68 8)"/>
</clipPath>
</defs>
</svg>
