<svg width="209" height="54" viewBox="0 0 209 54" fill="none" xmlns="http://www.w3.org/2000/svg">
<path d="M78.0001 26.3729C81.4415 27.0423 82.7491 23.1706 83.544 20.5881C84.542 17.3424 85.1361 9.70851 88.6717 8.29743C94.1215 6.12192 94.7784 16.5594 91.4018 17.6027C89.2177 18.2783 88.5043 16.0966 87.6445 14.6876C87.565 14.5574 87.5817 14.0327 87.2093 14.3901C86.9039 14.6835 85.5671 21.3257 85.1215 22.557C84.6549 23.8524 84.0629 24.9556 83.2428 26.0651C86.2763 27.7034 87.8809 30.4285 89.0273 33.5585C89.7261 35.4675 91.042 42.2791 92.2784 43.1778C92.9751 43.684 93.701 43.6055 94.4353 43.9175L94.5253 45.9979H85.7386C85.1194 43.1282 84.6361 40.2069 83.9227 37.3579C83.3767 35.1803 82.4311 30.6702 80.3725 29.5009C79.8704 29.2158 78.4164 28.7013 77.998 29.16V40.9362C77.998 41.0023 78.3076 42.0704 78.3704 42.2213C78.9227 43.5167 80.134 43.4919 81.316 43.9608L81.3453 45.9979H69.0021L69.0293 43.9588C71.6548 43.4733 72.1737 43.1985 72.3578 40.5313C72.9582 31.8933 71.8912 22.5818 72.3452 13.8736C72.1214 11.6774 70.9749 11.2559 69.0293 10.6403L69 8.6032H81.3432L81.3223 10.6485C80.6884 10.8262 79.113 11.1341 78.6821 11.5535C78.5022 11.7291 77.9959 13.2434 77.9959 13.4583V26.3709L78.0001 26.3729Z" fill="#312D2D"/>
<path d="M138.042 8.60526V19.3485L136.586 19.3382C136.438 18.0304 135.994 16.7453 135.534 15.5223C135.074 14.2992 133.86 11.0845 132.287 11.0845H126.743V24.3069C131.54 23.6189 136.586 24.2263 138.848 28.9844C141.126 33.7796 140.145 42.6572 134.835 45.2108C134.54 45.3533 132.678 46 132.496 46H117.538L117.565 43.9608C118.797 43.5766 120.245 43.6799 120.724 42.2233L120.866 13.2703C120.624 11.5844 119.023 11.039 117.567 10.6403L117.538 8.6032H138.04L138.042 8.60526ZM126.745 26.9927V41.7647C126.745 41.8329 127.258 42.6551 127.387 42.7832C128.484 43.8575 130.373 43.6985 131.45 42.6923C134.078 40.2379 134.088 32.4635 132.509 29.4595C131.41 27.3687 129.051 26.3399 126.743 26.9927H126.745Z" fill="#312D2D"/>
<path d="M108.649 40.835C108.017 40.1057 107.628 39.2235 107.124 38.4157C107.025 38.2566 107.193 38.0645 106.77 38.1512C103.507 42.932 96.5462 42.715 95.2491 36.5088C94.3558 32.228 96.086 28.3976 99.7408 26.032C98.1383 22.4537 96.427 18.4353 99.0818 14.8611C101.774 11.2374 107.607 12.3303 108.126 16.9726C108.484 20.1728 107.134 22.7016 104.835 24.8214L108.965 32.1577C109.368 32.4615 111.588 26.8419 110.582 25.8048C109.816 25.0156 107.994 25.6126 108.544 23.4805H116.285L116.258 24.8999C111.942 25.2077 112.007 30.7487 110.057 33.6742C111.544 36.3414 113.18 39.2338 116.693 39.1925L116.703 40.835H108.649ZM103.678 14.6277C100.479 15.2082 102.77 21.617 104.046 23.2698C106.417 22.119 106.925 14.0389 103.678 14.6277ZM100.801 27.4059C99.1111 29.003 99.0065 32.7466 99.6634 34.8332C100.578 37.7401 103.724 39.2772 106 36.7753L100.801 27.4059Z" fill="#312D2D"/>
</svg>
