<svg width="209" height="54" viewBox="0 0 209 54" fill="none" xmlns="http://www.w3.org/2000/svg">
<path d="M112.911 7.57471H39.8633V46.5667H112.911V7.57471Z" fill="white"/>
<path d="M39.2871 7V47.1434H171.246V7H39.2871ZM112.91 46.5672H39.8633V7.57522H112.911V46.5672H112.91Z" fill="#312D2D"/>
<path d="M53.4841 27.3276H49.4797C49.3094 26.485 49.1382 25.6424 48.9651 24.7959C48.7939 23.9532 48.613 23.1731 48.4226 22.4517C48.0666 21.081 47.6367 19.3707 45.9129 19.3707V24.7622C45.9129 25.7655 46.4227 26.2782 47.4126 26.3676V27.3276H41.7681V26.3676C42.804 26.3321 43.3004 25.9492 43.3004 24.8709V12.5411C43.3004 11.5446 42.7377 11.0156 41.7681 10.8559V9.90071H47.4126V10.8559C46.4035 10.9694 45.9129 11.357 45.9129 12.4151V18.2135H46.39C46.5863 18.2135 46.7921 18.1674 47.0057 18.0712C47.2192 17.9788 47.4097 17.7903 47.5838 17.5008C47.9358 16.9226 48.2013 16.3311 48.3773 15.7395C48.5534 15.1441 48.7063 14.5361 48.8352 13.9157C48.9805 13.228 49.1142 12.646 49.2325 12.1631C49.3498 11.685 49.5836 11.1656 49.9308 10.5991C50.1049 10.3105 50.3146 10.0835 50.5638 9.9161C50.8148 9.74873 51.089 9.66504 51.3872 9.66504C51.8797 9.66504 52.2663 9.87377 52.5511 10.2932C52.7685 10.6116 52.8935 10.9982 52.9474 11.4513C52.9637 11.5898 52.9743 11.7351 52.9782 11.8861C53.0301 14.4121 50.5811 14.5794 50.2127 12.4767C50.0645 12.7326 49.9366 13.1221 49.826 13.6512C49.7154 14.1793 49.6134 14.641 49.5201 15.0306C49.3296 15.8443 49.143 16.46 48.9603 16.8794C48.7794 17.3026 48.5707 17.6508 48.335 17.9317V18.1539C49.0238 18.4559 49.5903 18.9552 50.0434 19.6506C50.4955 20.347 50.86 21.1935 51.1409 22.191C51.2612 22.6268 51.3891 23.0885 51.5199 23.5743C51.6488 24.061 51.7642 24.4756 51.8614 24.819C52.1557 25.8588 52.4481 26.2436 53.487 26.3657V27.3276H53.4841ZM77.4078 18.4502C77.478 18.7782 77.6175 19.0321 77.8224 19.2033C78.3341 19.6314 79.1931 19.5381 79.5576 18.9657C79.7693 18.6339 79.8741 18.203 79.8741 17.6701C79.8741 16.9534 79.5827 16.1724 79.093 15.6395C78.5688 15.0729 77.8551 14.7882 76.9528 14.7882C76.3093 14.7882 75.7215 14.9642 75.1896 15.3211C74.6567 15.6779 74.2123 16.155 73.8526 16.7553C73.5063 17.3334 73.2292 18.0086 73.0263 18.7801C72.8233 19.5515 72.7204 20.3605 72.7204 21.2118C72.7204 22.1468 72.8031 23.0096 72.9715 23.8022C73.1369 24.5987 73.3908 25.2865 73.7275 25.8655C74.0671 26.4398 74.499 26.8928 75.0213 27.2237C75.5436 27.5556 76.1438 27.723 76.8268 27.723C77.2491 27.723 77.6184 27.6345 77.9378 27.4633C78.2562 27.292 78.5707 27.04 78.8795 26.7053C79.1738 26.3821 79.4278 26.0175 79.6384 25.602C79.8501 25.1912 80.0309 24.7343 80.1838 24.2351L79.6308 23.5945C79.3797 24.3399 79.0959 24.9152 78.7737 25.3211C78.4524 25.728 78.0176 25.929 77.4751 25.929C76.9047 25.929 76.4151 25.4846 76.0053 24.592C75.5955 23.6993 75.3897 22.5248 75.3897 21.0666C75.3897 20.0979 75.4378 19.2726 75.5282 18.5848C75.6186 17.8971 75.7389 17.3478 75.8918 16.9371C76.0476 16.5052 76.2179 16.2031 76.3997 16.0319C76.5805 15.8597 76.7816 15.7712 77.0028 15.7712C77.8002 15.7712 77.5607 16.6187 77.4597 17.1208C77.3712 17.5594 77.3174 18.0009 77.4078 18.4502ZM62.6983 21.3455C62.6983 23.4771 61.8768 27.647 59.0324 27.647C58.563 27.647 58.1782 27.5681 57.8849 27.4084C57.5915 27.2487 57.3472 27.0564 57.1557 26.8255H57.098V30.2759C57.098 30.5616 57.1355 30.8126 57.2106 31.0271C57.2866 31.2407 57.3943 31.3955 57.5328 31.4917C57.6636 31.585 57.8522 31.6639 58.0955 31.7399C58.337 31.8111 58.5399 31.8573 58.7006 31.8746V32.7836H53.3879V31.8746C53.5111 31.8573 53.6669 31.8274 53.8535 31.7813C54.0391 31.7351 54.1796 31.6899 54.2729 31.6389C54.4287 31.5514 54.5374 31.3955 54.5913 31.1772C54.649 30.9627 54.6769 30.7155 54.6769 30.4356V17.8701C54.6298 17.0169 54.3219 16.3349 53.4033 16.2137V15.3163L56.9884 14.9969L57.099 15.1566V16.5196L57.1567 16.5446C57.4809 15.9954 57.8406 15.5673 58.234 15.2662C58.6313 14.9642 59.0209 14.8132 59.4104 14.8132C62.2837 14.8132 62.6983 19.3409 62.6983 21.3455ZM60.0578 21.3955C60.0578 20.3268 60.0463 16.6783 58.3649 16.6783C57.7204 16.6783 57.3568 17.1343 57.099 17.672V24.6352C57.2279 25.3355 57.5501 26.5389 58.4524 26.5389C60.0828 26.5398 60.0578 22.3122 60.0578 21.3955ZM72.0596 27.0679C71.8431 27.2266 71.5873 27.3699 71.2939 27.4998C70.9995 27.6297 70.6879 27.696 70.3589 27.696C69.7558 27.696 69.3114 27.546 69.0276 27.2478C68.741 26.9506 68.5476 26.5225 68.4447 25.9656H68.4024C68.234 26.2426 68.0724 26.4811 67.9195 26.6783C67.7637 26.8746 67.5982 27.0429 67.4222 27.1805C67.1913 27.3613 66.9701 27.495 66.7566 27.5787C66.543 27.6681 66.2439 27.7095 65.862 27.7095C65.2916 27.7095 64.8068 27.4277 64.4047 26.8669C64.0026 26.3051 63.7996 25.5635 63.7996 24.6362C63.7996 24.1043 63.8449 23.6551 63.9333 23.2818C64.0209 22.9086 64.1459 22.5777 64.3104 22.293C64.4557 22.0285 64.6269 21.8149 64.8202 21.6427C65.0136 21.4715 65.2271 21.308 65.458 21.1608C65.8976 20.8924 66.4276 20.6116 67.0451 20.322C67.6656 20.0287 68.1148 19.7689 68.4024 19.5429V18.3607C68.4024 18.1549 68.3918 17.8865 68.3726 17.5517C68.3524 17.216 68.3091 16.9313 68.2466 16.7053C68.1792 16.4407 68.0705 16.2233 67.9224 16.0425C67.7733 15.8626 67.5809 15.7703 67.3424 15.7703C67.1259 15.7703 66.9451 15.8213 66.7998 15.9251C66.3776 16.2214 66.4795 16.763 66.5834 17.2843C66.669 17.7133 66.7008 18.049 66.6142 18.479C66.544 18.808 66.4035 19.061 66.1986 19.2332C65.6879 19.6612 64.8279 19.5669 64.4634 18.9956C64.2527 18.6647 64.1469 18.2328 64.1469 17.6999C64.1469 16.8447 64.6019 16.0733 65.2733 15.5615C65.5821 15.3191 65.9389 15.1258 66.34 14.9911C66.7421 14.8574 67.1163 14.7901 67.4607 14.7901C67.9349 14.7901 68.3726 14.8363 68.7689 14.9286C69.1661 15.0248 69.5249 15.2172 69.8443 15.5154C70.1473 15.8011 70.3887 16.2156 70.5667 16.7601C70.7475 17.3055 70.8351 18.0135 70.8351 18.8898C70.8351 19.8161 70.8254 20.9146 70.8033 22.1804C70.7802 23.4511 70.7706 24.2851 70.7706 24.6872C70.7706 25.0566 70.8033 25.3461 70.8687 25.5596C70.9361 25.7732 71.0371 25.9329 71.1746 26.0377C71.2573 26.105 71.3881 26.1416 71.569 26.1551C71.7479 26.1676 71.9105 26.1753 72.0596 26.1753V27.0679ZM68.4024 20.6702C68.1263 20.8251 67.8541 21.006 67.5828 21.207C67.3145 21.4042 67.0932 21.6177 66.922 21.8361C66.7383 22.0669 66.5978 22.3603 66.4949 22.7172C66.392 23.0741 66.3391 23.4925 66.3391 23.9744C66.3391 24.616 66.4276 25.0768 66.6007 25.3624C66.7768 25.651 66.9903 25.7943 67.2462 25.7943C67.5145 25.7943 67.7358 25.702 67.9118 25.5173C68.0859 25.3326 68.2389 25.1066 68.3726 24.8344L68.4024 20.6702ZM90.4503 27.3276H85.9765V26.4302C86.0592 26.4052 86.1621 26.3753 86.2852 26.3378C86.4084 26.3003 86.519 26.233 86.6171 26.1368C86.7345 26.0185 86.8153 25.8809 86.8633 25.7135C86.9086 25.5452 86.9336 25.3028 86.9336 24.9796V21.4581H84.1806V24.9796C84.1806 25.2682 84.2056 25.5029 84.2527 25.6924C84.3027 25.8809 84.3835 26.0281 84.4971 26.1368C84.575 26.208 84.6731 26.2705 84.7885 26.3215C84.9039 26.3676 85.0194 26.4052 85.1377 26.4302V27.3276H80.6638V26.4302C80.785 26.4129 80.9101 26.3926 81.0361 26.3628C81.1592 26.334 81.267 26.2955 81.3555 26.2455C81.5132 26.157 81.6219 26.0156 81.6796 25.8309C81.7373 25.6424 81.7672 25.3952 81.7672 25.0931V17.3786C81.7672 17.0929 81.7373 16.8467 81.6748 16.6495C81.6142 16.4484 81.5094 16.3061 81.3564 16.2262C81.2285 16.1599 81.1102 16.1175 81.0024 16.0964C80.8937 16.0752 80.7831 16.0579 80.6658 16.0415V15.1441H85.1396V16.0415C85.0213 16.0627 84.9136 16.0964 84.8126 16.1339C84.7096 16.1666 84.6067 16.2339 84.499 16.3349C84.3807 16.4388 84.2979 16.5908 84.2527 16.787C84.2056 16.9842 84.1825 17.2189 84.1825 17.4873V20.3134H86.9355V17.4873C86.9355 17.2189 86.9124 16.9881 86.8672 16.7957C86.8249 16.6033 86.7421 16.4484 86.619 16.3349C86.5257 16.2426 86.418 16.1791 86.2977 16.1377C86.1765 16.0964 86.0717 16.0627 85.9784 16.0415V15.1441H90.4522V16.0415C90.306 16.0579 90.1829 16.0752 90.0857 16.1002C89.9876 16.1262 89.8799 16.1675 89.7616 16.2262C89.6183 16.2974 89.5153 16.4321 89.447 16.6245C89.3816 16.8178 89.3489 17.0689 89.3489 17.3796V25.0941C89.3489 25.3875 89.3797 25.6356 89.4393 25.8367C89.5019 26.0377 89.6077 26.1762 89.7606 26.2474C89.8789 26.3061 89.9819 26.3484 90.0723 26.3696C90.1627 26.3955 90.2906 26.4157 90.4513 26.4321V27.3276H90.4503ZM98.8478 16.5918C99.2123 17.1574 99.4884 17.8326 99.6789 18.6214C99.8703 19.4053 99.9655 20.2557 99.9655 21.1743C99.9655 22.0843 99.8732 22.9432 99.6846 23.7484C99.4932 24.5535 99.22 25.2451 98.8555 25.8194C98.4688 26.4311 98.0061 26.9005 97.4694 27.2324C96.9317 27.5594 96.316 27.723 95.6254 27.723C95.0271 27.723 94.4749 27.5796 93.9728 27.2911C93.4707 27.0054 93.0263 26.5744 92.6367 26.004C92.2645 25.4548 91.9711 24.7757 91.7547 23.9706C91.5382 23.1616 91.4305 22.2603 91.4305 21.2628C91.4305 20.2768 91.5257 19.4053 91.7143 18.6377C91.9028 17.8749 92.1866 17.191 92.5636 16.5918C92.9282 16.0213 93.3745 15.5769 93.9074 15.2624C94.4403 14.944 95.0357 14.7891 95.6908 14.7891C96.3795 14.7891 96.9817 14.944 97.504 15.2624C98.0263 15.5769 98.4765 16.0204 98.8478 16.5918ZM96.9634 25.1056C97.0721 24.6449 97.1519 24.0908 97.202 23.4329C97.2549 22.7788 97.2799 22.016 97.2799 21.1474C97.2799 20.5769 97.2549 19.92 97.2077 19.186C97.1567 18.4482 97.0846 17.8653 96.9865 17.4421C96.8682 16.9265 96.7046 16.5196 96.4969 16.2262C96.2891 15.929 96.0246 15.7818 95.7062 15.7818C95.357 15.7818 95.0809 15.9405 94.8722 16.2599C94.6644 16.5831 94.5028 16.9938 94.3903 17.5008C94.2874 17.9702 94.2143 18.5156 94.1767 19.1398C94.1363 19.7689 94.1171 20.4221 94.1171 21.1012C94.1171 21.9938 94.1344 22.7326 94.1691 23.3145C94.2046 23.9013 94.2874 24.489 94.4172 25.0796C94.5298 25.5866 94.6943 25.9896 94.9049 26.283C95.1165 26.5764 95.382 26.7235 95.7062 26.7235C95.9996 26.7235 96.2535 26.5898 96.4651 26.3128C96.6748 26.0406 96.8403 25.6385 96.9634 25.1056ZM108.825 24.3938C108.653 24.8584 108.446 25.299 108.204 25.7145C107.961 26.1252 107.684 26.4811 107.376 26.7745C107.047 27.0852 106.715 27.3238 106.379 27.4835C106.042 27.6422 105.658 27.722 105.22 27.722C104.494 27.722 103.866 27.5508 103.338 27.2064C102.811 26.863 102.376 26.3975 102.033 25.8184C101.691 25.2355 101.432 24.5487 101.264 23.7599C101.096 22.9673 101.01 22.1122 101.01 21.1858C101.01 20.3509 101.102 19.5506 101.286 18.783C101.469 18.0202 101.731 17.3363 102.07 16.7408C102.404 16.1579 102.823 15.6885 103.331 15.3278C103.839 14.968 104.409 14.7872 105.037 14.7872C105.723 14.7872 106.287 14.9257 106.727 15.2028C107.169 15.4836 107.536 15.8684 107.824 16.3599C108.103 16.8255 108.307 17.3747 108.435 18.0115C108.564 18.6445 108.627 19.3111 108.627 20.0075V20.804H103.653C103.653 22.4844 103.846 23.7589 104.234 24.6352C104.622 25.5115 105.238 25.9521 106.081 25.9521C106.541 25.9521 106.956 25.7424 107.325 25.3192C107.692 24.8959 108.006 24.363 108.267 23.7176L108.825 24.3938ZM106.014 19.7266C106.014 19.2322 105.999 18.7291 105.971 18.2135C105.941 17.6979 105.888 17.2786 105.816 16.9477C105.733 16.5658 105.618 16.2724 105.474 16.0752C105.328 15.8819 105.144 15.7818 104.926 15.7818C104.547 15.7818 104.246 16.1002 104.02 16.7418C103.794 17.3786 103.673 18.3886 103.653 19.7728L106.014 19.7266Z" fill="#312D2D"/>
<path fill-rule="evenodd" clip-rule="evenodd" d="M112.914 36.4619C112.535 36.6119 112.14 36.6869 111.727 36.6869C110.81 36.6869 110.06 36.3291 109.471 35.6163C108.886 34.9007 108.592 33.9753 108.592 32.8287C108.592 32.2574 108.644 31.7658 108.75 31.357C108.856 30.9492 109.026 30.5365 109.263 30.1277C109.489 29.7333 109.767 29.3793 110.102 29.0638C110.435 28.7493 110.809 28.453 111.227 28.1779C110.784 27.3718 110.478 26.6879 110.302 26.1242C110.128 25.5567 110.041 24.9776 110.041 24.3851C110.041 23.3693 110.334 22.5296 110.925 21.8678C111.483 21.2435 112.147 20.9116 112.913 20.8799V22.0188C112.794 22.0919 112.688 22.1967 112.596 22.3343C112.4 22.6277 112.301 23.0105 112.301 23.4838C112.301 23.8926 112.392 24.3591 112.573 24.8757C112.662 25.1325 112.776 25.4153 112.913 25.725V31.2281C112.439 30.4066 111.995 29.6188 111.581 28.8637C111.319 29.2321 111.132 29.6631 111.015 30.1517C110.902 30.6433 110.844 31.1348 110.844 31.6302C110.844 32.5709 111.053 33.3366 111.469 33.9292C111.855 34.4774 112.337 34.7727 112.912 34.8141V36.4619H112.914Z" fill="#312D2D"/>
<path d="M164.68 36.6035C164.68 36.1081 164.664 35.606 164.637 35.0894C164.607 34.5738 164.554 34.1554 164.481 33.8236C164.399 33.4426 164.283 33.1483 164.14 32.9511C163.994 32.7578 163.811 32.6577 163.592 32.6577C163.213 32.6577 162.912 32.9761 162.686 33.6177C162.46 34.2554 162.338 35.2655 162.318 36.6496L164.68 36.6035ZM167.49 41.2697C167.319 41.7353 167.11 42.1749 166.87 42.5894C166.627 43.0002 166.35 43.357 166.041 43.6504C165.712 43.9602 165.38 44.1987 165.043 44.3584C164.707 44.5181 164.323 44.5979 163.885 44.5979C163.159 44.5979 162.531 44.4257 162.004 44.0814C161.476 43.738 161.042 43.2724 160.698 42.6943C160.356 42.1123 160.098 41.4236 159.929 40.6358C159.761 39.8441 159.676 38.988 159.676 38.0617C159.676 37.2277 159.768 36.4265 159.952 35.6598C160.135 34.8961 160.396 34.2122 160.736 33.6167C161.071 33.0348 161.489 32.5654 161.998 32.2047C162.506 31.8439 163.075 31.6641 163.702 31.6641C164.388 31.6641 164.954 31.8016 165.393 32.0786C165.835 32.3595 166.202 32.7452 166.491 33.2358C166.769 33.7004 166.973 34.2497 167.102 34.8874C167.231 35.5204 167.291 36.186 167.291 36.8824V37.6798H162.318C162.318 39.3603 162.511 40.6348 162.898 41.5111C163.288 42.3874 163.902 42.828 164.747 42.828C165.207 42.828 165.621 42.6183 165.991 42.1951C166.357 41.7718 166.671 41.2399 166.932 40.5935L167.49 41.2697Z" fill="white"/>
<path d="M155.63 41.982C155.737 41.5212 155.817 40.9681 155.868 40.3092C155.92 39.6551 155.946 38.8923 155.946 38.0237C155.946 37.4543 155.921 36.7953 155.873 36.0624C155.823 35.3246 155.75 34.7417 155.652 34.3184C155.534 33.8019 155.371 33.396 155.162 33.1016C154.954 32.8044 154.69 32.6572 154.371 32.6572C154.022 32.6572 153.746 32.8169 153.537 33.1353C153.329 33.4585 153.168 33.8692 153.055 34.3752C152.953 34.8456 152.879 35.39 152.841 36.0152C152.801 36.6443 152.78 37.2984 152.78 37.9775C152.78 38.8702 152.799 39.608 152.833 40.1909C152.868 40.7777 152.952 41.3644 153.081 41.956C153.195 42.4629 153.358 42.866 153.569 43.1593C153.78 43.4527 154.046 43.5999 154.37 43.5999C154.664 43.5999 154.918 43.4652 155.128 43.1882C155.341 42.9179 155.507 42.5149 155.63 41.982ZM157.514 33.4671C157.878 34.0327 158.155 34.708 158.345 35.4958C158.536 36.2807 158.632 37.1311 158.632 38.0487C158.632 38.9596 158.538 39.8177 158.349 40.6228C158.158 41.4289 157.885 42.1195 157.521 42.6938C157.134 43.3056 156.672 43.775 156.135 44.1068C155.598 44.4329 154.981 44.5974 154.292 44.5974C153.693 44.5974 153.14 44.455 152.638 44.1655C152.135 43.8808 151.692 43.4489 151.301 42.8785C150.93 42.3302 150.635 41.6501 150.419 40.845C150.203 40.036 150.096 39.1337 150.096 38.1362C150.096 37.1513 150.191 36.2798 150.379 35.5112C150.567 34.7484 150.852 34.0654 151.228 33.4652C151.592 32.8948 152.04 32.4514 152.572 32.1359C153.105 31.8175 153.7 31.6626 154.356 31.6626C155.045 31.6626 155.647 31.8175 156.169 32.1359C156.692 32.4533 157.142 32.8977 157.514 33.4671Z" fill="white"/>
<path d="M136.585 36.6035C136.585 36.1082 136.57 35.606 136.543 35.0895C136.512 34.5739 136.459 34.1555 136.387 33.8236C136.304 33.4427 136.189 33.1484 136.045 32.9512C135.9 32.7578 135.716 32.6578 135.498 32.6578C135.118 32.6578 134.817 32.9762 134.591 33.6178C134.365 34.2555 134.245 35.2655 134.223 36.6497L136.585 36.6035ZM138.756 42.6212L138.754 42.6241L138.748 42.6357L138.744 42.6414L138.741 42.6472L138.734 42.6588L138.733 42.6607L138.726 42.6693L138.721 42.678L138.72 42.6799L138.713 42.6915L138.71 42.6963L138.706 42.703L138.699 42.7136L138.698 42.7146L138.692 42.7251L138.686 42.7328L138.677 42.7463L138.675 42.7511L138.671 42.7578L138.665 42.7684L138.664 42.7694L138.657 42.78L138.652 42.7886L138.65 42.7905L138.643 42.8021L138.641 42.8059L138.638 42.8127L138.61 42.856L138.607 42.8598L138.602 42.8675L138.595 42.8781L138.589 42.8896L138.584 42.8964L138.582 42.9002L138.567 42.9204L138.561 42.931L138.539 42.9627L138.536 42.9666L138.512 43.0002L138.509 43.0041L138.499 43.0166L138.494 43.0233L138.488 43.0339C138.455 43.0782 138.422 43.1214 138.39 43.1638L138.389 43.1657L138.383 43.1734C138.36 43.2022 138.337 43.2311 138.313 43.26C138.197 43.4023 138.075 43.5341 137.948 43.6553C137.618 43.965 137.286 44.2036 136.95 44.3633C136.614 44.5229 136.23 44.6028 135.792 44.6028C135.067 44.6028 134.439 44.4306 133.912 44.0862C133.384 43.7428 132.949 43.2773 132.605 42.6992C132.263 42.1172 132.004 41.4285 131.836 40.6407C131.667 39.849 131.582 38.9929 131.582 38.0666C131.582 37.2326 131.674 36.4314 131.858 35.6647C132.042 34.901 132.302 34.217 132.642 33.6216C132.976 33.0397 133.395 32.5703 133.903 32.2095C134.411 31.8488 134.98 31.6689 135.609 31.6689C136.294 31.6689 136.86 31.8065 137.299 32.0835C137.741 32.3644 138.108 32.7501 138.397 33.2407C138.675 33.7053 138.879 34.2546 139.007 34.8923C139.136 35.5252 139.198 36.1909 139.198 36.8873V37.6847H134.224C134.224 39.3652 134.418 40.6397 134.804 41.516C135.194 42.3923 135.809 42.8329 136.653 42.8329C136.898 42.8329 137.127 42.7752 137.344 42.6568L137.348 42.6549L137.353 42.6511L137.362 42.6463L137.367 42.6424L137.372 42.6405L137.38 42.6357L137.386 42.6318L137.389 42.6299L137.399 42.6241L137.405 42.6203L137.407 42.6193L137.417 42.6136L137.425 42.6087L137.426 42.6078L137.434 42.602L137.443 42.5962L137.453 42.5905L137.461 42.5847L137.462 42.5837L137.47 42.5789L137.479 42.5722L137.48 42.5712L137.487 42.5664L137.496 42.5597L137.5 42.5578L137.505 42.5539L137.514 42.5481L137.519 42.5443L137.524 42.5414L137.532 42.5347L137.537 42.5308L137.54 42.5289L137.549 42.5212L137.555 42.5174L137.558 42.5154L137.568 42.5097L137.575 42.5039L137.577 42.502L137.585 42.4952L137.593 42.4895V42.4885L137.602 42.4818L137.61 42.4741L137.611 42.4731L137.62 42.4664L137.629 42.4596L137.631 42.4587L137.637 42.4529L137.646 42.4462L137.649 42.4443L137.655 42.4394L137.663 42.4318L137.666 42.4279L137.671 42.4241L137.68 42.4164L137.684 42.4125L137.688 42.4087L137.697 42.401L137.703 42.3962L137.706 42.3933L137.721 42.3798L137.723 42.3788L137.732 42.3711L137.738 42.3635H137.739L137.757 42.3471L137.764 42.3394L137.773 42.3308V42.3298L137.78 42.3231L137.788 42.3144L137.79 42.3125L137.796 42.3057L137.805 42.298L137.808 42.2942L137.812 42.2894L137.821 42.2807L137.825 42.2759L137.837 42.2634L137.842 42.2567L137.846 42.2538L137.855 42.2451L137.859 42.2384L137.861 42.2365L137.87 42.2269L137.877 42.2192L137.879 42.2182L137.886 42.2086L137.895 42.199L137.91 42.1817L137.912 42.1797L137.926 42.1634L137.929 42.1595L137.94 42.1451L137.946 42.1393L137.956 42.1278L137.962 42.1191L137.97 42.1095L137.979 42.098L137.985 42.0903L137.995 42.0778L138 42.072L138.012 42.0566L138.014 42.0528L138.028 42.0354L138.03 42.0335L138.059 41.996L138.06 41.9941L138.073 41.9777L138.077 41.9729L138.087 41.9585L138.103 41.9383L138.11 41.9296L138.116 41.9191L138.125 41.9075L138.131 41.8998L138.141 41.8854L138.146 41.8796L138.158 41.8633L138.161 41.8594L138.174 41.8402L138.175 41.8392L138.189 41.8181V41.8171L138.203 41.7969L138.206 41.793L138.217 41.7757L138.222 41.77L138.232 41.7555L138.237 41.7478L138.246 41.7353L138.253 41.7238L138.26 41.7132L138.268 41.7007L138.274 41.693L138.284 41.6776L138.288 41.6718L138.301 41.6507L138.314 41.6305V41.6295L138.356 41.5641L138.36 41.5574L138.369 41.542L138.375 41.5333L138.383 41.5199L138.389 41.5093L138.396 41.4977L138.405 41.4843L138.41 41.4756L138.419 41.4593L138.422 41.4525L138.434 41.4333L138.436 41.4304L138.448 41.4083L138.449 41.4073L138.462 41.3842L138.463 41.3823L138.474 41.3611L138.477 41.3563L138.487 41.3381L138.491 41.3313L138.5 41.315L138.506 41.3054L138.513 41.2919L138.519 41.2784L138.526 41.2678L138.535 41.2515L138.539 41.2438L138.549 41.2255L138.551 41.2197L138.563 41.1986L138.565 41.1967L138.577 41.1716L138.589 41.1466L138.591 41.1447L138.602 41.1236L138.604 41.1178L138.614 41.0985L138.617 41.0899L138.625 41.0735L138.631 41.062L138.638 41.0485L138.644 41.0351L138.649 41.0245L138.657 41.0072L138.661 40.9985L138.67 40.9793L138.672 40.9735L138.684 40.9504V40.9485L138.695 40.9235L138.708 40.8975L138.71 40.8946L138.719 40.8715L138.722 40.8658L138.731 40.8465L138.735 40.8369L138.742 40.8196L138.748 40.8071L138.754 40.7936C138.782 40.7301 138.81 40.6657 138.836 40.5993L139.394 41.2746C139.223 41.7401 139.015 42.1797 138.773 42.5943L138.756 42.6212Z" fill="white"/>
<path d="M130.543 38.9839C130.543 39.8516 130.429 40.6192 130.201 41.2945C129.972 41.9649 129.663 42.5219 129.269 42.9624C128.887 43.3808 128.468 43.6915 128.008 43.8974C127.548 44.1023 127.071 44.2033 126.576 44.2033H120.297V43.2433C120.441 43.2231 120.629 43.1846 120.865 43.1423C121.099 43.0961 121.264 43.0413 121.357 42.9749C121.533 42.8614 121.656 42.7027 121.727 42.4968C121.794 42.291 121.83 42.0274 121.83 41.709V29.4168C121.83 28.4751 121.255 27.7989 120.296 27.5959V26.7754H129.622V31.759H129.055C128.835 30.8125 128.562 29.9651 128.235 29.2311C127.908 28.4943 127.617 28.0913 127.364 28.0288C127.205 27.9778 127.024 27.9403 126.818 27.9153C126.613 27.8893 126.402 27.8768 126.185 27.8768H124.441V34.0946C124.665 34.0869 124.916 34.0696 125.191 34.0532C125.468 34.032 125.731 34.0195 125.987 34.0195C126.64 34.0195 127.233 34.1071 127.769 34.2792C128.303 34.4514 128.781 34.7362 129.203 35.1392C129.615 35.5249 129.94 36.0318 130.182 36.6696C130.421 37.3035 130.543 38.0749 130.543 38.9839ZM127.637 39.1561C127.637 37.8941 127.423 36.9303 126.993 36.2637C126.563 35.5961 125.946 35.2614 125.142 35.2614C125.049 35.2614 124.925 35.27 124.777 35.2825C124.626 35.2941 124.515 35.3037 124.442 35.3114V41.9938C124.486 42.3131 124.621 42.5728 124.85 42.7739C125.079 42.9749 125.356 43.0711 125.679 43.0711C126.262 43.0711 126.734 42.7277 127.096 42.0361C127.456 41.3445 127.637 40.3845 127.637 39.1561Z" fill="white"/>
<path d="M140.857 44.5123C139.745 44.5123 139.399 43.1686 139.383 42.2894C139.331 39.7634 141.664 39.596 142.034 41.6988C142.181 41.4419 142.309 41.0533 142.419 40.5252L142.476 40.2597V40.2357C142.59 39.7605 142.694 39.2295 142.787 38.6447C142.991 37.374 143.09 36.0495 143.09 34.6739C143.09 33.7207 142.757 33.0435 141.752 32.9175V32.02H149.118V32.9175C148.277 33.0117 148.013 33.3792 148.013 34.2545V41.9691C148.013 42.2624 148.047 42.5096 148.106 42.7107C148.167 42.9117 148.275 43.0502 148.426 43.1224C148.543 43.1811 148.649 43.2234 148.739 43.2436C148.83 43.2696 148.955 43.2898 149.118 43.3061V44.2036H144.482V43.3061C144.606 43.2888 144.731 43.2686 144.859 43.2397C144.985 43.2099 145.093 43.1724 145.181 43.1224C145.34 43.0339 145.448 42.8915 145.51 42.7068C145.571 42.5183 145.6 42.2701 145.6 41.9691V33.1984H143.953C143.928 35.2443 143.82 36.9931 143.629 38.4427C143.583 38.7832 143.536 39.1074 143.486 39.4161C143.436 39.7249 143.383 40.0193 143.327 40.2982C143.067 41.5978 142.691 44.5123 140.857 44.5123Z" fill="white"/>
<path fill-rule="evenodd" clip-rule="evenodd" d="M120.196 36.3142H115.869C115.751 36.1237 115.598 35.8736 115.412 35.5658C115.225 35.259 115.066 34.9877 114.935 34.7453C114.415 35.4398 113.894 35.9352 113.378 36.2353C113.225 36.3248 113.069 36.3998 112.91 36.4623V34.8175C112.957 34.8204 113.006 34.8223 113.055 34.8223C113.356 34.8223 113.615 34.7684 113.836 34.6559C114.058 34.5472 114.294 34.349 114.543 34.0595C114.131 33.3467 113.651 32.5156 113.105 31.5681C113.04 31.4546 112.976 31.343 112.91 31.2305V25.7274C113.053 26.0458 113.219 26.3931 113.409 26.7692C113.784 26.3969 114.055 25.9592 114.231 25.4639C114.404 24.9646 114.492 24.4442 114.492 23.8979C114.492 23.2794 114.386 22.7878 114.178 22.4338C113.969 22.076 113.698 21.899 113.367 21.899C113.198 21.899 113.045 21.9394 112.91 22.0212V20.8823C112.952 20.8804 112.994 20.8794 113.035 20.8794C113.799 20.8794 114.419 21.1439 114.897 21.6643C115.372 22.1886 115.61 22.8792 115.61 23.7392C115.61 24.4875 115.467 25.1609 115.183 25.7495C114.899 26.3392 114.425 26.9144 113.763 27.4819C114.298 28.4689 114.711 29.2134 115.002 29.7097C115.297 30.208 115.683 30.8631 116.171 31.6768C116.479 31.0189 116.711 30.4148 116.866 29.8646C117.019 29.3115 117.097 28.8517 117.097 28.4766C117.097 28.263 116.988 28.0928 116.772 27.9629C116.553 27.833 116.244 27.7099 115.847 27.5983V26.7913H119.962V27.5983C119.515 27.6522 119.183 27.7311 118.97 27.8282C118.76 27.9302 118.548 28.1293 118.342 28.4323C118.254 28.5593 118.144 28.7834 118.015 29.1047C117.884 29.4269 117.762 29.7376 117.643 30.0339C117.499 30.3927 117.346 30.7717 117.186 31.1661C117.025 31.5633 116.826 31.976 116.598 32.406C117.047 33.1688 117.42 33.7401 117.713 34.1162C118.004 34.4962 118.243 34.7521 118.429 34.8935C118.639 35.056 118.909 35.1868 119.23 35.2801C119.555 35.3783 119.876 35.4398 120.195 35.4677V36.3142H120.196Z" fill="white"/>
</svg>
