<svg width="209" height="54" viewBox="0 0 209 54" fill="none" xmlns="http://www.w3.org/2000/svg">
<g clip-path="url(#clip0_1074_6109)">
<path d="M66.8633 12.2847V17.3859H42.7821C41.4414 17.3859 39.4913 19.5402 39.1335 20.8077C37.7771 25.6578 41.7716 34.4948 34.0342 35.6328C33.987 34.4242 34.0893 33.2038 34.0421 31.9952C33.8062 26.0816 32.4773 18.6495 37.6749 14.4468C38.7522 13.5757 41.4217 12.2847 42.7821 12.2847H66.8633Z" fill="#312D2D"/>
<path d="M33.8374 45.6391V40.5379H58.1152C58.5241 40.5379 60.2383 39.4273 60.5724 39.0663C64.5906 34.7342 57.9776 23.3897 66.863 22.291V36.9081C66.863 40.6281 61.8424 45.6391 58.1152 45.6391H33.8374Z" fill="#312D2D"/>
<path d="M43.0767 22.4873C46.0962 22.7934 49.6032 22.8679 50.4485 26.4153C50.7669 22.8287 54.903 22.8483 57.6237 22.4873V27.0981C57.6237 27.2472 57.1991 28.2988 57.0772 28.5146C56.397 29.6997 55.0013 30.1471 53.6921 30.1431C53.9751 30.6415 54.5649 30.6807 54.9777 31.1124C55.8073 31.9796 56.11 34.2241 55.6618 35.3543C53.2871 35.1934 50.9596 35.0992 50.4485 32.3014C49.5285 35.1424 47.6256 35.0914 45.0425 35.4406C44.7044 33.7964 44.8774 31.9874 46.2141 30.8259C46.568 30.5198 47.0358 30.4767 47.201 30.1471C45.9389 30.1824 44.2444 29.7154 43.6232 28.5186C43.5328 28.342 43.0728 27 43.0728 26.9097V22.4952L43.0767 22.4873Z" fill="#312D2D"/>
<path d="M88.4873 12.2847H91.8291V24.8416H88.6838V17.3859L85.2437 21.3061L81.8035 17.3859V24.8416H78.6582V12.2847H81.9018L85.2437 16.5972L88.4873 12.2847Z" fill="#312D2D"/>
<path d="M121.71 33.0825L125.048 37.399C125.319 36.8339 128.024 33.0825 128.295 33.0825H131.342V45.6395H128.197V38.1838L124.776 41.9038L121.513 38.1838V45.6395H118.368V33.0825H121.71Z" fill="#312D2D"/>
<path d="M161.025 33.0825V39.9496L165.94 33.0825H168.889V45.6395H165.743V38.5762L160.55 45.459L157.684 45.6395V33.0825H161.025Z" fill="#312D2D"/>
<path d="M134.487 12.2847V19.348L139.685 12.4691L142.547 12.2847V24.8416H139.402V17.7783L134.208 24.6611L131.342 24.8416V12.2847H134.487Z" fill="#312D2D"/>
<path d="M120.53 12.2847V16.9935H125.641V12.2847H128.786V24.8416H125.641V19.9366H120.53V24.8416H117.385V12.2847H120.53Z" fill="#312D2D"/>
<path d="M95.91 32.7409C104.622 31.603 105.763 45.0978 97.231 45.6354C88.6994 46.173 88.035 33.769 95.91 32.7409ZM95.7056 35.6801C92.3204 36.3746 92.7568 42.8964 96.7907 42.6492C101.178 42.3784 100.856 34.6206 95.7056 35.6801Z" fill="#312D2D"/>
<path d="M174.59 33.0825V37.399C174.865 37.3951 175.168 37.4461 175.431 37.3558C176.151 37.1164 178.069 33.7732 178.816 33.0825H182.453L178.333 38.8705L183.239 45.6395H179.603L175.667 40.5421L174.59 40.342V45.6395H171.248V33.0825H174.59Z" fill="#312D2D"/>
<path d="M82.0001 33.0825V37.399C82.3893 37.4107 82.7471 37.4657 83.097 37.2145C83.9698 36.5867 85.2122 33.8791 86.2266 33.0825H89.6667L85.6015 38.8705L90.6497 45.6395H87.0129L82.9437 40.3852L82.0001 40.342V45.6395H78.6582V33.0825H82.0001Z" fill="#312D2D"/>
<path d="M142.94 33.0825C142.81 34.0125 143.259 35.2878 142.645 36.0256H137.043V37.7914H142.154V40.5382H137.043V42.6964H142.94V45.6395H133.897V33.0825H142.94Z" fill="#312D2D"/>
<path d="M93.2051 24.8417L98.1432 12.3083L100.978 12.269L106.179 24.8417H102.838C102.81 24.3826 102.562 23.2564 102.118 23.1073C101.745 22.9817 98.1982 22.9974 97.6164 23.0641C96.7082 23.1701 96.6728 24.0922 96.547 24.8417H93.2051ZM98.1196 20.5252H101.265C100.805 19.3755 100.483 18.1237 99.9793 16.9936C99.8731 16.7542 99.995 16.5188 99.594 16.6012L98.1157 20.5252H98.1196Z" fill="#312D2D"/>
<path d="M110.658 32.5486C112.797 32.3053 115.395 33.0744 116.606 34.9462L114.703 36.9945C114.023 36.6767 113.606 35.99 112.828 35.7663C110.677 35.1463 108.385 36.1155 108.145 38.4778C107.717 42.6726 112.203 43.7047 114.9 41.1422L116.716 43.0807C114.102 46.8949 107.91 46.2945 105.629 42.3666C103.199 38.1796 105.94 33.094 110.658 32.5525V32.5486Z" fill="#312D2D"/>
<path d="M155.521 33.0825V36.0256H151.983V45.6395H148.641V36.0256H144.906V33.0825H155.521Z" fill="#312D2D"/>
<path d="M155.128 12.2847V15.0315H151.393V24.8416H148.051V15.0315H144.316V12.2847H155.128Z" fill="#312D2D"/>
<path d="M115.419 12.2847V15.0315H110.898V24.8416H107.556V12.2847H115.419Z" fill="#312D2D"/>
</g>
<defs>
<clipPath id="clip0_1074_6109">
<rect width="209" height="54" fill="white"/>
</clipPath>
</defs>
</svg>
