<svg width="209" height="54" viewBox="0 0 209 54" fill="none" xmlns="http://www.w3.org/2000/svg">
<mask id="mask0_1074_5943" style="mask-type:luminance" maskUnits="userSpaceOnUse" x="42" y="19" width="126" height="24">
<path d="M167.823 19H42.1772V42.9997H167.823V19Z" fill="white"/>
</mask>
<g mask="url(#mask0_1074_5943)">
<path d="M109.257 38.9746V23.0254H119.016V26.7298H113.326V38.9746H109.257Z" fill="#312D2D"/>
<path d="M131.293 38.9746V32.7281H125.248V38.9746H121.179V23.0254H125.248V28.9775H131.293V23.0254H135.362V38.9746H131.293Z" fill="#312D2D"/>
<path d="M158.976 38.9746V26.7298H154.224V23.0254H167.823V26.7298H163.047V38.9746H158.976Z" fill="#312D2D"/>
<path d="M148.236 38.9722V29.8847L141.758 38.9722H138.356V23.0273H142.425V32.0203L148.794 23.0273H152.307V38.9722H148.236Z" fill="#312D2D"/>
<path d="M85.874 38.9746V29.4961L81.8113 34.5035L77.7487 29.4961V38.9746H73.6797V23.0254H77.6955L81.8113 28.5095L85.9272 23.0254H89.9429V38.9746H85.874Z" fill="#312D2D"/>
<path d="M97.668 33.3653H101.45L99.5588 28.3645L97.668 33.3653ZM103.57 38.9725L102.719 36.7379H96.3926L95.5409 38.9725H91.4507L97.7086 23.0254H101.471L107.731 38.9725H103.57Z" fill="#312D2D"/>
<path d="M42.1733 26.266C42.1773 24.3398 42.9207 22.4937 44.2408 21.1319C45.561 19.7701 47.3503 19.0035 49.2169 19H65.4781V22.6934H49.2212C48.304 22.6975 47.4254 23.0751 46.7766 23.7442C46.1279 24.4132 45.7614 25.3196 45.7569 26.266L45.7356 32.4665C45.6614 33.2609 45.3343 34.0075 44.8054 34.5899C44.2765 35.1722 43.5756 35.5574 42.8121 35.6853L42.1733 35.7864V26.266Z" fill="#312D2D"/>
<path d="M42.1738 42.9998V39.3062H58.435C59.3524 39.3017 60.2309 38.9235 60.8797 38.2542C61.5283 37.5847 61.8948 36.6782 61.8993 35.7316V29.8475C61.9038 28.9938 62.2022 28.1696 62.7412 27.522C63.2803 26.8744 64.0248 26.4457 64.8419 26.3123L65.4807 26.2134V35.7316C65.4767 37.658 64.7334 39.5043 63.4132 40.8665C62.0932 42.2287 60.304 42.9956 58.4371 42.9998H42.1738Z" fill="#312D2D"/>
<path d="M55.9497 35.7998V31.0254L53.829 33.6379L51.7104 31.0254V35.7998H48.9019V26.4048H51.5613L53.829 29.4259L56.0966 26.4048H58.7561V35.7998H55.9497Z" fill="#312D2D"/>
</g>
</svg>
