<svg width="209" height="54" viewBox="0 0 209 54" fill="none" xmlns="http://www.w3.org/2000/svg">
<mask id="mask0_1074_5943" style="mask-type:luminance" maskUnits="userSpaceOnUse" x="38" y="13" width="134" height="27">
<path d="M172 13.708H38V39.3035H172V13.708Z" fill="white"/>
</mask>
<g mask="url(#mask0_1074_5943)">
<path d="M109.54 35.0112V18.0015H119.947V21.9522H113.88V35.0112H109.54Z" fill="#312D2D"/>
<path d="M133.041 35.0112V28.3494H126.594V35.0112H122.255V18.0015H126.594V24.3494H133.041V18.0015H137.381V35.0112H133.041Z" fill="#312D2D"/>
<path d="M162.565 35.0112V21.9522H157.497V18.0015H172V21.9522H166.907V35.0112H162.565Z" fill="#312D2D"/>
<path d="M151.111 35.0081V25.3163L144.203 35.0081H140.574V18.0029H144.914V27.5938L151.706 18.0029H155.453V35.0081H151.111Z" fill="#312D2D"/>
<path d="M84.6023 35.0112V24.9024L80.2695 30.2427L75.9368 24.9024V35.0112H71.5972V18.0015H75.88L80.2695 23.8502L84.6591 18.0015H88.9418V35.0112H84.6023Z" fill="#312D2D"/>
<path d="M97.1805 29.0289H101.214L99.197 23.6956L97.1805 29.0289ZM103.475 35.0089L102.567 32.6257H95.8204L94.912 35.0089H90.5498L97.2238 18.0015H101.236L107.913 35.0089H103.475Z" fill="#312D2D"/>
<path d="M37.9961 21.4572C38.0003 19.4029 38.7932 17.434 40.2011 15.9817C41.609 14.5293 43.5172 13.7117 45.508 13.708H62.8505V17.647H45.5126C44.5344 17.6513 43.5974 18.0541 42.9055 18.7676C42.2136 19.4812 41.8227 20.4478 41.8179 21.4572L41.7952 28.0699C41.716 28.9171 41.3672 29.7134 40.8031 30.3346C40.2391 30.9556 39.4916 31.3663 38.6773 31.5028L37.9961 31.6106V21.4572Z" fill="#312D2D"/>
<path d="M37.9966 39.304V35.3648H55.339C56.3174 35.36 57.2544 34.9566 57.9462 34.2428C58.638 33.5288 59.0289 32.562 59.0336 31.5524V25.2771C59.0384 24.3667 59.3567 23.4877 59.9316 22.797C60.5064 22.1064 61.3005 21.6491 62.1719 21.5068L62.8532 21.4014V31.5524C62.8489 33.6069 62.0562 35.576 60.6483 37.0288C59.2405 38.4815 57.3322 39.2995 55.3412 39.304H37.9966Z" fill="#312D2D"/>
<path d="M52.6884 31.6252V26.5334L50.4266 29.3195L48.1671 26.5334V31.6252H45.1719V21.6055H48.0082L50.4266 24.8275L52.8451 21.6055H55.6813V31.6252H52.6884Z" fill="#312D2D"/>
</g>
</svg>
