<svg width="209" height="54" viewBox="0 0 209 54" fill="none" xmlns="http://www.w3.org/2000/svg">
<path d="M71.8377 14.1836V18.6266H50.8976C49.7318 18.6266 48.036 20.503 47.7249 21.6069C46.5454 25.8312 50.0189 33.5279 43.2907 34.519C43.2497 33.4664 43.3386 32.4035 43.2976 31.3508C43.0924 26.2003 41.9369 19.7271 46.4565 16.0668C47.3933 15.308 49.7147 14.1836 50.8976 14.1836H71.8377Z" fill="#312D2D"/>
<path d="M43.1196 43.2344V38.7913H64.2307C64.5863 38.7913 66.0769 37.8241 66.3675 37.5097C69.8615 33.7365 64.1111 23.8559 71.8376 22.8989V35.6299C71.8376 38.8699 67.4718 43.2344 64.2307 43.2344H43.1196Z" fill="#312D2D"/>
<path d="M51.1538 23.0698C53.7795 23.3364 56.829 23.4013 57.5641 26.491C57.841 23.3672 61.4376 23.3843 63.8034 23.0698V27.0856C63.8034 27.2155 63.4342 28.1315 63.3282 28.3194C62.7367 29.3516 61.523 29.7412 60.3846 29.7378C60.6307 30.1719 61.1436 30.206 61.5025 30.582C62.2239 31.3373 62.4871 33.2922 62.0974 34.2765C60.0324 34.1364 58.0085 34.0544 57.5641 31.6175C56.7641 34.092 55.1094 34.0475 52.8632 34.3517C52.5692 32.9197 52.7196 31.3441 53.882 30.3325C54.1897 30.0659 54.5965 30.0283 54.7401 29.7412C53.6427 29.772 52.1692 29.3653 51.629 28.3229C51.5504 28.1691 51.1504 27.0002 51.1504 26.9216V23.0767L51.1538 23.0698Z" fill="#312D2D"/>
<path d="M90.6412 14.1836H93.5472V25.1203H90.8122V18.6266L87.8207 22.0409L84.8293 18.6266V25.1203H82.0942V14.1836H84.9148L87.8207 17.9397L90.6412 14.1836Z" fill="#312D2D"/>
<path d="M119.53 32.2974L122.433 36.0569C122.668 35.5647 125.021 32.2974 125.257 32.2974H127.906V43.2341H125.171V36.7404L122.197 39.9804L119.359 36.7404V43.2341H116.624V32.2974H119.53Z" fill="#312D2D"/>
<path d="M153.718 32.2974V38.2784L157.991 32.2974H160.556V43.2341H157.821V37.0822L153.304 43.0769L150.812 43.2341V32.2974H153.718Z" fill="#312D2D"/>
<path d="M130.641 14.1836V20.3355L135.16 14.3442L137.649 14.1836V25.1203H134.914V18.9684L130.398 24.9631L127.906 25.1203V14.1836H130.641Z" fill="#312D2D"/>
<path d="M118.504 14.1836V18.2849H122.949V14.1836H125.684V25.1203H122.949V20.8482H118.504V25.1203H115.769V14.1836H118.504Z" fill="#312D2D"/>
<path d="M97.0955 32.0002C104.672 31.0091 105.663 42.7626 98.2442 43.2309C90.8254 43.6991 90.2476 32.8957 97.0955 32.0002ZM96.9177 34.5601C93.9741 35.165 94.3536 40.8453 97.8613 40.63C101.677 40.3941 101.396 33.6373 96.9177 34.5601Z" fill="#312D2D"/>
<path d="M165.513 32.2974V36.0569C165.752 36.0534 166.015 36.0979 166.245 36.0193C166.87 35.8108 168.539 32.8989 169.188 32.2974H172.351L168.768 37.3385L173.034 43.2341H169.872L166.45 38.7945L165.513 38.6201V43.2341H162.607V32.2974H165.513Z" fill="#312D2D"/>
<path d="M85.0002 32.2974V36.0569C85.3387 36.0671 85.6498 36.115 85.9541 35.8962C86.713 35.3494 87.7934 32.9912 88.6754 32.2974H91.6669L88.1318 37.3385L92.5216 43.2341H89.3592L85.8207 38.6577L85.0002 38.6201V43.2341H82.0942V32.2974H85.0002Z" fill="#312D2D"/>
<path d="M137.992 32.2974C137.879 33.1074 138.269 34.2181 137.735 34.8607H132.863V36.3986H137.308V38.791H132.863V40.6708H137.992V43.2341H130.128V32.2974H137.992Z" fill="#312D2D"/>
<path d="M94.7437 25.1203L99.0377 14.2041L101.503 14.1699L106.026 25.1203H103.12C103.096 24.7204 102.88 23.7395 102.494 23.6097C102.169 23.5003 99.0855 23.514 98.5796 23.5721C97.7898 23.6644 97.759 24.4675 97.6496 25.1203H94.7437ZM99.0172 21.3608H101.752C101.352 20.3594 101.072 19.2692 100.634 18.2849C100.542 18.0764 100.648 17.8713 100.299 17.9431L99.0137 21.3608H99.0172Z" fill="#312D2D"/>
<path d="M109.92 31.8325C111.78 31.6206 114.039 32.2905 115.092 33.9207L113.438 35.7048C112.846 35.4279 112.484 34.8298 111.807 34.635C109.937 34.095 107.944 34.9392 107.735 36.9967C107.362 40.6502 111.263 41.5491 113.609 39.3173L115.188 41.0057C112.915 44.3277 107.53 43.8048 105.547 40.3836C103.434 36.7369 105.817 32.3076 109.92 31.8359V31.8325Z" fill="#312D2D"/>
<path d="M148.931 32.2974V34.8607H145.855V43.2341H142.949V34.8607H139.701V32.2974H148.931Z" fill="#312D2D"/>
<path d="M148.59 14.1836V16.576H145.342V25.1203H142.436V16.576H139.188V14.1836H148.59Z" fill="#312D2D"/>
<path d="M114.06 14.1836V16.576H110.128V25.1203H107.222V14.1836H114.06Z" fill="#312D2D"/>
</svg>
