<svg width="209" height="54" viewBox="0 0 209 54" fill="none" xmlns="http://www.w3.org/2000/svg">
<g clip-path="url(#clip0_1074_6102)">
<path fill-rule="evenodd" clip-rule="evenodd" d="M63.2234 15.0655C60.7504 14.8059 58.2575 15.3161 56.0872 16.5259C53.917 17.7358 52.1759 19.5859 51.1034 21.8221C50.0309 24.0582 49.6795 26.5706 50.0977 29.0139C50.5158 31.4571 51.6829 33.7113 53.4385 35.4666C55.1941 37.222 57.452 38.3922 59.9019 38.8165C62.3519 39.2408 64.8735 38.8984 67.1203 37.8363C69.367 36.7742 71.2286 35.0445 72.4491 32.8851C73.6696 30.7256 74.1892 28.2424 73.9363 25.7767C73.6581 23.0359 72.4409 20.4744 70.4896 18.5235C68.5384 16.5725 65.9723 15.3513 63.2234 15.0655ZM62.8334 33.3454C61.5033 33.5233 60.1508 33.2813 58.9659 32.6534C57.781 32.0255 56.8233 31.0433 56.2274 29.8448C55.6314 28.6464 55.4272 27.2919 55.6434 25.9718C55.8597 24.6517 56.4855 23.4324 57.4329 22.4851C58.3803 21.5378 59.6017 20.9102 60.9254 20.6905C62.2491 20.4709 63.6086 20.6702 64.8129 21.2605C66.0171 21.8507 67.0055 22.8022 67.6391 23.9813C68.2728 25.1604 68.5198 26.5077 68.3455 27.834C68.1627 29.229 67.5235 30.525 66.527 31.5213C65.5306 32.5177 64.2323 33.1588 62.8334 33.3454ZM80.374 15.5402C79.9566 15.5411 79.5446 15.6349 79.1681 15.8146C78.7915 15.9942 78.4599 16.2553 78.1974 16.5788C77.9348 16.9023 77.7479 17.2801 77.6503 17.6847C77.5526 18.0892 77.5467 18.5104 77.6329 18.9175C77.8971 20.2365 79.133 21.1377 80.4795 21.1377H88.2932L76.1333 37.1773C76.0434 37.2957 75.9883 37.4367 75.9743 37.5846C75.9603 37.7324 75.9878 37.8812 76.0539 38.0144C76.12 38.1475 76.222 38.2596 76.3484 38.3382C76.4748 38.4168 76.6207 38.4587 76.7697 38.4593H95.8437C97.1892 38.4593 98.4261 37.5583 98.6902 36.2391C98.7764 35.8321 98.7706 35.411 98.673 35.0064C98.5755 34.6019 98.3887 34.2242 98.1263 33.9007C97.8638 33.5771 97.5324 33.316 97.1559 33.1362C96.7795 32.9564 96.3677 32.8625 95.9503 32.8613H86.4299L98.5804 16.8342C98.6712 16.7146 98.7268 16.5722 98.741 16.4229C98.7551 16.2736 98.7272 16.1233 98.6604 15.989C98.5937 15.8546 98.4906 15.7414 98.3629 15.6621C98.2352 15.5828 98.0879 15.5406 97.9374 15.5402H80.374ZM156.592 15.6047C155.961 15.7544 155.4 16.1144 155.001 16.6252C154.603 17.136 154.391 17.767 154.402 18.4139V27.7336L139.251 15.7162C139.132 15.6222 138.989 15.5635 138.838 15.5469C138.687 15.5304 138.535 15.5565 138.398 15.6225C138.262 15.6884 138.147 15.7914 138.066 15.9197C137.986 16.0479 137.944 16.1961 137.944 16.3473V35.5905C137.934 36.2374 138.145 36.8685 138.544 37.3793C138.942 37.8901 139.503 38.2501 140.135 38.3997C140.545 38.4896 140.97 38.4867 141.379 38.391C141.788 38.2954 142.17 38.1094 142.497 37.847C142.824 37.5846 143.087 37.2523 143.269 36.8747C143.45 36.4971 143.543 36.0838 143.543 35.6653V26.2649L158.694 38.2826C158.812 38.3765 158.955 38.4352 159.106 38.4517C159.257 38.4683 159.409 38.4421 159.546 38.3762C159.682 38.3103 159.797 38.2073 159.877 38.0791C159.958 37.951 160 37.8028 160 37.6516V18.3382C160 17.9198 159.906 17.5067 159.725 17.1292C159.544 16.7517 159.281 16.4196 158.954 16.1572C158.627 15.8949 158.245 15.7091 157.836 15.6134C157.427 15.5178 157.002 15.5148 156.592 15.6047ZM117.144 20.6019C123.552 20.6019 128.341 23.9775 128.341 26.9969C128.341 30.0163 123.552 33.3919 117.144 33.3919C110.736 33.3919 105.947 30.0163 105.947 26.9969C105.947 23.9775 110.736 20.6019 117.144 20.6019ZM117.144 15.0046C107.868 15.0046 100.349 20.3738 100.349 26.9969C100.349 33.62 107.868 38.9892 117.144 38.9892C126.42 38.9892 133.939 33.62 133.939 26.9969C133.939 20.3738 126.419 15.0046 117.144 15.0046Z" fill="#312D2D"/>
</g>
<defs>
<clipPath id="clip0_1074_6102">
<rect width="110" height="24" fill="white" transform="translate(50 15)"/>
</clipPath>
</defs>
</svg>
