<svg width="209" height="54" viewBox="0 0 209 54" fill="none" xmlns="http://www.w3.org/2000/svg">
<path d="M97.6123 8.0647C100.273 9.21042 101.035 13.2981 101.534 15.8427C102.418 20.359 103.237 24.8819 104.208 29.3715C104.389 30.2108 105.114 33.1484 105.798 33.5503C106.432 33.9233 108.215 33.4748 108.975 33.6968C109.252 33.7768 109.706 34.5073 109.777 34.7804C109.948 35.4421 109.689 35.7263 109.62 36.2947C109.545 36.9142 109.784 37.3627 109.334 37.8956C108.452 38.9392 107.179 37.5759 106.815 36.6944L97.2512 36.6744L90.3323 36.3369C90.3168 36.7454 90.3811 37.1606 90.2858 37.567C89.9978 38.7771 88.0792 38.6883 88.108 37.0585C88.1147 36.6566 88.1944 35.1712 88.2786 34.8892C88.3451 34.6649 88.7549 34.1365 88.972 34.0299C89.5193 33.7635 91.1188 33.8145 91.378 33.4437C91.4733 32.9219 91.7081 32.389 91.8344 31.9028C92.2332 30.3663 92.4636 28.7432 92.9089 27.2066C94.1274 22.9924 96.3871 18.7692 98.8374 15.1633C98.895 14.9213 98.8773 14.677 98.8352 14.435C98.7422 13.9132 98.3633 12.6165 98.1418 12.1347C97.8294 11.4552 97.3752 10.8335 96.5267 11.0711C96.1811 11.1688 96.1545 11.604 96.252 11.9148C96.3428 12.2035 96.7017 12.39 96.8524 12.6476C97.3952 13.5668 96.7749 15.2032 95.6516 14.6237C95.5497 14.5704 94.6945 13.5002 94.6081 13.3426C93.9346 12.0991 94.0543 10.3561 94.8939 9.20376C95.275 8.68196 95.8045 8.50655 96.3473 8.24455C96.4159 8.21124 96.4115 8.04693 96.5023 8.02473C96.6796 7.98476 97.4594 7.99142 97.6145 8.05804L97.6123 8.0647ZM99.748 18.1319L99.2517 18.2452C96.7305 23.1056 94.2227 28.1348 93.6555 33.6724C95.882 33.719 98.1285 33.6236 100.362 33.6702C100.596 33.6746 100.811 33.7768 101.022 33.7857C101.352 33.7968 102.881 33.89 102.949 33.6125C102.996 33.426 102.313 31.7429 102.214 31.3721C101.239 27.7462 100.515 23.3654 99.8676 19.624C99.83 19.4042 99.7989 18.1874 99.748 18.1341V18.1319Z" fill="#312D2D"/>
<path d="M118.757 14.0708C119.736 14.8813 120.327 17.3948 120.449 18.6448C120.713 21.367 120.471 24.5466 120.793 27.1822C120.841 27.5797 121.087 27.7085 121.131 28.0615C121.222 28.7631 120.91 28.9674 120.855 29.4381C120.668 30.968 121.572 33.7324 121.783 35.2933C121.969 36.6788 121.094 37.7801 119.904 36.6233C119.691 35.6397 119.319 34.5939 119.144 33.6102C119.016 32.8908 118.929 31.9361 118.816 31.1634C118.772 30.8592 118.881 30.3418 118.75 30.1198C118.48 29.6624 116.293 29.9777 115.757 30.0088C114.738 30.0709 113.834 29.9177 112.87 30.4462C112.704 30.6793 112.848 33.5747 112.961 34.0343C113.094 34.5783 113.437 34.8292 113.369 35.4931C113.276 36.3857 112.569 36.9075 111.683 36.6477C110.566 36.3213 111.005 33.3238 110.551 32.6755C110.473 32.5644 110.38 32.4978 110.271 32.6155C110.156 32.802 110.125 32.9619 109.888 33.0085C108.834 33.2128 108.051 32.7465 108.051 31.6208C108.051 30.2708 109.751 29.1228 110.557 28.2391C111.087 24.1536 111.869 19.1511 114.175 15.6562C115.154 14.1708 117.059 12.6609 118.763 14.0708H118.757ZM118.69 27.0135C118.794 26.0321 118.504 25.0351 118.464 24.0759C118.371 21.9421 118.719 19.6662 118.063 17.5946C117.963 17.2815 117.576 16.349 117.197 16.3512C116.991 16.4444 116.692 16.6487 116.543 16.8108C115.482 17.9743 113.402 24.0004 113.165 25.6368C113.089 26.152 113.198 26.7359 113.052 27.2733L113.309 27.4509C115.094 27.1756 116.878 26.9158 118.692 27.0135H118.69Z" fill="#312D2D"/>
<path d="M71.8887 18.465C71.9596 18.4783 72.6796 18.8003 72.817 18.8669C75.1676 19.9882 74.8375 23.3321 73.4927 25.1528C73.2446 25.4881 72.6996 25.7678 72.5135 26.1831C72.5356 26.3096 73.5946 27.0712 73.7585 27.2488C75.2872 28.8853 75.8544 32.7354 73.7696 34.1165C73.4838 34.3052 72.642 34.676 72.3296 34.676H65.9048L65.7386 34.5095V18.6315L65.9048 18.465H71.8887ZM71.1133 20.5744C70.4154 20.4211 69.2169 20.6876 68.4548 20.5744L68.2886 20.7409V25.4037C68.2886 26.021 70.3534 24.9174 70.606 24.7287C71.5653 24.0093 72.2432 22.7526 72.0482 21.5247C71.9928 21.1694 71.4212 20.6432 71.1133 20.5744ZM71.2396 27.7196C70.2493 26.7737 69.4251 27.4664 68.3019 27.6951C68.4105 29.0895 68.1092 30.8303 68.282 32.1825C68.3041 32.3602 68.3241 32.5334 68.5079 32.6222C68.7339 32.731 70.8563 32.7154 71.1975 32.651C73.599 32.2047 72.4758 28.9008 71.2396 27.7196Z" fill="#312D2D"/>
<path d="M156.63 18.465C156.902 18.5183 158.003 19.0867 158.24 19.2932C159.84 20.6943 159.388 23.5919 158.236 25.1506C158.096 25.3393 157.228 26.0076 157.257 26.1808L159.197 28.157C159.773 29.6779 160.197 31.341 159.558 32.9219C159.516 33.0263 159.379 33.0241 159.346 33.0862C159.27 33.2283 159.284 33.4104 159.195 33.5259C158.9 33.9144 157.556 34.6716 157.075 34.6716H150.484V18.6315L150.65 18.465H156.632H156.63ZM153.196 20.5744L153.03 20.7409V25.4037C153.03 25.89 154.72 25.1284 154.948 24.9951C156.089 24.3268 157.082 22.7992 156.771 21.4314C156.712 21.1628 156.036 20.5744 155.854 20.5744H153.196ZM153.03 27.6796V32.5089L153.196 32.6755H155.965C156.087 32.6755 156.9 32.2181 157.013 32.0382C157.804 30.7881 156.991 28.6588 155.981 27.7196C154.97 26.7803 154.213 27.5264 153.03 27.6796Z" fill="#312D2D"/>
<path d="M55.5498 18.465V26.6249C55.5498 26.7426 55.8666 26.8381 55.9906 26.7914C56.015 26.6715 56.0283 26.525 56.1014 26.4273C57.1848 24.984 58.3191 23.5252 59.4268 22.0975C59.511 21.991 59.6484 22.0287 59.6484 22.0176V18.6315L59.8145 18.465H62.0853C62.0499 18.5738 62.1961 18.7048 62.1961 18.7425V34.5073L62.03 34.6738H59.8145L59.6484 34.5073V26.1808L59.429 26.0676L58.9859 26.4029L55.552 30.8436V34.6738H53.1704L53.115 18.465H55.552H55.5498Z" fill="#312D2D"/>
<path d="M140.291 18.465V26.7914L140.718 26.7759C140.783 26.6782 140.771 26.5117 140.842 26.4295C141.268 25.9388 144.389 22.1419 144.389 21.8511V18.465H146.826C146.791 18.5738 146.937 18.7048 146.937 18.7425V34.5073L146.771 34.6738H144.555L144.389 34.5073V26.1808L144.115 26.0143L140.291 30.8436V34.6738H137.909L137.743 34.5073V18.8536C137.743 18.7936 137.914 18.6071 137.854 18.465H140.291Z" fill="#312D2D"/>
<path d="M49.2357 18.465V34.6738H46.7987V20.8519C46.7987 20.712 46.4531 20.5877 46.3047 20.5699C45.2657 20.43 43.7569 20.6099 42.7002 20.6854V34.5073L42.534 34.6738H40.1524V18.465H49.2357Z" fill="#312D2D"/>
<path d="M133.977 18.465V34.6738H131.54V20.8519C131.54 20.712 131.194 20.5877 131.046 20.5699C130.007 20.43 128.498 20.6099 127.441 20.6854V34.5073L127.275 34.6738H124.893V18.465H133.977Z" fill="#312D2D"/>
<path d="M78.7012 32.842C78.5794 32.0427 77.8793 31.0768 77.1415 30.7415L77.0352 22.0687C77.804 18.8336 80.8834 17.2615 83.9651 18.5738C87.9086 20.2502 86.0033 27.4753 86.4597 30.8503C86.0875 32.0493 85.7663 33.1084 84.6719 33.8301C82.7799 35.0779 80.8502 34.5894 78.7012 34.676C78.6414 34.1054 78.7832 33.3926 78.7012 32.8442V32.842ZM83.0679 32.167C83.5951 31.7784 83.8566 31.3788 84.0094 30.7237C83.8012 28.1525 84.3285 25.0351 84.0072 22.5305C83.8167 21.0429 82.7289 20.0748 81.2002 20.359C80.4758 20.4944 79.6317 21.6268 79.5032 22.3218C79.1155 24.4223 79.738 27.5242 79.4811 29.7312C79.7801 30.2064 80.139 30.4995 80.4071 31.0235C80.797 31.7784 80.7106 32.8353 81.8516 32.6732C82.2459 32.6177 82.7732 32.3868 83.0679 32.1692V32.167Z" fill="#312D2D"/>
<path d="M163.442 32.842C163.32 32.0427 162.62 31.0768 161.882 30.7415L161.776 22.0687C162.855 16.7864 170.529 16.7531 171.201 22.2929C171.407 23.996 171.396 28.9097 171.205 30.6305C171.105 31.532 170.47 32.973 169.778 33.5614C167.946 35.1268 165.669 34.5872 163.442 34.6738C163.382 34.1032 163.524 33.3904 163.442 32.842ZM167.809 32.167C168.336 31.7762 168.598 31.3788 168.75 30.7237C168.573 28.1481 169.027 25.1706 168.746 22.6438C168.573 21.0961 167.556 20.0748 165.941 20.3612C165.201 20.4922 164.373 21.6179 164.242 22.3218C163.854 24.4223 164.477 27.5242 164.22 29.7312C164.519 30.2064 164.878 30.4995 165.146 31.0235C165.578 31.8606 165.403 32.8176 166.573 32.651C167.022 32.5866 167.474 32.4157 167.807 32.1692L167.809 32.167Z" fill="#312D2D"/>
<path d="M143.771 41.2883C144.564 42.0788 144.664 43.8107 143.893 44.67C143.525 45.0808 143.275 44.9897 142.869 45.1984C142.464 45.4072 142.418 45.8313 141.808 45.6447C141.624 45.5892 141.509 45.3317 141.328 45.2384C141.062 45.1007 140.76 45.0763 140.521 44.932C139.553 44.3503 139.544 41.5948 140.694 41.0197C141.188 40.9997 141.624 40.3469 142.008 40.3269C142.508 40.298 142.495 40.6111 142.799 40.7666C143.246 40.9975 143.366 40.8865 143.771 41.2906V41.2883ZM141.62 44.2215V41.9456C141.62 41.8523 141.392 41.7457 141.246 41.7901C140.674 41.97 140.541 44.448 141.62 44.2215ZM142.637 44.197C142.657 44.2259 142.876 44.3236 142.949 44.2836C143.379 44.0394 143.572 41.8923 142.785 41.7768C142.55 41.7413 142.632 41.859 142.586 42.0211C142.475 42.4008 142.442 43.904 142.637 44.1993V44.197Z" fill="#312D2D"/>
<path d="M54.8298 40.8909C54.987 40.9886 54.9826 41.1129 55.0026 41.2728C55.1 42.0988 54.8519 43.2822 54.9981 44.0527C55.0469 44.3058 55.3415 44.4702 55.4124 44.8587C55.4833 45.2473 55.4213 45.6225 55.439 45.9978H54.5528C54.6215 45.0275 54.1939 45.3383 53.6157 45.3339C52.9799 45.3294 52.7118 45.0053 52.6054 46H51.6705C51.7193 45.5537 51.5509 44.892 51.7924 44.5101C51.9142 44.3192 52.1579 44.3147 52.282 44.0017C52.6808 43.0069 52.3573 41.8013 52.8314 40.8887H54.8253L54.8298 40.8909ZM54.1097 44.166V42.1676C54.1097 42.0855 53.9258 41.7502 53.8328 41.6702C53.2989 41.6658 53.4606 43.7263 53.2368 44.1571C53.2922 44.3924 53.7508 44.3569 53.9258 44.3147L54.1097 44.166Z" fill="#312D2D"/>
<path d="M158.311 44.9631C157.768 45.4294 156.579 45.4471 155.936 45.1918C155.615 44.4702 155.894 43.6575 155.899 42.9559C155.903 42.2542 155.562 41.3905 156.016 40.7199C156.946 40.5623 158.198 40.5512 158.593 41.5881C158.892 42.3786 158.36 42.4918 158.351 42.8337C158.338 43.2978 159.377 44.0505 158.313 44.9631H158.311ZM157.542 41.8079C157.392 41.6991 157.086 41.5792 156.958 41.7746C156.86 41.9611 156.853 42.4896 157.077 42.5562L157.631 42.2187L157.542 41.8079ZM157.556 43.4599C156.951 43.0824 156.375 44.3369 157.294 44.3436C157.884 44.348 157.686 43.542 157.556 43.4599Z" fill="#312D2D"/>
<path d="M56.9898 42.7227C57.0009 42.7627 57.1737 42.9181 57.2091 42.8892C57.4484 42.1143 57.8981 40.1537 58.9638 41.1795C58.6004 41.8545 59.2629 44.9009 58.802 45.2318C58.6425 45.3583 57.9868 45.3894 57.9868 45.1674V43.5021C57.9868 43.4843 57.8782 43.1779 57.7674 43.2245C57.6722 43.5998 57.1272 45.1274 56.8813 45.2784C56.6353 45.4294 56.1103 45.3539 56.015 45.0319C55.9441 44.7877 55.9441 41.4349 56.015 41.1906C56.1502 40.731 56.9898 40.8576 56.9898 41.0574C57.0674 41.5259 56.8857 42.3075 56.9898 42.7227Z" fill="#312D2D"/>
<path d="M161.747 40.6933C163.89 40.2092 163.905 42.3186 163.777 43.8373C163.597 45.9512 161.007 45.6603 160.695 44.2548C160.62 43.9151 160.617 42.0788 160.699 41.7524C160.795 41.3727 161.355 40.7821 161.747 40.6933ZM162.667 44.166V41.8346C162.667 41.6147 161.929 41.6036 161.772 41.8523C161.614 42.101 161.625 43.6708 161.719 44.0083C161.827 44.408 162.585 44.4346 162.667 44.166Z" fill="#312D2D"/>
<path d="M153.326 41.0374C153.417 41.1174 153.668 41.4948 153.692 41.6147C153.752 41.9234 153.745 44.2081 153.67 44.4746C153.342 45.6359 150.938 45.6336 150.706 44.3858C150.637 44.0216 150.641 41.8301 150.728 41.5259C151 40.5623 152.622 40.4091 153.326 41.0374ZM151.7 41.8346V44.166C151.922 44.4235 152.476 44.4235 152.697 44.166V41.8346C152.555 41.577 151.773 41.5948 151.7 41.8346Z" fill="#312D2D"/>
<path d="M60.7561 44.3325L61.4584 44.3147L61.6423 44.166V41.0574C61.6423 40.8154 62.4819 40.8598 62.5329 41.0752C62.6392 41.9545 62.3734 43.2245 62.5329 44.0527C62.5905 44.3569 62.8873 44.4169 62.9516 44.6322C63.0624 45.0053 62.9184 45.5914 62.9737 45.9978H61.9768L61.8727 45.3783C61.6068 45.1873 59.8721 45.5537 59.8721 45.0519V40.9997C60.087 40.8487 60.7583 40.8842 60.7583 41.1662V44.3303L60.7561 44.3325Z" fill="#312D2D"/>
<path d="M64.4116 42.8892L64.9056 42.3297C65.0806 41.6791 65.4218 40.4291 66.308 41.0508V45.063C66.2637 45.4449 65.6522 45.3805 65.5193 45.1363C65.2756 44.6855 65.506 44.0927 65.5237 43.6131C65.5282 43.491 65.5924 43.1912 65.4085 43.2223C64.9987 43.642 64.848 44.8365 64.5201 45.1629C64.3163 45.3628 63.6362 45.4049 63.6362 45.1629V41.0552C63.6362 40.7621 64.4116 40.9131 64.4116 41.1662V42.8892Z" fill="#312D2D"/>
<path d="M94.3201 43.1668C94.3113 43.1068 94.2138 42.8271 94.1806 42.7516C93.9391 42.1987 93.8682 43.1157 93.8261 43.2267C93.7663 43.3799 93.6156 43.491 93.5757 43.642C93.476 44.0172 93.4672 44.4835 93.4184 44.872C93.1703 45.0119 92.92 45.0119 92.6741 44.872C92.7472 44.5989 92.1689 42.5606 92.0493 42.5606C91.4112 43.3489 92.211 44.6211 91.3847 45.2206L91.1077 44.8321L91.3426 40.7954C92.9377 40.1448 92.3794 42.8137 93.0462 43.6664C93.1747 43.6664 93.4672 42.7582 93.5115 42.5806C93.7175 41.7679 93.5469 40.2048 94.7699 40.8465C94.7765 41.3594 94.7366 41.879 94.7632 42.3919C94.7987 43.0336 95.0269 44.1415 94.9936 44.7255C94.9515 45.4538 94.3179 45.0919 94.3179 44.9475C94.3179 44.4124 94.3866 43.6686 94.3179 43.1712L94.3201 43.1668Z" fill="#312D2D"/>
<path d="M126.196 40.8065C126.387 41.1374 126.393 41.5503 126.223 41.8878C126.316 41.879 126.42 41.9056 126.504 41.8945C126.792 41.8545 126.936 40.8953 127.217 40.7221C127.406 40.6067 128.017 40.6022 128.097 40.8465C128.212 41.1995 127.204 42.3652 127.124 42.816L128.389 45.103C128.079 45.6625 127.463 45.2495 127.177 44.872C126.991 44.6278 126.579 43.3045 126.389 43.9928C126.28 44.3791 126.378 44.8121 126.196 45.1896C125.959 45.3628 125.54 45.4116 125.392 45.1074C125.303 44.9253 125.274 41.4016 125.341 41.0596C125.427 40.6022 125.861 40.5845 126.198 40.8065H126.196Z" fill="#312D2D"/>
<path d="M136.261 40.6844C136.766 40.509 137.1 40.7332 137.275 41.1929C137.555 41.93 137.885 43.4688 138.062 44.2903C138.12 44.5612 138.306 45.2184 138.002 45.3206C137.211 45.5826 137.24 44.61 136.693 44.5479C135.971 44.4657 136.21 44.7433 136.019 45.1074C135.86 45.4116 135.197 45.4493 135.098 45.1518C134.92 44.6078 135.262 44.2326 135.366 43.7863C135.421 43.5487 135.386 43.3022 135.441 43.0846C135.621 42.3719 135.953 41.5925 136.099 40.8576C136.119 40.7666 136.17 40.7155 136.259 40.6844H136.261Z" fill="#312D2D"/>
<path d="M131.555 43.7929L131.32 45.1674C130.915 45.3916 130.56 45.5004 130.394 44.9808C130.228 44.4613 130.259 42.0077 130.321 41.3905C130.343 41.184 130.408 40.7532 130.614 40.6844C131.11 40.5179 132.156 40.6844 132.614 40.9819C134.094 41.9389 133.239 43.9883 131.555 43.7929ZM131.429 42.8892C132.499 43.0602 132.634 41.7013 131.608 41.6747L131.447 41.8501L131.431 42.8892H131.429Z" fill="#312D2D"/>
<path d="M68.4836 40.8021C70.2493 40.5911 70.1784 42.7316 70.0588 43.9439C69.9923 44.6078 69.7309 45.2007 69.002 45.3272C67.172 45.6447 67.0568 43.7374 67.1809 42.3941C67.2584 41.5615 67.5819 40.9131 68.4836 40.8043V40.8021ZM68.6962 41.6814C68.2221 41.7147 68.1867 42.5695 68.1734 42.9403C68.1512 43.5443 68.1136 44.7188 69.0108 44.2237C69.27 43.8285 69.3365 41.6369 68.6985 41.6814H68.6962Z" fill="#312D2D"/>
<path d="M80.6309 41.2906C80.7261 41.3905 80.9167 41.4105 80.9189 41.6103L80.8945 44.5878C80.1634 45.7735 78.4021 45.5737 78.1784 44.1371C78.0499 43.3133 77.9834 41.4815 78.7743 41.0197C79.4678 40.6133 80.1036 40.7377 80.6309 41.2906ZM79.9086 44.3192C80.046 44.2037 80.3296 41.5459 79.4301 41.6702C79.0069 41.7635 79.162 43.7619 79.162 44.1504C79.2462 44.4102 79.6804 44.348 79.9109 44.3192H79.9086Z" fill="#312D2D"/>
<path d="M74.6026 41.0574C74.6935 40.7666 75.378 40.882 75.5464 41.1107L75.6173 42.4829L75.8787 42.6739L76.211 42.5562C76.5146 42.2498 76.3041 41.426 76.3905 41.0152C76.5611 40.8731 77.2612 40.8154 77.2612 41.0552V45.1629C77.2612 45.4005 76.5611 45.3428 76.3905 45.2029C76.2997 44.7743 76.5234 43.8662 76.211 43.5509C75.1698 43.0069 75.8366 44.7544 75.4622 45.1896C75.3027 45.3761 74.6026 45.3805 74.6026 45.1629V41.0552V41.0574Z" fill="#312D2D"/>
<path d="M70.9471 41.0574C71.038 40.7666 71.7225 40.882 71.8887 41.1107C72.1479 41.5503 71.5697 42.4429 72.221 42.6739C72.9233 42.7449 72.6663 41.4504 72.735 41.0175C72.9056 40.8754 73.6057 40.8176 73.6057 41.0574V45.1651C73.6057 45.4027 72.9056 45.345 72.735 45.2051C72.6442 44.7766 72.8679 43.8707 72.5556 43.5531C71.3814 43.0691 72.2033 44.7322 71.8067 45.1918C71.6472 45.3783 70.9471 45.3827 70.9471 45.1651V41.0574Z" fill="#312D2D"/>
<path d="M166.156 40.6689H168.15C168.963 42.081 167.428 41.4793 167.091 41.7169C166.918 41.9212 166.907 42.4563 167.169 42.5406C167.556 42.5273 168.529 42.4785 168.309 43.1535C168.19 43.5198 167.348 43.2023 167.093 43.3822C166.918 43.5043 166.907 44.2459 167.171 44.3169C167.457 44.3813 167.769 44.2947 168.048 44.3258C168.812 44.4124 168.451 45.3317 168.263 45.3317H166.158L165.992 45.1651V40.8354L166.158 40.6689H166.156Z" fill="#312D2D"/>
<path d="M51.4512 45.2184C50.5118 45.7424 50.5429 44.6012 50.0621 44.5523C49.2114 44.5834 49.5149 45.738 48.4626 45.2162L49.3709 41.1951C49.5171 40.7332 50.3235 40.8043 50.5429 41.1906L51.4512 45.2184Z" fill="#312D2D"/>
<path d="M46.2183 45.1918C46.1164 45.3117 45.6955 45.3716 45.5426 45.3206C45.033 45.1496 45.372 43.7996 45.3698 43.3866C45.3631 42.6295 45.1372 41.8412 45.3764 41.073C45.4806 40.7399 47.058 40.8776 47.3814 41.0286C47.5653 41.1152 47.9796 41.648 48.015 41.8368C48.2964 43.3111 47.5697 43.6553 46.3424 44.0461C46.1452 44.2725 46.4974 44.8676 46.2161 45.1918H46.2183ZM46.5196 41.6747C46.2781 41.6925 45.9369 43.0691 46.6282 43.0047C47.2374 42.947 47.1532 41.799 46.5196 41.6747Z" fill="#312D2D"/>
<path d="M112.376 45.2206L111.598 44.9187L111.612 40.791L112.374 40.6689C112.425 41.0774 112.223 42.2831 112.595 42.5007H113.373C113.778 42.3008 113.526 41.1951 113.592 40.7777H114.368V45.1074H113.592V43.3866C113.42 43.058 112.374 43.209 112.374 43.4976V45.2184L112.376 45.2206Z" fill="#312D2D"/>
<path d="M89.7785 40.7799V44.9431C89.7785 45.0297 89.2822 45.4671 89.1382 44.8077C88.9632 44.0061 89.3797 43.2179 89.1116 42.4452C88.2742 43.0025 88.3074 44.2725 87.7668 45.0896C87.5098 45.1407 87.1797 45.1718 87.0091 44.9431V40.7799H87.7846C87.9684 41.7169 87.4589 42.5895 87.6738 43.4443C88.3606 43.209 88.1833 42.7649 88.3694 42.3119C88.4581 42.0943 88.972 40.8665 89.0274 40.8065C89.2113 40.6089 89.5458 40.7777 89.7762 40.7821L89.7785 40.7799Z" fill="#312D2D"/>
<path d="M99.0833 40.7799V45.1096L98.3079 45.2206V41.5015C98.3079 41.1307 97.0894 41.1307 97.0894 41.5015V45.1096H96.314V40.7799C97.2202 40.5911 98.1706 40.6378 99.0833 40.7799Z" fill="#312D2D"/>
<path d="M82.0798 40.8909H83.9629C84.0006 40.8909 84.1977 41.1129 84.2221 41.1906C84.4946 42.1232 82.7887 41.1951 82.7887 42.1676C82.7887 42.9892 83.8809 42.4474 84.0094 42.8471C84.2997 43.7419 82.7954 43.1046 82.7887 43.9439C82.7843 44.5412 83.4002 44.2681 83.8278 44.3569C84.5411 44.5079 84.1756 45.3317 83.9629 45.3317H82.0798L81.9136 45.1651V41.0574L82.0798 40.8909Z" fill="#312D2D"/>
<path d="M118.325 44.5234C118.285 44.6145 117.593 45.1163 117.467 45.1585C116.074 45.6181 115.44 43.5665 115.597 42.5073C115.755 41.4482 116.599 40.136 117.802 40.8398C118.282 41.1218 118.703 42.292 118.701 42.8337C118.701 42.9892 118.384 44.3858 118.325 44.5212V44.5234ZM116.993 41.2395C116.125 41.5015 116.178 44.6522 117.188 44.5612C117.877 44.499 117.877 42.6694 117.808 42.1632C117.762 41.819 117.416 41.1129 116.993 41.2395Z" fill="#312D2D"/>
<path d="M102.901 41.2861C102.925 41.3216 103.027 41.3172 103.062 41.4193C103.224 41.8656 103.231 43.2179 103.18 43.7197C103.06 44.8831 101.961 45.758 100.964 44.8321C99.6128 43.5798 100.388 39.9761 102.358 40.771C102.619 40.8754 102.752 41.0641 102.898 41.2839L102.901 41.2861ZM102.158 41.3616C101.624 40.9087 101.153 41.8168 101.086 42.2875C100.973 43.0891 100.984 44.1082 101.684 44.6367C102.438 44.6966 102.604 42.8248 102.511 42.2853C102.497 42.2054 102.196 41.3927 102.158 41.3616Z" fill="#312D2D"/>
<path d="M146.964 45.1918C146.636 44.1127 146.964 42.9559 146.809 41.8523L146.04 41.5126C145.871 41.3261 145.938 40.942 146.104 40.7777C146.255 40.6267 148.24 40.6089 148.521 40.6911C148.869 40.7932 148.887 41.275 148.771 41.5637L148.036 41.7147C147.737 41.9167 148.091 44.5101 147.914 45.0341C147.805 45.3517 147.207 45.4049 146.961 45.1896L146.964 45.1918Z" fill="#312D2D"/>
<path d="M104.626 45.2162C104.405 44.3192 104.626 43.4155 104.626 42.4962C104.626 41.9478 104.365 41.4304 104.618 40.8598C105.838 40.2847 107.429 40.9264 107.03 42.4762C106.791 43.4021 105.829 43.1735 105.499 43.4954C104.97 44.0128 105.756 45.3428 104.624 45.2184L104.626 45.2162ZM106.144 41.3616C105.147 40.5023 104.886 43.2245 105.9 42.7915C106.37 42.5895 106.421 41.5992 106.144 41.3616Z" fill="#312D2D"/>
<path d="M42.8109 42.0566C42.7999 41.9966 42.7024 41.8812 42.6802 41.7968L42.0843 41.6747L42.051 41.0707C42.0887 40.9264 42.1862 40.9131 42.3125 40.8887C42.5451 40.8443 44.4903 40.8665 44.5899 40.9375C45.0286 41.7813 44.2399 41.5437 43.8079 41.9434V45.0519C43.8079 45.4027 42.8109 45.4027 42.8109 45.0519C42.8109 44.2259 42.9372 42.7893 42.8109 42.0544V42.0566Z" fill="#312D2D"/>
<path d="M119.909 40.8354C119.984 40.5911 121.679 40.5534 121.778 40.8487L121.792 41.2239L120.906 41.2795C120.345 42.0055 120.715 42.7738 121.683 42.5562V43.1135C120.83 42.9869 120.524 43.3089 120.688 44.166C120.832 44.912 122.321 44.197 121.665 45.214C121.619 45.2473 121.541 45.1118 121.515 45.1118H119.909V40.8354Z" fill="#312D2D"/>
<path d="M108.942 41.7235C108.942 41.3616 108.244 41.2484 107.956 41.2128V40.7932C108.071 40.6511 110.214 40.6 110.387 40.7199C110.57 40.8465 110.557 41.2328 110.305 41.315C110.114 41.3772 109.817 41.2639 109.731 41.517C109.556 42.4141 109.924 44.0039 109.693 44.8099C109.609 45.0985 109.232 45.285 108.942 45.2229V41.7235Z" fill="#312D2D"/>
<path d="M171.947 42.8004C172.222 43.2889 171.367 44.3858 170.696 43.7796C170.146 43.2822 170.405 42.5073 171.077 42.3874C171.212 42.363 171.916 42.7449 171.947 42.8004Z" fill="#312D2D"/>
<path d="M40.354 42.685L40.2654 43.7241C39.3393 44.1571 38.8187 43.6619 39.058 42.6805C39.5875 42.5184 39.84 42.3408 40.354 42.6872V42.685Z" fill="#312D2D"/>
</svg>
