<svg width="209" height="54" viewBox="0 0 209 54" fill="none" xmlns="http://www.w3.org/2000/svg">
<path d="M96.5448 5.07491C99.5656 6.40154 100.431 11.1347 100.997 14.081C102 19.3104 102.931 24.5475 104.033 29.746C104.239 30.7178 105.062 34.1192 105.839 34.5846C106.558 35.0165 108.583 34.4971 109.446 34.7542C109.76 34.8468 110.276 35.6926 110.356 36.0089C110.55 36.775 110.256 37.1041 110.178 37.7623C110.092 38.4796 110.364 38.9989 109.853 39.6159C108.852 40.8243 107.406 39.2457 106.993 38.2251L96.1348 38.2019L88.2796 37.8111C88.2619 38.2842 88.3349 38.765 88.2267 39.2354C87.8997 40.6366 85.7215 40.5338 85.7542 38.6467C85.7618 38.1813 85.8523 36.4614 85.9479 36.1348C86.0233 35.8752 86.4887 35.2633 86.7352 35.1399C87.3564 34.8314 89.1725 34.8905 89.4668 34.4611C89.5749 33.857 89.8415 33.2399 89.9849 32.6769C90.4377 30.8978 90.6993 29.0184 91.2048 27.2393C92.5882 22.3596 95.1538 17.4696 97.9357 13.2943C98.0011 13.0141 97.981 12.7313 97.9332 12.451C97.8276 11.8469 97.3975 10.3454 97.1459 9.78751C96.7913 9.00079 96.2756 8.28092 95.3123 8.55601C94.9199 8.66913 94.8897 9.17305 95.0004 9.53298C95.1035 9.86721 95.511 10.0832 95.682 10.3814C96.2983 11.4458 95.594 13.3406 94.3188 12.6696C94.203 12.6079 93.2321 11.3687 93.134 11.1861C92.3694 9.74637 92.5052 7.72816 93.4585 6.39382C93.8912 5.78964 94.4923 5.58654 95.1085 5.28316C95.1865 5.2446 95.1815 5.05434 95.2846 5.02864C95.4858 4.98236 96.3712 4.99007 96.5473 5.0672L96.5448 5.07491ZM98.9695 16.7317L98.4061 16.8628C95.5437 22.4907 92.6964 28.3139 92.0525 34.726C94.5803 34.7799 97.1308 34.6694 99.6662 34.7234C99.9329 34.7285 100.177 34.8468 100.416 34.8571C100.791 34.8699 102.526 34.9779 102.604 34.6565C102.657 34.4406 101.882 32.4918 101.769 32.0624C100.662 27.864 99.8398 22.7915 99.1053 18.4594C99.0626 18.2049 99.0274 16.796 98.9695 16.7343V16.7317Z" fill="#312D2D"/>
<path d="M120.551 12.0294C121.662 12.9678 122.334 15.8781 122.472 17.3256C122.772 20.4776 122.497 24.1593 122.862 27.211C122.918 27.6712 123.197 27.8203 123.247 28.2291C123.35 29.0415 122.995 29.2781 122.933 29.8231C122.721 31.5945 123.748 34.7954 123.987 36.6028C124.198 38.2071 123.204 39.4823 121.854 38.1428C121.612 37.0038 121.19 35.7929 120.991 34.654C120.845 33.821 120.747 32.7155 120.619 31.8208C120.568 31.4685 120.691 30.8695 120.543 30.6124C120.236 30.0828 117.754 30.4479 117.145 30.4838C115.988 30.5558 114.962 30.3784 113.868 30.9903C113.679 31.2603 113.842 34.6128 113.971 35.145C114.122 35.7749 114.511 36.0654 114.433 36.8342C114.328 37.8677 113.525 38.4719 112.519 38.1711C111.252 37.7931 111.75 34.3223 111.234 33.5716C111.146 33.443 111.04 33.3659 110.917 33.5022C110.786 33.7181 110.751 33.9032 110.482 33.9572C109.285 34.1938 108.397 33.6539 108.397 32.3504C108.397 30.7872 110.326 29.458 111.242 28.4348C111.843 23.7042 112.731 17.9118 115.349 13.8651C116.461 12.1451 118.624 10.3968 120.558 12.0294H120.551ZM120.475 27.0156C120.593 25.8792 120.264 24.7249 120.219 23.6142C120.113 21.1435 120.508 18.5083 119.763 16.1095C119.65 15.747 119.21 14.6672 118.78 14.6698C118.546 14.7778 118.206 15.0143 118.038 15.202C116.833 16.5492 114.471 23.5268 114.202 25.4216C114.117 26.0181 114.24 26.6942 114.074 27.3164L114.366 27.5221C116.393 27.2033 118.418 26.9025 120.478 27.0156H120.475Z" fill="#312D2D"/>
<path d="M67.3398 17.1174C67.4203 17.1328 68.2378 17.5056 68.3937 17.5827C71.0624 18.881 70.6877 22.7529 69.1609 24.8611C68.8792 25.2493 68.2604 25.5733 68.0491 26.0541C68.0743 26.2006 69.2766 27.0824 69.4627 27.2881C71.1983 29.1829 71.8422 33.641 69.4753 35.2402C69.1508 35.4587 68.195 35.888 67.8404 35.888H60.546L60.3574 35.6952V17.3102L60.546 17.1174H67.3398ZM66.4595 19.5598C65.6671 19.3824 64.3064 19.6909 63.4411 19.5598L63.2525 19.7526V25.1516C63.2525 25.8664 65.5967 24.5886 65.8835 24.3701C66.9726 23.5371 67.7423 22.0819 67.5209 20.6602C67.458 20.2488 66.8091 19.6395 66.4595 19.5598ZM66.6028 27.8332C65.4785 26.7379 64.5428 27.5401 63.2676 27.8049C63.3908 29.4195 63.0487 31.4351 63.2449 33.0008C63.2701 33.2065 63.2927 33.407 63.5015 33.5099C63.758 33.6359 66.1677 33.6179 66.555 33.5433C69.2816 33.0265 68.0064 29.2009 66.6028 27.8332Z" fill="#312D2D"/>
<path d="M163.549 17.1174C163.859 17.1791 165.109 17.8372 165.378 18.0763C167.194 19.6986 166.681 23.0537 165.373 24.8586C165.215 25.0771 164.229 25.851 164.261 26.0515L166.465 28.3397C167.119 30.1008 167.599 32.0264 166.875 33.857C166.827 33.9778 166.671 33.9752 166.633 34.0472C166.548 34.2118 166.563 34.4226 166.462 34.5563C166.128 35.0062 164.601 35.8829 164.055 35.8829H156.572V17.3102L156.761 17.1174H163.552H163.549ZM159.651 19.5598L159.462 19.7526V25.1516C159.462 25.7147 161.381 24.8328 161.64 24.6786C162.936 23.9047 164.063 22.1359 163.71 20.5522C163.643 20.2411 162.875 19.5598 162.669 19.5598H159.651ZM159.462 27.7869V33.3788L159.651 33.5716H162.795C162.933 33.5716 163.856 33.042 163.985 32.8337C164.883 31.3863 163.959 28.9207 162.812 27.8332C161.665 26.7457 160.805 27.6095 159.462 27.7869Z" fill="#312D2D"/>
<path d="M48.7896 17.1174V26.5657C48.7896 26.7019 49.1493 26.8125 49.2901 26.7585C49.3178 26.6197 49.3329 26.45 49.4159 26.3369C50.6459 24.6657 51.9337 22.9766 53.1913 21.3235C53.2869 21.2001 53.4429 21.2438 53.4429 21.2309V17.3102L53.6315 17.1174H56.2097C56.1694 17.2433 56.3354 17.395 56.3354 17.4387V35.6926L56.1468 35.8855H53.6315L53.4429 35.6926V26.0515L53.1939 25.9204L52.6908 26.3086L48.7921 31.4505V35.8855H46.0882L46.0253 17.1174H48.7921H48.7896Z" fill="#312D2D"/>
<path d="M144.999 17.1174V26.7585L145.485 26.7405C145.558 26.6274 145.545 26.4346 145.626 26.3394C146.108 25.7713 149.652 21.3749 149.652 21.0381V17.1174H152.419C152.379 17.2433 152.545 17.395 152.545 17.4387V35.6926L152.356 35.8855H149.841L149.652 35.6926V26.0515L149.341 25.8587L144.999 31.4505V35.8855H142.295L142.107 35.6926V17.5673C142.107 17.4979 142.3 17.2819 142.232 17.1174H144.999Z" fill="#312D2D"/>
<path d="M41.621 17.1174V35.8855H38.8542V19.8812C38.8542 19.7192 38.4618 19.5752 38.2933 19.5546C37.1136 19.3927 35.4007 19.6009 34.2009 19.6883V35.6926L34.0123 35.8855H31.3084V17.1174H41.621Z" fill="#312D2D"/>
<path d="M137.831 17.1174V35.8855H135.064V19.8812C135.064 19.7192 134.671 19.5752 134.503 19.5546C133.323 19.3927 131.61 19.6009 130.411 19.6883V35.6926L130.222 35.8855H127.518V17.1174H137.831Z" fill="#312D2D"/>
<path d="M75.0743 33.7644C74.936 32.8389 74.1411 31.7205 73.3036 31.3323L73.1828 21.29C74.0556 17.5441 77.5519 15.7239 81.0506 17.2433C85.5278 19.1844 83.3647 27.5504 83.8828 31.4582C83.4603 32.8466 83.0956 34.0729 81.853 34.9085C79.7049 36.3534 77.5141 35.7878 75.0743 35.888C75.0064 35.2273 75.1674 34.402 75.0743 33.767V33.7644ZM80.0319 32.9828C80.6306 32.5329 80.9274 32.0701 81.1009 31.3117C80.8645 28.3345 81.4631 24.7249 81.0984 21.8248C80.8821 20.1023 79.6471 18.9813 77.9115 19.3104C77.0891 19.4672 76.1307 20.7784 75.9848 21.5831C75.5447 24.0153 76.2515 27.6069 75.9597 30.1625C76.2993 30.7127 76.7067 31.052 77.0111 31.6588C77.4538 32.5329 77.3557 33.7567 78.651 33.569C79.0988 33.5047 79.6974 33.2374 80.0319 32.9854V32.9828Z" fill="#312D2D"/>
<path d="M171.284 33.7644C171.146 32.8389 170.351 31.7205 169.513 31.3323L169.392 21.29C170.617 15.1737 179.33 15.1351 180.092 21.5497C180.326 23.5217 180.314 29.2112 180.097 31.2037C179.984 32.2475 179.262 33.9161 178.478 34.5974C176.397 36.4099 173.812 35.7852 171.284 35.8855C171.216 35.2247 171.377 34.3994 171.284 33.7644ZM176.242 32.9828C176.84 32.5303 177.137 32.0701 177.311 31.3117C177.109 28.3294 177.625 24.8817 177.306 21.9559C177.109 20.164 175.955 18.9813 174.121 19.313C173.281 19.4647 172.34 20.7681 172.192 21.5831C171.752 24.0153 172.459 27.6069 172.167 30.1625C172.506 30.7127 172.914 31.052 173.218 31.6588C173.709 32.628 173.51 33.7361 174.838 33.5433C175.349 33.4687 175.862 33.2708 176.239 32.9854L176.242 32.9828Z" fill="#312D2D"/>
<path d="M148.951 43.5444C149.851 44.4597 149.964 46.465 149.089 47.46C148.672 47.9356 148.387 47.8302 147.927 48.0719C147.467 48.3135 147.414 48.8046 146.722 48.5886C146.513 48.5244 146.383 48.2261 146.176 48.1182C145.875 47.9588 145.532 47.9305 145.261 47.7634C144.162 47.0898 144.152 43.8992 145.457 43.2333C146.018 43.2102 146.513 42.4543 146.949 42.4312C147.517 42.3977 147.502 42.7603 147.847 42.9402C148.355 43.2076 148.49 43.079 148.951 43.547V43.5444ZM146.508 46.9407V44.3054C146.508 44.1974 146.249 44.074 146.083 44.1254C145.434 44.3337 145.283 47.2029 146.508 46.9407ZM147.663 46.9124C147.686 46.9458 147.935 47.0589 148.018 47.0126C148.506 46.7298 148.724 44.2437 147.831 44.11C147.565 44.0689 147.658 44.2051 147.605 44.3928C147.479 44.8325 147.442 46.573 147.663 46.9149V46.9124Z" fill="#312D2D"/>
<path d="M47.9721 43.0842C48.1507 43.1973 48.1457 43.3413 48.1683 43.5264C48.279 44.4828 47.9973 45.8531 48.1633 46.7453C48.2186 47.0383 48.5532 47.2286 48.6336 47.6785C48.7141 48.1284 48.6437 48.5629 48.6638 48.9974H47.6577C47.7357 47.8739 47.2502 48.2339 46.5937 48.2287C45.8719 48.2236 45.5675 47.8482 45.4468 49H44.3853C44.4407 48.4832 44.2495 47.7171 44.5237 47.2749C44.662 47.0538 44.9387 47.0486 45.0795 46.6861C45.5323 45.5343 45.1651 44.1383 45.7033 43.0816H47.9671L47.9721 43.0842ZM47.1547 46.8764V44.5625C47.1547 44.4674 46.9459 44.0792 46.8402 43.9866C46.2341 43.9815 46.4177 46.3673 46.1636 46.8661C46.2265 47.1386 46.7472 47.0975 46.9459 47.0486L47.1547 46.8764Z" fill="#312D2D"/>
<path d="M165.459 47.7994C164.842 48.3393 163.492 48.3598 162.762 48.0642C162.397 47.2286 162.714 46.2876 162.719 45.4752C162.724 44.6628 162.337 43.6627 162.853 42.8862C163.909 42.7037 165.33 42.6908 165.778 43.8915C166.118 44.8067 165.514 44.9379 165.504 45.3338C165.489 45.8711 166.668 46.7427 165.461 47.7994H165.459ZM164.586 44.146C164.415 44.02 164.068 43.8812 163.922 44.1074C163.811 44.3234 163.803 44.9353 164.058 45.0124L164.686 44.6216L164.586 44.146ZM164.601 46.0588C163.914 45.6217 163.26 47.0743 164.304 47.0821C164.973 47.0872 164.749 46.1539 164.601 46.0588Z" fill="#312D2D"/>
<path d="M50.4245 45.2052C50.4371 45.2515 50.6333 45.4315 50.6735 45.3981C50.9452 44.5008 51.4558 42.2306 52.6656 43.4184C52.2531 44.2 53.0052 47.7274 52.482 48.1104C52.3009 48.257 51.5564 48.293 51.5564 48.0359V46.1077C51.5564 46.0871 51.4331 45.7323 51.3074 45.7863C51.1992 46.2208 50.5805 47.9896 50.3013 48.1644C50.0221 48.3393 49.426 48.2518 49.3178 47.8791C49.2373 47.5962 49.2373 43.7141 49.3178 43.4313C49.4712 42.8991 50.4245 43.0456 50.4245 43.277C50.5126 43.8195 50.3063 44.7245 50.4245 45.2052Z" fill="#312D2D"/>
<path d="M169.36 42.8554C171.792 42.2949 171.81 44.7373 171.664 46.4959C171.46 48.9434 168.52 48.6066 168.165 46.9792C168.079 46.5859 168.077 44.4597 168.17 44.0817C168.278 43.6421 168.915 42.9582 169.36 42.8554ZM170.404 46.8764V44.1769C170.404 43.9223 169.566 43.9095 169.387 44.1974C169.209 44.4854 169.221 46.303 169.327 46.6938C169.45 47.1566 170.311 47.1875 170.404 46.8764Z" fill="#312D2D"/>
<path d="M159.799 43.2539C159.902 43.3464 160.186 43.7835 160.214 43.9223C160.282 44.2797 160.275 46.9252 160.189 47.2337C159.817 48.5784 157.088 48.5758 156.824 47.1309C156.746 46.7093 156.751 44.1717 156.849 43.8195C157.158 42.7037 158.999 42.5263 159.799 43.2539ZM157.953 44.1769V46.8764C158.204 47.1746 158.833 47.1746 159.085 46.8764V44.1769C158.924 43.8786 158.036 43.8992 157.953 44.1769Z" fill="#312D2D"/>
<path d="M54.7005 47.0692L55.4979 47.0486L55.7066 46.8764V43.277C55.7066 42.9968 56.6599 43.0482 56.7178 43.2976C56.8385 44.3157 56.5367 45.7863 56.7178 46.7453C56.7832 47.0975 57.1202 47.1669 57.1932 47.4163C57.3189 47.8482 57.1554 48.5269 57.2183 48.9974H56.0864L55.9682 48.2801C55.6664 48.059 53.6969 48.4832 53.6969 47.9022V43.2102C53.9409 43.0353 54.703 43.0765 54.703 43.403V47.0666L54.7005 47.0692Z" fill="#312D2D"/>
<path d="M58.8507 45.3981L59.4116 44.7502C59.6103 43.9969 59.9977 42.5494 61.0038 43.2693V47.9151C60.9535 48.3573 60.2593 48.2827 60.1084 47.9999C59.8317 47.478 60.0933 46.7915 60.1134 46.2362C60.1184 46.0948 60.1914 45.7477 59.9826 45.7837C59.5173 46.2696 59.3462 47.6528 58.974 48.0307C58.7426 48.2621 57.9704 48.311 57.9704 48.0307V43.2744C57.9704 42.9351 58.8507 43.1099 58.8507 43.403V45.3981Z" fill="#312D2D"/>
<path d="M92.8071 45.7194C92.797 45.65 92.6863 45.3261 92.6486 45.2387C92.3744 44.5985 92.2939 45.6603 92.2462 45.7889C92.1782 45.9663 92.0072 46.0948 91.9619 46.2696C91.8487 46.7041 91.8387 47.244 91.7833 47.6939C91.5016 47.8559 91.2174 47.8559 90.9382 47.6939C91.0212 47.3777 90.3647 45.0176 90.2289 45.0176C89.5045 45.9303 90.4125 47.4034 89.4743 48.0976L89.1599 47.6477L89.4265 42.9736C91.2375 42.2203 90.6037 45.3107 91.3608 46.2979C91.5067 46.2979 91.8387 45.2464 91.889 45.0407C92.1229 44.0997 91.9292 42.2898 93.3177 43.0328C93.3252 43.6267 93.2799 44.2283 93.3101 44.8222C93.3504 45.5652 93.6094 46.8481 93.5717 47.5243C93.5239 48.3675 92.8045 47.9485 92.8045 47.7814C92.8045 47.1618 92.8825 46.3005 92.8045 45.7246L92.8071 45.7194Z" fill="#312D2D"/>
<path d="M128.997 42.9865C129.213 43.3696 129.221 43.8478 129.027 44.2386C129.133 44.2283 129.251 44.2591 129.347 44.2463C129.674 44.2 129.837 43.0893 130.157 42.8888C130.37 42.7551 131.065 42.75 131.155 43.0328C131.286 43.4416 130.141 44.7913 130.051 45.3132L131.487 47.9613C131.135 48.6092 130.436 48.131 130.111 47.6939C129.9 47.4111 129.432 45.8788 129.216 46.6758C129.093 47.1232 129.203 47.6245 128.997 48.0616C128.728 48.2621 128.252 48.3187 128.084 47.9665C127.983 47.7557 127.951 43.6755 128.026 43.2796C128.124 42.75 128.617 42.7294 128.999 42.9865H128.997Z" fill="#312D2D"/>
<path d="M140.424 42.8451C140.997 42.642 141.377 42.9017 141.576 43.4338C141.893 44.2874 142.268 46.0691 142.469 47.0204C142.534 47.334 142.746 48.095 142.401 48.2133C141.503 48.5167 141.536 47.3906 140.914 47.3186C140.094 47.2235 140.366 47.5448 140.15 47.9665C139.969 48.3187 139.217 48.3624 139.103 48.0179C138.902 47.388 139.29 46.9535 139.408 46.4367C139.471 46.1616 139.43 45.8763 139.493 45.6243C139.697 44.799 140.074 43.8966 140.24 43.0456C140.263 42.9402 140.321 42.8811 140.421 42.8451H140.424Z" fill="#312D2D"/>
<path d="M135.081 46.4445L134.815 48.0359C134.355 48.2956 133.952 48.4215 133.763 47.8199C133.575 47.2183 133.61 44.3774 133.68 43.6627C133.706 43.4236 133.779 42.9248 134.012 42.8451C134.576 42.6523 135.763 42.8451 136.284 43.1896C137.964 44.2977 136.993 46.6707 135.081 46.4445ZM134.938 45.3981C136.153 45.596 136.306 44.0226 135.142 43.9917L134.958 44.1949L134.941 45.3981H134.938Z" fill="#312D2D"/>
<path d="M63.4738 42.9814C65.4785 42.7371 65.398 45.2155 65.2622 46.6193C65.1867 47.388 64.8899 48.0745 64.0624 48.221C61.9848 48.5886 61.854 46.3802 61.9948 44.8247C62.0829 43.8606 62.4501 43.1099 63.4738 42.9839V42.9814ZM63.7153 43.9995C63.177 44.038 63.1368 45.0278 63.1217 45.4572C63.0965 46.1565 63.0538 47.5165 64.0725 46.9432C64.3667 46.4856 64.4422 43.948 63.7178 43.9995H63.7153Z" fill="#312D2D"/>
<path d="M77.2651 43.547C77.3733 43.6627 77.5896 43.6858 77.5921 43.9172L77.5644 47.3649C76.7344 48.7378 74.7347 48.5064 74.4807 46.843C74.3348 45.8891 74.2594 43.7681 75.1573 43.2333C75.9446 42.7628 76.6665 42.9068 77.2651 43.547ZM76.4451 47.0538C76.6011 46.9201 76.923 43.8426 75.9018 43.9866C75.4214 44.0946 75.5975 46.4085 75.5975 46.8584C75.6931 47.1592 76.1861 47.0872 76.4477 47.0538H76.4451Z" fill="#312D2D"/>
<path d="M70.421 43.277C70.5242 42.9402 71.3014 43.0739 71.4925 43.3387L71.573 44.9276L71.8698 45.1487L72.2471 45.0124C72.5917 44.6576 72.3528 43.7038 72.4509 43.2282C72.6445 43.0636 73.4394 42.9968 73.4394 43.2744V48.0307C73.4394 48.3058 72.6445 48.239 72.4509 48.077C72.3477 47.5808 72.6018 46.5293 72.2471 46.1642C71.0649 45.5343 71.822 47.5577 71.397 48.0616C71.2159 48.2776 70.421 48.2827 70.421 48.0307V43.2744V43.277Z" fill="#312D2D"/>
<path d="M66.2708 43.277C66.3739 42.9402 67.1512 43.0739 67.3398 43.3387C67.6341 43.8478 66.9776 44.8813 67.7171 45.1487C68.5144 45.231 68.2227 43.7321 68.3007 43.2307C68.4943 43.0662 69.2892 42.9993 69.2892 43.277V48.0333C69.2892 48.3084 68.4943 48.2416 68.3007 48.0796C68.1975 47.5834 68.4516 46.5344 68.0969 46.1668C66.7638 45.6063 67.697 47.532 67.2467 48.0642C67.0656 48.2801 66.2708 48.2853 66.2708 48.0333V43.277Z" fill="#312D2D"/>
<path d="M174.365 42.8271H176.629C177.552 44.4622 175.809 43.7655 175.427 44.0406C175.23 44.2771 175.218 44.8967 175.515 44.9944C175.955 44.979 177.059 44.9224 176.81 45.704C176.674 46.1282 175.718 45.7606 175.429 45.9688C175.23 46.1102 175.218 46.9689 175.517 47.0512C175.842 47.1258 176.196 47.0255 176.513 47.0615C177.381 47.1618 176.971 48.2261 176.757 48.2261H174.368L174.179 48.0333V43.0199L174.368 42.8271H174.365Z" fill="#312D2D"/>
<path d="M44.1363 48.095C43.0698 48.7018 43.105 47.3803 42.5592 47.3237C41.5934 47.3597 41.938 48.6966 40.7432 48.0924L41.7745 43.4364C41.9405 42.9016 42.856 42.9839 43.105 43.4313L44.1363 48.095Z" fill="#312D2D"/>
<path d="M38.1952 48.0642C38.0795 48.203 37.6016 48.2724 37.4281 48.2133C36.8495 48.0153 37.2344 46.4522 37.2319 45.974C37.2243 45.0973 36.9678 44.1846 37.2394 43.295C37.3576 42.9094 39.1485 43.0688 39.5157 43.2436C39.7245 43.3439 40.1949 43.9609 40.2351 44.1794C40.5545 45.8866 39.7295 46.2851 38.3361 46.7375C38.1122 46.9998 38.5121 47.6888 38.1927 48.0642H38.1952ZM38.5373 43.9917C38.2631 44.0123 37.8758 45.6063 38.6605 45.5318C39.3522 45.4649 39.2567 44.1357 38.5373 43.9917Z" fill="#312D2D"/>
<path d="M113.307 48.0976L112.424 47.7479L112.439 42.9685L113.304 42.8271C113.362 43.3002 113.133 44.6962 113.556 44.9481H114.439C114.899 44.7168 114.612 43.4364 114.688 42.9531H115.568V47.9665H114.688V45.974C114.491 45.5935 113.304 45.7683 113.304 46.1025V48.095L113.307 48.0976Z" fill="#312D2D"/>
<path d="M87.6507 42.9556V47.7762C87.6507 47.8765 87.0873 48.383 86.9238 47.6194C86.7251 46.6913 87.198 45.7786 86.8936 44.8839C85.9428 45.5292 85.9806 46.9998 85.3669 47.9459C85.0751 48.005 84.7003 48.041 84.5066 47.7762V42.9556H85.387C85.5957 44.0406 85.0172 45.051 85.2612 46.0408C86.0409 45.7683 85.8397 45.2541 86.051 44.7296C86.1516 44.4777 86.7352 43.0559 86.798 42.9865C87.0068 42.7577 87.3866 42.9531 87.6482 42.9582L87.6507 42.9556Z" fill="#312D2D"/>
<path d="M98.2149 42.9556V47.969L97.3346 48.0976V43.7912C97.3346 43.3619 95.9512 43.3619 95.9512 43.7912V47.969H95.0708V42.9556C96.0996 42.7371 97.1786 42.7911 98.2149 42.9556Z" fill="#312D2D"/>
<path d="M78.9101 43.0842H81.0481C81.0909 43.0842 81.3147 43.3413 81.3424 43.4313C81.6518 44.5111 79.715 43.4364 79.715 44.5625C79.715 45.5138 80.955 44.8864 81.1009 45.3492C81.4304 46.3853 79.7226 45.6475 79.715 46.6193C79.71 47.3109 80.4092 46.9946 80.8947 47.0975C81.7046 47.2723 81.2896 48.2261 81.0481 48.2261H78.9101L78.7215 48.0333V43.277L78.9101 43.0842Z" fill="#312D2D"/>
<path d="M120.06 47.2903C120.015 47.3957 119.23 47.9768 119.087 48.0256C117.505 48.5578 116.785 46.1822 116.964 44.9559C117.142 43.7295 118.101 42.2101 119.467 43.0251C120.012 43.3516 120.49 44.7065 120.488 45.3338C120.488 45.5138 120.128 47.1309 120.06 47.2877V47.2903ZM118.548 43.4878C117.562 43.7912 117.623 47.4394 118.77 47.334C119.552 47.262 119.552 45.1435 119.474 44.5574C119.421 44.1589 119.029 43.3413 118.548 43.4878Z" fill="#312D2D"/>
<path d="M102.549 43.5418C102.576 43.583 102.692 43.5778 102.732 43.6961C102.916 44.2128 102.924 45.7786 102.866 46.3596C102.73 47.7068 101.482 48.7198 100.35 47.6477C98.8161 46.1976 99.6964 42.025 101.933 42.9454C102.229 43.0662 102.38 43.2847 102.546 43.5393L102.549 43.5418ZM101.706 43.6292C101.1 43.1048 100.564 44.1563 100.489 44.7013C100.36 45.6295 100.373 46.8095 101.168 47.4214C102.023 47.4908 102.212 45.3235 102.106 44.6988C102.091 44.6062 101.749 43.6652 101.706 43.6292Z" fill="#312D2D"/>
<path d="M152.575 48.0642C152.203 46.8147 152.575 45.4752 152.399 44.1974L151.526 43.8041C151.335 43.5881 151.411 43.1433 151.599 42.9531C151.77 42.7782 154.024 42.7577 154.343 42.8528C154.738 42.9711 154.759 43.529 154.628 43.8632L153.793 44.038C153.453 44.272 153.856 47.2749 153.654 47.8816C153.531 48.2493 152.852 48.311 152.573 48.0616L152.575 48.0642Z" fill="#312D2D"/>
<path d="M104.508 48.0924C104.257 47.0538 104.508 46.0074 104.508 44.943C104.508 44.308 104.211 43.7089 104.498 43.0482C105.884 42.3823 107.69 43.1253 107.237 44.9199C106.966 45.992 105.874 45.7271 105.499 46.0999C104.898 46.699 105.791 48.239 104.506 48.095L104.508 48.0924ZM106.231 43.6292C105.099 42.6343 104.802 45.7863 105.954 45.2849C106.488 45.051 106.546 43.9043 106.231 43.6292Z" fill="#312D2D"/>
<path d="M34.3267 44.434C34.3141 44.3645 34.2035 44.2308 34.1783 44.1331L33.5017 43.9917L33.464 43.2924C33.5067 43.1253 33.6174 43.1099 33.7608 43.0816C34.0249 43.0302 36.2333 43.0559 36.3465 43.1382C36.8445 44.1152 35.9491 43.8401 35.4586 44.3028V47.9022C35.4586 48.3084 34.3267 48.3084 34.3267 47.9022C34.3267 46.9458 34.4701 45.2824 34.3267 44.4314V44.434Z" fill="#312D2D"/>
<path d="M121.859 43.0199C121.944 42.7371 123.868 42.6934 123.981 43.0353L123.997 43.4698L122.99 43.5341C122.354 44.3748 122.774 45.2644 123.873 45.0124V45.6577C122.905 45.5112 122.558 45.884 122.744 46.8764C122.907 47.7402 124.598 46.9124 123.853 48.0899C123.8 48.1284 123.712 47.9716 123.682 47.9716H121.859V43.0199Z" fill="#312D2D"/>
<path d="M109.408 44.0483C109.408 43.6292 108.616 43.4981 108.289 43.457V42.9711C108.419 42.8065 110.852 42.7474 111.048 42.8862C111.257 43.0328 111.242 43.4801 110.955 43.5752C110.739 43.6472 110.401 43.5161 110.303 43.8092C110.105 44.8479 110.522 46.6887 110.261 47.622C110.165 47.9562 109.737 48.1721 109.408 48.1002V44.0483Z" fill="#312D2D"/>
<path d="M180.94 45.2952C181.252 45.8608 180.281 47.1309 179.519 46.429C178.895 45.8531 179.189 44.9559 179.952 44.817C180.105 44.7887 180.905 45.231 180.94 45.2952Z" fill="#312D2D"/>
<path d="M31.5373 45.1615L31.4366 46.3648C30.3853 46.8661 29.7942 46.2928 30.0658 45.1564C30.667 44.9687 30.9537 44.763 31.5373 45.1641V45.1615Z" fill="#312D2D"/>
</svg>
