<svg width="209" height="54" viewBox="0 0 209 54" fill="none" xmlns="http://www.w3.org/2000/svg">
<g clip-path="url(#clip0_1074_5959)">
<path d="M52.2391 13.1858C52.4034 12.7936 52.4034 12.7936 53.3072 10.4839C51.1298 10.2225 49.9382 10.0046 48.0483 10.0482C45.5832 8.74083 42.8304 8 39.9134 8C30.0117 8 22 16.4977 22 27C22 37.5023 30.0117 46 39.9134 46C49.815 46 57.8267 37.5023 57.8267 27C57.8267 21.5528 55.6491 16.672 52.2391 13.1858Z" fill="#E1E1E1"/>
<path d="M50.9232 15.8431C50.8821 15.7995 50.841 15.7995 50.7999 15.7995C50.7588 15.7995 50.7178 15.8431 50.6766 15.8431C49.9372 16.7582 49.0743 17.5862 48.1293 18.2399C46.2394 19.5036 44.103 20.2009 41.8433 20.2009C37.6525 20.2009 35.2695 18.022 33.3385 16.4532C33.2974 16.4096 33.2563 16.366 33.2563 16.3224C33.2563 16.2789 33.2974 16.2353 33.3385 16.1917C36.3378 13.7513 38.8029 12.1825 41.3091 11.2674C41.3913 11.2238 41.4324 11.1802 41.4324 11.0931C41.4324 11.0059 41.3502 10.9624 41.268 10.9188C40.8161 10.8752 40.3641 10.8752 39.9122 10.8752C31.4897 10.8316 24.6694 18.0656 24.6694 26.999C24.6694 31.9234 26.7237 36.3248 30.0106 39.2881C30.0517 39.3317 30.0927 39.3317 30.1749 39.3317C30.216 39.3317 30.2571 39.2881 30.2982 39.2009L30.9145 37.1091C30.9555 37.022 31.0377 36.9784 31.1199 36.9784C39.2548 38.8522 42.7471 34.1894 42.172 31.2697C41.6789 28.7858 37.8579 26.6068 32.2703 29.9623C32.2292 30.0059 32.1881 30.0059 32.147 29.9623C32.147 29.9623 32.1059 29.9623 32.1059 29.9188C32.0649 29.8752 32.0238 29.8317 32.0238 29.7444L33.9137 19.5036C33.9137 19.4601 33.9548 19.4165 33.9959 19.3729C34.0369 19.3293 34.1191 19.3729 34.1602 19.3729C34.6944 19.7215 36.2967 20.811 38.0223 21.9004C38.0634 21.944 38.1044 21.9876 38.1044 22.0748C38.0634 22.5105 37.8168 24.1229 37.7347 24.8202C37.7347 24.8637 37.7347 24.9509 37.7758 24.9944C37.8168 25.0381 37.8579 25.0381 37.9401 25.0381C47.3076 22.3798 49.2797 28.6114 49.0332 31.5748C48.458 38.3294 41.4324 41.9027 35.1874 41.9898C35.1052 41.9898 35.0231 42.0335 35.0231 42.1206C35.0231 42.2078 35.0641 42.2949 35.1462 42.2949C36.6665 42.8179 38.2688 43.1229 39.9122 43.1229C48.3348 43.1229 55.155 35.889 55.155 26.9555C55.155 22.6849 53.5116 18.7192 50.9232 15.8431Z" fill="#312D2D"/>
<path d="M35.9707 16.2796C41.0242 20.3323 48.4197 18.2841 50.8848 11.9653C46.3243 14.275 41.2708 15.7566 35.9707 16.2796Z" fill="#312D2D"/>
<path d="M35.9707 16.2798C41.2708 15.8005 46.2832 14.3188 50.8848 11.9656C45.7491 11.3555 40.408 12.7064 35.9707 16.2798Z" fill="#312D2D"/>
<path d="M113.251 22.8169C111.32 22.8169 110.17 24.1242 109.225 25.7366H109.183C109.183 24.0806 108.567 22.8169 106.801 22.8169C104.705 22.8169 103.596 24.4729 102.856 25.8674H102.815C102.938 25.3444 103.062 24.6036 103.185 23.9935C103.226 23.7756 103.144 23.5577 103.021 23.427C102.897 23.2527 102.692 23.1655 102.487 23.1655H100.391L98.5012 34.3651C98.4601 34.5394 98.5012 34.7573 98.6245 34.9316C98.7478 35.0624 98.9121 35.1495 99.1175 35.1495H101.336L101.5 34.1472C102.61 27.4797 104.13 25.6495 105.363 25.6495C106.225 25.6495 106.349 26.5211 106.143 27.6976L104.993 34.2343C104.952 34.4522 104.993 34.6702 105.157 34.8444C105.28 35.0188 105.486 35.1059 105.691 35.1059H107.869L108.033 34.1036C109.142 27.4797 110.663 25.6059 111.895 25.6059C112.717 25.6059 112.84 26.4339 112.635 27.6541L111.484 34.3651C111.443 34.5394 111.484 34.7137 111.608 34.888C111.731 35.0188 111.895 35.1059 112.059 35.1059H114.319L115.593 27.5233C115.716 26.9133 115.757 26.3467 115.757 25.8674C115.716 23.8628 114.812 22.8169 113.251 22.8169ZM125.823 20.2894L126.809 20.4637C127.097 20.5073 127.343 20.5509 127.426 20.0715L127.754 18.7642C127.836 18.372 127.713 18.2848 127.343 18.1977L126.439 18.0233C126.234 18.0233 125.905 17.9362 125.823 18.4155L125.453 19.7665C125.412 20.0715 125.495 20.2458 125.823 20.2894ZM97.0632 23.1655H92.7492C89.5446 23.1655 87.4081 24.6036 87.4081 27.3055C87.4081 28.7435 88.353 29.6587 89.298 29.7458V29.7894C88.9283 29.9202 88.5174 30.4431 88.0654 31.0096C87.2848 32.0555 86.7097 32.7527 86.2166 32.7527C86.1344 32.7527 86.0523 32.8398 86.0111 32.927L85.7647 34.8009C85.7647 34.888 85.7647 34.9751 85.8468 35.0188C85.888 35.0624 85.9701 35.1059 86.0523 35.1059H86.9561C88.4353 35.1059 88.9283 34.4958 90.3663 32.5783C91.4756 31.0096 91.8864 30.5302 92.5849 30.5302H93.0779L92.3794 34.7573C92.3794 34.8444 92.3794 34.9316 92.4206 34.9751C92.4616 35.0624 92.5438 35.0624 92.626 35.0624H95.1322C95.2555 35.0624 95.3787 34.9751 95.3787 34.8444L97.3098 23.427C97.3098 23.3399 97.3098 23.2527 97.2686 23.2091C97.2275 23.2091 97.1454 23.1655 97.0632 23.1655ZM93.4888 28.3949H91.9275C90.9414 28.3949 90.4895 28.0463 90.4895 27.349C90.4895 26.1724 91.188 25.5624 92.5438 25.5624H94.0229L93.4888 28.3949ZM89.5446 17.6311C101.542 17.1082 120.482 19.4614 120.482 19.4614C120.729 19.505 120.934 19.3743 121.016 19.1564L121.222 18.5027L121.55 17.4132C121.591 17.3261 121.55 17.2825 121.509 17.1954C121.468 17.1518 121.427 17.1082 121.345 17.0646C119.003 16.716 101.706 14.3628 89.1337 14.6678C77.301 14.9729 67.3583 17.4568 64.6877 18.1977C64.4823 18.2412 64.3179 18.4155 64.2769 18.677L63.9893 20.2894C63.9893 20.3766 63.9893 20.4637 64.0714 20.5073C64.1125 20.5509 64.1947 20.5944 64.2769 20.5509C66.4133 20.0279 69.4126 19.505 73.3568 18.9821L70.7273 34.5829C70.6451 34.8444 70.6451 35.1495 71.1382 35.1495H73.6855C73.8498 35.1495 74.0552 35.1059 74.1375 34.6702L76.6025 19.5921C76.6025 19.5486 76.7669 18.7642 77.5886 18.5463C78.6568 18.4155 80.5057 18.3284 81.615 18.1977L78.8622 34.5829C78.7801 35.1495 79.0266 35.1059 79.2321 35.1059H81.9026C82.1081 35.1059 82.4367 35.0624 82.5189 34.5394L85.1073 18.8077C85.1073 18.8077 85.2717 17.9798 86.0934 17.8054C87.4081 17.7619 88.2298 17.6747 89.5446 17.6311ZM122.701 19.8536L123.81 20.0279C124.098 20.0715 124.344 20.1151 124.467 19.6357L124.837 18.2848C124.919 17.849 124.796 17.7619 124.426 17.6747L123.399 17.544C123.194 17.5004 122.865 17.4568 122.742 17.9362L122.372 19.3307C122.249 19.5921 122.331 19.7665 122.701 19.8536ZM127.015 25.9545C127.015 23.9935 125.741 22.8605 123.563 22.8605C119.948 22.8605 117.072 26.1724 117.072 30.661C117.072 33.4935 118.551 35.4545 121.386 35.4545C123.605 35.4545 125.043 34.5394 125.905 33.7114L124.714 31.576C124.015 32.2297 123.029 32.8398 121.838 32.8398C120.605 32.8398 120.112 32.0119 120.071 30.661C123.851 30.2251 127.015 28.8742 127.015 25.9545ZM120.277 28.6128C120.687 26.8697 121.632 25.3009 123.07 25.3009C123.769 25.3009 124.139 25.6059 124.139 26.3032C124.098 27.567 122.536 28.3949 120.277 28.6128ZM135.93 22.8169C133.958 22.8169 132.931 24.255 131.986 25.9545H131.945C132.068 25.5188 132.15 25.1265 132.233 24.6908C132.315 24.2986 132.233 23.9064 131.986 23.6013C131.74 23.2963 131.411 23.122 131.041 23.122H129.603L126.604 40.466H128.288C129.028 40.466 129.685 39.8995 129.808 39.1151L130.466 35.2366C130.712 35.3238 131.205 35.411 132.027 35.411C135.93 35.411 138.765 32.0555 138.765 26.8697C138.847 24.4293 137.697 22.8169 135.93 22.8169ZM132.109 33.0578C131.452 33.0578 131.123 32.9706 130.959 32.927L131.082 32.2733C131.945 27.872 133.383 25.6495 134.739 25.6495C135.437 25.6495 135.766 26.3467 135.766 27.4362C135.684 30.9224 134.081 33.0578 132.109 33.0578ZM183.097 22.8169C178.906 22.8169 175.989 26.3467 175.989 31.4889C175.989 33.9293 177.18 35.411 178.906 35.411C180.755 35.411 181.864 33.9729 182.727 32.2297H182.768C182.645 32.7527 182.562 33.4064 182.48 34.0165C182.439 34.2779 182.521 34.5829 182.727 34.8009C182.891 35.0188 183.137 35.1495 183.425 35.1495H185.357C185.397 34.2779 185.521 32.317 186.055 29.005L187 23.5577C186.507 23.2963 185.151 22.8169 183.097 22.8169ZM183.631 26.0417C182.85 30.5302 181.371 32.6656 180.138 32.6656C179.44 32.6656 179.111 32.099 179.111 30.9224C179.111 27.567 180.795 25.2137 182.645 25.2137C183.097 25.2137 183.507 25.3009 183.713 25.3444L183.631 26.0417ZM172.044 30.3995C171.716 29.7022 171.387 29.2229 171.059 28.9179L176.029 23.1655H173.319C172.866 23.1655 172.414 23.3834 172.086 23.7756L168.593 28.0463H167.977L168.635 24.1242C168.675 23.9064 168.635 23.6449 168.47 23.4706C168.347 23.2963 168.1 23.1655 167.895 23.1655H165.717L163.745 35.1495H165.923C166.415 35.1495 166.827 34.7573 166.909 34.2779L167.608 30.2251H167.936C168.593 30.2251 169.004 30.966 169.702 32.5783C170.524 34.4522 170.935 35.1495 172.374 35.1495H173.565L173.975 32.7527H173.729C173.195 32.7527 172.743 32.0119 172.044 30.3995ZM159.801 23.9064C159.349 26.9568 157.87 28.9614 156.432 28.9614C155.692 28.9614 155.446 28.3949 155.652 27.0875L156.021 24.7343C156.062 24.3421 155.98 23.9499 155.734 23.6449C155.487 23.3399 155.158 23.1655 154.788 23.1655H153.268L152.57 27.2183C152.488 27.7412 152.447 28.2642 152.447 28.6999C152.447 30.7045 153.35 31.794 154.953 31.794C156.966 31.794 158.281 30.3995 159.103 28.8742H159.143C158.815 30.7045 158.363 33.4064 158.199 35.1059H161.116C161.157 34.2343 161.363 32.2733 161.896 28.9614L162.882 23.122H159.884L159.801 23.9064ZM146.325 22.8169C142.668 22.8169 139.916 26.2596 139.916 30.3995C139.916 33.1449 141.518 35.411 144.435 35.411C148.174 35.411 150.762 32.1426 150.762 27.8283C150.803 24.9958 149.16 22.8169 146.325 22.8169ZM144.723 32.9706C143.572 32.9706 142.997 31.9247 142.997 30.3559C142.997 28.1334 144.188 25.3009 146.078 25.3009C147.229 25.3009 147.804 26.216 147.804 27.872C147.804 30.0509 146.736 32.9706 144.723 32.9706Z" fill="#312D2D"/>
</g>
<defs>
<clipPath id="clip0_1074_5959">
<rect width="165" height="38" fill="white" transform="translate(22 8)"/>
</clipPath>
</defs>
</svg>
