<svg width="209" height="54" viewBox="0 0 209 54" fill="none" xmlns="http://www.w3.org/2000/svg">
<g clip-path="url(#clip0_1074_5959)">
<path d="M47.1713 12.4587C47.3516 12.0459 47.3516 12.0459 48.3431 9.61468C45.9545 9.33945 44.6474 9.1101 42.5742 9.15596C39.87 7.77982 36.8503 7 33.6504 7C22.7886 7 14 15.945 14 27C14 38.055 22.7886 47 33.6504 47C44.5122 47 53.3008 38.055 53.3008 27C53.3008 21.2661 50.9121 16.1284 47.1713 12.4587Z" fill="white"/>
<path d="M45.7278 15.2559C45.6827 15.2101 45.6377 15.2101 45.5926 15.2101C45.5474 15.2101 45.5024 15.2559 45.4573 15.2559C44.6461 16.2192 43.6996 17.0908 42.663 17.7789C40.5899 19.1091 38.2462 19.8431 35.7674 19.8431C31.1703 19.8431 28.5562 17.5495 26.4379 15.8981C26.3929 15.8523 26.3478 15.8064 26.3478 15.7605C26.3478 15.7146 26.3929 15.6688 26.4379 15.6229C29.7281 13.0541 32.4322 11.4027 35.1815 10.4394C35.2716 10.3935 35.3167 10.3477 35.3167 10.2559C35.3167 10.1642 35.2266 10.1183 35.1363 10.0724C34.6406 10.0266 34.1448 10.0266 33.6491 10.0266C24.4098 9.9807 16.9282 17.5954 16.9282 26.999C16.9282 32.1826 19.1817 36.8156 22.7873 39.9348C22.8324 39.9807 22.8774 39.9807 22.9676 39.9807C23.0126 39.9807 23.0577 39.9348 23.1028 39.8431L23.7788 37.6412C23.8239 37.5495 23.914 37.5036 24.0042 37.5036C32.928 39.4761 36.7589 34.5679 36.128 31.4945C35.587 28.8798 31.3956 26.5862 25.2661 30.1183C25.2211 30.1642 25.176 30.1642 25.1309 30.1183C25.1309 30.1183 25.0858 30.1183 25.0858 30.0725C25.0408 30.0266 24.9957 29.9807 24.9957 29.8889L27.0689 19.1091C27.0689 19.0633 27.114 19.0174 27.1591 18.9715C27.2041 18.9257 27.2942 18.9715 27.3393 18.9715C27.9253 19.3385 29.6829 20.4853 31.5759 21.6321C31.621 21.678 31.666 21.7238 31.666 21.8156C31.621 22.2743 31.3505 23.9715 31.2604 24.7055C31.2604 24.7513 31.2604 24.8431 31.3055 24.8889C31.3505 24.9348 31.3956 24.9348 31.4857 24.9348C41.7616 22.1367 43.925 28.6963 43.6545 31.8156C43.0236 38.9257 35.3167 42.6871 28.4661 42.7788C28.376 42.7788 28.2858 42.8247 28.2858 42.9165C28.2858 43.0083 28.3308 43.1 28.421 43.1C30.0886 43.6505 31.8463 43.9715 33.6491 43.9715C42.8884 43.9715 50.3699 36.3568 50.3699 26.9532C50.3699 22.4578 48.5672 18.2835 45.7278 15.2559Z" fill="#312D2D"/>
<path d="M29.3252 15.7156C34.8688 19.9817 42.9813 17.8257 45.6855 11.1743C40.6828 13.6055 35.1392 15.1651 29.3252 15.7156Z" fill="#312D2D"/>
<path d="M29.3252 15.7155C35.1392 15.2109 40.6377 13.6513 45.6855 11.1742C40.0518 10.532 34.1927 11.954 29.3252 15.7155Z" fill="#312D2D"/>
<path d="M114.099 22.5969C111.981 22.5969 110.719 23.973 109.682 25.6702H109.637C109.637 23.9271 108.961 22.5969 107.023 22.5969C104.725 22.5969 103.508 24.3399 102.696 25.8079H102.651C102.787 25.2574 102.922 24.4776 103.057 23.8354C103.102 23.606 103.012 23.3767 102.877 23.2391C102.742 23.0556 102.516 22.9638 102.291 22.9638H99.9924L97.9191 34.7528C97.874 34.9363 97.9191 35.1657 98.0543 35.3492C98.1896 35.4868 98.3698 35.5785 98.5952 35.5785H101.029L101.209 34.5235C102.426 27.5051 104.094 25.5785 105.446 25.5785C106.392 25.5785 106.527 26.4959 106.302 27.7344L105.04 34.6152C104.995 34.8445 105.04 35.0739 105.22 35.2574C105.356 35.4409 105.581 35.5326 105.806 35.5326H108.195L108.375 34.4776C109.592 27.5051 111.26 25.5326 112.612 25.5326C113.513 25.5326 113.648 26.4042 113.423 27.6886L112.161 34.7528C112.116 34.9363 112.161 35.1198 112.296 35.3033C112.432 35.4409 112.612 35.5326 112.792 35.5326H115.271L116.668 27.551C116.803 26.9088 116.848 26.3124 116.848 25.8079C116.803 23.6978 115.812 22.5969 114.099 22.5969ZM127.89 19.9363L128.972 20.1198C129.288 20.1657 129.558 20.2115 129.648 19.7069L130.009 18.3308C130.099 17.918 129.964 17.8262 129.558 17.7345L128.566 17.551C128.341 17.551 127.981 17.4592 127.89 17.9638L127.485 19.3858C127.44 19.7069 127.53 19.8904 127.89 19.9363ZM96.3417 22.9638H91.6093C88.0939 22.9638 85.7503 24.4776 85.7503 27.3217C85.7503 28.8354 86.7869 29.7987 87.8235 29.8904V29.9363C87.4179 30.0739 86.9672 30.6244 86.4714 31.2207C85.6151 32.3217 84.9842 33.0556 84.4432 33.0556C84.3531 33.0556 84.263 33.1473 84.2179 33.2391L83.9475 35.2116C83.9475 35.3033 83.9475 35.395 84.0376 35.4409C84.0828 35.4868 84.1729 35.5326 84.263 35.5326H85.2545C86.8771 35.5326 87.4179 34.8904 88.9953 32.872C90.2122 31.2207 90.6629 30.7161 91.4291 30.7161H91.9699L91.2037 35.1657C91.2037 35.2574 91.2037 35.3492 91.2488 35.395C91.2938 35.4868 91.384 35.4868 91.4742 35.4868H94.2234C94.3586 35.4868 94.4939 35.395 94.4939 35.2574L96.6121 23.2391C96.6121 23.1473 96.6121 23.0556 96.567 23.0097C96.5219 23.0097 96.4318 22.9638 96.3417 22.9638ZM92.4206 28.4684H90.7079C89.6263 28.4684 89.1305 28.1015 89.1305 27.3675C89.1305 26.129 89.8967 25.4868 91.384 25.4868H93.0065L92.4206 28.4684ZM88.0939 17.1381C101.254 16.5877 122.031 19.0647 122.031 19.0647C122.302 19.1106 122.527 18.973 122.617 18.7436L122.843 18.0556L123.203 16.9088C123.248 16.817 123.203 16.7712 123.158 16.6794C123.113 16.6336 123.068 16.5877 122.978 16.5418C120.409 16.1748 101.435 13.6978 87.6432 14.0189C74.6632 14.34 63.7563 16.9547 60.8267 17.7345C60.6014 17.7803 60.4211 17.9638 60.376 18.2391L60.0605 19.9363C60.0605 20.0281 60.0605 20.1198 60.1507 20.1657C60.1958 20.2115 60.2859 20.2574 60.376 20.2115C62.7197 19.6611 66.0098 19.1106 70.3364 18.5602L67.452 34.9821C67.3618 35.2574 67.3618 35.5785 67.9027 35.5785H70.697C70.8772 35.5785 71.1026 35.5326 71.1928 35.0739L73.8969 19.2024C73.8969 19.1565 74.0772 18.3308 74.9786 18.1014C76.1504 17.9638 78.1786 17.8721 79.3954 17.7345L76.3758 34.9821C76.2856 35.5785 76.5561 35.5326 76.7814 35.5326H79.711C79.9363 35.5326 80.2968 35.4868 80.387 34.9363L83.2264 18.3767C83.2264 18.3767 83.4067 17.5051 84.3081 17.3216C85.7503 17.2758 86.6517 17.184 88.0939 17.1381ZM124.465 19.4776L125.682 19.6611C125.998 19.7069 126.268 19.7528 126.403 19.2482L126.809 17.8262C126.899 17.3675 126.764 17.2758 126.358 17.184L125.231 17.0464C125.006 17.0005 124.645 16.9547 124.51 17.4592L124.105 18.9271C123.969 19.2024 124.06 19.3858 124.465 19.4776ZM129.198 25.8996C129.198 23.8354 127.8 22.6427 125.412 22.6427C121.446 22.6427 118.291 26.129 118.291 30.8538C118.291 33.8354 119.913 35.8996 123.023 35.8996C125.457 35.8996 127.034 34.9363 127.981 34.0647L126.674 31.817C125.907 32.5051 124.826 33.1473 123.519 33.1473C122.167 33.1473 121.626 32.2758 121.581 30.8538C125.727 30.395 129.198 28.973 129.198 25.8996ZM121.806 28.6978C122.257 26.8629 123.293 25.2116 124.871 25.2116C125.637 25.2116 126.043 25.5326 126.043 26.2666C125.998 27.5969 124.285 28.4684 121.806 28.6978ZM138.978 22.5969C136.814 22.5969 135.688 24.1106 134.651 25.8996H134.606C134.741 25.4409 134.831 25.028 134.921 24.5694C135.012 24.1565 134.921 23.7437 134.651 23.4225C134.381 23.1014 134.02 22.918 133.614 22.918H132.037L128.747 41.1748H130.595C131.406 41.1748 132.127 40.5785 132.262 39.7528L132.983 35.6702C133.254 35.7619 133.795 35.8538 134.696 35.8538C138.978 35.8538 142.087 32.3217 142.087 26.8629C142.178 24.2941 140.916 22.5969 138.978 22.5969ZM134.786 33.3767C134.065 33.3767 133.705 33.2849 133.524 33.2391L133.659 32.551C134.606 27.9179 136.183 25.5785 137.671 25.5785C138.437 25.5785 138.797 26.3124 138.797 27.4593C138.707 31.129 136.95 33.3767 134.786 33.3767ZM190.718 22.5969C186.121 22.5969 182.921 26.3124 182.921 31.7253C182.921 34.2941 184.227 35.8538 186.121 35.8538C188.149 35.8538 189.366 34.3399 190.312 32.5051H190.357C190.222 33.0556 190.131 33.7437 190.041 34.3859C189.997 34.6611 190.087 34.9821 190.312 35.2116C190.492 35.4409 190.762 35.5785 191.078 35.5785H193.197C193.241 34.6611 193.377 32.5969 193.963 29.1106L194.999 23.3767C194.458 23.1014 192.971 22.5969 190.718 22.5969ZM191.304 25.9914C190.447 30.7161 188.825 32.9639 187.472 32.9639C186.707 32.9639 186.345 32.3675 186.345 31.129C186.345 27.5969 188.193 25.1198 190.222 25.1198C190.718 25.1198 191.168 25.2116 191.394 25.2574L191.304 25.9914ZM178.594 30.5785C178.234 29.8445 177.873 29.3399 177.512 29.0189L182.965 22.9638H179.992C179.495 22.9638 178.999 23.1932 178.639 23.606L174.808 28.1015H174.132L174.853 23.973C174.898 23.7437 174.853 23.4684 174.672 23.2849C174.538 23.1014 174.267 22.9638 174.042 22.9638H171.653L169.49 35.5785H171.879C172.419 35.5785 172.87 35.1657 172.96 34.6611L173.727 30.395H174.087C174.808 30.395 175.259 31.1748 176.025 32.872C176.926 34.8445 177.377 35.5785 178.955 35.5785H180.262L180.712 33.0556H180.442C179.856 33.0556 179.36 32.2758 178.594 30.5785ZM165.163 23.7437C164.667 26.9546 163.045 29.0647 161.467 29.0647C160.656 29.0647 160.386 28.4684 160.611 27.0922L161.017 24.6152C161.061 24.2023 160.971 23.7895 160.701 23.4684C160.431 23.1473 160.07 22.9638 159.665 22.9638H157.997L157.231 27.2299C157.141 27.7803 157.096 28.3308 157.096 28.7895C157.096 30.8996 158.087 32.0464 159.845 32.0464C162.054 32.0464 163.496 30.5785 164.397 28.973H164.442C164.082 30.8996 163.586 33.7437 163.406 35.5326H166.605C166.651 34.6152 166.876 32.551 167.462 29.0647L168.543 22.918H165.254L165.163 23.7437ZM150.38 22.5969C146.369 22.5969 143.349 26.2207 143.349 30.5785C143.349 33.4684 145.107 35.8538 148.307 35.8538C152.408 35.8538 155.248 32.4134 155.248 27.872C155.293 24.8904 153.49 22.5969 150.38 22.5969ZM148.623 33.2849C147.361 33.2849 146.73 32.184 146.73 30.5326C146.73 28.1932 148.037 25.2116 150.11 25.2116C151.372 25.2116 152.003 26.1748 152.003 27.9179C152.003 30.2116 150.831 33.2849 148.623 33.2849Z" fill="#312D2D"/>
</g>
<defs>
<clipPath id="clip0_1074_5959">
<rect width="181" height="40" fill="white" transform="translate(14 7)"/>
</clipPath>
</defs>
</svg>
