<svg width="209" height="54" viewBox="0 0 209 54" fill="none" xmlns="http://www.w3.org/2000/svg">
<path d="M66.5525 35.3428C66.5175 35.3328 66.32 35.1386 66.2975 35.0888C66.925 31.4687 67.4125 27.7315 68.155 24.1163C68.335 23.2349 68.175 22.6 69.1725 22.5153C70.0275 22.4431 71.9875 22.4108 72.81 22.5153C72.9475 22.5328 73.09 22.5054 73.185 22.6398L74.43 29.9922L78.805 22.5228H83.18C83.2325 22.5228 83.405 22.7842 83.425 22.8789L81.21 35.1884C81.1775 35.2233 80.955 35.3453 80.93 35.3453H77.2425L78.115 29.3698L75.0575 34.8498C74.725 35.5295 72.4925 35.4897 72.105 35.1685C71.94 35.0316 71.8575 34.805 71.7975 34.6033C71.3125 32.965 71.2775 30.7118 70.99 28.9938C70.74 29.0411 70.785 29.2577 70.74 29.4295C70.32 31.0728 70.3075 33.1891 69.835 34.7527C69.79 34.9046 69.5425 35.3428 69.4275 35.3428C68.8075 35.3428 66.99 35.4673 66.5525 35.3428Z" fill="#312D2D"/>
<path d="M51.4275 39.3264C51.3525 39.304 51.205 39.0675 51.1825 38.9704L54.06 22.7768C54.2125 22.5751 54.4475 22.5452 54.6775 22.5203C55.2225 22.4581 57.185 22.4332 57.675 22.5253C57.83 22.5552 57.9875 22.6274 58.06 22.7743C58.175 23.0009 57.8025 23.6607 58.175 23.5187C58.3475 23.454 58.71 23.083 58.985 22.956C61.0275 22.0049 63.6775 22.1892 65.115 24.0814C66.8725 26.3944 65.69 31.3666 63.8675 33.4207C62.085 35.4324 58.1325 36.6848 56.1775 34.3518C56.035 34.439 56.0375 34.5386 56.0025 34.6755C55.6725 35.8806 55.7025 37.7156 55.31 38.8409C55.25 39.0102 54.9475 39.3314 54.8025 39.3314C54.1375 39.3314 51.8575 39.4634 51.4275 39.3314V39.3264ZM61.1975 25.6749C60.41 24.913 58.7975 25.3637 58.115 26.0683C56.695 27.5398 55.66 32.8131 58.915 32.716C61.38 32.6413 62.7725 27.1987 61.1975 25.6749Z" fill="#312D2D"/>
<path d="M26.4575 17.5706C27.095 17.4436 30.125 17.4461 30.795 17.5482C31.2525 17.6179 31.5125 17.9167 31.5725 18.3649C30.48 24.3105 29.555 30.2935 28.45 36.2366C28.2975 37.0508 28.0425 39.2567 27.6725 39.8194C27.47 40.1282 27.1675 40.2825 26.805 40.3249C26.065 40.412 23.1 40.4444 22.43 40.3199C21.9375 40.2278 21.7775 39.7099 21.865 39.2692C23.0125 33.2812 23.9 27.2435 25.03 21.253C25.2275 20.2048 25.2875 17.8047 26.4575 17.5706Z" fill="#312D2D"/>
<path d="M157.177 22.5203C157.237 22.5402 157.325 22.6573 157.347 22.727L156.24 29.6162L161.3 22.5203H165.3C165.317 22.5203 165.53 22.7195 165.555 22.7743L163.48 34.8996C163.485 35.0316 163.252 35.3428 163.175 35.3428H159.55C159.475 35.3428 159.245 34.9793 159.302 34.8324L160.3 28.4933L155.425 35.3428H151.3C151.062 35.1834 151.097 34.917 151.11 34.6631C151.287 31.0753 152.852 26.7829 153.145 23.1129C153.147 22.961 153.465 22.5203 153.55 22.5203H157.177Z" fill="#312D2D"/>
<path d="M191.928 22.5203C191.963 22.5303 192.16 22.7245 192.183 22.7743C191.555 26.3944 191.07 30.1316 190.325 33.7468C190.265 34.0406 190.113 35.034 189.96 35.1884C189.615 35.542 186.85 35.2357 186.198 35.3453L185.928 34.4689C183.188 36.6225 178.465 35.6291 178.118 31.7898C177.853 28.8743 178.883 25.1819 181.4 23.4839C182.853 22.5029 185.185 21.9701 186.825 22.7444C187.048 22.849 187.893 23.6034 187.99 23.5138C187.955 23.21 188.217 22.5178 188.553 22.5178C189.265 22.5178 191.428 22.3759 191.928 22.5178V22.5203ZM184.963 25.2815C181.97 25.6849 180.633 33.9958 184.958 32.5069C186.803 31.872 187.465 28.6577 187.232 26.9497C187.08 25.8293 186.085 25.1296 184.965 25.2815H184.963Z" fill="#312D2D"/>
<path d="M52.0525 22.5203C52.1625 22.5552 52.3525 22.8988 52.3275 23.0531C51.48 26.7331 51.2075 30.7217 50.33 34.3718C50.2825 34.5709 50.2025 35.0739 50.0875 35.1909C49.7425 35.5444 46.9775 35.2382 46.325 35.3478L46.055 34.4713C43.315 36.625 38.5925 35.6316 38.245 31.7923C37.985 28.9216 38.99 25.2342 41.4525 23.5362C42.9225 22.5228 45.275 21.9527 46.9525 22.7469C47.175 22.8515 48.02 23.6059 48.1175 23.5162C48.0825 23.2125 48.345 22.5203 48.68 22.5203H52.055H52.0525ZM45.0875 25.2815C42.095 25.6849 40.7575 33.9958 45.0825 32.5069C46.9275 31.872 47.59 28.6577 47.3575 26.9497C47.205 25.8293 46.21 25.1296 45.09 25.2815H45.0875Z" fill="#312D2D"/>
<path d="M97.5525 22.5203C97.6875 22.5577 97.915 22.8888 97.86 23.0606C96.9475 26.7654 96.7775 30.9682 95.8325 34.6232C95.72 35.0614 95.685 35.2805 95.185 35.3478C94.685 35.415 92.5175 35.4249 92.0575 35.3378C91.8525 35.298 91.71 35.2033 91.635 35.0067L91.68 34.3469C88.76 36.7371 84.0775 35.644 83.745 31.5433C83.61 29.8827 84.0625 27.724 84.76 26.2102C86.245 22.9934 90.63 20.9941 93.615 23.5162C93.675 23.2324 93.83 22.5203 94.18 22.5203C94.89 22.5203 97.055 22.3784 97.555 22.5203H97.5525ZM90.585 25.2865C87.585 25.7197 86.275 34.0979 90.685 32.487C92.535 31.8122 93.085 28.5108 92.855 26.8277C92.7075 25.7446 91.6325 25.1371 90.585 25.2865Z" fill="#312D2D"/>
<path d="M141.615 29.8652C141.185 32.6687 143.507 33.9759 145.49 31.7948C145.93 31.3118 145.6 31.1201 146.567 31.0006C146.97 30.9508 149.587 30.9582 149.737 31.1151C149.55 33.0123 147.552 34.6656 145.807 35.2233C143.905 35.8333 140.61 35.8631 138.987 34.5361C136.355 32.3874 137.787 26.3073 139.987 24.1984C142.692 21.6041 150.055 21.2854 150.602 25.9587C150.665 26.4916 150.71 29.8677 150.052 29.8677H141.615V29.8652ZM146.615 27.1264C146.477 24.1213 142.997 24.8035 142.24 27.1264H146.615Z" fill="#312D2D"/>
<path d="M132.49 25.7571H129.302C129.088 25.9363 129.082 26.2276 129.027 26.4791C128.425 29.2453 128.135 32.0986 127.585 34.8772C127.56 34.9917 127.213 35.3428 127.177 35.3428H123.552L123.38 35.1361L125.562 22.7793C125.61 22.7096 125.762 22.5203 125.802 22.5203H137.052C137.22 22.5203 137.3 23.0183 137.228 23.1876C136.26 26.7878 136.197 31.0952 135.205 34.6232C135.157 34.7925 134.98 35.3428 134.802 35.3428H131.177L131.01 35.1361L132.49 25.7571Z" fill="#312D2D"/>
<path d="M117.698 22.3187C122.433 22.3187 123.71 25.2392 122.803 29.4942C122.088 32.853 120.038 35.3154 116.43 35.5967C110.938 36.025 109.035 33.2314 110.348 28.0452C111.288 24.3304 113.803 22.3211 117.698 22.3187ZM116.835 25.2865C114.478 25.6276 113.038 31.1151 114.998 32.4123C116.628 33.4904 118.16 31.4189 118.62 30.0569C119.145 28.5108 119.335 24.9255 116.835 25.2865Z" fill="#312D2D"/>
<path d="M103.427 22.5203L103.595 22.727L103.06 27.1289L104.088 27.0991L107.397 22.7419C107.662 22.5751 107.865 22.5427 108.17 22.5153C108.715 22.4631 110.442 22.4332 110.925 22.5228C111.657 22.6598 110.935 23.4689 110.715 23.8075C110.257 24.5097 107.128 28.3489 107.118 28.6851L109.425 34.4738C109.627 35.1237 109.462 35.3976 108.8 35.4747C108.172 35.5469 106.137 35.5619 105.67 35.2258C104.98 34.7328 104.1 31.1549 103.548 30.2437L102.478 30.174L101.58 34.8822C101.555 34.9967 101.208 35.3478 101.173 35.3478H97.485L97.37 34.805C98.1375 31.2321 98.525 27.5696 99.2725 23.9968C99.3775 23.4963 99.3875 22.8589 99.795 22.5253H103.42L103.427 22.5203Z" fill="#312D2D"/>
<path d="M171.303 22.5203C171.408 22.5502 171.58 22.7768 171.583 22.9262C171.598 23.5138 170.713 26.9746 170.865 27.1264L172.05 26.9995C172.562 26.3944 175.15 22.5203 175.678 22.5203H179.115L178.973 23.3121L175.018 28.5755L177.405 34.7502C177.512 35.3278 177.013 35.4299 176.558 35.4722C175.933 35.5295 174.003 35.5594 173.548 35.2208C172.788 34.6531 172.087 30.9757 171.28 30.1341C170.97 30.1142 170.39 29.9822 170.26 30.3233C169.955 31.6604 169.875 33.1567 169.553 34.4738C169.488 34.7378 169.402 35.3403 169.048 35.3403H165.548C165.465 35.3403 165.165 34.9718 165.26 34.8174C166.16 31.1176 166.385 27.0542 167.295 23.3843C167.36 23.1204 167.445 22.5178 167.8 22.5178C168.548 22.5178 170.765 22.3709 171.3 22.5178L171.303 22.5203Z" fill="#312D2D"/>
<path d="M22.74 22.2713L20.49 35.5918C18.69 35.5046 16.1625 36.2217 16 33.6821L17.735 24.0715C18.1675 23.2025 19.155 22.2713 20.1775 22.2713H22.74Z" fill="#312D2D"/>
<path d="M30.615 35.5918L33.0075 22.2888C34.635 22.3062 37.2 21.8107 37.375 24.0764L35.7075 33.7543C35.46 34.4763 34.33 35.5918 33.5525 35.5918H30.615Z" fill="#312D2D"/>
<path d="M163.325 16.9581C163.662 17.2494 164.6 18.6138 164.467 19.0695C164.157 20.1301 160.882 20.8497 159.905 20.8547C158.875 20.8621 155.6 20.1749 155.262 19.0695C155.077 18.4669 156.317 16.7988 156.857 16.7166C157.225 16.6618 158.1 17.3191 158.617 17.471C159.46 17.7175 160.157 17.7623 161.015 17.5034C161.795 17.2693 162.575 16.3083 163.322 16.9556L163.325 16.9581Z" fill="#312D2D"/>
<path d="M157.49 39.202L158.473 39.2194L159.365 41.6918C159.805 41.51 160.363 39.3115 160.505 39.2194L161.488 39.202V42.5632H160.738V40.3224L159.85 42.364C159.69 42.6478 159.293 42.6578 159.123 42.364L158.235 40.3224V42.5632H157.485V39.202H157.49Z" fill="#312D2D"/>
<path d="M189.303 39.202C190.195 39.3588 190.548 40.5514 189.49 40.7581C189.618 41.032 190.292 40.9498 190.327 41.6494C190.348 42.0528 189.94 42.5632 189.553 42.5632H187.365V39.202C187.955 39.2742 188.745 39.1024 189.303 39.202ZM188.115 40.5713C189.848 40.8278 189.845 39.5655 188.115 39.8219V40.5713ZM188.115 42.0652C190.128 42.3441 190.123 40.7755 188.115 41.0693V42.0652Z" fill="#312D2D"/>
<path d="M176.615 39.202V41.4428C177.123 41.1191 177.735 39.2841 178.178 39.202C178.39 39.1621 178.645 39.2219 178.865 39.202V42.5632H178.115V40.3224C177.63 40.5415 176.955 42.3989 176.715 42.5358C176.533 42.6404 176.1 42.5233 175.865 42.5632V39.202H176.615Z" fill="#312D2D"/>
<path d="M138.99 41.0693H136.49C136.497 41.7739 137.07 42.2619 137.777 42.0403C137.95 41.9855 138.687 41.261 138.862 41.876C138.002 43.3027 135.79 42.7275 135.735 41.0021C135.653 38.5397 139.162 38.5322 138.99 41.0693ZM138.24 40.5713C138.112 39.4061 136.685 39.4186 136.49 40.5713H138.24Z" fill="#312D2D"/>
<path d="M113.365 41.0693C113.397 41.8013 113.77 42.2096 114.55 42.0652C114.832 42.0129 114.882 41.749 115.298 41.6843C116.173 41.5498 115.548 42.252 115.185 42.4437C113.975 43.0836 112.64 42.4063 112.607 41.0071C112.548 38.5023 116.12 38.572 115.743 41.0693H113.365ZM115.115 40.5713C114.912 39.3812 113.582 39.4335 113.365 40.5713H115.115Z" fill="#312D2D"/>
<path d="M184.455 39.2318C187.432 38.6218 187.253 43.0288 184.708 42.6603C182.93 42.4038 182.945 39.5406 184.455 39.2318ZM184.833 39.7198C183.81 39.914 183.845 42.2893 185.17 42.0677C186.215 41.8909 186.122 39.4758 184.833 39.7198Z" fill="#312D2D"/>
<path d="M179.74 39.202H180.49L180.562 40.5738L181.865 40.5713V39.202H182.615V42.5632H181.865L181.793 41.1913L180.49 41.1938V42.5632H179.74V39.202Z" fill="#312D2D"/>
<path d="M165.115 42.5632L164.498 42.5507C164.53 41.7963 164.158 42.4337 163.812 42.5731C162.867 42.9541 161.863 42.1623 162.305 41.1963C162.695 40.3423 164.808 40.9398 164.305 39.9489C163.918 39.182 162.933 40.3149 162.365 40.0734C162.482 38.8683 165.115 38.9754 165.115 39.8867V42.5632ZM164.365 40.9448C163.925 41.1091 163.13 41.0046 162.985 41.5075C162.795 42.603 164.855 42.2445 164.365 40.9448Z" fill="#312D2D"/>
<path d="M171.615 42.5632L170.998 42.5507C171.03 41.7963 170.658 42.4337 170.312 42.5731C169.367 42.9541 168.363 42.1623 168.805 41.1963C169.195 40.3423 171.308 40.9398 170.805 39.9489C170.418 39.182 169.433 40.3149 168.865 40.0734C168.982 38.8683 171.615 38.9754 171.615 39.8867V42.5632ZM170.865 40.9448C170.425 41.1091 169.63 41.0046 169.485 41.5075C169.295 42.603 171.355 42.2445 170.865 40.9448Z" fill="#312D2D"/>
<path d="M127.99 42.5632L127.372 42.5507C127.402 41.7465 126.962 42.5233 126.622 42.6329C125.685 42.9342 124.712 42.1051 125.255 41.1465C125.655 40.4394 127.09 40.788 127.232 40.3722L127.18 39.9489C126.493 39.1995 126.025 40.2975 125.24 40.0734C125.357 38.8683 127.99 38.9754 127.99 39.8867V42.5632ZM127.082 40.9672C126.467 41.1564 125.588 41.0419 125.923 41.9457C126.643 42.4935 127.618 41.8038 127.243 41.0021L127.082 40.9672Z" fill="#312D2D"/>
<path d="M143.49 39.202H144.115V40.5713L145.543 40.5738L145.615 39.202H146.365V42.5632H145.615V41.1938L144.232 41.2486L144.115 42.5632H143.49V39.202Z" fill="#312D2D"/>
<path d="M131.865 39.202V42.5632H131.115V39.8244H129.615V42.5632H128.99V39.202H131.865Z" fill="#312D2D"/>
<path d="M147.24 39.202H147.99V40.3224C149.155 40.1979 150.493 40.4817 150.043 41.9358C149.973 42.1598 149.488 42.5632 149.303 42.5632H147.24V39.202ZM149.335 41.0992L147.99 40.9423V41.9382C148.74 41.9432 149.723 42.1499 149.335 41.0967V41.0992Z" fill="#312D2D"/>
<path d="M119.99 39.202H120.74V40.3224C121.857 40.1082 123.417 40.6635 122.772 42.0353C122.698 42.1972 122.152 42.5632 122.052 42.5632H119.99V39.202ZM122.085 41.0992C121.827 40.8502 121.092 40.9697 120.74 40.9448V41.9407C121.295 42.1573 122.78 41.7664 122.085 41.0992Z" fill="#312D2D"/>
<path d="M111.99 40.3224C111.14 40.5365 111.3 40.0634 110.938 39.8145C109.673 38.9555 109.05 42.4063 110.775 42.0428C111.275 41.9382 111.28 41.2212 111.99 41.4428C111.885 42.6329 110.562 42.9889 109.622 42.369C108.783 41.8162 108.76 40.3547 109.365 39.6352C110.055 38.816 111.987 39.0426 111.99 40.3199V40.3224Z" fill="#312D2D"/>
<path d="M152.965 39.2293C153.083 39.2966 153.573 40.5589 153.738 40.4469C154.083 39.7895 154.178 38.9804 155.113 39.202L154.153 40.8826L155.113 42.5607C154.075 42.852 154.238 41.7839 153.553 41.4403C153.18 42.0677 153.153 42.7873 152.24 42.5607C152.083 42.4262 153.107 41.1988 153.107 40.8801C153.107 40.5614 152.085 39.3339 152.24 39.1995C152.448 39.2293 152.798 39.1298 152.965 39.2244V39.2293Z" fill="#312D2D"/>
<path d="M174.49 40.9423C174.933 40.9025 175.113 41.2386 175.123 41.632C175.163 42.9665 172.523 43.0537 172.365 41.6893C173.21 41.4776 173.228 42.3491 174.16 42.0428C174.793 41.3531 174.03 41.0444 173.363 41.0021V40.5664C174.777 40.8278 174.55 39.2916 173.39 39.7796C173.2 39.8593 173.115 40.2825 172.49 40.0659C172.508 39.1746 173.61 39.0874 174.295 39.202C175.162 39.3489 175.413 40.4518 174.49 40.6909V40.9423Z" fill="#312D2D"/>
<path d="M142.49 42.5632H141.865V41.5673C139.947 41.7839 139.542 40.9797 139.737 39.202H140.365C140.275 40.3124 140.357 41.266 141.747 40.89L141.865 39.202H142.49V42.5632Z" fill="#312D2D"/>
<path d="M135.365 39.202V39.8244H134.24V42.5632H133.49V39.8244H132.365V39.202H135.365Z" fill="#312D2D"/>
<path d="M119.24 39.202V39.8244H118.115V42.5632H117.365V39.8244H116.24V39.202H119.24Z" fill="#312D2D"/>
<path d="M168.24 39.202V39.8244H166.74V42.5632H166.115V39.202H168.24Z" fill="#312D2D"/>
<path d="M151.365 39.202H150.615V42.5632H151.365V39.202Z" fill="#312D2D"/>
</svg>
