<svg width="209" height="54" viewBox="0 0 209 54" fill="none" xmlns="http://www.w3.org/2000/svg">
<g clip-path="url(#clip0_1097_6134)">
<path d="M93.5681 29.1593V35.7229C93.5681 35.8956 93.568 35.982 93.4796 36.0684C93.3912 36.1547 93.3029 36.2411 93.1261 36.2411H88.8826C88.7058 36.2411 88.6173 36.1547 88.5289 36.0684C88.4405 35.982 88.3521 35.8093 88.3521 35.7229V18.2775C88.3521 18.1047 88.4405 18.0184 88.5289 17.932C88.6173 17.8456 88.7058 17.7593 88.8826 17.7593H94.1869C94.3637 17.7593 94.4521 17.8456 94.5405 17.932C94.6289 18.0184 94.7173 18.1911 94.7173 18.2775V21.6456C94.7173 21.8184 94.6289 21.9047 94.5405 21.9911C94.4521 22.0775 94.3637 22.1638 94.1869 22.1638H93.5681V24.8411H94.1869C94.5405 24.8411 94.7173 25.0138 94.7173 25.3593V28.7275C94.7173 29.0729 94.5405 29.2456 94.1869 29.2456L93.5681 29.1593Z" fill="#312D2D"/>
<path d="M95.8669 29.1589C95.69 29.1589 95.6016 29.0726 95.5132 28.9862C95.4248 28.8998 95.3364 28.8135 95.3364 28.6408V25.2726C95.3364 25.0998 95.4248 25.0135 95.5132 24.9271C95.6016 24.8408 95.69 24.7544 95.8669 24.7544H101.26C101.613 24.7544 101.79 24.9271 101.79 25.2726V28.6408C101.79 28.9862 101.613 29.1589 101.26 29.1589H95.8669Z" fill="#312D2D"/>
<path d="M104.354 22.2502C104.265 22.2502 104.088 22.1638 104.088 22.0775C104 21.9911 104 21.9047 104 21.732V18.2775C104 17.932 104.177 17.7593 104.442 17.7593H108.155C108.244 17.7593 108.42 17.8456 108.509 17.932C108.597 18.0184 108.686 18.1911 108.686 18.2775V21.732C108.686 21.9047 108.597 21.9911 108.597 22.0775C108.509 22.1638 108.42 22.2502 108.244 22.2502H104.354ZM104.354 36.2411C104.265 36.2411 104.088 36.1547 104 36.0684C103.912 35.982 103.912 35.8956 103.912 35.7229V23.3729C103.912 23.2002 103.912 23.1138 104 23.0275C104.088 22.9411 104.177 22.8547 104.265 22.8547H107.978C108.067 22.8547 108.244 22.9411 108.332 23.0275C108.42 23.1138 108.509 23.2002 108.509 23.3729V35.7229C108.509 35.8956 108.42 35.982 108.42 36.0684C108.332 36.1547 108.244 36.2411 108.067 36.2411H104.354Z" fill="#312D2D"/>
<path d="M124.068 36.241C123.98 36.241 123.891 36.241 123.803 36.1547C123.715 36.0683 123.626 36.0683 123.626 35.9819C123.096 35.1183 122.477 34.2547 121.77 33.2183C121.062 32.1819 120.355 31.1456 119.56 29.9365L115.493 35.9819C115.493 35.9819 115.405 36.0683 115.316 36.0683C115.228 36.1547 115.139 36.1547 115.051 36.1547H110.189C110.012 36.1547 109.835 36.0683 109.747 35.8956C109.658 35.7229 109.658 35.5501 109.835 35.3774L116.2 26.3956C116.2 26.3092 116.289 26.3092 116.377 26.2229C116.465 26.2229 116.554 26.1365 116.554 26.1365H122.565C122.742 26.1365 122.831 26.2229 122.919 26.3092L129.196 35.3774C129.284 35.5501 129.373 35.7229 129.284 35.8956C129.196 36.0683 129.019 36.1547 128.842 36.1547L124.068 36.241ZM123.538 25.3592C123.538 25.3592 123.449 25.4456 123.361 25.4456C123.273 25.5319 123.184 25.5319 123.184 25.5319H116.112C116.023 25.5319 116.023 25.5319 115.935 25.4456C115.847 25.4456 115.758 25.3592 115.758 25.3592L110.984 18.6229C110.896 18.4501 110.807 18.2774 110.896 18.1047C110.984 17.9319 111.161 17.8456 111.338 17.8456H116.289C116.377 17.8456 116.465 17.8456 116.554 17.9319C116.642 18.0183 116.731 18.0183 116.731 18.0183L119.648 22.5956L122.742 17.9319C122.742 17.9319 122.831 17.8456 122.919 17.7592C123.007 17.6729 123.096 17.6729 123.184 17.6729H128.135C128.4 17.6729 128.489 17.7592 128.577 17.9319C128.665 18.1047 128.665 18.2774 128.489 18.4501L123.538 25.3592Z" fill="#312D2D"/>
<path d="M146.258 31.9225C146.258 33.6498 144.843 35.118 142.987 35.118C141.219 35.118 139.716 33.7361 139.716 31.9225C139.716 30.1952 141.13 28.7271 142.987 28.7271C144.843 28.7271 146.258 30.1089 146.258 31.9225Z" fill="#312D2D"/>
<path d="M155.187 31.9225C155.187 33.6498 153.773 35.118 151.916 35.118C150.148 35.118 148.645 33.7361 148.645 31.9225C148.645 30.1952 150.06 28.7271 151.916 28.7271C153.773 28.7271 155.187 30.1089 155.187 31.9225Z" fill="#312D2D"/>
<path d="M164.204 31.9225C164.204 33.6498 162.79 35.118 160.933 35.118C159.165 35.118 157.662 33.7361 157.662 31.9225C157.662 30.1952 159.077 28.7271 160.933 28.7271C162.701 28.7271 164.204 30.1089 164.204 31.9225Z" fill="#312D2D"/>
<path d="M144.49 20.2638C143.694 19.4865 142.722 19.0547 141.572 19.0547C140.512 19.0547 139.539 19.4001 138.744 20.1774C137.948 20.9547 137.594 21.8183 137.594 22.8547V27.6911H138.832V22.9411C138.832 22.2501 139.097 21.6456 139.628 21.1274C140.158 20.6092 140.777 20.3501 141.572 20.3501C142.368 20.3501 143.075 20.6092 143.606 21.2138L143.694 21.3001L144.578 20.4365L144.49 20.2638Z" fill="#312D2D"/>
<path d="M145.728 19.3135V27.7771H146.965V19.3135H145.728Z" fill="#312D2D"/>
<path d="M155.276 20.2638C154.48 19.4865 153.507 19.0547 152.358 19.0547C151.297 19.0547 150.325 19.4001 149.529 20.1774C148.734 20.9547 148.38 21.8183 148.38 22.8547V23.9774C148.38 25.0138 148.734 25.8774 149.529 26.6547C150.325 27.3456 151.297 27.6911 152.358 27.6911C153.507 27.6911 154.48 27.3456 155.276 26.5683L155.364 26.482L154.48 25.6183L154.391 25.7047C153.861 26.3092 153.154 26.5683 152.358 26.5683C151.651 26.5683 150.944 26.3092 150.413 25.7911C149.883 25.2729 149.618 24.6683 149.618 23.9774V22.8547C149.618 22.1638 149.883 21.5592 150.413 21.0411C150.944 20.5229 151.651 20.2638 152.358 20.2638C153.154 20.2638 153.861 20.5229 154.391 21.1274L154.48 21.2138L155.364 20.3501L155.276 20.2638Z" fill="#312D2D"/>
<path d="M135.384 20.2638C134.588 19.4866 133.704 19.1411 132.555 19.1411C131.494 19.1411 130.522 19.4866 129.726 20.2638C128.93 21.0411 128.577 21.9047 128.577 22.9411V23.1138V30.1093V30.282H129.814C129.814 30.282 129.814 27.3457 129.814 26.7411C130.08 27.0002 130.433 27.2593 130.875 27.432C131.406 27.6911 131.936 27.7775 132.555 27.7775C133.616 27.7775 134.588 27.432 135.384 26.7411C136.18 25.9638 136.533 25.1002 136.533 24.0638V22.9411C136.533 21.9047 136.18 20.9547 135.384 20.2638ZM134.5 25.8775C133.969 26.3957 133.351 26.6548 132.555 26.6548C131.848 26.6548 131.14 26.3957 130.61 25.8775C130.08 25.3593 129.814 24.7548 129.814 24.0638V22.9411C129.814 22.2502 130.08 21.6457 130.61 21.1275C131.14 20.6093 131.759 20.3502 132.555 20.3502C133.351 20.3502 133.969 20.6093 134.5 21.1275C135.03 21.6457 135.295 22.2502 135.295 22.9411V24.0638C135.295 24.7548 135.119 25.3593 134.5 25.8775Z" fill="#312D2D"/>
<path d="M162.171 25.7911C161.64 26.3092 160.933 26.6547 160.137 26.6547C159.43 26.6547 158.723 26.3956 158.193 25.8774C157.662 25.3592 157.397 24.7547 157.397 24.0638C157.75 24.0638 164.116 24.0638 164.116 24.0638V22.8547C164.116 21.8183 163.762 20.8683 162.966 20.1774C162.171 19.4865 161.287 19.0547 160.137 19.0547C159.077 19.0547 158.104 19.4001 157.308 20.1774C156.513 20.8683 156.159 21.8183 156.159 22.8547V23.9774C156.159 25.0138 156.513 25.8774 157.308 26.6547C158.104 27.3456 159.077 27.6911 160.137 27.6911C161.287 27.6911 162.259 27.3456 163.055 26.5683L163.143 26.482L162.259 25.6183L162.171 25.7911ZM158.193 21.0411C158.723 20.5229 159.43 20.2638 160.137 20.2638C160.933 20.2638 161.552 20.5229 162.082 21.0411C162.613 21.5592 162.878 22.1638 162.878 22.8547C162.524 22.8547 157.75 22.8547 157.397 22.8547C157.397 22.1638 157.662 21.5592 158.193 21.0411Z" fill="#312D2D"/>
<path d="M102.409 20.6089V18.3634C102.409 18.1907 102.32 18.1043 102.232 18.0179C102.144 17.9316 102.055 17.8452 101.878 17.8452H101.083H100.287H95.8668C95.69 17.8452 95.6017 17.9316 95.5133 18.0179C95.4249 18.1043 95.4248 18.1907 95.4248 18.277V18.3634V19.3998V21.6452C95.4248 21.8179 95.5132 21.9043 95.6016 21.9907C95.69 22.077 95.7785 22.1634 95.9553 22.1634H96.7509H97.5466H101.967C102.144 22.1634 102.232 22.077 102.32 21.9907C102.409 21.9043 102.409 21.8179 102.409 21.7316V21.6452V20.6089Z" fill="#312D2D"/>
<path d="M81.8986 27C81.8986 37.5364 73.2348 46 62.4493 46C51.6638 46 43 37.5364 43 27C43 16.55 51.6638 8 62.4493 8C73.2348 8 81.8986 16.55 81.8986 27Z" fill="#312D2D"/>
<path d="M80.3956 27.0001C80.3956 36.6728 72.3508 44.5319 62.4494 44.5319C52.5479 44.5319 44.5029 36.6728 44.5029 27.0001C44.5029 17.3274 52.5479 9.46826 62.4494 9.46826C72.3508 9.46826 80.3956 17.3274 80.3956 27.0001Z" fill="#312D2D"/>
<path d="M62.4491 40.9043C70.31 40.9043 76.6825 34.679 76.6825 26.9998C76.6825 19.3205 70.31 13.0952 62.4491 13.0952C54.5883 13.0952 48.2158 19.3205 48.2158 26.9998C48.2158 34.679 54.5883 40.9043 62.4491 40.9043Z" fill="#E1E1E1"/>
<path d="M60.6813 29.1593V35.7229C60.6813 35.8956 60.6813 35.982 60.5929 36.0684C60.5045 36.1547 60.4161 36.2411 60.2392 36.2411H55.9958C55.819 36.2411 55.7305 36.1547 55.6421 36.0684C55.5537 35.982 55.4653 35.8093 55.4653 35.7229V18.2775C55.4653 18.1047 55.5537 18.0184 55.6421 17.932C55.7305 17.8456 55.819 17.7593 55.9958 17.7593H61.3001C61.4769 17.7593 61.5653 17.8456 61.6537 17.932C61.7421 18.0184 61.8305 18.1911 61.8305 18.2775V21.6456C61.8305 21.8184 61.7421 21.9047 61.6537 21.9911C61.5653 22.0775 61.4769 22.1638 61.3001 22.1638H60.6813V24.8411H61.3001C61.6537 24.8411 61.8305 25.0138 61.8305 25.3593V28.7275C61.8305 29.0729 61.6537 29.2456 61.3001 29.2456L60.6813 29.1593Z" fill="#312D2D"/>
<path d="M62.8912 29.1589C62.7144 29.1589 62.626 29.0726 62.5376 28.9862C62.4492 28.9862 62.4492 28.8135 62.4492 28.7271V25.2726C62.4492 25.0998 62.5376 25.0135 62.626 24.9271C62.7144 24.8408 62.8028 24.7544 62.9797 24.7544H68.3724C68.726 24.7544 68.9028 24.9271 68.9028 25.2726V28.6408C68.9028 28.9862 68.726 29.1589 68.3724 29.1589H62.8912Z" fill="#312D2D"/>
<path d="M69.4333 20.6089V18.3634C69.4333 18.1907 69.3449 18.1043 69.2565 18.0179C69.1681 17.9316 69.0797 17.8452 68.9028 17.8452H68.1072H67.3115H62.8912C62.7144 17.8452 62.626 17.9316 62.5376 18.0179C62.4492 18.1043 62.4492 18.1907 62.4492 18.277V18.3634V19.3998V21.6452C62.4492 21.8179 62.5376 21.9043 62.626 21.9907C62.7144 22.077 62.8028 22.1634 62.9797 22.1634H63.7753H64.571H68.9912C69.1681 22.1634 69.2565 22.077 69.3449 21.9907C69.4333 21.9043 69.4333 21.8179 69.4333 21.7316V21.6452V20.6089Z" fill="#312D2D"/>
</g>
<defs>
<clipPath id="clip0_1097_6134">
<rect width="122" height="38" fill="white" transform="translate(43 8)"/>
</clipPath>
</defs>
</svg>
