<svg width="209" height="54" viewBox="0 0 209 54" fill="none" xmlns="http://www.w3.org/2000/svg">
<g clip-path="url(#clip0_1097_6134)">
<path d="M93.0551 29.2729V36.182C93.0551 36.3639 93.055 36.4548 92.9622 36.5457C92.8695 36.6366 92.7768 36.7275 92.5913 36.7275H88.1391C87.9536 36.7275 87.8608 36.6366 87.768 36.5457C87.6753 36.4548 87.5825 36.2729 87.5825 36.182V17.8184C87.5825 17.6366 87.6753 17.5457 87.768 17.4548C87.8608 17.3639 87.9536 17.2729 88.1391 17.2729H93.7044C93.8899 17.2729 93.9825 17.3639 94.0753 17.4548C94.168 17.5457 94.2608 17.7275 94.2608 17.8184V21.3639C94.2608 21.5457 94.168 21.6366 94.0753 21.7275C93.9825 21.8184 93.8899 21.9093 93.7044 21.9093H93.0551V24.7275H93.7044C94.0754 24.7275 94.2608 24.9093 94.2608 25.2729V28.8184C94.2608 29.182 94.0754 29.3639 93.7044 29.3639L93.0551 29.2729Z" fill="#312D2D"/>
<path d="M95.4667 29.2726C95.2812 29.2726 95.1884 29.1817 95.0957 29.0908C95.0029 28.9999 94.9102 28.909 94.9102 28.7271V25.1817C94.9102 24.9999 95.0029 24.909 95.0957 24.818C95.1884 24.7271 95.2812 24.6362 95.4667 24.6362H101.125C101.496 24.6362 101.681 24.818 101.681 25.1817V28.7271C101.681 29.0908 101.496 29.2726 101.125 29.2726H95.4667Z" fill="#312D2D"/>
<path d="M104.371 22.0002C104.278 22.0002 104.093 21.9093 104.093 21.8184C104 21.7275 104 21.6366 104 21.4548V17.8184C104 17.4548 104.185 17.2729 104.464 17.2729H108.359C108.452 17.2729 108.638 17.3639 108.73 17.4548C108.823 17.5457 108.916 17.7275 108.916 17.8184V21.4548C108.916 21.6366 108.823 21.7275 108.823 21.8184C108.73 21.9093 108.638 22.0002 108.452 22.0002H104.371ZM104.371 36.7275C104.278 36.7275 104.093 36.6366 104 36.5457C103.907 36.4548 103.907 36.3639 103.907 36.182V23.182C103.907 23.0002 103.907 22.9093 104 22.8184C104.093 22.7275 104.185 22.6366 104.278 22.6366H108.174C108.267 22.6366 108.452 22.7275 108.545 22.8184C108.638 22.9093 108.73 23.0002 108.73 23.182V36.182C108.73 36.3639 108.638 36.4548 108.638 36.5457C108.545 36.6366 108.452 36.7275 108.267 36.7275H104.371Z" fill="#312D2D"/>
<path d="M125.055 36.7271C124.963 36.7271 124.87 36.7271 124.777 36.6362C124.684 36.5453 124.592 36.5453 124.592 36.4544C124.035 35.5453 123.386 34.6362 122.644 33.5453C121.902 32.4544 121.16 31.3635 120.325 30.0907L116.058 36.4544C116.058 36.4544 115.965 36.5453 115.873 36.5453C115.78 36.6362 115.687 36.6362 115.594 36.6362H110.493C110.307 36.6362 110.122 36.5453 110.029 36.3635C109.936 36.1816 109.936 35.9998 110.122 35.818L116.8 26.3635C116.8 26.2725 116.893 26.2725 116.986 26.1816C117.078 26.1816 117.171 26.0907 117.171 26.0907H123.478C123.664 26.0907 123.757 26.1816 123.849 26.2726L130.435 35.818C130.528 35.9998 130.62 36.1816 130.528 36.3635C130.435 36.5453 130.249 36.6362 130.064 36.6362L125.055 36.7271ZM124.499 25.2725C124.499 25.2725 124.406 25.3635 124.313 25.3635C124.22 25.4544 124.128 25.4544 124.128 25.4544H116.707C116.615 25.4544 116.615 25.4544 116.522 25.3635C116.429 25.3635 116.336 25.2725 116.336 25.2725L111.328 18.1816C111.235 17.9998 111.142 17.818 111.235 17.6362C111.328 17.4544 111.513 17.3635 111.699 17.3635H116.893C116.986 17.3635 117.078 17.3635 117.171 17.4544C117.264 17.5453 117.357 17.5453 117.357 17.5453L120.418 22.3635L123.664 17.4544C123.664 17.4544 123.757 17.3635 123.849 17.2726C123.942 17.1816 124.035 17.1816 124.128 17.1816H129.322C129.6 17.1816 129.693 17.2725 129.786 17.4544C129.878 17.6362 129.878 17.818 129.693 17.9998L124.499 25.2725Z" fill="#312D2D"/>
<path d="M148.336 32.182C148.336 34.0002 146.852 35.5456 144.905 35.5456C143.049 35.5456 141.473 34.0911 141.473 32.182C141.473 30.3638 142.957 28.8184 144.905 28.8184C146.852 28.8184 148.336 30.2729 148.336 32.182Z" fill="#312D2D"/>
<path d="M157.705 32.182C157.705 34.0002 156.221 35.5456 154.273 35.5456C152.418 35.5456 150.841 34.0911 150.841 32.182C150.841 30.3638 152.325 28.8184 154.273 28.8184C156.221 28.8184 157.705 30.2729 157.705 32.182Z" fill="#312D2D"/>
<path d="M167.165 32.182C167.165 34.0002 165.681 35.5456 163.733 35.5456C161.878 35.5456 160.301 34.0911 160.301 32.182C160.301 30.3638 161.785 28.8184 163.733 28.8184C165.588 28.8184 167.165 30.2729 167.165 32.182Z" fill="#312D2D"/>
<path d="M146.481 19.909C145.647 19.0908 144.626 18.6362 143.42 18.6362C142.307 18.6362 141.287 18.9999 140.452 19.818C139.618 20.6362 139.247 21.5453 139.247 22.6362V27.7271H140.545V22.7271C140.545 21.9999 140.823 21.3635 141.38 20.818C141.936 20.2726 142.586 19.9999 143.42 19.9999C144.255 19.9999 144.997 20.2726 145.554 20.909L145.647 20.9999L146.574 20.0908L146.481 19.909Z" fill="#312D2D"/>
<path d="M147.78 18.9092V27.8183H149.078V18.9092H147.78Z" fill="#312D2D"/>
<path d="M157.797 19.909C156.963 19.0908 155.942 18.6362 154.736 18.6362C153.623 18.6362 152.603 18.9999 151.768 19.818C150.934 20.6362 150.562 21.5453 150.562 22.6362V23.818C150.562 24.909 150.934 25.818 151.768 26.6362C152.603 27.3635 153.623 27.7271 154.736 27.7271C155.942 27.7271 156.963 27.3635 157.797 26.5453L157.89 26.4544L156.963 25.5453L156.87 25.6362C156.313 26.2726 155.571 26.5453 154.736 26.5453C153.994 26.5453 153.252 26.2726 152.696 25.7271C152.139 25.1817 151.861 24.5453 151.861 23.818V22.6362C151.861 21.909 152.139 21.2726 152.696 20.7271C153.252 20.1817 153.994 19.909 154.736 19.909C155.571 19.909 156.313 20.1817 156.87 20.818L156.963 20.909L157.89 19.9999L157.797 19.909Z" fill="#312D2D"/>
<path d="M136.928 19.9089C136.093 19.0907 135.165 18.7271 133.96 18.7271C132.847 18.7271 131.826 19.0907 130.991 19.9089C130.157 20.7271 129.786 21.6361 129.786 22.7271V22.9089V30.2725V30.4543H131.084C131.084 30.4543 131.084 27.3634 131.084 26.7271C131.362 26.9998 131.733 27.2725 132.197 27.4543C132.754 27.7271 133.31 27.818 133.96 27.818C135.073 27.818 136.093 27.4543 136.928 26.7271C137.762 25.9089 138.133 24.9998 138.133 23.9089V22.7271C138.133 21.6361 137.762 20.6361 136.928 19.9089ZM136 25.818C135.444 26.3634 134.794 26.6361 133.96 26.6361C133.218 26.6361 132.475 26.3634 131.919 25.818C131.362 25.2725 131.084 24.6361 131.084 23.9089V22.7271C131.084 21.9998 131.362 21.3634 131.919 20.818C132.475 20.2725 133.125 19.9998 133.96 19.9998C134.794 19.9998 135.444 20.2725 136 20.818C136.557 21.3634 136.835 21.9998 136.835 22.7271V23.9089C136.835 24.6361 136.649 25.2725 136 25.818Z" fill="#312D2D"/>
<path d="M165.032 25.7271C164.475 26.2726 163.733 26.6362 162.899 26.6362C162.156 26.6362 161.414 26.3635 160.858 25.818C160.301 25.2726 160.023 24.6362 160.023 23.909C160.394 23.909 167.072 23.909 167.072 23.909V22.6362C167.072 21.5453 166.701 20.5453 165.867 19.818C165.032 19.0908 164.104 18.6362 162.899 18.6362C161.785 18.6362 160.765 18.9999 159.93 19.818C159.096 20.5453 158.725 21.5453 158.725 22.6362V23.818C158.725 24.909 159.096 25.818 159.93 26.6362C160.765 27.3635 161.785 27.7271 162.899 27.7271C164.104 27.7271 165.125 27.3635 165.959 26.5453L166.052 26.4544L165.125 25.5453L165.032 25.7271ZM160.858 20.7271C161.414 20.1817 162.156 19.909 162.899 19.909C163.733 19.909 164.383 20.1817 164.939 20.7271C165.496 21.2726 165.774 21.909 165.774 22.6362C165.403 22.6362 160.394 22.6362 160.023 22.6362C160.023 21.909 160.301 21.2726 160.858 20.7271Z" fill="#312D2D"/>
<path d="M102.33 20.2729V17.9092C102.33 17.7274 102.238 17.6365 102.145 17.5456C102.052 17.4547 101.959 17.3638 101.774 17.3638H100.939H100.104H95.4667C95.2812 17.3638 95.1885 17.4547 95.0958 17.5456C95.003 17.6365 95.0029 17.7274 95.0029 17.8183V17.9092V19.0001V21.3638C95.0029 21.5456 95.0957 21.6365 95.1884 21.7274C95.2812 21.8183 95.374 21.9092 95.5595 21.9092H96.3942H97.2291H101.867C102.052 21.9092 102.145 21.8183 102.238 21.7274C102.33 21.6365 102.33 21.5456 102.33 21.4547V21.3638V20.2729Z" fill="#312D2D"/>
<path d="M80.8116 27C80.8116 38.0909 71.7217 47 60.4058 47C49.0899 47 40 38.0909 40 27C40 16 49.0899 7 60.4058 7C71.7217 7 80.8116 16 80.8116 27Z" fill="#312D2D"/>
<path d="M79.2346 27C79.2346 37.1818 70.7941 45.4545 60.4057 45.4545C50.0173 45.4545 41.5767 37.1818 41.5767 27C41.5767 16.8181 50.0173 8.54541 60.4057 8.54541C70.7941 8.54541 79.2346 16.8181 79.2346 27Z" fill="#312D2D"/>
<path d="M60.406 41.6365C68.6534 41.6365 75.3393 35.0836 75.3393 27.0001C75.3393 18.9167 68.6534 12.3638 60.406 12.3638C52.1585 12.3638 45.4727 18.9167 45.4727 27.0001C45.4727 35.0836 52.1585 41.6365 60.406 41.6365Z" fill="#E1E1E1"/>
<path d="M58.5506 29.2729V36.182C58.5506 36.3639 58.5506 36.4548 58.4578 36.5457C58.3651 36.6366 58.2723 36.7275 58.0868 36.7275H53.6346C53.4491 36.7275 53.3564 36.6366 53.2636 36.5457C53.1709 36.4548 53.0781 36.2729 53.0781 36.182V17.8184C53.0781 17.6366 53.1709 17.5457 53.2636 17.4548C53.3564 17.3639 53.4491 17.2729 53.6346 17.2729H59.1999C59.3854 17.2729 59.4781 17.3639 59.5709 17.4548C59.6636 17.5457 59.7564 17.7275 59.7564 17.8184V21.3639C59.7564 21.5457 59.6636 21.6366 59.5709 21.7275C59.4781 21.8184 59.3854 21.9093 59.1999 21.9093H58.5506V24.7275H59.1999C59.5709 24.7275 59.7564 24.9093 59.7564 25.2729V28.8184C59.7564 29.182 59.5709 29.3639 59.1999 29.3639L58.5506 29.2729Z" fill="#312D2D"/>
<path d="M60.8695 29.2726C60.684 29.2726 60.5913 29.1817 60.4985 29.0908C60.4058 29.0908 60.4058 28.909 60.4058 28.818V25.1817C60.4058 24.9999 60.4985 24.909 60.5913 24.818C60.684 24.7271 60.7768 24.6362 60.9623 24.6362H66.6203C66.9913 24.6362 67.1768 24.818 67.1768 25.1817V28.7271C67.1768 29.0908 66.9913 29.2726 66.6203 29.2726H60.8695Z" fill="#312D2D"/>
<path d="M67.7333 20.2729V17.9092C67.7333 17.7274 67.6405 17.6365 67.5478 17.5456C67.455 17.4547 67.3623 17.3638 67.1768 17.3638H66.342H65.5072H60.8695C60.684 17.3638 60.5913 17.4547 60.4985 17.5456C60.4058 17.6365 60.4058 17.7274 60.4058 17.8183V17.9092V19.0001V21.3638C60.4058 21.5456 60.4985 21.6365 60.5913 21.7274C60.684 21.8183 60.7768 21.9092 60.9623 21.9092H61.7971H62.6318H67.2695C67.455 21.9092 67.5478 21.8183 67.6405 21.7274C67.7333 21.6365 67.7333 21.5456 67.7333 21.4547V21.3638V20.2729Z" fill="#312D2D"/>
</g>
<defs>
<clipPath id="clip0_1097_6134">
<rect width="128" height="40" fill="white" transform="translate(40 7)"/>
</clipPath>
</defs>
</svg>
