<svg width="10" height="10" fill="none" xmlns="http://www.w3.org/2000/svg"><g clip-path="url(#clip0_53_1557)"><path d="M5.5 1.25a.5.5 0 00-1 0h1zm-1 4.583a.5.5 0 101 0h-1zm2.52-.48a.5.5 0 10-.707-.707l.707.708zm-1.725 1.02l-.354-.354.354.354zm-.59 0l.354-.354-.354.354zM3.687 4.646a.5.5 0 10-.707.708l.707-.708zM1.75 6.666a.5.5 0 10-1 0h1zm7.5 0a.5.5 0 10-1 0h1zM8.067 8.615l-.227-.446.227.446zm.547-.547l.445.227-.445-.227zm-7.228 0l-.445.227.445-.227zm.547.547l-.227.445.227-.445zM4.5 1.25v4.583h1V1.25h-1zm1.813 3.396L4.941 6.018l.707.708L7.02 5.354l-.707-.708zM5.06 6.018L3.687 4.646l-.707.708 1.372 1.372.707-.708zm-.118 0a.083.083 0 01.118 0l-.707.708a.917.917 0 001.296 0l-.707-.708zM.75 6.667v.083h1v-.083h-1zm2.5 2.583h3.5v-1h-3.5v1zm6-2.5v-.083h-1v.083h1zm-2.5 2.5c.342 0 .628 0 .862-.019.24-.02.467-.062.682-.172l-.454-.89a.855.855 0 01-.31.066c-.183.015-.422.015-.78.015v1zm1.5-2.5c0 .358 0 .597-.015.78-.015.178-.04.259-.067.31l.891.454a1.77 1.77 0 00.172-.682c.02-.234.019-.52.019-.862h-1zm.044 2.31a1.75 1.75 0 00.765-.766l-.89-.454a.75.75 0 01-.329.328l.454.891zM.75 6.75c0 .342 0 .628.019.862.02.24.062.467.172.682l.89-.454a.855.855 0 01-.066-.31 10.714 10.714 0 01-.015-.78h-1zm2.5 1.5c-.358 0-.597 0-.78-.015-.178-.015-.259-.04-.31-.067l-.454.891c.215.11.443.153.682.172.234.02.52.019.862.019v-1zm-2.31.044c.169.33.436.597.766.765l.454-.89a.75.75 0 01-.328-.329l-.891.454z" fill="#312D2D"/></g><defs><clipPath id="clip0_53_1557"><path fill="#fff" d="M0 0h10v10H0z"/></clipPath></defs></svg>