<svg width="19" height="19" fill="none" xmlns="http://www.w3.org/2000/svg"><path fill-rule="evenodd" clip-rule="evenodd" d="M4.819 1.643a1.327 1.327 0 00-1.198 0c-.172.087-.348.254-.861.768l-.145.144c-.499.499-.684.69-.828.946-.163.29-.288.772-.287 1.104 0 .298.053.491.202 1.016a16.895 16.895 0 004.325 7.352 16.895 16.895 0 007.352 4.325c.525.15.718.201 1.016.202.332.001.814-.124 1.104-.287.257-.144.447-.33.946-.829l.145-.143c.513-.514.68-.69.767-.862a1.33 1.33 0 000-1.198c-.087-.171-.254-.348-.767-.861l-.179-.178c-.337-.338-.453-.45-.558-.518a1.328 1.328 0 00-1.447 0c-.106.068-.222.18-.56.518l-.017.018a2.115 2.115 0 01-.262.235l-.292-.406.292.406a1.455 1.455 0 01-1.22.208 1.924 1.924 0 01-.3-.124l-.019-.008a13.84 13.84 0 01-3.8-2.698A13.842 13.842 0 015.53 6.972l-.009-.018a1.894 1.894 0 01-.124-.302l.48-.14-.48.14a1.455 1.455 0 01.208-1.219l.406.292-.406-.292c.068-.095.148-.175.235-.262l.018-.018c.338-.337.45-.453.518-.559l.42.273-.42-.273a1.327 1.327 0 000-1.447c-.068-.105-.18-.22-.518-.558L5.68 2.41c-.513-.514-.69-.681-.861-.768zM3.169.75a2.327 2.327 0 012.101 0c.334.168.63.465 1.053.888l.064.064.178.178.043.043c.278.278.473.473.607.678a2.327 2.327 0 010 2.538c-.134.205-.329.4-.607.678l-.043.042a1.536 1.536 0 00-.147.156.459.459 0 00-.06.356.982.982 0 00.073.167 12.841 12.841 0 002.504 3.526 12.842 12.842 0 003.526 2.504c.124.06.142.066.167.074a.459.459 0 00.356-.061c.02-.014.04-.032.156-.147l.042-.043c.278-.278.473-.473.678-.607a2.328 2.328 0 012.538 0c.205.134.4.329.678.607l.043.043.178.178.063.064c.424.423.72.72.89 1.053.334.66.334 1.44 0 2.1-.17.334-.466.63-.89 1.054l-.063.064-.145.144a8.08 8.08 0 01-.04.041c-.446.445-.733.733-1.123.952a3.579 3.579 0 01-1.597.415c-.447-.001-.765-.092-1.252-.23l-.034-.01a17.896 17.896 0 01-7.786-4.58A17.895 17.895 0 01.74 5.894L.73 5.86C.592 5.373.501 5.055.5 4.608a3.579 3.579 0 01.415-1.597l.435.244-.435-.244c.22-.39.507-.677.952-1.122l.041-.042.144-.144.064-.064c.424-.423.72-.72 1.053-.888l.225.443L3.169.75z" fill="#EE3A23"/></svg>