<svg width="24" height="24" viewBox="0 0 24 24" fill="none" xmlns="http://www.w3.org/2000/svg">
<path d="M12 3.5C15.0376 3.5 17.5 5.96243 17.5 9C17.5 11.078 16.3471 12.8858 14.6465 13.8213C15.9008 14.134 17.0311 14.663 17.957 15.3574C19.4994 16.5142 20.5 18.1505 20.5 20C20.5 20.2761 20.2761 20.5 20 20.5C19.7239 20.5 19.5 20.2761 19.5 20C19.5 18.5358 18.7094 17.172 17.3564 16.1572C16.0033 15.1425 14.1112 14.5 12 14.5C9.88875 14.5 7.99669 15.1425 6.64355 16.1572C5.29055 17.172 4.5 18.5358 4.5 20C4.5 20.2761 4.27614 20.5 4 20.5C3.72386 20.5 3.5 20.2761 3.5 20C3.5 18.1505 4.50062 16.5142 6.04297 15.3574C6.9687 14.6631 8.09858 14.1341 9.35254 13.8213C7.65238 12.8857 6.5 11.0777 6.5 9C6.5 5.96243 8.96243 3.5 12 3.5ZM12 4.5C9.51472 4.5 7.5 6.51472 7.5 9C7.5 11.4853 9.51472 13.5 12 13.5C14.4853 13.5 16.5 11.4853 16.5 9C16.5 6.51472 14.4853 4.5 12 4.5Z" fill="#EE3A23"/>
</svg>
