<svg width="263" height="87" viewBox="0 0 263 87" fill="none" xmlns="http://www.w3.org/2000/svg">
<g clip-path="url(#clip0_76_4079)">
<mask id="mask0_76_4079" style="mask-type:luminance" maskUnits="userSpaceOnUse" x="58" y="30" width="148" height="28">
<path d="M206 30H58V58H206V30Z" fill="white"/>
</mask>
<g mask="url(#mask0_76_4079)">
<path d="M137.015 53.304V34.6963H148.509V39.0182H141.808V53.304H137.015Z" fill="white"/>
<path d="M162.971 53.304V46.0163H155.851V53.304H151.058V34.6963H155.851V41.6405H162.971V34.6963H167.764V53.304H162.971Z" fill="white"/>
<path d="M195.58 53.304V39.0182H189.981V34.6963H206.001V39.0182H200.375V53.304H195.58Z" fill="white"/>
<path d="M182.928 53.3014V42.6991L175.299 53.3014H171.291V34.6987H176.084V45.1907L183.586 34.6987H187.724V53.3014H182.928Z" fill="white"/>
<path d="M109.471 53.304V42.2455L104.686 48.0876L99.9004 42.2455V53.304H95.1074V34.6963H99.8377L104.686 41.0945L109.534 34.6963H114.264V53.304H109.471Z" fill="white"/>
<path d="M123.364 46.7594H127.818L125.591 40.9251L123.364 46.7594ZM130.316 53.3012L129.313 50.6941H121.861L120.858 53.3012H116.04L123.411 34.696H127.843L135.217 53.3012H130.316Z" fill="white"/>
<path d="M57.9951 38.4772C57.9998 36.2299 58.8755 34.0761 60.4305 32.4872C61.9855 30.8984 64.0931 30.0041 66.2919 30H85.4462V34.3091H66.2969C65.2165 34.3138 64.1816 34.7544 63.4174 35.5349C62.6532 36.3155 62.2215 37.3729 62.2162 38.4772L62.1912 45.7111C62.1037 46.6379 61.7184 47.509 61.0954 48.1885C60.4724 48.8679 59.6468 49.3172 58.7475 49.4665L57.9951 49.5844V38.4772Z" fill="white"/>
<path d="M57.9961 58V53.6908H77.1504C78.2311 53.6854 79.2659 53.2442 80.0301 52.4633C80.7941 51.6823 81.2258 50.6246 81.2311 49.5202V42.6554C81.2364 41.6594 81.5879 40.6978 82.2228 39.9423C82.8578 39.1868 83.7348 38.6865 84.6972 38.5309L85.4497 38.4155V49.5202C85.445 51.7677 84.5694 53.9218 83.0144 55.511C81.4595 57.1003 79.3519 57.9951 77.1529 58H57.9961Z" fill="white"/>
<path d="M74.2227 49.5997V44.0295L71.7246 47.0774L69.2291 44.0295V49.5997H65.9209V38.6387H69.0535L71.7246 42.1633L74.3958 38.6387H77.5284V49.5997H74.2227Z" fill="white"/>
</g>
</g>
<defs>
<clipPath id="clip0_76_4079">
<rect width="148" height="28" fill="white" transform="translate(58 30)"/>
</clipPath>
</defs>
</svg>
