<svg width="184" height="184" viewBox="0 0 184 184" fill="none" xmlns="http://www.w3.org/2000/svg">
<g clip-path="url(#clip0_201_24161)">
<path d="M102.975 81.0789L178.887 81.0789L178.887 5.184L102.975 5.18399L102.975 81.0789Z" fill="#EE3A23"/>
<path d="M64.1684 10.3064L173.753 10.3064L173.753 119.877L184 130.122L184 0.0614624L53.9211 0.061451L64.1684 10.3064Z" fill="black"/>
<path d="M-1.45063e-06 26.053L20.9557 5.10201L25.9973 0.0614791L26.0588 -1.3805e-05L52.1176 26.053L44.5244 33.6445L31.2029 20.3363L31.2029 152.824L163.649 152.824L150.317 139.486L157.91 131.894L183.969 157.947L157.91 184L150.317 176.408L163.649 163.069L20.9557 163.069L20.9557 20.2953L7.60348 33.6445L-1.45063e-06 26.053Z" fill="black"/>
</g>
<defs>
<clipPath id="clip0_201_24161">
<rect width="184" height="184" fill="white" transform="translate(184 184) rotate(-180)"/>
</clipPath>
</defs>
</svg>
