<svg width="52" height="52" viewBox="0 0 52 52" fill="none" xmlns="http://www.w3.org/2000/svg">
<g clip-path="url(#clip0_124_4567)">
<path d="M44.0528 3L9.94439 3C7.2182 3 5 5.21806 5 7.9469L5 19.088L7.82214 19.088L7.82214 7.9469C7.82214 6.77578 8.7732 5.82196 9.94439 5.82196L44.0528 5.82196C45.224 5.82196 46.1779 6.77578 46.1779 7.9469L46.1779 42.0531C46.1779 43.2242 45.224 44.178 44.0528 44.178L32.911 44.178L32.911 47L44.0528 47C46.7818 47 49 44.7791 49 42.0531L49 7.9469C49 5.21806 46.7818 3 44.0528 3Z" fill="#312D2D"/>
<path d="M27.0809 21.0161L3.90296 21.0161C1.74741 21.0161 0 22.7635 0 24.9191L0 48.097C0 50.2525 1.74741 51.9999 3.90296 51.9999L27.0809 51.9999C29.2364 51.9999 30.9838 50.2525 30.9838 48.097L30.9838 24.9191C30.9838 22.7635 29.2364 21.0161 27.0809 21.0161Z" fill="#EE3A23"/>
</g>
<defs>
<clipPath id="clip0_124_4567">
<rect width="52" height="52" fill="white"/>
</clipPath>
</defs>
</svg>
