<svg width="70" height="62" viewBox="0 0 70 62" fill="none" xmlns="http://www.w3.org/2000/svg">
<path d="M65.4118 28.1572L35.5298 58.3613L12.5977 35.1792L30.0105 17.5787L40.8741 28.5594L45.5272 23.8591L34.6607 12.8755L42.4769 4.9751L65.4118 28.1572Z" fill="#EE3A23"/>
<path d="M64.2694 23.4394L46.7832 5.76476C44.633 3.59143 41.1313 3.59143 38.9783 5.76476L34.9658 9.82049L31.0238 5.76476C28.8737 3.59143 25.3719 3.59143 23.219 5.76476L5.73273 23.4394C3.58258 25.6128 3.58258 29.1523 5.73273 31.3284L7.72769 29.312C6.67519 28.2481 6.67519 26.5197 7.72769 25.4559L25.2139 7.78122C26.2664 6.71737 27.9764 6.71737 29.0204 7.77266L34.6413 13.5568H34.6385L42.8271 21.8365C43.8796 22.9004 43.8796 24.6288 42.8271 25.6926C41.7746 26.7565 40.0646 26.7565 39.0121 25.6926L29.2179 15.7929L28.9188 16.0952L28.8398 16.0153L28.1429 16.7198L13.2921 31.7306C11.142 33.9039 11.142 37.4434 13.2921 39.6196C14.3672 40.7063 15.7809 41.251 17.1946 41.251C17.2962 41.251 17.3977 41.2425 17.4993 41.2367C17.4937 41.3394 17.4852 41.4421 17.4852 41.5476C17.4852 43.0364 18.0608 44.4397 19.1021 45.4921C20.1771 46.5788 21.5908 47.1236 23.0045 47.1236C23.1061 47.1236 23.2077 47.115 23.3092 47.1093C23.3036 47.212 23.2951 47.3146 23.2951 47.4202C23.2951 48.909 23.8679 50.3094 24.912 51.3647C25.956 52.42 27.3415 52.9989 28.8144 52.9989C28.9188 52.9989 29.0204 52.9904 29.122 52.9847C29.0373 54.5134 29.5678 56.0735 30.7219 57.2372C31.7857 58.3125 33.1853 58.9029 34.6667 58.9029C34.6836 58.9029 34.7005 58.9029 34.7175 58.9029C36.2356 58.8886 37.6831 58.2412 38.8033 57.0775L64.275 31.3341C66.4252 29.1608 66.4252 25.6213 64.275 23.4451L64.2694 23.4394ZM62.2744 29.312L36.8055 55.0553L37.8044 56.065L36.7886 55.0753C36.1876 55.7028 35.4624 56.0393 34.6893 56.0479H34.6639C33.9359 56.0479 33.2445 55.7541 32.714 55.2179C31.6644 54.1569 31.6615 52.4257 32.714 51.3647L42.4236 41.5505L40.4286 39.534L30.7191 49.3482C30.2112 49.8616 29.534 50.1468 28.8116 50.1468C28.0892 50.1468 27.4149 49.8645 26.9041 49.3482C26.3934 48.832 26.114 48.1503 26.114 47.4202C26.114 46.69 26.3934 46.0084 26.9013 45.495L36.704 35.5867L34.709 33.5702L24.9063 43.4785C23.8538 44.5424 22.1439 44.5424 21.0914 43.4785C20.5835 42.9651 20.3013 42.2806 20.3013 41.5505C20.3013 40.8203 20.5835 40.1387 21.0914 39.6224L30.2874 30.3273L28.2924 28.3109L19.0964 37.606C18.0439 38.6698 16.3339 38.6698 15.2814 37.606C14.2289 36.5421 14.2289 34.8137 15.2814 33.7499L15.4987 33.5303L29.1333 19.7488L37.0115 27.7119C38.0866 28.7986 39.5003 29.3434 40.914 29.3434C42.3277 29.3434 43.7413 28.7986 44.8164 27.7119C46.9666 25.5358 46.9666 21.9991 44.8164 19.8229L37.0736 11.9967L36.941 11.8598L40.9704 7.78692C42.0229 6.72593 43.7329 6.72593 44.7854 7.78692L62.2716 25.4644C63.3241 26.5283 63.3241 28.2567 62.2716 29.3205L62.2744 29.312Z" fill="#312D2D"/>
</svg>
