<svg width="273" height="276" fill="none" xmlns="http://www.w3.org/2000/svg"><path fill-rule="evenodd" clip-rule="evenodd" d="M.207 19.364L18.595 0h33.69L.206 52.764v-33.4zM273 36.258L33.69 275.618H0L273 2.858v33.4zm0 65.814L99.867 275.618h-33.69L273 68.673v33.399zm0 63.469L163.736 275.618h-33.689L273 132.142v33.399zm0 66.146l-44.083 43.931h-33.689L273 198.288v33.399zM.207 215.506L215.365 0h33.689L.207 248.906v-33.4zm0-66.39L147.646 0h33.689L.207 182.515v-33.399zm0-65.135L83.776 0h33.689L.207 117.38v-33.4.001z" fill="#EE3A23"/></svg>