<svg width="636" height="635" fill="none" xmlns="http://www.w3.org/2000/svg"><path fill-rule="evenodd" clip-rule="evenodd" d="M464.504 19.107L19.1 464.664 0 445.557 445.403 0l19.101 19.107zm34.543 33.742L53.237 498.812l-19.1-19.106L479.946 33.742l19.101 19.107zm34.136 34.148L87.373 532.961l-19.1-19.107L514.083 67.89l19.1 19.107zm34.137 34.149L121.511 567.109l-19.101-19.106 445.81-445.964 19.1 19.107zm34.543 33.742L156.054 600.851l-19.101-19.106 445.81-445.964 19.1 19.107zM636 189.036L190.19 635l-19.1-19.107L616.9 169.93l19.1 19.106z" fill="#EE3A23"/></svg>