<svg width="1248" height="291" fill="none" xmlns="http://www.w3.org/2000/svg"><g clip-path="url(#clip0_663_5835)"><path d="M0 0h1248v291H0z"/><path fill-rule="evenodd" clip-rule="evenodd" d="M1052.38 0h187.12c3.7 0 5.95 1.117 7.21 2.615 1.24 1.468 1.47 3.224 1.29 4.422V33.5c0 4.332-1.55 6.88-3.59 8.252-1.99 1.336-4.34 1.502-5.93 1.25l-185.83 11.99-291.907 160.946-.072.039-.08.015C626.252 240.326 356.594 289.191 352.6 289.99c-2.02.404-3.546.575-4.639.622-1.071.046-1.775-.023-2.118-.138l-.01-.003C236.504 251.306 15.432 172.07 5.827 168.468l-.03-.011-.03-.016c-6.081-3.243-6.496-7.54-5.764-9.533v-36.932l.002-.023c.41-4.3 1.96-6.679 3.848-7.841 1.86-1.145 3.935-1.038 5.288-.593l341.391 83.473 409.823-51.477L1052.28.052l.1-.052zm.24 1L760.725 146.448l-.077.037-.084.011-409.999 51.5-.091.012-.09-.022-341.5-83.5-.02-.005-.02-.007c-1.146-.382-2.91-.469-4.466.489-1.535.945-2.981 2.977-3.375 7.061v37.072l-.036.09c-.552 1.381-.55 5.255 5.242 8.357 10.028 3.753 230.73 82.856 339.955 121.984.162.052.708.131 1.753.086 1.032-.045 2.506-.207 4.486-.603 4.006-.801 273.574-49.65 407.929-73.987l291.928-160.96.1-.055.11-.007 186-12 .06-.004.05.01c1.41.235 3.53.089 5.27-1.084 1.71-1.152 3.15-3.355 3.15-7.423V6.962l.01-.038c.15-.968-.03-2.44-1.07-3.664C1244.92 2.05 1243 1 1239.5 1h-186.88z" fill="#312D2D"/></g><defs><clipPath id="clip0_663_5835"><path d="M0 0h1248v291H0z"/></clipPath></defs></svg>