<svg width="1175" height="279" fill="none" xmlns="http://www.w3.org/2000/svg"><path d="M988.28 1.778h-.004a6.233 6.233 0 00-2.792.654h-.001L710.33 139.028l-.002.001c-.743.364-1.541.6-2.361.7l-392.324 48.716-.015.003a7.309 7.309 0 01-2.638-.003l-.015-.002-.014-.004-325.576-79.444a6.367 6.367 0 00-5.45 1.182 6.379 6.379 0 00-2.435 5.021v39.314a6.407 6.407 0 004.208 6.001l326.526 117.534.007.003.007.003a6.43 6.43 0 003.294.379l.008-.001 394.321-71.937.003-.001a5.947 5.947 0 001.93-.702l.007-.004L985.313 53.398l.002-.001a7.182 7.182 0 012.918-.905l.011-.001 180.286-11.8h0a6.363 6.363 0 004.27-2.032 6.404 6.404 0 001.7-4.422V6.775a6.397 6.397 0 00-1.93-4.453A6.396 6.396 0 001168.08.5l-179.8 1.278zm0 0L1168.07.5 988.28 1.778z" stroke="#EE3A23"/></svg>