<svg width="630" height="160" fill="none" xmlns="http://www.w3.org/2000/svg"><g clip-path="url(#clip0_34_518)" fill="#EE3A23"><path d="M-4.677 226.714l113.394 12.518a4.518 4.518 0 002.015-.256l172.891-65.339c.482-.176.99-.268 1.503-.273l247.042-1.895 206.721 2.766a4.316 4.316 0 004.038-2.655 4.312 4.312 0 00.334-1.665v-24.711a4.32 4.32 0 00-3.774-4.287l-206.893-26.589a4.49 4.49 0 00-.836 0l-246.649 16.104a4.32 4.32 0 00-1.452.358l-172.959 75.687a4.35 4.35 0 01-1.981.359l-112.592-6.25a4.322 4.322 0 00-3.298 1.167 4.335 4.335 0 00-1.364 3.221v17.505a4.336 4.336 0 003.86 4.235z"/><path d="M-4.182 175.244l113.018-.802a4.242 4.242 0 001.896-.444l172.959-85.797a4.326 4.326 0 011.384-.41l246.631-30.603a4.304 4.304 0 011.554 0l204.656 49.9a4.318 4.318 0 005.345-4.201V78.193a4.336 4.336 0 00-2.852-4.064L535.156.303a4.354 4.354 0 00-2.237-.256L285.041 45.234a4.06 4.06 0 00-1.315.478l-173.182 95.719a4.203 4.203 0 01-1.708.529l-113.325 7.412a4.32 4.32 0 00-4.048 4.372v17.248a4.34 4.34 0 004.355 4.252z"/><path d="M-8.537 119.316v-16.941a4.322 4.322 0 013.552-4.252l109.637-20.05a4.336 4.336 0 015.123 4.253v23.396a4.34 4.34 0 01-3.791 4.286L-3.653 123.67a4.337 4.337 0 01-4.884-4.354z"/></g><defs><clipPath id="clip0_34_518"><path fill="#fff" d="M0 0h630v160H0z"/></clipPath></defs></svg>