<svg width="24" height="24" viewBox="0 0 24 24" fill="none" xmlns="http://www.w3.org/2000/svg">
<path d="M6.29492 3.69141C6.92715 3.41756 7.65145 3.43786 8.27051 3.75098L8.40039 3.82324C8.70032 4.009 8.98716 4.30259 9.3877 4.70312L9.56543 4.88184C9.86671 5.18312 10.0747 5.38695 10.2148 5.60254L10.3027 5.74902C10.6869 6.44689 10.6867 7.29426 10.3027 7.99219L10.2148 8.13965C10.0746 8.35526 9.86679 8.55899 9.56543 8.86035L9.41797 9.01562C9.35204 9.10777 9.32576 9.26329 9.35742 9.37207L9.43066 9.53906L9.6709 10.0127C10.2549 11.1096 11.0093 12.1402 11.9346 13.0654C12.992 14.1228 14.1866 14.9575 15.4609 15.5693L15.6279 15.6426L15.7168 15.6562C15.8107 15.659 15.9153 15.6314 15.9844 15.582L16.1396 15.4346C16.441 15.1332 16.6447 14.9254 16.8604 14.7852L17.0078 14.6973C17.7554 14.286 18.6744 14.3152 19.3975 14.7852L19.5586 14.9033C19.721 15.035 19.8921 15.2085 20.1182 15.4346L20.2969 15.6123L20.6133 15.9307C20.9042 16.2272 21.1162 16.4669 21.249 16.7295L21.3086 16.8545C21.5643 17.4445 21.5642 18.115 21.3086 18.7051L21.249 18.8311C21.0719 19.1808 20.7542 19.4899 20.2969 19.9473L20.1523 20.0918C19.7424 20.5017 19.4663 20.7814 19.1348 20.9961L18.9893 21.085C18.6041 21.3013 18.0569 21.4583 17.5879 21.4932L17.3916 21.5C17.0494 21.4989 16.7826 21.4456 16.457 21.3584L16.1064 21.2607C13.2549 20.4514 10.5641 18.9234 8.32031 16.6797C6.21679 14.5762 4.74231 12.0802 3.89941 9.42676L3.73926 8.89355C3.61345 8.45031 3.52582 8.14793 3.50488 7.77344L3.5 7.6084C3.4985 7.10346 3.66774 6.45099 3.91504 6.01074L4.00391 5.86523C4.21859 5.53372 4.49826 5.2576 4.9082 4.84766L5.05273 4.70312L5.37109 4.38672C5.66739 4.09602 5.90659 3.88381 6.16895 3.75098L6.29492 3.69141ZM7.81934 4.64258C7.48967 4.47583 7.10735 4.45497 6.76465 4.58008L6.62109 4.64258C6.49258 4.70759 6.36092 4.81841 6.08691 5.08594L5.75977 5.41016L5.61523 5.55469C5.24077 5.92915 5.04342 6.13022 4.90723 6.31543L4.78711 6.50098C4.62438 6.79082 4.49901 7.27316 4.5 7.60547L4.51074 7.81543C4.53268 8.02016 4.59042 8.22746 4.70215 8.62109L4.85254 9.12402C5.64818 11.6287 7.0398 13.9851 9.02734 15.9727C11.1474 18.0927 13.6873 19.5338 16.3789 20.2979L16.7168 20.3926C17.0065 20.4701 17.1712 20.4993 17.3945 20.5L17.5264 20.4941C17.8451 20.4685 18.2455 20.3552 18.499 20.2129L18.6846 20.0928C18.8698 19.9566 19.0708 19.7592 19.4453 19.3848L19.5898 19.2402C20.1029 18.7272 20.2707 18.5503 20.3574 18.3789L20.4199 18.2354C20.5271 17.9417 20.5271 17.6189 20.4199 17.3252L20.3574 17.1807C20.2924 17.0521 20.1817 16.9206 19.9141 16.6465L19.5898 16.3193L19.4111 16.1416C19.1586 15.889 19.0303 15.7628 18.9375 15.6865L18.8525 15.624C18.4676 15.3737 17.9855 15.3426 17.5762 15.5303L17.4053 15.624C17.2998 15.6927 17.1838 15.8045 16.8467 16.1416C16.7998 16.1885 16.7555 16.2339 16.71 16.2764L16.5664 16.3955C16.2674 16.6094 15.8674 16.6977 15.502 16.6377L15.3477 16.6025C15.2881 16.5852 15.2345 16.5645 15.1826 16.542L15.0283 16.4707C13.6536 15.8107 12.3659 14.9108 11.2275 13.7725C10.2314 12.7763 9.41803 11.6656 8.78809 10.4824L8.5293 9.97168C8.50425 9.91952 8.48045 9.8692 8.45801 9.81738L8.39746 9.65234C8.27988 9.24899 8.36002 8.77528 8.60449 8.43359L8.72363 8.29004C8.7661 8.24449 8.81151 8.20021 8.8584 8.15332C9.19551 7.8162 9.30731 7.70022 9.37598 7.59473L9.46973 7.42383C9.6307 7.07283 9.63085 6.66834 9.46973 6.31738L9.37598 6.14746C9.30733 6.04191 9.19567 5.92614 8.8584 5.58887L8.68066 5.41016C8.296 5.02549 8.10007 4.83536 7.9541 4.72754L7.81934 4.64258Z" fill="#EE3A23"/>
</svg>
