<svg width="159" height="162" viewBox="0 0 159 162" fill="none" xmlns="http://www.w3.org/2000/svg">
<path fill-rule="evenodd" clip-rule="evenodd" d="M-1.06926 11.8245L9.70712 0.476074H29.4504L-1.06909 31.3979V11.8245H-1.06926ZM158.799 21.7247L18.5529 162H-1.19043L158.799 2.15127V21.7247ZM158.799 60.2944L57.3356 162H37.5923L158.799 40.7212V60.2946V60.2944ZM158.799 97.4901L94.7661 162H75.0228L158.799 77.9168V97.4901H158.799ZM158.799 136.255L132.965 162H113.222L158.799 116.681V136.255L158.799 136.255ZM-1.06926 126.772L125.023 0.476074H144.766L-1.06926 146.345V126.772ZM-1.06926 87.8643L85.3364 0.476074H105.08L-1.06926 107.438V87.8643ZM-1.06926 49.6926L47.9059 0.476074H67.6492L-1.06909 69.2658V49.6924L-1.06926 49.6926Z" fill="white"/>
</svg>
