<svg width="1196" height="279" fill="none" xmlns="http://www.w3.org/2000/svg"><path d="M1009.28 1.778h0a6.272 6.272 0 00-2.8.654h0L731.33 139.028l-.002.001c-.742.364-1.54.6-2.36.699L1009.28 1.777zm0 0L1189.07.5l-179.79 1.278zM336.643 188.444l392.324-48.716L1189.08.5a6.396 6.396 0 014.49 1.822 6.397 6.397 0 011.93 4.453v27.462a6.404 6.404 0 01-1.7 4.422 6.363 6.363 0 01-4.27 2.032h0l-180.29 11.8h-.01a7.142 7.142 0 00-2.91.906h-.01l-275.499 152.39-.007.004a5.947 5.947 0 01-1.93.702l-.003.001L334.55 278.43l-.008.001a6.43 6.43 0 01-3.294-.379l-.007-.003-.007-.003L4.708 160.512A6.407 6.407 0 01.5 154.511v-39.314a6.384 6.384 0 012.435-5.021 6.368 6.368 0 015.45-1.182l325.576 79.444.014.004.015.002a7.309 7.309 0 002.638.003l.015-.003z" stroke="#312D2D"/></svg>