<svg width="956" height="213" viewBox="0 0 956 213" fill="none" xmlns="http://www.w3.org/2000/svg">
<g clip-path="url(#clip0_50_3918)">
<path d="M802.135 265.417L801.934 265.875L579.604 168.583L579.602 168.583C579.065 168.345 578.491 168.203 577.905 168.163C577.905 168.163 577.905 168.163 577.905 168.163L260.853 147.463L260.84 147.461C260.516 147.432 260.189 147.431 259.864 147.461C259.861 147.461 259.858 147.461 259.855 147.461L-6.07513 181.639L-6.07562 181.639C-7.29553 181.794 -8.41687 182.389 -9.22955 183.312C-10.0422 184.235 -10.4904 185.423 -10.4902 186.653V218.417C-10.4903 219.086 -10.3577 219.748 -10.0999 220.365C-9.84216 220.982 -9.4646 221.542 -8.98895 222.012C-8.51324 222.482 -7.94904 222.853 -7.32892 223.104C-6.70886 223.354 -6.04517 223.479 -5.37726 223.471L260.352 219.915L260.362 219.915L577.921 222.352L577.921 222.352C578.638 222.358 579.347 222.487 580.02 222.733L580.025 222.735L802.264 306.722C802.264 306.722 802.265 306.723 802.265 306.723C803.02 307.001 803.829 307.104 804.629 307.023C804.63 307.023 804.63 307.023 804.631 307.023L950.388 290.933C951.614 290.797 952.749 290.219 953.58 289.307C954.411 288.396 954.881 287.214 954.904 285.981L954.904 263.485L954.904 263.478C954.914 262.773 954.777 262.074 954.503 261.424C954.228 260.775 953.821 260.191 953.308 259.708C952.794 259.224 952.186 258.853 951.522 258.618C950.857 258.383 950.151 258.289 949.448 258.342L949.448 258.342L949.439 258.342L804.709 266.377L804.708 266.377C803.757 266.428 802.807 266.256 801.934 265.875L802.135 265.417Z" stroke="#312D2D"/>
<path d="M804.527 223.735L804.531 223.735L949.808 224.767C951.141 224.772 952.422 224.253 953.375 223.322C954.327 222.393 954.876 221.126 954.904 219.796L954.904 197.629L954.904 197.622C954.922 196.325 954.44 195.071 953.559 194.119C952.678 193.167 951.464 192.59 950.17 192.508L950.169 192.508L804.495 182.981L804.484 182.98C803.642 182.907 802.824 182.654 802.088 182.238C802.087 182.238 802.087 182.237 802.086 182.237L579.475 59.1982L579.468 59.194C578.994 58.9217 578.477 58.7337 577.939 58.6381L577.937 58.6377L259.32 0.555359C259.317 0.554969 259.314 0.554582 259.312 0.554196C258.43 0.424604 257.53 0.528375 256.701 0.855229L256.694 0.858001L256.686 0.86056L-7.15283 95.7584C-7.15338 95.7586 -7.1543 95.759 -7.15485 95.7592C-8.13037 96.1152 -8.97278 96.7617 -9.56927 97.6117C-10.1661 98.4623 -10.4875 99.4755 -10.4901 100.515V132.256C-10.4907 133.022 -10.3173 133.779 -9.98273 134.468C-9.64825 135.157 -9.16144 135.761 -8.55914 136.234C-7.95685 136.708 -7.25488 137.038 -6.50623 137.2C-5.75757 137.362 -4.98187 137.352 -4.23767 137.17L-4.11908 137.656L-4.23755 137.17L258.835 73.0265L258.849 73.0231L258.864 73.0205C259.579 72.8892 260.312 72.8883 261.027 73.0178C261.032 73.0187 261.037 73.0196 261.042 73.0205L578.043 112.354C578.716 112.435 579.372 112.629 579.981 112.928L579.983 112.929L802.313 223.216L802.314 223.217C803.001 223.559 803.759 223.736 804.527 223.735Z" stroke="#312D2D"/>
<path d="M954.904 153.38H954.904V153.374V131.598V131.597C954.904 130.413 954.488 129.266 953.729 128.357C952.969 127.448 951.915 126.834 950.749 126.623L950.748 126.623L809.816 100.852L809.815 100.852C809.085 100.717 808.333 100.744 807.614 100.932C806.895 101.12 806.226 101.463 805.654 101.938C805.083 102.412 804.622 103.007 804.305 103.679C803.988 104.351 803.823 105.084 803.82 105.827V135.898C803.825 137.13 804.278 138.319 805.094 139.241C805.91 140.164 807.034 140.759 808.256 140.914C808.257 140.914 808.257 140.914 808.257 140.914L949.187 158.476L949.189 158.476C949.909 158.567 950.64 158.503 951.333 158.288C952.026 158.073 952.665 157.712 953.206 157.229C953.748 156.746 954.18 156.153 954.473 155.489C954.766 154.825 954.913 154.106 954.904 153.38Z" stroke="#312D2D"/>
</g>
<defs>
<clipPath id="clip0_50_3918">
<rect width="967" height="213" fill="white" transform="translate(-11)"/>
</clipPath>
</defs>
</svg>
