<svg width="186" height="30" viewBox="0 0 186 30" fill="none" xmlns="http://www.w3.org/2000/svg">
<path d="M0.236897 19.2913L8.17281 21.0905C8.21992 21.1017 8.26901 21.1017 8.31613 21.0905L20.0838 18.0074C20.1185 17.9981 20.1546 17.9953 20.1904 17.9991L37.5084 19.8267C37.5409 19.8295 37.5737 19.8275 37.6056 19.8208L51.9376 16.6583C52.0047 16.6441 52.0648 16.6073 52.108 16.554C52.1511 16.5007 52.1746 16.4342 52.1745 16.3657V14.7145C52.1745 14.6727 52.1658 14.6313 52.1488 14.593C52.1319 14.5547 52.1071 14.5204 52.0761 14.4922C52.045 14.4641 52.0085 14.4428 51.9687 14.4297C51.9289 14.4166 51.8869 14.4119 51.8452 14.4161L37.557 15.8564C37.542 15.8582 37.5269 15.8582 37.512 15.8564L20.4012 14.9751C20.3651 14.9739 20.3291 14.9787 20.2946 14.9893L8.30547 18.8258C8.2599 18.84 8.2117 18.8437 8.16452 18.8365L0.355344 17.517C0.311903 17.5088 0.267182 17.5103 0.224389 17.5214C0.181595 17.5325 0.14179 17.5529 0.107826 17.5812C0.0738619 17.6095 0.0465813 17.645 0.0279402 17.6851C0.00929902 17.7252 -0.000240844 17.7689 4.61943e-06 17.8131V18.9976C5.69083e-05 19.0662 0.02358 19.1328 0.0666698 19.1862C0.10976 19.2396 0.169825 19.2767 0.236897 19.2913Z" fill="#EE3A23"/>
<path d="M0.299948 15.7248L8.16479 16.593C8.21212 16.5978 8.25993 16.5917 8.30456 16.5752L20.2961 12.0435C20.3295 12.0313 20.3647 12.0248 20.4003 12.0245L37.5348 11.8931L51.8727 12.0849C51.9124 12.0854 51.9517 12.078 51.9885 12.0632C52.0253 12.0483 52.0587 12.0263 52.0869 11.9984C52.1151 11.9706 52.1375 11.9374 52.1528 11.9008C52.1681 11.8642 52.1759 11.8249 52.1759 11.7853V10.0713C52.1759 9.99843 52.1494 9.92801 52.1012 9.87328C52.053 9.81855 51.9865 9.78327 51.9142 9.77405L37.5644 7.92984C37.5451 7.92807 37.5257 7.92807 37.5063 7.92984L20.3991 9.04679C20.3644 9.04916 20.3303 9.05758 20.2984 9.07166L8.30219 14.3212C8.25896 14.3401 8.2119 14.3486 8.16479 14.3461L0.355618 13.9126C0.313957 13.9094 0.272101 13.915 0.232716 13.929C0.193331 13.9429 0.15728 13.9649 0.126861 13.9935C0.0964412 14.0222 0.0723193 14.0568 0.0560317 14.0953C0.0397441 14.1338 0.0316479 14.1752 0.0322587 14.217V15.4311C0.0335421 15.5042 0.0614266 15.5744 0.110696 15.6284C0.159966 15.6825 0.227245 15.7167 0.299948 15.7248Z" fill="#EE3A23"/>
<path d="M0.334294 12.1547L8.17308 12.099C8.2187 12.0991 8.26371 12.0886 8.30455 12.0682L20.3008 6.11749C20.331 6.1027 20.3634 6.09309 20.3967 6.08906L37.5028 3.9665C37.5384 3.95996 37.5749 3.95996 37.6106 3.9665L51.8052 7.4275C51.8493 7.43828 51.8953 7.43888 51.9397 7.42926C51.9841 7.41964 52.0257 7.40006 52.0614 7.37199C52.0971 7.34393 52.126 7.30811 52.1458 7.26725C52.1657 7.22638 52.176 7.18155 52.1759 7.13613V5.42339C52.1758 5.3618 52.1567 5.30175 52.1213 5.25134C52.086 5.20092 52.036 5.16258 51.9781 5.14149L37.742 0.0210469C37.6928 0.00162359 37.6393 -0.00450357 37.5869 0.00327995L20.3944 3.13737C20.3623 3.14307 20.3314 3.15429 20.3032 3.17054L8.29152 9.80946C8.25513 9.83006 8.21474 9.84258 8.17308 9.84618L0.312973 10.3602C0.236208 10.3651 0.164249 10.3993 0.111995 10.4557C0.0597396 10.5122 0.0311898 10.5865 0.0322554 10.6635V11.8598C0.0338094 11.9387 0.0663536 12.0139 0.122863 12.0691C0.179372 12.1243 0.255313 12.155 0.334294 12.1547Z" fill="#EE3A23"/>
<path d="M20.3477 21.2453V23.6143C20.3476 23.6827 20.3711 23.749 20.4143 23.8021C20.4574 23.8552 20.5176 23.8917 20.5845 23.9056L37.4643 27.7362C37.5275 27.7502 37.5936 27.7436 37.6527 27.7172L51.9989 21.3318C52.0518 21.3079 52.0967 21.2693 52.1282 21.2205C52.1597 21.1718 52.1765 21.115 52.1766 21.057V19.3786C52.1765 19.3313 52.1652 19.2846 52.1437 19.2425C52.1221 19.2003 52.0908 19.1639 52.0525 19.1362C52.0141 19.1084 51.9697 19.0902 51.9229 19.0829C51.8761 19.0756 51.8283 19.0796 51.7833 19.0943L37.6065 23.7682C37.5599 23.7836 37.5103 23.7873 37.462 23.7789L20.6971 20.9504C20.6542 20.9432 20.6102 20.9454 20.5682 20.9569C20.5263 20.9684 20.4873 20.9888 20.454 21.0169C20.4208 21.045 20.394 21.08 20.3757 21.1194C20.3573 21.1588 20.3477 21.2018 20.3477 21.2453Z" fill="#EE3A23"/>
<path d="M0.0322479 8.27549V7.1005C0.0322384 7.03026 0.0569022 6.96225 0.101932 6.90835C0.146962 6.85444 0.209497 6.81806 0.278616 6.80557L7.88288 5.41501C7.92619 5.40703 7.97073 5.40866 8.01335 5.41979C8.05596 5.43091 8.09562 5.45126 8.12951 5.47939C8.1634 5.50752 8.1907 5.54274 8.20949 5.58258C8.22827 5.62242 8.23808 5.6659 8.23822 5.70994V7.33266C8.23794 7.40568 8.2111 7.47612 8.16272 7.53082C8.11434 7.58552 8.04771 7.62076 7.97527 7.62996L0.371005 8.57753C0.328335 8.58295 0.284999 8.57916 0.243918 8.56641C0.202837 8.55367 0.164968 8.53226 0.132863 8.50363C0.100758 8.47501 0.0751646 8.43983 0.057808 8.40048C0.0404514 8.36112 0.0317355 8.3185 0.0322479 8.27549Z" fill="#EE3A23"/>
<path d="M98.5474 2.39471H103.174C103.237 2.39471 103.297 2.41967 103.341 2.4641C103.386 2.50852 103.411 2.56878 103.411 2.63161L103.397 15.046C103.397 15.1088 103.372 15.1691 103.327 15.2135C103.283 15.2579 103.223 15.2829 103.16 15.2829H100.874C100.811 15.2829 100.751 15.2579 100.706 15.2135C100.662 15.1691 100.637 15.1088 100.637 15.046V4.98869C100.639 4.93275 100.621 4.87784 100.587 4.83369C100.553 4.78954 100.504 4.75901 100.449 4.74751C100.394 4.73601 100.337 4.74429 100.288 4.77088C100.238 4.79747 100.2 4.84064 100.18 4.89275L95.6917 15.1384C95.6732 15.1821 95.6419 15.2193 95.602 15.2451C95.5621 15.2708 95.5153 15.284 95.4678 15.2829H91.8801C91.8338 15.283 91.7886 15.2697 91.7498 15.2444C91.7111 15.2191 91.6806 15.1831 91.6621 15.1407L87.192 4.91407C87.1715 4.86196 87.1332 4.81879 87.084 4.7922C87.0347 4.76561 86.9776 4.75733 86.9228 4.76883C86.868 4.78033 86.8191 4.81086 86.7847 4.85501C86.7502 4.89916 86.7326 4.95407 86.7348 5.01001V15.046C86.7348 15.1088 86.7098 15.1691 86.6654 15.2135C86.621 15.2579 86.5607 15.2829 86.4979 15.2829H84.2154C84.1526 15.2829 84.0923 15.2579 84.0479 15.2135C84.0035 15.1691 83.9785 15.1088 83.9785 15.046V2.63279C83.9785 2.56996 84.0035 2.50971 84.0479 2.46528C84.0923 2.42086 84.1526 2.3959 84.2154 2.3959H88.8443C88.8915 2.39566 88.9376 2.40952 88.9769 2.43568C89.0161 2.46185 89.0467 2.49914 89.0646 2.54277L93.4945 13.1852C93.5118 13.2297 93.5421 13.268 93.5815 13.2951C93.6209 13.3221 93.6676 13.3365 93.7154 13.3365C93.7632 13.3365 93.8099 13.3221 93.8493 13.2951C93.8887 13.268 93.919 13.2297 93.9363 13.1852L98.3307 2.54277C98.3482 2.49947 98.3781 2.46232 98.4167 2.43598C98.4552 2.40963 98.5007 2.39528 98.5474 2.39471Z" fill="#191919"/>
<path d="M120.815 2.63295V15.0461C120.815 15.109 120.79 15.1692 120.746 15.2136C120.701 15.2581 120.641 15.283 120.578 15.283H118.177C118.114 15.283 118.054 15.2581 118.01 15.2136C117.965 15.1692 117.94 15.109 117.94 15.0461V4.98885C117.94 4.92602 117.915 4.86577 117.871 4.82134C117.826 4.77691 117.766 4.75196 117.703 4.75196H109.617C109.554 4.75196 109.494 4.77691 109.45 4.82134C109.405 4.86577 109.38 4.92602 109.38 4.98885V15.0461C109.38 15.109 109.355 15.1692 109.311 15.2136C109.266 15.2581 109.206 15.283 109.143 15.283H106.745C106.682 15.283 106.622 15.2581 106.577 15.2136C106.533 15.1692 106.508 15.109 106.508 15.0461V2.63295C106.508 2.57012 106.533 2.50987 106.577 2.46544C106.622 2.42102 106.682 2.39606 106.745 2.39606H120.578C120.641 2.39606 120.701 2.42102 120.746 2.46544C120.79 2.50987 120.815 2.57012 120.815 2.63295Z" fill="#191919"/>
<path d="M123.904 15.0461V2.63295C123.904 2.57012 123.929 2.50987 123.974 2.46544C124.018 2.42102 124.078 2.39606 124.141 2.39606H136.128C136.191 2.39606 136.251 2.42102 136.295 2.46544C136.34 2.50987 136.365 2.57012 136.365 2.63295V4.40136C136.365 4.46418 136.34 4.52444 136.295 4.56886C136.251 4.61329 136.191 4.63825 136.128 4.63825H127.008C126.945 4.63825 126.885 4.66321 126.84 4.70763C126.796 4.75206 126.771 4.81231 126.771 4.87514V7.42055C126.771 7.45166 126.777 7.48247 126.789 7.51121C126.801 7.53995 126.818 7.56607 126.84 7.58806C126.862 7.61006 126.888 7.62751 126.917 7.63942C126.946 7.65132 126.976 7.65745 127.008 7.65745H134.081C134.144 7.65745 134.204 7.68241 134.249 7.72683C134.293 7.77126 134.318 7.83151 134.318 7.89434V9.55259C134.318 9.61542 134.293 9.67567 134.249 9.7201C134.204 9.76452 134.144 9.78948 134.081 9.78948H127.011C126.948 9.78948 126.888 9.81444 126.844 9.85887C126.799 9.90329 126.774 9.96355 126.774 10.0264V12.7957C126.774 12.8585 126.799 12.9187 126.844 12.9632C126.888 13.0076 126.948 13.0325 127.011 13.0325H136.475C136.538 13.0325 136.598 13.0575 136.643 13.1019C136.687 13.1464 136.712 13.2066 136.712 13.2694V15.0461C136.712 15.109 136.687 15.1692 136.643 15.2136C136.598 15.2581 136.538 15.283 136.475 15.283H124.142C124.111 15.2832 124.08 15.2772 124.051 15.2653C124.022 15.2535 123.996 15.2361 123.974 15.2141C123.952 15.1921 123.934 15.1659 123.922 15.1371C123.91 15.1082 123.904 15.0773 123.904 15.0461Z" fill="#191919"/>
<path d="M147.653 2.39471C149.137 2.39471 150.343 2.74453 151.27 3.44415C152.197 4.14377 152.66 5.17465 152.66 6.53679C152.66 7.91077 152.209 8.92625 151.307 9.58323C150.405 10.2402 149.187 10.5683 147.653 10.5675H142.129C142.066 10.5675 142.005 10.5925 141.961 10.6369C141.917 10.6813 141.892 10.7416 141.892 10.8044V15.046C141.892 15.1088 141.867 15.1691 141.822 15.2135C141.778 15.2579 141.718 15.2829 141.655 15.2829H139.257C139.195 15.2829 139.134 15.2579 139.09 15.2135C139.045 15.1691 139.021 15.1088 139.021 15.046V2.63279C139.021 2.56996 139.045 2.50971 139.09 2.46528C139.134 2.42086 139.195 2.3959 139.257 2.3959H147.653V2.39471ZM147.505 8.34073C148.216 8.34073 148.774 8.18714 149.181 7.87997C149.588 7.5728 149.79 7.12507 149.788 6.53679C149.788 5.94692 149.586 5.50196 149.181 5.20189C148.776 4.90183 148.217 4.7514 147.505 4.75061H142.129C142.066 4.75061 142.005 4.77557 141.961 4.82C141.917 4.86442 141.892 4.92468 141.892 4.98751V8.10146C141.892 8.16429 141.917 8.22455 141.961 8.26897C142.005 8.3134 142.066 8.33836 142.129 8.33836L147.505 8.34073Z" fill="#191919"/>
<path d="M186 2.63265V15.0458C186 15.1087 185.975 15.1689 185.93 15.2133C185.886 15.2578 185.826 15.2827 185.763 15.2827H183.367C183.304 15.2827 183.244 15.2578 183.199 15.2133C183.155 15.1689 183.13 15.1087 183.13 15.0458V10.623C183.13 10.5602 183.105 10.5 183.06 10.4555C183.016 10.4111 182.956 10.3862 182.893 10.3862H179.484C179.45 10.3862 179.417 10.3935 179.386 10.4076C179.355 10.4217 179.327 10.4422 179.305 10.4679L175.141 15.2057C175.118 15.2313 175.09 15.2517 175.059 15.2656C175.028 15.2795 174.995 15.2866 174.961 15.2863H171.984C171.937 15.2873 171.89 15.2741 171.851 15.2486C171.811 15.223 171.78 15.1861 171.761 15.1427C171.743 15.0993 171.738 15.0513 171.746 15.0049C171.755 14.9585 171.778 14.9159 171.811 14.8824L175.838 10.7048C175.869 10.6733 175.89 10.6339 175.9 10.591C175.91 10.5481 175.907 10.5034 175.893 10.4618C175.878 10.4202 175.853 10.3835 175.819 10.3557C175.784 10.3279 175.743 10.3102 175.7 10.3044C174.61 10.1599 173.735 9.8109 173.075 9.25736C172.32 8.62565 171.943 7.70216 171.943 6.4869C171.943 5.14924 172.406 4.13376 173.333 3.44046C174.26 2.74715 175.466 2.4005 176.951 2.4005H185.769C185.83 2.40201 185.888 2.42699 185.931 2.47024C185.974 2.51348 185.999 2.57166 186 2.63265ZM177.089 8.21148H182.893C182.956 8.21148 183.016 8.18652 183.06 8.1421C183.105 8.09767 183.13 8.03742 183.13 7.97459V4.93407C183.13 4.87124 183.105 4.81098 183.06 4.76656C183.016 4.72213 182.956 4.69717 182.893 4.69717H177.089C176.401 4.69717 175.849 4.8551 175.431 5.17096C175.227 5.32221 175.063 5.52134 174.954 5.75083C174.845 5.98031 174.794 6.23309 174.805 6.4869C174.805 7.03886 175.01 7.46645 175.421 7.76612C175.832 8.06579 176.389 8.21148 177.089 8.21148Z" fill="#191919"/>
<path d="M78.0823 7.37069V15.046C78.0823 15.1088 78.1073 15.1691 78.1517 15.2135C78.1962 15.258 78.2564 15.2829 78.3192 15.2829H80.6396C80.7024 15.2829 80.7627 15.258 80.8071 15.2135C80.8515 15.1691 80.8765 15.1088 80.8765 15.046V3.59462C80.8763 3.5792 80.8713 3.56423 80.8622 3.55182C80.853 3.53941 80.8402 3.5302 80.8255 3.52548C80.8109 3.52076 80.7951 3.52078 80.7804 3.52554C80.7657 3.53029 80.753 3.53954 80.7438 3.55198L78.0906 7.32805C78.0839 7.34119 78.081 7.35598 78.0823 7.37069Z" fill="#191919"/>
<path d="M157.652 10.2727V2.63295C157.652 2.57012 157.627 2.50987 157.582 2.46544C157.538 2.42102 157.478 2.39606 157.415 2.39606H155.093C155.031 2.39606 154.97 2.42102 154.926 2.46544C154.881 2.50987 154.856 2.57012 154.856 2.63295V13.9339C154.857 13.9616 154.865 13.9885 154.882 14.0108C154.898 14.0331 154.921 14.0496 154.948 14.0579C154.974 14.0662 155.002 14.0659 155.029 14.057C155.055 14.0482 155.077 14.0312 155.093 14.0085L157.632 10.3474C157.645 10.325 157.652 10.299 157.652 10.2727Z" fill="#191919"/>
<path d="M167.948 2.39472H165.395C165.357 2.39459 165.319 2.40379 165.285 2.42154C165.251 2.43928 165.222 2.46503 165.2 2.49658L156.461 15.0957C156.449 15.1135 156.442 15.1341 156.441 15.1555C156.439 15.1769 156.444 15.1982 156.454 15.2172C156.464 15.2361 156.479 15.252 156.497 15.2632C156.515 15.2743 156.536 15.2803 156.558 15.2805H159.144C159.182 15.2808 159.22 15.2717 159.254 15.254C159.289 15.2362 159.318 15.2103 159.34 15.1786L168.045 2.57949C168.057 2.56175 168.064 2.54108 168.065 2.5197C168.066 2.49831 168.061 2.47701 168.052 2.45805C168.042 2.43909 168.027 2.42319 168.008 2.41203C167.99 2.40088 167.969 2.3949 167.948 2.39472Z" fill="#191919"/>
<path d="M166.892 7.37783V15.046C166.892 15.1089 166.917 15.1691 166.961 15.2136C167.005 15.258 167.066 15.2829 167.128 15.2829H169.45C169.513 15.2829 169.573 15.258 169.618 15.2136C169.662 15.1691 169.687 15.1089 169.687 15.046V3.61715C169.686 3.59533 169.679 3.57424 169.666 3.5568C169.653 3.53937 169.634 3.52644 169.614 3.51981C169.593 3.51318 169.57 3.51317 169.55 3.51979C169.529 3.5264 169.511 3.53932 169.497 3.55674L166.909 7.31742C166.898 7.33537 166.891 7.35638 166.892 7.37783Z" fill="#191919"/>
<path d="M68.8414 10.2384V2.63295C68.8414 2.57012 68.8165 2.50987 68.7721 2.46544C68.7276 2.42102 68.6674 2.39606 68.6045 2.39606H66.2818C66.219 2.39606 66.1587 2.42102 66.1143 2.46544C66.0699 2.50987 66.0449 2.57012 66.0449 2.63295V13.9008C66.0477 13.9232 66.0569 13.9444 66.0714 13.9617C66.0859 13.9791 66.105 13.992 66.1265 13.9988C66.1481 14.0057 66.1712 14.0062 66.193 14.0004C66.2148 13.9946 66.2346 13.9826 66.2498 13.9659L68.8177 10.3083C68.8329 10.2881 68.8412 10.2636 68.8414 10.2384Z" fill="#191919"/>
<path d="M76.5875 2.39472C76.5489 2.3944 76.5108 2.40351 76.4765 2.42127C76.4423 2.43902 76.4128 2.46488 76.3908 2.49659L67.6258 15.0389C67.6111 15.0619 67.6027 15.0885 67.6017 15.1158C67.6006 15.1432 67.6069 15.1703 67.6198 15.1945C67.6327 15.2186 67.6518 15.2388 67.6751 15.2531C67.6985 15.2674 67.7252 15.2752 67.7525 15.2758H70.3394C70.378 15.2761 70.4161 15.267 70.4504 15.2492C70.4846 15.2315 70.514 15.2056 70.536 15.1739L79.4325 2.39472H76.5875Z" fill="#191919"/>
<path d="M68.9986 26.0334L67.8996 28.4856C67.7876 28.7369 67.6695 28.9216 67.5454 29.0397C67.4243 29.1547 67.279 29.2122 67.1094 29.2122C66.949 29.2122 66.8203 29.1744 66.7234 29.0987L66.8597 28.7717C66.9384 28.8262 67.0201 28.8535 67.1049 28.8535C67.2623 28.8535 67.3925 28.746 67.4954 28.531L67.5499 28.413L66.1104 26.0334H66.5463L67.7361 28.027L68.608 26.0334H68.9986Z" fill="#191919"/>
<path d="M71.6553 29.2122V26.3967H69.9296V29.2122H69.5436V26.0334H72.0413V29.2122H71.6553Z" fill="#191919"/>
<path d="M73.3799 29.2122H72.9939V26.0334C73.0514 26.0334 73.1861 26.0318 73.398 26.0288C73.613 26.0258 73.7553 26.0243 73.8249 26.0243C74.2427 26.0243 74.5424 26.1181 74.7241 26.3058C74.9088 26.4905 75.0011 26.7251 75.0011 27.0097C75.0011 27.2883 74.9012 27.5244 74.7014 27.7182C74.5046 27.9119 74.223 28.0088 73.8567 28.0088C73.6811 28.0088 73.5222 28.0027 73.3799 27.9906V29.2122ZM73.8612 26.3876C73.7401 26.3876 73.5797 26.3906 73.3799 26.3967V27.6228C73.5524 27.6379 73.7068 27.6455 73.8431 27.6455C74.0762 27.6455 74.2594 27.5895 74.3926 27.4775C74.5258 27.3624 74.5924 27.205 74.5924 27.0052C74.5924 26.8114 74.5318 26.66 74.4107 26.5511C74.2896 26.4421 74.1065 26.3876 73.8612 26.3876Z" fill="#191919"/>
<path d="M75.0021 29.2122L76.369 26.0152H76.7006L78.0675 29.2122H77.6542L77.2455 28.2495H75.7968L75.3927 29.2122H75.0021ZM76.5234 26.5284L75.9512 27.8862H77.0956L76.5234 26.5284Z" fill="#191919"/>
<path d="M78.6128 29.2077V26.0379C79.0851 26.0258 79.3757 26.0197 79.4847 26.0197C79.8419 26.0197 80.1008 26.0909 80.2612 26.2332C80.4247 26.3755 80.5065 26.5662 80.5065 26.8054C80.5065 26.9961 80.4565 27.1535 80.3566 27.2777C80.2567 27.3988 80.125 27.4866 79.9615 27.541V27.5501C80.1644 27.5834 80.3248 27.6652 80.4429 27.7954C80.561 27.9225 80.62 28.0921 80.62 28.304C80.62 28.6128 80.514 28.8444 80.3021 28.9988C80.0932 29.1502 79.8147 29.2258 79.4665 29.2258C79.1456 29.2258 78.861 29.2198 78.6128 29.2077ZM79.5119 27.7636H78.9988V28.8444C79.138 28.8565 79.3015 28.8625 79.4892 28.8625C79.7284 28.8625 79.9116 28.8141 80.0387 28.7172C80.1689 28.6173 80.234 28.472 80.234 28.2813C80.234 28.1148 80.1704 27.9876 80.0433 27.8998C79.9191 27.809 79.742 27.7636 79.5119 27.7636ZM79.4756 26.383C79.3848 26.383 79.2258 26.3876 78.9988 26.3967V27.423H79.5074C79.683 27.423 79.8283 27.3761 79.9433 27.2822C80.0614 27.1883 80.1205 27.0582 80.1205 26.8917C80.1205 26.5526 79.9055 26.383 79.4756 26.383Z" fill="#191919"/>
<path d="M83.3728 29.2122V26.3967H82.2194L82.1649 26.9961C82.1285 27.3897 82.0816 27.7272 82.0241 28.0088C81.9666 28.2873 81.9045 28.5068 81.8379 28.6673C81.7713 28.8277 81.6926 28.9519 81.6018 29.0397C81.514 29.1275 81.4277 29.1819 81.3429 29.2031C81.2581 29.2243 81.1613 29.2274 81.0523 29.2122L81.0568 28.8262C81.1143 28.8323 81.1658 28.8277 81.2112 28.8126C81.2566 28.7975 81.3111 28.7505 81.3747 28.6718C81.4413 28.5901 81.4988 28.4765 81.5473 28.3312C81.5987 28.1859 81.6487 27.971 81.6971 27.6864C81.7456 27.4018 81.7834 27.0627 81.8106 26.6691L81.8561 26.0334H83.7588V29.2122H83.3728Z" fill="#191919"/>
<path d="M84.7106 29.2122V26.0334H86.5044V26.3967H85.0966V27.423H86.3682V27.7863H85.0966V28.8489H86.5498V29.2122H84.7106Z" fill="#191919"/>
<path d="M89.4571 29.2122V27.7727H87.7087V29.2122H87.3227V26.0334H87.7087V27.4094H89.4571V26.0334H89.8431V29.2122H89.4571Z" fill="#191919"/>
<path d="M91.1358 29.2122H90.7952V26.0334H91.1812V28.5765L93.1112 26.0334H93.4518V29.2122H93.0658V26.6691L91.1358 29.2122Z" fill="#191919"/>
<path d="M94.4051 29.2122V26.0334H96.1989V26.3967H94.7911V27.423H96.0626V27.7863H94.7911V28.8489H96.2443V29.2122H94.4051Z" fill="#191919"/>
<path d="M100.172 29.2122V27.7727H98.4232V29.2122H98.0372V26.0334H98.4232V27.4094H100.172V26.0334H100.558V29.2122H100.172Z" fill="#191919"/>
<path d="M101.51 29.2122V26.0334H103.303V26.3967H101.896V27.423H103.167V27.7863H101.896V28.8489H103.349V29.2122H101.51Z" fill="#191919"/>
<path d="M103.713 29.8026V28.8489H104.054C104.151 28.7278 104.253 28.4811 104.362 28.1087C104.474 27.7333 104.546 27.2534 104.576 26.6691L104.608 26.0334H106.479V28.8489H106.91V29.8026H106.547V29.2122H104.076V29.8026H103.713ZM104.939 26.9643C104.906 27.4487 104.841 27.8604 104.744 28.1995C104.647 28.5356 104.559 28.752 104.481 28.8489H106.093V26.3967H104.98L104.939 26.9643Z" fill="#191919"/>
<path d="M107.523 29.2077V26.0379C107.996 26.0258 108.286 26.0197 108.395 26.0197C108.752 26.0197 109.011 26.0909 109.172 26.2332C109.335 26.3755 109.417 26.5662 109.417 26.8054C109.417 26.9961 109.367 27.1535 109.267 27.2777C109.167 27.3988 109.035 27.4866 108.872 27.541V27.5501C109.075 27.5834 109.235 27.6652 109.353 27.7954C109.471 27.9225 109.53 28.0921 109.53 28.304C109.53 28.6128 109.425 28.8444 109.213 28.9988C109.004 29.1502 108.725 29.2258 108.377 29.2258C108.056 29.2258 107.771 29.2198 107.523 29.2077ZM108.422 27.7636H107.909V28.8444C108.049 28.8565 108.212 28.8625 108.4 28.8625C108.639 28.8625 108.822 28.8141 108.949 28.7172C109.079 28.6173 109.144 28.472 109.144 28.2813C109.144 28.1148 109.081 27.9876 108.954 27.8998C108.83 27.809 108.652 27.7636 108.422 27.7636ZM108.386 26.383C108.295 26.383 108.136 26.3876 107.909 26.3967V27.423H108.418C108.593 27.423 108.739 27.3761 108.854 27.2822C108.972 27.1883 109.031 27.0582 109.031 26.8917C109.031 26.5526 108.816 26.383 108.386 26.383Z" fill="#191919"/>
<path d="M110.667 29.2122H110.326V26.0334H110.712V28.5765L112.642 26.0334H112.983V29.2122H112.597V26.6691L110.667 29.2122Z" fill="#191919"/>
<path d="M117.56 26.0334L116.275 27.5501L117.61 29.2122H117.16L115.852 27.5547L117.11 26.0334H117.56ZM115.385 29.2122V26.0334H115.771V29.2122H115.385ZM114.885 27.5547L113.6 26.0334H114.049L115.307 27.5547L114 29.2122H113.55L114.885 27.5547Z" fill="#191919"/>
<path d="M118.516 29.2122H118.176V26.0334H118.562V28.5765L120.492 26.0334H120.832V29.2122H120.446V26.6691L118.516 29.2122Z" fill="#191919"/>
<path d="M121.786 29.2122V26.0334H122.176L123.37 27.6637L124.515 26.0334H124.883V29.2122H124.497V26.6419L123.37 28.2222H123.311L122.172 26.6555V29.2122H121.786Z" fill="#191919"/>
<path d="M125.585 27.6228C125.585 27.1596 125.738 26.7721 126.043 26.4602C126.349 26.1454 126.737 25.9879 127.206 25.9879C127.672 25.9879 128.058 26.1408 128.364 26.4466C128.673 26.7524 128.827 27.1444 128.827 27.6228C128.827 28.0921 128.673 28.4826 128.364 28.7944C128.055 29.1032 127.669 29.2576 127.206 29.2576C126.74 29.2576 126.352 29.1047 126.043 28.799C125.738 28.4932 125.585 28.1011 125.585 27.6228ZM125.993 27.6228C125.993 27.9831 126.11 28.2858 126.343 28.531C126.576 28.7732 126.864 28.8943 127.206 28.8943C127.563 28.8943 127.854 28.7732 128.078 28.531C128.305 28.2888 128.418 27.9861 128.418 27.6228C128.418 27.2565 128.302 26.9537 128.069 26.7145C127.836 26.4723 127.548 26.3512 127.206 26.3512C126.858 26.3512 126.569 26.4708 126.339 26.71C126.109 26.9492 125.993 27.2534 125.993 27.6228Z" fill="#191919"/>
<path d="M131.745 28.6128L131.899 28.9034C131.793 29.0124 131.649 29.0987 131.468 29.1623C131.286 29.2258 131.095 29.2576 130.896 29.2576C130.417 29.2576 130.028 29.1093 129.728 28.8126C129.432 28.5129 129.283 28.1163 129.283 27.6228C129.283 27.1535 129.426 26.7645 129.71 26.4557C129.998 26.1439 130.384 25.9879 130.868 25.9879C131.274 25.9879 131.596 26.0909 131.836 26.2967L131.658 26.5874C131.447 26.43 131.185 26.3512 130.873 26.3512C130.528 26.3512 130.245 26.4693 130.024 26.7055C129.803 26.9416 129.692 27.2474 129.692 27.6228C129.692 28.0012 129.806 28.3085 130.033 28.5447C130.263 28.7778 130.563 28.8943 130.932 28.8943C131.244 28.8943 131.515 28.8005 131.745 28.6128Z" fill="#191919"/>
<path d="M132.082 26.3967V26.0334H134.693V26.3967H133.581V29.2122H133.195V26.3967H132.082Z" fill="#191919"/>
<path d="M136.018 27.5547C135.9 27.5547 135.761 27.5638 135.6 27.5819V28.8444C135.845 28.8535 135.98 28.858 136.004 28.858C136.271 28.858 136.475 28.802 136.617 28.69C136.763 28.5749 136.835 28.4054 136.835 28.1814C136.835 27.9785 136.764 27.8241 136.622 27.7182C136.48 27.6092 136.278 27.5547 136.018 27.5547ZM135.6 26.0334V27.2141C135.791 27.1989 135.939 27.1914 136.045 27.1914C136.445 27.1914 136.745 27.2777 136.944 27.4502C137.144 27.6228 137.244 27.8635 137.244 28.1723C137.244 28.5053 137.131 28.7642 136.903 28.9488C136.679 29.1305 136.365 29.2213 135.959 29.2213C135.862 29.2213 135.727 29.2198 135.555 29.2168C135.382 29.2137 135.269 29.2122 135.214 29.2122V26.0334H135.6Z" fill="#191919"/>
<path d="M137.946 29.2122V26.0334H138.332V27.4094H139.018C139.063 26.9946 139.227 26.654 139.508 26.3876C139.793 26.1212 140.144 25.9879 140.562 25.9879C141.025 25.9879 141.403 26.1408 141.697 26.4466C141.991 26.7494 142.138 27.1414 142.138 27.6228C142.138 28.0951 141.989 28.4856 141.693 28.7944C141.399 29.1032 141.022 29.2576 140.562 29.2576C140.144 29.2576 139.788 29.1199 139.495 28.8444C139.204 28.5689 139.043 28.2116 139.013 27.7727H138.332V29.2122H137.946ZM139.417 27.6228C139.417 27.9831 139.526 28.2858 139.744 28.531C139.965 28.7732 140.241 28.8943 140.571 28.8943C140.928 28.8943 141.21 28.7748 141.415 28.5356C141.624 28.2964 141.729 27.9921 141.729 27.6228C141.729 27.2504 141.621 26.9461 141.406 26.71C141.191 26.4708 140.913 26.3512 140.571 26.3512C140.238 26.3512 139.962 26.4708 139.744 26.71C139.526 26.9492 139.417 27.2534 139.417 27.6228Z" fill="#191919"/>
<path d="M101.182 21.268H99.8815C99.8396 21.268 99.8057 21.3019 99.8057 21.3438V22.6443C99.8057 22.6862 99.8396 22.7201 99.8815 22.7201H101.182C101.224 22.7201 101.258 22.6862 101.258 22.6443V21.3438C101.258 21.3019 101.224 21.268 101.182 21.268Z" fill="#191919"/>
<path d="M66.2031 23.2851L67.5691 20.2026H67.9004L69.2665 23.2851H68.8535L68.445 22.3568H66.9973L66.5934 23.2851H66.2031ZM67.7234 20.6974L67.1516 22.0066H68.2953L67.7234 20.6974Z" fill="#191919"/>
<path d="M70.1972 23.2851H69.8114V20.2201C69.8689 20.2201 70.0035 20.2187 70.2153 20.2157C70.4301 20.2128 70.5723 20.2114 70.6419 20.2114C71.0594 20.2114 71.3589 20.3018 71.5405 20.4828C71.725 20.6609 71.8173 20.8871 71.8173 21.1615C71.8173 21.43 71.7175 21.6577 71.5178 21.8445C71.3211 22.0314 71.0398 22.1248 70.6737 22.1248C70.4982 22.1248 70.3393 22.1189 70.1972 22.1073V23.2851ZM70.6782 20.5616C70.5572 20.5616 70.3968 20.5646 70.1972 20.5704V21.7526C70.3696 21.7672 70.5239 21.7745 70.6601 21.7745C70.893 21.7745 71.0761 21.7205 71.2092 21.6125C71.3423 21.5016 71.4089 21.3498 71.4089 21.1571C71.4089 20.9703 71.3484 20.8244 71.2273 20.7193C71.1063 20.6142 70.9233 20.5616 70.6782 20.5616Z" fill="#191919"/>
<path d="M74.7606 20.2201L73.6351 21.7263L74.8014 23.2851H74.3431L73.381 22.0109L72.4234 23.2851H71.9696L73.1359 21.7263L72.0195 20.2201H72.4733L73.3946 21.4461L74.3022 20.2201H74.7606Z" fill="#191919"/>
<path d="M75.7094 23.2851H75.369V20.2201H75.7548V22.6721L77.6835 20.2201H78.0239V23.2851H77.6381V20.8331L75.7094 23.2851Z" fill="#191919"/>
<path d="M78.5454 20.5704V20.2201H81.1549V20.5704H80.0431V23.2851H79.6573V20.5704H78.5454Z" fill="#191919"/>
<path d="M81.6756 23.2851V20.2201H83.4682V20.5704H82.0613V21.5599H83.3321V21.9102H82.0613V22.9348H83.5136V23.2851H81.6756Z" fill="#191919"/>
<path d="M86.6096 20.2201L85.1936 21.6607L86.6822 23.2851H86.1875L84.7489 21.6869L86.1421 20.2201H86.6096ZM84.286 23.2851V20.2201H84.6717V23.2851H84.286Z" fill="#191919"/>
<path d="M86.7666 20.5704V20.2201H89.3761V20.5704H88.2642V23.2851H87.8785V20.5704H86.7666Z" fill="#191919"/>
<path d="M92.3747 20.2201L91.2764 22.5845C91.1644 22.8268 91.0465 23.0049 90.9224 23.1187C90.8014 23.2296 90.6562 23.2851 90.4867 23.2851C90.3264 23.2851 90.1978 23.2486 90.101 23.1756L90.2371 22.8604C90.3158 22.9129 90.3975 22.9392 90.4822 22.9392C90.6395 22.9392 90.7696 22.8356 90.8725 22.6283L90.9269 22.5145L89.4883 20.2201H89.924L91.113 22.1423L91.9844 20.2201H92.3747Z" fill="#191919"/>
<path d="M93.3051 23.2851H92.9193V20.2201C92.9768 20.2201 93.1114 20.2187 93.3232 20.2157C93.538 20.2128 93.6802 20.2114 93.7498 20.2114C94.1673 20.2114 94.4669 20.3018 94.6484 20.4828C94.8329 20.6609 94.9252 20.8871 94.9252 21.1615C94.9252 21.43 94.8254 21.6577 94.6257 21.8445C94.429 22.0314 94.1477 22.1248 93.7816 22.1248C93.6061 22.1248 93.4473 22.1189 93.3051 22.1073V23.2851ZM93.7861 20.5616C93.6651 20.5616 93.5047 20.5646 93.3051 20.5704V21.7526C93.4775 21.7672 93.6318 21.7745 93.768 21.7745C94.0009 21.7745 94.184 21.7205 94.3171 21.6125C94.4502 21.5016 94.5168 21.3498 94.5168 21.1571C94.5168 20.9703 94.4563 20.8244 94.3352 20.7193C94.2142 20.6142 94.0312 20.5616 93.7861 20.5616Z" fill="#191919"/>
<path d="M94.9263 23.2851L96.2923 20.2026H96.6236L97.9896 23.2851H97.5766L97.1682 22.3568H95.7204L95.3165 23.2851H94.9263ZM96.4466 20.6974L95.8747 22.0066H97.0184L96.4466 20.6974Z" fill="#191919"/>
<path d="M106.027 20.5704V20.2201H108.637V20.5704H107.525V23.2851H107.139V20.5704H106.027Z" fill="#191919"/>
<path d="M109.543 23.2851H109.158V20.2201C109.215 20.2201 109.35 20.2187 109.561 20.2157C109.776 20.2128 109.918 20.2114 109.988 20.2114C110.406 20.2114 110.705 20.3018 110.887 20.4828C111.071 20.6609 111.163 20.8871 111.163 21.1615C111.163 21.43 111.064 21.6577 110.864 21.8445C110.667 22.0314 110.386 22.1248 110.02 22.1248C109.844 22.1248 109.686 22.1189 109.543 22.1073V23.2851ZM110.024 20.5616C109.903 20.5616 109.743 20.5646 109.543 20.5704V21.7526C109.716 21.7672 109.87 21.7745 110.006 21.7745C110.239 21.7745 110.422 21.7205 110.555 21.6125C110.688 21.5016 110.755 21.3498 110.755 21.1571C110.755 20.9703 110.695 20.8244 110.574 20.7193C110.452 20.6142 110.269 20.5616 110.024 20.5616Z" fill="#191919"/>
<path d="M111.576 21.7526C111.576 21.306 111.729 20.9324 112.034 20.6317C112.34 20.3281 112.727 20.1763 113.196 20.1763C113.662 20.1763 114.048 20.3237 114.353 20.6186C114.662 20.9134 114.816 21.2914 114.816 21.7526C114.816 22.205 114.662 22.5816 114.353 22.8823C114.045 23.18 113.659 23.3289 113.196 23.3289C112.73 23.3289 112.343 23.1815 112.034 22.8866C111.729 22.5918 111.576 22.2138 111.576 21.7526ZM111.984 21.7526C111.984 22.1 112.101 22.3919 112.334 22.6283C112.567 22.8618 112.854 22.9786 113.196 22.9786C113.553 22.9786 113.844 22.8618 114.067 22.6283C114.294 22.3948 114.408 22.1029 114.408 21.7526C114.408 21.3994 114.291 21.1075 114.058 20.8769C113.825 20.6434 113.538 20.5266 113.196 20.5266C112.848 20.5266 112.559 20.6419 112.329 20.8725C112.099 21.1031 111.984 21.3965 111.984 21.7526Z" fill="#191919"/>
<path d="M115.862 23.2851H115.522V20.2201H115.908V22.6721L117.836 20.2201H118.177V23.2851H117.791V20.8331L115.862 23.2851Z" fill="#191919"/>
<path d="M118.698 20.5704V20.2201H121.308V20.5704H120.196V23.2851H119.81V20.5704H118.698Z" fill="#191919"/>
<path d="M121.828 23.2851V20.2201H123.621V20.5704H122.214V21.5599H123.485V21.9102H122.214V22.9348H123.666V23.2851H121.828Z" fill="#191919"/>
<path d="M126.395 23.2851V20.5704H125.242L125.188 21.1484C125.151 21.5278 125.104 21.8533 125.047 22.1248C124.989 22.3933 124.927 22.605 124.861 22.7597C124.794 22.9144 124.716 23.034 124.625 23.1187C124.537 23.2034 124.451 23.2559 124.366 23.2763C124.281 23.2968 124.185 23.2997 124.076 23.2851L124.08 22.9129C124.138 22.9187 124.189 22.9144 124.235 22.8998C124.28 22.8852 124.334 22.8399 124.398 22.764C124.464 22.6852 124.522 22.5758 124.57 22.4357C124.622 22.2955 124.672 22.0883 124.72 21.8139C124.769 21.5395 124.806 21.2126 124.834 20.8331L124.879 20.2201H126.78V23.2851H126.395Z" fill="#191919"/>
<path d="M128.535 21.6869C128.417 21.6869 128.278 21.6957 128.117 21.7132V22.9304C128.362 22.9392 128.497 22.9436 128.521 22.9436C128.788 22.9436 128.992 22.8896 129.134 22.7816C129.279 22.6706 129.352 22.5072 129.352 22.2912C129.352 22.0956 129.281 21.9467 129.139 21.8445C128.996 21.7395 128.795 21.6869 128.535 21.6869ZM128.117 20.2201V21.3585C128.308 21.3439 128.456 21.3366 128.562 21.3366C128.962 21.3366 129.261 21.4198 129.461 21.5862C129.66 21.7526 129.76 21.9847 129.76 22.2824C129.76 22.6035 129.647 22.8531 129.42 23.0311C129.196 23.2063 128.881 23.2938 128.476 23.2938C128.379 23.2938 128.244 23.2924 128.072 23.2895C127.9 23.2865 127.786 23.2851 127.732 23.2851V20.2201H128.117Z" fill="#191919"/>
<path d="M132.605 22.7071L132.76 22.9873C132.654 23.0924 132.51 23.1756 132.329 23.2369C132.147 23.2982 131.956 23.3289 131.757 23.3289C131.279 23.3289 130.89 23.1858 130.59 22.8998C130.294 22.6108 130.146 22.2284 130.146 21.7526C130.146 21.3002 130.288 20.9251 130.572 20.6273C130.86 20.3267 131.245 20.1763 131.729 20.1763C132.135 20.1763 132.457 20.2756 132.696 20.4741L132.519 20.7543C132.307 20.6025 132.046 20.5266 131.734 20.5266C131.389 20.5266 131.106 20.6405 130.885 20.8681C130.664 21.0958 130.554 21.3906 130.554 21.7526C130.554 22.1175 130.668 22.4138 130.894 22.6414C131.124 22.8662 131.424 22.9786 131.793 22.9786C132.105 22.9786 132.375 22.8881 132.605 22.7071Z" fill="#191919"/>
<path d="M132.942 20.5704V20.2201H135.552V20.5704H134.44V23.2851H134.054V20.5704H132.942Z" fill="#191919"/>
<path d="M136.072 23.2807V20.2245C136.544 20.2128 136.835 20.207 136.944 20.207C137.301 20.207 137.56 20.2756 137.72 20.4128C137.883 20.55 137.965 20.7339 137.965 20.9645C137.965 21.1484 137.915 21.3002 137.815 21.4198C137.715 21.5366 137.584 21.6212 137.42 21.6738V21.6825C137.623 21.7147 137.783 21.7935 137.901 21.919C138.019 22.0416 138.078 22.205 138.078 22.4094C138.078 22.7071 137.973 22.9304 137.761 23.0793C137.552 23.2252 137.274 23.2982 136.926 23.2982C136.605 23.2982 136.321 23.2924 136.072 23.2807ZM136.971 21.8883H136.458V22.9304C136.597 22.9421 136.761 22.9479 136.948 22.9479C137.187 22.9479 137.37 22.9012 137.498 22.8078C137.628 22.7115 137.693 22.5714 137.693 22.3875C137.693 22.2269 137.629 22.1043 137.502 22.0197C137.378 21.9321 137.201 21.8883 136.971 21.8883ZM136.935 20.5573C136.844 20.5573 136.685 20.5616 136.458 20.5704V21.5599H136.967C137.142 21.5599 137.287 21.5147 137.402 21.4242C137.52 21.3337 137.579 21.2082 137.579 21.0477C137.579 20.7207 137.364 20.5573 136.935 20.5573Z" fill="#191919"/>
<path d="M138.624 21.7526C138.624 21.306 138.777 20.9324 139.082 20.6317C139.388 20.3281 139.775 20.1763 140.244 20.1763C140.71 20.1763 141.096 20.3237 141.401 20.6186C141.71 20.9134 141.864 21.2914 141.864 21.7526C141.864 22.205 141.71 22.5816 141.401 22.8823C141.093 23.18 140.707 23.3289 140.244 23.3289C139.778 23.3289 139.391 23.1815 139.082 22.8866C138.777 22.5918 138.624 22.2138 138.624 21.7526ZM139.032 21.7526C139.032 22.1 139.149 22.3919 139.382 22.6283C139.615 22.8618 139.902 22.9786 140.244 22.9786C140.601 22.9786 140.891 22.8618 141.115 22.6283C141.342 22.3948 141.456 22.1029 141.456 21.7526C141.456 21.3994 141.339 21.1075 141.106 20.8769C140.873 20.6434 140.586 20.5266 140.244 20.5266C139.896 20.5266 139.607 20.6419 139.377 20.8725C139.147 21.1031 139.032 21.3965 139.032 21.7526Z" fill="#191919"/>
<path d="M105.79 22.7071L105.945 22.9873C105.839 23.0924 105.695 23.1756 105.514 23.2369C105.332 23.2982 105.141 23.3289 104.942 23.3289C104.464 23.3289 104.075 23.1858 103.775 22.8998C103.479 22.6108 103.331 22.2284 103.331 21.7526C103.331 21.3002 103.473 20.9251 103.757 20.6273C104.045 20.3267 104.43 20.1763 104.915 20.1763C105.32 20.1763 105.642 20.2756 105.881 20.4741L105.704 20.7543C105.492 20.6025 105.231 20.5266 104.919 20.5266C104.574 20.5266 104.291 20.6405 104.07 20.8681C103.85 21.0958 103.739 21.3906 103.739 21.7526C103.739 22.1175 103.853 22.4138 104.08 22.6414C104.309 22.8662 104.609 22.9786 104.978 22.9786C105.29 22.9786 105.561 22.8881 105.79 22.7071Z" fill="#191919"/>
</svg>
