<svg width="152" height="80" fill="none" xmlns="http://www.w3.org/2000/svg"><path d="M.501 24.444l10.056 2.28a.39.39 0 00.182 0l14.91-3.907a.37.37 0 01.136-.01l21.944 2.316a.423.423 0 00.123-.008l18.16-4.007a.378.378 0 00.3-.37v-2.093a.379.379 0 00-.416-.378L47.79 20.092a.236.236 0 01-.057 0l-21.682-1.117a.406.406 0 00-.135.018l-15.192 4.862a.4.4 0 01-.178.013L.65 22.196a.38.38 0 00-.45.375v1.501a.381.381 0 00.3.372z" fill="#EE3A23"/><path d="M.58 19.925l9.965 1.1c.06.007.12-.001.177-.022l15.195-5.742a.395.395 0 01.132-.024l21.712-.167 18.168.243a.38.38 0 00.384-.38v-2.171a.38.38 0 00-.332-.377l-18.183-2.337a.41.41 0 00-.073 0l-21.677 1.415a.379.379 0 00-.128.032l-15.2 6.652a.381.381 0 01-.175.031l-9.895-.55a.382.382 0 00-.41.387v1.538a.381.381 0 00.34.372z" fill="#EE3A23"/><path d="M.623 15.402l9.933-.071a.372.372 0 00.166-.039l15.201-7.54a.38.38 0 01.122-.036l21.675-2.69a.378.378 0 01.137 0l17.986 4.386a.38.38 0 00.47-.37v-2.17a.38.38 0 00-.25-.357L48.022.027a.383.383 0 00-.196-.023L26.042 3.975a.357.357 0 00-.116.042l-15.22 8.413a.37.37 0 01-.15.046l-9.96.652a.38.38 0 00-.356.384v1.516a.381.381 0 00.383.374zM25.984 26.92v3.002a.377.377 0 00.3.37l21.39 4.853c.08.018.163.01.238-.024l18.179-8.09a.382.382 0 00.225-.349v-2.127a.38.38 0 00-.499-.36l-17.963 5.922a.378.378 0 01-.184.014l-21.243-3.584a.381.381 0 00-.443.374z" fill="#EE3A23"/><path d="M.24 10.486V8.997a.38.38 0 01.312-.373l9.636-1.762a.381.381 0 01.45.373v2.056a.382.382 0 01-.333.377l-9.635 1.2a.382.382 0 01-.43-.382z" fill="#EE3A23"/><path d="M41.187 44.579h5.863a.3.3 0 01.3.3l-.018 15.73a.3.3 0 01-.3.301h-2.897a.3.3 0 01-.3-.3V47.866a.3.3 0 00-.58-.122L37.57 60.727a.3.3 0 01-.284.183H32.74a.3.3 0 01-.276-.18l-5.666-12.96a.3.3 0 00-.579.122V60.61a.3.3 0 01-.3.3h-2.892a.3.3 0 01-.3-.3V44.88a.3.3 0 01.3-.3h5.865a.3.3 0 01.28.187l5.613 13.485a.3.3 0 00.56 0l5.568-13.485a.3.3 0 01.274-.188zm28.213.301v15.73a.3.3 0 01-.3.3h-3.042a.3.3 0 01-.3-.3V47.866a.3.3 0 00-.3-.3H55.21a.3.3 0 00-.3.3V60.61a.3.3 0 01-.3.3h-3.04a.3.3 0 01-.3-.3V44.88a.3.3 0 01.3-.3H69.1a.3.3 0 01.3.3zm3.916 15.73V44.88a.3.3 0 01.3-.3h15.19a.3.3 0 01.3.3v2.241a.3.3 0 01-.3.3H77.248a.3.3 0 00-.3.3v3.226a.3.3 0 00.3.3h8.963a.3.3 0 01.3.3v2.102a.3.3 0 01-.3.3h-8.959a.3.3 0 00-.3.3v3.51a.3.3 0 00.3.3h11.992a.3.3 0 01.3.3v2.25a.3.3 0 01-.3.301H73.618a.3.3 0 01-.302-.3zm30.093-16.031c1.881 0 3.409.443 4.584 1.33 1.174.886 1.761 2.193 1.76 3.919 0 1.74-.571 3.027-1.714 3.86-1.142.832-2.686 1.248-4.63 1.247h-7a.3.3 0 00-.3.3v5.375a.3.3 0 01-.3.3H92.77a.3.3 0 01-.3-.3V44.88a.3.3 0 01.3-.3h10.638v-.001zm-.188 7.534c.901 0 1.609-.194 2.124-.583.515-.39.772-.957.77-1.702 0-.748-.257-1.312-.77-1.692-.513-.38-1.221-.57-2.124-.572h-6.812a.3.3 0 00-.3.3v3.946a.3.3 0 00.3.3l6.812.003zM152 44.88v15.73a.302.302 0 01-.3.3h-3.037a.3.3 0 01-.3-.3v-5.605a.298.298 0 00-.3-.3h-4.319a.3.3 0 00-.227.104l-5.277 6.003a.31.31 0 01-.228.102h-3.772a.3.3 0 01-.219-.511l5.103-5.294a.297.297 0 00.069-.308.3.3 0 00-.245-.2c-1.381-.182-2.489-.625-3.326-1.326-.956-.8-1.434-1.97-1.434-3.51 0-1.696.587-2.982 1.762-3.86 1.174-.88 2.702-1.319 4.583-1.319h11.174a.304.304 0 01.206.089.304.304 0 01.087.206zm-11.291 7.07h7.354a.298.298 0 00.3-.3v-3.853a.298.298 0 00-.3-.3h-7.354c-.872 0-1.572.2-2.101.6a1.96 1.96 0 00-.793 1.667c0 .7.26 1.242.781 1.621.52.38 1.226.565 2.113.565zM15.252 50.884v9.726a.3.3 0 00.3.3h2.94a.3.3 0 00.3-.3V46.1a.094.094 0 00-.064-.088.093.093 0 00-.103.033l-3.362 4.785a.1.1 0 00-.01.054zm100.825 3.677v-9.68a.298.298 0 00-.3-.3h-2.942a.3.3 0 00-.3.3V59.2a.163.163 0 00.116.157.164.164 0 00.184-.063l3.217-4.64a.174.174 0 00.025-.094zm13.045-9.982h-3.234a.3.3 0 00-.248.13l-11.073 15.964a.157.157 0 00-.026.076.162.162 0 00.017.078.15.15 0 00.132.08h3.276a.304.304 0 00.249-.13l11.03-15.964a.158.158 0 00.026-.076.162.162 0 00-.017-.078.151.151 0 00-.132-.08zm-1.337 6.314v9.717a.301.301 0 00.3.3h2.942a.298.298 0 00.3-.3V46.128a.133.133 0 00-.093-.123.133.133 0 00-.147.046l-3.279 4.766a.14.14 0 00-.023.076zM3.544 54.518V44.88a.3.3 0 00-.3-.3H.3a.3.3 0 00-.3.3v14.277a.15.15 0 00.26.083l3.254-4.635a.15.15 0 00.03-.088zm9.815-9.939a.3.3 0 00-.25.13L2.004 60.6a.195.195 0 00.161.3h3.278a.3.3 0 00.249-.13l11.272-16.19h-3.605zM.178 71.655l1.732-4.051h.42l1.732 4.051h-.524l-.518-1.22H1.185l-.512 1.22H.178zm1.927-3.4l-.725 1.72h1.45l-.725-1.72zm3.137 3.4h-.49v-4.028l.513-.006.54-.006c.53 0 .91.12 1.14.357.234.234.351.532.351.892 0 .353-.126.652-.38.898-.249.245-.606.368-1.07.368-.222 0-.424-.008-.604-.023v1.548zm.61-3.58a24.2 24.2 0 00-.61.012v1.554c.219.02.414.029.587.029.295 0 .527-.071.696-.213.169-.146.253-.345.253-.599 0-.245-.076-.437-.23-.575-.153-.138-.385-.207-.696-.207zm5.176-.448l-1.427 1.98 1.479 2.048h-.581l-1.22-1.674-1.214 1.674h-.576l1.48-2.049-1.416-1.98h.575l1.168 1.612 1.151-1.611h.581zm1.203 4.028H11.8v-4.028h.489v3.222l2.445-3.222h.432v4.028h-.49v-3.222l-2.445 3.222zm3.596-3.568v-.46h3.309v.46h-1.41v3.568h-.489v-3.568h-1.41zm3.969 3.568v-4.028h2.273v.46h-1.784v1.3h1.611v.461h-1.61v1.347h1.84v.46h-2.33zm6.256-4.028l-1.795 1.893 1.887 2.135h-.627l-1.824-2.1 1.767-1.928h.592zm-2.946 4.028v-4.028h.49v4.028h-.49zm3.145-3.568v-.46h3.31v.46h-1.41v3.568h-.49v-3.568h-1.41zm7.111-.46l-1.392 3.107c-.142.319-.292.553-.45.702a.774.774 0 01-.552.219c-.203 0-.366-.048-.489-.144l.173-.414c.1.069.203.103.31.103.2 0 .365-.136.495-.408l.07-.15-1.825-3.015h.553l1.507 2.526 1.105-2.526h.495zm1.18 4.028h-.49v-4.028l.513-.006.54-.006c.53 0 .91.12 1.14.357.234.234.351.532.351.892 0 .353-.126.652-.38.898-.249.245-.606.368-1.07.368-.222 0-.424-.008-.604-.023v1.548zm.61-3.58a24.2 24.2 0 00-.61.012v1.554c.218.02.414.029.587.029.295 0 .527-.071.696-.213.169-.146.253-.345.253-.599 0-.245-.076-.437-.23-.575-.153-.138-.385-.207-.696-.207zm1.445 3.58l1.733-4.051h.42l1.732 4.051h-.524l-.518-1.22h-1.835l-.513 1.22h-.495zm1.928-3.4l-.725 1.72h1.45l-.725-1.72zm12.148-.168v-.46h3.309v.46h-1.41v3.568h-.489v-3.568h-1.41zm4.458 3.568h-.489v-4.028l.512-.006.541-.006c.53 0 .91.12 1.14.357.234.234.35.532.35.892 0 .353-.126.652-.38.898-.248.245-.605.368-1.07.368-.222 0-.423-.008-.604-.023v1.548zm.61-3.58c-.153 0-.356.005-.61.012v1.554a6.5 6.5 0 00.587.029c.296 0 .528-.071.696-.213.17-.146.254-.345.254-.599 0-.245-.077-.437-.23-.575-.154-.138-.386-.207-.697-.207zm1.968 1.566c0-.587.193-1.078.58-1.473.388-.4.88-.599 1.474-.599.59 0 1.08.194 1.467.582.392.387.587.884.587 1.49 0 .595-.195 1.09-.587 1.485-.391.39-.88.587-1.467.587-.59 0-1.082-.194-1.473-.582-.388-.387-.581-.884-.581-1.49zm.517 0c0 .456.148.84.444 1.15.295.308.66.461 1.093.461.453 0 .82-.153 1.105-.46.288-.307.431-.69.431-1.151 0-.464-.147-.848-.443-1.15a1.457 1.457 0 00-1.093-.461c-.441 0-.808.151-1.1.454-.29.303-.436.689-.436 1.157zm4.917 2.014h-.431v-4.028h.489v3.222l2.446-3.222h.431v4.028h-.49v-3.222l-2.445 3.222zm3.597-3.568v-.46h3.308v.46h-1.41v3.568h-.489v-3.568h-1.41zm3.968 3.568v-4.028h2.273v.46h-1.784v1.3h1.612v.461h-1.612v1.347h1.842v.46h-2.33zm5.79 0v-3.568h-1.461l-.07.76c-.046.499-.105.926-.178 1.283a4.782 4.782 0 01-.236.835 1.38 1.38 0 01-.299.471.73.73 0 01-.328.207.97.97 0 01-.368.012l.005-.49a.463.463 0 00.196-.016c.058-.02.127-.08.207-.179a1.34 1.34 0 00.219-.431c.065-.184.129-.457.19-.817.061-.361.11-.79.144-1.29l.057-.805h2.411v4.028h-.489zm2.714-2.1c-.15 0-.326.011-.53.034v1.6c.311.011.482.017.513.017.337 0 .596-.07.777-.213.184-.146.276-.36.276-.644 0-.257-.09-.453-.27-.587-.181-.138-.436-.207-.766-.207zm-.53-1.928v1.496c.242-.02.43-.029.564-.029.507 0 .887.11 1.14.328.253.219.38.524.38.915 0 .422-.144.75-.432.984-.284.23-.683.346-1.197.346-.123 0-.293-.002-.512-.006a31.737 31.737 0 00-.432-.006v-4.028h.49zm5.691 3.268l.196.369a1.387 1.387 0 01-.547.328c-.23.08-.472.12-.725.12-.606 0-1.1-.188-1.479-.563-.376-.38-.564-.883-.564-1.508 0-.595.18-1.088.541-1.479.364-.395.854-.593 1.467-.593.514 0 .923.13 1.226.392l-.224.368c-.269-.2-.6-.3-.996-.3-.437 0-.796.15-1.076.45-.28.299-.42.686-.42 1.162 0 .48.144.869.432 1.168.291.296.671.443 1.139.443a1.58 1.58 0 001.03-.357zm.427-2.808v-.46h3.309v.46h-1.41v3.568h-.489v-3.568H84.8zm3.97 3.563v-4.017c.598-.016.966-.023 1.104-.023.453 0 .78.09.984.27.207.18.31.422.31.725a.924.924 0 01-.19.599 1.071 1.071 0 01-.5.333v.012c.257.042.46.146.61.31.15.162.225.377.225.645 0 .391-.135.685-.403.88-.265.192-.618.288-1.059.288-.407 0-.767-.007-1.082-.023zm1.139-1.83h-.65v1.369c.176.015.383.023.62.023.304 0 .536-.062.697-.184.165-.127.248-.311.248-.553a.55.55 0 00-.242-.483c-.157-.115-.382-.173-.673-.173zm-.047-1.75c-.115 0-.316.006-.604.017v1.3h.645a.845.845 0 00.552-.178.597.597 0 00.225-.495c0-.43-.273-.644-.818-.644zm2.142 1.571c0-.587.194-1.078.581-1.473.388-.4.879-.599 1.474-.599.59 0 1.08.194 1.467.582.391.387.587.884.587 1.49 0 .595-.196 1.09-.587 1.485-.391.39-.88.587-1.468.587-.59 0-1.081-.194-1.473-.582-.387-.387-.58-.884-.58-1.49zm.518 0c0 .456.148.84.443 1.15.296.308.66.461 1.093.461.453 0 .821-.153 1.105-.46.288-.307.432-.69.432-1.151 0-.464-.148-.848-.443-1.15a1.457 1.457 0 00-1.094-.461c-.44 0-.807.151-1.099.454-.291.303-.437.689-.437 1.157zm-42.149 1.254l.196.369a1.387 1.387 0 01-.547.328c-.23.08-.472.12-.725.12-.606 0-1.1-.188-1.48-.563-.375-.38-.563-.883-.563-1.508 0-.595.18-1.088.54-1.479.365-.395.854-.593 1.468-.593.514 0 .923.13 1.226.392l-.224.368c-.269-.2-.6-.3-.996-.3-.437 0-.796.15-1.076.45-.28.299-.42.686-.42 1.162 0 .48.144.869.431 1.168.292.296.672.443 1.14.443a1.58 1.58 0 001.03-.357zM3.742 74.532L2.349 77.64c-.142.318-.291.552-.449.702a.774.774 0 01-.552.218c-.203 0-.366-.047-.49-.143l.174-.415c.1.07.203.104.31.104.2 0 .365-.136.495-.409l.07-.15-1.825-3.015h.552l1.508 2.526 1.105-2.526h.495zm3.366 4.028v-3.567H4.922v3.567h-.49v-4.028h3.165v4.028h-.489zm2.185 0h-.489v-4.028c.073 0 .244-.001.512-.005l.541-.006c.53 0 .91.119 1.14.357.234.234.35.531.35.892a1.2 1.2 0 01-.379.897c-.25.246-.606.368-1.07.368a7.38 7.38 0 01-.605-.022v1.547zm.61-3.579c-.153 0-.356.004-.61.012v1.553c.22.02.415.03.587.03.296 0 .528-.072.697-.214.168-.145.253-.345.253-.598 0-.246-.077-.438-.23-.576-.154-.138-.386-.207-.697-.207zm1.447 3.579l1.731-4.05h.42l1.732 4.05h-.523l-.518-1.22h-1.836l-.512 1.22h-.495zm1.927-3.4l-.725 1.72h1.45l-.725-1.72zm2.647 3.395v-4.017c.599-.015.967-.023 1.105-.023.453 0 .78.09.984.27.207.18.31.423.31.726a.924.924 0 01-.19.598 1.071 1.071 0 01-.5.334v.011c.257.043.46.146.61.311.15.161.225.376.225.644 0 .392-.135.685-.403.881-.265.192-.618.288-1.059.288-.407 0-.767-.008-1.082-.023zm1.14-1.83h-.65v1.37c.176.015.383.022.62.022.304 0 .536-.061.697-.184.165-.126.247-.31.247-.552a.551.551 0 00-.241-.484c-.157-.115-.382-.172-.673-.172zm-.047-1.75c-.115 0-.316.006-.604.018v1.3h.645a.85.85 0 00.552-.178.597.597 0 00.225-.495c0-.43-.273-.645-.818-.645zm4.939 3.585v-3.567h-1.462l-.069.76a12 12 0 01-.178 1.282 4.779 4.779 0 01-.236.835 1.38 1.38 0 01-.3.472.73.73 0 01-.327.207.968.968 0 01-.369.011l.006-.489a.461.461 0 00.196-.017c.057-.02.126-.079.207-.178a1.4 1.4 0 00.219-.432c.065-.184.128-.456.19-.817.06-.36.109-.79.143-1.289l.058-.806h2.41v4.028h-.488zm1.695 0v-4.028h2.273v.46H24.14v1.301h1.611v.46h-1.61V78.1h1.84v.46h-2.33zm6.014 0v-1.824H27.45v1.824h-.49v-4.028h.49v1.744h2.215v-1.744h.49v4.028h-.49zm2.127 0h-.431v-4.028h.489v3.223l2.446-3.223h.431v4.028h-.489v-3.222l-2.446 3.222zm4.143 0v-4.028h2.273v.46h-1.784v1.301h1.611v.46h-1.61V78.1h1.84v.46h-2.33zm7.307 0v-1.824h-2.215v1.824h-.49v-4.028h.49v1.744h2.215v-1.744h.49v4.028h-.49zm1.696 0v-4.028h2.272v.46h-1.783v1.301h1.61v.46h-1.61V78.1h1.841v.46h-2.33zm2.792.748V78.1h.431c.123-.153.253-.466.391-.938.142-.476.232-1.084.27-1.824l.041-.806h2.37V78.1h.548v1.209h-.46v-.749H48.19v.748h-.46zm1.553-3.596a7.74 7.74 0 01-.247 1.565c-.123.426-.234.7-.334.823h2.043v-3.107h-1.41l-.052.719zm3.274 2.843v-4.017c.599-.015.967-.023 1.105-.023.453 0 .781.09.984.27.207.18.311.423.311.726a.924.924 0 01-.19.598 1.07 1.07 0 01-.5.334v.011c.256.043.46.146.61.311.15.161.224.376.224.644 0 .392-.134.685-.403.881-.265.192-.618.288-1.059.288-.406 0-.767-.008-1.082-.023zm1.14-1.83h-.65v1.37c.176.015.383.022.621.022.303 0 .535-.061.696-.184.165-.126.248-.31.248-.552a.551.551 0 00-.242-.484c-.157-.115-.382-.172-.673-.172zm-.046-1.75c-.115 0-.317.006-.604.018v1.3h.644c.223 0 .407-.06.552-.178a.597.597 0 00.225-.495c0-.43-.273-.645-.817-.645zm2.889 3.585h-.431v-4.028h.49v3.223l2.445-3.223h.431v4.028h-.489v-3.222l-2.445 3.222zm8.735-4.028l-1.628 1.922 1.691 2.106h-.57l-1.657-2.1 1.595-1.928h.57zM62.52 78.56v-4.028h.489v4.028h-.49zm-.633-2.1l-1.629-1.928h.57l1.594 1.928-1.657 2.1h-.57l1.692-2.1zm4.6 2.1h-.432v-4.028h.49v3.223l2.445-3.223h.432v4.028h-.49v-3.222l-2.445 3.222zm4.143 0v-4.028h.495l1.513 2.066 1.45-2.066h.466v4.028h-.489v-3.257l-1.427 2.003h-.075l-1.444-1.985v3.24h-.49zm4.814-2.014c0-.587.194-1.078.58-1.473.388-.399.88-.598 1.474-.598.59 0 1.08.194 1.467.581.392.388.587.884.587 1.49 0 .595-.195 1.09-.587 1.485-.39.391-.88.587-1.467.587-.59 0-1.082-.194-1.473-.581-.388-.388-.581-.885-.581-1.49zm.518 0c0 .457.147.84.443 1.151.295.307.66.46 1.093.46.453 0 .821-.153 1.105-.46.288-.307.431-.69.431-1.15 0-.465-.147-.848-.443-1.151a1.457 1.457 0 00-1.093-.46 1.46 1.46 0 00-1.099.454c-.292.303-.437.688-.437 1.156zM83.25 77.8l.195.37a1.386 1.386 0 01-.547.327c-.23.08-.472.121-.725.121-.606 0-1.099-.188-1.479-.564-.376-.38-.564-.882-.564-1.508 0-.594.18-1.087.541-1.479.365-.395.854-.592 1.468-.592.514 0 .922.13 1.225.391l-.224.368c-.269-.2-.6-.299-.996-.299-.437 0-.796.15-1.076.449-.28.3-.42.687-.42 1.162 0 .48.144.87.432 1.168.291.296.671.444 1.14.444a1.58 1.58 0 001.03-.357zm.427-2.807v-.46h3.308v.46h-1.41v3.567h-.489v-3.567h-1.41zm4.987 1.467c-.15 0-.326.012-.53.035v1.6c.311.01.482.017.513.017.337 0 .596-.071.776-.213.185-.146.277-.36.277-.645 0-.257-.09-.453-.27-.587-.181-.138-.436-.207-.766-.207zm-.53-1.928v1.496c.242-.019.43-.028.564-.028.507 0 .887.11 1.14.328.253.218.38.523.38.915 0 .422-.144.75-.432.984-.284.23-.683.345-1.197.345-.123 0-.293-.002-.512-.006a30.666 30.666 0 00-.432-.006v-4.028h.49zm2.973 4.028v-4.028h.49v1.744h.868c.057-.526.265-.957.621-1.295.361-.337.806-.506 1.335-.506.587 0 1.067.194 1.44.581.371.384.557.88.557 1.49 0 .599-.188 1.094-.564 1.485-.372.391-.85.587-1.433.587-.529 0-.98-.175-1.352-.524-.368-.349-.571-.801-.61-1.358h-.863v1.824h-.489zm1.864-2.014c0 .457.138.84.415 1.151.28.307.629.46 1.047.46.453 0 .81-.15 1.07-.454.265-.303.397-.689.397-1.157 0-.472-.136-.857-.408-1.156-.273-.303-.626-.455-1.059-.455-.422 0-.771.152-1.047.455-.276.303-.415.688-.415 1.156zm-47.85-8.052h-1.648a.096.096 0 00-.096.096v1.648c0 .053.043.096.096.096h1.648a.096.096 0 00.096-.096V68.59a.096.096 0 00-.096-.096z" fill="#191919"/></svg>