<svg width="747" height="429" fill="none" xmlns="http://www.w3.org/2000/svg"><path d="M3.663 298.302l122.714 27.821a4.796 4.796 0 002.216 0l181.964-47.675a4.538 4.538 0 011.649-.128l267.79 28.26a5.12 5.12 0 001.502-.091l221.617-48.903a4.611 4.611 0 003.663-4.523v-25.532a4.626 4.626 0 00-1.522-3.438 4.625 4.625 0 00-3.57-1.178l-220.939 22.272a2.894 2.894 0 01-.696 0L315.466 231.56a5.006 5.006 0 00-1.649.22l-185.389 59.324a4.887 4.887 0 01-2.179.165L5.495 270.865a4.63 4.63 0 00-5.063 2.599 4.635 4.635 0 00-.432 1.98v18.315a4.65 4.65 0 003.663 4.543z" fill="#EE3A23"/><path d="M4.637 243.151l121.615 13.425a4.833 4.833 0 002.161-.274l185.426-70.075a4.811 4.811 0 011.611-.293l264.952-2.033 221.709 2.967a4.633 4.633 0 004.688-4.634v-26.502a4.637 4.637 0 00-4.047-4.598L580.86 122.617a4.988 4.988 0 00-.898 0l-264.53 17.272a4.637 4.637 0 00-1.557.384l-185.499 81.174a4.654 4.654 0 01-2.124.385L5.498 215.129a4.633 4.633 0 00-1.9.253 4.654 4.654 0 00-3.1 4.454v18.773a4.652 4.652 0 004.139 4.542z" fill="#EE3A23"/><path d="M5.168 187.949l121.212-.861a4.528 4.528 0 002.033-.476l185.499-92.017a4.63 4.63 0 011.483-.44l264.512-32.82a4.615 4.615 0 011.667 0l219.492 53.517a4.624 4.624 0 002.08.027 4.622 4.622 0 003.188-2.505 4.625 4.625 0 00.465-2.028V83.862a4.65 4.65 0 00-3.059-4.359L583.607.325a4.67 4.67 0 00-2.399-.274L315.359 48.513a4.358 4.358 0 00-1.411.513L128.211 151.684a4.483 4.483 0 01-1.831.568L4.838 160.201a4.633 4.633 0 00-4.34 4.689v18.499a4.65 4.65 0 004.67 4.56zM314.635 328.52v36.631a4.598 4.598 0 003.663 4.505l261.014 59.233a4.67 4.67 0 002.912-.293l221.837-98.739a4.671 4.671 0 002.747-4.249v-25.953a4.626 4.626 0 00-1.919-3.749 4.64 4.64 0 00-4.162-.647l-219.218 72.273a4.614 4.614 0 01-2.234.165l-259.237-43.738a4.636 4.636 0 00-5.403 4.561z" fill="#EE3A23"/><path d="M.497 127.967v-18.169a4.632 4.632 0 013.81-4.561l117.585-21.502a4.655 4.655 0 015.051 2.591 4.66 4.66 0 01.444 1.97v25.092a4.65 4.65 0 01-4.066 4.597L5.736 132.637a4.651 4.651 0 01-5.239-4.67z" fill="#EE3A23"/></svg>