<svg width="186" height="30" fill="none" xmlns="http://www.w3.org/2000/svg"><path d="M.237 19.291l7.936 1.8a.31.31 0 00.143 0l11.768-3.084A.292.292 0 0120.19 18l17.318 1.828a.4.4 0 00.098-.006l14.332-3.163a.299.299 0 00.236-.292v-1.652a.3.3 0 00-.329-.298l-14.288 1.44a.188.188 0 01-.045 0l-17.11-.88a.326.326 0 00-.107.013l-11.99 3.837a.314.314 0 01-.14.01l-7.81-1.319a.3.3 0 00-.355.296v1.185a.3.3 0 00.237.293z" fill="#EE3A23"/><path d="M.3 15.725l7.865.868a.312.312 0 00.14-.018l11.991-4.531a.311.311 0 01.104-.02l17.135-.13 14.338.19a.3.3 0 00.303-.299v-1.714a.3.3 0 00-.262-.297L37.564 7.93a.319.319 0 00-.058 0L20.4 9.047a.3.3 0 00-.1.025l-11.997 5.25a.303.303 0 01-.137.024l-7.81-.433a.299.299 0 00-.299.182.3.3 0 00-.024.122v1.214a.3.3 0 00.268.294z" fill="#EE3A23"/><path d="M.334 12.155l7.84-.056c.045 0 .09-.01.13-.03l11.997-5.952a.3.3 0 01.096-.028l17.106-2.123a.299.299 0 01.108 0l14.194 3.462a.3.3 0 00.37-.292V5.423a.3.3 0 00-.197-.282L37.742.021a.302.302 0 00-.155-.018L20.394 3.137a.281.281 0 00-.09.034L8.291 9.809a.291.291 0 01-.119.037l-7.86.514a.3.3 0 00-.28.304v1.196a.3.3 0 00.301.295zm20.014 9.09v2.37a.297.297 0 00.236.29l16.88 3.831c.064.014.13.008.189-.019l14.346-6.385a.302.302 0 00.178-.275v-1.678a.3.3 0 00-.394-.285l-14.177 4.674a.298.298 0 01-.144.01L20.697 20.95a.3.3 0 00-.35.295z" fill="#EE3A23"/><path d="M.032 8.275V7.1a.3.3 0 01.247-.294l7.604-1.391a.3.3 0 01.355.295v1.623a.3.3 0 01-.263.297l-7.604.948a.3.3 0 01-.339-.303z" fill="#EE3A23"/><path d="M98.547 2.395h4.627c.063 0 .123.025.167.07.045.044.07.104.07.167l-.014 12.414a.235.235 0 01-.07.168.235.235 0 01-.167.069h-2.286a.239.239 0 01-.168-.07.238.238 0 01-.069-.167V4.989a.24.24 0 00-.05-.155.235.235 0 00-.299-.063.232.232 0 00-.108.122l-4.488 10.245a.237.237 0 01-.224.145H91.88a.237.237 0 01-.218-.142l-4.47-10.227a.237.237 0 00-.457.096v10.036a.237.237 0 01-.237.237h-2.283a.237.237 0 01-.237-.237V2.633a.237.237 0 01.237-.237h4.63a.237.237 0 01.22.147l4.43 10.642a.238.238 0 00.354.11.238.238 0 00.087-.11l4.395-10.642a.237.237 0 01.216-.148zm22.268.238v12.413a.238.238 0 01-.237.237h-2.401a.234.234 0 01-.167-.07.235.235 0 01-.07-.167V4.99a.238.238 0 00-.069-.168.239.239 0 00-.168-.069h-8.086a.235.235 0 00-.167.07.235.235 0 00-.07.167v10.057a.238.238 0 01-.237.237h-2.398a.238.238 0 01-.237-.237V2.633a.24.24 0 01.069-.168.239.239 0 01.168-.069h13.833a.238.238 0 01.237.237zm3.089 12.413V2.633c0-.063.025-.123.07-.168a.235.235 0 01.167-.069h11.987c.063 0 .123.025.167.07.045.044.07.104.07.167V4.4a.235.235 0 01-.07.168.235.235 0 01-.167.07h-9.12a.239.239 0 00-.168.069.238.238 0 00-.069.167V7.42a.235.235 0 00.146.218.236.236 0 00.091.018h7.073a.238.238 0 01.237.237v1.659a.238.238 0 01-.069.167.239.239 0 01-.168.07h-7.07a.235.235 0 00-.167.069.235.235 0 00-.07.167v2.77c0 .063.025.123.07.167.044.045.104.07.167.07h9.464c.063 0 .123.024.168.069a.238.238 0 01.069.167v1.777a.238.238 0 01-.237.237h-12.333a.236.236 0 01-.238-.237zm23.749-12.651c1.484 0 2.69.35 3.617 1.05.927.699 1.39 1.73 1.39 3.092 0 1.374-.451 2.39-1.353 3.046-.902.657-2.12.985-3.654.985h-5.524a.237.237 0 00-.237.236v4.242a.235.235 0 01-.07.168.235.235 0 01-.167.069h-2.398a.237.237 0 01-.236-.237V2.633a.236.236 0 01.236-.237h8.396v-.001zm-.148 5.946c.711 0 1.269-.154 1.676-.461.407-.307.609-.755.607-1.343 0-.59-.202-1.035-.607-1.335-.405-.3-.964-.45-1.676-.451h-5.376a.237.237 0 00-.237.237V8.1a.237.237 0 00.237.237l5.376.003zM186 2.633v12.413a.235.235 0 01-.07.167.234.234 0 01-.167.07h-2.396a.238.238 0 01-.237-.237v-4.423a.235.235 0 00-.07-.167.235.235 0 00-.167-.07h-3.409a.235.235 0 00-.179.082l-4.164 4.738a.245.245 0 01-.18.08h-2.977a.235.235 0 01-.223-.143.25.25 0 01-.015-.138.24.24 0 01.065-.123l4.027-4.177a.239.239 0 00.055-.243.242.242 0 00-.074-.106.244.244 0 00-.119-.052c-1.09-.144-1.965-.493-2.625-1.047-.755-.631-1.132-1.555-1.132-2.77 0-1.338.463-2.353 1.39-3.047.927-.693 2.133-1.04 3.618-1.04h8.818a.237.237 0 01.231.233zm-8.911 5.578h5.804a.235.235 0 00.167-.069.235.235 0 00.07-.167v-3.04a.235.235 0 00-.07-.168.235.235 0 00-.167-.07h-5.804c-.688 0-1.24.158-1.658.474a1.55 1.55 0 00-.626 1.316c0 .552.205.98.616 1.28.411.299.968.444 1.668.444zM78.082 7.37v7.676a.237.237 0 00.237.237h2.32a.237.237 0 00.237-.237V3.595a.074.074 0 00-.05-.07.073.073 0 00-.082.027L78.09 7.328a.079.079 0 00-.009.043zm79.57 2.903v-7.64a.235.235 0 00-.07-.168.235.235 0 00-.167-.069h-2.322a.236.236 0 00-.237.237v11.3a.133.133 0 00.092.125.129.129 0 00.145-.05l2.539-3.66a.15.15 0 00.02-.075zm10.296-7.878h-2.553a.237.237 0 00-.195.102l-8.739 12.599a.117.117 0 00-.02.06.11.11 0 00.013.061.118.118 0 00.104.063h2.586a.235.235 0 00.196-.101l8.705-12.6a.117.117 0 00.02-.06.116.116 0 00-.057-.108.116.116 0 00-.06-.016zm-1.056 4.983v7.668a.236.236 0 00.236.237h2.322a.239.239 0 00.168-.07.239.239 0 00.069-.167V3.617a.109.109 0 00-.021-.06.106.106 0 00-.116-.037.11.11 0 00-.053.037l-2.588 3.76a.107.107 0 00-.017.06zm-98.051 2.86V2.633a.237.237 0 00-.236-.237h-2.323a.237.237 0 00-.237.237v11.268a.118.118 0 00.081.098.119.119 0 00.124-.033l2.568-3.658a.118.118 0 00.023-.07zm7.747-7.843a.237.237 0 00-.197.102l-8.765 12.542a.153.153 0 00.126.237h2.587a.237.237 0 00.197-.102l8.897-12.78h-2.846zm-7.589 23.638l-1.1 2.453c-.111.25-.23.436-.354.554a.61.61 0 01-.436.172.61.61 0 01-.386-.113l.137-.327c.078.054.16.082.245.082.157 0 .287-.108.39-.323l.055-.118-1.44-2.38h.436l1.19 1.994.872-1.994h.39zm2.656 3.179v-2.815H69.93v2.815h-.386v-3.179h2.497v3.18h-.386zm1.725 0h-.386v-3.179l.404-.004.427-.005c.418 0 .717.094.9.282.184.184.276.42.276.704a.95.95 0 01-.3.708c-.196.194-.478.29-.844.29-.176 0-.335-.005-.477-.017v1.221zm.481-2.824a16.5 16.5 0 00-.481.009v1.226c.172.015.327.022.463.022.233 0 .416-.055.55-.168a.592.592 0 00.2-.472.58.58 0 00-.182-.454c-.121-.109-.305-.163-.55-.163zm1.141 2.824l1.367-3.197h.332l1.367 3.197h-.414l-.408-.962h-1.45l-.403.962h-.39zm1.521-2.684l-.572 1.358h1.145l-.573-1.358zm2.09 2.68v-3.17c.472-.012.763-.018.872-.018.357 0 .616.07.776.213a.72.72 0 01.246.572.73.73 0 01-.15.473.844.844 0 01-.395.263v.01a.801.801 0 01.48.244c.119.127.178.297.178.509 0 .309-.106.54-.318.695-.209.151-.487.227-.836.227-.32 0-.605-.006-.853-.018zm.899-1.444h-.513v1.08c.139.012.303.018.49.018.24 0 .423-.048.55-.145.13-.1.195-.245.195-.436a.435.435 0 00-.19-.381c-.125-.091-.302-.136-.532-.136zm-.036-1.381c-.091 0-.25.005-.477.014v1.026h.508a.67.67 0 00.436-.14.471.471 0 00.178-.391c0-.34-.215-.509-.645-.509zm3.897 2.829v-2.815h-1.154l-.054.6a9.54 9.54 0 01-.14 1.012c-.058.278-.12.498-.187.658-.067.16-.145.285-.236.373a.576.576 0 01-.26.163.763.763 0 01-.29.01l.005-.387a.364.364 0 00.154-.013c.046-.015.1-.063.164-.141.066-.082.124-.195.172-.34a4.06 4.06 0 00.15-.646c.049-.284.086-.623.114-1.017l.045-.636h1.903v3.18h-.386zm1.337 0v-3.179h1.794v.364h-1.407v1.026h1.271v.363h-1.271v1.063h1.453v.363h-1.84zm4.747 0v-1.44H87.71v1.44h-.386v-3.179h.386v1.376h1.748v-1.376h.386v3.18h-.386zm1.679 0h-.34v-3.179h.385v2.543l1.93-2.543h.34v3.18h-.385v-2.544l-1.93 2.543zm3.269 0v-3.179H96.2v.364h-1.41v1.026h1.272v.363H94.79v1.063h1.453v.363h-1.839zm5.767 0v-1.44h-1.749v1.44h-.386v-3.179h.386v1.376h1.749v-1.376h.386v3.18h-.386zm1.338 0v-3.179h1.793v.364h-1.407v1.026h1.271v.363h-1.271v1.063h1.453v.363h-1.839zm2.203.591v-.954h.341c.097-.121.199-.368.308-.74.112-.376.184-.856.214-1.44l.032-.636h1.871v2.816h.431v.954h-.363v-.59h-2.471v.59h-.363zm1.226-2.839a6.047 6.047 0 01-.195 1.236c-.097.336-.185.552-.263.649h1.612v-2.452h-1.113l-.041.567zm2.584 2.244v-3.17c.473-.012.763-.018.872-.018.357 0 .616.07.777.213a.722.722 0 01.245.572.73.73 0 01-.15.473.847.847 0 01-.395.263v.01a.8.8 0 01.481.244c.118.127.177.297.177.509 0 .309-.105.54-.317.695-.209.151-.488.227-.836.227-.321 0-.606-.006-.854-.018zm.899-1.444h-.513v1.08c.14.012.303.018.491.018.239 0 .422-.048.549-.145.13-.1.195-.245.195-.436a.435.435 0 00-.19-.381c-.124-.091-.302-.136-.532-.136zm-.036-1.381c-.091 0-.25.005-.477.014v1.026h.509a.668.668 0 00.436-.14.471.471 0 00.177-.391c0-.34-.215-.509-.645-.509zm2.281 2.829h-.341v-3.179h.386v2.543l1.93-2.543h.341v3.18h-.386v-2.544l-1.93 2.543zm6.893-3.179l-1.285 1.517 1.335 1.662h-.45l-1.308-1.657 1.258-1.522h.45zm-2.175 3.18v-3.18h.386v3.18h-.386zm-.5-1.658l-1.285-1.522h.449l1.258 1.522L114 29.212h-.45l1.335-1.657zm3.631 1.657h-.34v-3.179h.386v2.543l1.93-2.543h.34v3.18h-.386v-2.544l-1.93 2.543zm3.27 0v-3.179h.39l1.194 1.63 1.145-1.63h.368v3.18h-.386v-2.571l-1.127 1.58h-.059l-1.139-1.567v2.557h-.386zm3.799-1.589c0-.463.153-.85.458-1.163.306-.315.694-.472 1.163-.472.466 0 .852.153 1.158.459.309.305.463.697.463 1.176 0 .47-.154.86-.463 1.171-.309.31-.695.464-1.158.464-.466 0-.854-.153-1.163-.459-.305-.306-.458-.698-.458-1.176zm.408 0c0 .36.117.663.35.908.233.242.521.363.863.363.357 0 .648-.12.872-.363.227-.242.34-.545.34-.908 0-.367-.116-.67-.349-.909a1.15 1.15 0 00-.863-.363c-.348 0-.637.12-.867.359-.23.24-.346.543-.346.913zm5.752.99l.154.29c-.106.11-.25.196-.431.26a1.725 1.725 0 01-.572.095c-.479 0-.868-.149-1.168-.445-.296-.3-.445-.697-.445-1.19 0-.47.143-.858.427-1.167.288-.312.674-.468 1.158-.468.406 0 .728.103.968.309l-.178.29c-.211-.157-.473-.236-.785-.236-.345 0-.628.118-.849.355-.221.236-.332.541-.332.917 0 .378.114.685.341.922.23.233.53.35.899.35.312 0 .583-.095.813-.282zm.337-2.216v-.364h2.611v.364h-1.112v2.815h-.386v-2.815h-1.113zm3.936 1.158c-.118 0-.257.009-.418.027v1.262c.245.01.38.014.404.014.267 0 .471-.056.613-.168.146-.115.218-.285.218-.509 0-.203-.071-.357-.213-.463-.142-.109-.344-.163-.604-.163zm-.418-1.522v1.181a6.12 6.12 0 01.445-.023c.4 0 .7.087.899.26.2.172.3.412.3.721 0 .333-.113.592-.341.777-.224.181-.538.272-.944.272-.097 0-.232-.001-.404-.004a23.975 23.975 0 00-.341-.005v-3.179h.386zm2.346 3.179v-3.179h.386v1.376h.686c.045-.414.209-.755.49-1.021.285-.267.636-.4 1.054-.4.463 0 .841.153 1.135.459.294.302.441.694.441 1.176 0 .472-.149.863-.445 1.171-.294.31-.671.464-1.131.464a1.5 1.5 0 01-1.067-.414c-.291-.275-.452-.632-.482-1.071h-.681v1.44h-.386zm1.471-1.59c0 .361.109.664.327.909.221.242.497.363.827.363.357 0 .639-.12.844-.358.209-.24.314-.544.314-.913 0-.373-.108-.677-.323-.913a1.07 1.07 0 00-.835-.359c-.333 0-.609.12-.827.359-.218.24-.327.543-.327.913zm-38.235-6.354h-1.3a.076.076 0 00-.076.076v1.3c0 .042.034.076.076.076h1.3a.076.076 0 00.076-.076v-1.3a.076.076 0 00-.076-.076zm-34.979 2.017l1.366-3.082h.331l1.366 3.082h-.413l-.408-.928h-1.448l-.404.928h-.39zm1.52-2.588l-.571 1.31h1.143l-.572-1.31zm2.474 2.588h-.386V20.22l.404-.004.427-.005c.417 0 .717.09.898.272a.903.903 0 01.277.678.9.9 0 01-.3.683c-.196.187-.477.28-.843.28-.176 0-.335-.005-.477-.017v1.178zm.481-2.723c-.12 0-.281.003-.48.008v1.183c.172.014.326.021.462.021.233 0 .416-.053.55-.162a.561.561 0 00.199-.455.549.549 0 00-.182-.438c-.12-.105-.304-.157-.549-.157zm4.082-.342l-1.125 1.506 1.166 1.56h-.458l-.962-1.275-.958 1.274h-.453l1.166-1.559-1.117-1.506h.454l.922 1.226.907-1.226h.459zm.95 3.065h-.341V20.22h.386v2.452l1.928-2.452h.34v3.065h-.385v-2.452l-1.929 2.452zm2.835-2.715v-.35h2.61v.35h-1.112v2.715h-.386V20.57h-1.112zm3.131 2.715V20.22h1.792v.35h-1.407v.99h1.271v.35h-1.27v1.025h1.452v.35h-1.838zm4.934-3.065l-1.416 1.44 1.488 1.625h-.495l-1.438-1.598 1.393-1.467h.468zm-2.324 3.065V20.22h.386v3.065h-.386zm2.481-2.715v-.35h2.61v.35h-1.113v2.715h-.385V20.57h-1.112zm5.608-.35l-1.099 2.364c-.112.243-.23.42-.354.535a.622.622 0 01-.435.166.625.625 0 01-.386-.11l.136-.315c.079.053.16.08.245.08.157 0 .288-.104.39-.312l.055-.113-1.439-2.295h.436l1.189 1.922.871-1.922h.39zm.93 3.065h-.386V20.22l.404-.004.427-.005c.417 0 .717.09.898.272a.903.903 0 01.277.678.9.9 0 01-.3.683c-.196.187-.477.28-.843.28a5.9 5.9 0 01-.477-.017v1.178zm.481-2.723c-.12 0-.281.003-.48.008v1.183c.172.014.326.021.462.021.233 0 .416-.053.55-.162a.561.561 0 00.199-.455.549.549 0 00-.182-.438c-.12-.105-.304-.157-.549-.157zm1.14 2.723l1.366-3.082h.332l1.366 3.082h-.413l-.409-.928H95.72l-.403.928h-.39zm1.52-2.588l-.571 1.31h1.143l-.571-1.31zm9.581-.127v-.35h2.61v.35h-1.112v2.715h-.386V20.57h-1.112zm3.516 2.715h-.385V20.22l.403-.004.427-.005c.418 0 .717.09.899.272a.904.904 0 01.276.678.898.898 0 01-.299.683c-.197.187-.478.28-.844.28a5.92 5.92 0 01-.477-.017v1.178zm.481-2.723c-.121 0-.281.003-.481.008v1.183c.173.014.327.021.463.021.233 0 .416-.053.549-.162a.56.56 0 00.2-.455.549.549 0 00-.181-.438c-.122-.105-.305-.157-.55-.157zm1.552 1.191c0-.447.153-.82.458-1.121.306-.304.693-.456 1.162-.456.466 0 .852.148 1.157.443.309.294.463.672.463 1.134 0 .452-.154.829-.463 1.13-.308.297-.694.446-1.157.446-.466 0-.853-.148-1.162-.442-.305-.295-.458-.673-.458-1.134zm.408 0a1.2 1.2 0 001.212 1.226c.357 0 .648-.117.871-.35.227-.234.341-.526.341-.876a1.18 1.18 0 00-.35-.876 1.17 1.17 0 00-.862-.35c-.348 0-.637.115-.867.345-.23.231-.345.524-.345.88zm3.878 1.532h-.34V20.22h.386v2.452l1.928-2.452h.341v3.065h-.386v-2.452l-1.929 2.452zm2.836-2.715v-.35h2.61v.35h-1.112v2.715h-.386V20.57h-1.112zm3.13 2.715V20.22h1.793v.35h-1.407v.99h1.271v.35h-1.271v1.025h1.452v.35h-1.838zm4.567 0V20.57h-1.153l-.054.578a9.17 9.17 0 01-.141.977c-.058.268-.12.48-.186.635a1.056 1.056 0 01-.236.359.58.58 0 01-.259.157.788.788 0 01-.29.01l.004-.373a.381.381 0 00.155-.013.421.421 0 00.163-.136c.066-.079.124-.188.172-.328.052-.14.102-.348.15-.622.049-.274.086-.601.114-.98l.045-.614h1.901v3.065h-.385zm2.14-1.598c-.118 0-.257.009-.418.026v1.217c.245.01.38.014.404.014.267 0 .471-.054.613-.162.145-.111.218-.275.218-.49a.516.516 0 00-.213-.448c-.143-.105-.344-.157-.604-.157zm-.418-1.467v1.139a6.23 6.23 0 01.445-.022c.4 0 .699.083.899.25.199.166.299.398.299.695 0 .322-.113.571-.34.75-.224.174-.539.262-.944.262-.097 0-.232-.002-.404-.005a24.394 24.394 0 00-.34-.004V20.22h.385zm4.488 2.487l.155.28c-.106.105-.25.189-.431.25a1.781 1.781 0 01-.572.092c-.478 0-.867-.143-1.167-.43-.296-.288-.444-.67-.444-1.146 0-.453.142-.828.426-1.126.288-.3.673-.45 1.157-.45.406 0 .728.099.967.297l-.177.28c-.212-.152-.473-.227-.785-.227-.345 0-.628.113-.849.341-.221.228-.331.523-.331.885 0 .364.114.66.34.888.23.225.53.338.899.338.312 0 .582-.09.812-.272zm.337-2.137v-.35h2.61v.35h-1.112v2.715h-.386V20.57h-1.112zm3.13 2.71v-3.056c.472-.011.763-.017.872-.017.357 0 .616.069.776.206a.685.685 0 01.245.552c0 .183-.05.335-.15.455a.845.845 0 01-.395.254v.009a.81.81 0 01.481.236.677.677 0 01.177.49c0 .298-.105.521-.317.67-.209.146-.487.22-.835.22-.321 0-.605-.007-.854-.018zm.899-1.392h-.513v1.042c.139.012.303.018.49.018.239 0 .422-.047.55-.14a.49.49 0 00.195-.42.415.415 0 00-.191-.368c-.124-.088-.301-.132-.531-.132zm-.036-1.33c-.091 0-.25.004-.477.012v.99h.509a.68.68 0 00.435-.136.448.448 0 00.177-.376c0-.327-.215-.49-.644-.49zm1.689 1.195c0-.447.153-.82.458-1.121.306-.304.693-.456 1.162-.456.466 0 .852.148 1.157.443.309.294.463.672.463 1.134 0 .452-.154.829-.463 1.13-.308.297-.694.446-1.157.446-.466 0-.853-.148-1.162-.442-.305-.295-.458-.673-.458-1.134zm.408 0a1.2 1.2 0 001.212 1.226c.357 0 .647-.117.871-.35.227-.234.341-.526.341-.876a1.18 1.18 0 00-.35-.876 1.17 1.17 0 00-.862-.35c-.348 0-.637.115-.867.345-.23.231-.345.524-.345.88zm-33.242.954l.155.28c-.106.105-.25.189-.431.25a1.781 1.781 0 01-.572.092c-.478 0-.867-.143-1.167-.43-.296-.288-.444-.67-.444-1.146 0-.453.142-.828.426-1.126.288-.3.673-.45 1.158-.45.405 0 .727.099.966.297l-.177.28c-.212-.152-.473-.227-.785-.227-.345 0-.628.113-.849.341-.22.228-.331.523-.331.885 0 .364.114.66.341.888.229.225.529.338.898.338.312 0 .583-.09.812-.272z" fill="#191919"/></svg>