<svg xmlns="http://www.w3.org/2000/svg" version="1.1" xmlns:xlink="http://www.w3.org/1999/xlink" xmlns:svgjs="http://svgjs.dev/svgjs" width="72" height="72"><svg width="72" height="72" viewBox="0 0 72 72" fill="none" xmlns="http://www.w3.org/2000/svg">
<g clip-path="url(#clip0_556_4605)">
<rect width="72" height="72" fill="#EE3A23"></rect>
<path d="M49.0009 32.1264V54.3152C49.0009 54.4968 49.0724 54.671 49.1995 54.7994C49.3267 54.9278 49.4992 55 49.6791 55H56.3218C56.5017 55 56.6742 54.9278 56.8014 54.7994C56.9286 54.671 57 54.4968 57 54.3152V21.2101C56.9995 21.1655 56.9852 21.1222 56.959 21.0863C56.9328 21.0505 56.8961 21.0238 56.8541 21.0102C56.8121 20.9965 56.7669 20.9966 56.7249 21.0104C56.6829 21.0241 56.6463 21.0508 56.6202 21.0868L49.0246 32.0031C49.0053 32.0411 48.9971 32.0839 49.0009 32.1264Z" fill="white"></path>
<path d="M22 39.9696V17.6938C22 17.5098 21.9286 17.3333 21.8015 17.2032C21.6744 17.0731 21.5021 17 21.3223 17H14.6777C14.4979 17 14.3256 17.0731 14.1985 17.2032C14.0714 17.3333 14 17.5098 14 17.6938V50.6964C14.0081 50.7621 14.0344 50.8241 14.0757 50.875C14.1171 50.9259 14.1719 50.9636 14.2335 50.9837C14.2952 51.0038 14.3611 51.0053 14.4236 50.9882C14.4861 50.9712 14.5425 50.9361 14.5862 50.8872L21.9322 40.1743C21.9755 40.1152 21.9993 40.0435 22 39.9696Z" fill="white"></path>
<path d="M44.5833 17C44.4691 16.9991 44.3565 17.026 44.2551 17.0783C44.1537 17.1307 44.0667 17.207 44.0016 17.3005L18.0717 54.3011C18.0281 54.3691 18.0035 54.4475 18.0003 54.5282C17.9972 54.6089 18.0157 54.6889 18.0539 54.7601C18.0921 54.8313 18.1486 54.891 18.2176 54.9332C18.2867 54.9754 18.3657 54.9984 18.4467 55H26.0995C26.2136 55.0009 26.3263 54.974 26.4277 54.9217C26.5291 54.8693 26.6161 54.793 26.6812 54.6995L53 17H44.5833Z" fill="white"></path>
</g>
<defs>
<clipPath id="SvgjsClipPath1013">
<rect width="72" height="72" fill="white"></rect>
</clipPath>
</defs>
</svg><style>@media (prefers-color-scheme: light) { :root { filter: none; } }
@media (prefers-color-scheme: dark) { :root { filter: none; } }
</style></svg>