<svg width="24" height="24" viewBox="0 0 24 24" fill="none" xmlns="http://www.w3.org/2000/svg">
<path d="M16.4072 6.83496C16.5417 6.83711 16.6646 6.84161 16.7744 6.85059C16.9996 6.86903 17.217 6.90928 17.4238 7.01465L17.5381 7.0791C17.7992 7.23922 18.0125 7.46878 18.1523 7.74316L18.2197 7.90039C18.2763 8.05918 18.3026 8.22371 18.3164 8.39258C18.3343 8.61203 18.334 8.88111 18.334 9.19922V14.7998C18.334 15.1179 18.3343 15.387 18.3164 15.6064C18.3026 15.7755 18.2764 15.9406 18.2197 16.0996L18.1523 16.2559C18.0126 16.5301 17.799 16.7598 17.5381 16.9199L17.4238 16.9844C17.2171 17.0897 16.9996 17.13 16.7744 17.1484C16.5549 17.1664 16.2851 17.166 15.9668 17.166H8.0332C7.7151 17.166 7.44603 17.1663 7.22656 17.1484C7.0576 17.1346 6.89324 17.1084 6.73438 17.0518L6.57715 16.9844C6.30277 16.8446 6.07322 16.6321 5.91309 16.3711L5.84863 16.2559C5.74334 16.049 5.70298 15.8317 5.68457 15.6064C5.66667 15.3869 5.66699 15.118 5.66699 14.7998V9.19922C5.66699 8.88111 5.66664 8.61203 5.68457 8.39258C5.70301 8.16732 5.74327 7.95 5.84863 7.74316L5.91309 7.62793C6.0732 7.36716 6.30298 7.15434 6.57715 7.01465L6.73438 6.94727C6.89316 6.89074 7.0577 6.86439 7.22656 6.85059C7.44602 6.83268 7.71512 6.83301 8.0332 6.83301H15.9668L16.4072 6.83496ZM13.0234 11.8369C12.4593 12.2757 11.6834 12.3037 11.0928 11.9199L10.9775 11.8369L6.68066 8.49512C6.66842 8.66168 6.66699 8.87831 6.66699 9.19922V14.7998C6.66699 15.1345 6.66782 15.356 6.68164 15.5254C6.695 15.6887 6.71761 15.7602 6.73926 15.8027L6.79492 15.8916C6.85644 15.9762 6.9372 16.0458 7.03125 16.0937L7.12402 16.126C7.16752 16.1362 7.22685 16.1457 7.30859 16.1523C7.47787 16.1661 7.69903 16.166 8.0332 16.166H15.9668C16.3014 16.166 16.523 16.1662 16.6924 16.1523C16.8558 16.139 16.9272 16.1154 16.9697 16.0937L17.0596 16.0391C17.1438 15.9777 17.2129 15.8964 17.2607 15.8027L17.293 15.709C17.3031 15.6656 17.3127 15.6068 17.3193 15.5254C17.3332 15.356 17.334 15.1344 17.334 14.7998V9.19922C17.334 8.87828 17.3316 8.66169 17.3193 8.49512L13.0234 11.8369ZM7.6084 7.83496C7.55806 7.83574 7.51122 7.83927 7.46777 7.84082L11.5908 11.0479L11.6855 11.1094C11.9145 11.2321 12.1986 11.2115 12.4092 11.0479L16.5322 7.84082C16.4888 7.83929 16.4419 7.83575 16.3916 7.83496L15.9668 7.83301H8.0332L7.6084 7.83496Z" fill="white"/>
</svg>
