<svg width="24" height="24" viewBox="0 0 24 24" fill="none" xmlns="http://www.w3.org/2000/svg">
<path d="M18.7998 3.5C19.3516 3.5 19.7957 3.5 20.1543 3.5293C20.5186 3.55907 20.8387 3.62163 21.1348 3.77246L21.3076 3.86914C21.699 4.10933 22.0179 4.45378 22.2275 4.86523L22.2803 4.97754C22.3937 5.24209 22.4447 5.52697 22.4707 5.8457C22.5 6.20429 22.5 6.64839 22.5 7.2002V16.7998C22.5 17.3516 22.5 17.7957 22.4707 18.1543C22.4447 18.473 22.3937 18.7579 22.2803 19.0225L22.2275 19.1348C22.0179 19.5462 21.699 19.8907 21.3076 20.1309L21.1348 20.2275C20.8387 20.3784 20.5186 20.4409 20.1543 20.4707C19.7957 20.5 19.3516 20.5 18.7998 20.5H5.2002C4.64839 20.5 4.20429 20.5 3.8457 20.4707C3.52697 20.4447 3.24209 20.3937 2.97754 20.2803L2.86523 20.2275C2.45378 20.0179 2.10933 19.699 1.86914 19.3076L1.77246 19.1348C1.62163 18.8387 1.55907 18.5186 1.5293 18.1543C1.5 17.7957 1.5 17.3516 1.5 16.7998V7.2002C1.5 6.64839 1.5 6.20429 1.5293 5.8457C1.55907 5.48136 1.62163 5.16133 1.77246 4.86523L1.86914 4.69238C2.10933 4.30096 2.45378 3.98211 2.86523 3.77246L2.97754 3.71973C3.24209 3.60629 3.52697 3.55534 3.8457 3.5293C4.20429 3.5 4.64839 3.5 5.2002 3.5H18.7998ZM21 5L21.3066 5.39453L13.5352 11.4395C12.6889 12.0976 11.5247 12.1393 10.6387 11.5635L10.4648 11.4395L2.69336 5.39453L3 5L3.21387 4.72266C3.01332 4.84608 2.84482 5.01508 2.72168 5.21582L2.66309 5.31934C2.59613 5.45091 2.55009 5.62471 2.52539 5.92676C2.50019 6.23518 2.5 6.63189 2.5 7.2002V16.7998C2.5 17.3681 2.50019 17.7648 2.52539 18.0732C2.55009 18.3753 2.59613 18.5491 2.66309 18.6807L2.72168 18.7842C2.8658 19.0191 3.07239 19.2111 3.31934 19.3369L3.42676 19.3828C3.54536 19.4253 3.69984 19.4561 3.92676 19.4746C4.23518 19.4998 4.63189 19.5 5.2002 19.5H18.7998C19.3681 19.5 19.7648 19.4998 20.0732 19.4746C20.3753 19.4499 20.5491 19.4039 20.6807 19.3369L20.7842 19.2783C21.0191 19.1342 21.2111 18.9276 21.3369 18.6807L21.3828 18.5732C21.4253 18.4546 21.4561 18.3002 21.4746 18.0732C21.4998 17.7648 21.5 17.3681 21.5 16.7998V7.2002C21.5 6.63189 21.4998 6.23518 21.4746 5.92676C21.4561 5.69984 21.4253 5.54536 21.3828 5.42676L21.3369 5.31934C21.2109 5.07199 21.0187 4.86485 20.7832 4.7207L21 5ZM5.2002 4.5C4.63189 4.5 4.23518 4.50019 3.92676 4.52539C3.65335 4.54775 3.48543 4.5885 3.3584 4.64551L11.0791 10.6504L11.1826 10.7246C11.7143 11.0703 12.413 11.0454 12.9209 10.6504L20.6406 4.64551C20.5137 4.5887 20.3461 4.5477 20.0732 4.52539C19.7648 4.50019 19.3681 4.5 18.7998 4.5H5.2002Z" fill="#EE3A23"/>
</svg>
