<svg width="14" height="12" fill="none" xmlns="http://www.w3.org/2000/svg"><path d="M.469 5.587C1.872 4.814 3.438 4.169 4.9 3.52 7.418 2.459 9.945 1.416 12.497.445c.497-.166 1.39-.328 1.477.408-.048 1.042-.245 2.078-.38 3.113-.343 2.278-.74 4.548-1.127 6.818-.133.756-1.08 1.148-1.686.664-1.457-.984-2.925-1.959-4.363-2.965-.47-.479-.034-1.166.387-1.508 1.2-1.182 2.472-2.187 3.609-3.43.306-.74-.6-.117-.899.075C7.873 4.75 6.271 5.952 4.54 6.947c-.884.487-1.915.07-2.8-.2-.792-.33-1.954-.66-1.27-1.16z" fill="#fff"/></svg>