<svg width="15" height="15" fill="none" xmlns="http://www.w3.org/2000/svg"><path fill-rule="evenodd" clip-rule="evenodd" d="M7.395 14.676h-.003a7.13 7.13 0 01-3.41-.868L.199 14.8l1.013-3.698a7.123 7.123 0 01-.953-3.567C.261 3.601 3.462.4 7.395.4c1.909 0 3.7.744 5.047 2.093A7.093 7.093 0 0114.53 7.54c-.001 3.933-3.201 7.134-7.135 7.135zm-3.238-2.16l.217.129c.91.54 1.954.826 3.018.826h.003a5.94 5.94 0 005.93-5.93 5.895 5.895 0 00-1.735-4.196 5.89 5.89 0 00-4.193-1.74 5.94 5.94 0 00-5.933 5.93c0 1.121.313 2.213.907 3.157l.14.224-.599 2.189 2.245-.589zm6.588-3.439c.125.06.209.1.245.16.044.075.044.432-.104.848-.149.417-.861.797-1.204.848a2.443 2.443 0 01-1.123-.07 10.227 10.227 0 01-1.016-.376C5.87 9.765 4.742 8.145 4.528 7.839l-.031-.044-.001-.002c-.095-.126-.727-.97-.727-1.843 0-.82.403-1.251.59-1.45a3.45 3.45 0 00.034-.037.655.655 0 01.475-.223c.12 0 .238.001.342.006h.04c.104 0 .234 0 .361.306.05.118.121.294.197.478.154.374.323.786.353.846.045.09.074.193.015.312l-.025.051c-.045.091-.078.158-.153.247l-.092.11c-.061.074-.122.15-.176.202-.09.09-.182.186-.078.364.104.179.462.762.992 1.235.57.508 1.065.723 1.316.832l.118.053c.178.09.282.075.386-.044a10.4 10.4 0 00.564-.7c.12-.178.238-.148.402-.089.163.06 1.04.491 1.218.58l.097.048z" fill="#fff"/></svg>