<svg width="273" height="276" viewBox="0 0 273 276" fill="none" xmlns="http://www.w3.org/2000/svg">
<path fill-rule="evenodd" clip-rule="evenodd" d="M0.206764 19.3645L18.5951 0H52.2843L0.207046 52.7637V19.3645H0.206764ZM273 36.2577L33.6892 275.618H0L273 2.85848V36.2577ZM273 102.072L99.8665 275.618H66.1773L273 68.6726V102.072V102.072ZM273 165.541L163.736 275.618H130.047L273 132.142V165.541H273ZM273 231.687L228.917 275.618H195.228L273 198.288V231.687L273 231.687ZM0.206764 215.506L215.365 0H249.054L0.206764 248.906V215.506ZM0.206764 149.116L147.646 0H181.335L0.206764 182.515V149.116ZM0.206764 83.9811L83.776 0H117.465L0.207046 117.38V83.9808L0.206764 83.9811Z" fill="#FACA2A"/>
</svg>
