<svg width="636" height="635" viewBox="0 0 636 635" fill="none" xmlns="http://www.w3.org/2000/svg">
<path fill-rule="evenodd" clip-rule="evenodd" d="M464.504 19.1069L19.1003 464.664L0 445.557L445.403 0L464.504 19.1069ZM499.047 52.8489L53.2371 498.812L34.1367 479.706L479.946 33.742L499.047 52.8489ZM533.183 86.9974L87.3738 532.961L68.2735 513.854L514.083 67.8905L533.183 86.9974ZM567.32 121.146L121.511 567.109L102.41 548.003L548.22 102.039L567.32 121.146ZM601.863 154.888L156.054 600.851L136.953 581.745L582.763 135.781L601.863 154.888ZM636 189.036L190.19 635L171.09 615.893L616.9 169.93L636 189.036Z" fill="#EE3A23"/>
</svg>
