<svg width="353" height="352" viewBox="0 0 353 352" fill="none" xmlns="http://www.w3.org/2000/svg">
<path fill-rule="evenodd" clip-rule="evenodd" d="M257.123 10.5729L10.5729 257.123L0 246.55L246.55 0L257.123 10.5729ZM276.244 29.2441L29.4691 276.019L18.8962 265.447L265.671 18.6712L276.244 29.2441ZM295.141 48.1403L48.3652 294.916L37.7924 284.343L284.568 37.5674L295.141 48.1403ZM314.037 67.0365L67.2614 313.812L56.6886 303.239L303.464 56.4636L314.037 67.0365ZM333.158 85.7077L86.3826 332.483L75.8097 321.91L322.585 75.1348L333.158 85.7077ZM352.054 104.604L105.279 351.379L94.7059 340.806L341.481 94.031L352.054 104.604Z" fill="#F5F5F5"/>
</svg>
