<svg width="525" height="285" viewBox="0 0 525 285" fill="none" xmlns="http://www.w3.org/2000/svg">
<mask id="mask0_60_1348" style="mask-type:alpha" maskUnits="userSpaceOnUse" x="-419" y="-199" width="861" height="860">
<path fill-rule="evenodd" clip-rule="evenodd" d="M209.833 -173.042L-393.142 429.933L-419 404.076L183.975 -198.899L209.833 -173.042ZM256.596 -127.379L-346.929 476.147L-372.787 450.289L230.739 -153.236L256.596 -127.379ZM302.81 -81.1653L-300.716 522.36L-326.573 496.502L276.952 -107.023L302.81 -81.1653ZM349.023 -34.9519L-254.502 568.573L-280.36 542.716L323.166 -60.8094L349.023 -34.9519ZM395.787 10.7114L-207.739 614.237L-233.596 588.379L369.929 -15.1461L395.787 10.7114ZM442 56.9248L-161.525 660.45L-187.383 634.593L416.142 31.0673L442 56.9248Z" fill="#EE3A23"/>
</mask>
<g mask="url(#mask0_60_1348)">
<rect x="-46" width="571" height="285" fill="#F5F5F5"/>
</g>
</svg>
