<svg width="1196" height="279" viewBox="0 0 1196 279" fill="none" xmlns="http://www.w3.org/2000/svg">
<path d="M1009.28 1.77786L1009.28 1.77789C1008.31 1.77609 1007.35 2.00012 1006.48 2.43228L1006.48 2.43262L731.33 139.027L731.328 139.028C730.586 139.392 729.788 139.628 728.968 139.727L1009.28 1.77786ZM1009.28 1.77786L1189.07 0.500031L1009.28 1.77786ZM336.643 188.444L728.967 139.728L1189.08 0.500031C1190.75 0.493469 1192.37 1.14795 1193.57 2.32245C1194.77 3.49619 1195.47 5.09521 1195.5 6.7749L1195.5 34.2301L1195.5 34.237C1195.52 35.8742 1194.91 37.4574 1193.8 38.6588C1192.69 39.8603 1191.16 40.5879 1189.53 40.6913L1189.53 40.6913L1009.24 52.491L1009.23 52.4919C1008.21 52.5806 1007.21 52.8892 1006.32 53.3967C1006.31 53.3971 1006.31 53.3974 1006.31 53.3978L730.811 205.786L730.804 205.79C730.206 206.134 729.553 206.372 728.874 206.492L728.871 206.493L334.55 278.43C334.547 278.431 334.545 278.431 334.542 278.431C333.43 278.595 332.294 278.464 331.248 278.052L331.241 278.049L331.234 278.046L4.70837 160.512C3.47742 160.063 2.41382 159.247 1.66125 158.173C0.908569 157.1 0.503296 155.821 0.5 154.511V115.197C0.499146 114.229 0.717896 113.275 1.13977 112.405C1.56165 111.536 2.17566 110.773 2.93518 110.176C3.6947 109.578 4.58008 109.162 5.52405 108.957C6.46814 108.752 7.44641 108.765 8.38477 108.994L333.961 188.438L333.975 188.442L333.99 188.444C334.862 188.605 335.756 188.606 336.628 188.447C336.633 188.446 336.638 188.445 336.643 188.444Z" stroke="#312D2D"/>
</svg>
