<svg width="1248" height="291" viewBox="0 0 1248 291" fill="none" xmlns="http://www.w3.org/2000/svg">
<g clip-path="url(#clip0_663_5835)">
<rect width="1248" height="291" />
<path fill-rule="evenodd" clip-rule="evenodd" d="M1052.38 0H1052.5H1052.85H1053.2H1053.55H1053.9H1054.26H1054.61H1054.97H1055.33H1055.69H1056.05H1056.41H1056.77H1057.14H1057.5H1057.87H1058.24H1058.61H1058.98H1059.35H1059.72H1060.1H1060.47H1060.85H1061.23H1061.61H1061.99H1062.37H1062.76H1063.14H1063.53H1063.91H1064.3H1064.69H1065.08H1065.47H1065.86H1066.26H1066.65H1067.05H1067.44H1067.84H1068.24H1068.64H1069.04H1069.44H1069.85H1070.25H1070.66H1071.06H1071.47H1071.88H1072.29H1072.7H1073.11H1073.52H1073.94H1074.35H1074.77H1075.18H1075.6H1076.02H1076.44H1076.86H1077.28H1077.7H1078.12H1078.54H1078.97H1079.39H1079.82H1080.25H1080.67H1081.1H1081.53H1081.96H1082.39H1082.83H1083.26H1083.69H1084.13H1084.56H1085H1085.43H1085.87H1086.31H1086.75H1087.19H1087.63H1088.07H1088.51H1088.95H1089.4H1089.84H1090.28H1090.73H1091.17H1091.62H1092.07H1092.52H1092.96H1093.41H1093.86H1094.31H1094.76H1095.21H1095.67H1096.12H1096.57H1097.03H1097.48H1097.93H1098.39H1098.85H1099.3H1099.76H1100.22H1100.67H1101.13H1101.59H1102.05H1102.51H1102.97H1103.43H1103.89H1104.35H1104.81H1105.28H1105.74H1106.2H1106.67H1107.13H1107.59H1108.06H1108.52H1108.99H1109.45H1109.92H1110.39H1110.85H1111.32H1111.79H1112.26H1112.72H1113.19H1113.66H1114.13H1114.6H1115.07H1115.54H1116.01H1116.48H1116.95H1117.42H1117.89H1118.36H1118.83H1119.3H1119.77H1120.24H1120.71H1121.19H1121.66H1122.13H1122.6H1123.07H1123.55H1124.02H1124.49H1124.97H1125.44H1125.91H1126.38H1126.86H1127.33H1127.8H1128.28H1128.75H1129.22H1129.7H1130.17H1130.64H1131.12H1131.59H1132.06H1132.54H1133.01H1133.48H1133.95H1134.43H1134.9H1135.37H1135.85H1136.32H1136.79H1137.26H1137.73H1138.21H1138.68H1139.15H1139.62H1140.09H1140.57H1141.04H1141.51H1141.98H1142.45H1142.92H1143.39H1143.86H1144.33H1144.8H1145.27H1145.74H1146.21H1146.67H1147.14H1147.61H1148.08H1148.54H1149.01H1149.48H1149.94H1150.41H1150.88H1151.34H1151.81H1152.27H1152.74H1153.2H1153.66H1154.13H1154.59H1155.05H1155.51H1155.97H1156.43H1156.9H1157.36H1157.82H1158.27H1158.73H1159.19H1159.65H1160.11H1160.56H1161.02H1161.47H1161.93H1162.38H1162.84H1163.29H1163.75H1164.2H1164.65H1165.1H1165.55H1166H1166.45H1166.9H1167.35H1167.8H1168.24H1168.69H1169.14H1169.58H1170.02H1170.47H1170.91H1171.35H1171.8H1172.24H1172.68H1173.12H1173.55H1173.99H1174.43H1174.87H1175.3H1175.74H1176.17H1176.6H1177.04H1177.47H1177.9H1178.33H1178.76H1179.19H1179.62H1180.04H1180.47H1180.89H1181.32H1181.74H1182.16H1182.59H1183.01H1183.43H1183.85H1184.26H1184.68H1185.1H1185.51H1185.93H1186.34H1186.75H1187.16H1187.57H1187.98H1188.39H1188.8H1189.2H1189.61H1190.01H1190.42H1190.82H1191.22H1191.62H1192.02H1192.42H1192.81H1193.21H1193.6H1194H1194.39H1194.78H1195.17H1195.56H1195.95H1196.33H1196.72H1197.1H1197.49H1197.87H1198.25H1198.63H1199.01H1199.39H1199.76H1200.14H1200.51H1200.88H1201.25H1201.62H1201.99H1202.36H1202.72H1203.09H1203.45H1203.81H1204.17H1204.53H1204.89H1205.25H1205.6H1205.96H1206.31H1206.66H1207.01H1207.36H1207.7H1208.05H1208.39H1208.74H1209.08H1209.42H1209.76H1210.09H1210.43H1210.76H1211.09H1211.43H1211.75H1212.08H1212.41H1212.73H1213.06H1213.38H1213.7H1214.02H1214.34H1214.65H1214.97H1215.28H1215.59H1215.9H1216.21H1216.51H1216.82H1217.12H1217.42H1217.72H1218.02H1218.31H1218.61H1218.9H1219.19H1219.48H1219.77H1220.06H1220.34H1220.62H1220.91H1221.19H1221.46H1221.74H1222.01H1222.29H1222.56H1222.82H1223.09H1223.36H1223.62H1223.88H1224.14H1224.4H1224.66H1224.91H1225.16H1225.41H1225.66H1225.91H1226.15H1226.4H1226.64H1226.88H1227.11H1227.35H1227.58H1227.81H1228.04H1228.27H1228.5H1228.72H1228.94H1229.16H1229.38H1229.59H1229.81H1230.02H1230.23H1230.44H1230.64H1230.85H1231.05H1231.25H1231.44H1231.64H1231.83H1232.02H1232.21H1232.4H1232.58H1232.77H1232.95H1233.13H1233.3H1233.48H1233.65H1233.82H1233.99H1234.15H1234.31H1234.47H1234.63H1234.79H1234.94H1235.1H1235.25H1235.39H1235.54H1235.68H1235.82H1235.96H1236.1H1236.23H1236.36H1236.49H1236.62H1236.74H1236.87H1236.99H1237.1H1237.22H1237.33H1237.44H1237.55H1237.66H1237.76H1237.86H1237.96H1238.06H1238.15H1238.24H1238.33H1238.42H1238.5H1238.58H1238.66H1238.74H1238.81H1238.88H1238.95H1239.02H1239.08H1239.14H1239.2H1239.26H1239.31H1239.36H1239.41H1239.46H1239.5C1243.2 0 1245.45 1.11743 1246.71 2.61521C1247.95 4.08338 1248.18 5.83908 1248 7.03682V7.06284V7.09451V7.12636V7.15837V7.19054V7.22289V7.2554V7.28808V7.32092V7.35393V7.3871V7.42043V7.45393V7.48759V7.52142V7.5554V7.58955V7.62386V7.65832V7.69295V7.72774V7.76268V7.79778V7.83304V7.86846V7.90403V7.93976V7.97565V8.01169V8.04788V8.08423V8.12073V8.15738V8.19419V8.23115V8.26826V8.30551V8.34292V8.38048V8.41819V8.45605V8.49405V8.5322V8.5705V8.60895V8.64754V8.68627V8.72515V8.76418V8.80335V8.84266V8.88212V8.92171V8.96145V9.00133V9.04135V9.08151V9.12181V9.16225V9.20283V9.24355V9.2844V9.32539V9.36652V9.40778V9.44918V9.49071V9.53238V9.57418V9.61611V9.65818V9.70037V9.74271V9.78517V9.82776V9.87048V9.91333V9.95631V9.99942V10.0427V10.086V10.1295V10.1731V10.2169V10.2607V10.3047V10.3489V10.3931V10.4375V10.4819V10.5266V10.5713V10.6161V10.6611V10.7062V10.7514V10.7967V10.8422V10.8878V10.9334V10.9792V11.0252V11.0712V11.1173V11.1636V11.21V11.2565V11.3031V11.3498V11.3966V11.4436V11.4906V11.5378V11.5851V11.6324V11.6799V11.7275V11.7752V11.8231V11.871V11.919V11.9671V12.0154V12.0637V12.1122V12.1607V12.2094V12.2581V12.307V12.356V12.405V12.4542V12.5034V12.5528V12.6023V12.6518V12.7015V12.7512V12.8011V12.851V12.9011V12.9512V13.0014V13.0518V13.1022V13.1527V13.2033V13.254V13.3048V13.3557V13.4067V13.4577V13.5089V13.5601V13.6114V13.6629V13.7144V13.766V13.8176V13.8694V13.9212V13.9732V14.0252V14.0773V14.1295V14.1817V14.2341V14.2865V14.339V14.3916V14.4443V14.497V14.5499V14.6028V14.6558V14.7088V14.762V14.8152V14.8685V14.9218V14.9753V15.0288V15.0824V15.136V15.1898V15.2436V15.2975V15.3514V15.4054V15.4595V15.5137V15.5679V15.6222V15.6766V15.731V15.7855V15.8401V15.8947V15.9494V16.0041V16.059V16.1138V16.1688V16.2238V16.2789V16.334V16.3892V16.4445V16.4998V16.5552V16.6106V16.6661V16.7216V16.7773V16.8329V16.8886V16.9444V17.0003V17.0561V17.1121V17.1681V17.2241V17.2802V17.3364V17.3926V17.4488V17.5051V17.5615V17.6179V17.6744V17.7309V17.7874V17.844V17.9006V17.9573V18.0141V18.0708V18.1277V18.1845V18.2415V18.2984V18.3554V18.4124V18.4695V18.5266V18.5838V18.641V18.6983V18.7555V18.8129V18.8702V18.9276V18.985V19.0425V19.1V19.1575V19.2151V19.2727V19.3304V19.388V19.4457V19.5035V19.5612V19.619V19.6769V19.7347V19.7926V19.8505V19.9085V19.9664V20.0244V20.0825V20.1405V20.1986V20.2567V20.3148V20.373V20.4312V20.4894V20.5476V20.6058V20.6641V20.7224V20.7807V20.839V20.8974V20.9557V21.0141V21.0725V21.1309V21.1893V21.2478V21.3063V21.3647V21.4232V21.4817V21.5403V21.5988V21.6573V21.7159V21.7745V21.8331V21.8916V21.9502V22.0089V22.0675V22.1261V22.1847V22.2434V22.302V22.3607V22.4193V22.478V22.5367V22.5954V22.654V22.7127V22.7714V22.8301V22.8888V22.9475V23.0061V23.0648V23.1235V23.1822V23.2409V23.2996V23.3582V23.4169V23.4756V23.5342V23.5929V23.6516V23.7102V23.7689V23.8275V23.8861V23.9447V24.0033V24.062V24.1205V24.1791V24.2377V24.2963V24.3548V24.4133V24.4719V24.5304V24.5889V24.6473V24.7058V24.7643V24.8227V24.8811V24.9395V24.9979V25.0563V25.1146V25.1729V25.2312V25.2895V25.3478V25.406V25.4643V25.5225V25.5806V25.6388V25.6969V25.755V25.8131V25.8712V25.9292V25.9872V26.0452V26.1031V26.161V26.2189V26.2768V26.3346V26.3924V26.4502V26.5079V26.5656V26.6233V26.6809V26.7385V26.7961V26.8537V26.9112V26.9686V27.0261V27.0835V27.1408V27.1981V27.2554V27.3127V27.3699V27.427V27.4842V27.5412V27.5983V27.6553V27.7122V27.7692V27.826V27.8829V27.9396V27.9964V28.0531V28.1097V28.1663V28.2229V28.2794V28.3358V28.3922V28.4486V28.5049V28.5612V28.6174V28.6735V28.7296V28.7857V28.8417V28.8976V28.9535V29.0093V29.0651V29.1209V29.1765V29.2321V29.2877V29.3432V29.3986V29.454V29.5093V29.5646V29.6198V29.6749V29.73V29.785V29.84V29.8949V29.9497V30.0045V30.0592V30.1138V30.1684V30.2229V30.2773V30.3317V30.386V30.4402V30.4944V30.5485V30.6025V30.6564V30.7103V30.7641V30.8179V30.8715V30.9251V30.9786V31.0321V31.0855V31.1388V31.192V31.2451V31.2982V31.3512V31.4041V31.4569V31.5097V31.5624V31.6149V31.6675V31.7199V31.7722V31.8245V31.8767V31.9288V31.9808V32.0328V32.0846V32.1364V32.1881V32.2397V32.2912V32.3426V32.3939V32.4452V32.4963V32.5474V32.5984V32.6493V32.7001V32.7508V32.8014V32.8519V32.9023V32.9527V33.0029V33.053V33.1031V33.153V33.2029V33.2527V33.3023V33.3519V33.4014V33.4507V33.5C1248 37.832 1246.45 40.3791 1244.41 41.7522C1242.42 43.0881 1240.07 43.2542 1238.48 43.0026L1052.65 54.9918L760.743 215.938L760.671 215.977L760.591 215.992C626.252 240.326 356.594 289.191 352.6 289.99C350.58 290.394 349.054 290.565 347.961 290.612C346.89 290.658 346.186 290.589 345.843 290.474L345.833 290.471C236.504 251.306 15.432 172.07 5.82739 168.468L5.79664 168.457L5.76766 168.441C-0.314116 165.198 -0.729284 160.901 0.00295469 158.908V158.864V158.818V158.772V158.726V158.68V158.633V158.586V158.539V158.492V158.444V158.396V158.348V158.3V158.251V158.202V158.153V158.104V158.055V158.005V157.955V157.905V157.855V157.804V157.753V157.702V157.651V157.6V157.548V157.496V157.444V157.392V157.339V157.287V157.234V157.18V157.127V157.074V157.02V156.966V156.912V156.857V156.803V156.748V156.693V156.638V156.582V156.526V156.471V156.415V156.358V156.302V156.245V156.189V156.132V156.074V156.017V155.959V155.901V155.843V155.785V155.727V155.668V155.61V155.551V155.492V155.432V155.373V155.313V155.253V155.193V155.133V155.072V155.012V154.951V154.89V154.829V154.768V154.706V154.644V154.582V154.52V154.458V154.396V154.333V154.271V154.208V154.145V154.081V154.018V153.954V153.891V153.827V153.763V153.698V153.634V153.569V153.505V153.44V153.375V153.309V153.244V153.178V153.113V153.047V152.981V152.915V152.848V152.782V152.715V152.648V152.581V152.514V152.447V152.38V152.312V152.244V152.177V152.109V152.04V151.972V151.904V151.835V151.766V151.698V151.629V151.559V151.49V151.421V151.351V151.281V151.212V151.142V151.071V151.001V150.931V150.86V150.79V150.719V150.648V150.577V150.506V150.435V150.363V150.292V150.22V150.148V150.076V150.004V149.932V149.86V149.787V149.715V149.642V149.569V149.496V149.423V149.35V149.277V149.204V149.13V149.057V148.983V148.909V148.835V148.761V148.687V148.613V148.539V148.464V148.389V148.315V148.24V148.165V148.09V148.015V147.94V147.865V147.789V147.714V147.638V147.562V147.487V147.411V147.335V147.259V147.183V147.106V147.03V146.953V146.877V146.8V146.724V146.647V146.57V146.493V146.416V146.339V146.261V146.184V146.107V146.029V145.952V145.874V145.796V145.719V145.641V145.563V145.485V145.407V145.328V145.25V145.172V145.093V145.015V144.936V144.858V144.779V144.7V144.621V144.542V144.463V144.384V144.305V144.226V144.147V144.068V143.988V143.909V143.829V143.75V143.67V143.591V143.511V143.431V143.351V143.271V143.191V143.111V143.031V142.951V142.871V142.791V142.711V142.63V142.55V142.47V142.389V142.309V142.228V142.148V142.067V141.986V141.906V141.825V141.744V141.663V141.583V141.502V141.421V141.34V141.259V141.178V141.097V141.015V140.934V140.853V140.772V140.691V140.609V140.528V140.447V140.365V140.284V140.203V140.121V140.04V139.958V139.877V139.795V139.714V139.632V139.551V139.469V139.387V139.306V139.224V139.143V139.061V138.979V138.897V138.816V138.734V138.652V138.57V138.489V138.407V138.325V138.243V138.162V138.08V137.998V137.916V137.834V137.753V137.671V137.589V137.507V137.425V137.344V137.262V137.18V137.098V137.016V136.935V136.853V136.771V136.689V136.607V136.526V136.444V136.362V136.28V136.199V136.117V136.035V135.954V135.872V135.79V135.709V135.627V135.546V135.464V135.383V135.301V135.22V135.138V135.057V134.975V134.894V134.812V134.731V134.65V134.568V134.487V134.406V134.325V134.244V134.162V134.081V134V133.919V133.838V133.757V133.676V133.595V133.515V133.434V133.353V133.272V133.191V133.111V133.03V132.95V132.869V132.789V132.708V132.628V132.547V132.467V132.387V132.307V132.227V132.147V132.066V131.986V131.907V131.827V131.747V131.667V131.587V131.508V131.428V131.349V131.269V131.19V131.11V131.031V130.952V130.873V130.794V130.715V130.636V130.557V130.478V130.399V130.32V130.242V130.163V130.085V130.006V129.928V129.85V129.771V129.693V129.615V129.537V129.459V129.382V129.304V129.226V129.149V129.071V128.994V128.917V128.839V128.762V128.685V128.608V128.531V128.454V128.378V128.301V128.225V128.148V128.072V127.996V127.919V127.843V127.767V127.691V127.616V127.54V127.464V127.389V127.313V127.238V127.163V127.088V127.013V126.938V126.863V126.789V126.714V126.64V126.565V126.491V126.417V126.343V126.269V126.195V126.121V126.048V125.974V125.901V125.828V125.755V125.682V125.609V125.536V125.463V125.391V125.318V125.246V125.174V125.102V125.03V124.958V124.887V124.815V124.744V124.672V124.601V124.53V124.459V124.389V124.318V124.247V124.177V124.107V124.037V123.967V123.897V123.827V123.758V123.688V123.619V123.55V123.481V123.412V123.343V123.275V123.206V123.138V123.07V123.002V122.934V122.866V122.799V122.731V122.664V122.597V122.53V122.463V122.397V122.33V122.264V122.198V122.132V122.066V122V121.976L0.00520694 121.953C0.414734 117.653 1.96571 115.274 3.85335 114.112C5.71282 112.967 7.78771 113.074 9.14113 113.519L350.532 196.992L760.355 145.515L1052.28 0.0524803L1052.38 0ZM1052.62 1L760.725 146.448L760.648 146.485L760.564 146.496L350.565 197.996L350.474 198.008L350.384 197.986L8.8842 114.486L8.86429 114.481L8.84484 114.474C7.69776 114.092 5.93394 114.005 4.37756 114.963C2.84314 115.908 1.39672 117.94 1.00295 122.024V122.066V122.132V122.198V122.264V122.33V122.397V122.463V122.53V122.597V122.664V122.731V122.799V122.866V122.934V123.002V123.07V123.138V123.206V123.275V123.343V123.412V123.481V123.55V123.619V123.688V123.758V123.827V123.897V123.967V124.037V124.107V124.177V124.247V124.318V124.389V124.459V124.53V124.601V124.672V124.744V124.815V124.887V124.958V125.03V125.102V125.174V125.246V125.318V125.391V125.463V125.536V125.609V125.682V125.755V125.828V125.901V125.974V126.048V126.121V126.195V126.269V126.343V126.417V126.491V126.565V126.64V126.714V126.789V126.863V126.938V127.013V127.088V127.163V127.238V127.313V127.389V127.464V127.54V127.616V127.691V127.767V127.843V127.919V127.996V128.072V128.148V128.225V128.301V128.378V128.454V128.531V128.608V128.685V128.762V128.839V128.917V128.994V129.071V129.149V129.226V129.304V129.382V129.459V129.537V129.615V129.693V129.771V129.85V129.928V130.006V130.085V130.163V130.242V130.32V130.399V130.478V130.557V130.636V130.715V130.794V130.873V130.952V131.031V131.11V131.19V131.269V131.349V131.428V131.508V131.587V131.667V131.747V131.827V131.907V131.986V132.066V132.147V132.227V132.307V132.387V132.467V132.547V132.628V132.708V132.789V132.869V132.95V133.03V133.111V133.191V133.272V133.353V133.434V133.515V133.595V133.676V133.757V133.838V133.919V134V134.081V134.162V134.244V134.325V134.406V134.487V134.568V134.65V134.731V134.812V134.894V134.975V135.057V135.138V135.22V135.301V135.383V135.464V135.546V135.627V135.709V135.79V135.872V135.954V136.035V136.117V136.199V136.28V136.362V136.444V136.526V136.607V136.689V136.771V136.853V136.935V137.016V137.098V137.18V137.262V137.344V137.425V137.507V137.589V137.671V137.753V137.834V137.916V137.998V138.08V138.162V138.243V138.325V138.407V138.489V138.57V138.652V138.734V138.816V138.897V138.979V139.061V139.143V139.224V139.306V139.387V139.469V139.551V139.632V139.714V139.795V139.877V139.958V140.04V140.121V140.203V140.284V140.365V140.447V140.528V140.609V140.691V140.772V140.853V140.934V141.015V141.097V141.178V141.259V141.34V141.421V141.502V141.583V141.663V141.744V141.825V141.906V141.986V142.067V142.148V142.228V142.309V142.389V142.47V142.55V142.63V142.711V142.791V142.871V142.951V143.031V143.111V143.191V143.271V143.351V143.431V143.511V143.591V143.67V143.75V143.829V143.909V143.988V144.068V144.147V144.226V144.305V144.384V144.463V144.542V144.621V144.7V144.779V144.858V144.936V145.015V145.093V145.172V145.25V145.328V145.407V145.485V145.563V145.641V145.719V145.796V145.874V145.952V146.029V146.107V146.184V146.261V146.339V146.416V146.493V146.57V146.647V146.724V146.8V146.877V146.953V147.03V147.106V147.183V147.259V147.335V147.411V147.487V147.562V147.638V147.714V147.789V147.865V147.94V148.015V148.09V148.165V148.24V148.315V148.389V148.464V148.539V148.613V148.687V148.761V148.835V148.909V148.983V149.057V149.13V149.204V149.277V149.35V149.423V149.496V149.569V149.642V149.715V149.787V149.86V149.932V150.004V150.076V150.148V150.22V150.292V150.363V150.435V150.506V150.577V150.648V150.719V150.79V150.86V150.931V151.001V151.071V151.142V151.212V151.281V151.351V151.421V151.49V151.559V151.629V151.698V151.766V151.835V151.904V151.972V152.04V152.109V152.177V152.244V152.312V152.38V152.447V152.514V152.581V152.648V152.715V152.782V152.848V152.915V152.981V153.047V153.113V153.178V153.244V153.309V153.375V153.44V153.505V153.569V153.634V153.698V153.763V153.827V153.891V153.954V154.018V154.081V154.145V154.208V154.271V154.333V154.396V154.458V154.52V154.582V154.644V154.706V154.768V154.829V154.89V154.951V155.012V155.072V155.133V155.193V155.253V155.313V155.373V155.432V155.492V155.551V155.61V155.668V155.727V155.785V155.843V155.901V155.959V156.017V156.074V156.132V156.189V156.245V156.302V156.358V156.415V156.471V156.526V156.582V156.638V156.693V156.748V156.803V156.857V156.912V156.966V157.02V157.074V157.127V157.18V157.234V157.287V157.339V157.392V157.444V157.496V157.548V157.6V157.651V157.702V157.753V157.804V157.855V157.905V157.955V158.005V158.055V158.104V158.153V158.202V158.251V158.3V158.348V158.396V158.444V158.492V158.539V158.586V158.633V158.68V158.726V158.772V158.818V158.864V158.91V158.955V159V159.096L0.967193 159.186C0.414542 160.567 0.41667 164.441 6.20936 167.543C16.2369 171.296 236.939 250.399 346.164 289.527C346.326 289.579 346.872 289.658 347.917 289.613C348.949 289.568 350.423 289.406 352.403 289.01C356.409 288.209 625.977 239.36 760.332 215.023L1052.26 54.0621L1052.36 54.0082L1052.47 54.001L1238.47 42.001L1238.53 41.9973L1238.58 42.0068C1239.99 42.2419 1242.11 42.0956 1243.85 40.9228C1245.56 39.7709 1247 37.568 1247 33.5V33.4507V33.4014V33.3519V33.3023V33.2527V33.2029V33.153V33.1031V33.053V33.0029V32.9527V32.9023V32.8519V32.8014V32.7508V32.7001V32.6493V32.5984V32.5474V32.4963V32.4452V32.3939V32.3426V32.2912V32.2397V32.1881V32.1364V32.0846V32.0328V31.9808V31.9288V31.8767V31.8245V31.7722V31.7199V31.6675V31.6149V31.5624V31.5097V31.4569V31.4041V31.3512V31.2982V31.2451V31.192V31.1388V31.0855V31.0321V30.9786V30.9251V30.8715V30.8179V30.7641V30.7103V30.6564V30.6025V30.5485V30.4944V30.4402V30.386V30.3317V30.2773V30.2229V30.1684V30.1138V30.0592V30.0045V29.9497V29.8949V29.84V29.785V29.73V29.6749V29.6198V29.5646V29.5093V29.454V29.3986V29.3432V29.2877V29.2321V29.1765V29.1209V29.0651V29.0093V28.9535V28.8976V28.8417V28.7857V28.7296V28.6735V28.6174V28.5612V28.5049V28.4486V28.3922V28.3358V28.2794V28.2229V28.1663V28.1097V28.0531V27.9964V27.9396V27.8829V27.826V27.7692V27.7122V27.6553V27.5983V27.5412V27.4842V27.427V27.3699V27.3127V27.2554V27.1981V27.1408V27.0835V27.0261V26.9686V26.9112V26.8537V26.7961V26.7385V26.6809V26.6233V26.5656V26.5079V26.4502V26.3924V26.3346V26.2768V26.2189V26.161V26.1031V26.0452V25.9872V25.9292V25.8712V25.8131V25.755V25.6969V25.6388V25.5806V25.5225V25.4643V25.406V25.3478V25.2895V25.2312V25.1729V25.1146V25.0563V24.9979V24.9395V24.8811V24.8227V24.7643V24.7058V24.6473V24.5889V24.5304V24.4719V24.4133V24.3548V24.2963V24.2377V24.1791V24.1205V24.062V24.0033V23.9447V23.8861V23.8275V23.7689V23.7102V23.6516V23.5929V23.5342V23.4756V23.4169V23.3582V23.2996V23.2409V23.1822V23.1235V23.0648V23.0061V22.9475V22.8888V22.8301V22.7714V22.7127V22.654V22.5954V22.5367V22.478V22.4193V22.3607V22.302V22.2434V22.1847V22.1261V22.0675V22.0089V21.9502V21.8916V21.8331V21.7745V21.7159V21.6573V21.5988V21.5403V21.4817V21.4232V21.3647V21.3063V21.2478V21.1893V21.1309V21.0725V21.0141V20.9557V20.8974V20.839V20.7807V20.7224V20.6641V20.6058V20.5476V20.4894V20.4312V20.373V20.3148V20.2567V20.1986V20.1405V20.0825V20.0244V19.9664V19.9085V19.8505V19.7926V19.7347V19.6769V19.619V19.5612V19.5035V19.4457V19.388V19.3304V19.2727V19.2151V19.1575V19.1V19.0425V18.985V18.9276V18.8702V18.8129V18.7555V18.6983V18.641V18.5838V18.5266V18.4695V18.4124V18.3554V18.2984V18.2415V18.1845V18.1277V18.0708V18.0141V17.9573V17.9006V17.844V17.7874V17.7309V17.6744V17.6179V17.5615V17.5051V17.4488V17.3926V17.3364V17.2802V17.2241V17.1681V17.1121V17.0561V17.0003V16.9444V16.8886V16.8329V16.7773V16.7216V16.6661V16.6106V16.5552V16.4998V16.4445V16.3892V16.334V16.2789V16.2238V16.1688V16.1138V16.059V16.0041V15.9494V15.8947V15.8401V15.7855V15.731V15.6766V15.6222V15.5679V15.5137V15.4595V15.4054V15.3514V15.2975V15.2436V15.1898V15.136V15.0824V15.0288V14.9753V14.9218V14.8685V14.8152V14.762V14.7088V14.6558V14.6028V14.5499V14.497V14.4443V14.3916V14.339V14.2865V14.2341V14.1817V14.1295V14.0773V14.0252V13.9732V13.9212V13.8694V13.8176V13.766V13.7144V13.6629V13.6114V13.5601V13.5089V13.4577V13.4067V13.3557V13.3048V13.254V13.2033V13.1527V13.1022V13.0518V13.0014V12.9512V12.9011V12.851V12.8011V12.7512V12.7015V12.6518V12.6023V12.5528V12.5034V12.4542V12.405V12.356V12.307V12.2581V12.2094V12.1607V12.1122V12.0637V12.0154V11.9671V11.919V11.871V11.8231V11.7752V11.7275V11.6799V11.6324V11.5851V11.5378V11.4906V11.4436V11.3966V11.3498V11.3031V11.2565V11.21V11.1636V11.1173V11.0712V11.0252V10.9792V10.9334V10.8878V10.8422V10.7967V10.7514V10.7062V10.6611V10.6161V10.5713V10.5266V10.4819V10.4375V10.3931V10.3489V10.3047V10.2607V10.2169V10.1731V10.1295V10.086V10.0427V9.99942V9.95631V9.91333V9.87048V9.82776V9.78517V9.74271V9.70037V9.65818V9.61611V9.57418V9.53238V9.49071V9.44918V9.40778V9.36652V9.32539V9.2844V9.24355V9.20283V9.16225V9.12181V9.08151V9.04135V9.00133V8.96145V8.92171V8.88212V8.84266V8.80335V8.76418V8.72515V8.68627V8.64754V8.60895V8.5705V8.5322V8.49405V8.45605V8.41819V8.38048V8.34292V8.30551V8.26826V8.23115V8.19419V8.15738V8.12073V8.08423V8.04788V8.01169V7.97565V7.93976V7.90403V7.86846V7.83304V7.79778V7.76268V7.72774V7.69295V7.65832V7.62386V7.58955V7.5554V7.52142V7.48759V7.45393V7.42043V7.3871V7.35393V7.32092V7.28808V7.2554V7.22289V7.19054V7.15837V7.12636V7.09451V7.06284V7.03133V7V6.96176L1247.01 6.92397C1247.16 5.95571 1246.98 4.48385 1245.94 3.25979C1244.92 2.04924 1243 1 1239.5 1H1239.46H1239.41H1239.36H1239.31H1239.26H1239.2H1239.14H1239.08H1239.02H1238.95H1238.88H1238.81H1238.74H1238.66H1238.58H1238.5H1238.42H1238.33H1238.24H1238.15H1238.06H1237.96H1237.86H1237.76H1237.66H1237.55H1237.44H1237.33H1237.22H1237.1H1236.99H1236.87H1236.74H1236.62H1236.49H1236.36H1236.23H1236.1H1235.96H1235.82H1235.68H1235.54H1235.39H1235.25H1235.1H1234.94H1234.79H1234.63H1234.47H1234.31H1234.15H1233.99H1233.82H1233.65H1233.48H1233.3H1233.13H1232.95H1232.77H1232.58H1232.4H1232.21H1232.02H1231.83H1231.64H1231.44H1231.25H1231.05H1230.85H1230.64H1230.44H1230.23H1230.02H1229.81H1229.59H1229.38H1229.16H1228.94H1228.72H1228.5H1228.27H1228.04H1227.81H1227.58H1227.35H1227.11H1226.88H1226.64H1226.4H1226.15H1225.91H1225.66H1225.41H1225.16H1224.91H1224.66H1224.4H1224.14H1223.88H1223.62H1223.36H1223.09H1222.82H1222.56H1222.29H1222.01H1221.74H1221.46H1221.19H1220.91H1220.62H1220.34H1220.06H1219.77H1219.48H1219.19H1218.9H1218.61H1218.31H1218.02H1217.72H1217.42H1217.12H1216.82H1216.51H1216.21H1215.9H1215.59H1215.28H1214.97H1214.65H1214.34H1214.02H1213.7H1213.38H1213.06H1212.73H1212.41H1212.08H1211.75H1211.43H1211.09H1210.76H1210.43H1210.09H1209.76H1209.42H1209.08H1208.74H1208.39H1208.05H1207.7H1207.36H1207.01H1206.66H1206.31H1205.96H1205.6H1205.25H1204.89H1204.53H1204.17H1203.81H1203.45H1203.09H1202.72H1202.36H1201.99H1201.62H1201.25H1200.88H1200.51H1200.14H1199.76H1199.39H1199.01H1198.63H1198.25H1197.87H1197.49H1197.1H1196.72H1196.33H1195.95H1195.56H1195.17H1194.78H1194.39H1194H1193.6H1193.21H1192.81H1192.42H1192.02H1191.62H1191.22H1190.82H1190.42H1190.01H1189.61H1189.2H1188.8H1188.39H1187.98H1187.57H1187.16H1186.75H1186.34H1185.93H1185.51H1185.1H1184.68H1184.26H1183.85H1183.43H1183.01H1182.59H1182.16H1181.74H1181.32H1180.89H1180.47H1180.04H1179.62H1179.19H1178.76H1178.33H1177.9H1177.47H1177.04H1176.6H1176.17H1175.74H1175.3H1174.87H1174.43H1173.99H1173.55H1173.12H1172.68H1172.24H1171.8H1171.35H1170.91H1170.47H1170.02H1169.58H1169.14H1168.69H1168.24H1167.8H1167.35H1166.9H1166.45H1166H1165.55H1165.1H1164.65H1164.2H1163.75H1163.29H1162.84H1162.38H1161.93H1161.47H1161.02H1160.56H1160.11H1159.65H1159.19H1158.73H1158.27H1157.82H1157.36H1156.9H1156.43H1155.97H1155.51H1155.05H1154.59H1154.13H1153.66H1153.2H1152.74H1152.27H1151.81H1151.34H1150.88H1150.41H1149.94H1149.48H1149.01H1148.54H1148.08H1147.61H1147.14H1146.67H1146.21H1145.74H1145.27H1144.8H1144.33H1143.86H1143.39H1142.92H1142.45H1141.98H1141.51H1141.04H1140.57H1140.09H1139.62H1139.15H1138.68H1138.21H1137.73H1137.26H1136.79H1136.32H1135.85H1135.37H1134.9H1134.43H1133.95H1133.48H1133.01H1132.54H1132.06H1131.59H1131.12H1130.64H1130.17H1129.7H1129.22H1128.75H1128.28H1127.8H1127.33H1126.86H1126.38H1125.91H1125.44H1124.97H1124.49H1124.02H1123.55H1123.07H1122.6H1122.13H1121.66H1121.19H1120.71H1120.24H1119.77H1119.3H1118.83H1118.36H1117.89H1117.42H1116.95H1116.48H1116.01H1115.54H1115.07H1114.6H1114.13H1113.66H1113.19H1112.72H1112.26H1111.79H1111.32H1110.85H1110.39H1109.92H1109.45H1108.99H1108.52H1108.06H1107.59H1107.13H1106.67H1106.2H1105.74H1105.28H1104.81H1104.35H1103.89H1103.43H1102.97H1102.51H1102.05H1101.59H1101.13H1100.67H1100.22H1099.76H1099.3H1098.85H1098.39H1097.93H1097.48H1097.03H1096.57H1096.12H1095.67H1095.21H1094.76H1094.31H1093.86H1093.41H1092.96H1092.52H1092.07H1091.62H1091.17H1090.73H1090.28H1089.84H1089.4H1088.95H1088.51H1088.07H1087.63H1087.19H1086.75H1086.31H1085.87H1085.43H1085H1084.56H1084.13H1083.69H1083.26H1082.83H1082.39H1081.96H1081.53H1081.1H1080.67H1080.25H1079.82H1079.39H1078.97H1078.54H1078.12H1077.7H1077.28H1076.86H1076.44H1076.02H1075.6H1075.18H1074.77H1074.35H1073.94H1073.52H1073.11H1072.7H1072.29H1071.88H1071.47H1071.06H1070.66H1070.25H1069.85H1069.44H1069.04H1068.64H1068.24H1067.84H1067.44H1067.05H1066.65H1066.26H1065.86H1065.47H1065.08H1064.69H1064.3H1063.91H1063.53H1063.14H1062.76H1062.37H1061.99H1061.61H1061.23H1060.85H1060.47H1060.1H1059.72H1059.35H1058.98H1058.61H1058.24H1057.87H1057.5H1057.14H1056.77H1056.41H1056.05H1055.69H1055.33H1054.97H1054.61H1054.26H1053.9H1053.55H1053.2H1052.85H1052.62Z" fill="#312D2D"/>
</g>
<defs>
<clipPath id="clip0_663_5835">
<rect width="1248" height="291" />
</clipPath>
</defs>
</svg>
