<svg width="1175" height="279" viewBox="0 0 1175 279" fill="none" xmlns="http://www.w3.org/2000/svg">
<path d="M988.28 1.77786L988.276 1.77789C987.307 1.77609 986.351 2.00015 985.484 2.43228L985.483 2.43262L710.33 139.027L710.328 139.028C709.585 139.392 708.787 139.628 707.967 139.728L315.643 188.444C315.638 188.445 315.633 188.446 315.628 188.447C314.756 188.606 313.862 188.605 312.99 188.444L312.975 188.442L312.961 188.438L-12.6152 108.994C-13.5537 108.765 -14.5317 108.752 -15.4758 108.957C-16.4199 109.162 -17.3053 109.578 -18.0648 110.176C-18.8243 110.773 -19.4384 111.536 -19.8602 112.405C-20.2821 113.275 -20.5007 114.229 -20.5 115.197V154.511C-20.4967 155.821 -20.0914 157.1 -19.3387 158.173C-18.5861 159.247 -17.5226 160.063 -16.2916 160.512L310.234 278.046L310.241 278.049L310.248 278.052C311.294 278.464 312.43 278.595 313.542 278.431C313.545 278.431 313.547 278.431 313.55 278.43L707.871 206.493L707.874 206.492C708.553 206.372 709.206 206.134 709.804 205.79L709.811 205.786L985.313 53.3978C985.314 53.3974 985.314 53.3971 985.315 53.3967C986.212 52.8892 987.207 52.5806 988.233 52.4919L988.244 52.491L1168.53 40.6913L1168.53 40.6913C1170.16 40.5879 1171.69 39.8603 1172.8 38.6588C1173.91 37.4574 1174.52 35.8742 1174.5 34.237L1174.5 34.2301L1174.5 6.7749C1174.47 5.09521 1173.77 3.49619 1172.57 2.32245C1171.37 1.14795 1169.75 0.4935 1168.08 0.500031L988.28 1.77786ZM988.28 1.77786L1168.07 0.500031L988.28 1.77786Z" stroke="#EE3A23"/>
</svg>
