<svg width="630" height="160" viewBox="0 0 630 160" fill="none" xmlns="http://www.w3.org/2000/svg">
<g clip-path="url(#clip0_34_518)">
<path d="M-4.67716 226.714L108.717 239.232C109.399 239.301 110.088 239.213 110.732 238.976L283.623 173.637C284.105 173.461 284.613 173.369 285.126 173.364L532.168 171.469L738.889 174.235C739.461 174.242 740.028 174.135 740.558 173.921C741.089 173.707 741.571 173.39 741.978 172.988C742.384 172.586 742.707 172.107 742.927 171.58C743.148 171.052 743.261 170.486 743.261 169.915V145.204C743.261 144.152 742.878 143.137 742.183 142.348C741.488 141.559 740.53 141.05 739.487 140.917L532.594 114.328C532.316 114.302 532.036 114.302 531.758 114.328L285.109 130.432C284.608 130.466 284.117 130.587 283.657 130.79L110.698 206.477C110.074 206.75 109.396 206.873 108.717 206.836L-3.87452 200.586C-4.47518 200.54 -5.07865 200.621 -5.64649 200.822C-6.21434 201.023 -6.73411 201.34 -7.17269 201.753C-7.61127 202.166 -7.95906 202.665 -8.19389 203.22C-8.42872 203.775 -8.54545 204.372 -8.53665 204.974V222.479C-8.51814 223.533 -8.11611 224.545 -7.40575 225.324C-6.69539 226.104 -5.72538 226.598 -4.67716 226.714Z" fill="#EE3A23"/>
<path d="M-4.18196 175.244L108.836 174.442C109.494 174.443 110.143 174.291 110.732 173.998L283.691 88.2007C284.126 87.9876 284.594 87.849 285.075 87.7909L531.706 57.1882C532.22 57.0939 532.747 57.0939 533.26 57.1882L737.916 107.088C738.552 107.244 739.215 107.252 739.855 107.114C740.495 106.975 741.095 106.693 741.61 106.288C742.125 105.883 742.541 105.367 742.827 104.778C743.113 104.189 743.262 103.542 743.261 102.887V78.1934C743.259 77.3055 742.984 76.4396 742.474 75.7128C741.964 74.9859 741.243 74.4331 740.409 74.129L535.156 0.30345C534.446 0.0234087 533.674 -0.0649316 532.919 0.0472897L285.041 45.234C284.578 45.3162 284.133 45.478 283.726 45.7122L110.544 141.431C110.019 141.728 109.437 141.908 108.836 141.96L-4.48935 149.372C-5.59614 149.442 -6.63363 149.935 -7.38703 150.749C-8.14043 151.563 -8.55206 152.635 -8.53669 153.744V170.992C-8.51429 172.13 -8.04507 173.214 -7.23034 174.01C-6.4156 174.806 -5.32069 175.249 -4.18196 175.244Z" fill="#EE3A23"/>
<path d="M-8.5368 119.316V102.375C-8.53694 101.362 -8.18134 100.382 -7.53211 99.6043C-6.88287 98.8271 -5.98126 98.3027 -4.98471 98.1225L104.652 78.0737C105.277 77.9587 105.919 77.9822 106.533 78.1426C107.148 78.303 107.719 78.5963 108.208 79.0019C108.697 79.4074 109.09 79.9153 109.361 80.4897C109.632 81.0641 109.773 81.6909 109.775 82.326V105.722C109.771 106.775 109.384 107.79 108.687 108.579C107.989 109.368 107.029 109.876 105.984 110.008L-3.65267 123.67C-4.26787 123.748 -4.89269 123.694 -5.48498 123.51C-6.07727 123.326 -6.62327 123.018 -7.08615 122.605C-7.54903 122.192 -7.91804 121.685 -8.16828 121.118C-8.41852 120.55 -8.54419 119.936 -8.5368 119.316Z" fill="#EE3A23"/>
</g>
<defs>
<clipPath id="clip0_34_518">
<rect width="630" height="160" fill="white"/>
</clipPath>
</defs>
</svg>
