<svg width="67" height="55" viewBox="0 0 67 55" fill="none" xmlns="http://www.w3.org/2000/svg">
<path d="M28.08 9.15343C18 9.63343 10.32 16.1134 10.8 27.1534C12.24 26.6734 13.92 26.4334 16.08 26.4334C24.24 26.4334 29.52 30.9934 29.52 39.8734C29.52 48.5134 24.24 54.0334 15.36 54.0334C6.24 53.7934 0 47.7934 0 32.9134C0 18.9934 5.04 -0.926564 28.08 0.0334376V9.15343ZM37.68 32.9134C37.68 18.9934 42.48 -0.926564 65.52 0.0334376V9.15343C55.44 9.63343 48 16.1134 48.48 27.1534C49.92 26.6734 51.6 26.4334 53.52 26.4334C61.68 26.4334 66.96 30.9934 66.96 39.8734C66.96 48.5134 61.92 54.0334 52.8 54.0334C43.68 53.7934 37.68 47.7934 37.68 32.9134Z" fill="#312D2D"/>
</svg>
