<svg width="345" height="222" fill="none" xmlns="http://www.w3.org/2000/svg"><path opacity=".1" fill="#312D2D" d="M0 0h345v222H0z"/><g clip-path="url(#clip0_18_219)"><path fill-rule="evenodd" clip-rule="evenodd" d="M120.59 96.076a16.104 16.104 0 00-8.953 1.704c-2.722 1.412-4.907 3.57-6.252 6.179a13.084 13.084 0 00-1.262 8.391c.525 2.85 1.989 5.48 4.191 7.528 2.203 2.048 5.036 3.413 8.109 3.908a16.17 16.17 0 009.056-1.144c2.819-1.239 5.154-3.257 6.685-5.776 1.531-2.519 2.183-5.416 1.866-8.293-.349-3.198-1.876-6.186-4.324-8.462s-5.667-3.701-9.116-4.035zm-.489 21.327a8.604 8.604 0 01-4.852-.807c-1.487-.733-2.688-1.879-3.436-3.277a6.981 6.981 0 01-.732-4.518c.271-1.541 1.056-2.963 2.245-4.068 1.188-1.106 2.72-1.838 4.381-2.094a8.621 8.621 0 014.877.665c1.511.689 2.751 1.799 3.546 3.174a7 7 0 01.886 4.495c-.229 1.628-1.031 3.14-2.281 4.302-1.251 1.162-2.879 1.91-4.634 2.128zm22.005-20.773a3.76 3.76 0 00-1.513.32 3.49 3.49 0 00-1.217.892c-.33.377-.564.818-.687 1.29-.122.472-.13.964-.022 1.439.332 1.538 1.882 2.59 3.572 2.59h9.802l-15.255 18.713a.885.885 0 00-.199.475.869.869 0 00.1.501c.082.155.21.286.369.378.159.092.342.141.529.141h23.929c1.688 0 3.239-1.051 3.571-2.59a3.028 3.028 0 00-.022-1.438 3.16 3.16 0 00-.686-1.29 3.49 3.49 0 00-1.217-.892 3.762 3.762 0 00-1.513-.321h-11.943l15.243-18.698a.896.896 0 00.201-.48.878.878 0 00-.101-.506.966.966 0 00-.373-.381 1.074 1.074 0 00-.534-.143h-22.034zm95.62.076a3.615 3.615 0 00-1.997 1.19 3.163 3.163 0 00-.752 2.087v10.873l-19.007-14.02a1.078 1.078 0 00-1.069-.11.987.987 0 00-.417.347.881.881 0 00-.153.499v22.45a3.158 3.158 0 00.752 2.087 3.618 3.618 0 001.996 1.191 3.801 3.801 0 001.561-.01 3.65 3.65 0 001.402-.635c.41-.306.741-.694.968-1.134.227-.441.345-.923.344-1.411v-10.968l19.008 14.021a1.076 1.076 0 001.069.109.993.993 0 00.416-.346.883.883 0 00.153-.499V99.895a3.062 3.062 0 00-.344-1.41 3.316 3.316 0 00-.968-1.135 3.64 3.64 0 00-1.402-.634 3.788 3.788 0 00-1.56-.01zm-49.49 5.83c8.039 0 14.046 3.938 14.046 7.46 0 3.523-6.007 7.461-14.046 7.461-8.04 0-14.047-3.938-14.047-7.461 0-3.522 6.007-7.46 14.047-7.46zm0-6.53c-11.637 0-21.071 6.263-21.071 13.99s9.434 13.991 21.071 13.991c11.637 0 21.07-6.264 21.07-13.991 0-7.727-9.434-13.99-21.07-13.99z" fill="#312D2D"/></g><defs><clipPath id="clip0_18_219"><path fill="#fff" transform="translate(104 96)" d="M0 0h138v28H0z"/></clipPath></defs></svg>