<svg width="70" height="62" fill="none" xmlns="http://www.w3.org/2000/svg"><path d="M65.412 28.157L35.53 58.361 12.598 35.18l17.413-17.6 10.863 10.98 4.653-4.7-10.866-10.984 7.816-7.9 22.935 23.182z" fill="#EE3A23"/><path d="M64.27 23.44L46.782 5.764a5.487 5.487 0 00-7.805 0L34.966 9.82l-3.942-4.055a5.486 5.486 0 00-7.805 0L5.733 23.439c-2.15 2.174-2.15 5.713 0 7.89l1.995-2.017a2.75 2.75 0 010-3.856L25.214 7.78a2.676 2.676 0 013.806-.008l5.621 5.784h-.002l8.188 8.28a2.75 2.75 0 010 3.856 2.679 2.679 0 01-3.815 0l-9.794-9.9-.3.302-.078-.08-.697.705-14.85 15.01c-2.151 2.174-2.151 5.713 0 7.89a5.473 5.473 0 003.902 1.631c.101 0 .203-.008.304-.014-.005.102-.014.205-.014.31 0 1.49.576 2.893 1.617 3.945a5.473 5.473 0 003.902 1.632c.102 0 .204-.009.305-.015-.005.103-.014.206-.014.311a5.57 5.57 0 001.617 3.945 5.452 5.452 0 003.902 1.634c.105 0 .206-.009.308-.014a5.583 5.583 0 001.6 4.252 5.517 5.517 0 003.945 1.666h.05c1.519-.014 2.966-.662 4.086-1.825l25.472-25.744c2.15-2.173 2.15-5.713 0-7.889l-.006-.006zm-1.996 5.872L36.806 55.055l.998 1.01-1.015-.99c-.601.628-1.327.964-2.1.973h-.025a2.73 2.73 0 01-1.95-.83 2.748 2.748 0 010-3.853l9.71-9.815-1.995-2.016-9.71 9.814a2.666 2.666 0 01-1.907.799 2.66 2.66 0 01-1.908-.799 2.718 2.718 0 01-.79-1.928c0-.73.28-1.412.787-1.925l9.803-9.908-1.995-2.017-9.803 9.908a2.679 2.679 0 01-3.815 0 2.724 2.724 0 01-.79-1.928c0-.73.283-1.411.79-1.928l9.196-9.295-1.995-2.016-9.196 9.295a2.68 2.68 0 01-3.815 0 2.75 2.75 0 010-3.856l.218-.22 13.634-13.78 7.878 7.963a5.473 5.473 0 003.903 1.631 5.473 5.473 0 003.902-1.631c2.15-2.176 2.15-5.713 0-7.89l-7.742-7.825-.133-.137 4.03-4.073a2.684 2.684 0 013.814 0l17.487 17.677a2.75 2.75 0 010 3.857l.002-.009z" fill="#312D2D"/></svg>