<svg width="17" height="17" viewBox="0 0 17 17" fill="none" xmlns="http://www.w3.org/2000/svg">
<path fill-rule="evenodd" clip-rule="evenodd" d="M8.33333 1.5C4.55939 1.5 1.5 4.55939 1.5 8.33333C1.5 12.1073 4.55939 15.1667 8.33333 15.1667C12.1073 15.1667 15.1667 12.1073 15.1667 8.33333C15.1667 4.55939 12.1073 1.5 8.33333 1.5ZM0.5 8.33333C0.5 4.0071 4.0071 0.5 8.33333 0.5C12.6596 0.5 16.1667 4.0071 16.1667 8.33333C16.1667 12.6596 12.6596 16.1667 8.33333 16.1667C4.0071 16.1667 0.5 12.6596 0.5 8.33333ZM5.31311 7.31311C5.50837 7.11785 5.82496 7.11785 6.02022 7.31311L8.21548 9.50838C8.28057 9.57346 8.3861 9.57346 8.45118 9.50838L10.6464 7.31311C10.8417 7.11785 11.1583 7.11785 11.3536 7.31311C11.5488 7.50838 11.5488 7.82496 11.3536 8.02022L9.15829 10.2155C8.70268 10.6711 7.96399 10.6711 7.50838 10.2155L5.31311 8.02022C5.11785 7.82496 5.11785 7.50838 5.31311 7.31311Z" fill="#EE3A23"/>
</svg>
