<svg width="154" height="154" viewBox="0 0 154 154" fill="none" xmlns="http://www.w3.org/2000/svg">
<path d="M28.8711 81.8125V28.875C28.8711 27.5986 29.3781 26.3746 30.2806 25.472C31.1832 24.5695 32.4072 24.0625 33.6836 24.0625H91.4383L125.126 57.75V81.8125" stroke="#EE3A23" stroke-width="2" stroke-linecap="round" stroke-linejoin="round"/>
<path d="M91.4375 24.0625V57.75H125.13" stroke="#EE3A23" stroke-width="2" stroke-linecap="round" stroke-linejoin="round"/>
<path d="M28.875 120.312H38.5C41.0527 120.312 43.5009 119.298 45.3059 117.493C47.1109 115.688 48.125 113.24 48.125 110.688C48.125 108.135 47.1109 105.687 45.3059 103.882C43.5009 102.077 41.0527 101.062 38.5 101.062H28.875V129.938" stroke="#EE3A23" stroke-width="2" stroke-linecap="round" stroke-linejoin="round"/>
<path d="M74.5938 129.938C78.4228 129.937 82.095 128.416 84.8026 125.709C87.5102 123.001 89.0312 119.329 89.0312 115.5C89.0312 111.671 87.5102 107.999 84.8026 105.291C82.095 102.584 78.4228 101.063 74.5938 101.062H67.375V129.938H74.5938Z" stroke="#EE3A23" stroke-width="2" stroke-linecap="round" stroke-linejoin="round"/>
<path d="M125.125 101.062H108.281V129.938" stroke="#EE3A23" stroke-width="2" stroke-linecap="round" stroke-linejoin="round"/>
<path d="M122.719 117.906H108.281" stroke="#EE3A23" stroke-width="2" stroke-linecap="round" stroke-linejoin="round"/>
</svg>
