<svg width="48" height="72" viewBox="0 0 48 72" fill="none" xmlns="http://www.w3.org/2000/svg">
<path fill-rule="evenodd" clip-rule="evenodd" d="M23.6016 0.938883C36.5571 0.938883 47.1016 11.8825 47.1016 25.3271C47.1016 35.2833 34.1284 57.5963 26.9166 69.2301C25.3841 71.7023 21.819 71.7023 20.2865 69.2301C13.0743 57.5961 0.101562 35.284 0.101562 25.3271C0.101562 11.8819 10.6385 0.938883 23.6016 0.938883ZM23.4136 39.0672C31.0393 39.0672 37.2212 32.6517 37.2212 24.7378C37.2212 16.8239 31.0393 10.4083 23.4136 10.4083C15.788 10.4083 9.60611 16.8239 9.60611 24.7378C9.60611 32.6517 15.788 39.0672 23.4136 39.0672Z" fill="#EE3A23"/>
</svg>
