<svg width="15" height="12" viewBox="0 0 15 12" fill="none" xmlns="http://www.w3.org/2000/svg">
<path fill-rule="evenodd" clip-rule="evenodd" d="M7.99455 1.68782C7.65642 1.43739 7.17698 1.43739 6.83885 1.68782L6.54414 1.2899L6.83885 1.68782L3.63892 4.05773V10.1422C3.63892 10.5932 4.03012 11 4.56485 11H10.2686C10.8033 11 11.1945 10.5932 11.1945 10.1422V4.05773L7.99455 1.68782ZM12.1945 4.79834L13.5358 5.79174C13.7577 5.95608 14.0708 5.90942 14.2352 5.68751C14.3995 5.4656 14.3529 5.15248 14.1309 4.98813L8.58971 0.884213C7.89801 0.371929 6.93539 0.371929 6.24368 0.884213L0.702451 4.98813C0.480541 5.15248 0.433879 5.4656 0.598229 5.68751C0.762578 5.90942 1.0757 5.95608 1.29761 5.79174L2.63892 4.79834V10.1422C2.63892 11.191 3.52454 12 4.56485 12H10.2686C11.3089 12 12.1945 11.191 12.1945 10.1422V4.79834Z" fill="#312D2D"/>
</svg>
