<svg width="19" height="19" viewBox="0 0 19 19" fill="none" xmlns="http://www.w3.org/2000/svg">
<path fill-rule="evenodd" clip-rule="evenodd" d="M4.81903 1.6429C4.44233 1.45237 3.99747 1.45237 3.62077 1.6429C3.44935 1.72961 3.27289 1.89717 2.75952 2.41054L2.61549 2.55458C2.11627 3.0538 1.93121 3.24436 1.78718 3.50075C1.62438 3.79056 1.49902 4.27264 1.50001 4.60505C1.50089 4.90299 1.5528 5.09629 1.70171 5.62094C2.4657 8.31267 3.90706 10.8527 6.02716 12.9728C8.14725 15.0929 10.6873 16.5343 13.3791 17.2983C13.9037 17.4472 14.097 17.4991 14.395 17.5C14.7274 17.501 15.2094 17.3756 15.4992 17.2128C15.7556 17.0688 15.9462 16.8837 16.4454 16.3845L16.5895 16.2405C17.1028 15.7271 17.2704 15.5507 17.3571 15.3792C17.5476 15.0025 17.5476 14.5577 17.3571 14.181C17.2704 14.0095 17.1028 13.8331 16.5895 13.3197L16.4114 13.1417C16.0739 12.8042 15.9582 12.6924 15.8526 12.6237C15.4127 12.3377 14.8455 12.3377 14.4055 12.6237C14.2999 12.6924 14.1842 12.8042 13.8468 13.1417C13.8407 13.1477 13.8347 13.1537 13.8287 13.1597C13.742 13.2466 13.6619 13.3267 13.5666 13.395L13.2755 12.9885L13.5666 13.395C13.2249 13.6397 12.7514 13.7204 12.3479 13.6028C12.2355 13.5701 12.1439 13.526 12.0462 13.479C12.0403 13.4762 12.0344 13.4733 12.0284 13.4705C10.6537 12.8105 9.3658 11.9109 8.22746 10.7725C7.08912 9.6342 6.18955 8.34627 5.52952 6.97157C5.52666 6.96561 5.5238 6.95967 5.52096 6.95376C5.47398 6.85607 5.42993 6.76447 5.39718 6.6521L5.8772 6.51218L5.39717 6.6521C5.27955 6.2486 5.36029 5.77515 5.60497 5.43343L6.0115 5.72452L5.60498 5.43342C5.67327 5.33805 5.75342 5.25802 5.84032 5.17125C5.84629 5.16528 5.8523 5.15928 5.85833 5.15325C6.19582 4.81575 6.30763 4.70008 6.37628 4.59449L6.79547 4.86703L6.37628 4.59449C6.66234 4.15452 6.66234 3.58733 6.37628 3.14736C6.30763 3.04177 6.19582 2.92609 5.85833 2.5886L5.68028 2.41054C5.1669 1.89717 4.99045 1.7296 4.81903 1.6429ZM3.16943 0.75055C3.8299 0.416484 4.6099 0.416483 5.27037 0.75055C5.60391 0.919252 5.90028 1.21589 6.32345 1.63946C6.34444 1.66047 6.36575 1.6818 6.38739 1.70344L6.56544 1.88149C6.57968 1.89573 6.59372 1.90976 6.60755 1.92358C6.8863 2.20217 7.08108 2.39683 7.21466 2.60227C7.71621 3.37368 7.71621 4.36816 7.21466 5.13958C7.08109 5.34501 6.88631 5.53967 6.60756 5.81825C6.59373 5.83207 6.57969 5.8461 6.56544 5.86035C6.45038 5.97541 6.43246 5.99546 6.41803 6.01561C6.35204 6.10778 6.3255 6.26343 6.35722 6.37225C6.3645 6.39725 6.37176 6.41537 6.431 6.53874C7.04285 7.81311 7.87712 9.00799 8.93457 10.0654C9.99201 11.1229 11.1869 11.9571 12.4613 12.569C12.5846 12.6282 12.6028 12.6355 12.6277 12.6428C12.7366 12.6745 12.8922 12.648 12.9844 12.582C13.0045 12.5675 13.0246 12.5496 13.1396 12.4346C13.1539 12.4203 13.1679 12.4063 13.1817 12.3924C13.4603 12.1137 13.655 11.9189 13.8604 11.7853C14.6318 11.2838 15.6263 11.2838 16.3977 11.7853C16.6032 11.9189 16.7978 12.1137 17.0764 12.3925C17.0902 12.4063 17.1043 12.4203 17.1185 12.4346L17.2966 12.6126C17.3182 12.6343 17.3395 12.6556 17.3605 12.6766C17.7841 13.0997 18.0807 13.3961 18.2495 13.7296C18.5835 14.3901 18.5835 15.1701 18.2495 15.8306C18.0807 16.1641 17.7841 16.4605 17.3605 16.8837C17.3395 16.9046 17.3182 16.926 17.2966 16.9476L17.1525 17.0916C17.1386 17.1056 17.1248 17.1194 17.1111 17.133C16.6663 17.578 16.3786 17.8658 15.989 18.0847C15.5488 18.332 14.8969 18.5015 14.392 18.5C13.9455 18.4987 13.6273 18.4083 13.1396 18.2698L13.106 18.2603C10.2545 17.4509 7.5638 15.9237 5.32005 13.6799C3.0763 11.4362 1.54906 8.74554 0.739704 5.89398C0.736504 5.88271 0.733328 5.87152 0.730176 5.86042C0.59169 5.37273 0.501338 5.05455 0.50001 4.60802C0.498507 4.10307 0.668017 3.45124 0.915327 3.01099L1.35012 3.25523L0.915328 3.01099C1.13418 2.6214 1.42203 2.33366 1.86697 1.88887C1.88063 1.87522 1.89443 1.86142 1.90838 1.84747L2.05241 1.70344C2.07405 1.6818 2.09536 1.66047 2.11635 1.63946C2.53952 1.21589 2.83589 0.919252 3.16943 0.75055L3.39359 1.19374L3.16943 0.75055Z" fill="#EE3A23"/>
</svg>
