<svg width="14" height="12" viewBox="0 0 14 12" fill="none" xmlns="http://www.w3.org/2000/svg">
<path d="M0.468821 5.58672C1.87161 4.81402 3.43751 4.16912 4.90061 3.52092C7.41771 2.45922 9.94481 1.41592 12.4974 0.444622C12.9941 0.279122 13.8864 0.117272 13.9739 0.853272C13.926 1.89507 13.7289 2.93077 13.5937 3.96647C13.2506 6.24407 12.854 8.51387 12.4672 10.784C12.334 11.5401 11.3867 11.9316 10.7806 11.4477C9.32401 10.4638 7.85621 9.48947 6.41821 8.48277C5.94716 8.00412 6.38396 7.31677 6.80466 6.97497C8.00436 5.79267 9.27666 4.78817 10.4137 3.54477C10.7204 2.80412 9.81416 3.42832 9.51526 3.61957C7.87286 4.75137 6.27066 5.95227 4.53906 6.94697C3.65456 7.43387 2.62366 7.01777 1.73956 6.74607C0.946851 6.41787 -0.214679 6.08717 0.468821 5.58672Z" fill="white"/>
</svg>
