<svg width="15" height="15" viewBox="0 0 15 15" fill="none" xmlns="http://www.w3.org/2000/svg">
<path fill-rule="evenodd" clip-rule="evenodd" d="M7.39477 14.6763H7.39182C6.19757 14.6759 5.02412 14.3762 3.98187 13.8077L0.199219 14.8L1.21152 11.1024C0.587069 10.0203 0.258519 8.79278 0.259019 7.53513C0.260619 3.60088 3.46162 0.400024 7.39467 0.400024C9.30352 0.400849 11.0951 1.14398 12.4423 2.49273C13.7895 3.84143 14.531 5.63418 14.5303 7.54078C14.5287 11.4742 11.329 14.6747 7.39477 14.6763ZM4.15717 12.516L4.37372 12.6445C5.28432 13.1849 6.32812 13.4708 7.39237 13.4712H7.39477C10.6636 13.4712 13.3242 10.8106 13.3255 7.54038C13.3261 5.95563 12.7098 4.46558 11.5901 3.34453C10.4703 2.22348 8.98122 1.60578 7.39707 1.60523C4.12567 1.60523 1.46512 4.26558 1.46382 7.53558C1.46337 8.65623 1.77692 9.74758 2.37057 10.6918L2.51162 10.9162L1.91247 13.1048L4.15717 12.516ZM10.7454 9.07703C10.8698 9.13713 10.9538 9.17773 10.9896 9.23758C11.0342 9.31193 11.0342 9.66893 10.8857 10.0854C10.737 10.5019 10.0247 10.882 9.68217 10.9332C9.37502 10.9791 8.98627 10.9983 8.55917 10.8625C8.30022 10.7804 7.96817 10.6707 7.54277 10.487C5.87132 9.76523 4.74172 8.14523 4.52822 7.83903C4.51327 7.81758 4.50282 7.80258 4.49697 7.79478L4.49557 7.79288C4.40122 7.66698 3.76897 6.82343 3.76897 5.95043C3.76897 5.12913 4.17237 4.69868 4.35807 4.50053C4.37082 4.48698 4.38252 4.47448 4.39297 4.46303C4.55642 4.28453 4.74957 4.23988 4.86842 4.23988C4.98727 4.23988 5.10627 4.24098 5.21017 4.24623C5.22297 4.24688 5.23632 4.24678 5.25007 4.24668C5.35397 4.24608 5.48352 4.24533 5.61132 4.55228C5.66047 4.67038 5.73242 4.84553 5.80827 5.03023C5.96167 5.40373 6.13122 5.81643 6.16102 5.87613C6.20562 5.96538 6.23532 6.06948 6.17587 6.18848C6.16697 6.20633 6.15872 6.22318 6.15082 6.23928C6.10617 6.33043 6.07337 6.39743 5.99757 6.48593C5.96782 6.52068 5.93702 6.55818 5.90622 6.59568C5.84487 6.67038 5.78357 6.74508 5.73017 6.79828C5.64087 6.88718 5.54797 6.98363 5.65197 7.16213C5.75597 7.34063 6.11382 7.92448 6.64382 8.39728C7.21362 8.90548 7.70882 9.12028 7.95982 9.22913C8.00882 9.25043 8.04852 9.26763 8.07767 9.28223C8.25587 9.37148 8.35987 9.35653 8.46392 9.23758C8.56792 9.11858 8.90962 8.71693 9.02842 8.53848C9.14727 8.36008 9.26617 8.38978 9.42957 8.44923C9.59307 8.50883 10.4696 8.94008 10.6479 9.02933C10.6827 9.04673 10.7153 9.06248 10.7454 9.07703Z" fill="white"/>
</svg>
