<svg width="353" height="352" fill="none" xmlns="http://www.w3.org/2000/svg"><path fill-rule="evenodd" clip-rule="evenodd" d="M257.123 10.573l-246.55 246.55L0 246.55 246.55 0l10.573 10.573zm19.121 18.671L29.469 276.02l-10.573-10.572L265.671 18.671l10.573 10.573zm18.897 18.896L48.365 294.916l-10.573-10.573L284.568 37.567l10.573 10.573zm18.896 18.897L67.261 313.812 56.69 303.239 303.464 56.464l10.573 10.573zm19.121 18.67L86.383 332.484 75.81 321.91 322.585 75.135l10.573 10.573zm18.896 18.897L105.279 351.379l-10.573-10.573L341.48 94.031l10.573 10.573z" fill="#F5F5F5"/></svg>