<svg width="525" height="285" fill="none" xmlns="http://www.w3.org/2000/svg"><mask id="a" style="mask-type:alpha" maskUnits="userSpaceOnUse" x="-419" y="-199" width="861" height="860"><path fill-rule="evenodd" clip-rule="evenodd" d="M209.833-173.042l-602.975 602.975L-419 404.076l602.975-602.975 25.858 25.857zm46.763 45.663l-603.525 603.526-25.858-25.858 603.526-603.525 25.857 25.857zm46.214 46.214L-300.716 522.36l-25.857-25.858 603.525-603.525 25.858 25.858zm46.213 46.213l-603.525 603.525-25.858-25.857L323.166-60.809l25.857 25.857zm46.764 45.663l-603.526 603.526-25.857-25.858L369.929-15.146l25.858 25.857zM442 56.925L-161.525 660.45l-25.858-25.857L416.142 31.067 442 56.925z" fill="#EE3A23"/></mask><g mask="url(#a)"><path fill="#F5F5F5" d="M-46 0h571v285H-46z"/></g></svg>