<svg width="159" height="162" fill="none" xmlns="http://www.w3.org/2000/svg"><path fill-rule="evenodd" clip-rule="evenodd" d="M-1.07 11.825L9.708.476H29.45L-1.07 31.398V11.825zm159.869 9.9L18.553 162H-1.19L158.799 2.151v19.574zm0 38.57L57.336 162H37.592L158.8 40.721v19.574zm0 37.195L94.766 162H75.023l83.776-84.083V97.49zm0 38.765L132.965 162h-19.743l45.577-45.319v19.574zm-159.868-9.483L125.023.476h19.743L-1.069 146.345v-19.573zm0-38.908L85.336.476h19.744L-1.07 107.438V87.864zm0-38.171L47.906.476h19.743l-68.718 68.79V49.692z" fill="#fff"/></svg>