<svg width="184" height="184" fill="none" xmlns="http://www.w3.org/2000/svg"><g clip-path="url(#clip0_201_24155)"><path d="M151.222 80.88c-.05.05-.099.11-.149.159l-54.127 53.735-47.89-47.551 50.415-50.058 3.713-3.677c.08-.08.159-.169.239-.248 26.33-27.432 55.515-30.693 68.939-30.525 4.472.06 8.135 3.578 8.294 8.008.489 13.072-2.205 41.446-29.434 70.157z" fill="#EE3A23"/><path d="M183.471 4.242l-.479-3.38-3.414-.426c-1.826-.228-44.944-5.183-75.147 24.806-3.902 3.875-9.182 9.158-15.011 14.985H52.16L0 92.198h46.551l45.544 45.222v46.59l52.33-51.793v-39.86a5956.36 5956.36 0 0113.754-13.736c31.061-30.852 25.542-72.605 25.292-74.37v-.01zM55.894 49.147h24.633A25316.802 25316.802 0 0046.6 83.279H21.64l34.255-34.132zm79.548 79.354l-34.364 34.013V136.37l34.364-34.856v26.987zm8.983-48.82v-.03l-1.746 1.774c-15.691 15.689-38.537 38.691-46.851 47.076L54.816 87.778l39.534-39.8a4449.367 4449.367 0 0116.439-16.423c22.298-22.14 53.578-22.933 64.088-22.507.539 10.228-.079 40.455-23.046 63.26-2.106 2.09-4.621 4.598-7.406 7.373z" fill="#000"/><path d="M37.04 142.267c.479-6.958 2.954-21.219 14.682-32.864l-6.348-6.303c-19.104 18.969-17.437 43.061-17.357 44.082l.3 3.865 3.892.238c.15 0 .758.04 1.756.04 6.129 0 26.76-1.259 42.74-17.116l-6.349-6.303c-11.448 11.368-26.16 13.855-33.306 14.37l-.01-.009zm86.415-82.635c-4.342-4.311-4.342-11.328 0-15.639l-6.348-6.303c-7.845 7.79-7.845 20.465 0 28.245 3.923 3.895 9.073 5.837 14.223 5.837s10.301-1.952 14.223-5.837l-6.348-6.303c-4.342 4.311-11.408 4.311-15.75 0z" fill="#000"/></g><defs><clipPath id="clip0_201_24155"><path fill="#fff" d="M0 0h184v184H0z"/></clipPath></defs></svg>