<svg width="184" height="184" fill="none" xmlns="http://www.w3.org/2000/svg"><g clip-path="url(#clip0_201_24161)"><path d="M102.975 81.079h75.912V5.184h-75.912v75.895z" fill="#EE3A23"/><path d="M64.168 10.306h109.585v109.571L184 130.122V.062H53.921l10.247 10.244zM0 26.053L20.956 5.102l5.041-5.04L26.06 0l26.059 26.053-7.594 7.591-13.321-13.308v132.488H163.65l-13.332-13.338 7.593-7.592 26.059 26.053L157.91 184l-7.593-7.592 13.332-13.339H20.956V20.295L7.603 33.645 0 26.053z" fill="#000"/></g><defs><clipPath id="clip0_201_24161"><path fill="#fff" transform="rotate(-180 92 92)" d="M0 0h184v184H0z"/></clipPath></defs></svg>