<svg width="263" height="87" fill="none" xmlns="http://www.w3.org/2000/svg"><g clip-path="url(#clip0_76_4079)"><mask id="a" style="mask-type:luminance" maskUnits="userSpaceOnUse" x="58" y="30" width="148" height="28"><path d="M206 30H58v28h148V30z" fill="#fff"/></mask><g mask="url(#a)" fill="#fff"><path d="M137.015 53.304V34.696h11.494v4.322h-6.701v14.286h-4.793zm25.956 0v-7.288h-7.12v7.288h-4.793V34.696h4.793v6.945h7.12v-6.945h4.793v18.608h-4.793zm32.609 0V39.018h-5.599v-4.322h16.02v4.322h-5.626v14.286h-4.795zm-12.652-.003V42.7l-7.629 10.602h-4.008V34.7h4.793v10.49l7.502-10.492h4.138V53.3h-4.796zm-73.457.003V42.245l-4.785 5.843-4.786-5.843v11.059h-4.793V34.696h4.73l4.849 6.398 4.848-6.398h4.73v18.608h-4.793zm13.893-6.544h4.454l-2.227-5.835-2.227 5.834zm6.952 6.541l-1.003-2.607h-7.452l-1.003 2.607h-4.818l7.371-18.605h4.432l7.374 18.605h-4.901zM57.995 38.477a8.591 8.591 0 012.436-5.99A8.222 8.222 0 0166.29 30h19.155v4.31h-19.15a4.054 4.054 0 00-2.879 1.225 4.236 4.236 0 00-1.2 2.942l-.026 7.234a4.258 4.258 0 01-1.096 2.477 4.097 4.097 0 01-2.347 1.279l-.753.117V38.477zM57.996 58v-4.31H77.15a4.057 4.057 0 002.88-1.227 4.239 4.239 0 001.201-2.943v-6.865a4.254 4.254 0 01.992-2.713 4.087 4.087 0 012.474-1.411l.753-.115V49.52a8.593 8.593 0 01-2.436 5.991A8.225 8.225 0 0177.153 58H57.996z"/><path d="M74.223 49.6v-5.57l-2.498 3.047-2.496-3.047v5.57h-3.308V38.639h3.132l2.672 3.524 2.67-3.524h3.133v10.96h-3.305z"/></g></g><defs><clipPath id="clip0_76_4079"><path fill="#fff" transform="translate(58 30)" d="M0 0h148v28H0z"/></clipPath></defs></svg>