<svg width="100" height="100" fill="none" xmlns="http://www.w3.org/2000/svg"><path d="M88 25v42h-8.503v-5.484h2.964V30.485H18.539v3.756H13V25h75z" fill="#312D2D"/><path d="M100 10v42h-8.498v-5.484h2.958V15.485H30.54v3.75H25V10h75z" fill="#312D2D"/><path d="M66 58H0v32h66V58z" fill="#EE3A23"/><path d="M69.454 46.41v27.18H9.546V46.41h59.908zM75 41H4v38h71V41z" fill="#312D2D"/><path d="M41.856 66.842H37.37V70h-3.512v-3.158H31v-2.804h2.858V62.58H31v-2.804h2.858V50h7.764c2.238 0 4.03.578 5.368 1.727 1.338 1.15 2.01 2.681 2.01 4.583 0 1.9-.638 3.466-1.907 4.57-1.275 1.105-3.046 1.672-5.311 1.7h-4.406v1.458h4.486v2.804h-.006zm-4.486-7.06h4.196c1.263 0 2.231-.287 2.897-.864.666-.578 1.002-1.436 1.002-2.58 0-1.027-.33-1.862-.985-2.513-.655-.65-1.56-.987-2.71-1.015h-4.406v6.977l.006-.006z" fill="#312D2D"/></svg>