<svg width="345" height="222" fill="none" xmlns="http://www.w3.org/2000/svg"><path opacity=".1" fill="#312D2D" d="M0 0h345v222H0z"/><g clip-path="url(#clip0_18_198)"><mask id="a" style="mask-type:luminance" maskUnits="userSpaceOnUse" x="84" y="94" width="178" height="34"><path d="M262 94H84v34h178V94z" fill="#fff"/></mask><g mask="url(#a)" fill="#312D2D"><path d="M179.031 122.298V99.703h13.825v5.248h-8.06v17.347h-5.765zm31.218 0v-8.85h-8.564v8.85h-5.764V99.703h5.764v8.432h8.564v-8.432h5.765v22.595h-5.765zm39.218 0v-17.347h-6.733v-5.248h19.267v5.248h-6.766v17.347h-5.768zm-15.216-.004V109.42l-9.176 12.874h-4.82V99.706h5.764v12.74l9.023-12.74h4.977v22.588h-5.768zm-88.347.004V108.87l-5.755 7.093-5.756-7.093v13.428h-5.764V99.703h5.689l5.831 7.769 5.831-7.77h5.689v22.596h-5.765zm16.709-7.947h5.357l-2.679-7.085-2.678 7.085zm8.361 7.944l-1.206-3.166h-8.962l-1.207 3.166h-5.794l8.865-22.592H168l8.869 22.592h-5.895zm-86.98-18.001c.006-2.729 1.059-5.344 2.93-7.274 1.87-1.93 4.404-3.015 7.049-3.02h23.037v5.232H93.979a4.853 4.853 0 00-3.463 1.489 5.17 5.17 0 00-1.445 3.573l-.03 8.784a5.193 5.193 0 01-1.318 3.008 4.913 4.913 0 01-2.824 1.552l-.905.143v-13.487zM83.995 128v-5.233h23.037a4.854 4.854 0 003.463-1.49 5.173 5.173 0 001.445-3.574v-8.336a5.19 5.19 0 011.193-3.294 4.899 4.899 0 012.976-1.714l.905-.14v13.484c-.006 2.729-1.059 5.345-2.929 7.275-1.87 1.929-4.405 3.016-7.05 3.022h-23.04z"/><path d="M103.511 117.8v-6.764l-3.004 3.701-3.002-3.701v6.764h-3.979v-13.31h3.768l3.213 4.28 3.212-4.28h3.768v13.31h-3.976z"/></g></g><defs><clipPath id="clip0_18_198"><path fill="#fff" transform="translate(84 94)" d="M0 0h178v34H0z"/></clipPath></defs></svg>