<svg width="209" height="54" fill="none" xmlns="http://www.w3.org/2000/svg"><path d="M54.867 13.068c12.391-1.173 19.536 13.174 11.99 22.853-6.341 8.13-18.888 6.125-22.794-3.338C40.643 24.3 45.8 13.928 54.867 13.07v-.002zm2.956 3.606c-.742-.109-1.946 0-2.752 0-.589 0-2.147.593-2.736.868-7.34 3.412-7.855 14.16-.976 18.32l6.744-18.908c.103-.146-.232-.272-.28-.28zm8.557 9.716c-.081-2.378-1.14-4.904-2.75-6.621-.294-.313-1.64-1.555-1.975-1.523l-.364.372-2.56 7.636c.095.002.244.136.287.136h7.362zM55.07 37.32c.75.107 1.944 0 2.753 0 3.215 0 6.836-3.639 7.93-6.527.098-.257.354-.73.088-.881h-8.377l-2.68 7.23c0 .044.256.173.287.178zm77.369-14.088h-8.556l-.18.183v2.368h7.061v3.4h-7.061v2.308h8.736v3.4h-12.087V19.832h11.908l.179.182v3.218zm-24.173 9.716v1.943h-3.232V19.953h8.078c2.382 0 4.857 2.947 5.29 5.198.656 3.408-2.071 7.797-5.649 7.797h-4.487zm.179-9.716l-.179.183v5.95l.179.182h4.308c.05 0 .816-.32.936-.386 2.109-1.139 1.982-4.45-.12-5.542-.16-.083-.947-.387-1.055-.387h-4.069zm46.254-3.279v1.944h4.846c2.808 0 5.455 3.825 5.455 6.497 0 3.048-2.836 6.497-5.933 6.497h-7.6V19.953h3.232zm.179 5.223l-.179.182v5.95l.179.183h4.428c.455 0 1.517-.953 1.788-1.344 1.168-1.7.385-4.078-1.522-4.755-.12-.044-.687-.216-.745-.216h-3.949zM73.56 34.89l5.204-14.939 4.196-.129 5.44 15.066h-3.41l-.647-1.624-6.635-.056-.677 1.68h-3.47v.003zm9.454-5.1c.027-.206-.028-.388-.08-.585-.312-1.159-1.145-3.578-1.652-4.64-.082-.17-.122-.364-.357-.366l-2.049 5.339.132.25h4.009l-.002.002zm19.388-9.958v14.937h-3.351V23.232h-5.625V34.77h-3.35V19.832h12.326zm47.031 15.058h-3.471l-3.53-10.079-.357-.367-3.772 10.447h-3.59l5.338-15.066 4.179.126 5.203 14.94z" fill="#312D2D"/></svg>