<svg width="209" height="54" fill="none" xmlns="http://www.w3.org/2000/svg"><path d="M176.377 26.856c0-1.025 1.432-1.85 3.308-1.85 1.957 0 3.954.905 5.305 2.381l2.441-2.913c-2.32-2.009-4.68-3.052-7.625-3.052-3.672 0-7.463 1.654-7.463 5.434 0 4.646 4.114 4.98 7.463 5.257 1.876.136 3.53.275 3.53 1.476 0 1.299-1.896 1.89-3.57 1.89a7.334 7.334 0 01-5.568-2.6l-2.602 2.698c2.077 2.481 5.083 3.564 8.028 3.564 3.692 0 7.747-1.713 7.747-5.63 0-4.431-4.156-4.864-7.343-5.178-1.998-.198-3.651-.374-3.651-1.477zm-18.559 1.103c.666-1.634 2.098-2.58 4.216-2.58 2.138 0 3.409 1.004 3.954 2.58h-8.17zm4.418-6.537c-5.043 0-9.098 3.839-9.098 8.88 0 4.744 3.591 8.839 8.876 8.839 3.187 0 5.769-1.497 7.605-4.056l-2.784-2.303c-.988 1.476-2.763 2.343-4.882 2.343-2.158 0-4.398-1.575-4.579-3.899h13.173v-1.378c-.041-4.862-3.43-8.426-8.311-8.426zm-51.602 0c-5.043 0-9.097 3.839-9.097 8.88 0 4.744 3.591 8.839 8.876 8.839 3.187 0 5.769-1.497 7.605-4.056l-2.784-2.303c-.988 1.476-2.763 2.343-4.882 2.343-2.158 0-4.397-1.575-4.579-3.899h13.173v-1.378c-.02-4.862-3.429-8.426-8.312-8.426zm36.412 17.108h4.034V22.032h-4.034v16.499-.001zM149.063 14c-1.633 0-3.026 1.339-3.026 3.012 0 1.654 1.352 2.875 3.107 2.875 1.715 0 2.965-1.181 2.965-2.815-.02-1.674-1.392-3.072-3.046-3.072zm-58.48 7.403c-1.896 0-3.61.551-5.063 1.515v-8.72h-4.034V30.3c0 4.902 4.095 8.84 9.077 8.84 5.023 0 9.138-3.918 9.138-8.88-.02-4.94-4.054-8.858-9.118-8.858zm-20.979.275c-4.498.453-8.17 4.233-8.17 8.742 0 4.764 4.176 8.76 9.058 8.76 4.86 0 9.057-3.996 9.057-8.76 0-2.028-.747-3.899-1.957-5.375l-8.956-10.828h-5.225l6.193 7.461zm-31.267 9.745l-3.692-9.39h-2.823l-3.712 9.39-3.712-9.39H20l6.495 16.537h2.824l3.894-9.844 3.934 9.843h2.823l6.476-16.537h-4.377l-3.732 9.391zm86.761-5.63v-3.76h-4.034V38.53h4.034v-6.969c0-3.386 3.712-5.454 7.404-5.454v-4.075h-.404c-3.127 0-5.386 1.103-7 3.76zm12.81 0v-3.76h-4.034V38.53h4.034v-6.969c0-3.386 3.712-5.454 7.403-5.454v-4.075h-.403c-3.107 0-5.366 1.103-7 3.76zM55.322 38.53h4.034V14.217H55.32v24.314l.001-.001zm15.19-3.327c-2.784 0-5.043-2.185-5.043-4.902 0-2.736 2.259-4.922 5.023-4.922 2.804 0 5.083 2.185 5.083 4.922 0 2.717-2.28 4.902-5.063 4.902zm20.051 0a5.143 5.143 0 01-1.932-.372 5.045 5.045 0 01-1.638-1.067c-.468-.457-.84-1-1.093-1.598a4.805 4.805 0 01-.38-1.884c0-2.697 2.158-4.903 5.063-4.903s5.064 2.206 5.064 4.883c0 2.795-2.3 4.94-5.084 4.94zM48.322 38.53h4.034V22.032h-4.034v16.499-.001zM50.299 14c-1.634 0-3.006 1.339-3.006 3.032 0 1.713 1.433 2.875 3.006 2.875 1.755 0 3.086-1.418 3.086-2.954C53.365 15.398 51.973 14 50.3 14zm55.918 13.959c.686-1.634 2.098-2.58 4.196-2.58 2.158 0 3.469 1.004 4.014 2.58h-8.21z" fill="#312D2D"/></svg>