<svg width="209" height="54" fill="none" xmlns="http://www.w3.org/2000/svg"><path d="M96.545 5.075c3.02 1.327 3.886 6.06 4.452 9.006 1.003 5.23 1.934 10.466 3.036 15.665.206.972 1.029 4.373 1.806 4.839.719.431 2.744-.088 3.607.17.314.092.83.938.91 1.254.194.766-.1 1.095-.178 1.753-.086.718.186 1.237-.325 1.854-1.001 1.208-2.447-.37-2.86-1.39l-10.858-.024-7.855-.39c-.018.472.055.953-.053 1.423-.327 1.402-2.505 1.299-2.473-.588.008-.466.098-2.186.194-2.512.075-.26.54-.872.787-.995.621-.309 2.438-.25 2.732-.679.108-.604.374-1.221.518-1.784.453-1.78.714-3.659 1.22-5.438 1.383-4.88 3.949-9.77 6.73-13.945.066-.28.046-.563-.002-.843-.105-.604-.536-2.106-.787-2.663-.355-.787-.87-1.507-1.834-1.232-.392.113-.422.617-.312.977.103.334.511.55.682.848.616 1.065-.088 2.96-1.363 2.289-.116-.062-1.087-1.301-1.185-1.484-.765-1.44-.629-3.458.325-4.792.432-.604 1.033-.807 1.65-1.11.078-.04.073-.23.176-.255.2-.047 1.086-.039 1.262.038l-.002.008zm2.424 11.657l-.563.13c-2.862 5.629-5.71 11.452-6.354 17.864 2.528.054 5.079-.057 7.614-.003.267.005.511.124.75.134.375.013 2.11.12 2.188-.2.053-.216-.722-2.165-.835-2.595-1.107-4.198-1.93-9.27-2.664-13.603-.042-.254-.078-1.663-.136-1.725v-.002z" fill="#312D2D"/><path d="M120.551 12.03c1.111.938 1.783 3.848 1.921 5.296.3 3.152.025 6.833.39 9.885.056.46.335.61.385 1.018.103.813-.252 1.05-.314 1.594-.212 1.771.815 4.972 1.054 6.78.211 1.604-.783 2.88-2.133 1.54-.242-1.14-.664-2.35-.863-3.489-.146-.833-.244-1.939-.372-2.833-.051-.353.072-.952-.076-1.209-.307-.53-2.789-.164-3.398-.128-1.157.072-2.183-.106-3.277.506-.189.27-.026 3.623.103 4.155.151.63.54.92.462 1.69-.105 1.033-.908 1.637-1.914 1.336-1.267-.378-.769-3.849-1.285-4.6-.088-.128-.194-.205-.317-.069-.131.216-.166.401-.435.455-1.197.237-2.085-.303-2.085-1.607 0-1.563 1.929-2.892 2.845-3.915.601-4.73 1.489-10.523 4.107-14.57 1.112-1.72 3.275-3.468 5.209-1.836h-.007zm-.076 14.986c.118-1.137-.211-2.291-.256-3.402-.106-2.47.289-5.106-.456-7.505-.113-.362-.553-1.442-.983-1.44a2.712 2.712 0 00-.742.533c-1.205 1.347-3.567 8.325-3.836 10.22-.085.596.038 1.272-.128 1.894l.292.206c2.027-.319 4.052-.62 6.112-.506h-.003zM67.34 17.117c.08.016.898.389 1.054.466 2.668 1.298 2.294 5.17.767 7.278-.282.388-.9.712-1.112 1.193.025.147 1.228 1.028 1.414 1.234 1.735 1.895 2.38 6.353.012 7.952-.324.219-1.28.648-1.635.648h-7.294l-.189-.193V17.31l.189-.193h6.794zm-.88 2.443c-.793-.178-2.154.13-3.019 0l-.189.193v5.399c0 .714 2.345-.563 2.631-.782 1.09-.833 1.86-2.288 1.638-3.71-.063-.411-.712-1.02-1.061-1.1zm.143 8.273c-1.124-1.095-2.06-.293-3.335-.028.123 1.614-.22 3.63-.023 5.196.025.206.048.406.257.509.256.126 2.666.108 3.053.033 2.727-.517 1.451-4.342.048-5.71zm96.946-10.716c.31.062 1.56.72 1.829.96 1.816 1.622 1.303 4.977-.005 6.782-.158.218-1.144.992-1.112 1.192l2.204 2.289c.654 1.76 1.134 3.686.41 5.517-.048.12-.204.118-.242.19-.085.165-.07.376-.171.51-.334.45-1.861 1.326-2.407 1.326h-7.483V17.31l.189-.193h6.791-.003zm-3.898 2.443l-.189.193v5.399c0 .563 1.919-.32 2.178-.473 1.296-.774 2.423-2.543 2.07-4.127-.067-.31-.835-.992-1.041-.992h-3.018zm-.189 8.227v5.592l.189.193h3.144c.138 0 1.061-.53 1.19-.738.898-1.448-.026-3.913-1.173-5-1.147-1.088-2.007-.224-3.35-.047zM48.79 17.117v9.449c0 .136.36.247.5.193.028-.14.043-.309.126-.422 1.23-1.671 2.518-3.36 3.775-5.014.096-.123.252-.08.252-.092v-3.92l.189-.194h2.578c-.04.126.125.278.125.322v18.254l-.188.193h-2.515l-.19-.193v-9.641l-.248-.132-.503.389-3.899 5.142v4.434h-2.704l-.063-18.768h2.767-.002zm96.209 0v9.642l.486-.018c.073-.114.06-.306.141-.402.482-.568 4.026-4.964 4.026-5.3v-3.922h2.767c-.04.126.126.278.126.322v18.254l-.189.193h-2.515l-.189-.193v-9.641l-.311-.193-4.342 5.591v4.436h-2.704l-.188-.193V17.567c0-.07.193-.285.125-.45h2.767zm-103.378 0v18.768h-2.767V19.881c0-.162-.392-.306-.56-.326-1.18-.162-2.893.046-4.093.133v16.005l-.189.193h-2.704V17.117h10.313zm96.21 0v18.768h-2.767V19.881c0-.162-.393-.306-.561-.326-1.18-.162-2.893.046-4.092.133v16.005l-.189.193h-2.704V17.117h10.313zM75.074 33.764c-.138-.925-.933-2.044-1.77-2.432l-.121-10.042c.873-3.746 4.369-5.566 7.868-4.047 4.477 1.941 2.314 10.307 2.832 14.215-.423 1.389-.787 2.615-2.03 3.45-2.148 1.445-4.339.88-6.779.98-.068-.66.093-1.486 0-2.121v-.003zm4.958-.781c.599-.45.895-.913 1.069-1.671-.236-2.978.362-6.587-.003-9.487-.216-1.723-1.45-2.844-3.186-2.515-.823.157-1.781 1.468-1.927 2.273-.44 2.432.266 6.024-.025 8.58.34.55.747.889 1.051 1.496.443.874.345 2.098 1.64 1.91.448-.064 1.046-.332 1.38-.584v-.002zm91.252.781c-.138-.925-.933-2.044-1.771-2.432l-.121-10.042c1.225-6.116 9.938-6.155 10.7.26.234 1.972.222 7.661.005 9.654-.113 1.044-.835 2.712-1.619 3.393-2.081 1.813-4.666 1.188-7.194 1.288-.068-.66.093-1.486 0-2.12zm4.958-.781c.598-.453.895-.913 1.069-1.671-.202-2.983.314-6.43-.005-9.356-.197-1.792-1.351-2.975-3.185-2.643-.84.152-1.781 1.455-1.929 2.27-.44 2.432.267 6.024-.025 8.58.339.55.747.889 1.051 1.496.491.969.292 2.077 1.62 1.884.511-.074 1.024-.272 1.401-.558l.003-.002zm-27.291 10.561c.9.916 1.013 2.921.138 3.916-.417.476-.702.37-1.162.612-.46.241-.513.733-1.205.517-.209-.065-.339-.363-.546-.47-.301-.16-.644-.188-.915-.356-1.099-.673-1.109-3.864.196-4.53.561-.023 1.056-.779 1.492-.802.568-.033.553.33.898.51.508.267.643.138 1.104.606v-.003zm-2.443 3.397v-2.636c0-.108-.259-.231-.425-.18-.649.209-.8 3.078.425 2.816zm1.155-.029c.023.034.272.147.355.1.488-.282.706-2.768-.187-2.902-.266-.041-.173.095-.226.283-.126.44-.163 2.18.058 2.522v-.003zm-99.691-3.828c.179.113.174.257.196.442.111.957-.17 2.327-.005 3.22.056.292.39.483.47.932.081.45.01.885.03 1.32h-1.005c.078-1.124-.408-.764-1.064-.77-.722-.004-1.026-.38-1.147.772h-1.062c.056-.517-.136-1.283.139-1.725.138-.221.415-.226.556-.589.452-1.152.085-2.548.623-3.604h2.264l.005.002zm-.817 3.792v-2.313c0-.096-.21-.484-.315-.576-.606-.006-.422 2.38-.676 2.88.063.272.583.23.782.182l.209-.173zm118.304.924c-.617.54-1.967.56-2.697.264-.365-.835-.048-1.776-.043-2.589.005-.812-.382-1.812.134-2.589 1.056-.182 2.477-.195 2.925 1.005.34.916-.264 1.047-.274 1.443-.015.537 1.164 1.409-.043 2.465h-.002zm-.873-3.654c-.171-.126-.518-.265-.664-.039-.111.216-.119.828.136.905l.628-.39-.1-.476zm.015 1.913c-.687-.437-1.341 1.015-.297 1.023.669.005.445-.928.297-1.023zm-114.176-.854c.012.047.208.227.248.193.272-.897.783-3.167 1.993-1.98-.413.782.34 4.31-.184 4.692-.181.147-.926.183-.926-.074v-1.928c0-.02-.123-.376-.249-.322-.108.435-.727 2.204-1.006 2.378-.279.175-.875.088-.983-.285-.08-.283-.08-4.165 0-4.448.153-.532 1.107-.385 1.107-.154.088.542-.119 1.447 0 1.928zm118.935-2.35c2.432-.56 2.45 1.882 2.304 3.64-.204 2.448-3.144 2.112-3.499.484-.086-.393-.088-2.52.005-2.897.108-.44.745-1.124 1.19-1.227zm1.044 4.021v-2.7c0-.254-.838-.267-1.017.021-.178.288-.166 2.106-.06 2.497.123.463.984.493 1.077.182zm-10.605-3.622c.103.092.387.53.415.668.068.358.061 3.003-.025 3.312-.372 1.344-3.101 1.342-3.365-.103-.078-.422-.073-2.96.025-3.312.309-1.115 2.15-1.293 2.95-.565zm-1.846.923v2.7c.251.298.88.298 1.132 0v-2.7c-.161-.298-1.049-.278-1.132 0zM54.7 47.07l.798-.021.209-.173v-3.599c0-.28.953-.229 1.01.02.122 1.019-.18 2.49 0 3.448.066.352.403.422.476.671.126.432-.038 1.11.025 1.581h-1.132l-.118-.717c-.302-.221-2.271.203-2.271-.378V43.21c.244-.175 1.006-.133 1.006.193v3.664l-.003.002zm4.15-1.672l.562-.648c.198-.753.586-2.2 1.592-1.48v4.645c-.05.442-.745.368-.896.085-.276-.522-.015-1.209.005-1.764.005-.141.078-.488-.13-.452-.466.486-.637 1.869-1.009 2.247-.231.231-1.004.28-1.004 0v-4.757c0-.339.88-.164.88.129v1.995zm33.957.322a4.01 4.01 0 00-.158-.481c-.275-.64-.355.421-.403.55-.068.177-.239.306-.284.48-.113.435-.123.975-.179 1.425a.796.796 0 01-.845 0c.083-.316-.573-2.676-.71-2.676-.724.912.184 2.385-.754 3.08l-.314-.45.267-4.674c1.81-.754 1.177 2.337 1.934 3.324.146 0 .478-1.052.528-1.257.234-.941.04-2.751 1.429-2.008.007.594-.038 1.195-.008 1.79.04.742.3 2.025.262 2.701-.048.843-.767.425-.767.257 0-.62.077-1.48 0-2.056l.002-.006zm36.19-2.734c.216.384.224.862.03 1.253.106-.01.224.02.32.007.327-.046.49-1.157.81-1.357.213-.134.908-.139.998.144.131.409-1.014 1.758-1.104 2.28l1.436 2.648c-.352.648-1.051.17-1.376-.267-.211-.283-.679-1.815-.895-1.018-.123.447-.013.948-.219 1.386-.269.2-.745.257-.913-.095-.101-.211-.133-4.291-.058-4.687.098-.53.591-.55.973-.294h-.002zm11.427-.141c.573-.203.953.057 1.152.589.317.853.692 2.635.893 3.586.065.314.277 1.075-.068 1.193-.898.304-.865-.822-1.487-.894-.82-.096-.548.226-.764.648-.181.352-.933.395-1.047.05-.201-.629.187-1.064.305-1.58.063-.275.022-.56.085-.813.204-.825.581-1.727.747-2.578a.251.251 0 01.181-.2h.003zm-5.343 3.599l-.266 1.592c-.46.26-.863.386-1.052-.216-.188-.602-.153-3.443-.083-4.157.026-.24.099-.738.332-.818.564-.193 1.751 0 2.272.345 1.68 1.108.709 3.48-1.203 3.255zm-.143-1.046c1.215.198 1.368-1.375.204-1.406l-.184.203-.017 1.203h-.003zm-71.464-2.417c2.005-.244 1.924 2.234 1.788 3.638-.075.769-.372 1.456-1.2 1.602-2.077.368-2.208-1.84-2.067-3.396.088-.964.455-1.715 1.479-1.841v-.003zM63.715 44c-.538.039-.578 1.029-.593 1.458-.026.7-.068 2.06.95 1.486.295-.457.37-2.995-.354-2.944h-.003zm13.55-.453c.108.116.325.139.327.37l-.028 3.448c-.83 1.373-2.83 1.141-3.083-.522-.146-.954-.222-3.075.676-3.61.788-.47 1.51-.326 2.108.314zm-.82 3.507c.156-.134.478-3.211-.543-3.067-.48.108-.305 2.421-.305 2.871.096.301.59.23.85.196h-.002zm-6.024-3.777c.103-.337.88-.203 1.072.062l.08 1.589.297.22.377-.136c.345-.354.106-1.308.204-1.784.194-.164.988-.231.988.046v4.757c0 .275-.794.208-.988.046-.103-.496.15-1.548-.204-1.913-1.182-.63-.425 1.394-.85 1.898-.181.216-.976.22-.976-.031v-4.757.003zm-4.151 0c.104-.337.881-.203 1.07.062.294.509-.362 1.542.377 1.81.797.082.506-1.417.584-1.918.193-.165.988-.232.988.046v4.756c0 .275-.795.209-.988.047-.103-.497.15-1.546-.204-1.913-1.333-.56-.4 1.365-.85 1.897-.181.216-.976.221-.976-.03v-4.757zm108.095-.45h2.264c.923 1.635-.82.939-1.202 1.214-.197.236-.209.856.088.953.44-.015 1.544-.072 1.295.71-.136.424-1.092.057-1.381.265-.199.141-.211 1 .088 1.082.325.075.679-.026.996.01.868.1.458 1.165.244 1.165h-2.389l-.189-.193V43.02l.189-.193h-.003zM44.136 48.095c-1.066.607-1.031-.715-1.577-.771-.966.036-.621 1.373-1.816.768l1.032-4.656c.166-.534 1.081-.452 1.33-.005l1.031 4.664zm-5.941-.031c-.115.139-.593.208-.767.15-.578-.199-.194-1.762-.196-2.24-.008-.877-.264-1.79.007-2.679.119-.386 1.91-.226 2.277-.051.209.1.679.717.72.935.319 1.708-.506 2.106-1.9 2.558-.224.263.176.952-.143 1.327h.002zm.342-4.072c-.274.02-.661 1.614.123 1.54.692-.067.597-1.396-.123-1.54zm74.77 4.106l-.883-.35.015-4.78.865-.14c.058.472-.171 1.868.252 2.12h.883c.46-.231.173-1.512.249-1.995h.88v5.014h-.88v-1.993c-.197-.38-1.384-.206-1.384.129v1.992l.003.003zM87.65 42.956v4.82c0 .1-.563.607-.726-.157-.199-.928.274-1.84-.03-2.735-.951.645-.913 2.116-1.527 3.062-.292.059-.667.095-.86-.17v-4.82h.88c.209 1.085-.37 2.095-.126 3.085.78-.273.579-.787.79-1.311.1-.252.684-1.674.747-1.743.209-.23.589-.034.85-.029l.003-.002zm10.565 0v5.013l-.88.129V43.79c0-.43-1.384-.43-1.384 0v4.178h-.88v-5.013c1.029-.219 2.108-.165 3.144 0zm-19.305.128h2.138c.043 0 .267.257.294.347.31 1.08-1.627.005-1.627 1.132 0 .95 1.24.323 1.386.786.33 1.036-1.378.299-1.386 1.27-.005.692.694.376 1.18.478.81.175.395 1.13.153 1.13H78.91l-.188-.194v-4.756l.188-.193zm41.15 4.206c-.045.106-.83.687-.973.736-1.582.532-2.302-1.844-2.123-3.07.178-1.227 1.137-2.746 2.503-1.93.545.326 1.023 1.68 1.021 2.308 0 .18-.36 1.797-.428 1.954v.002zm-1.512-3.802c-.986.303-.925 3.951.222 3.846.782-.072.782-2.19.704-2.777-.053-.398-.445-1.216-.926-1.07zm-15.999.054c.027.041.143.036.183.154.184.517.192 2.083.134 2.664-.136 1.347-1.384 2.36-2.516 1.288-1.534-1.45-.654-5.623 1.583-4.703.296.121.447.34.613.594l.003.003zm-.843.087c-.606-.524-1.142.527-1.217 1.072-.129.928-.116 2.108.679 2.72.855.07 1.044-2.097.938-2.722-.015-.093-.357-1.034-.4-1.07zm50.869 4.435c-.372-1.25 0-2.589-.176-3.867l-.873-.393c-.191-.216-.115-.66.073-.85.171-.176 2.425-.196 2.744-.101.395.118.416.676.285 1.01l-.835.175c-.34.234.063 3.237-.139 3.844-.123.367-.802.429-1.081.18l.002.002zm-48.067.028c-.251-1.038 0-2.085 0-3.149 0-.635-.297-1.234-.01-1.895 1.386-.666 3.192.077 2.739 1.872-.271 1.072-1.363.807-1.738 1.18-.601.599.292 2.139-.993 1.995l.002-.003zm1.723-4.463c-1.132-.995-1.429 2.157-.277 1.656.534-.234.592-1.38.277-1.656zm-71.904.805c-.013-.07-.123-.203-.149-.3l-.676-.142-.038-.7c.043-.167.153-.182.297-.21.264-.052 2.472-.026 2.585.056.498.977-.397.702-.887 1.165v3.6c0 .405-1.132.405-1.132 0 0-.957.143-2.62 0-3.472v.003zm87.532-1.414c.085-.283 2.009-.327 2.122.015l.016.435-1.007.064c-.636.84-.216 1.73.883 1.478v.646c-.968-.147-1.315.226-1.129 1.218.163.864 1.854.036 1.109 1.214-.053.038-.141-.118-.171-.118h-1.823V43.02zm-12.451 1.028c0-.419-.792-.55-1.119-.591v-.486c.13-.164 2.563-.224 2.759-.085.209.147.194.594-.093.69-.216.071-.554-.06-.652.233-.198 1.039.219 2.88-.042 3.813-.096.334-.524.55-.853.478v-4.052zm71.532 1.247c.312.566-.659 1.836-1.421 1.134-.624-.576-.33-1.473.433-1.612.153-.028.953.414.988.478zm-149.403-.134l-.1 1.204c-1.052.501-1.643-.072-1.371-1.209.601-.187.888-.393 1.471.008v-.003z" fill="#312D2D"/></svg>