<svg width="209" height="54" fill="none" xmlns="http://www.w3.org/2000/svg"><g clip-path="url(#clip0_1074_5959)"><path d="M47.171 12.459c.18-.413.18-.413 1.172-2.844-2.389-.276-3.696-.505-5.769-.459A19.59 19.59 0 0033.65 7C22.79 7 14 15.945 14 27s8.789 20 19.65 20c10.862 0 19.65-8.945 19.65-20 0-5.734-2.388-10.872-6.129-14.541z" fill="#fff"/><path d="M45.728 15.256c-.045-.046-.09-.046-.135-.046-.046 0-.09.046-.136.046a13.363 13.363 0 01-2.794 2.523c-2.073 1.33-4.417 2.064-6.896 2.064-4.597 0-7.21-2.294-9.33-3.945-.044-.046-.09-.092-.09-.137 0-.046.046-.092.09-.138 3.291-2.569 5.995-4.22 8.744-5.184.09-.046.136-.091.136-.183s-.09-.138-.18-.184c-.496-.045-.992-.045-1.488-.045-9.24-.046-16.72 7.568-16.72 16.972 0 5.184 2.253 9.817 5.858 12.936.045.046.09.046.18.046.046 0 .09-.046.136-.138l.676-2.202a.247.247 0 01.225-.137c8.924 1.972 12.755-2.936 12.124-6.01-.541-2.614-4.732-4.908-10.862-1.376-.045.046-.09.046-.135 0 0 0-.045 0-.045-.045-.045-.046-.09-.092-.09-.184l2.073-10.78c0-.046.045-.092.09-.138.045-.045.135 0 .18 0 .586.367 2.344 1.514 4.237 2.661.045.046.09.092.09.184-.045.458-.316 2.155-.406 2.89 0 .045 0 .137.045.183.046.046.09.046.18.046 10.277-2.798 12.44 3.761 12.17 6.88-.631 7.11-8.338 10.872-15.189 10.964-.09 0-.18.046-.18.137 0 .092.045.184.135.184 1.668.55 3.425.871 5.228.871 9.24 0 16.72-7.614 16.72-17.018 0-4.495-1.802-8.67-4.641-11.697z" fill="#312D2D"/><path d="M29.325 15.716c5.544 4.266 13.656 2.11 16.36-4.542-5.002 2.431-10.546 3.991-16.36 4.542z" fill="#312D2D"/><path d="M29.325 15.716a46.03 46.03 0 0016.36-4.542c-5.633-.642-11.492.78-16.36 4.542zm84.774 6.881c-2.118 0-3.38 1.376-4.417 3.073h-.045c0-1.743-.676-3.073-2.614-3.073-2.298 0-3.515 1.743-4.327 3.21h-.045c.136-.55.271-1.33.406-1.972a.687.687 0 00-.18-.596.722.722 0 00-.586-.275h-2.299L97.92 34.753a.74.74 0 00.135.596.74.74 0 00.541.23h2.434l.18-1.056c1.217-7.018 2.885-8.945 4.237-8.945.946 0 1.081.918.856 2.156l-1.262 6.881a.69.69 0 00.18.642.723.723 0 00.586.276h2.389l.18-1.055c1.217-6.973 2.885-8.945 4.237-8.945.901 0 1.036.871.811 2.156l-1.262 7.064c-.045.183 0 .367.135.55a.72.72 0 00.496.23h2.479l1.397-7.982c.135-.642.18-1.239.18-1.743-.045-2.11-1.036-3.211-2.749-3.211zm13.791-2.66l1.082.183c.316.046.586.091.676-.413l.361-1.376c.09-.413-.045-.505-.451-.596l-.992-.184c-.225 0-.585-.092-.676.413l-.405 1.422c-.045.32.045.504.405.55zm-31.548 3.027h-4.733c-3.515 0-5.859 1.514-5.859 4.358 0 1.513 1.037 2.477 2.073 2.568v.046c-.405.138-.856.688-1.352 1.285-.856 1.1-1.487 1.835-2.028 1.835-.09 0-.18.091-.225.183l-.27 1.973c0 .091 0 .183.09.229a.341.341 0 00.225.092h.991c1.623 0 2.164-.643 3.741-2.661 1.217-1.651 1.668-2.156 2.434-2.156h.54l-.765 4.45c0 .091 0 .183.045.229.045.092.135.092.225.092h2.75c.135 0 .27-.092.27-.23l2.118-12.018c0-.092 0-.183-.045-.23-.045 0-.135-.045-.225-.045zm-3.921 5.504h-1.713c-1.082 0-1.578-.366-1.578-1.1 0-1.239.767-1.881 2.254-1.881h1.623l-.586 2.981zm-4.327-11.33c13.16-.55 33.937 1.927 33.937 1.927a.514.514 0 00.586-.321l.226-.688.36-1.147c.045-.092 0-.138-.045-.23-.045-.045-.09-.091-.18-.137-2.569-.367-21.543-2.844-35.335-2.523-12.98.321-23.887 2.936-26.816 3.716-.226.045-.406.229-.451.504l-.316 1.697c0 .092 0 .184.09.23.046.046.136.091.226.046 2.344-.55 5.634-1.101 9.96-1.652l-2.884 16.422c-.09.275-.09.596.45.596h2.795c.18 0 .406-.045.496-.504l2.704-15.872c0-.046.18-.871 1.082-1.1 1.171-.138 3.2-.23 4.416-.367l-3.02 17.247c-.09.596.181.55.406.55h2.93c.225 0 .586-.045.676-.596l2.84-16.56s.18-.87 1.081-1.054c1.442-.046 2.344-.138 3.786-.184zm36.371 2.34l1.217.183c.316.046.586.092.721-.413l.406-1.422c.09-.459-.045-.55-.451-.642l-1.127-.138c-.225-.046-.586-.091-.721.413l-.405 1.468c-.136.275-.045.459.36.55zm4.733 6.422c0-2.065-1.398-3.257-3.786-3.257-3.966 0-7.121 3.486-7.121 8.21 0 2.982 1.622 5.047 4.732 5.047 2.434 0 4.011-.964 4.958-1.835l-1.307-2.248c-.767.688-1.848 1.33-3.155 1.33-1.352 0-1.893-.871-1.938-2.293 4.146-.459 7.617-1.881 7.617-4.954zm-7.392 2.798c.451-1.835 1.487-3.486 3.065-3.486.766 0 1.172.32 1.172 1.055-.045 1.33-1.758 2.201-4.237 2.43zm17.172-6.101c-2.164 0-3.29 1.514-4.327 3.303h-.045c.135-.46.225-.872.315-1.33.091-.413 0-.826-.27-1.148-.27-.32-.631-.504-1.037-.504h-1.577l-3.29 18.257h1.848a1.7 1.7 0 001.667-1.422l.721-4.083c.271.092.812.184 1.713.184 4.282 0 7.391-3.532 7.391-8.991.091-2.569-1.171-4.266-3.109-4.266zm-4.192 10.78c-.721 0-1.081-.092-1.262-.138l.135-.688c.947-4.633 2.524-6.973 4.012-6.973.766 0 1.126.734 1.126 1.881-.09 3.67-1.847 5.918-4.011 5.918zm55.932-10.78c-4.597 0-7.797 3.715-7.797 9.128 0 2.57 1.306 4.129 3.2 4.129 2.028 0 3.245-1.514 4.191-3.349h.045c-.135.55-.226 1.239-.316 1.88a.983.983 0 00.271.827c.18.229.45.366.766.366h2.119c.044-.917.18-2.981.766-6.467l1.036-5.734c-.541-.276-2.028-.78-4.281-.78zm.586 3.394c-.857 4.725-2.479 6.973-3.832 6.973-.765 0-1.127-.596-1.127-1.835 0-3.532 1.848-6.01 3.877-6.01.496 0 .946.093 1.172.138l-.09.734zm-12.71 4.587c-.36-.733-.721-1.238-1.082-1.56l5.453-6.054h-2.973c-.497 0-.993.23-1.353.642l-3.831 4.495h-.676l.721-4.128c.045-.23 0-.505-.181-.688a.852.852 0 00-.63-.321h-2.389l-2.163 12.614h2.389c.54 0 .991-.412 1.081-.917l.767-4.266h.36c.721 0 1.172.78 1.938 2.477.901 1.972 1.352 2.706 2.93 2.706h1.307l.45-2.522h-.27c-.586 0-1.082-.78-1.848-2.477zm-13.431-6.834c-.496 3.21-2.118 5.32-3.696 5.32-.811 0-1.081-.596-.856-1.972l.406-2.477c.044-.413-.046-.825-.316-1.147-.27-.32-.631-.504-1.036-.504h-1.668l-.766 4.266c-.09.55-.135 1.1-.135 1.56 0 2.11.991 3.256 2.749 3.256 2.209 0 3.651-1.468 4.552-3.073h.045c-.36 1.927-.856 4.77-1.036 6.56h3.199c.046-.918.271-2.982.857-6.468l1.081-6.147h-3.289l-.091.826zm-14.783-1.147c-4.011 0-7.031 3.624-7.031 7.981 0 2.89 1.758 5.276 4.958 5.276 4.101 0 6.941-3.44 6.941-7.982.045-2.982-1.758-5.275-4.868-5.275zm-1.757 10.688c-1.262 0-1.893-1.101-1.893-2.752 0-2.34 1.307-5.321 3.38-5.321 1.262 0 1.893.963 1.893 2.706 0 2.294-1.172 5.367-3.38 5.367z" fill="#312D2D"/></g><defs><clipPath id="clip0_1074_5959"><path fill="#fff" transform="translate(14 7)" d="M0 0h181v40H0z"/></clipPath></defs></svg>