<svg width="1255" height="780" viewBox="0 0 1255 780" fill="none" xmlns="http://www.w3.org/2000/svg">
<g clip-path="url(#clip0_2017_5859)">
<g style="mix-blend-mode:color-burn">
<path d="M1231.61 342.621C1230.98 340.971 1230.14 340.878 1228.75 340.914C1227.35 340.949 1226.2 340.947 1224.46 339.957C1222.72 338.972 1221.07 338.757 1218.91 336.795C1216.74 334.839 1218.14 334.671 1215.87 333.767C1213.59 332.87 1214.35 332.885 1212.84 331.57C1211.33 330.254 1211.5 329.286 1209.48 331.296C1207.46 333.307 1206.66 334.441 1205.39 334.357C1204.13 334.267 1204.16 334.104 1202.12 333.291C1200.09 332.477 1200.7 331.54 1198.38 332.414C1197.1 332.889 1196.85 332.99 1195.46 333.262C1194.07 333.533 1191.66 334.513 1193.48 335.213C1195.3 335.913 1198.17 337.914 1198.09 339.652C1198.02 341.395 1196.53 344.408 1197.38 345.071C1198.24 345.734 1199.2 345.344 1200.57 345.644C1201.94 345.943 1201.5 348.08 1200.6 349.418C1199.69 350.752 1199.29 350.471 1198.85 348.67C1198.42 346.875 1197.27 346.129 1197.54 348.046C1197.81 349.962 1197.16 349.857 1196.36 348.454C1195.55 347.052 1195.92 347.074 1195.31 345.394C1194.71 343.709 1194.72 345.391 1193.5 344.274C1192.27 343.162 1191.08 343.145 1192.12 341.859C1193.16 340.573 1192.73 340.028 1192.13 338.343C1191.52 336.651 1190.41 335.576 1190.1 333.096C1189.8 330.622 1190.64 330.98 1188.91 328.894C1187.19 326.808 1184.25 324.059 1182.29 322.782C1177.68 319.784 1171.14 318.016 1166.76 314.434C1163.79 312.015 1159.09 302.582 1154.94 297.494L1154.43 296.629L1153.63 296.022C1153.63 296.022 1153.61 296.011 1153.61 296.005C1152.88 295.274 1152.18 294.733 1151.53 294.438C1151.52 294.438 1151.51 294.433 1151.51 294.433L1149.43 292.866L1143.83 290.904C1143.57 290.666 1143.28 290.399 1142.96 290.098C1138.27 285.668 1135.42 283.078 1127.64 283.086C1127.46 283.092 1127.3 283.098 1127.14 283.132L1111.04 284.533L1086.69 279.837L1085.56 281.373L1085.11 287.008L1084.11 290.806L1084.75 291.609C1084.51 291.945 1084.55 292.48 1085.21 293.467C1085.81 294.369 1086.47 294.894 1087.12 295.293L1089.11 303.042L1083.86 309.127L1083.4 309.661L1079.53 309.89L1076.09 304.126L1068.79 299.738L1066.92 292.238L1066.54 290.723L1067.51 290.956L1071.91 291.995L1074.09 292.51L1075.31 291.085L1075.88 287.907L1074.53 285.399L1068.54 283.485L1065.51 285.138L1062.81 289.829L1057.19 295.488L1041.8 294.802L1034.71 291.519L1022.99 294.075L1018.01 298.064L1015.42 296.704L1012.88 300.231L1010.77 295.904L1003.06 291.224L1003.54 281.732L1002.71 276.526L1000.55 272.356L993.868 266.304L987.122 263.401L977.171 262.036L970.074 262.886L954.613 268.525L944.883 269.896L941.809 267.809L936.01 258.482L930.942 256.872L923.964 250.916L918.48 249.406L918.251 247.95L918.865 246.678L921.897 247.297L923.754 244.444L921.637 239.795L917.153 236.36L910.878 234.22L900.919 234.803L886.374 228.814L860.466 225.6L854.82 223.15L853.117 223.962L853.916 228.731L853.082 231.52L843.974 233.885L840.924 239.158L840.898 240.75L841.448 241.751L845.633 242.579L845.191 248.969L846.429 257.608L845.83 259.83L842.194 260.8L837.263 256.159L833.194 260.215L832.817 265.727L831.879 266.692L829.558 265.917L828.005 263.226L828.452 261.724L830.743 260.557L830.114 258.803L826.33 259.103L824.235 261.059L817.593 259.179L815.246 258.641L812.707 260.144L807.077 263.458L801.446 264.022L794.888 259.476L790.601 253.441L787.743 259.538L783.649 276.922L781.532 280.585L779.172 281.16L773.847 277.575L768.908 271.499L760.267 256.019L761.154 250.122L764.565 245.107L764.245 241.348L762.57 237.266L763.738 232.189L762.082 222.895L750.269 211.338L745.737 211.168L741.281 213.658L738.49 211.314L731.849 210.114L724.889 205.23L721.733 207.244L720.762 205.472L720.333 207.366L718.903 206.895L717.692 209.109L717.053 215.396L718.043 222.972L716.242 227.534L708.907 226.853L699.894 229.445L694.928 228.269L691.001 224.678L686.359 225.866L680.452 223.546L679.138 220.403L679.884 216.06L677.76 213.405L655.631 211.078L642.67 216.535L640.946 221.769L639.227 218.882L638.003 211.199L635.808 207.192L634.047 210.439L630.506 211.636L624.589 209.161L621.768 204.869L614.035 205.164L611.192 212.212L612.124 213.275L616.442 211.625L616.983 213.187L611.823 220.133L602.799 224.72L598.984 228.486L586.702 230.438L583.214 235.455L582.908 233.321L583.706 229.934L588.386 224.49L590.804 217.388L599.269 213.708L604.727 205.276L609.891 199.643L613.249 193L633.128 172.501L637.793 162.009L638.334 145.627L634.408 135.118L630.769 134.618L626.798 121.881L616.601 116.155L595.032 117.855L590.613 124.558L583.592 126.085L583.138 122.613L585.686 115.778L585.895 111.355L582.746 107.997L576.789 108.866L568.589 105.961L568.779 103.527L574.579 92.8818L573.098 89.5078L564.095 84.7501L560.074 84.2284L555.622 86.8338L545.355 99.1344L539.448 113.242L539.071 116.725L539.433 123.307L538.025 128.081L524.998 133.736L525.551 136.173L527.935 140.047L527.851 142.044L520.959 140.42L517.072 142.995L513.199 148.509L509.555 147.214L507.135 150.177L500.993 151.814L500.575 149.77L502.242 142.111L497.826 140.582L489.582 146.157L480.976 147.894L480.193 149.528L480.288 153.981L479.504 155.616L457.339 165.072L452.743 169.198L449.645 169.619L442.919 179.201L435.853 181.364L435.122 186.663L429.684 187.255L428.85 192.079L426.46 192.938L425.464 196.85L425.65 200.182L428.783 198.485L430.168 199.442L430.358 201.539L428.478 205.389L432.221 209.742L434.355 216.777L422.551 223.954L393.399 229.362L388.288 231.73L387.048 235.421L387.386 241.566L389.001 248.751L389.56 255.442L390.969 260.328L394.308 263.634L400.859 266.63L405.178 273.972L409.596 276.895L411.397 279.976L410.884 293.332L413.966 307.189L411.276 305.239L410.854 309.363L412.053 309.651L412.66 311.723L410.388 316.705L412.671 320.196L412.998 321.966L409.983 320.35L408.581 317.688L409.58 309.636L409.65 301.276L407.165 301.066L405.095 304.133L403.71 297.608L404.009 292.064L407.294 287.573L408.451 284.364L408.65 281.844L407.897 279.863L405.484 278.809L396.827 279.637L388.952 271.308L382.026 266.261L371.22 264.671L368.815 260.313L365.738 259.662L362.099 263.935L361.464 266.233L364.362 267.818L365.971 271.419L369.12 273.422L369.532 274.751L369.376 276.036L366.078 278.257L358.693 274.511L356.874 275.973L355.666 280.337L359.401 287.993L370.798 294.209L372.251 297.745L372.373 300.001L370.331 300.202L366.041 296.796L352.336 294.254L349.652 290.477L348.697 280.745L349.614 268.442L348.991 261.995L346.655 255.491L344.348 254.987L344.128 257.905L345.065 265.886L344.469 271.607L342.561 274.905L335.993 281.213L332.827 290.548L341.472 311.561L341.386 315.541L339.299 322.465L338.492 329.155L341.076 343.605L343.832 346.066L356.989 342.753L362.415 344.656L367.791 348.441L373.196 361.609L370.78 367.397L370.493 370.438L370.803 372.687L377.946 377.479L371.737 378.558L368.927 374.428L368.386 372.867L367.947 364.939L366.734 358.132L361.186 349.228L357.23 349.143L347.701 355.504L346.815 356.71L346.332 361.672L349.015 370.343L349.177 373.318L348.743 376.405L344.875 384.109L342.238 392.781L333.962 401.262L331.112 406.759L317.956 406.573L310.873 404.322L308.98 401.647L309.967 400.992L313.807 403.076L314.206 401.979L313.645 399.467L313.874 398.699L318.771 402.828L324.946 400.355L326.406 395.141L328.851 391.894L332.786 381.997L336.513 375.214L336.582 367.494L338.24 360.394L337.209 357.472L332.505 352.183L331.167 348.602L330.413 332.177L329.202 322.027L330.21 314.764L329.994 306.742L328.062 299.977L324.847 295.428L323.323 291.225L327.524 272.402L326.734 260.797L317.964 254.071L301.041 254.543L298.355 261.7L296.076 280.211L294.145 286.53L285.919 297.234L283.674 303.374L283.478 303.945L283.997 309.242L287.045 309.341L288.255 312.016L288.073 322.53L289.356 327.784L286.489 330.215L285.882 333.711L286.396 337.504L288.021 336.688L289.183 337.698L287.948 340.87L287.911 342.94L289.059 343.034L290.539 338.252L295.094 340.133L296.369 345.313L297.174 346.894L299.222 350.952L303.916 354.056L303.852 357.004L301.178 365.711L299.528 368.153L298.885 368.192L297.209 364.75L290.87 359.274L288.237 355.691L286.477 354.759L276.648 349.487L266.228 341.826L257.712 338.349L240.301 335.471L236.02 340.497L235.543 342.231L238.565 350.17L240.661 352.993L241.096 356.743L238.038 361.261L234.021 362.849L233.526 367.609L232.467 369.103L228.599 367.821L228.278 364.737L229.427 360.773L225.853 356.685L216.959 361.423L213.235 366.292L204.322 365.146L199.825 367.078L196.668 370.407L194.721 375.055L191.207 373.352L188.158 375.241L184.44 374.704L183.888 373.662L184.329 372.644L187.857 371.245L186.87 366.448L186.917 361.789L184.439 360.264L177.241 366.179L177.74 370.364L176.457 372.546L175.383 372.369L173.666 369.527L168.899 371.279L166.701 370.736L157.477 381.22L150.136 385.266L148.225 389.158L143.397 391.234L141.909 397.965L141.493 402.797L140.554 405.083L135.947 406.345L129.291 407.572L127.356 406.294L125.552 403.138L124.833 401.866L121.253 398.971L120.507 397.187L124.044 389.62L124.789 389.342L131.93 386.576L132.019 384.066L130.439 380.177L124.371 373.573L123.912 373.52L113.036 371.972L107.979 371.232L108.286 372.726L113.255 380.069L113.449 388.415L111.857 396.025L111.591 400.219L112.218 401.893L114.501 403.349L114.83 403.805L116.282 405.946L116.981 411.716L115.591 417.561L114.67 424.302L108.191 418.433L99.8469 417.371L94.9297 423.987L89.3657 427.811L83.4766 434.679L82.4088 437.406L82.6884 440.417L86.0448 446.103L87.5679 450.271L86.0691 454.137L84.3869 452.528L81.9509 455.175L74.3377 452.198L70.8148 453.083L69.8963 450.912L66.3734 447.734L61.355 446.318L58.252 450.636L58.8363 453.706L62.9647 458.916L67.8027 459.185L69.2294 460.895L69.6083 463.574L69.959 467.252L64.9972 470.289L57.4637 467.39L55.4767 464.367L55.1398 463.825L53.4828 461.299L49.6721 461.802L45.8314 458.328L45.2007 452.476L41.9667 442.763L43.3464 436.076L44.2257 434.836L44.0497 433.655L39.973 428.005L34.7943 425.043L32.7172 421.787L30.1528 420.144L29.5434 417.318L25.6813 413.528L24.4397 409.546L26.3794 409.591L32.1623 415.218L34.4296 415.003L40.5522 418.543L44.0593 418.696L49.2523 421.928L71.0391 426.935L76.5897 425.578L83.2301 422.006L86.1461 419.049L91.2028 410.797L92.1473 407.324L92.092 404.265L90.5026 400.261L89.0423 393.785L88.0453 392.251L84.6076 390.504L80.3586 385.143L77.6868 384.939L68.6965 379.062L62.1354 372.366L51.4562 364.166L46.776 361.972L37.0918 360.673L34.212 358.81L29.6414 362.025L28.134 358.847L25.5432 359.442L24.2957 357.484L21.896 356.671L19.1569 353.887L19.4328 352.719L23.9754 353.725L24.9699 351.795L24.4053 350.517L17.7867 346.964L14.0724 351.96L8.42676 350.9L9.03478 354.361L8.46987 355.786L6.08452 355.924L3.18644 353.67L3.25505 356.29L2.17412 358.782L-2.5518 361.962L-3.92087 367.449L-5.63651 368.031L-7.834 370.901L-6.8794 372.996L-8.37196 379.767L-7.20447 385.025L-1.47571 389.662L3.97022 398.137L3.34523 401.951L-1.88153 413.275L-1.42303 416.032L2.45039 423.562L5.48853 429.788L7.44351 437.591L4.7212 439.221L5.45545 440.805L4.87317 442.035L4.43246 446.436L5.72642 448.468L4.64549 450.96L4.79223 453.612L7.76981 456.619L8.5343 462.184L12.0317 466.954L11.7077 470.032L10.8072 472.316L8.35258 474.727L11.7226 478.626L12.416 479.461L14.5531 481.003L18.2362 483.692L21.2824 489.319L18.9017 497.06L11.5031 508.312L4.5367 519.142L2.10344 521.195L1.52143 522.263L0.855481 523.969L-0.333977 524.476L-3.98594 529.187L-5.03104 530.917L-5.31741 531.255L-4.10704 531.9L0.891967 528.821L0.603893 532.497L1.17122 534.536L5.28397 536.72L10.6444 536.799L13.569 540.211L12.6792 541.296L6.18116 539.929L4.0847 542.519L1.06141 542.851L-0.350816 544.807L-2.17511 544.078L-2.50468 548.511L-1.3778 549.637L-1.47064 550.678L-3.21435 552.091L-4.67479 556.63L-7.21032 559.604L-5.60526 565.279L-5.33108 568.803L-3.44897 573.345L-4.89295 574.662L-5.87984 576.828L-6.17161 579.034L-4.81654 578.879L-4.58201 580.335L-3.43791 581.144L-2.1016 582.615L-3.12182 588.84L-1.61031 588.754L0.477424 592.846L1.54168 596.96L1.09995 598.618L2.3914 599.894L4.73562 599.677L6.15156 601.226L8.23338 600.389L10.5453 601.044L11.0425 601.77L11.0292 603.563L11.8047 604.552L14.922 602.539L17.3035 602.28L19.3201 602.996L21.3419 605.228L22.7035 605.781L23.0057 607.794L22.6408 610.124L23.8364 613.196L22.8575 615.437L22.8296 616.954L24.797 618.865L25.3245 620.864L27.3833 624.403L30.9668 626.738L31.1508 630.029L33.6554 630.002L35.9994 631.134L36.6076 633.246L38.3048 634.976L36.3752 637.958L33.9222 639.573L32.168 639.477L30.1634 638.282L28.3163 639.226L27.8519 641.202L29.7491 643.835L29.8601 645.895L30.9414 650.366L32.1464 652.879L35.1709 653.262L36.0713 652.332L36.9227 649.894L39.7295 650.526L42.9106 648.949L47.6243 648.951L49.6395 650.982L50.3367 653.287L52.487 655.745L52.3501 656.787L50.6173 657.687L51.6591 659.416L52.108 662.727L55.9213 663.659L58.4845 663.232L59.1765 664.702L60.4637 665.339L61.4524 668.822L61.3184 671.138L63.0827 673.58L66.212 672.443L68.3889 674.024L70.9387 674.71L76.9135 672.174L78.2446 673.484L79.4814 675.961L81.8653 677.812L82.0789 677.776C82.094 678.243 82.0173 678.764 81.9414 679.308C81.847 679.963 81.7481 680.646 81.7814 681.331C81.8563 682.62 81.7672 685.47 81.5614 686.255C81.4295 686.773 80.8436 686.873 80.3233 686.96C80.0549 687.004 79.7975 687.047 79.6355 687.144C79.4139 687.273 79.3553 687.505 79.2924 687.773C79.209 688.087 79.1216 688.447 78.7349 688.748C78.4236 688.995 77.8907 689.711 77.3579 690.432C76.6774 691.348 75.9915 692.27 75.7166 692.285C75.3265 692.31 73.7659 692.749 73.0405 692.964L73.1932 695.8L74.0044 697.041L74.0793 698.33L74.927 700.353L74.2599 701.684C73.7485 701.367 72.6852 700.844 72.5119 701.27C72.4148 701.504 72.5239 701.979 72.6331 702.459C72.7739 703.065 72.9206 703.683 72.6507 703.848C72.1754 704.135 70.4635 704.492 69.9743 704.52C69.6555 704.537 69.4197 704.227 69.155 703.879C69.011 703.682 68.8556 703.474 68.6682 703.302C68.1514 702.818 66.1088 701.641 65.6143 701.675C65.4933 701.679 65.2915 701.738 65.0295 701.81C64.222 702.039 62.8852 702.419 61.921 701.892C60.9004 701.327 59.1697 701.276 58.4332 701.318C58.9204 702.754 59.9197 705.885 59.9752 706.915C60.0036 707.45 60.1115 707.89 60.1993 708.221C60.314 708.702 60.3777 708.965 60.0918 708.98C59.696 708.999 57.7611 708.597 56.8459 708.392C55.8732 708.621 53.7756 709.141 53.1943 709.385C52.6183 709.624 50.8228 709.609 49.9954 709.568C49.9817 709.315 49.855 708.806 49.4592 708.825L46.5024 709L46.3717 711.079L45.774 713.699L45.3681 715.275C45.4727 715.611 45.6214 716.292 45.4236 716.304C45.2313 716.317 44.3962 717.054 44.0063 717.424L40.5601 717.621C40.3622 717.634 38.2637 719.312 37.2391 720.148L38.5395 721.361L36.8888 722.754L36.9913 724.554L38.2919 725.773L44.5446 727.217L47.2126 726.285L49.9638 726.902L49.8191 728.717L44.1191 732.932L42.9906 734.809L49.5795 737.786L50.6744 739.789L50.9157 744.168L52.697 745.099L55.1592 744.953L57.958 741.948L62.7853 739.854L65.8452 737.088L68.8243 737.432L71.7534 736.739L73.0876 734.077L70.5282 732.417L65.1923 734.28L63.6861 733.852L61.2852 730.63L58.94 728.444L59.496 725.047L67.5834 719.403L74.8728 717.163L81.0704 713.179L85.2237 712.203L85.209 712.261L88.1538 711.885L91.9729 710.114L92.6807 710.546L93.1036 712.036L87.4747 715.39L87.2425 716.038L87.6575 717.286L85.5917 717.09L82.5368 718.144L83.063 720.104L85.6587 722.374L85.2606 724.866L83.794 725.826L81.5422 729.735L80.672 732.612L78.7825 733.436L75.7847 732.857L75.7952 734.367L74.9875 735.61L78.8259 737.654L81.3049 740.568L83.7432 740.705L86.9411 743.543L91.124 745.004L99.7748 752.973L101.216 754.279L101.973 752.841L102.279 752.266L105.961 752.211L106.937 752.588L113.925 755.286L119.794 754.939L120.302 755.146L121.584 755.628L123.211 755.533L126.071 757.794L126.579 758.001L130.194 759.459L130.772 760.979L131.013 761.282L131.983 761.624L133.724 760.804L134.257 760.775L134.249 760.539L136.796 759.271L137.862 759.368L138.762 760.467L139.641 759.227L141.413 759.675L142.023 760.317L142.947 761.301L145.091 761.528L145.97 761.637L146.065 763.38L145.412 764.653L149.985 766.932L151.547 767.715L154.333 768.549L155.708 770.019L159.144 773.753L162.671 774.344L164.453 771.574L166.908 769.837L167.037 769.43L167.106 769.347L168.219 767.493L167.733 766.928L166.668 766.191L164.325 762.391L161.487 759.097L160.594 756.683L158.967 754.749L159.349 752.102L158.911 750.301L159.055 749.495L159.899 745.466L158.557 746.025L156.443 742.13L154.447 740.376L154.057 740.239L152.587 739.73L152.196 738.878L152.651 736.782L153.803 735.642L154.923 734.503L158.612 725.018L159.92 725.262L163.492 723.182L164.151 723.46L165.114 721.577L166.741 722.156L166.503 719.939L168.116 719.568L167.697 720.908L168.157 720.996L170.271 716.579L165.132 712.982L165.47 712.204L167.255 712.219L167.922 711.228L164.705 704.575L159.916 700.402L154.264 700.65L152.974 698.578L152.457 695.39L148.687 691.869L149.593 687.561L151.22 684.082L149.904 680.859L150.216 676.225L152.397 673.039L153.337 669.405L154.36 668.027L156.724 668.766L161.042 674.039L163.409 673.504L164.641 671.088L163.258 664.604L167.366 661.894L169.279 658.083L174.882 654.932L177.013 651.546L179.524 649.53L182.289 650.042L184.175 651.841L185.644 651.635L187.485 649.821L189.869 648.963L193.32 651.625L199.328 651.63L206.435 657.858L208.534 662.11L209.23 661.672L209.791 659.451L210.694 658.602L212.252 658.59L214.485 660.527L217.31 661.394L219.84 659.776L223.423 655.828L227.903 655.083L231.413 656.671L233.718 654.386L236.352 653.957L238.877 654.881L241.214 658.007L247.119 660.281L249.059 659.651L251.166 657.222L253.961 658.333L258.646 657.777L261.379 655.627L261.758 649.522L254.073 645.838L250.944 642.237L256.659 636.972L256.555 635.108L255.289 632.078L257.014 628.913L260.17 627.579L263.856 627.64L264.575 626.884L262.53 624.975L258.376 623.386L258.306 622.08L259.066 620.723L256.587 619.158L257.418 614.893L259.132 613.596L262.623 614.268L265.96 613.435L267.746 614.165L273.96 610.341L283.27 607.567L287.056 607.347L290.243 603.741L295.555 602.991L309.447 597.877L311.375 594.861L316.878 591.356L321.785 592.067L325.417 593.841L328.232 592.524L330.446 592.709L331.813 594.778L334.127 600.926L334.128 603.669L333.595 605.734L334.259 607.366L337.547 607.727L340.793 606.621L341.748 605.332L343.075 606.688L344.647 609.656L345.28 609.461L346.061 607.746L350.358 609.164L353.179 608.717L353.255 610.029L351.128 613.536L351.312 614.798L352.111 615.503L355.524 613.953L359.29 614.765L360.922 612.641L366.234 609.027L368.422 606.036L373.431 603.078L377.247 602.056L377.244 604.004L375.69 605.492L375.757 606.717L385.56 615.57L388.124 618.723L397.478 633.925L405.01 647.13L407.063 646.41L408.332 643.272L409.932 642.025L412.376 642.836L413.531 645.154L417.431 647.75L423.724 647.382L428.468 644.6L431.123 644.441L434.935 646.687L437.023 649.43L438.819 653.024L443.487 655.691L446.569 660.562L452.741 661.553L456.971 658.361L457.781 661.256L462.307 666.165L466.187 664.899L468.372 663.857L468.474 662.262L469.352 660.976L473.382 660.939L474.249 660.172L475.953 660.074L476.826 658.667L477.823 658.847L480.1 657.404L480.36 656.594L479.639 655.24L479.949 654.625L482.006 654.031L482.989 652.58L483.947 652.086L487.313 650.417L489.503 648.02L491.376 647.513L492.948 647.103L494.014 645.845L495.551 644.006L498.92 643.806L499.442 642.901L500.097 641.709L502.322 643.409L504.829 642.783L505.263 644.469L506.06 645.099L514.707 644.791L515.489 645.819L516.423 648.987L518.326 651.102L520.409 650.98L522.062 652.036L524.393 652.258L527.547 650.883L530.141 651.05L532.091 651.929L533.468 651.41L536.072 651.732L538.202 653.239L539.381 653.252L541.392 651.103L543.477 650.347L545.759 646.869L545.981 643.357L543.949 641.644L543.278 639.142L542.362 637.721L542.763 633.96L543.427 632.209L544.735 631.098L545.666 628.064L548.228 626.237L549.886 622.521L558.055 626.696L562.587 626.872L568.748 629.731L574.627 630.858L575.482 631.919L576.112 637.057L577.143 640.653L581.69 643.849L587.686 645.682L591.005 645.288L593.491 643.515L600.535 640.996L605.273 641.43L607.696 642.599L610.899 642.214L612.861 643.295L614.976 645.835L620.738 646.927L621.842 650.406L626.086 653.577L630.972 653.291L634.314 654.643L638.589 655.029L640.485 654.245L643.223 654.96L647.897 652.22L652.258 651.364L656.186 649.543L658.729 649.515L660.452 648.298L661.705 645.518L664.049 643.278L669.217 639.789L674.561 640.232L678.389 643.469L681.159 643.462L684.564 641.832L687.31 642.627L688.545 643.709L691.807 645.623L696.933 646.955L699.212 645.587L702.816 641.955L707.192 640.026L708.341 637.417L707.369 635.645L707.711 633.634L710.829 626.727L712.96 619.923L717.003 615.389L717.888 612.794L716.734 607.132L715.287 606.299L712.671 606.456L712.236 605.445L712.5 604.075L718.398 597.329L728.742 594.018L733.065 593.843L737.099 592.612L740.978 593.34L748.264 597.286L752.009 596.946L754.627 598.224L755.693 600.35L757.856 601.66L758.195 603.626L760.19 606.055L760.992 608.869L762.241 610.194L762.376 612.65L765.573 619.54L766.198 623.364L769.237 628.08L770.006 632.447L771.591 634.261L771.805 638.15L773.035 640.426L776.776 642.156L781.172 641.899L784.322 643.937L786.923 643.469L792.419 648.754L796.124 649.73L796.17 652.674L797.953 656.026L797.643 659.386L800.291 663.251L806.794 663.424L811.267 662.449L812.952 659.919L815.794 657.725L819.176 657.087L824.37 654.082L827.71 654.004L828.002 655.181L827.532 658.35L828.464 662.112L827.339 664.449L825.077 666.849L823.059 676.433L823.09 679.095L820.489 684.261L819.865 686.761L818.276 688.883L817.366 693.076L815.954 693.677L808.417 691.331L805.463 695.004L801.955 696.84L804.323 704.657L804.276 710.665L804.906 713.099L803.771 718.014L799.272 720.546L799.99 721.778L800.54 724.135L800.921 725.54L801.457 724.236L801.854 723.22L801.545 721.686L804.772 721.018L806.63 717.531L809.439 713.984L810.171 714.138L810.596 715.709L812.972 714.614L813.803 717.987L816.363 718.31L819.371 719.685L825.544 717.338L834.267 710.064L837.173 705.597L839.586 700.403L841.668 698.212L846.624 690.246L853.125 682.026L856.992 674.282L858.8 668.572L861.886 663.891L864.088 658.278L869.743 649.989L871.018 644.147L871.158 640.476L871.896 636.578L871.551 632.422L872.249 629.995L871.419 626.663L871.111 621.07L873.277 611.475L876.487 606.196L877.249 602.891L875.238 599.466L875.17 595.496L873.296 591.865L875.606 590.259L876.038 589.161L875.896 588.013L868.864 582.422L866.612 578.855L863.441 575.815L855.512 576.001L854.955 577.669L854.876 581.689L853.686 584.899L852.808 584.831L853.635 581.961L853.302 580.71L849.393 584.951L845.678 585.849L845.074 584.572L846.99 580.64L844.896 579.927L842.919 581.953L840.316 582.346L839.777 580.825L839.981 577.631L839.579 572.364L834.721 572.488L831.79 572.46L829.759 571.467L828.59 570.902L827.74 569.316L829.228 566.643L829.441 566.434L834.109 562.144L834.53 561.525L836.597 558.377L845.305 549.472L850.85 539.124L855.717 532.994L860.089 528.915L862.362 525.323L865.092 523.098L867.953 515.727L873.179 510.646L878.118 503.004L884.651 498.841L904.52 496.679L905.79 496.965L906.449 499.271L907.853 499.945L908.846 499.329L909.606 496.623L910.809 495.672L918.513 497.568L923.804 495.667L926.372 497.425L928.201 497.438L928.976 496.397L928.294 495.048L928.474 494.16L930.57 493.6L931.271 491.092L934.599 489.464L941.821 491.59L943.768 493.029L945.475 491.692L948.042 491.38L951.354 494.848L953.9 496.25L953.286 497.521L949.424 497.824L947.561 499.126L949.375 502.403L953.476 501.682L956.367 499.648L960.138 500.461L964.585 496.34L969.191 497.937L972.208 496.054L976.451 495.802L977.242 495.077L977.407 493.879L975.909 491.497L969.911 490.938L970.16 485.909L971.285 484.251L972.315 480.891L980.951 471.435L982.643 466.922L986.641 462.349L988.488 456.477L994.117 452.443L997.729 452.43L1006.18 449.31L1010.2 452.575L1014.92 449.356L1015.36 451.635L1014.79 454.415L1012.07 459.585L1012.92 463.954L1015.71 464.466L1015.17 469.032L1015.77 470.147L1019.55 467.778L1021.64 464.278L1031.44 452.367L1034.23 451.484L1036.22 453.198L1037.36 452.335L1037.6 450.65L1036.12 447.875L1036.43 442.446L1037.8 436.918L1044.43 434.418L1046.1 439.291L1044.5 441.339L1043.85 449.569L1042.46 453.789L1043.55 457.107L1041.12 461.898L1041.6 464.614L1036.78 466.69L1029.66 472.717L1028.05 477.025L1021.68 485.477L1018.72 487.755L1014.22 494.501L1012.47 499.217L1008.8 504.886L1003.17 511.024L998.45 512.93L995.761 515.948L992.511 516.259L992.917 520.771L992.606 523.415L991.288 526.394L986.349 533.367L984.212 544.87L983.926 552.165L984.65 558.366L990.253 586.082L993.324 596.878L994.408 605.649L996.851 610.518L1004.7 601.982L1007.27 597.573L1009.09 592.693L1008.72 589.494L1008.99 586.096L1008.49 583.9L1010.56 584.331L1016.43 580.329L1019.48 580.67L1018.45 572.14L1019.01 568.76L1019.93 566.839L1025.13 561.764L1031.31 561.596L1034.33 558.44L1034.48 556.359L1032.61 552.733L1031.72 548.406L1032.01 545.289L1033.97 539.563L1037.35 537.339L1041.02 539.233L1042.88 537.136L1042.12 530.296L1039.71 529.282L1038.68 526.44L1038.52 520.803L1040.39 517.552L1041.16 514.166L1037.03 511.7L1035.04 513.49L1033.66 513.369L1032.5 512.244L1031.78 509.502L1032.51 504.964L1033.64 502.038L1037.87 496.096L1038.24 493.173L1039.16 492.445L1040.25 489.474L1040.04 485.867L1041.64 481.121L1044.36 478.735L1048.57 477.176L1052.86 480.467L1055.09 476.04L1056 475.312L1055.94 475.613C1056.16 475.473 1056.41 475.315 1056.69 475.115C1057.4 474.625 1057.75 474.14 1058.04 473.692C1058.42 473.086 1058.68 472.553 1059.53 472.184C1059.91 472.021 1060.21 471.873 1060.46 471.76C1061.2 471.424 1061.49 471.351 1061.79 471.854C1062.19 472.532 1061.51 472.423 1061.53 474.122C1061.55 475.822 1062.77 475.602 1061.88 476.808C1061 478.008 1059.27 479.87 1059.65 481.345C1060.03 482.825 1058.72 485.607 1060.01 485.079C1061.3 484.546 1061.99 484.246 1064.13 481.229C1066.26 478.206 1066.77 476.177 1068.53 474.838C1070.3 473.499 1068.78 473.377 1071.86 473.077C1074.93 472.778 1076.39 471.368 1078.72 470.875C1081.05 470.376 1081.81 471.093 1083.19 471.439C1084.57 471.779 1085.54 469.763 1088.54 472.129C1089.69 473.036 1090.59 473.743 1091.33 474.364C1091.37 474.397 1091.42 474.436 1091.46 474.475C1092.55 475.424 1093.23 476.196 1093.69 477.236C1094.46 478.979 1094.13 479.832 1095.75 481.835C1097.38 483.844 1097.7 486.231 1099.04 484.514C1100.39 482.797 1099.31 482.153 1099.87 479.483C1100.43 476.813 1100.31 476.125 1102.55 473.848C1107.15 469.174 1111.65 464.013 1116.77 460.059C1121.25 456.594 1122.27 452.196 1127.74 449.193C1133.21 446.191 1135.82 443.33 1140.74 440.64C1145.66 437.944 1148.36 435.27 1149.63 433.983C1150.89 432.689 1150.29 432.802 1154.03 433.137C1157.77 433.472 1161.24 433.701 1164 435.384C1166.76 437.072 1168.98 437.008 1168.2 434.891C1167.41 432.767 1169.12 432.237 1170.16 430.547C1171.21 428.858 1170.31 427.32 1168.21 425.218C1166.1 423.116 1167.07 425.147 1166.07 420.5C1165.08 415.847 1164.56 417.231 1162.32 413.854C1160.07 410.482 1158.29 406.265 1157.2 403.201C1156.12 400.131 1156.08 398.27 1154.91 399.007C1153.87 399.653 1154.54 402.126 1153.25 401.639L1152.11 399.268L1149.29 399.075L1148.35 398.513C1147.94 397.904 1147.62 397.067 1147.47 395.845C1146.92 391.609 1146.76 391.701 1148.12 390.584C1148.23 390.493 1148.32 390.427 1148.4 390.378L1148.91 390.395C1149.26 390.753 1149.55 391.844 1151.95 391.976C1155.5 392.179 1157.63 394.079 1159.08 391.528C1160.54 388.983 1162.43 390.482 1163.34 386.295C1164.26 382.114 1166.2 378.902 1166.72 377.455C1167.23 376.014 1168.7 374.973 1167.81 372.23C1166.93 369.487 1166.97 371.336 1164.38 367.625C1163.38 366.183 1162.56 364.862 1162.04 363.767L1161.92 360.687C1161.92 360.687 1161.96 360.674 1161.98 360.668C1163.45 360.324 1165.64 360.337 1167.06 358.975C1168.48 357.613 1169.37 354.084 1170.15 356.075C1170.93 358.067 1170.18 360.034 1169.5 361.527C1168.82 363.02 1167.99 364.823 1169.96 366.227C1171.93 367.63 1172.61 366.754 1172.52 368.688C1172.44 370.622 1170.11 372.164 1172.68 372.539C1175.25 372.908 1176.78 375.22 1179.4 372.41C1182.03 369.607 1182.8 367.622 1184.48 368.153C1186.16 368.684 1191.11 368.846 1191.9 370.808C1192.68 372.776 1193.69 375.417 1194.65 377.667C1195.61 379.917 1196.57 382.167 1199.79 381.615C1203 381.057 1203.68 381 1206.97 383.471C1210.26 385.949 1210.94 387.955 1213.94 386.257C1216.94 384.554 1216.49 389.209 1218.38 387.456C1220.28 385.704 1218.34 384.391 1220.86 383.626C1223.39 382.861 1225.07 382.499 1222.4 380.047C1219.74 377.594 1219.04 379.336 1220.67 376.722C1222.29 374.108 1221.03 375.418 1220.79 372.89C1220.54 370.356 1221.93 368.943 1220.43 367.098C1218.92 365.252 1219.44 363.627 1218.37 361.876C1217.31 360.124 1212.96 359.66 1214.04 358.684C1215.12 357.708 1216.6 358.333 1219.5 358.771C1222.39 359.21 1225.59 359.344 1226.2 358.061C1226.81 356.778 1224.39 354.9 1225.77 354.877C1227.16 354.853 1228.94 355.652 1229.11 353.433C1229.28 351.208 1228.71 350.916 1228.29 349.396C1227.87 347.883 1228.01 344.126 1229.5 344.024C1230.98 343.922 1232.23 344.272 1231.61 342.621Z" fill="black" fill-opacity="0.08"/>
</g>
<path d="M1241.85 311.714C1241.22 310.063 1240.38 309.97 1238.99 310.006C1237.59 310.041 1236.44 310.04 1234.7 309.049C1232.96 308.065 1231.31 307.849 1229.15 305.887C1226.98 303.931 1228.38 303.763 1226.11 302.86C1223.83 301.962 1224.59 301.977 1223.08 300.662C1221.57 299.346 1221.74 298.378 1219.72 300.389C1217.7 302.399 1216.9 303.533 1215.63 303.449C1214.37 303.359 1214.4 303.197 1212.36 302.383C1210.33 301.57 1210.94 300.633 1208.62 301.506C1207.34 301.982 1207.09 302.082 1205.7 302.354C1204.31 302.625 1201.9 303.606 1203.72 304.305C1205.54 305.005 1208.41 307.007 1208.33 308.744C1208.26 310.487 1206.77 313.5 1207.62 314.163C1208.48 314.826 1209.44 314.436 1210.81 314.736C1212.18 315.036 1211.74 317.172 1210.84 318.511C1209.93 319.844 1209.53 319.563 1209.09 317.762C1208.66 315.967 1207.51 315.222 1207.79 317.138C1208.05 319.054 1207.4 318.949 1206.6 317.547C1205.79 316.144 1206.16 316.166 1205.55 314.487C1204.95 312.801 1204.96 314.484 1203.74 313.366C1202.51 312.255 1201.32 312.237 1202.36 310.951C1203.4 309.665 1202.97 309.121 1202.37 307.435C1201.77 305.743 1200.65 304.668 1200.34 302.188C1200.04 299.714 1200.88 300.072 1199.15 297.986C1197.43 295.9 1194.49 293.151 1192.53 291.874C1187.92 288.877 1181.38 287.108 1177 283.526C1174.03 281.107 1169.33 271.674 1165.18 266.586L1164.67 265.721L1163.87 265.114C1163.87 265.114 1163.85 265.103 1163.85 265.097C1163.13 264.367 1162.42 263.825 1161.77 263.531C1161.76 263.531 1161.75 263.525 1161.75 263.525L1159.67 261.958L1154.07 259.997C1153.81 259.758 1153.52 259.491 1153.2 259.19C1148.51 254.76 1145.66 252.17 1137.88 252.178C1137.7 252.184 1137.54 252.19 1137.38 252.224L1121.28 253.625L1096.93 248.929L1095.8 250.465L1095.35 256.101L1094.35 259.898L1094.99 260.701C1094.75 261.038 1094.79 261.572 1095.45 262.559C1096.05 263.461 1096.71 263.986 1097.36 264.385L1099.35 272.134L1094.1 278.219L1093.64 278.754L1089.77 278.982L1086.33 273.218L1079.03 268.83L1077.16 261.33L1076.78 259.816L1077.76 260.048L1082.15 261.087L1084.33 261.602L1085.55 260.178L1086.13 256.999L1084.77 254.492L1078.78 252.578L1075.75 254.23L1073.05 258.921L1067.43 264.58L1052.04 263.894L1044.95 260.611L1033.23 263.167L1028.25 267.157L1025.66 265.797L1023.12 269.324L1021.01 264.996L1013.3 260.316L1013.78 250.824L1012.95 245.618L1010.79 241.448L1004.11 235.396L997.362 232.493L987.412 231.128L980.314 231.978L964.853 237.617L955.123 238.988L952.049 236.901L946.251 227.574L941.182 225.964L934.204 220.008L928.72 218.498L928.491 217.042L929.105 215.77L932.137 216.389L933.994 213.536L931.877 208.887L927.393 205.453L921.118 203.312L911.159 203.895L896.615 197.906L870.707 194.692L865.06 192.242L863.357 193.055L864.156 197.823L863.322 200.613L854.214 202.977L851.164 208.25L851.139 209.842L851.689 210.844L855.873 211.671L855.431 218.061L856.67 226.7L856.07 228.922L852.434 229.892L847.504 225.251L843.434 229.308L843.057 234.819L842.119 235.785L839.798 235.01L838.246 232.318L838.692 230.816L840.984 229.649L840.354 227.895L836.57 228.196L834.475 230.151L827.833 228.271L825.487 227.733L822.947 229.237L817.317 232.55L811.686 233.115L805.129 228.569L800.841 222.534L797.983 228.63L793.889 246.015L791.773 249.677L789.413 250.252L784.087 246.668L779.148 240.591L770.507 225.112L771.395 219.214L774.805 214.199L774.485 210.44L772.811 206.358L773.978 201.281L772.322 191.987L760.509 180.43L755.977 180.26L751.521 182.751L748.73 180.406L742.089 179.206L735.13 174.322L731.974 176.336L731.002 174.565L730.573 176.458L729.143 175.988L727.932 178.202L727.294 184.489L728.283 192.064L726.482 196.626L719.147 195.945L710.135 198.537L705.168 197.361L701.241 193.77L696.599 194.958L690.692 192.638L689.379 189.495L690.124 185.152L688 182.497L665.871 180.17L652.91 185.627L651.186 190.862L649.468 187.974L648.243 180.291L646.048 176.284L644.287 179.531L640.747 180.728L634.829 178.253L632.008 173.962L624.276 174.256L621.432 181.304L622.364 182.368L626.683 180.718L627.223 182.279L622.064 189.226L613.039 193.812L609.224 197.578L596.942 199.53L593.454 204.547L593.148 202.413L593.946 199.026L598.626 193.583L601.044 186.481L609.509 182.8L614.968 174.368L620.132 168.736L623.489 162.092L643.368 141.594L648.033 131.102L648.575 114.719L644.648 104.211L641.009 103.711L637.038 90.973L626.841 85.2468L605.272 86.9473L600.853 93.6499L593.833 95.1775L593.378 91.7055L595.926 84.8699L596.135 80.4475L592.986 77.0893L587.029 77.9586L578.829 75.0529L579.02 72.6198L584.819 61.9741L583.338 58.6001L574.335 53.8424L570.315 53.3206L565.862 55.9261L555.595 68.2267L549.688 82.3344L549.311 85.8171L549.674 92.3991L548.265 97.1731L535.238 102.828L535.791 105.265L538.175 109.139L538.091 111.136L531.199 109.512L527.313 112.087L523.439 117.601L519.795 116.306L517.375 119.27L511.234 120.906L510.815 118.862L512.482 111.203L508.066 109.675L499.822 115.25L491.217 116.986L490.433 118.621L490.528 123.073L489.744 124.708L467.579 134.164L462.983 138.29L459.886 138.711L453.159 148.293L446.093 150.456L445.362 155.755L439.925 156.347L439.09 161.171L436.701 162.03L435.704 165.943L435.89 169.274L439.023 167.578L440.409 168.534L440.598 170.631L438.719 174.482L442.461 178.834L444.595 185.87L432.791 193.046L403.639 198.454L398.529 200.823L397.288 204.513L397.626 210.658L399.241 217.843L399.8 224.534L401.209 229.42L404.549 232.726L411.099 235.722L415.418 243.064L419.836 245.988L421.638 249.068L421.124 262.424L424.207 276.281L421.517 274.331L421.094 278.455L422.293 278.743L422.9 280.815L420.628 285.797L422.911 289.288L423.238 291.058L420.223 289.442L418.821 286.78L419.82 278.728L419.89 270.368L417.405 270.158L415.335 273.225L413.951 266.7L414.25 261.157L417.534 256.665L418.691 253.456L418.89 250.936L418.137 248.956L415.724 247.901L407.067 248.729L399.192 240.4L392.266 235.353L381.46 233.763L379.056 229.406L375.978 228.754L372.34 233.027L371.704 235.325L374.602 236.911L376.212 240.511L379.36 242.515L379.772 243.844L379.616 245.129L376.318 247.349L368.933 243.603L367.114 245.065L365.907 249.429L369.641 257.085L381.038 263.301L382.491 266.838L382.614 269.093L380.572 269.294L376.282 265.888L362.576 263.346L359.893 259.569L358.938 249.837L359.854 237.534L359.232 231.088L356.895 224.584L354.588 224.079L354.369 226.998L355.305 234.978L354.709 240.699L352.801 243.997L346.233 250.305L343.067 259.64L351.712 280.653L351.627 284.633L349.539 291.557L348.732 298.248L351.316 312.698L354.072 315.158L367.23 311.845L372.655 313.749L378.031 317.533L383.437 330.701L381.02 336.489L380.733 339.531L381.043 341.78L388.187 346.571L381.977 347.651L379.167 343.52L378.626 341.959L378.187 334.031L376.975 327.224L371.427 318.321L367.47 318.235L357.941 324.597L357.055 325.802L356.572 330.764L359.255 339.435L359.418 342.41L358.984 345.497L355.115 353.201L352.478 361.873L344.202 370.354L341.352 375.851L328.197 375.666L321.114 373.414L319.221 370.74L320.207 370.084L324.047 372.168L324.446 371.071L323.885 368.559L324.114 367.791L329.011 371.92L335.186 369.447L336.647 364.233L339.091 360.986L343.026 351.089L346.754 344.306L346.822 336.586L348.48 329.486L347.449 326.564L342.746 321.275L341.407 317.695L340.653 301.269L339.442 291.119L340.451 283.857L340.234 275.835L338.302 269.069L335.087 264.52L333.563 260.317L337.764 241.494L336.974 229.889L328.204 223.164L311.281 223.635L308.595 230.793L306.317 249.303L304.385 255.622L296.159 266.327L293.914 272.466L293.718 273.038L294.237 278.335L297.285 278.434L298.495 281.108L298.314 291.622L299.597 296.876L296.73 299.307L296.122 302.803L296.636 306.596L298.262 305.781L299.423 306.79L298.188 309.962L298.151 312.033L299.299 312.126L300.779 307.344L305.334 309.226L306.609 314.405L307.415 315.986L309.463 320.044L314.156 323.149L314.092 326.096L311.418 334.804L309.768 337.246L309.125 337.285L307.45 333.842L301.11 328.366L298.477 324.783L296.718 323.851L286.888 318.58L276.468 310.918L267.953 307.441L250.541 304.563L246.261 309.589L245.783 311.323L248.805 319.262L250.901 322.085L251.337 325.835L248.279 330.353L244.261 331.941L243.766 336.702L242.708 338.195L238.839 336.914L238.518 333.829L239.667 329.865L236.093 325.778L227.199 330.515L223.476 335.385L214.562 334.238L210.065 336.171L206.908 339.499L204.961 344.147L201.448 342.444L198.398 344.334L194.68 343.796L194.128 342.754L194.569 341.736L198.097 340.338L197.11 335.54L197.157 330.882L194.679 329.357L187.481 335.271L187.981 339.456L186.697 341.638L185.623 341.461L183.906 338.619L179.139 340.371L176.941 339.828L167.717 350.312L160.376 354.358L158.465 358.25L153.637 360.326L152.149 367.057L151.733 371.89L150.794 374.175L146.188 375.437L139.532 376.664L137.596 375.386L135.792 372.231L135.073 370.958L131.493 368.064L130.747 366.279L134.284 358.713L135.03 358.434L142.17 355.669L142.259 353.158L140.679 349.269L134.611 342.666L134.152 342.612L123.276 341.065L118.219 340.324L118.527 341.818L123.495 349.162L123.689 357.507L122.097 365.118L121.831 369.311L122.459 370.985L124.742 372.441L125.07 372.897L126.522 375.039L127.221 380.808L125.831 386.654L124.91 393.394L118.431 387.525L110.087 386.463L105.17 393.079L99.606 396.903L93.7168 403.771L92.6491 406.499L92.9286 409.51L96.2851 415.195L97.8081 419.363L96.3093 423.23L94.6271 421.621L92.1911 424.268L84.578 421.29L81.055 422.176L80.1365 420.005L76.6137 416.826L71.5953 415.41L68.4922 419.728L69.0765 422.798L73.205 428.008L78.0429 428.277L79.4696 429.987L79.8485 432.667L80.1992 436.344L75.2374 439.381L67.7039 436.482L65.717 433.46L65.38 432.917L63.7231 430.391L59.9124 430.894L56.0716 427.421L55.441 421.568L52.207 411.855L53.5866 405.168L54.4659 403.928L54.2899 402.747L50.2132 397.097L45.0345 394.136L42.9574 390.88L40.3931 389.237L39.7836 386.41L35.9216 382.62L34.6799 378.639L36.6196 378.683L42.4026 384.31L44.6698 384.095L50.7924 387.636L54.2995 387.789L59.4926 391.02L81.2793 396.028L86.8299 394.671L93.4703 391.098L96.3863 388.141L101.443 379.889L102.388 376.416L102.332 373.357L100.743 369.353L99.2825 362.877L98.2856 361.343L94.8478 359.597L90.5988 354.235L87.927 354.031L78.9367 348.155L72.3757 341.459L61.6964 333.259L57.0162 331.064L47.3321 329.765L44.4522 327.902L39.8816 331.117L38.3742 327.94L35.7835 328.534L34.5359 326.576L32.1362 325.763L29.3971 322.979L29.6731 321.812L34.2156 322.817L35.2101 320.887L34.6455 319.609L28.0269 316.057L24.3126 321.052L18.667 319.992L19.275 323.453L18.7101 324.878L16.3248 325.016L13.4267 322.762L13.4953 325.382L12.4144 327.874L7.68843 331.054L6.31936 336.541L4.60372 337.124L2.40623 339.993L3.36084 342.088L1.86828 348.859L3.03577 354.117L8.76453 358.755L14.2105 367.229L13.5855 371.043L8.3587 382.367L8.81721 385.124L12.6906 392.654L15.7288 398.881L17.6837 406.683L14.9614 408.314L15.6957 409.897L15.1134 411.127L14.6727 415.528L15.9667 417.56L14.8857 420.052L15.0325 422.704L18.01 425.711L18.7745 431.276L22.272 436.047L21.9479 439.124L21.0475 441.408L18.5928 443.819L21.9628 447.718L22.6562 448.553L24.7933 450.095L28.4764 452.784L31.5226 458.411L29.1419 466.152L21.7433 477.405L14.7769 488.234L12.3437 490.287L11.7617 491.356L11.0957 493.061L9.90626 493.568L6.2543 498.279L5.20919 500.009L4.92283 500.348L6.13319 500.993L11.1322 497.913L10.8441 501.589L11.4115 503.628L15.5242 505.812L20.8846 505.891L23.8093 509.303L22.9194 510.388L16.4214 509.022L14.3249 511.611L11.3016 511.943L9.88942 513.899L8.06513 513.171L7.73555 517.603L8.86244 518.729L8.76959 519.77L7.02589 521.183L5.56545 525.723L3.02992 528.696L4.63498 534.371L4.90915 537.896L6.79126 542.438L5.34728 543.754L4.36039 545.92L4.06862 548.126L5.42369 547.971L5.65822 549.427L6.80232 550.236L8.13863 551.707L7.11841 557.932L8.62993 557.847L10.7177 561.938L11.7819 566.052L11.3402 567.71L12.6316 568.987L14.9759 568.769L16.3918 570.318L18.4736 569.482L20.7856 570.136L21.2828 570.863L21.2694 572.656L22.0449 573.644L25.1623 571.631L27.5437 571.372L29.5603 572.088L31.5821 574.32L32.9437 574.874L33.2459 576.887L32.881 579.216L34.0767 582.289L33.0977 584.529L33.0699 586.046L35.0372 587.957L35.5647 589.957L37.6235 593.496L41.207 595.831L41.391 599.121L43.8956 599.095L46.2396 600.226L46.8479 602.339L48.545 604.068L46.6154 607.05L44.1625 608.666L42.4083 608.569L40.4036 607.374L38.5566 608.318L38.0921 610.294L39.9893 612.928L40.1003 614.987L41.1816 619.459L42.3866 621.972L45.4111 622.354L46.3115 621.424L47.1629 618.986L49.9697 619.618L53.1508 618.041L57.8645 618.044L59.8798 620.074L60.5769 622.379L62.7272 624.837L62.5903 625.879L60.8575 626.779L61.8993 628.508L62.3483 631.819L66.1615 632.751L68.7247 632.325L69.4168 633.794L70.7039 634.431L71.6926 637.914L71.5586 640.23L73.3229 642.672L76.4522 641.535L78.6291 643.116L81.1789 643.802L87.1537 641.267L88.4848 642.576L89.7217 645.054L92.1055 646.904L92.3191 646.868C92.3343 647.335 92.2576 647.856 92.1817 648.401C92.0873 649.055 91.9883 649.739 92.0216 650.423C92.0965 651.712 92.0074 654.563 91.8016 655.348C91.6698 655.865 91.0838 655.965 90.5635 656.052C90.2951 656.096 90.0377 656.139 89.8757 656.237C89.6541 656.365 89.5956 656.598 89.5327 656.865C89.4493 657.179 89.3619 657.539 88.9752 657.841C88.6638 658.087 88.1309 658.803 87.5982 659.524C86.9176 660.44 86.2317 661.363 85.9569 661.378C85.5667 661.402 84.0061 661.841 83.2807 662.056L83.4334 664.892L84.2446 666.133L84.3195 667.422L85.1672 669.445L84.5001 670.776C83.9887 670.459 82.9255 669.936 82.7521 670.362C82.6551 670.596 82.7641 671.071 82.8733 671.551C83.0142 672.158 83.1609 672.775 82.8909 672.94C82.4157 673.227 80.7037 673.584 80.2145 673.612C79.8957 673.629 79.6599 673.32 79.3953 672.971C79.2512 672.774 79.0958 672.566 78.9085 672.394C78.3917 671.91 76.3491 670.734 75.8546 670.768C75.7336 670.772 75.5317 670.83 75.2698 670.903C74.4622 671.132 73.1255 671.511 72.1612 670.984C71.1407 670.419 69.41 670.368 68.6735 670.41C69.1606 671.846 70.1599 674.977 70.2154 676.007C70.2438 676.542 70.3517 676.982 70.4396 677.314C70.5543 677.794 70.6179 678.057 70.3321 678.072C69.9362 678.091 68.0014 677.69 67.0861 677.484C66.1134 677.713 64.0158 678.233 63.4345 678.477C62.8586 678.716 61.063 678.701 60.2357 678.66C60.2219 678.407 60.0953 677.898 59.6994 677.917L56.7426 678.092L56.6119 680.171L56.0142 682.791L55.6084 684.367C55.7129 684.703 55.8617 685.384 55.6638 685.397C55.4715 685.409 54.6364 686.146 54.2465 686.517L50.8003 686.713C50.6025 686.726 48.504 688.405 47.4794 689.24L48.7798 690.453L47.129 691.846L47.2315 693.647L48.5321 694.865L54.7849 696.309L57.4528 695.378L60.2041 695.994L60.0593 697.809L54.3593 702.024L53.2309 703.901L59.8198 706.878L60.9146 708.882L61.1559 713.26L62.9373 714.192L65.3994 714.045L68.1982 711.04L73.0255 708.947L76.0854 706.18L79.0646 706.524L81.9936 705.832L83.3278 703.17L80.7684 701.509L75.4325 703.372L73.9264 702.945L71.5255 699.723L69.1802 697.536L69.7362 694.14L77.8236 688.495L85.1131 686.255L91.3106 682.271L95.4639 681.295L95.4493 681.354L98.3941 680.978L102.213 679.206L102.921 679.638L103.344 681.128L97.715 684.482L97.4827 685.13L97.8977 686.378L95.8319 686.183L92.777 687.237L93.3032 689.196L95.8989 691.466L95.5008 693.958L94.0342 694.918L91.7824 698.827L90.9122 701.704L89.0227 702.528L86.0249 701.949L86.0354 703.459L85.2278 704.702L89.0661 706.746L91.5451 709.66L93.9835 709.797L97.1813 712.635L101.364 714.096L110.015 722.065L111.456 723.371L112.213 721.933L112.52 721.358L116.202 721.303L117.178 721.68L124.165 724.378L130.035 724.031L130.542 724.239L131.825 724.72L133.451 724.625L136.311 726.886L136.819 727.094L140.435 728.551L141.013 730.071L141.254 730.374L142.223 730.716L143.964 729.897L144.497 729.867L144.489 729.631L147.036 728.364L148.102 728.46L149.002 729.56L149.882 728.32L151.653 728.767L152.263 729.41L153.187 730.393L155.331 730.621L156.21 730.729L156.305 732.473L155.653 733.745L160.225 736.024L161.787 736.807L164.573 737.641L165.948 739.111L169.384 742.846L172.911 743.436L174.693 740.667L177.148 738.93L177.278 738.522L177.347 738.439L178.459 736.586L177.973 736.02L176.908 735.283L174.566 731.483L171.727 728.189L170.834 725.775L169.207 723.842L169.589 721.194L169.151 719.394L169.295 718.587L170.139 714.559L168.797 715.117L166.683 711.222L164.688 709.468L164.298 709.331L162.827 708.822L162.436 707.97L162.891 705.874L164.044 704.734L165.163 703.596L168.853 694.111L170.16 694.355L173.732 692.275L174.391 692.552L175.354 690.669L176.981 691.249L176.744 689.032L178.356 688.66L177.937 690L178.397 690.089L180.511 685.671L175.372 682.075L175.71 681.297L177.495 681.311L178.162 680.32L174.945 673.667L170.156 669.494L164.504 669.742L163.214 667.67L162.698 664.483L158.927 660.961L159.833 656.653L161.46 653.175L160.144 649.951L160.456 645.317L162.638 642.131L163.577 638.497L164.6 637.12L166.965 637.859L171.282 643.131L173.649 642.596L174.881 640.18L173.498 633.696L177.606 630.987L179.519 627.176L185.122 624.024L187.253 620.638L189.765 618.622L192.529 619.135L194.415 620.933L195.885 620.728L197.725 618.913L200.109 618.055L203.56 620.717L209.568 620.722L216.676 626.95L218.774 631.203L219.47 630.764L220.031 628.544L220.934 627.695L222.492 627.682L224.725 629.619L227.55 630.486L230.08 628.868L233.663 624.92L238.144 624.175L241.653 625.763L243.958 623.478L246.592 623.049L249.117 623.973L251.454 627.099L257.359 629.373L259.299 628.743L261.406 626.314L264.201 627.425L268.886 626.869L271.619 624.72L271.999 618.614L264.313 614.93L261.184 611.329L266.899 606.064L266.795 604.2L265.529 601.171L267.254 598.006L270.41 596.672L274.096 596.732L274.815 595.976L272.771 594.068L268.617 592.478L268.547 591.172L269.307 589.815L266.827 588.25L267.658 583.985L269.372 582.688L272.863 583.36L276.201 582.528L277.986 583.257L284.2 579.434L293.51 576.659L297.297 576.439L300.483 572.833L305.795 572.084L319.687 566.97L321.615 563.954L327.118 560.448L332.025 561.159L335.657 562.933L338.472 561.616L340.686 561.801L342.053 563.871L344.367 570.018L344.368 572.762L343.835 574.826L344.499 576.458L347.787 576.82L351.033 575.713L351.988 574.424L353.315 575.78L354.887 578.748L355.52 578.554L356.301 576.839L360.598 578.256L363.419 577.809L363.495 579.121L361.368 582.628L361.552 583.89L362.351 584.595L365.765 583.045L369.53 583.858L371.162 581.733L376.474 578.119L378.663 575.129L383.671 572.17L387.487 571.148L387.484 573.097L385.93 574.584L385.997 575.81L395.8 584.662L398.364 587.815L407.718 603.017L415.25 616.223L417.303 615.502L418.572 612.364L420.172 611.117L422.616 611.928L423.771 614.247L427.671 616.842L433.964 616.474L438.708 613.692L441.363 613.533L445.175 615.78L447.263 618.522L449.059 622.116L453.727 624.784L456.809 629.654L462.981 630.645L467.211 627.454L468.021 630.349L472.547 635.257L476.427 633.991L478.612 632.949L478.714 631.355L479.592 630.069L483.622 630.031L484.489 629.264L486.193 629.166L487.067 627.759L488.064 627.939L490.341 626.496L490.601 625.686L489.879 624.333L490.19 623.717L492.246 623.123L493.229 621.672L494.188 621.179L497.553 619.509L499.744 617.112L501.616 616.605L503.189 616.195L504.255 614.937L505.792 613.099L509.161 612.899L509.682 611.993L510.337 610.801L512.562 612.502L515.069 611.875L515.504 613.561L516.301 614.192L524.947 613.883L525.729 614.912L526.663 618.079L528.566 620.194L530.649 620.072L532.302 621.129L534.633 621.35L537.788 619.976L540.381 620.142L542.332 621.022L543.708 620.503L546.312 620.824L548.442 622.332L549.621 622.344L551.633 620.195L553.717 619.439L556 615.962L556.221 612.449L554.189 610.737L553.518 608.235L552.602 606.813L553.003 603.053L553.668 601.301L554.975 600.191L555.906 597.156L558.468 595.329L560.126 591.613L568.296 595.788L572.828 595.964L578.989 598.823L584.868 599.951L585.723 601.011L586.352 606.149L587.383 609.746L591.931 612.942L597.926 614.774L601.245 614.38L603.731 612.608L610.775 610.088L615.513 610.522L617.936 611.691L621.139 611.307L623.102 612.388L625.216 614.928L630.978 616.019L632.082 619.498L636.326 622.669L641.212 622.384L644.555 623.735L648.829 624.122L650.726 623.337L653.463 624.052L658.138 621.312L662.498 620.456L666.426 618.635L668.969 618.607L670.692 617.391L671.945 614.61L674.29 612.37L679.457 608.882L684.802 609.324L688.629 612.561L691.399 612.555L694.804 610.924L697.55 611.719L698.786 612.802L702.047 614.715L707.173 616.047L709.452 614.679L713.057 611.047L717.432 609.119L718.581 606.509L717.609 604.738L717.951 602.726L721.07 595.819L723.2 589.015L727.243 584.481L728.128 581.886L726.975 576.224L725.527 575.391L722.911 575.548L722.476 574.537L722.74 573.168L728.639 566.421L738.982 563.11L743.305 562.936L747.34 561.705L751.218 562.433L758.505 566.378L762.249 566.039L764.868 567.316L765.933 569.442L768.096 570.753L768.435 572.718L770.43 575.147L771.232 577.962L772.481 579.286L772.616 581.743L775.813 588.633L776.438 592.456L779.477 597.173L780.247 601.539L781.831 603.353L782.045 607.243L783.276 609.518L787.016 611.248L791.413 610.991L794.562 613.029L797.163 612.561L802.659 617.846L806.364 618.822L806.41 621.766L808.193 625.119L807.884 628.478L810.531 632.343L817.034 632.516L821.507 631.541L823.192 629.011L826.034 626.818L829.416 626.179L834.611 623.174L837.951 623.096L838.242 624.274L837.772 627.443L838.704 631.204L837.58 633.542L835.317 635.941L833.299 645.525L833.331 648.187L830.729 653.353L830.105 655.853L828.517 657.976L827.607 662.168L826.194 662.769L818.657 660.423L815.704 664.096L812.195 665.932L814.563 673.749L814.516 679.757L815.146 682.191L814.012 687.106L809.512 689.638L810.23 690.871L810.78 693.227L811.161 694.632L811.697 693.329L812.094 692.312L811.785 690.778L815.012 690.11L816.87 686.624L819.679 683.076L820.411 683.23L820.836 684.801L823.213 683.707L824.044 687.08L826.604 687.403L829.611 688.777L835.784 686.431L844.507 679.156L847.413 674.689L849.827 669.495L851.909 667.304L856.864 659.338L863.365 651.119L867.232 643.374L869.04 637.664L872.126 632.984L874.328 627.37L879.984 619.081L881.259 613.239L881.398 609.569L882.136 605.67L881.792 601.515L882.489 599.087L881.66 595.755L881.351 590.162L883.518 580.567L886.727 575.289L887.49 571.983L885.479 568.558L885.41 564.589L883.536 560.957L885.846 559.352L886.278 558.253L886.136 557.105L879.105 551.515L876.852 547.948L873.681 544.907L865.752 545.093L865.195 546.761L865.116 550.781L863.927 553.991L863.049 553.923L863.875 551.053L863.543 549.802L859.633 554.044L855.918 554.941L855.315 553.665L857.23 549.732L855.136 549.019L853.159 551.045L850.556 551.438L850.017 549.918L850.221 546.723L849.819 541.457L844.961 541.58L842.03 541.552L839.999 540.56L838.83 539.994L837.98 538.409L839.468 535.736L839.682 535.527L844.349 531.237L844.77 530.617L846.837 527.47L855.546 518.565L861.09 508.216L865.957 502.086L870.329 498.008L872.602 494.415L875.333 492.19L878.193 484.82L883.419 479.738L888.358 472.096L894.891 467.933L914.76 465.771L916.03 466.057L916.689 468.364L918.093 469.037L919.086 468.421L919.846 465.715L921.049 464.764L928.754 466.66L934.044 464.759L936.612 466.517L938.441 466.53L939.217 465.49L938.534 464.141L938.714 463.253L940.811 462.692L941.511 460.184L944.839 458.556L952.061 460.682L954.008 462.121L955.715 460.784L958.282 460.473L961.594 463.941L964.14 465.342L963.526 466.614L959.665 466.916L957.802 468.218L959.615 471.495L963.716 470.775L966.607 468.74L970.378 469.553L974.825 465.432L979.431 467.029L982.448 465.146L986.691 464.894L987.482 464.17L987.647 462.971L986.149 460.589L980.151 460.03L980.4 455.001L981.525 453.344L982.556 449.983L991.191 440.527L992.884 436.014L996.882 431.441L998.728 425.569L1004.36 421.535L1007.97 421.523L1016.42 418.402L1020.44 421.668L1025.16 418.448L1025.6 420.727L1025.03 423.508L1022.31 428.677L1023.16 433.047L1025.95 433.558L1025.41 438.124L1026.01 439.239L1029.79 436.87L1031.88 433.37L1041.68 421.46L1044.47 420.576L1046.46 422.29L1047.6 421.427L1047.84 419.742L1046.36 416.967L1046.67 411.539L1048.04 406.011L1054.67 403.511L1056.34 408.383L1054.74 410.431L1054.09 418.661L1052.7 422.881L1053.79 426.199L1051.36 430.99L1051.84 433.706L1047.02 435.782L1039.9 441.809L1038.29 446.117L1031.92 454.569L1028.96 456.848L1024.46 463.593L1022.71 468.31L1019.04 473.978L1013.41 480.116L1008.69 482.022L1006 485.041L1002.75 485.352L1003.16 489.863L1002.85 492.508L1001.53 495.486L996.59 502.46L994.452 513.962L994.166 521.257L994.891 527.458L1000.49 555.174L1003.56 565.97L1004.65 574.741L1007.09 579.611L1014.94 571.075L1017.51 566.665L1019.33 561.785L1018.96 558.587L1019.23 555.189L1018.73 552.992L1020.8 553.424L1026.67 549.422L1029.72 549.763L1028.69 541.232L1029.25 537.852L1030.17 535.931L1035.37 530.856L1041.55 530.689L1044.57 527.532L1044.72 525.452L1042.85 521.826L1041.96 517.498L1042.25 514.381L1044.21 508.655L1047.59 506.431L1051.26 508.325L1053.12 506.228L1052.36 499.388L1049.95 498.374L1048.92 495.533L1048.76 489.895L1050.63 486.645L1051.4 483.258L1047.27 480.792L1045.28 482.582L1043.9 482.462L1042.74 481.336L1042.02 478.594L1042.75 474.056L1043.88 471.13L1048.11 465.189L1048.48 462.265L1049.4 461.537L1050.49 458.566L1050.28 454.959L1051.88 450.213L1054.6 447.828L1058.81 446.268L1063.1 449.559L1065.33 445.132L1066.24 444.404L1066.18 444.706C1066.4 444.566 1066.65 444.407 1066.93 444.208C1067.64 443.717 1067.99 443.232 1068.28 442.785C1068.66 442.178 1068.92 441.645 1069.77 441.276C1070.15 441.114 1070.45 440.965 1070.7 440.853C1071.44 440.517 1071.73 440.443 1072.03 440.946C1072.43 441.625 1071.75 441.515 1071.77 443.215C1071.79 444.914 1073.01 444.695 1072.12 445.9C1071.24 447.1 1069.51 448.963 1069.89 450.437C1070.27 451.917 1068.96 454.699 1070.25 454.172C1071.54 453.638 1072.23 453.338 1074.37 450.321C1076.5 447.298 1077.01 445.269 1078.77 443.93C1080.54 442.591 1079.02 442.469 1082.1 442.169C1085.17 441.87 1086.63 440.461 1088.96 439.967C1091.29 439.468 1092.05 440.186 1093.43 440.531C1094.81 440.871 1095.78 438.855 1098.78 441.221C1099.93 442.128 1100.83 442.835 1101.57 443.456C1101.61 443.489 1101.66 443.528 1101.7 443.567C1102.79 444.516 1103.47 445.289 1103.93 446.328C1104.7 448.072 1104.37 448.924 1105.99 450.927C1107.62 452.936 1107.94 455.323 1109.28 453.606C1110.63 451.89 1109.56 451.246 1110.11 448.575C1110.67 445.905 1110.55 445.217 1112.79 442.94C1117.39 438.266 1121.89 433.105 1127.01 429.152C1131.49 425.686 1132.51 421.289 1137.98 418.286C1143.45 415.283 1146.06 412.422 1150.98 409.732C1155.9 407.036 1158.6 404.363 1159.87 403.075C1161.13 401.782 1160.53 401.894 1164.27 402.229C1168.01 402.565 1171.48 402.794 1174.24 404.476C1177 406.164 1179.22 406.101 1178.44 403.983C1177.65 401.859 1179.36 401.329 1180.41 399.64C1181.45 397.95 1180.55 396.413 1178.45 394.31C1176.34 392.208 1177.31 394.239 1176.31 389.592C1175.32 384.939 1174.8 386.323 1172.56 382.946C1170.32 379.574 1168.53 375.358 1167.44 372.293C1166.36 369.223 1166.32 367.362 1165.15 368.099C1164.11 368.745 1164.78 371.218 1163.49 370.732L1162.35 368.36L1159.53 368.167L1158.59 367.605C1158.18 366.997 1157.86 366.16 1157.71 364.937C1157.16 360.702 1157 360.794 1158.36 359.676C1158.47 359.586 1158.56 359.519 1158.64 359.47L1159.15 359.488C1159.5 359.845 1159.79 360.936 1162.19 361.069C1165.74 361.272 1167.87 363.171 1169.32 360.621C1170.78 358.076 1172.67 359.574 1173.58 355.388C1174.5 351.207 1176.44 347.994 1176.96 346.547C1177.47 345.106 1178.94 344.065 1178.05 341.322C1177.17 338.58 1177.21 340.429 1174.62 336.717C1173.62 335.275 1172.8 333.954 1172.28 332.859L1172.16 329.779C1172.16 329.779 1172.2 329.766 1172.22 329.76C1173.69 329.417 1175.88 329.429 1177.3 328.067C1178.72 326.705 1179.61 323.176 1180.39 325.167C1181.17 327.159 1180.42 329.127 1179.74 330.619C1179.06 332.112 1178.23 333.915 1180.2 335.319C1182.17 336.722 1182.85 335.846 1182.76 337.78C1182.68 339.714 1180.35 341.256 1182.92 341.631C1185.49 342 1187.02 344.312 1189.65 341.503C1192.27 338.699 1193.04 336.714 1194.72 337.245C1196.4 337.777 1201.35 337.938 1202.14 339.9C1202.92 341.868 1203.93 344.509 1204.89 346.759C1205.85 349.009 1206.81 351.26 1210.03 350.708C1213.24 350.15 1213.92 350.092 1217.21 352.564C1220.5 355.041 1221.18 357.047 1224.18 355.35C1227.18 353.646 1226.73 358.301 1228.62 356.549C1230.52 354.796 1228.58 353.484 1231.1 352.718C1233.63 351.953 1235.31 351.591 1232.64 349.139C1229.98 346.687 1229.28 348.428 1230.91 345.814C1232.53 343.2 1231.27 344.51 1231.03 341.982C1230.78 339.449 1232.17 338.036 1230.67 336.19C1229.16 334.344 1229.68 332.719 1228.61 330.968C1227.55 329.217 1223.2 328.752 1224.28 327.776C1225.36 326.8 1226.84 327.425 1229.74 327.863C1232.63 328.302 1235.83 328.436 1236.44 327.153C1237.06 325.87 1234.63 323.992 1236.01 323.969C1237.4 323.945 1239.18 324.744 1239.35 322.525C1239.52 320.3 1238.95 320.008 1238.53 318.489C1238.12 316.975 1238.25 313.218 1239.74 313.116C1241.22 313.015 1242.47 313.364 1241.85 311.714Z" fill="white"/>
<mask id="mask0_2017_5859" style="mask-type:alpha" maskUnits="userSpaceOnUse" x="1" y="53" width="1241" height="691">
<path d="M1241.6 311.722C1240.97 310.072 1240.14 309.979 1238.74 310.014C1237.35 310.05 1236.19 310.048 1234.45 309.058C1232.71 308.073 1231.06 307.858 1228.9 305.896C1226.73 303.94 1228.13 303.771 1225.86 302.868C1223.58 301.971 1224.35 301.985 1222.83 300.67C1221.32 299.355 1221.49 298.387 1219.47 300.397C1217.45 302.408 1216.65 303.541 1215.38 303.457C1214.12 303.367 1214.15 303.205 1212.11 302.392C1210.08 301.578 1210.69 300.641 1208.36 301.515C1207.09 301.99 1206.84 302.091 1205.45 302.362C1204.06 302.634 1201.65 303.614 1203.47 304.314C1205.29 305.013 1208.16 307.015 1208.08 308.752C1208.01 310.496 1206.52 313.509 1207.37 314.172C1208.23 314.834 1209.19 314.445 1210.56 314.744C1211.93 315.044 1211.49 317.18 1210.59 318.519C1209.68 319.852 1209.28 319.572 1208.84 317.771C1208.4 315.976 1207.26 315.23 1207.53 317.146C1207.8 319.062 1207.15 318.958 1206.35 317.555C1205.54 316.153 1205.91 316.175 1205.3 314.495C1204.69 312.809 1204.71 314.492 1203.48 313.374C1202.26 312.263 1201.07 312.245 1202.11 310.96C1203.14 309.674 1202.72 309.129 1202.11 307.443C1201.51 305.752 1200.39 304.677 1200.09 302.197C1199.79 299.723 1200.62 300.081 1198.9 297.995C1197.18 295.908 1194.24 293.16 1192.27 291.883C1187.67 288.885 1181.13 287.117 1176.74 283.535C1173.78 281.116 1169.07 271.683 1164.92 266.594L1164.42 265.73L1163.61 265.123C1163.61 265.123 1163.6 265.112 1163.59 265.106C1162.87 264.375 1162.17 263.834 1161.51 263.539C1161.5 263.539 1161.5 263.534 1161.49 263.534L1159.41 261.967L1153.82 260.005C1153.55 259.767 1153.26 259.5 1152.94 259.199C1148.25 254.769 1145.41 252.178 1137.62 252.187C1137.44 252.193 1137.28 252.199 1137.12 252.233L1121.02 253.634L1096.66 248.938L1095.54 250.474L1095.09 256.109L1094.08 259.907L1094.72 260.71C1094.49 261.046 1094.53 261.581 1095.18 262.568C1095.78 263.47 1096.44 263.995 1097.09 264.394L1099.08 272.143L1093.83 278.228L1093.37 278.763L1089.51 278.991L1086.07 273.227L1078.76 268.839L1076.89 261.339L1076.51 259.825L1077.49 260.057L1081.88 261.096L1084.06 261.611L1085.28 260.186L1085.86 257.008L1084.5 254.5L1078.51 252.587L1075.48 254.239L1072.78 258.93L1067.16 264.589L1051.77 263.903L1044.68 260.62L1032.95 263.176L1027.97 267.166L1025.39 265.806L1022.84 269.333L1020.74 265.006L1013.03 260.325L1013.5 250.833L1012.68 245.627L1010.51 241.458L1003.83 235.405L997.084 232.503L987.132 231.137L980.033 231.988L964.57 237.627L954.839 238.998L951.765 236.911L945.965 227.584L940.896 225.974L933.917 220.018L928.433 218.508L928.204 217.052L928.818 215.78L931.85 216.398L933.707 213.546L931.59 208.897L927.106 205.462L920.83 203.322L910.869 203.905L896.323 197.916L870.412 194.702L864.764 192.252L863.061 193.065L863.86 197.833L863.026 200.622L853.917 202.987L850.866 208.26L850.841 209.852L851.391 210.854L855.576 211.681L855.134 218.071L856.372 226.71L855.773 228.932L852.136 229.902L847.205 225.261L843.135 229.318L842.758 234.829L841.82 235.795L839.498 235.02L837.946 232.328L838.393 230.826L840.685 229.659L840.055 227.905L836.27 228.206L834.175 230.161L827.532 228.281L825.185 227.743L822.646 229.247L817.015 232.56L811.383 233.125L804.825 228.579L800.537 222.544L797.678 228.641L793.584 246.025L791.467 249.687L789.107 250.262L783.78 246.678L778.841 240.602L770.199 225.122L771.086 219.224L774.498 214.21L774.177 210.451L772.503 206.369L773.67 201.291L772.014 191.998L760.2 180.441L755.667 180.271L751.21 182.761L748.419 180.417L741.777 179.217L734.817 174.332L731.66 176.347L730.689 174.575L730.26 176.469L728.829 175.998L727.618 178.212L726.98 184.499L727.969 192.074L726.168 196.637L718.832 195.956L709.818 198.548L704.851 197.372L700.923 193.781L696.281 194.969L690.373 192.649L689.06 189.506L689.805 185.163L687.681 182.508L665.549 180.181L652.586 185.638L650.862 190.873L649.143 187.985L647.919 180.302L645.724 176.295L643.962 179.542L640.421 180.739L634.503 178.264L631.682 173.972L623.948 174.267L621.104 181.315L622.036 182.379L626.355 180.729L626.896 182.29L621.736 189.236L612.71 193.823L608.894 197.589L596.611 199.542L593.122 204.559L592.816 202.425L593.615 199.037L598.295 193.594L600.714 186.492L609.18 182.812L614.639 174.379L619.803 168.747L623.162 162.103L643.043 141.605L647.709 131.112L648.25 114.73L644.324 104.221L640.684 103.722L636.712 90.9839L626.514 85.2577L604.942 86.9583L600.523 93.661L593.501 95.1886L593.047 91.7166L595.595 84.881L595.804 80.4586L592.655 77.1004L586.697 77.9697L578.496 75.0641L578.687 72.6309L584.487 61.9852L583.006 58.6112L574.001 53.8535L569.98 53.3318L565.527 55.9373L555.259 68.2379L549.351 82.3457L548.974 85.8284L549.337 92.4104L547.928 97.1844L534.899 102.84L535.452 105.277L537.836 109.151L537.752 111.148L530.859 109.524L526.972 112.099L523.098 117.613L519.454 116.318L517.034 119.281L510.891 120.918L510.472 118.874L512.14 111.215L507.723 109.686L499.478 115.261L490.872 116.998L490.088 118.632L490.183 123.085L489.399 124.719L467.231 134.175L462.634 138.302L459.536 138.723L452.809 148.305L445.742 150.468L445.011 155.767L439.573 156.359L438.738 161.183L436.348 162.042L435.352 165.955L435.537 169.286L438.671 167.589L440.057 168.546L440.246 170.643L438.367 174.493L442.11 178.846L444.244 185.881L432.438 193.058L403.282 198.466L398.171 200.835L396.931 204.525L397.268 210.67L398.884 217.855L399.443 224.546L400.852 229.432L404.192 232.738L410.744 235.734L415.063 243.076L419.481 245.999L421.283 249.08L420.77 262.436L423.852 276.293L421.162 274.343L420.74 278.467L421.939 278.755L422.546 280.827L420.273 285.809L422.556 289.3L422.884 291.07L419.868 289.454L418.466 286.792L419.465 278.74L419.535 270.38L417.05 270.17L414.98 273.237L413.595 266.712L413.894 261.169L417.179 256.677L418.336 253.468L418.535 250.948L417.782 248.968L415.369 247.913L406.711 248.741L398.835 240.412L391.908 235.365L381.1 233.775L378.695 229.418L375.618 228.766L371.979 233.039L371.343 235.337L374.242 236.923L375.851 240.523L379 242.527L379.412 243.856L379.256 245.141L375.957 247.361L368.572 243.616L366.752 245.078L365.545 249.441L369.28 257.097L380.678 263.313L382.131 266.85L382.254 269.105L380.212 269.306L375.921 265.9L362.213 263.359L359.53 259.581L358.575 249.849L359.491 237.546L358.869 231.1L356.532 224.596L354.224 224.091L354.005 227.01L354.942 234.99L354.346 240.711L352.437 244.009L345.868 250.317L342.702 259.652L351.348 280.665L351.263 284.645L349.174 291.569L348.367 298.26L350.952 312.71L353.708 315.171L366.867 311.857L372.293 313.761L377.67 317.545L383.077 330.713L380.66 336.501L380.373 339.543L380.683 341.792L387.827 346.583L381.617 347.663L378.806 343.532L378.265 341.971L377.826 334.043L376.614 327.236L371.065 318.333L367.108 318.247L357.578 324.609L356.692 325.814L356.209 330.776L358.892 339.448L359.054 342.422L358.62 345.509L354.751 353.213L352.114 361.885L343.837 370.366L340.986 375.863L327.829 375.678L320.745 373.426L318.852 370.752L319.838 370.096L323.679 372.18L324.078 371.083L323.517 368.572L323.746 367.803L328.644 371.933L334.82 369.459L336.28 364.245L338.725 360.999L342.66 351.102L346.389 344.318L346.457 336.598L348.116 329.498L347.084 326.576L342.38 321.287L341.041 317.707L340.287 301.281L339.076 291.131L340.085 283.869L339.869 275.847L337.936 269.081L334.721 264.532L333.196 260.33L337.398 241.507L336.608 229.901L327.837 223.176L310.912 223.648L308.226 230.805L305.947 249.316L304.015 255.635L295.788 266.339L293.542 272.479L293.346 273.05L293.865 278.347L296.914 278.446L298.124 281.12L297.943 291.634L299.226 296.889L296.358 299.32L295.75 302.816L296.265 306.609L297.89 305.793L299.052 306.803L297.817 309.974L297.78 312.045L298.928 312.139L300.408 307.357L304.963 309.238L306.239 314.417L307.045 315.998L309.093 320.057L313.787 323.161L313.723 326.109L311.048 334.816L309.398 337.258L308.755 337.297L307.079 333.855L300.739 328.379L298.106 324.796L296.346 323.864L286.515 318.592L276.094 310.931L267.577 307.454L250.164 304.576L245.882 309.602L245.405 311.336L248.427 319.275L250.524 322.098L250.959 325.847L247.901 330.366L243.883 331.954L243.387 336.714L242.329 338.208L238.46 336.926L238.139 333.842L239.288 329.878L235.713 325.79L226.819 330.528L223.094 335.397L214.179 334.251L209.682 336.183L206.525 339.512L204.577 344.16L201.063 342.457L198.013 344.346L194.295 343.809L193.743 342.767L194.184 341.749L197.713 340.35L196.725 335.553L196.772 330.894L194.294 329.37L187.095 335.284L187.595 339.469L186.311 341.651L185.237 341.474L183.52 338.632L178.752 340.384L176.554 339.841L167.328 350.325L159.986 354.371L158.075 358.263L153.247 360.339L151.758 367.07L151.342 371.903L150.403 374.188L145.796 375.45L139.139 376.677L137.203 375.399L135.399 372.244L134.68 370.971L131.1 368.077L130.354 366.292L133.891 358.726L134.637 358.447L141.778 355.682L141.867 353.171L140.287 349.282L134.218 342.679L133.759 342.625L122.882 341.078L117.824 340.337L118.131 341.831L123.101 349.175L123.295 357.52L121.703 365.131L121.437 369.325L122.064 370.998L124.347 372.454L124.676 372.91L126.128 375.052L126.827 380.821L125.437 386.667L124.516 393.407L118.036 387.539L109.691 386.476L104.773 393.092L99.2082 396.917L93.3182 403.784L92.2503 406.512L92.5298 409.523L95.8867 415.209L97.41 419.377L95.9109 423.243L94.2285 421.634L91.7922 424.281L84.1781 421.304L80.6546 422.189L79.736 420.018L76.2127 416.84L71.1937 415.423L68.0902 419.742L68.6746 422.811L72.8035 428.022L77.6421 428.291L79.069 430.001L79.4479 432.68L79.7987 436.357L74.8362 439.395L67.3017 436.496L65.3145 433.473L64.9775 432.931L63.3204 430.404L59.5092 430.907L55.6679 427.434L55.0372 421.582L51.8028 411.869L53.1827 405.182L54.0621 403.942L53.8861 402.76L49.8089 397.11L44.6295 394.149L42.5521 390.893L39.9875 389.25L39.3779 386.423L35.5154 382.634L34.2736 378.652L36.2136 378.696L41.9973 384.323L44.2648 384.109L50.3882 387.649L53.8958 387.802L59.0895 391.034L80.8791 396.041L86.4304 394.684L93.0717 391.111L95.9881 388.154L101.046 379.903L101.99 376.43L101.935 373.371L100.345 369.366L98.8848 362.89L97.8877 361.356L94.4495 359.61L90.2 354.248L87.5279 354.044L78.5364 348.168L71.9745 341.472L61.2939 333.272L56.613 331.078L46.9276 329.779L44.0474 327.916L39.4762 331.13L37.9686 327.953L35.3775 328.548L34.1298 326.59L31.7298 325.777L28.9904 322.993L29.2663 321.825L33.8095 322.831L34.8042 320.901L34.2394 319.623L27.62 316.07L23.9052 321.066L18.2588 320.005L18.8669 323.467L18.3019 324.892L15.9162 325.03L13.0178 322.776L13.0864 325.396L12.0053 327.888L7.27876 331.068L5.90949 336.555L4.19362 337.137L1.99583 340.007L2.95055 342.102L1.45776 348.873L2.62538 354.131L8.35488 358.768L13.8015 367.243L13.1764 371.057L7.9489 382.381L8.40745 385.138L12.2814 392.668L15.3199 398.894L17.2751 406.697L14.5524 408.327L15.2867 409.911L14.7044 411.141L14.2636 415.542L15.5577 417.574L14.4766 420.066L14.6234 422.718L17.6013 425.725L18.3659 431.29L21.8638 436.06L21.5397 439.138L20.6391 441.422L18.1841 443.833L21.5545 447.731L22.248 448.567L24.3854 450.109L28.069 452.798L31.1155 458.425L28.7345 466.165L21.3349 477.418L14.3675 488.247L11.9339 490.301L11.3518 491.369L10.6858 493.075L9.49618 493.582L5.84372 498.293L4.79847 500.023L4.51206 500.361L5.72259 501.006L10.7223 497.927L10.4341 501.603L11.0015 503.642L15.1148 505.826L20.4759 505.905L23.401 509.317L22.511 510.401L16.0121 509.035L13.9154 511.625L10.8917 511.957L9.47925 513.913L7.65472 513.184L7.32508 517.617L8.45211 518.743L8.35925 519.784L6.61531 521.197L5.15466 525.736L2.61878 528.71L4.22403 534.385L4.49823 537.909L6.38057 542.451L4.93639 543.768L3.94936 545.934L3.65754 548.14L5.01279 547.985L5.24734 549.441L6.39159 550.25L7.72807 551.721L6.70769 557.946L8.21941 557.86L10.3074 561.952L11.3718 566.066L10.93 567.724L12.2216 569L14.5661 568.783L15.9822 570.332L18.0643 569.495L20.3766 570.149L20.8738 570.876L20.8605 572.669L21.6361 573.658L24.7539 571.645L27.1356 571.386L29.1525 572.102L31.1746 574.334L32.5363 574.887L32.8385 576.9L32.4736 579.23L33.6694 582.302L32.6903 584.543L32.6625 586.06L34.6301 587.971L35.1576 589.97L37.2167 593.509L40.8006 595.844L40.9846 599.135L43.4896 599.108L45.8339 600.24L46.4422 602.352L48.1395 604.082L46.2097 607.063L43.7564 608.679L42.002 608.583L39.9971 607.388L38.1498 608.332L37.6853 610.307L39.5827 612.941L39.6937 615.001L40.7752 619.472L41.9803 621.985L45.0052 622.367L45.9057 621.438L46.7572 619L49.5644 619.632L52.7459 618.055L57.4602 618.057L59.4757 620.087L60.173 622.393L62.3235 624.851L62.1867 625.893L60.4536 626.793L61.4955 628.522L61.9445 631.832L65.7583 632.765L68.3218 632.338L69.0139 633.808L70.3013 634.445L71.2901 637.927L71.156 640.243L72.9206 642.685L76.0503 641.548L78.2275 643.129L80.7776 643.816L86.7532 641.28L88.0845 642.59L89.3215 645.067L91.7056 646.918L91.9193 646.882C91.9344 647.348 91.8577 647.87 91.7818 648.414C91.6874 649.068 91.5884 649.752 91.6217 650.437C91.6966 651.725 91.6075 654.576 91.4017 655.361C91.2698 655.878 90.6838 655.979 90.1634 656.066C89.895 656.109 89.6375 656.152 89.4755 656.25C89.2539 656.379 89.1953 656.611 89.1324 656.878C89.049 657.192 88.9616 657.553 88.5748 657.854C88.2634 658.101 87.7304 658.816 87.1976 659.537C86.517 660.454 85.831 661.376 85.5561 661.391C85.1659 661.416 83.6051 661.855 82.8796 662.069L83.0323 664.906L83.8436 666.147L83.9185 667.435L84.7663 669.459L84.0991 670.79C83.5876 670.472 82.5243 669.949 82.3509 670.376C82.2538 670.61 82.3629 671.084 82.4721 671.565C82.613 672.171 82.7597 672.789 82.4897 672.953C82.0144 673.24 80.3022 673.598 79.813 673.626C79.4941 673.642 79.2583 673.333 78.9936 672.985C78.8495 672.788 78.6941 672.58 78.5067 672.407C77.9899 671.923 75.947 670.747 75.4524 670.781C75.3314 670.785 75.1296 670.844 74.8676 670.916C74.0599 671.145 72.723 671.524 71.7586 670.998C70.7379 670.433 69.007 670.381 68.2704 670.423C68.7576 671.86 69.757 674.99 69.8125 676.02C69.8409 676.556 69.9488 676.996 70.0367 677.327C70.1514 677.807 70.215 678.07 69.9292 678.086C69.5333 678.105 67.5982 677.703 66.6828 677.498C65.7099 677.726 63.6121 678.247 63.0307 678.491C62.4547 678.729 60.6589 678.715 59.8314 678.674C59.8177 678.42 59.691 677.912 59.2951 677.931L56.3379 678.105L56.2072 680.185L55.6094 682.805L55.2035 684.38C55.3081 684.717 55.4568 685.398 55.259 685.41C55.0666 685.423 54.2314 686.16 53.8414 686.53L50.3948 686.727C50.1969 686.739 48.0981 688.418 47.0734 689.254L48.374 690.467L46.723 691.86L46.8255 693.66L48.1263 694.879L54.3799 696.323L57.0481 695.391L59.7998 696.008L59.655 697.822L53.9542 702.038L52.8256 703.914L59.4154 706.892L60.5103 708.895L60.7517 713.274L62.5333 714.205L64.9958 714.059L67.7949 711.054L72.6229 708.96L75.6832 706.194L78.6627 706.537L81.5921 705.845L82.9265 703.183L80.3668 701.523L75.0302 703.386L73.5238 702.958L71.1226 699.736L68.7771 697.55L69.3332 694.153L77.4217 688.509L84.7121 686.269L90.9105 682.285L95.0643 681.309L95.0497 681.367L97.9949 680.991L101.814 679.22L102.522 679.651L102.945 681.141L97.3157 684.495L97.0834 685.143L97.4984 686.392L95.4324 686.196L92.377 687.25L92.9033 689.209L95.4994 691.479L95.1012 693.971L93.6344 694.931L91.3823 698.841L90.5119 701.717L88.6222 702.542L85.624 701.963L85.6345 703.472L84.8267 704.716L88.6656 706.76L91.1449 709.673L93.5836 709.81L96.7818 712.648L100.965 714.11L109.617 722.078L111.058 723.384L111.816 721.947L112.122 721.372L115.805 721.317L116.781 721.693L123.769 724.392L129.639 724.044L130.147 724.252L131.43 724.733L133.057 724.638L135.917 726.899L136.425 727.107L140.041 728.565L140.619 730.084L140.86 730.387L141.829 730.729L143.57 729.91L144.104 729.88L144.096 729.644L146.643 728.377L147.709 728.473L148.61 729.573L149.489 728.333L151.26 728.78L151.871 729.423L152.795 730.406L154.939 730.634L155.818 730.742L155.913 732.486L155.261 733.758L159.834 736.037L161.396 736.82L164.182 737.654L165.557 739.124L168.994 742.859L172.521 743.449L174.304 740.68L176.759 738.943L176.889 738.535L176.958 738.452L178.07 736.599L177.584 736.033L176.519 735.296L174.176 731.496L171.338 728.202L170.444 725.788L168.817 723.855L169.199 721.207L168.761 719.407L168.905 718.6L169.749 714.572L168.407 715.13L166.293 711.235L164.297 709.481L163.907 709.344L162.437 708.835L162.045 707.983L162.501 705.887L163.653 704.747L164.773 703.609L168.463 694.124L169.77 694.368L173.343 692.288L174.002 692.565L174.965 690.682L176.592 691.262L176.355 689.045L177.967 688.673L177.548 690.013L178.008 690.102L180.123 685.684L174.983 682.087L175.322 681.309L177.106 681.324L177.774 680.333L174.556 673.68L169.767 669.507L164.113 669.755L162.823 667.683L162.307 664.496L158.536 660.974L159.442 656.666L161.069 653.188L159.753 649.964L160.065 645.331L162.247 642.144L163.186 638.51L164.21 637.133L166.575 637.872L170.893 643.144L173.26 642.609L174.492 640.193L173.109 633.709L177.217 631L179.131 627.189L184.734 624.037L186.866 620.651L189.378 618.635L192.142 619.147L194.029 620.946L195.499 620.741L197.34 618.926L199.724 618.068L203.175 620.73L209.184 620.735L216.292 626.963L218.391 631.216L219.087 630.777L219.648 628.556L220.552 627.707L222.11 627.695L224.342 629.632L227.168 630.499L229.699 628.881L233.282 624.933L237.763 624.188L241.273 625.776L243.578 623.491L246.213 623.062L248.738 623.986L251.075 627.112L256.981 629.386L258.922 628.755L261.029 626.327L263.824 627.438L268.509 626.882L271.243 624.732L271.623 618.627L263.936 614.943L260.807 611.342L266.523 606.077L266.418 604.213L265.152 601.183L266.878 598.018L270.034 596.684L273.72 596.745L274.439 595.988L272.395 594.08L268.24 592.491L268.17 591.185L268.93 589.828L266.451 588.263L267.281 583.998L268.996 582.701L272.488 583.373L275.825 582.54L277.611 583.27L283.826 579.446L293.137 576.671L296.924 576.452L300.111 572.845L305.424 572.096L319.317 566.982L321.246 563.966L326.75 560.46L331.658 561.171L335.289 562.945L338.105 561.629L340.319 561.813L341.686 563.883L344.001 570.03L344.002 572.774L343.469 574.838L344.133 576.47L347.421 576.832L350.668 575.725L351.623 574.437L352.95 575.793L354.522 578.76L355.155 578.566L355.936 576.851L360.234 578.268L363.056 577.821L363.131 579.133L361.004 582.64L361.188 583.902L361.987 584.607L365.401 583.057L369.167 583.87L370.8 581.745L376.112 578.131L378.301 575.141L383.31 572.182L387.126 571.16L387.123 573.109L385.569 574.596L385.637 575.822L395.441 584.674L398.005 587.827L407.36 603.029L414.893 616.234L416.946 615.514L418.215 612.376L419.816 611.129L422.26 611.94L423.415 614.259L427.316 616.854L433.609 616.486L438.354 613.704L441.009 613.545L444.822 615.792L446.91 618.534L448.706 622.128L453.375 624.795L456.458 629.666L462.63 630.657L466.861 627.465L467.671 630.36L472.198 635.269L476.078 634.003L478.263 632.961L478.366 631.366L479.244 630.08L483.274 630.043L484.141 629.275L485.845 629.178L486.719 627.771L487.716 627.95L489.993 626.508L490.253 625.698L489.532 624.344L489.843 623.729L491.899 623.135L492.882 621.684L493.841 621.19L497.207 619.521L499.398 617.124L501.27 616.617L502.843 616.207L503.909 614.949L505.447 613.11L508.816 612.91L509.337 612.005L509.992 610.813L512.218 612.513L514.725 611.887L515.16 613.573L515.957 614.203L524.604 613.894L525.387 614.923L526.321 618.091L528.224 620.205L530.307 620.083L531.96 621.14L534.292 621.361L537.447 619.987L540.041 620.153L541.991 621.033L543.368 620.514L545.972 620.835L548.103 622.343L549.282 622.355L551.294 620.207L553.378 619.45L555.661 615.973L555.883 612.461L553.85 610.748L553.18 608.246L552.263 606.824L552.664 603.064L553.329 601.312L554.637 600.202L555.568 597.168L558.13 595.341L559.788 591.624L567.959 595.799L572.491 595.975L578.653 598.834L584.533 599.962L585.388 601.023L586.018 606.16L587.049 609.757L591.597 612.953L597.593 614.785L600.912 614.391L603.399 612.619L610.444 610.099L615.183 610.533L617.606 611.702L620.809 611.318L622.772 612.399L624.887 614.939L630.65 616.03L631.754 619.509L635.998 622.68L640.885 622.395L644.228 623.746L648.503 624.132L650.4 623.348L653.138 624.063L657.813 621.323L662.174 620.467L666.102 618.646L668.646 618.618L670.368 617.401L671.622 614.621L673.967 612.381L679.135 608.892L684.48 609.335L688.308 612.572L691.078 612.565L694.484 610.935L697.23 611.73L698.466 612.812L701.728 614.726L706.854 616.057L709.134 614.69L712.739 611.058L717.115 609.129L718.264 606.52L717.292 604.748L717.634 602.737L720.753 595.83L722.883 589.026L726.927 584.491L727.812 581.897L726.659 576.235L725.211 575.402L722.595 575.559L722.16 574.548L722.424 573.178L728.323 566.432L738.668 563.12L742.991 562.946L747.027 561.715L750.905 562.443L758.193 566.388L761.938 566.049L764.557 567.327L765.623 569.452L767.786 570.763L768.125 572.729L770.12 575.157L770.922 577.972L772.171 579.296L772.306 581.753L775.504 588.643L776.129 592.466L779.168 597.183L779.938 601.549L781.522 603.364L781.737 607.253L782.967 609.529L786.708 611.259L791.105 611.001L794.255 613.039L796.856 612.571L802.353 617.856L806.059 618.832L806.105 621.776L807.888 625.129L807.578 628.488L810.226 632.353L816.73 632.526L821.204 631.551L822.889 629.022L825.731 626.828L829.114 626.189L834.309 623.184L837.649 623.106L837.941 624.284L837.471 627.453L838.403 631.214L837.278 633.552L835.015 635.951L832.997 645.535L833.029 648.197L830.426 653.363L829.803 655.863L828.214 657.986L827.304 662.178L825.891 662.779L818.353 660.433L815.399 664.106L811.89 665.942L814.259 673.759L814.212 679.767L814.841 682.202L813.707 687.116L809.207 689.648L809.925 690.881L810.475 693.237L810.856 694.642L811.392 693.339L811.789 692.322L811.48 690.788L814.708 690.12L816.566 686.634L819.375 683.086L820.107 683.24L820.533 684.811L822.909 683.717L823.74 687.09L826.301 687.413L829.308 688.787L835.483 686.441L844.207 679.166L847.113 674.699L849.527 669.505L851.609 667.314L856.565 659.348L863.067 651.129L866.935 643.384L868.743 637.674L871.829 632.994L874.031 627.38L879.688 619.091L880.963 613.249L881.103 609.579L881.841 605.68L881.496 601.524L882.194 599.097L881.364 595.765L881.056 590.172L883.222 580.577L886.432 575.298L887.195 571.993L885.184 568.568L885.116 564.598L883.241 560.967L885.551 559.361L885.984 558.263L885.842 557.115L878.809 551.525L876.556 547.957L873.385 544.917L865.455 545.103L864.898 546.771L864.819 550.791L863.629 554.001L862.751 553.933L863.578 551.063L863.245 549.812L859.335 554.054L855.619 554.951L855.016 553.675L856.931 549.742L854.838 549.029L852.86 551.055L850.257 551.448L849.717 549.928L849.922 546.733L849.52 541.467L844.661 541.59L841.73 541.562L839.699 540.57L838.529 540.004L837.679 538.419L839.167 535.746L839.381 535.537L844.049 531.247L844.47 530.627L846.537 527.48L855.247 518.575L860.793 508.226L865.66 502.096L870.033 498.018L872.306 494.425L875.037 492.2L877.898 484.83L883.125 479.748L888.064 472.106L894.598 467.943L914.47 465.781L915.74 466.067L916.399 468.373L917.803 469.047L918.796 468.431L919.557 465.725L920.759 464.774L928.465 466.67L933.756 464.768L936.325 466.526L938.154 466.54L938.929 465.499L938.247 464.15L938.427 463.262L940.524 462.702L941.224 460.194L944.553 458.566L951.776 460.692L953.722 462.13L955.43 460.793L957.998 460.482L961.31 463.95L963.856 465.351L963.242 466.623L959.38 466.926L957.517 468.228L959.33 471.504L963.432 470.784L966.323 468.75L970.095 469.562L974.543 465.441L979.149 467.038L982.167 465.156L986.41 464.903L987.201 464.179L987.366 462.98L985.868 460.598L979.869 460.04L980.119 455.011L981.243 453.353L982.274 449.992L990.911 440.537L992.604 436.024L996.602 431.451L998.449 425.578L1004.08 421.544L1007.69 421.532L1016.15 418.411L1020.16 421.677L1024.88 418.457L1025.32 420.737L1024.75 423.517L1022.03 428.686L1022.89 433.056L1025.68 433.567L1025.14 438.133L1025.74 439.249L1029.51 436.879L1031.6 433.379L1041.4 421.469L1044.2 420.585L1046.19 422.299L1047.33 421.436L1047.57 419.751L1046.09 416.976L1046.4 411.548L1047.77 406.02L1054.4 403.52L1056.06 408.392L1054.47 410.44L1053.82 418.67L1052.43 422.89L1053.52 426.208L1051.09 430.999L1051.57 433.715L1046.75 435.791L1039.63 441.818L1038.01 446.127L1031.64 454.578L1028.68 456.857L1024.19 463.602L1022.43 468.319L1018.76 473.987L1013.13 480.126L1008.41 482.031L1005.72 485.05L1002.47 485.361L1002.88 489.872L1002.57 492.517L1001.25 495.495L996.31 502.469L994.172 513.971L993.886 521.267L994.611 527.468L1000.21 555.183L1003.29 565.98L1004.37 574.751L1006.81 579.62L1014.66 571.084L1017.23 566.674L1019.05 561.794L1018.69 558.596L1018.95 555.198L1018.45 553.001L1020.52 553.433L1026.39 549.431L1029.45 549.772L1028.41 541.241L1028.98 537.862L1029.9 535.94L1035.09 530.866L1041.27 530.698L1044.29 527.541L1044.45 525.461L1042.58 521.835L1041.69 517.507L1041.97 514.391L1043.94 508.664L1047.31 506.441L1050.98 508.334L1052.85 506.237L1052.09 499.398L1049.68 498.383L1048.65 495.542L1048.48 489.904L1050.36 486.654L1051.13 483.267L1046.99 480.801L1045.01 482.591L1043.63 482.471L1042.47 481.345L1041.75 478.603L1042.48 474.065L1043.61 471.139L1047.84 465.198L1048.21 462.275L1049.13 461.546L1050.22 458.576L1050.01 454.968L1051.61 450.222L1054.33 447.837L1058.54 446.277L1062.83 449.568L1065.06 445.141L1065.97 444.413L1065.91 444.715C1066.13 444.575 1066.38 444.416 1066.66 444.217C1067.37 443.726 1067.72 443.241 1068.01 442.794C1068.39 442.187 1068.65 441.654 1069.5 441.285C1069.88 441.123 1070.18 440.974 1070.44 440.862C1071.17 440.526 1071.46 440.452 1071.76 440.955C1072.16 441.634 1071.48 441.524 1071.5 443.224C1071.52 444.923 1072.74 444.704 1071.85 445.909C1070.97 447.109 1069.24 448.972 1069.62 450.446C1070 451.926 1068.69 454.708 1069.98 454.181C1071.27 453.647 1071.96 453.347 1074.1 450.33C1076.23 447.307 1076.74 445.278 1078.5 443.939C1080.27 442.6 1078.75 442.478 1081.83 442.178C1084.9 441.879 1086.36 440.469 1088.69 439.976C1091.02 439.477 1091.79 440.194 1093.16 440.54C1094.55 440.88 1095.51 438.864 1098.51 441.23C1099.66 442.137 1100.57 442.844 1101.3 443.465C1101.34 443.498 1101.39 443.537 1101.43 443.576C1102.53 444.525 1103.2 445.297 1103.66 446.337C1104.43 448.08 1104.1 448.933 1105.73 450.936C1107.35 452.945 1107.68 455.332 1109.02 453.615C1110.36 451.898 1109.29 451.254 1109.85 448.584C1110.41 445.914 1110.28 445.226 1112.53 442.949C1117.13 438.275 1121.63 433.114 1126.75 429.16C1131.23 425.695 1132.25 421.297 1137.72 418.294C1143.19 415.292 1145.8 412.431 1150.72 409.741C1155.65 407.044 1158.34 404.371 1159.61 403.084C1160.87 401.79 1160.27 401.903 1164.01 402.238C1167.75 402.573 1171.22 402.802 1173.98 404.484C1176.75 406.172 1178.97 406.109 1178.18 403.991C1177.4 401.868 1179.11 401.338 1180.15 399.648C1181.19 397.959 1180.29 396.421 1178.19 394.319C1176.09 392.217 1177.05 394.248 1176.06 389.601C1175.06 384.948 1174.54 386.332 1172.3 382.954C1170.06 379.583 1168.27 375.366 1167.18 372.302C1166.1 369.231 1166.07 367.371 1164.89 368.108C1163.85 368.754 1164.52 371.227 1163.23 370.74L1162.09 368.369L1159.27 368.176L1158.34 367.614C1157.92 367.005 1157.61 366.168 1157.45 364.946C1156.91 360.71 1156.74 360.802 1158.1 359.684C1158.21 359.594 1158.3 359.528 1158.39 359.479L1158.89 359.496C1159.24 359.853 1159.53 360.945 1161.93 361.077C1165.48 361.28 1167.61 363.18 1169.07 360.629C1170.53 358.084 1172.41 359.583 1173.33 355.396C1174.24 351.215 1176.19 348.002 1176.7 346.556C1177.21 345.115 1178.68 344.074 1177.8 341.331C1176.92 338.588 1176.95 340.437 1174.37 336.726C1173.36 335.284 1172.55 333.962 1172.03 332.868L1171.9 329.788C1171.9 329.788 1171.94 329.775 1171.97 329.769C1173.44 329.425 1175.62 329.438 1177.04 328.076C1178.46 326.714 1179.36 323.185 1180.14 325.176C1180.91 327.167 1180.16 329.135 1179.48 330.628C1178.81 332.12 1177.98 333.924 1179.94 335.327C1181.91 336.731 1182.6 335.855 1182.51 337.789C1182.42 339.723 1180.1 341.265 1182.67 341.64C1185.23 342.009 1186.76 344.32 1189.39 341.511C1192.02 338.708 1192.78 336.722 1194.46 337.254C1196.14 337.785 1201.1 337.947 1201.88 339.909C1202.67 341.877 1203.68 344.517 1204.64 346.768C1205.6 349.018 1206.56 351.268 1209.78 350.716C1212.99 350.158 1213.67 350.101 1216.96 352.572C1220.25 355.049 1220.93 357.056 1223.93 355.358C1226.93 353.654 1226.48 358.31 1228.38 356.557C1230.27 354.804 1228.33 353.492 1230.86 352.727C1233.39 351.961 1235.06 351.599 1232.39 349.147C1229.73 346.695 1229.03 348.436 1230.66 345.822C1232.28 343.208 1231.02 344.519 1230.78 341.991C1230.54 339.457 1231.93 338.044 1230.42 336.198C1228.92 334.353 1229.43 332.727 1228.37 330.976C1227.31 329.225 1222.95 328.76 1224.03 327.785C1225.11 326.809 1226.59 327.433 1229.49 327.872C1232.38 328.31 1235.58 328.445 1236.19 327.162C1236.81 325.879 1234.38 324.001 1235.77 323.977C1237.15 323.953 1238.93 324.752 1239.1 322.533C1239.27 320.308 1238.7 320.016 1238.29 318.497C1237.87 316.984 1238 313.226 1239.49 313.125C1240.97 313.023 1242.23 313.372 1241.6 311.722Z" fill="white"/>
</mask>
<g mask="url(#mask0_2017_5859)">
<path d="M5.63336 587.096L178.417 601.198C179.444 601.291 180.493 601.178 181.479 600.868L427.302 518.261C428.027 518.015 428.794 517.881 429.565 517.866L802.83 510.865C803.529 510.84 804.225 510.729 804.894 510.534L1105.36 420.592C1106.76 420.183 1107.98 419.382 1108.81 418.323C1109.63 417.265 1110.02 416.014 1109.89 414.78L1106.91 385.06C1106.83 384.307 1106.57 383.581 1106.14 382.931C1105.71 382.281 1105.12 381.72 1104.4 381.286C1103.69 380.851 1102.87 380.552 1102 380.407C1101.12 380.263 1100.22 380.276 1099.33 380.446L796.697 439.289C796.381 439.356 796.058 439.391 795.735 439.393L428.607 462.951C427.834 463.012 427.073 463.181 426.355 463.453L177.161 560.129C176.213 560.489 175.19 560.666 174.169 560.645L4.9591 554.886C4.01623 554.838 3.06357 554.969 2.16944 555.267C1.27531 555.566 0.461854 556.025 -0.212596 556.613C-0.887046 557.2 -1.40578 557.902 -1.73161 558.666C-2.05743 559.431 -2.18227 560.24 -2.09718 561.035L0.0420885 582.355C0.167179 583.59 0.789916 584.734 1.80695 585.596C2.82397 586.459 4.17414 586.988 5.63336 587.096Z" fill="url(#paint0_linear_2017_5859)"/>
<path d="M0.533629 522.755L170.118 520.263C171.138 520.24 172.148 520.021 173.072 519.621L421.061 410.425C421.753 410.128 422.494 409.932 423.253 409.844L789.059 368.002L1095.71 338.424C1096.55 338.341 1097.38 338.117 1098.14 337.765C1098.9 337.413 1099.57 336.94 1100.13 336.373C1100.68 335.807 1101.1 335.158 1101.36 334.464C1101.62 333.77 1101.71 333.045 1101.64 332.331L1098.55 301.482C1098.42 300.169 1097.72 298.963 1096.59 298.089C1095.46 297.215 1093.98 296.733 1092.42 296.734L782.533 296.598C782.118 296.611 781.703 296.656 781.293 296.732L417.85 356.249C417.112 356.372 416.399 356.602 415.744 356.929L168.95 479.055C168.061 479.495 167.071 479.757 166.06 479.82L-1.55018 490.008C-2.44583 490.047 -3.32992 490.244 -4.14612 490.586C-4.96233 490.927 -5.69276 491.406 -6.29089 491.992C-6.88902 492.577 -7.34174 493.257 -7.6202 493.987C-7.89867 494.717 -7.99678 495.481 -7.90828 496.232L-5.71553 518.085C-5.55602 519.398 -4.8336 520.597 -3.68342 521.456C-2.53323 522.316 -1.03406 522.778 0.533629 522.755Z" fill="url(#paint1_linear_2017_5859)"/>
<path d="M-5.1802 458.416L162.179 439.354C163.154 439.251 164.096 438.957 164.932 438.497L410.459 303.749C411.077 303.414 411.753 303.166 412.458 303.017L774.059 225.402C774.809 225.202 775.589 225.118 776.362 225.154L1085.85 254.748C1086.81 254.84 1087.8 254.745 1088.73 254.469C1089.66 254.194 1090.51 253.746 1091.23 253.158C1091.94 252.571 1092.49 251.86 1092.84 251.078C1093.19 250.297 1093.33 249.466 1093.25 248.649L1090.15 217.821C1090.04 216.712 1089.52 215.675 1088.68 214.849C1087.83 214.024 1086.69 213.449 1085.42 213.202L772.045 153.835C770.957 153.598 769.803 153.611 768.698 153.872L407.076 249.893C406.401 250.07 405.762 250.343 405.188 250.7L160.574 397.871C159.834 398.325 158.993 398.644 158.11 398.804L-8.87666 426.166C-10.5078 426.43 -11.9833 427.211 -12.9977 428.347C-14.0121 429.484 -14.4876 430.888 -14.326 432.27L-12.1653 453.803C-11.9895 455.221 -11.1585 456.499 -9.85159 457.362C-8.54473 458.225 -6.86687 458.604 -5.1802 458.416Z" fill="url(#paint2_linear_2017_5859)"/>
<path d="M438.778 575.935L443.057 618.574C443.179 619.806 443.801 620.945 444.819 621.801C445.837 622.657 447.188 623.177 448.644 623.273L816.164 653.333C817.54 653.439 818.938 653.168 820.153 652.558L1115.1 504.571C1116.18 504.019 1117.07 503.221 1117.66 502.271C1118.24 501.321 1118.5 500.261 1118.4 499.216L1115.37 469.006C1115.28 468.154 1114.95 467.34 1114.42 466.631C1113.88 465.922 1113.15 465.339 1112.28 464.928C1111.41 464.517 1110.43 464.291 1109.41 464.268C1108.4 464.245 1107.39 464.425 1106.45 464.795L812.034 581.584C811.067 581.968 810.014 582.148 808.966 582.109L445.71 569.821C444.78 569.79 443.845 569.931 442.969 570.234C442.093 570.538 441.298 570.996 440.638 571.578C439.979 572.16 439.47 572.851 439.149 573.603C438.828 574.356 438.701 575.151 438.778 575.935Z" fill="url(#paint3_linear_2017_5859)"/>
<path d="M-18.6397 389.288L-20.7618 368.138C-20.8889 366.874 -20.4848 365.593 -19.6202 364.519C-18.7556 363.445 -17.4854 362.646 -16.0313 362.262L143.907 319.714C144.818 319.47 145.772 319.397 146.702 319.499C147.633 319.601 148.517 319.876 149.292 320.304C150.066 320.733 150.713 321.304 151.187 321.978C151.66 322.651 151.948 323.411 152.03 324.204L154.961 353.412C155.087 354.727 154.641 356.057 153.706 357.153C152.771 358.249 151.412 359.036 149.881 359.369L-10.8573 393.944C-11.7591 394.14 -12.6917 394.171 -13.5923 394.036C-14.4929 393.902 -15.3406 393.604 -16.0782 393.162C-16.8157 392.721 -17.426 392.147 -17.8679 391.478C-18.3097 390.81 -18.5729 390.063 -18.6397 389.288Z" fill="url(#paint4_linear_2017_5859)"/>
</g>
</g>
<defs>
<linearGradient id="paint0_linear_2017_5859" x1="1112.4" y1="439.819" x2="-3.02959" y2="551.744" gradientUnits="userSpaceOnUse">
<stop stop-color="#F2F2F2" stop-opacity="0"/>
<stop offset="0.485577" stop-color="#F5F5F5" stop-opacity="0.7"/>
<stop offset="1" stop-color="#F2F2F2" stop-opacity="0"/>
</linearGradient>
<linearGradient id="paint1_linear_2017_5859" x1="1102.5" y1="340.904" x2="-12.2707" y2="452.763" gradientUnits="userSpaceOnUse">
<stop stop-color="#F2F2F2" stop-opacity="0"/>
<stop offset="0.485577" stop-color="#F5F5F5" stop-opacity="0.7"/>
<stop offset="1" stop-color="#F2F2F2" stop-opacity="0"/>
</linearGradient>
<linearGradient id="paint2_linear_2017_5859" x1="1091.33" y1="229.592" x2="-23.4397" y2="341.45" gradientUnits="userSpaceOnUse">
<stop stop-color="#F2F2F2" stop-opacity="0"/>
<stop offset="0.485577" stop-color="#F5F5F5" stop-opacity="0.7"/>
<stop offset="1" stop-color="#F2F2F2" stop-opacity="0"/>
</linearGradient>
<linearGradient id="paint3_linear_2017_5859" x1="1122.65" y1="541.593" x2="442.184" y2="609.873" gradientUnits="userSpaceOnUse">
<stop stop-color="#F2F2F2" stop-opacity="0"/>
<stop offset="0.485577" stop-color="#F5F5F5" stop-opacity="0.7"/>
<stop offset="1" stop-color="#F2F2F2" stop-opacity="0"/>
</linearGradient>
<linearGradient id="paint4_linear_2017_5859" x1="154.351" y1="347.334" x2="-21.0835" y2="364.937" gradientUnits="userSpaceOnUse">
<stop stop-color="#F2F2F2" stop-opacity="0"/>
<stop offset="0.485577" stop-color="#F5F5F5" stop-opacity="0.7"/>
<stop offset="1" stop-color="#F2F2F2" stop-opacity="0"/>
</linearGradient>
<clipPath id="clip0_2017_5859">
<rect width="1255" height="780" fill="white"/>
</clipPath>
</defs>
</svg>
