<svg width="432" height="585" fill="none" xmlns="http://www.w3.org/2000/svg"><g clip-path="url(#clip0_713_9720)"><path d="M229.469 23.117c-2.397-5.81-2.247-13.127 2.033-17.73C235.905.645 243.253.077 249.624 1.2c9.987 1.754 19.347 6.938 26.135 14.477 3.355 3.724 6.208 8.888 4.417 13.564-.938 2.432-2.99 4.258-5.12 5.758-17.55 12.345-37.424 7.904-45.58-11.882h-.007z" fill="#E2814B" stroke="#54140C" stroke-width="2.17" stroke-miterlimit="10"/><path d="M385.755 185.494c-8.833 19.46-20.376 46.281-36.564 63.171-4.482 4.675-11.087 24.819-16.324 27.61-4.287 2.283-10.814-26.932-15.654-28.054-.039-.013-.072-.013-.104-.019-7.589-1.089-12.488-8.426-16.142-15.175-9.511-17.601-17.693-36.499-32.096-50.376-7.426-7.154-16.246-12.697-23.946-19.557-10.891-9.71-19.614-22.113-32.225-29.456-6.782-3.952-14.416-6.267-21.289-10.062-1.7-.939-3.42-2.041-4.41-3.717-1.394-2.387-1.003-5.374-.443-8.08 1.16-5.53 3.173-13.049 4.28-16.035.567-1.291 3.524-8.537 4.99-10.832 1.01-1.585 1.954-3.117 2.912-4.597 2.423-3.77 4.879-7.226 8.345-10.513-5.915.548-8.547 2.1-13.556 5.302 8.331-21.82 30.492-34.934 52.08-43.796 23.679-9.723 50.387-16.42 74.672-8.347 14.077 4.682 26.096 13.93 37.821 23.02 8.703 6.743 26.871 35.253 33.614 58.958 7.817 27.467 6.123 53.929-5.974 80.562l.013-.007z" fill="#E2814B"/><path d="M363.614 158.255c-5.316 2.315-10.032 5.811-14.559 9.437-4.299 3.43-8.612 7.173-10.898 12.181-2.73 5.967-2.196 12.86-1.427 19.381a357.601 357.601 0 003.101 20.874c.677 3.796 1.466 7.695 3.622 10.891 5.172 7.688 16.956 8.523 24.91 3.775 7.96-4.747 12.657-13.512 15.608-22.302 6.846-20.372 15.986-70.063-20.357-54.237z" fill="#EF986C"/><path d="M349.185 248.658c-4.482 4.676-9.322 8.595-14.56 11.386-4.292 2.276-12.552-10.955-17.412-11.823-.039-.013-.072-.013-.104-.019-7.589-1.089-12.488-8.426-16.142-15.175-9.511-17.601-17.693-36.499-32.096-50.376-7.426-7.154-16.246-12.697-23.946-19.557-10.891-9.71-19.614-22.113-32.225-29.456-6.782-3.952-14.416-6.267-21.289-10.062-1.7-.939-3.42-2.041-4.41-3.717-1.394-2.387-1.003-5.374-.443-8.08 1.16-5.53 3.173-13.049 4.28-16.035.567-1.292 3.524-8.537 4.99-10.832 1.01-1.585 1.954-3.117 2.912-4.597a89.035 89.035 0 00-1.147 4.44 92.24 92.24 0 00-2.195 27.063c2.612-4.884 7.407-8.549 12.807-9.794.567 8.757 3.993 17.313 9.628 24.036a69.971 69.971 0 0125.796-20.763 204.9 204.9 0 0025.262 50.624 22.338 22.338 0 014.97-13.518c10.026 24.297 29.027 43.515 46.212 63.392 11.276 13.042 22.193 27.258 29.118 42.883l-.006-.02z" fill="url(#paint0_linear_713_9720)"/><path d="M385.755 185.494c-8.833 19.46-20.376 46.281-36.564 63.171-4.482 4.676-11.087 24.819-16.324 27.61-4.287 2.283-10.814-26.932-15.654-28.054-.039-.013-.072-.013-.104-.019-7.589-1.089-12.488-8.426-16.142-15.175-9.511-17.601-17.693-36.499-32.096-50.376-7.426-7.154-16.246-12.697-23.946-19.557-10.891-9.71-19.614-22.113-32.225-29.456-6.782-3.952-14.416-6.267-21.289-10.062-1.7-.939-3.42-2.041-4.41-3.717-1.394-2.387-1.003-5.374-.443-8.08 1.16-5.53 3.173-13.049 4.28-16.035.567-1.291 3.524-8.537 4.99-10.832 1.01-1.585 1.954-3.117 2.912-4.597 2.423-3.77 4.879-7.226 8.345-10.513-5.915.548-8.547 2.1-13.556 5.302 8.331-21.82 30.492-34.934 52.08-43.796 23.679-9.723 50.387-16.42 74.672-8.347 14.077 4.682 26.096 13.93 37.821 23.02 8.703 6.743 29.738 43.19 33.614 58.958 6.826 27.727 6.123 53.929-5.974 80.562l.013-.007z" stroke="#54140C" stroke-width="2.2" stroke-miterlimit="10"/><path d="M255.579 48.1a81.57 81.57 0 00-24.995 14.751c5.029-.333 10.058-.672 15.087-1.004-12.345 6.527-22.272 17.509-27.523 30.46 6.143-5.145 13.074-8.901 20.904-10.584L255.579 48.1z" fill="url(#paint1_linear_713_9720)"/><path d="M332.347 84.795c-11.068-3.078-22.428-10.167-28.806-18.312-5.491-7.004-9.725-15.377-10.018-24.278-.3-8.901 3.993-18.285 11.94-22.296 2.495-1.258 5.244-1.956 8.025-2.308a26.38 26.38 0 011.004-.118c11.582-1.134 23.418 3.34 31.978 11.236a46.68 46.68 0 016.677 7.708c4.683 6.743 7.699 14.673 8.911 22.818" fill="#E2814B"/><path d="M353.143 36.44c-3.805-2.843-7.733-5.504-11.843-7.877-5.778-3.346-11.921-6.13-18.338-8.002-2.54-.743-7.119-.92-9.478-2.947a26.18 26.18 0 011.004-.118c11.582-1.134 23.418 3.34 31.978 11.236a46.686 46.686 0 016.677 7.708z" fill="#EF986C"/><path d="M332.347 84.795c-11.068-3.078-22.428-10.167-28.806-18.312-5.491-7.004-9.725-15.377-10.018-24.278-.3-8.901 3.993-18.285 11.94-22.296 2.495-1.258 5.244-1.956 8.025-2.308a26.38 26.38 0 011.004-.118c11.582-1.134 23.418 3.34 31.978 11.236a46.68 46.68 0 016.677 7.708c4.683 6.743 7.699 14.673 8.911 22.818" stroke="#54140C" stroke-width="2.2" stroke-miterlimit="10"/><path d="M355.112 480.427c-.574.241-9.263 3.834-9.57 4.382-.41.743 10.664 4.943 11.85 7.845 7.888-2.283 14.657-7.317 21.223-12.253 3.329-2.498 28.291-12.097 28.63-16.708.332-4.467-7.277-10.61-18.748-5.256-4.671 2.178-14.142 13.767-18.943 15.984-4.801 2.217-9.654 3.965-14.449 6.006h.007z" fill="#E2814B"/><path d="M355.107 480.427c-.573.241-8.671 4.128-8.97 4.675-.411.744 10.071 4.65 11.25 7.552 7.888-2.283 14.657-7.317 21.223-12.253 3.329-2.498 28.291-12.097 28.63-16.708.332-4.467-7.277-10.61-18.748-5.256-4.671 2.178-14.142 13.767-18.943 15.984-4.801 2.217-9.654 3.965-14.449 6.006h.007z" stroke="#54140C" stroke-width="2.2" stroke-miterlimit="10"/><path d="M419.875 511.943c-.209.118-.417.235-.626.346-13.21 7.167-26.206 9.188-54.1 18.572-16.826 5.661-30.401 14.249-38.98 17.653-.137.059-.274.104-.404.157-17.374 6.664-36.069-18.996-30.311-26.698.358-.483.736-.959 1.121-1.435 9.934-12.272 26.538-20.998 26.538-20.998l26.461-13.909c12.957-2.491 19.425-5.172 26.135-8.256 4.403-2.028 8.058-5.98 11.888-8.882 4.814-3.658 10.292-7.284 16.448-7.962 3.095-.339 6.111-.085 8.423 2.165a18.442 18.442 0 013.576 4.884c.352.698.626 2.08 1.303 2.361.437.176 3.003.398 5.114 2.041 5.602 4.363 7.889 9.253 8.175 15.475 0 .065.026.123.052.182a.55.55 0 01.059.209c.065 5.908.814 9.703.339 12.82-.593 3.9-3.088 6.73-11.205 11.275h-.006z" fill="#E2814B"/><path d="M431.079 500.668c-1.413 3.75-4.651 7.604-11.204 11.276-.209.117-.417.234-.626.345-13.21 7.167-26.206 9.188-54.1 18.572-16.826 5.661-30.401 14.249-38.98 17.653-.137.059-.274.105-.404.157-17.374 6.664-36.069-18.996-30.311-26.698.358-.482.736-.959 1.121-1.435 9.706 9.88 27.066 13.317 37.222 11.856 14.376-2.061 27.086-10.121 40.7-15.168 14.208-5.269 23.171-5.7 36.734-12.469 7.745-3.867 14.969-9.977 19.399-17.307.019.065.039.124.052.183a2.008 2.008 0 01.058.208c1.043 3.763 2.072 8.21.339 12.821v.006z" fill="url(#paint2_linear_713_9720)"/><path d="M419.875 511.943c-.209.118-.417.235-.626.346-13.21 7.167-26.206 9.188-54.1 18.572-16.826 5.661-30.401 14.249-38.98 17.653-.137.059-.274.104-.404.157-17.374 6.664-36.069-18.996-30.311-26.698.358-.483.736-.959 1.121-1.435 9.934-12.272 26.538-20.998 26.538-20.998l26.461-13.909c12.957-2.491 19.425-5.172 26.135-8.256 4.403-2.028 8.058-5.98 11.888-8.882 4.814-3.658 10.292-7.284 16.448-7.962 3.095-.339 6.111-.085 8.423 2.165a18.442 18.442 0 013.576 4.884c.352.698.626 2.08 1.303 2.361.437.176 2.613.495 5.114 2.041 5.999 3.691 6.729 7.877 8.175 15.475.013.058.026.123.052.182a.55.55 0 01.059.209c.065 5.908.814 9.703.339 12.82-.593 3.9-3.088 6.73-11.205 11.275h-.006z" stroke="#54140C" stroke-width="2.2" stroke-miterlimit="10"/><path d="M353.789 468.173c-3.98 13.78-11.621 44.514-11.621 44.514s-6.012 6.273-14.142 9.86c-1.948.861-4.019 1.565-6.149 1.995-11.055 2.224-11.674-17.385-11.674-17.385l3.524-57.517 4.287-33.44 16.493-7.239 33.307-2.947c.899 17.848-10.044 48.38-14.025 62.159z" fill="#252525"/><path d="M334.64 477.401a749.316 749.316 0 00-7.849 35.182c-1.948.86-4.019 1.565-6.15 1.995-11.054 2.224-12.696-8.354-12.696-8.354l3.524-57.516 4.287-33.441c5.296-2.321 10.175-6.071 15.829-7.545 9.107-2.373 9.706.679 10.527 9.215 2.006 20.952-2.436 40.222-7.472 60.47v-.006z" fill="#C1C1C9" opacity=".47"/><path d="M331.44 439.317l-.756 10.193c-2.749 24.976 2.619 66.014-17.191 93.715-19.816 27.709-38.883 29.92-91.335 40.725-11.38 2.341-45.54.17-56.009-1.109-17.855-2.178-22.193-6.292-37.723-10.714-3.791-1.076-5.029-3.163-8.032-5.451-16.481-12.554-21.542-39.538-21.542-39.538l13.119-32.43 10.507-25.987 10.814-26.737 198.148-2.673v.006z" fill="#1D1C1C"/><path d="M333.078 417.224l-1.641 22.1s-13.185 20.802-45.567 38.566a180.464 180.464 0 01-16.793 8.086c-45.495 19.101-73.031 19.981-106.846 15.436-8.175-1.102-16.709-2.517-25.952-4.069-16.768-2.811-27.132-8.197-33.516-13.975-11.719-10.591-10.084-22.537-10.084-22.537l81.043-314.229s22.78 2.152 59.305 28.465c36.532 26.313 68.054 60.177 68.054 60.177l21.763 123.752 10.241 58.234-.007-.006z" fill="#EE3A23"/><path d="M231.866 195.87c7.152 16.935-1.42 40.933-7.036 58.442-5.608 17.509-14.956 33.525-23.366 49.874-42.889 83.308-62.445 178.504-55.878 271.991-23.562-51.472-34.591-109.288-27.158-165.422 9.902-74.772 51.136-141.509 96.032-202.078m118.615 208.547l-1.642 22.1s-13.185 20.802-45.566 38.566c3.967-24.696 2.586-50.474-7.629-72.574-5.387-11.673-20.011-33.33-26.499-44.442-32.278-55.273-5.622-118.652 16.787-129.699 4.416 10.649-2.007 22.368.86 34.145 3.061 12.547 7.673 24.682 13.367 36.264 10.331 21.018 24.226 40.203 40.081 57.406l10.241 58.234z" fill="#C1C1C9" opacity=".47"/><path d="M313.082 241.172l-16.774.385s-25.757-41.814-63.292-66.496c-31.789-20.907-59.305-28.465-59.305-28.465s.176-2.374 1.557-6.117c1.785-4.852 5.595-12.006 13.654-19.283 20.376 4.584 54.425 24.376 83.837 56.825a230.91 230.91 0 0114.624 17.862c18.487 25.015 25.692 45.296 25.692 45.296l.007-.007z" fill="#fff" stroke="#54140C" stroke-width="2.2" stroke-miterlimit="10"/><path d="M287.387 195.876c-13.503-13.694-28.167-26.287-42.778-38.814-5.179-4.441-10.377-8.895-16.044-12.677a85.032 85.032 0 00-19.198-9.56c-11.139-3.887-17.594-2.126-26.962 3.9-2.358 1.513-4.866 2.067-7.139 1.747 1.785-4.851 5.595-12.005 13.653-19.283 20.377 4.585 54.426 24.376 83.838 56.826a230.713 230.713 0 0114.624 17.861h.006z" fill="#C1C1C9" opacity=".47"/><path d="M213.393 266.122c-53.82 92.6-91.231 206.492-62.575 313.172 0 0-29.9-6.828-43.788-13.147-15.823-7.199-26.33-14.744-38.095-27.682-5.693-6.267-10.996-13.16-15.92-20.509-17.14-25.569-29.588-56.525-37.366-84.788-19.243-69.907-19.9-144.842-1.882-215.068 1.928-7.499 4.084-14.999 6.625-22.354 5.49-15.938 12.754-31.198 23.203-44.338 23.262-29.26 71.512-35.742 113.913-24.689 8.332 2.165 16.442 5.015 24.09 8.497 29.613 13.486 52.334 36.525 54.588 66.809 1.714 22.994-11.217 44.162-22.799 64.097h.006z" fill="#933421"/><path d="M379.766 324.108c2.613 15.325 5.681 29.332 8.827 38.847-22.057-9.423-49.449-72.353-49.449-72.353l-5.863-19.883s5.238-33.16 4.58-39.322c-.652-6.163-2.45-11.856-3.798-23.62-1.342-11.764.99-29.925 8.351-31.047a7.495 7.495 0 011.863-.052c5.98.619 8.358 9.084 9.166 14.203.886 5.621 7.51 16.361 7.51 16.361s10.482-10.949 13.074-16.863c2.593-5.922 6.221-13.075 7.948-22.374 1.433-7.708-2.463-21.422 5.152-24.618 7.622-3.195 13.433 6 14.755 10.545 4.846 2.028 8.755 1.761 9.341 16.251.587 14.49-4.221 26.906-12.93 39.59-8.716 12.69-25.529 30.793-25.529 30.793-1.798 15.103 1.635 52.097 6.996 83.542h.006z" fill="#E2814B"/><path d="M388.593 362.955c-22.057-9.423-49.449-72.353-49.449-72.353l-5.863-19.883s5.238-33.16 4.58-39.322c-.652-6.163-2.45-11.856-3.798-23.62-1.342-11.764.99-29.925 8.351-31.047a7.495 7.495 0 011.863-.052c.293 1.369-11.432 8.764 5.303 79.819 1.817 7.714 1.563 15.814 3.433 23.522 4.117 16.981 13.614 32.599 26.753 44.089 2.613 15.325 5.681 29.332 8.827 38.847z" fill="url(#paint3_linear_713_9720)"/><path d="M379.766 324.108c2.613 15.325 5.681 29.332 8.827 38.847-22.057-9.423-49.449-72.353-49.449-72.353l-5.863-19.883s5.238-33.16 4.58-39.322c-.652-6.163-2.45-11.856-3.798-23.62-1.342-11.764.99-29.925 8.351-31.047a7.495 7.495 0 011.863-.052c5.98.619 8.358 9.084 9.166 14.203.886 5.621 7.51 16.361 7.51 16.361s10.482-10.949 13.074-16.863c2.593-5.922 6.221-13.075 7.948-22.374 1.433-7.708-2.463-21.422 5.152-24.618 7.622-3.195 13.433 6 14.755 10.545 4.846 2.028 8.755 1.761 9.341 16.251.587 14.49-4.221 26.906-12.93 39.59-8.716 12.69-25.529 30.793-25.529 30.793-1.798 15.103 1.635 52.097 6.996 83.542h.006z" stroke="#54140C" stroke-width="2.2" stroke-miterlimit="10"/><path d="M366.788 396.63c-8.879 7.558-16.833 12.547-22.787 15.729-6.755 3.6-10.924 4.865-10.924 4.865s-45.026-26.444-79.655-68.349c-23.34-28.243-23.738-72.906-9.869-95.254 13.869-22.342 22.226-46.803 44.863-33.643 8.69 5.054 30.799 22.466 42.362 41.194 7.276 11.804 15.301 26.868 22.591 41.305 12.872 25.531 23.431 49.079 23.431 49.079s8.951 28.947-10.006 45.08l-.006-.006z" fill="#EE3A23"/><path d="M366.787 396.63c-8.879 7.558-16.833 12.547-22.787 15.729 5.615-5.974 10.918-12.214 15.347-19.101 7.088-11.033 11.83-24.024 10.886-37.112-.548-7.59-2.971-14.907-5.459-22.1-3.648-10.512-7.342-21.128-11.407-31.575 12.872 25.53 23.432 49.078 23.432 49.078s8.95 28.947-10.006 45.081h-.006z" fill="#C1C1C9" opacity=".47"/><path d="M392.204 379.825c-1.427 9.371-6.006 20.241-16.442 31.869-13.712 15.272-28.773 17.483-36.023 15.468-7.25-2.022-9.973-10.186-9.973-10.186 3.25-.991 6.514-2.028 9.699-3.189 9.439-3.43 18.181-7.865 23.829-14.875 7.556-9.371 11.68-20.32 13.634-34.171 1.551-10.994-3.68-23.887-3.68-23.887s6.423 1.011 11.315 6.561c3.504 3.978 7.68 10.323 8.142 24.063a44.973 44.973 0 01-.501 8.36v-.013z" fill="#fff" stroke="#54140C" stroke-width="2.2" stroke-miterlimit="10"/><path d="M392.204 379.825c-1.427 9.371-6.006 20.241-16.442 31.869-13.712 15.272-28.773 17.483-36.023 15.468-7.25-2.022-9.973-10.186-9.973-10.186 3.25-.991 6.514-2.028 9.699-3.189 20.565 6.952 35.424-6.391 46.16-22.968a173.356 173.356 0 006.585-10.994h-.006z" fill="#C1C1C9" opacity=".47"/><path d="M401.376 152.073c1.153 4.826 2.534 9.704 2.156 14.732-1.088 14.959-8.065 29.397-19.438 39.192 1.602-1.846 3.283-3.73 4.723-5.693 7.562-9.651 12.142-21.448 13.608-33.584.573-4.832-.463-9.736-1.049-14.64v-.007zm-24.148 83.954c-2.71 2.647-5.218 5.399-7.094 8.673-1.935 3.234-3.192 6.775-4.579 10.303.501-7.695 4.638-15.442 11.68-18.976h-.007z" fill="#54140C"/><path d="M168.73 130.104c-33.411-6.287-70.607-11.054-108.064 16.061-8.435 6.111-20.324 18.507-30.336 33.734-3.4 5.178-6.742 10.46-9.947 15.847 5.491-15.938 12.755-31.198 23.203-44.338 23.262-29.26 71.604-36.094 113.913-24.689 4.326 1.167 6.912 1.298 11.224 3.378l.007.007z" fill="#EF986C"/><path d="M213.394 266.122c-53.82 92.6-91.23 206.492-62.575 313.172 0 0-29.9-6.828-43.788-13.147-15.823-7.199-26.33-14.744-38.095-27.682-5.693-6.267-10.996-13.16-15.92-20.509a80.82 80.82 0 006.768 1.519c13.81 2.465 29.02.666 40.062-7.988 16.995-13.323 19.314-37.673 21.243-59.192 3.465-38.625 18.995-75.815 32.069-112.321 15.64-43.672 47.573-93.598 57.175-124.221 9.901-31.569-5.27-60.68-28.734-80.53 29.613 13.486 52.335 36.525 54.589 66.809 1.713 22.994-11.218 44.161-22.8 64.096l.006-.006z" fill="#C1C1C9" opacity=".47"/><path d="M128.578 145.689c8.508 17.06 20.513 41.286 29.255 57.908 8.586 16.603 21.673 40.51 30.721 57.138-12.247-17.731-23.223-36.733-33.261-55.814-9.895-19.159-19.178-39.036-26.715-59.232zm-56.234.392a3552.061 3552.061 0 0090.104 168.239c-34.884-53.148-65.175-109.745-90.104-168.239zm-31.391 31.503c12.26 31.087 26.213 63.438 40.779 93.533 16.696 34.478 35.938 69.587 55.676 102.408 1.876 3.039 5.739 9.391 7.583 12.469a1546.925 1546.925 0 01-8.221-12.058C96.578 313.329 63.876 246.63 40.953 177.591v-.007zm-20.18 70.253c10.24 31.412 23.002 63.855 37.261 93.683 16.345 34.157 36.31 68.393 57.69 99.636a1202.19 1202.19 0 018.253 11.836c-2.254-2.863-6.664-8.503-8.872-11.392-43.254-57.517-75.87-124.17-94.332-193.763zm-9.476 100.739c25.724 57.914 59.266 112.431 99.321 161.516-43.117-46.522-77.232-102.03-99.321-161.516zm19.078 106.992c10.599 15.847 21.972 31.452 34.258 46.02 12.253 14.607 25.666 28.478 39.456 41.644-30.102-22.778-56.412-54.093-73.714-87.664z" fill="#702216"/><path d="M157.382 147.919c-28.363 9.632-55.774 23.066-80.658 39.76-19.302 13.081-37.444 28.263-53.755 44.944 14.846-18.09 32.916-33.975 52.185-47.266 24.903-16.902 53.006-30.199 82.228-37.438zm38.36 24.227c-3.315 1.486-9.849 4.33-13.171 5.758-6.54 2.993-19.419 9.299-25.783 12.625-15.921 8.36-34.252 19.426-49.091 29.58-31.138 21.409-60.7 47.493-86.033 75.528-2.3 2.667-7.133 8.164-9.484 10.812 2.234-2.863 6.644-8.484 8.905-11.308 45.69-55.41 107.034-98.828 174.657-122.995zm7.797 42.524c-3.479 1.493-10.345 4.356-13.83 5.791-6.866 3.026-20.383 9.429-27.06 12.827-16.702 8.543-35.899 19.955-51.416 30.499-15.471 10.591-33.099 24.311-47.143 36.734-14.038 12.449-29.809 28.341-42.251 42.388-2.365 2.81-7.328 8.608-9.745 11.399 2.3-3.013 6.833-8.921 9.165-11.888 47.078-58.254 111.399-103.57 182.28-127.756v.006zm-7.795 47.285c-48.987 27.271-94.677 61.625-134.199 101.423-13.217 13.31-25.796 27.252-37.834 41.697 44.648-60.406 104.552-110.221 172.033-143.12zm-36.992 85.062c-21.679 15.52-42.57 32.762-61.624 51.439-19.06 18.67-36.72 39.198-52.706 60.555 28.552-45.27 68.509-84.39 114.33-111.994zm-27.964 93.533c-25.379 14.816-44.42 37.757-63.337 59.779-1.127 1.448-2.326 3.333-1.446 5.198-.593-.802-.671-1.918-.437-2.896.756-2.81 3.049-5.204 4.593-7.597 15.953-22.035 35-43.796 60.62-54.484h.007z" fill="#702216"/><path d="M417.128 469.778c-4.358 1.852-8.091 4.884-12.058 7.466a65.447 65.447 0 01-17.562 8.015" stroke="#54140C" stroke-width="2.2" stroke-miterlimit="10"/><path d="M323.005 34.217c-4.71-1.52-10.866-1.311-13.419 2.928-2.293 3.808-.424 8.75 2.058 12.435 4.345 6.45 26.995 35.306 36.115 23.15 8.963-11.953-14.911-35.338-24.748-38.514h-.006z" fill="#933421"/><path d="M213.393 266.122c-53.82 92.6-91.231 206.492-62.575 313.172 0 0-29.9-6.828-43.788-13.147-15.823-7.199-26.33-14.744-38.095-27.682-5.693-6.267-10.996-13.16-15.92-20.509-17.14-25.569-29.588-56.525-37.366-84.788-19.243-69.907-19.9-144.842-1.882-215.068 1.928-7.499 4.084-14.999 6.625-22.354 5.49-15.938 12.754-31.198 23.203-44.338 23.262-29.26 71.512-35.742 113.913-24.689 8.332 2.165 16.442 5.015 24.09 8.497 29.613 13.486 52.334 36.525 54.588 66.809 1.714 22.994-11.217 44.162-22.799 64.097h.006z" stroke="#54140C" stroke-width="2.2" stroke-miterlimit="10"/><path d="M254.93 351.23c21.855 22.08 45.319 42.733 70.131 61.429a440.483 440.483 0 014.977 3.75 448.55 448.55 0 01-5.198-3.437c-25.725-17.509-49.397-38.325-69.91-61.736v-.006zm22.087-136.358c10.918.554 18.865 8.888 26.734 15.449 5.166 4.506 10.332 9.077 14.872 14.235l3.407 3.874c1.114 1.474 3.713 4.656 4.755 6.097 15.693 21.501 25.08 46.698 37.398 70.116 3.166 6.058 6.618 11.96 10.299 17.718a235.433 235.433 0 01-10.56-17.581c-16.142-29.691-27.984-63.21-53.715-86.295-5.023-4.558-10.306-8.947-15.582-13.205-2.658-2.087-5.4-4.043-8.358-5.524-2.938-1.506-6.117-2.432-9.322-2.53l.065-2.36.007.006z" fill="#54140C"/></g><defs><linearGradient id="paint0_linear_713_9720" x1="182.433" y1="164.083" x2="354.514" y2="176.857" gradientUnits="userSpaceOnUse"><stop stop-color="#C65F32"/><stop offset="1" stop-color="#D36C37" stop-opacity=".1"/></linearGradient><linearGradient id="paint1_linear_713_9720" x1="214.684" y1="84.187" x2="246.701" y2="64.378" gradientUnits="userSpaceOnUse"><stop stop-color="#C65F32"/><stop offset="1" stop-color="#D36C37" stop-opacity=".1"/></linearGradient><linearGradient id="paint2_linear_713_9720" x1="299.223" y1="502.383" x2="425.019" y2="529.506" gradientUnits="userSpaceOnUse"><stop stop-color="#C65F32"/><stop offset="1" stop-color="#D36C37" stop-opacity=".1"/></linearGradient><linearGradient id="paint3_linear_713_9720" x1="328.622" y1="267.003" x2="395.346" y2="271.956" gradientUnits="userSpaceOnUse"><stop stop-color="#C65F32"/><stop offset="1" stop-color="#D36C37" stop-opacity=".1"/></linearGradient><clipPath id="clip0_713_9720"><path fill="#fff" d="M0 0h432v585H0z"/></clipPath></defs></svg>