<svg width="263" height="87" fill="none" xmlns="http://www.w3.org/2000/svg"><g clip-path="url(#clip0_76_4076)"><path fill-rule="evenodd" clip-rule="evenodd" d="M99.338 35.049a9.772 9.772 0 00-5.579 1.095 9.176 9.176 0 00-3.896 3.972 8.645 8.645 0 00-.787 5.394 8.87 8.87 0 002.612 4.84 9.562 9.562 0 005.053 2.512 9.8 9.8 0 005.644-.735 9.253 9.253 0 004.166-3.713 8.67 8.67 0 001.163-5.332c-.218-2.055-1.169-3.976-2.695-5.44a9.58 9.58 0 00-5.68-2.593zm-.305 13.71a5.22 5.22 0 01-3.023-.52 4.906 4.906 0 01-2.141-2.105 4.613 4.613 0 01-.457-2.905 4.729 4.729 0 011.4-2.615 5.101 5.101 0 012.73-1.346 5.224 5.224 0 013.039.427 4.933 4.933 0 012.21 2.04c.495.885.688 1.896.552 2.89a4.721 4.721 0 01-1.422 2.766 5.108 5.108 0 01-2.888 1.368zm13.714-13.354c-.326 0-.648.071-.943.206-.294.135-.553.33-.759.573a2.062 2.062 0 00-.427.83 2.004 2.004 0 00-.014.924c.206.99 1.173 1.665 2.225 1.665h6.109l-9.506 12.03a.58.58 0 00.168.87c.099.06.213.09.329.091h14.912c1.052 0 2.019-.675 2.226-1.665a2.006 2.006 0 00-.014-.924 2.062 2.062 0 00-.427-.83 2.177 2.177 0 00-.759-.573 2.276 2.276 0 00-.942-.206h-7.443l9.499-12.02a.585.585 0 00.063-.634.62.62 0 00-.233-.245.654.654 0 00-.333-.092h-13.731zm59.589.048a2.239 2.239 0 00-1.244.766 2.068 2.068 0 00-.469 1.341v6.99l-11.845-9.013a.647.647 0 00-.666-.07.623.623 0 00-.26.223.585.585 0 00-.096.32v14.433c-.008.485.158.958.469 1.341.312.383.75.653 1.244.766.321.067.653.065.973-.007a2.24 2.24 0 00.874-.408c.255-.197.462-.446.603-.73.142-.282.215-.592.214-.906v-7.05l11.846 9.013a.657.657 0 00.666.07.624.624 0 00.259-.223.584.584 0 00.096-.32V37.504a2.02 2.02 0 00-.215-.907 2.104 2.104 0 00-.603-.73 2.236 2.236 0 00-.874-.407 2.289 2.289 0 00-.972-.007zm-30.842 3.748c5.011 0 8.754 2.532 8.754 4.797 0 2.264-3.743 4.796-8.754 4.796-5.01 0-8.753-2.532-8.753-4.796 0-2.265 3.743-4.797 8.753-4.797zm0-4.198c-7.252 0-13.13 4.027-13.13 8.995 0 4.967 5.878 8.994 13.13 8.994 7.252 0 13.131-4.027 13.131-8.994 0-4.968-5.879-8.995-13.131-8.995z" fill="#fff"/></g><defs><clipPath id="clip0_76_4076"><path fill="#fff" transform="translate(89 35)" d="M0 0h86v18H0z"/></clipPath></defs></svg>