<svg width="1278" height="829" fill="none" xmlns="http://www.w3.org/2000/svg"><path d="M1037.88 28.536c2.92 1.79 6.68 2.567 8.93 5.404 1.55 1.943.14 1.687-.87 3.551 2.24.92 3.7 1.82 3.36 4.495 1.53.256 3.3-.664 4.61-.627.73.02 3.22 2.204 4.87 2.168 1.76-.038 2.9-1.575 4.48-2.014.88-.25 1.63 1.287 2.96.555l2.75 6.253-4.18 1.306c.73 1.005 1.4 1.825.68 3.064-.47.823-8.75 10.25-9.35 10.623-2.6 1.597-6.64 1.334-8.18 2.188-.48.27-3.53 4.23-3.51 4.629 2.46 3.177 1.88 5.98 1.54 9.593-1.83 1.405-4.1-1.608-5.43-1.455-1.33.152-1.75 2.454-2.75 2.411-1.37-.056-3.89-1.742-5.52-1.888-.66 10.824 6.92 2.35 7.76 2.813l.56 1.798c1.94-1.903 1.59-.156 2.4-.133 1.46.048 4.06-.807 5.68.684 1.18 1.087 4.35 9.043 4.68 10.88.41 2.188-.22 3.765-.82 5.802 4.96-.409 4.93-3.205 7.55-6.292 7.3-.425 16.17-4.964 23.21-5.224 3.83-.14 6.41 3.3 6.96 6.818l-8.71 9.402 4.28 1.109 16.55 37.775c2.85 3.729 7.25 6.381 9.09 10.767l-9.26 2.892c-.57.177-3.67 6.153-4.68 7.034l4.38 14.034-8.28-1.34 5.66 9.597-4.06 2.981c-.11.322.34 4.27.55 4.751 1.28 3.048 13.81 11.01 16.38 14.486l4 .469-.48-3.751c3.8-1.285 5.87-2.749 9.35-.317 2.82 1.975 3.38 4.089 7.8 4.282l4.82-2.673 9.51 3.415c1.46 1.949-1.14 5.206-3.02 5.301-1.3.066-2.93-2.296-4.73-1.054 2.47 1.765 9.15 8.416 11.71 8.619 2.56.203 7.88-1.548 10.22.768 4.99 4.943-.28 7.237-.63 9.51-.17 1.135.74 4.114 1.31 5.156 1.46 2.685 11.64 4.681 13.26 7.152 1.62 2.471-1.5 3.142-1.48 5.038.01.882 1.22 5.077 1.67 5.776.31.481 5.6 1.733 6.75 2.6 3.15 2.383 7.95 13.909 9.57 17.985.56 1.423.54 3.527.93 4.349.7 1.466 5.62.924 4.46 4.5l-2.34 1.04c3.1.373 6.94 9.335 4.93 10.834-3.78 2.044-8.91-3.347-9.57-6.771l-.93 2.242c-3.54.052-2.71-1.353-4.12-2.611-.49-.443-2.8.03-2.23-2.463.03-.175 1.82-2.068 2.11-2.095.29-.026 4.46 2.456 4.62 3.132l-.15-2.57 3.77-.526-.93-1.737-2.21.089.94-3.238-55.15-11.009c-4.3-1.162-25-10.381-27-13.288-1.2-1.743-1.85-5.297-3.33-6.989-1-1.143-3.55-1.231-3.93-1.585-.99-.923-.64-2.527-3.6-2.959 1.93-2.95-.51-4.625-.64-6.238-.11-1.401 2.62-3.753 2.15-5.363-3.45-4.698-8.4-9.957-11.1-15.058-1.89-3.584-3.04-9.431-4.88-12.607-.94-1.62-4.89-3.924-5.37-5.021-1.15-2.656.62-8.479-1.53-11.294-2.15-2.816-9.32-1.911-12.21-3.434-1.92-1.008-5.82-5.339-5.7-7.697-3.23.136-3.67 5.354-2.04 7.164 1.64 1.81 11.96 4.412 10.94 7.711-.29.978-2.02 1.798-1.89 2.99.12 1.103 4.52 7.425 5.37 9.474 1.38 3.343 2.28 4.923-1.54 6.576-5.14 2.213-8.58-3.973-13.57-4.885l-.02 4.484c-1.24.752-2.86.63-3.98 1.668-.45.415-4.14 9.736-4.18 10.796-.21 6.68 4.17 7.86 6.81 12.798 1.75 3.262 4.23 12.986 6.1 14.794 3.52 3.405 3.68-3.808 6.13-3.934.73-.035 5.37 1.446 5.93 1.991 2.86 2.749-3.6 9.932-6.64 10.678-.2.489 1.45 7.531 1.17 9.35-.15.985-3.99 6.7-4.94 6.741-.85-.54-3.29-.874-3.8-1.338-.58-.544-.15-2.546-3.15-2.641l.72-1.856c-2.81 1.207-3.98 4.921-6.37 6.894-1.76 1.453-4.59 2.784-6.7 3.737l3.81 7.986c-4.99.621-6.79 5.596-10.01 8.546-1.15 1.061-2.77-.306-2.45 2.91.1 1.011 1.54 2.847.84 3.663l-6.61 2.039-13.26 19.512c.59 2.279 2.58 4.243 3.03 6.56.4 2.058-.98 5.253-.34 7.369.68 2.265 3.41 3.947 4.01 6.545.6 2.598-.11 7.561.24 10.655.64 5.562 3.04 12.199 3.21 17.664.18 5.465-3.01 13.612-3.1 19.349-.16 10.242 10.53-3.059 12.41-3.439 3.24 1.421 4.77 3.983 7.29 6.263l2.48-4.666 5.58 2.162-.5-12.007c.28-.81 7.54-6.989 8.43-7.306 2.8-1.001 15.41-2.468 18.35-1.957 5.05.886 2.33 5.257 3.36 6.127l9.04.435c-2.05-1.641-4.42-4.841-6.51-6.169-1.7-1.081-5.75-1.314-6.29-1.801-.5-.443-.52-1.484-1.18-2.059-.44-.386-1.49-.044-1.82-.565-.67-1.081-.31-2.752-.54-3.966 1.21.336 4.12-.056 4.05-1.638-.11-2.326-5.38-1.927-6.99-2.759-1.31-.672-1.5-1.552-2.37-2.176-.71-.506-1.89-.256-2.05-.37-.15-.105-.16-3.092.13-3.575 2.37-3.912 6.88.473 9.71 1.499 4.06 1.47 10.32 1.5 13.91 3.474 4.5 2.481 7.61 7.224 13.15 9.688 13.96 6.212 30.05 7.596 44.76 11.333l-1.6 1.155 1.38.224c1.82 1.15-7.53 3.612-8.21 3.93-1.44.671-5.41 3.289-4.23 4.964.93 1.315 9.15 10.519 9.93 10.933 1.92 1.046 10.18 1.957 12.48 1.666 4.87-.624 5.85-3.152 10.45.086.8.563 5.63 5.299 5.19 5.811-1.6.963-3.73-.488-5.08-.209-1.55.321-4.51 3.571-7.05 3.355 1.11 1.232 4.4 9.787 2.87 10.227-4.02-1.984-7.99-3.993-11.24-7.139-.74-.703-.93-2.149-1.42-2.528-.68-.528-4.35.429-5.96-.535-1.98-1.186-4.72-5.344-6.21-6.268-1.19-.737-3.88-.707-5.66-1.596-4.33-2.174-10.53-7.702-14.89-10.66-2.24-1.516-5.22-2.406-7.4-3.979-1.92-1.38-5.27-5.695-6.64-6.388-.59-.296-9.55-1.332-9.77-.895 3.32 3.256 5.39 10.067 8.39 13.059.97.98 3.07 1.418 4.27 2.329 3.92 2.997 18.03 14.649 19.96 18.149 3.13 5.667 2.96 14.327 5.23 20.534 1.77 4.848 6.26 10.433 7.36 15.278.97 4.259-.05 11.041.57 15.804 1.55 11.95 7.51 23.748 2.45 35.612-.49 1.156-6.96 8.806-8.04 9.407-3.6 1.987-10.41 2.445-13.4 4.466-.99.67-4.35 6.517-5.16 8.035l-.6.187-1.19-3.502c-1.89.485-3.69-1.874-6.09-3.078-2.71-1.355-9.38-2.982-11.27-4.312-1.05-.742-.48-1.837-.67-2.007-.25-.229-2.13.09-2.71-.974l1.99-10.559 14.58-5.354c-1.52-1.664-4.51-3.155-5.52-5.185-2.4-4.82-2.22-12.212-4.34-16.969-.75-1.681-4.6-4.15-5.39-6.283-.61-1.632.56-4.184.09-5.066-.48-.881-3.93-1.978-4.33-3.664-4.91 4.039-9.38 10.094-11.64 16.116-.56 1.486.14 2.803-.92 4.51-.75 1.189-9.58 8.106-10.77 8.307-3.6.604-12.28-4.969-14.71-7.821-3.16 3.262-8.7 1.34-11.81 2.528-1.27.49-2.23 2.146-3.24 2.507-1.49.53-4.22-.49-6.44.289-2.08.728-5.89 4.819-7.4 4.662l-47.045-18.949c-3.917.7-7.104 3.57-10.874 4.616-3.3.913-7.615-.184-10.375.612-3.969 1.142-8.453 9.071-13.257 8.697l1.159 1.591c-4.016 3.195-7.916 6.91-8.638 12.215 3.621-1.963 11.606 5.492 11.442 8.218-.089 1.542-2.763 3.662-3.219 5.58-.352 1.454.618 12.576 1.129 14.107.805 2.41 4.559 4.062 4.542 6.316-3.384 4.19-6.826 6.602-5.883 12.685l-19.487 3.524-5.037 4.857c-1.273.352-2.758-1.38-4.329-1.079-.748.142-9.884 3.526-10.377 3.857-.413.273-5.574 7.378-5.81 7.943-.555 1.308-.228 4.496-.596 4.932-.571.67-4.819 2.115-6.149 3.022-4.139 2.82-8.224 8.88-12.47 11.97l-24.741 5.906c-.729.057-3.854-3.653-4.378-3.758-1.388-.288-3.517 2.108-3.891-.221l-1.059 1.688c-1.41-.11-3.576.743-4.797.443-.965-.236-1.565-1.864-3.021-1.868-2.225-.007-4.896 2.309-7.494 2.891-2.597.582-6.311-.27-8.661.392-2.204.623-6.85 6.944-9.706 8.459-3.898 2.063-14.941 3.159-18.818 1.092-2.885-1.537-5.971-7.534-7.873-7.851-2.986-.496-10.143 1.353-13.789 1.535-5.731.289-12.142-.304-17.886-.646l.622 4.321-4.102 1.347 1.096 3.571c-3.236-.058-2.977 4.738-1.727 6.642.811 1.234 4.081 1.799 5.031 2.846 3.587 3.972-1.484 13.631-6.556 14.495-1.169.201-2.168-.687-3.187-.657-4.526.136-22.583 5.533-25.02 3.417-.44-.38-.46-1.429-.83-1.733-.779-.648-1.449-.485-1.861-.795-.451-.331-.453-1.262-1.051-1.455-2.106-.659-8.549 1.504-11.139 1.415-1.424-.047-2.349-1.6-3.77-1.241-10.698 3.774-19.24 11.345-28.641 17.467l-1.306-.949c1.25 1.419-3.298 6.248-4.355 6.958-2.257 1.524-7.576 1.953-8.818 3.37-.734.839-.008 3.038-1.174 3.88-1.031.748-4.671 1.328-6.004 1.279-3.194-.11-6.451-4.579-9.391-5.869l-4.991 3.748c-2.527-2.698-7.586-.095-9.172-.596-.779-.248-1.003-1.784-1.748-2.43-.431-.37-1.445-.027-1.786-.596-2.774-4.58-1.518-1.21-4.818-2.958-3.692-1.96-5.86-9.09-8.107-9.548-6.255-1.284-8.588 4.655-12.378 4.882-.649.039-9.386-1.112-9.841-1.311-1.955-.844-3.384-4.14-5.968-3.851-1.876.52-.72 4.767-5.185 6.148-3.65 1.134-2.358-.731-3.758-1.979-8.612-7.659-12.73-21.389-20.301-30.35-.707-.835-11.256-9.279-11.972-9.56-2.063-.811-3.977 1.707-4.448-.577l-.579.181c.064 2.575-5.525 3.528-7.715 5.202-1.308.998-1.461 2.626-3.727 3.576-2.904 1.215-6.324-.522-9.356 2.3l-.933-2.986-2.394.748c-1.713-2.965 1.257-3.611 2.092-5.891l-7.353 1.641c-.527-5.341-5.94-2.084-9.724-2.888l-4.168-4.151c.072-1.366 2.344-3.682 2.189-4.787-.102-.702-1.011-1.369-1.17-2.151-.282-1.407 1.29-2.94-.827-4.684l-.564 1.533c-6.39 2.225-8.339-7.562-14.654-2.03l-1.752-1.413.832 1.72c-1.883.811-4.02 3.602-5.725 4.187-2.402.829-13.258 2.273-16.24 2.484-1.597.112-7.188-.665-7.539-.529-.973.369-1.481 3.045-3.382 3.357-1.302.216-4.657-.932-6.542-.966-3.248-.053-8.779 1.963-10.685-.11-1.147 1.951-8.651 3.823-10.765 3.874-4.092.098-7.432-6.271-11.283 2.764.309 2.899 6.912 4.9 6.383 7.425-.994 4.728-4.185 1.183-6.702 1.477-1.468.17-5.98 2.052-6.325 3.379-.218.854.94 2.99.444 4.233-16.036 4.648-1.479 7.836-.204 12.674.683 2.606-1.814 7.475-4.396 8.19-.615.173-5.955.491-6.513.383-1.341-.263-1.682-2.215-3.493-2.304-2.17-.109-3.285 2.828-6.746 2.533-1.784-.151-6.423-3.27-7.538-4.659-1.115-1.389-1.309-3.688-1.982-4.33-.223-.212-3.292-.636-3.938-1.509-3.69 7.431-6.289.935-9.112-.254-1.207-.508-6.602-.049-7.784.471-1.373.599-1.827 2.564-3.63 2.773-2.592.305-2.754-1.683-3.969-2.759-.833-.736-2.936-.649-3.055-3.444l-5.5 3.416c-.883-1.481-4.281-2.982-4.887-4.039-.605-1.056.664-2.953.244-4.382-.116-.37-3.251-5.139-3.517-5.364-.852-.711-2.852.104-4.267-.712-.446-.254-.548-1.147-1.093-1.652-1.217-1.127-2.919-.471-2.428-3.495-2.306.196-3.154 3.397-5.694 2.755-1.16-.293-5.751-4.771-6.536-6.151-2.466 1.445-6.699 4.176-9.295 4.908-1.55.432-2.657-.743-4.473.034-1.694.726-2.298 2.986-3.61 3.573-1.311.586-4.424.169-5.517.759-1.734.935-2.744 8.592-6.281 9.565-.349.077-5.219-3.868-5.561-4.542-.698-1.355-.224-2.879-.689-4.242-.302-.882-2.54-.576-2.289-2.857-1.24.204.335 1.344-.402 2.132-.786.841-5.166 2.747-6.762 3.849-.658.454-4.545 3.517-4.708 3.771-.473.731.25 2.688.008 3.76-.242 1.071-4.778 4.343-5.723 4.488-.695.105-.418-1.528-1.332-.948 1.199 2.136-.59 2.308-2.245 3.324l4.761 4.982c-.837.615-3.991 4.137-2.977 4.928 10.24.216 6.616 11.023 8.249 17.952l-3.29 2.142 2.096 4.589c-4.726 1.764-9.448 4.19-14.451 5.169-2.161.426-6.596-.404-7.822.097-2.14.871-5.988 5.927-10.12 5.56l-1.834-.791c1.503 2.48-2.343 3.557-2.29 5.068.03.875 1.334 2.067 1.649 3.286.541 2.112.577 4.952 1.242 7.189-.181 1.224-5.249 6.844-6.158 8.76-.744 1.583-.11 9.047.311 11.151.849 4.25 5.188 10.19-.51 12.259-2.079.754-5.667-.223-5.939-.105-.375.163-.195 3.404-3.326 3.516-1.348.048-7.143-4.048-7.865-5.14-1.145-1.713-.719-6.71-2.526-9.41-.566-.845-5.19-3.163-6.458-4.832-.434-.572-1.86-3.542-1.808-4.174.14-1.859 2.372-2.098 2.54-3.428-2.396.178-4.634-3.882-6.701-4.855-1.637-.773-6.956-.384-7.369-.72-.413-.336-.449-1.498-1.139-2.115-.426-.378-1.448-.02-1.804-.571-1.055-1.656-.925-5.499-1.155-5.669-.205-.152-1.695.195-2.442-.601-.789-.848-.781-2.227-1.407-3.034-2.433-3.153-5.409-2.23-8.402-4.238-2.994-2.008-3.299-4.286-4.977-6.449-1.269-1.629-4.509-2.852-5.798-4.711l-3.255 1.961c-7.514-3.913-4.849-12.42-7.596-19.054-.433-1.051-3.199-5.791-3.872-6.709-.98-1.332-4.947-3.731-5.175-4.459-.382-1.224 2.347-3.65-.254-6.207-1.923-.028-5.741-.415-7.301-1.298-.965-.551-1.479-3.372-4.786-3.277-1.695.051-2.585 1.522-3.792 1.624-1.207.102-4.176-2.143-5.995-1.942-2.229.25-4.694 1.676-6.805 2.407l-8.862-5.392-.373-1.195c2.317-2.676 5.974-3.098 6.864-7.151-.59-1.848-2.97-2.376-3.773-3.036-1.122-.928-.825-2.64-3.573-2.751l-.142-1.883c2.004-.633 4.06-1.583 6.149-1.927 2.348-.393 6.056.586 8.005.049 1.95-.537 3.122-3.079 6.009-3.175.182-.004 3.103 1.542 3.239 1.663.461.406 5.397 6.429 5.631 6.926.692 1.481-.019 5.04 1.639 7.052l-3.406 3.45c2.349 1.979 4.473-.369 7.102-.22 2.629.149 4.649 3.11 5.096 3.22.384.096 2.303-.831 4.727.863 1.568 1.097 2.395 2.844 4.136 3.631 3.403-3.856 7.681-4.661 12.593-4.589.456-1.499-1.834-6.605-.534-7.017l8.311 3.231c2.891-4.364 4.998-2.341 9.188-2.818-1.316-1.149-4.099-.489-5.633-1.203-.859-.4-.97-3.001-3.472-2.828.82-.879 2.442-4.394 3.027-4.852.484-.381 8.924-2.067 10.051-2.026 2.826.107 5.345 3.515 7.499 2.731.672-.242 3.607-2.365 4.032-2.937.905-1.214.8-4.301 1.877-5.509.958-1.066 2.321-1.111 3.052-1.897.572-.624.306-2.232 1.045-2.948 1.355-1.308 4.164-1.275 5.816-2.197.255-.276-1.708-6.939-1.903-7.291-1.175-2.143-8.908-6.315-10.695-8.995-.9-1.351-1.27-4.106-1.838-4.604-.226-.198-5.191-.358-5.948-1.039-1.327-1.185-3.208-3.828-4.549-5.14-.971-.949-2.406-1.346-3.175-2.548-.424-1.021 2.28-6.047 3.922-6.036-2.142-1.297-1.211-3.227-2.938-5.355-1.28-1.58-4.591-1.876-3.548-4.686.35-.935 1.775-.633 2.219-1.165.291-.347-.134-1.518.04-2.097.492-1.635 5.01-3.538 6.724-3.863l-2.661-.146 2.178-5.596-3.634 1.751c-1.089-.63-3.676-4.003-4.826-4.411-1.533-.544-4.163 1.15-5.288.78-.871-.291-.891-1.78-1.525-2.342-.59-.524-2.766-.565-3.114-2.855-.123-.899 4.726-5.54 5.439-6.949.877-1.749.218-4.781 1.939-5.502 2.284-.956 2.938 1.199 4.961.521 1.033 5.446 6.021 2.826 9.93 2.057l-1.678-1.114c-.345-1.439 1.403-2.621 1.355-3.845-.061-1.475-2.207-3.833-2.485-6.257-.212-1.789 2.559-10.965 3.676-12.553.957-1.361 6.606-5.773 6.805-6.183.089-.178-1.316-2.178-.497-3.731-4.532 1.101-3.266-.219-5.187-1.815-.698-.575-1.626-.167-2.311-1.565-1.3-2.649 1.106-3.781.893-4.717-2.084-1.361-5.364-5.357-4.796-7.881.218-.96 5.253-4.82 5.343-5.182.248-.989-1.145-2.868-1.096-4.076 1.041-1.092 4.25-1.668 4.945-2.403.353-.379.725-4.834 2.176-6.127 1.451-1.292 4.33-.303 6.218-1.706.607-.451 1.211-3.216 2.014-4.444 1.029-1.573 6.529-8.285 8.51-7.213l1.171 1.548c-1.499-2.304 2.329-2.89 4.308-4.485 1.2-.965 1.976-2.321 3.022-3.422 1.237-.675 4.029 1.527 5.178 1.68 1.238.164 2.491-.483 3.657-.336.65.085 3.662 1.923 4.206 1.504 1.286-.984-2.531-5.921-1.861-7.972 3.702-2.88 7.679-5.466 12.352-6.454l1.348.897.012-1.328c2.388-.202 4.269-2.028 6.288-2.659 5.874-1.821 14.853-1.801 20.332-3.88.405-.152 3.419-2.129 3.503-2.32.535-1.163-2.314-11.311-.849-13.925 3.089-1.758 6.342-.532 8.634-3.477l-2.217-3.155c3.153-.69 2.741-7.528 3.354-8.231.503-.57 2.552-.705 3.59-1.37 1.72-1.102 3.083-3.454 4.786-4.484 1.312-.797 3.001-.741 4.206-1.792 2.157-1.887 5.227-12.14 7.415-14.095 2.188-1.955 7.43-1.751 9.361-3.586.272-.262 2.653-6.551 2.661-7.091.037-2.043-.935-3.477-1.215-5.382 2.664-1.186 5.832-6.049 7.856-7.121 7.258-3.833 17.599-4.028 25.287-1.638 1.967.611 8.933 4.046 6.999 6.669-2.041 2.761-4.326-.694-5.899-.209-4.54 1.392 5.786 7.716 6.892 8.8 5.963 5.871 4.288 11.127 6.859 17.324 2.893 6.975 8.298 7.45 7.031 18.248-.09.782-3.419 8.487-3.828 8.982-1.381 1.683-8.135 4.488-10.349 4.596-.898.044-13.977-1.979-14.664-2.269-1.396-.587-4.268-5.019-5.388-6.17-1.537-1.584-4.146-2.991-5.489-4.774-2.882-3.832-2.746-9.295-8.312-11.293.707 4.741 2.883 12.923-.852 16.79-1.471 1.522-3.682 2.081-5.153 3.793-.923 1.074-5.245 9.818-5.076 10.86.154.954 1.642 1.06 2.303 1.896.444.562.349 2.945.858 4.09.801 1.808 2.322 3.365 3.022 5.27l4.403.014c-.321-1.132.943-2.477.875-3.262-.173-1.938-3.335-2.851-3.712-3.973-.41-1.209.788-4.506.149-6.175 3.475-1.97 6.448-3.698 10.342-2.312 1.174 1.934 1.05 5.944 1.95 7.544.609 1.088 7.232 7.331 8.209 7.248 2.016-.177 1.572-9.614 2.786-11.016.651-.748 6.969-3.665 8.159-3.971 2.046-.521 4.868-.006 7.151-.503 5.313-1.162 6.053-4.29 11.394-.767 2.039 1.343 3.857 3.429 5.135 5.442 1.292-2.265 5.659-6.519 6.464-8.6.757-1.96-.608-4.378.047-5.723.952-1.969 7.177-5.729 8.6-8.73.909-1.916.382-4.589.723-6.623.112-.651-.467-.909.78-1.07l11.389 4.964c1.593 4.071 4.815 9.475 1.377 13.243-5.046-.227-8.089-2.291-12.187 2.574-.242.652 1.615 1.541 1.936 2.968.444 1.965-1.641 4.419 3.025 4.856 2.133.198 7.811-7.835 10.491-7.793.948.012 2.308 1.094 3.062.695.692-.367.527-2.026 2.482-2.715 1.388-.487 18.426-2.282 20.163-2.156 1.132.079 3.013 1.419 3.806 1.105.746-.298 1.217-3.113 2.235-3.713.317-.184 6.705-1.072 7.239-1.042.787.043 1.73 1.846 3.347 1 .878.315-.302 6.334-.978 7.089-1.272 1.426-4.872.643-3.708 2.797 3.243-.888 6.222-3.228 9.647-3.636 2.193-.259 5.334 1.801 7.729 1.453 3.895-.561 8.511-3.032 12.478-3.911l.979 1.582 1.858-.095 1.384 4.392c2.939.216 4.621-2.499 6.471-4.362-1.863-2.249-.635-6.86-1.394-8.616-1.006-2.321-7.026-3.232-5.943-8.493.157-.777 3.931-3.09 4.504-3.209.24-.049 3.657 2.141 4.105 2.755 1.213 1.659 2.394 7.203 2.832 7.472.137.082 2.081-.263 3.202.075 7.206 2.147 21.707 11.304 27.339 16.453 2.037 1.861 2.95 4.322 4.656 6.365.42.505-.012 1.158 1.224.562l4.39-5.737c-.026-1.486-2.957-2.163-3.762-4.153-.637-1.578.458-3.172-.093-4.304-.16-.324-2.105-.444-3.034-1.091-.988-.687-3.98-3.509-4.085-4.577 4.658-2.884 6.739-4.425 7.751-10.063l-5.165-4.889c1.722-.886 1.847-2.734 3.337-4.005 2.221-1.893 5.627-2.676 7.897-4.853 3.898-3.741 8.087-17.818 13.024-18.927.956-.213 2.195.186 3.168.197-1.638-2.202-2.832-3.317-2.555-6.333l5.854-1.803.672 1.521c2.897-1.049 3.638 4.409 4.546 6.583-1.444.516-3.314.491-3.896 2.193 1.496 1.119 4.883 1.89 5.682 3.502.459.925 1.283 7.465 1.19 8.595-.204 2.495-4.589 6.166-4.926 7.942-.198 1.045 1.546 3.332 1.939 4.946 1.687 6.978-4.395 20.912-4.135 27.831.118 3.083 2.366 4.511 2.478 7.786.024.812-2.333 10.62-2.73 11.55-.961 2.234-11.284 11.469-13.567 12.405-1.847.76-12.976-1.086-13.358-.292.233 1.396.458 1.549 1.694 2.001 1.236.453 15.774 2.847 16.597 2.669 1.921-1.426 2.116-4.116 3.827-5.817 1.984-1.976 5.442-3.076 7.324-5.152 1.882-2.075 3.365-6.393 5.561-8.573l-1.87-9.471c1.27-3.09 5.341-4.912 3.056-8.557l-1.888.189-2.465-6.256 5.116-14.34c-.909-5.536-5.509-11.532-1.517-16.778 1.092-1.435 2.946-1.962 4.28-3.251 3.357-3.25 2.526-6.982 3.8-11.044-.183-1.949-3.155-1.119-3.462-3.507 3.569-1.711 6.787.554 7.234 4.295l-2.289 1.042 1.789-.126c.847.214 2.277 6.932 2.281 8.248.018 3.645-4.357 5.962-2.368 9.542 1.537 2.758 9.466 3.506 12.314 5.153l-.941-2.97-8.593-5.457-.2-4.919 7.863 2.132c.456-2.862-.706-4.17-1.496-6.657l-2.607-.247 3.633-4.085.89-.278.586 1.731 1.452-.453c2.565 4.331 2.634 1.864 6.309 1.398 3.676-.467 8.354 5.236 11.152 7.312l7.262-1.954c-1.624-3.163-5.508-2.881-7.937-4.383-.221-.141-3.282-2.829-3.413-3.018-1.687-2.547-3.643-11.493-1.649-14.134 1.993-2.641 14.933-4.717 18.685-5.168l.5-1.755c-4.276-2.361-1.49 1.606-4.905 1.755-1.422.064-2.783-3.097-4.745-3.421-.026-3.754 2.801-2.133 5.104-1.601 1.456.339 1.979.313 2.974.52 4.327.883 1.853 2.344 4.978 3.872l8.401-3.175c-1.624-2.848-5.834-3.696-5.595-7.422-2.911 2.096-2.893-.826-4.026-1.849-.21-.19-3.288-.559-2.417-2.031.976-1.661 6.689 1.522 6.891 1.119-.941-6.687 6.154-6.885 9.612-9.203 1.972-1.324 4.217-5.847 6.633-7.513 1.742-1.199 10.783-4.403 11.076-4.934l-1.49-4.772 10.158-3.172c.215-.068 2.742 2.001 3.672 2.018.271.008 4.65-.724 4.945-.83 1.481-.547 1.253-2.744 2.834-3.474 1.364-.629 3.215-.054 4.635-.773-.412-2.368-3.361-2.096-3.462-4.811l8.361-2.611c-.929-2.384-3.819-3.664-3.244-6.42.137-.652 3.913-9.841 4.228-10.3.942-1.369 4.135-3.488 5.8-3.424.484.019 6.879 2.046 7.333 2.324.905.549.338 2.385 2.097 2.602 2.024.246 5.129-1.628 6.505 1.835l.023 4.313c1.882-1.466 1.822-5.354 3.745-6.289.837-.406 10.586-2.684 11.153-2.612l16.739 7.992c1.702 9.058-.525 17.396-3.516 25.887 2.518-.209 6.91.13 6.354 3.574 1.37.483 4.903-4.553 5.346-5.924-.831-.815-3.605-.715-4.117-1.178-.512-.463-.516-1.504-1.166-2.074-.878-.755-2.62.739-1.795-2.979.517-2.311 2.217-2.154 4.37-1.916 5.25.589 5.074 3.593 3.431 7.921l5.574 2.487c.538-.168 2.287-5.375 3.458-6.16 1.002-.673 14.548-5.023 15.916-5.155.915 2.467 2.151.967 2.875 1.501.513.384.46 1.725.694 1.887.615.438 3.903.892 4.849.564 3.668-1.29 10.006-8.507 14.079-10.389l-2.215-11.644c.193-.473 7.962.076 9.431-.297 5.679-1.44 5.391-5.676 13.187-4.283 2.118.38 13.125 6.722 14.188 8.133 1.12 1.486-.385 4.204-2.134 4.626-.246.66 12.444 4.942 13.147 4.925 2.316-.055 6.322-1.476 8.759-1.943l-4.477-14.332 12.508-2.681.792-7.097c4.497-.395 8.971-.194 12.865-2.983-4.625-4.441-.813-6.864 3.92-8.434-1.05-.636-4.005-4.137-4.708-4.35-.253-.078-1.529 1.566-2.682 1.316l-4.593-4.15 2.647-5.27-3.609-3.809c7.361-4.239 12.523-12.622 21.052-14.441l-.638 2.153 2.795-1.522-.813 1.571 1.38.224-.638 2.153c2.112-1.381 2.529-.298 3.541-.038.585.152 1.344-.249 1.526-.149.741.398.466 2.962 1.497 3.387l2.252-4.289-5.218-7.264 4.809-5.881 9.327-2.435-.638 2.153 2.989-.921c-.281 1.681 1.191 2.617 2.673 3.059 1.256-.157 1.49-3.31 3.203-4.226 5.498-2.943 7.836-.638 11.916-1.742 6.822-1.849 3.193-5.619 4.566-10.603 1.373-4.984 8.876-14.918 13.135-17.585 1.711-1.072 5.183-1.435 5.399-1.667 1.397-1.465-2.44-1.473-2.595-1.864-.251-2.064.729-3.793 2.971-3.857.623-.018.927.975 1.464 1.142.647.204 1.262-1.542 2.596 1.909.341.883.088 2.194.536 2.788.647.854 6.42 2.655 7.671 2.042.477-.234 7.621-6.68 7.89-7.138 1.608-2.744 1.431-8.24 2.89-10.977.903-1.685 8.28-8.453 7.929-9.575l-2.704-8.66 10.549 1.248c3-2.753 6.234-4.864 10.309-5.796l-1.165-3.877c-1.57-.093-3.728-.979-5.222-.663-1.71.357-3.734 2.503-4.782 2.444-2.464-.148-7.501-5.11-9.837-6.399 3.71-3.859 5.573-8.262 10.833-10.58.157-.443-.99-1.618-1.175-2.544-.253-1.271 3.297-11.438 4.174-12.846 2.986-4.793 20.239-17.444 25.654-22.518 3.991-3.738 12.413-14.326 16.233-16.482 3.35-1.9 15.38-.086 19.56-2.472-.09-2.313-4.18-.242-4.75-.484.05-2.465-.79-2.801-2.98-3.322 2.94-4.129 2.89-7.019 1.65-11.86l12.54-11.909 1.2-.373-.06.017zm13.47 76.979l-.61-4.308-3.72 2.539.85 2.945 3.48-1.176zM235.204 438.531c.031.101-1.049.524-1.537 1.417-1.43 2.642-2.892 5.367-3.99 8.168 3.522-2.699 5.433.859 7.897.647 2.176-.188 4.075-1.621 6.358-1.154-1.692-3.004 1.8-4.161 2.124-5.769.443-2.19-1.161-4.639-1.383-6.588-.191-1.684 1.918-3.85.008-6.229-3.848.756-7.353 1.116-10.741 3.341l-1.536-2.797 2.8 8.964zm42.69-8.078c-1.173.694-3.361.217-4.259.97-.561.47-4.867 8.048-5.334 9.217-2.235 5.646 1.122 5.063.927 8.487-.055.895-1.109 1.192-1.239 1.573-.065.191.69.637.613.871-.114.35-1.647.206-.633 1.626 5.495-1.421 3.555-5.889 4.837-9.697.436-1.29 1.711-3.439 2.448-4.711 1.741-3.008 4.97-4.423 2.638-8.342l.002.006zm427.403-113.202c5.362-1.95 7.743-6.626 11.966-9.977l.344-.723c-.543-.794-2.931-3.549-4.036-2.725l-8.276 13.42.002.005zM566.89 426.029l-3.808-3.714c1.513-4.956 4.796-7.266 1.175-12.689-.307-.461-6.403-3.775-6.975-3.845-2.045-.253-4.611 1.355-6.652 1.744l5.874-.459c.756.931 2.334.444 2.787.781.248.185 3.59 4.444 3.85 4.92 2.699 5.01-5.274 10.541.25 14.735l3.499-1.473zm262.707 87.718c-6.173 1.095-3.308 9.534-2.839 13.995l-1.377-.232c.393.795.795 1.201.82 2.163.288 9.965-3.111 17.804-5.946 26.876-.814 2.601-.369 4.802-2.498 7.427 5.014 0 4.486-4.168 6.607-6.272 2.677-2.659 6.271-2.883 6.806-8.431.109-1.162-.632-2.484-.498-2.998.135-.514 2.391-1.055 2.939-2.72.718-2.171-1.248-3.052-1.317-4.636-.06-1.43 3.576-3.85 2.783-7.627-.412-1.949-1.817-2.395-2.461-3.787-2.096-4.549-3.097-8.759-3.021-13.764l.002.006zm-22.269 67.244c.615-3.948 6.299-5.369 8.785-8.637 1.908-2.496 1.99-5.235 1.041-8.19-1.88 1.642-2.379 5.292-3.537 7.017-.978 1.465-4.981 5.311-6.493 6.452-1.803 1.363-4.553 1.75-4.943 3.648l4.19-1.296-.24 1.373 1.189-.371.008.004z" fill="#fff"/><path d="M524.581 298.486c.269-.314 6.886-3.659 7.403-3.683 2.193-.095 6.062 3.062 6.775 5.323 1.251 3.982-.994 6.112-4.312 8.269-2.196 1.427-6.613 3.213-9.19 4.175-6.587 2.457-17.724 4.278-23.306 7.267-1.875 1.005-2.37 4.836-3.534 5.41-1.165.573-3.853.128-4.966.699-.87.448-1.235 2.26-2.494 2.424-1.038.141-2.622-1.364-3.915-.613.691 1.751.625 3.469-.373 5.079-1 1.099-2.177-.317-3.183-.684l-.145 2.661-3.945-.079.748 2.395c-3.884-.308-2.995 4.049-3.642 4.434-2.28 1.368-5.237 1.131-7.744 1.082 2.533 6.281-2.982 6.863-6.295 9.937-7.634 7.077-2.235 16.619-1.74 25.319l-6.902.858-.796-2.275c-1.327-.26-2.939.518-4.211-.093-.371-.18-5.897-5.093-6.159-5.49-1.072-1.605-.591-3.551-1.458-5.234l-1.593 1.153-1.397-4.473 3.071-.638c-1.993-2.878-5.784-3.515-3.757-7.708 2.027-4.192 4.651-2.652 7.581-3.993 2.426-1.112 6.213-4.346 4.048-7.144l4.699-1.533-.43-3.727c5.088.423 7.645 1.309 9.855-4.061l-2.94-1.061c-.177-3.694 3.319-2.531 5.707-3.448.789-.305 7.156-4.201 7.48-4.611.773-.968.229-2.686.488-2.99.648-.74 2.956-.36 3.6-1.865.466-1.089-.318-4.417-.196-5.851.23-.334 3.509 1.539 4.62 1.172.791-.26 1.179-1.515 2.047-1.924 1.635-.766 3.259-.835 4.977-1.882 1.552-.95 3.847-4.492 5.292-5.009 1.315-.47 3.816.466 5.26-.011 1.662-.552 2.368-2.994 4.772-3.398 1.832-.304 4.877 1.787 6.642 1.707 1.499-.068 12.009-2.702 12.856-3.517.685-.66.378-1.999.702-2.369zm90.007-73.046c.529.183 1.233-.352 1.792.05.64.456 2.156 3.378 2.348 3.449l6.028-6.911c4.114.013 11.883 5.517 13.075 9.144.995 3.018-4.32 3.564-1.678 7.406l.993-.973 1.542 2.796 1.517-2.427 6.348 2.402c.993 3.538 3.029 6.343.37 9.579 4.052 1.055 4.877 8.669.225 9.158-3.027.317-10.743-2.897-14.053-3.757-1.24-.321-3.152.086-3.814-.146-.775-.276-.765-1.629-1.444-2.23-.679-.601-2.416.178-2.409-2.551-2.543 3.128-11.683-2.945-11.128-5.052.947-3.599 8.385-1.38 8.895-2.116l-4.782-4.694c.533-3.162 3.187-5.177 1.278-8.625l-7.353 1.641-.987-2.929-1.86.214c-1.683-2.89.514-4.69 3.436-4.567.764.03 1.104.953 1.655 1.141l.006-.002zm205.323-29.663c.209.02 3.504 1.796 3.707 1.963 2.396 1.965 2.433 5.355 3.525 8.055l-2.395.748c1.71 1.275 2.643 1.849 1.665 4.114-1.293 2.993-3.858 1.434-4.87 2.413-1.409 1.364-.605 6.16-5.353 5.965l1.111 3.828-.616 1.176c-3.499 1.493-7.413 2.374-11.203 1.611-5.058-4.673-11.232-7.523-11.433-15.47 4.279-3.676 8.237-2.041 13.036-1.41-.356-3.782-3.956-2.383-4.03-6.607 1.634-1.126 4.424-.588 5.84-1.175 1.416-.587 2.26-3.171 4.096-3.862.54-.201 6.568-1.383 6.92-1.349z" fill="#fff"/><path d="M654.662 243.277l.562 1.798 1.603-1.163 1.131 3.579c1.227-4.906 9.523-.883 10.377 1.642.208.623 1.258 6.168 1.272 6.715.114 4.5-6.144 5.196-8.743 6.906-1.207.796-5.348 6.402-6.081 6.048-.526-2.543-4.886-3.659-5.176-6.413-.171-1.598 2.265-5.046 2.165-6.896-.132-2.502-1.851-5.865-1.762-8.665l4.658-3.553-.006.002zm300.36-172.892c5.52 2.897 2.454 4.582 2.224 8.547-.142 2.483 1.783 10.763-1.218 10.914-1.086.05-8.003-3.524-9.164-4.368-.406-.292-3.291-2.813-3.416-3.003-4.27-6.348 4.204-15.962 11.574-12.09zM841.213 180.878c.487.175 1.17-.346 1.794.056 4.749 3.033 3.469 7.896 1.358 12.154l-13.544 4.23-5.898-4.948c-1.141-1.741 2.497-.944 2.843-1.472-.361-3.675 1.362-2.732 2.796-4.039.739-.676.959-1.735 1.585-2.166 2.54-1.75 6.495-.652 7.461-5.07.376-.098 1.001 1.044 1.605 1.255zm-9.819 40.624l2.618-5.13c5.996-1.244 12.244-2.225 14.3 4.985-3.783 3.272-7.642 6.424-12.519 7.954l-.933-2.986c-1.85 1.378-2.576-.231-3.194-.28-.733-.059-1.835.776-2.68.529-.844-.248-.894-1.792-1.524-2.342-.298-.261-1.195-.047-1.847-.708-.652-.662-2.126-3.302-1.837-4.244l1.543-1.02c2.141.558 5.488.803 6.077 3.254l-.004-.012zM415.667 391.247c-2.447.685-5.699 2.547-8.159 2.018-.928-.202-5.769-3.822-6.18-4.467-.378-.603-.375-4.137-.075-4.604.3-.468 4.828-3.095 5.612-3.123.311-.012 5.299 1.982 5.821 2.311 2.634 1.655 3.069 4.934 2.981 7.865zm399.171-157.193c1.411.195 5.541 3.742 3.672 5.44-3.648 3.323-8.221-1.6-10.934-3.991.215-.297 6.891-1.503 7.262-1.449zM578.496 350.5c1.679 1.134 1.996 3.932 2.673 5.746-1.02 2.337-3.028 1.28-4.541.213-2.695-1.892-5.223-4.111-2.605-7.249.215-.087 4.132 1.056 4.472 1.284l.001.006zm222.513-123.453c-4.498 3.123-8.978-3.035-11.756-6.14 4.426-.917 10.001 2.035 11.756 6.14zm-213.093 90.301c-.416-.368-3.08.045-3.085-1.776 3.611-5.48 13.268 3.741 6.457 4.407-3.448.336-3.183-2.467-3.366-2.633l-.006.002zm90.552-64.209c1.901.651 3.243 1.759 3.432 3.916l-4.889.779c-1.165-3.037-4.282-2.208-4.502-5.705 1.902.507 4.111.381 5.961 1.016l-.002-.006zm-56.737 35.819c-3.187.412-3.261-.915-5.053-2.309-1.16-.902-3.338.079-1.057-3.635 3.47 1.479 5.608 1.44 6.11 5.944zm194.174-114.149c2.244.512 3.564 2.262 2.905 4.644l-2.868.994-.983-2.937-1.743.505-.318-3.178c.959-.182 2.053-.248 3.005-.034l.002.006zM577.007 326.701c1.537.136 4.087 3.534 3.656 5.156l-1.277.989c-2.475-.747-7.924-6.629-2.379-6.145zm66.602-46.078c1.17.388 2.735-.645 2.973 2.552.357 4.752-5.456-.911-6.8-1.501l2.244-2.3c.433-.083.997 1.052 1.581 1.243l.002.006zM306.21 404.036c1.139 1.046 1.675 4.628-.682 4.657l-4.269-4.225c-.004-2.214 4.424-.923 4.951-.432zm286.372-96.574c.133.004 1.267 1.033 2.429.703.956 2.139 1.389 5.222-1.742 4.096.037-3.026-3.801-1.382-3.254-4.227.883-.341 1.595-.623 2.567-.572zm48.051-18.319c-.784-.561-3.2.226-1.532-2.327 1.848-.649 6.413 3.326 4.047 4.628-1.52.842-1.654-1.685-2.515-2.301zm-36.501 38.235c.331.264.161 2.028.9 2.505l-1.392.769c-1.292-.173-1.289-1.924-1.941-2.501-.543-.479-2.186.198-2.236-1.431.404-.677 4.318.374 4.673.65l-.004.008zm615.708 44.975c.16.021 2.77 1.575 2.88 1.703 3.49 4.076-.39 6.402-.73 9.908-.3 3.143 1.06 7.483 1.68 10.625l-1.78.558c.01-2.503-1.99-2.152-2.6-2.678-1.48-1.298-5-9.514-5.13-11.493 1.33-2.753 5.33-4.935 2.8-7.886.94-.223 1.87-.875 2.89-.733l-.01-.004zm-108.97-182.845c4.71 1.261 3.62 9.237 5.03 13.263-2.97-1.598-6.8-2.415-9.57-4.223-.89-.575-.85-1.235-1.47-1.834-.52-.501-1.85-.582-2.17-1.27-.34-.759.23-5.289 1.02-5.838 1.03-.713 5.79-.464 7.17-.094l-.01-.004zm110.51 165.57c.96.39 2.39.461 3.11 1.246.66.725 2.64 4.891 2.9 5.95.18.744-.14 5.823-.35 6.35-1.53 3.722-3.27-.357-3.9-.9-.74-.633-1.72-.098-2.4-1.373-1.13-2.125-4.04-10.891-1.5-12.313 1.03-.564 1.48.762 2.15 1.038l-.01.002zm-41.08-162.01c-.73 2.129-8.88 3.804-10.99 3.572-1.35-.148-6.07-4.247-5.7-4.839 5.39-2.66 13.73-6.27 16.7 1.259l-.01.008zm37.8 205.452c.14.034 2.43 1.251 2.51 1.369 2.23 3.1-.06 4.497.17 6.419.22 1.922 1.42 3.541 1.47 5.78.02.84.3 1.472-.82 1.542-.73-.992-3.51-2.295-3.98-2.933-2.16-2.847-1.38-6.177-3.92-8.732l.2-1.342c1.47-1.369 2.3-2.618 4.37-2.103zm-.02-61.071c2.89-1.951 9.01 1.657 8.48 5.433l-4.63 2.156c-1.4-1.798-7.48-5.145-3.86-7.587l.01-.002zm-34.65-157.732l-.24 1.365 2.51-.016c1.64 2.888-1.57 4.036-3.07 6.509-.27.169-3.28-.632-3.41-.749-.18-.166.2-3.125-2.81-2.308-.97-.764 5.7-5.109 7.02-4.801zm21.45 122.049c.56.133 1.25.896 2.48.611 1.51 3.009-.49 5.021-3.36 5.845-1.92-2.486-5.48-3.126-4.88-6.918 1.96-.309 3.86 0 5.76.456v.006zm7.66 17.808c.26.025 3.99 2.13 4.31 2.785 1.19 2.447-.79 4.901-3.28 3.324-.4-.255-3.73-2.97-3.85-3.196-.67-1.271 1.3-3.052 2.82-2.913zm5.83 9.813l-.24 1.367 2.3-.089c.65 1.241 1.58 4.829-.29 5.407-2.59.795-2.37-2.287-2.53-2.423-.73-.649-4.65.222-2.03-3.941l2.8-.315-.01-.006zm9.33 68.019c2.25 1.574 6.29 2.749 4.32 6.307l-2.14.453c-.48-2.19-3.04-2.498-3.41-2.998-1.01-1.337-1.1-4.089 1.23-3.762z" fill="#fff"/><path d="M744.5 519l7.361-18h-14.722l7.361 18zM893 437l6.928-18h-13.856L893 437zm106-52l6.93-18h-13.858L999 385zm-9-180l6.928-18h-13.856L990 205zM781 419l6.928-17.25h-13.856L781 419zm-160 44l6.928-18h-13.856L621 463zm26.5 82l7.361-18h-14.722l7.361 18zM557 514l6.928-17.25h-13.856L557 514z" fill="#312D2D"/></svg>