<svg width="432" height="585" viewBox="0 0 432 585" fill="none" xmlns="http://www.w3.org/2000/svg">
<g clip-path="url(#clip0_713_9720)">
<path d="M229.469 23.1175C227.072 17.3072 227.222 9.99043 231.502 5.3865C235.905 0.645615 243.253 0.0782737 249.624 1.19991C259.611 2.9541 268.971 8.13842 275.759 15.6769C279.114 19.4005 281.967 24.5652 280.176 29.2409C279.238 31.6733 277.186 33.4992 275.056 34.9991C257.506 47.3436 237.632 42.9027 229.476 23.1175H229.469Z" fill="#E2814B" stroke="#54140C" stroke-width="2.17" stroke-miterlimit="10"/>
<path d="M385.755 185.494C376.922 204.954 365.379 231.775 349.191 248.665C344.709 253.34 338.104 273.484 332.867 276.275C328.58 278.558 322.053 249.343 317.213 248.221C317.174 248.208 317.141 248.208 317.109 248.202C309.52 247.113 304.621 239.776 300.967 233.027C291.456 215.426 283.274 196.528 268.871 182.651C261.445 175.497 252.625 169.954 244.925 163.094C234.034 153.384 225.311 140.981 212.7 133.638C205.918 129.686 198.284 127.371 191.411 123.576C189.711 122.637 187.991 121.535 187.001 119.859C185.607 117.472 185.998 114.485 186.558 111.779C187.718 106.249 189.731 98.7304 190.838 95.7437C191.405 94.4525 194.362 87.2075 195.828 84.912C196.838 83.3274 197.782 81.7949 198.74 80.3146C201.163 76.5454 203.619 73.0892 207.085 69.8025C201.17 70.3503 198.538 71.9023 193.529 75.1042C201.86 53.2844 224.021 40.1704 245.609 31.3081C269.288 21.5851 295.996 14.8878 320.281 22.961C334.358 27.6432 346.377 36.8902 358.102 45.9807C366.805 52.7236 384.973 81.2341 391.716 104.939C399.533 132.406 397.839 158.868 385.742 185.501L385.755 185.494Z" fill="#E2814B"/>
<path d="M363.614 158.255C358.298 160.57 353.582 164.066 349.055 167.692C344.756 171.122 340.443 174.865 338.157 179.873C335.427 185.84 335.961 192.733 336.73 199.254C337.557 206.238 338.593 213.203 339.831 220.128C340.508 223.924 341.297 227.823 343.453 231.019C348.625 238.707 360.409 239.542 368.363 234.794C376.323 230.047 381.02 221.282 383.971 212.492C390.817 192.12 399.957 142.429 363.614 158.255Z" fill="#EF986C"/>
<path d="M349.185 248.658C344.703 253.334 339.863 257.253 334.625 260.044C330.333 262.32 322.073 249.089 317.213 248.221C317.174 248.208 317.141 248.208 317.109 248.202C309.52 247.113 304.621 239.776 300.967 233.027C291.456 215.426 283.274 196.528 268.871 182.651C261.445 175.497 252.625 169.954 244.925 163.094C234.034 153.384 225.311 140.981 212.7 133.638C205.918 129.686 198.284 127.371 191.411 123.576C189.711 122.637 187.991 121.535 187.001 119.859C185.607 117.472 185.998 114.485 186.558 111.779C187.718 106.249 189.731 98.7303 190.838 95.7436C191.405 94.4524 194.362 87.2074 195.828 84.912C196.838 83.3274 197.782 81.7949 198.74 80.3146C198.316 81.7884 197.939 83.2687 197.593 84.7555C195.535 93.6047 194.786 102.754 195.398 111.818C198.01 106.934 202.805 103.269 208.205 102.024C208.772 110.781 212.198 119.337 217.833 126.06C224.608 117.205 233.539 110.018 243.629 105.297C249.655 123.23 258.182 140.322 268.891 155.921C268.995 151.03 270.774 146.191 273.861 142.403C283.887 166.7 302.888 185.918 320.073 205.795C331.349 218.837 342.266 233.053 349.191 248.678L349.185 248.658Z" fill="url(#paint0_linear_713_9720)"/>
<path d="M385.755 185.494C376.922 204.954 365.379 231.775 349.191 248.665C344.709 253.341 338.104 273.484 332.867 276.275C328.58 278.558 322.053 249.343 317.213 248.221C317.174 248.208 317.141 248.208 317.109 248.202C309.52 247.113 304.621 239.776 300.967 233.027C291.456 215.426 283.274 196.528 268.871 182.651C261.445 175.497 252.625 169.954 244.925 163.094C234.034 153.384 225.311 140.981 212.7 133.638C205.918 129.686 198.284 127.371 191.411 123.576C189.711 122.637 187.991 121.535 187.001 119.859C185.607 117.472 185.998 114.485 186.558 111.779C187.718 106.249 189.731 98.7304 190.838 95.7437C191.405 94.4525 194.362 87.2075 195.828 84.912C196.838 83.3274 197.782 81.7949 198.74 80.3146C201.163 76.5454 203.619 73.0892 207.085 69.8025C201.17 70.3503 198.538 71.9023 193.529 75.1042C201.86 53.2844 224.021 40.1704 245.609 31.3081C269.288 21.5851 295.996 14.8878 320.281 22.961C334.358 27.6432 346.377 36.8902 358.102 45.9807C366.805 52.7236 387.84 89.1704 391.716 104.939C398.542 132.666 397.839 158.868 385.742 185.501L385.755 185.494Z" stroke="#54140C" stroke-width="2.2" stroke-miterlimit="10"/>
<path d="M255.579 48.1001C246.452 51.4715 237.945 56.4928 230.584 62.851C235.613 62.5184 240.642 62.1793 245.671 61.8467C233.326 68.3744 223.399 79.356 218.148 92.307C224.291 87.1618 231.222 83.4056 239.052 81.7232L255.579 48.1001Z" fill="url(#paint1_linear_713_9720)"/>
<path d="M332.347 84.7946C321.279 81.7166 309.919 74.6281 303.541 66.4832C298.05 59.4795 293.816 51.1063 293.523 42.2049C293.223 33.3036 297.516 23.9196 305.463 19.9091C307.958 18.6505 310.707 17.9528 313.488 17.6006C313.821 17.555 314.159 17.5158 314.492 17.4832C326.074 16.3485 337.91 20.8221 346.47 28.7192C348.978 31.0407 351.212 33.6296 353.147 36.4272C357.83 43.1701 360.846 51.0998 362.058 59.2447" fill="#E2814B"/>
<g style="mix-blend-mode:screen">
<path d="M353.143 36.4403C349.338 33.597 345.41 30.9364 341.3 28.5627C335.522 25.2173 329.379 22.4328 322.962 20.5612C320.422 19.8178 315.843 19.6418 313.484 17.6137C313.817 17.568 314.155 17.5289 314.488 17.4963C326.07 16.3616 337.906 20.8351 346.466 28.7322C348.974 31.0538 351.208 33.6427 353.143 36.4403Z" fill="#EF986C"/>
</g>
<path d="M332.347 84.7946C321.279 81.7166 309.919 74.6281 303.541 66.4832C298.05 59.4795 293.816 51.1063 293.523 42.2049C293.223 33.3036 297.516 23.9196 305.463 19.9091C307.958 18.6505 310.707 17.9528 313.488 17.6006C313.821 17.555 314.159 17.5158 314.492 17.4832C326.074 16.3485 337.91 20.8221 346.47 28.7192C348.978 31.0407 351.212 33.6296 353.147 36.4272C357.83 43.1701 360.846 51.0998 362.058 59.2447" stroke="#54140C" stroke-width="2.2" stroke-miterlimit="10"/>
<path d="M355.112 480.427C354.538 480.668 345.849 484.261 345.542 484.809C345.132 485.552 356.206 489.752 357.392 492.654C365.28 490.371 372.049 485.337 378.615 480.401C381.944 477.903 406.906 468.304 407.245 463.693C407.577 459.226 399.968 453.083 388.497 458.437C383.826 460.615 374.355 472.204 369.554 474.421C364.753 476.638 359.9 478.386 355.105 480.427H355.112Z" fill="#E2814B"/>
<path d="M355.107 480.427C354.534 480.668 346.436 484.555 346.137 485.102C345.726 485.846 356.208 489.752 357.387 492.654C365.275 490.371 372.044 485.337 378.61 480.401C381.939 477.903 406.901 468.304 407.24 463.693C407.572 459.226 399.963 453.083 388.492 458.437C383.821 460.615 374.35 472.204 369.549 474.421C364.748 476.638 359.895 478.386 355.1 480.427H355.107Z" stroke="#54140C" stroke-width="2.2" stroke-miterlimit="10"/>
<path d="M419.875 511.943C419.666 512.061 419.458 512.178 419.249 512.289C406.039 519.456 393.043 521.477 365.149 530.861C348.323 536.522 334.748 545.11 326.169 548.514C326.032 548.573 325.895 548.618 325.765 548.671C308.391 555.335 289.696 529.675 295.454 521.973C295.812 521.49 296.19 521.014 296.575 520.538C306.509 508.266 323.113 499.54 323.113 499.54L349.574 485.631C362.531 483.14 368.999 480.459 375.709 477.375C380.112 475.347 383.767 471.395 387.597 468.493C392.411 464.835 397.889 461.209 404.045 460.531C407.14 460.192 410.156 460.446 412.468 462.696C413.921 464.111 415.126 465.767 416.044 467.58C416.396 468.278 416.67 469.66 417.347 469.941C417.784 470.117 420.35 470.339 422.461 471.982C428.063 476.345 430.35 481.235 430.636 487.457C430.636 487.522 430.662 487.58 430.688 487.639C430.688 487.639 430.695 487.646 430.695 487.652C430.721 487.717 430.747 487.783 430.747 487.848C430.812 493.756 431.561 497.551 431.086 500.668C430.493 504.568 427.998 507.398 419.881 511.943H419.875Z" fill="#E2814B"/>
<path d="M431.079 500.668C429.666 504.418 426.428 508.272 419.875 511.944C419.666 512.061 419.458 512.178 419.249 512.289C406.039 519.456 393.043 521.477 365.149 530.861C348.323 536.522 334.748 545.11 326.169 548.514C326.032 548.573 325.895 548.619 325.765 548.671C308.391 555.335 289.696 529.675 295.454 521.973C295.812 521.491 296.19 521.014 296.575 520.538C306.281 530.418 323.641 533.855 333.797 532.394C348.173 530.333 360.883 522.273 374.497 517.226C388.705 511.957 397.668 511.526 411.231 504.757C418.976 500.89 426.2 494.78 430.63 487.45C430.649 487.515 430.669 487.574 430.682 487.633C430.682 487.633 430.688 487.639 430.688 487.646C430.708 487.711 430.727 487.776 430.74 487.841C431.783 491.604 432.812 496.051 431.079 500.662V500.668Z" fill="url(#paint2_linear_713_9720)"/>
<path d="M419.875 511.943C419.666 512.061 419.458 512.178 419.249 512.289C406.039 519.456 393.043 521.477 365.149 530.861C348.323 536.522 334.748 545.11 326.169 548.514C326.032 548.573 325.895 548.618 325.765 548.671C308.391 555.335 289.696 529.675 295.454 521.973C295.812 521.49 296.19 521.014 296.575 520.538C306.509 508.266 323.113 499.54 323.113 499.54L349.574 485.631C362.531 483.14 368.999 480.459 375.709 477.375C380.112 475.347 383.767 471.395 387.597 468.493C392.411 464.835 397.889 461.209 404.045 460.531C407.14 460.192 410.156 460.446 412.468 462.696C413.921 464.111 415.126 465.767 416.044 467.58C416.396 468.278 416.67 469.66 417.347 469.941C417.784 470.117 419.96 470.436 422.461 471.982C428.46 475.673 429.19 479.859 430.636 487.457C430.649 487.515 430.662 487.58 430.688 487.639C430.688 487.639 430.695 487.646 430.695 487.652C430.721 487.717 430.747 487.783 430.747 487.848C430.812 493.756 431.561 497.551 431.086 500.668C430.493 504.568 427.998 507.398 419.881 511.943H419.875Z" stroke="#54140C" stroke-width="2.2" stroke-miterlimit="10"/>
<path d="M353.789 468.173C349.809 481.953 342.168 512.687 342.168 512.687C342.168 512.687 336.156 518.96 328.026 522.547C326.078 523.408 324.007 524.112 321.877 524.542C310.822 526.766 310.203 507.157 310.203 507.157L313.727 449.64L318.014 416.2L334.507 408.961L367.814 406.014C368.713 423.862 357.77 454.394 353.789 468.173Z" fill="#252525"/>
<g style="mix-blend-mode:multiply" opacity="0.47">
<path d="M334.64 477.401C331.742 489.067 329.123 500.799 326.791 512.583C324.843 513.443 322.772 514.148 320.641 514.578C309.587 516.802 307.945 506.224 307.945 506.224L311.469 448.708L315.756 415.267C321.052 412.946 325.931 409.196 331.585 407.722C340.692 405.349 341.291 408.401 342.112 416.937C344.118 437.889 339.676 457.159 334.64 477.407V477.401Z" fill="#C1C1C9"/>
</g>
<path d="M331.44 439.317L330.684 449.51C327.935 474.486 333.303 515.524 313.493 543.225C293.677 570.934 274.61 573.145 222.158 583.95C210.778 586.291 176.618 584.12 166.149 582.841C148.294 580.663 143.956 576.549 128.426 572.127C124.635 571.051 123.397 568.964 120.394 566.676C103.913 554.122 98.8516 527.138 98.8516 527.138L111.971 494.708L122.478 468.721L133.292 441.984L331.44 439.311V439.317Z" fill="#1D1C1C"/>
<path d="M333.078 417.224L331.437 439.324C331.437 439.324 318.252 460.126 285.87 477.89C280.756 480.688 275.167 483.42 269.077 485.976C223.582 505.077 196.046 505.957 162.231 501.412C154.056 500.31 145.522 498.895 136.279 497.343C119.511 494.532 109.147 489.146 102.763 483.368C91.0443 472.777 92.6794 460.831 92.6794 460.831L173.722 146.602C173.722 146.602 196.502 148.754 233.027 175.067C269.559 201.38 301.081 235.244 301.081 235.244L322.844 358.996L333.085 417.23L333.078 417.224Z" fill="#EE3A23"/>
<g style="mix-blend-mode:multiply" opacity="0.47">
<path d="M231.866 195.87C239.018 212.805 230.446 236.803 224.83 254.312C219.222 271.821 209.874 287.837 201.464 304.186C158.575 387.494 139.019 482.69 145.586 576.177C122.024 524.705 110.995 466.889 118.428 410.755C128.33 335.983 169.564 269.246 214.46 208.677" fill="#C1C1C9"/>
</g>
<g style="mix-blend-mode:multiply" opacity="0.47">
<path d="M333.075 417.224L331.433 439.324C331.433 439.324 318.248 460.126 285.867 477.89C289.834 453.194 288.453 427.416 278.238 405.316C272.851 393.643 258.227 371.986 251.739 360.874C219.461 305.601 246.117 242.222 268.526 231.175C272.942 241.824 266.519 253.543 269.386 265.32C272.447 277.867 277.059 290.002 282.753 301.584C293.084 322.602 306.979 341.787 322.834 358.99L333.075 417.224Z" fill="#C1C1C9"/>
</g>
<path d="M313.082 241.172L296.308 241.557C296.308 241.557 270.551 199.743 233.016 175.061C201.227 154.154 173.711 146.596 173.711 146.596C173.711 146.596 173.887 144.222 175.268 140.479C177.053 135.627 180.863 128.473 188.922 121.196C209.298 125.78 243.347 145.572 272.759 178.021C278.263 184.099 283.129 190.118 287.383 195.883C305.87 220.898 313.075 241.179 313.075 241.179L313.082 241.172Z" fill="white" stroke="#54140C" stroke-width="2.2" stroke-miterlimit="10"/>
<g style="mix-blend-mode:multiply" opacity="0.47">
<path d="M287.387 195.876C273.884 182.182 259.22 169.589 244.609 157.062C239.43 152.621 234.232 148.167 228.565 144.385C222.604 140.407 216.142 137.186 209.367 134.825C198.228 130.938 191.773 132.699 182.405 138.725C180.047 140.238 177.539 140.792 175.266 140.472C177.051 135.621 180.861 128.467 188.919 121.189C209.296 125.774 243.345 145.565 272.757 178.015C278.261 184.092 283.127 190.111 287.381 195.876H287.387Z" fill="#C1C1C9"/>
</g>
<path d="M213.393 266.122C159.573 358.722 122.162 472.614 150.818 579.294C150.818 579.294 120.918 572.466 107.03 566.147C91.207 558.948 80.6996 551.403 68.9351 538.465C63.2417 532.198 57.9391 525.305 53.0144 517.956C35.8757 492.387 23.4271 461.431 15.6492 433.168C-3.59368 363.261 -4.25161 288.326 13.7666 218.1C15.6948 210.601 17.851 203.101 20.3915 195.746C25.8829 179.808 33.1462 164.548 43.5949 151.408C66.857 122.148 115.107 115.666 157.508 126.719C165.84 128.884 173.95 131.734 181.598 135.216C211.211 148.702 233.932 171.741 236.186 202.025C237.9 225.019 224.969 246.187 213.387 266.122H213.393Z" fill="#933421"/>
<path d="M379.766 324.108C382.379 339.433 385.447 353.44 388.593 362.955C366.536 353.532 339.144 290.602 339.144 290.602L333.281 270.719C333.281 270.719 338.519 237.559 337.861 231.397C337.209 225.234 335.411 219.541 334.063 207.777C332.721 196.013 335.053 177.852 342.414 176.73C343.072 176.632 343.691 176.619 344.277 176.678C350.257 177.297 352.635 185.762 353.443 190.881C354.329 196.502 360.953 207.242 360.953 207.242C360.953 207.242 371.435 196.293 374.027 190.379C376.62 184.457 380.248 177.304 381.975 168.005C383.408 160.297 379.512 146.583 387.127 143.387C394.749 140.192 400.56 149.387 401.882 153.932C406.728 155.96 410.637 155.693 411.223 170.183C411.81 184.673 407.002 197.089 398.293 209.773C389.577 222.463 372.764 240.566 372.764 240.566C370.966 255.669 374.399 292.663 379.76 324.108H379.766Z" fill="#E2814B"/>
<path d="M388.593 362.955C366.536 353.532 339.144 290.602 339.144 290.602L333.281 270.719C333.281 270.719 338.519 237.559 337.861 231.397C337.209 225.234 335.411 219.541 334.063 207.777C332.721 196.013 335.053 177.852 342.414 176.73C343.072 176.632 343.691 176.619 344.277 176.678C344.57 178.047 332.845 185.442 349.58 256.497C351.397 264.211 351.143 272.311 353.013 280.019C357.13 297 366.627 312.618 379.766 324.108C382.379 339.433 385.447 353.44 388.593 362.955Z" fill="url(#paint3_linear_713_9720)"/>
<path d="M379.766 324.108C382.379 339.433 385.447 353.44 388.593 362.955C366.536 353.532 339.144 290.602 339.144 290.602L333.281 270.719C333.281 270.719 338.519 237.559 337.861 231.397C337.209 225.234 335.411 219.541 334.063 207.777C332.721 196.013 335.053 177.852 342.414 176.73C343.072 176.632 343.691 176.619 344.277 176.678C350.257 177.297 352.635 185.762 353.443 190.881C354.329 196.502 360.953 207.242 360.953 207.242C360.953 207.242 371.435 196.293 374.027 190.379C376.62 184.457 380.248 177.304 381.975 168.005C383.408 160.297 379.512 146.583 387.127 143.387C394.749 140.192 400.56 149.387 401.882 153.932C406.728 155.96 410.637 155.693 411.223 170.183C411.81 184.673 407.002 197.089 398.293 209.773C389.577 222.463 372.764 240.566 372.764 240.566C370.966 255.669 374.399 292.663 379.76 324.108H379.766Z" stroke="#54140C" stroke-width="2.2" stroke-miterlimit="10"/>
<path d="M366.788 396.63C357.909 404.188 349.955 409.177 344.001 412.359C337.246 415.959 333.077 417.224 333.077 417.224C333.077 417.224 288.051 390.78 253.422 348.875C230.082 320.632 229.684 275.969 243.553 253.621C257.422 231.279 265.779 206.818 288.416 219.978C297.106 225.032 319.215 242.444 330.778 261.172C338.054 272.976 346.079 288.04 353.369 302.477C366.241 328.008 376.8 351.556 376.8 351.556C376.8 351.556 385.751 380.503 366.794 396.636L366.788 396.63Z" fill="#EE3A23"/>
<g style="mix-blend-mode:multiply" opacity="0.47">
<path d="M366.787 396.63C357.908 404.188 349.954 409.177 344 412.359C349.615 406.385 354.918 400.145 359.347 393.258C366.435 382.225 371.177 369.234 370.233 356.146C369.685 348.556 367.262 341.239 364.774 334.046C361.126 323.534 357.432 312.918 353.367 302.471C366.239 328.001 376.799 351.549 376.799 351.549C376.799 351.549 385.749 380.496 366.793 396.63H366.787Z" fill="#C1C1C9"/>
</g>
<path d="M392.204 379.825C390.777 389.196 386.198 400.066 375.762 411.694C362.05 426.966 346.989 429.177 339.739 427.162C332.489 425.14 329.766 416.976 329.766 416.976C333.016 415.985 336.28 414.948 339.465 413.787C348.904 410.357 357.646 405.922 363.294 398.912C370.85 389.541 374.974 378.592 376.928 364.741C378.479 353.747 373.248 340.854 373.248 340.854C373.248 340.854 379.671 341.865 384.563 347.415C388.067 351.393 392.243 357.738 392.705 371.478C392.797 374.099 392.653 376.89 392.204 379.838V379.825Z" fill="white" stroke="#54140C" stroke-width="2.2" stroke-miterlimit="10"/>
<g style="mix-blend-mode:multiply" opacity="0.47">
<path d="M392.204 379.825C390.777 389.196 386.198 400.066 375.762 411.694C362.05 426.966 346.989 429.177 339.739 427.162C332.489 425.14 329.766 416.976 329.766 416.976C333.016 415.985 336.28 414.948 339.465 413.787C360.03 420.739 374.889 407.396 385.625 390.819C387.944 387.239 390.158 383.574 392.21 379.825H392.204Z" fill="#C1C1C9"/>
</g>
<path d="M401.376 152.073C402.529 156.899 403.91 161.777 403.532 166.805C402.444 181.764 395.467 196.202 384.094 205.997C385.696 204.151 387.377 202.267 388.817 200.304C396.379 190.653 400.959 178.856 402.425 166.72C402.998 161.888 401.962 156.984 401.376 152.08V152.073Z" fill="#54140C"/>
<path d="M377.228 236.027C374.518 238.674 372.01 241.426 370.134 244.7C368.199 247.934 366.942 251.475 365.555 255.003C366.056 247.308 370.193 239.561 377.235 236.027H377.228Z" fill="#54140C"/>
<g style="mix-blend-mode:screen">
<path d="M168.73 130.104C135.319 123.817 98.1229 119.05 60.6664 146.165C52.2306 152.276 40.3422 164.672 30.3299 179.899C26.9296 185.077 23.5878 190.359 20.3828 195.746C25.8743 179.808 33.1376 164.548 43.5863 151.408C66.8484 122.148 115.19 115.314 157.499 126.719C161.825 127.886 164.411 128.017 168.723 130.097L168.73 130.104Z" fill="#EF986C"/>
</g>
<g style="mix-blend-mode:multiply" opacity="0.47">
<path d="M213.394 266.122C159.574 358.722 122.164 472.614 150.819 579.294C150.819 579.294 120.919 572.466 107.031 566.147C91.2082 558.948 80.7008 551.403 68.9363 538.465C63.2429 532.198 57.9403 525.305 53.0156 517.956C55.2435 518.556 57.4974 519.065 59.7838 519.475C73.5939 521.94 88.8045 520.141 99.846 511.487C116.841 498.164 119.16 473.814 121.089 452.295C124.554 413.67 140.084 376.48 153.158 339.974C168.798 296.302 200.731 246.376 210.333 215.753C220.234 184.184 205.063 155.073 181.599 135.223C211.212 148.709 233.934 171.748 236.188 202.032C237.901 225.026 224.97 246.193 213.388 266.128L213.394 266.122Z" fill="#C1C1C9"/>
</g>
<path d="M128.578 145.689C137.086 162.749 149.091 186.975 157.833 203.597C166.419 220.2 179.506 244.107 188.554 260.735C176.307 243.004 165.331 224.002 155.293 204.921C145.398 185.762 136.115 165.885 128.578 145.689Z" fill="#702216"/>
<path d="M72.3438 146.081C100.824 202.893 130.952 259.118 162.448 314.32C127.564 261.172 97.2735 204.575 72.3438 146.081Z" fill="#702216"/>
<path d="M40.9531 177.584C53.2128 208.671 67.1661 241.022 81.7318 271.117C98.4276 305.595 117.67 340.704 137.408 373.525C139.284 376.564 143.147 382.916 144.991 385.994C142.9 382.962 138.815 376.982 136.77 373.936C96.5776 313.329 63.8765 246.63 40.9531 177.591V177.584Z" fill="#702216"/>
<path d="M20.7734 247.837C31.0137 279.249 43.775 311.692 58.0345 341.52C74.3785 375.677 94.3444 409.913 115.724 441.156C117.769 444.039 121.971 450.064 123.977 452.992C121.723 450.129 117.313 444.489 115.105 441.6C71.851 384.083 39.2346 317.43 20.7734 247.837Z" fill="#702216"/>
<path d="M11.2969 348.576C37.0213 406.49 70.5628 461.007 110.618 510.092C67.5011 463.57 33.3864 408.062 11.2969 348.576Z" fill="#702216"/>
<path d="M30.375 455.568C40.9735 471.415 52.3473 487.02 64.633 501.588C76.8862 516.195 90.2988 530.066 104.089 543.232C73.9873 520.454 47.6766 489.139 30.375 455.568Z" fill="#702216"/>
<path d="M157.382 147.919C129.019 157.551 101.608 170.985 76.7237 187.679C57.4222 200.76 39.2802 215.942 22.9688 232.623C37.8145 214.533 55.8848 198.648 75.1537 185.357C100.057 168.455 128.16 155.158 157.382 147.919Z" fill="#702216"/>
<path d="M195.742 172.146C192.427 173.632 185.893 176.476 182.571 177.904C176.031 180.897 163.152 187.203 156.788 190.529C140.867 198.889 122.536 209.955 107.697 220.109C76.5592 241.518 46.9979 267.602 21.6643 295.637C19.3648 298.304 14.5313 303.801 12.1797 306.449C14.414 303.586 18.8241 297.965 21.0846 295.141C66.7749 239.731 128.119 196.313 195.742 172.146Z" fill="#702216"/>
<path d="M203.539 214.67C200.06 216.163 193.194 219.026 189.709 220.461C182.843 223.487 169.326 229.89 162.649 233.288C145.947 241.831 126.75 253.243 111.233 263.787C95.7617 274.378 78.1344 288.098 64.0898 300.521C50.0518 312.97 34.281 328.862 21.8389 342.909C19.4743 345.719 14.5105 351.517 12.0938 354.308C14.3933 351.295 18.9271 345.387 21.2592 342.42C68.3371 284.166 132.658 238.85 203.539 214.664V214.67Z" fill="#702216"/>
<path d="M195.744 261.955C146.757 289.226 101.067 323.58 61.5452 363.378C48.328 376.688 35.7491 390.63 23.7109 405.075C68.359 344.669 128.263 294.854 195.744 261.955Z" fill="#702216"/>
<path d="M158.752 347.017C137.073 362.537 116.182 379.779 97.128 398.456C78.0675 417.126 60.4076 437.654 44.4219 459.011C72.9735 413.741 112.931 374.621 158.752 347.017Z" fill="#702216"/>
<path d="M130.788 440.55C105.409 455.366 86.3679 478.307 67.4507 500.329C66.3238 501.777 65.1252 503.662 66.0046 505.527C65.4118 504.725 65.3336 503.609 65.5681 502.631C66.3238 499.821 68.6168 497.427 70.1606 495.034C86.1138 472.999 105.161 451.238 130.781 440.55H130.788Z" fill="#702216"/>
<path d="M417.128 469.778C412.77 471.63 409.037 474.662 405.07 477.244C399.657 480.766 393.716 483.472 387.508 485.259" stroke="#54140C" stroke-width="2.2" stroke-miterlimit="10"/>
<path d="M323.005 34.2165C318.295 32.6971 312.139 32.9058 309.586 37.1445C307.293 40.9529 309.162 45.8959 311.644 49.5804C315.989 56.0298 338.639 84.8859 347.759 72.7305C356.722 60.7772 332.848 37.3923 323.011 34.2165H323.005Z" fill="#933421"/>
<path d="M213.393 266.122C159.573 358.722 122.162 472.614 150.818 579.294C150.818 579.294 120.918 572.466 107.03 566.147C91.207 558.948 80.6996 551.403 68.9351 538.465C63.2417 532.198 57.9391 525.305 53.0144 517.956C35.8757 492.387 23.4271 461.431 15.6492 433.168C-3.59368 363.261 -4.25161 288.326 13.7666 218.1C15.6948 210.601 17.851 203.101 20.3915 195.746C25.8829 179.808 33.1462 164.548 43.5949 151.408C66.857 122.148 115.107 115.666 157.508 126.719C165.84 128.884 173.95 131.734 181.598 135.216C211.211 148.702 233.932 171.741 236.186 202.025C237.9 225.019 224.969 246.187 213.387 266.122H213.393Z" stroke="#54140C" stroke-width="2.2" stroke-miterlimit="10"/>
<path d="M254.93 351.23C276.785 373.31 300.249 393.963 325.061 412.659C326.729 413.898 328.383 415.143 330.038 416.409C328.299 415.274 326.566 414.133 324.84 412.972C299.115 395.463 275.443 374.647 254.93 351.236V351.23Z" fill="#54140C"/>
<path d="M277.017 214.872C287.935 215.426 295.882 223.76 303.751 230.321C308.917 234.827 314.083 239.398 318.623 244.556L322.03 248.43C323.144 249.904 325.743 253.086 326.785 254.527C342.478 276.028 351.865 301.225 364.183 324.643C367.349 330.701 370.801 336.603 374.482 342.361C370.717 336.655 367.18 330.799 363.922 324.78C347.78 295.089 335.938 261.57 310.207 238.485C305.184 233.927 299.901 229.538 294.625 225.28C291.967 223.193 289.225 221.237 286.267 219.756C283.329 218.25 280.15 217.324 276.945 217.226L277.01 214.866L277.017 214.872Z" fill="#54140C"/>
</g>
<defs>
<linearGradient id="paint0_linear_713_9720" x1="182.433" y1="164.083" x2="354.514" y2="176.857" gradientUnits="userSpaceOnUse">
<stop stop-color="#C65F32"/>
<stop offset="1" stop-color="#D36C37" stop-opacity="0.1"/>
</linearGradient>
<linearGradient id="paint1_linear_713_9720" x1="214.684" y1="84.1868" x2="246.701" y2="64.3779" gradientUnits="userSpaceOnUse">
<stop stop-color="#C65F32"/>
<stop offset="1" stop-color="#D36C37" stop-opacity="0.1"/>
</linearGradient>
<linearGradient id="paint2_linear_713_9720" x1="299.223" y1="502.383" x2="425.019" y2="529.506" gradientUnits="userSpaceOnUse">
<stop stop-color="#C65F32"/>
<stop offset="1" stop-color="#D36C37" stop-opacity="0.1"/>
</linearGradient>
<linearGradient id="paint3_linear_713_9720" x1="328.622" y1="267.003" x2="395.346" y2="271.956" gradientUnits="userSpaceOnUse">
<stop stop-color="#C65F32"/>
<stop offset="1" stop-color="#D36C37" stop-opacity="0.1"/>
</linearGradient>
<clipPath id="clip0_713_9720">
<rect width="432" height="585" fill="white"/>
</clipPath>
</defs>
</svg>
