<svg width="1278" height="829" viewBox="0 0 1278 829" fill="none" xmlns="http://www.w3.org/2000/svg">
<path d="M1037.88 28.5362C1040.8 30.3251 1044.56 31.103 1046.81 33.9399C1048.36 35.8827 1046.95 35.6265 1045.94 37.491C1048.18 38.4102 1049.64 39.3106 1049.3 41.9855C1050.83 42.2421 1052.6 41.322 1053.91 41.3587C1054.64 41.3786 1057.13 43.5631 1058.78 43.5271C1060.54 43.4893 1061.68 41.9517 1063.26 41.5126C1064.14 41.2623 1064.89 42.8001 1066.22 42.0676L1068.97 48.3214L1064.79 49.6271C1065.52 50.6323 1066.19 51.4524 1065.47 52.6914C1065 53.5136 1056.72 62.9417 1056.12 63.3141C1053.52 64.9111 1049.48 64.6482 1047.94 65.5016C1047.46 65.7714 1044.41 69.7324 1044.43 70.1306C1046.89 73.3078 1046.31 76.1107 1045.97 79.7235C1044.14 81.1292 1041.87 78.1159 1040.54 78.2687C1039.21 78.4215 1038.79 80.7228 1037.79 80.6801C1036.42 80.6243 1033.9 78.9381 1032.27 78.7923C1031.61 89.6158 1039.19 81.142 1040.03 81.6053L1040.59 83.4028C1042.53 81.5004 1042.18 83.247 1042.99 83.2703C1044.45 83.3179 1047.05 82.4628 1048.67 83.954C1049.85 85.041 1053.02 92.9968 1053.35 94.8335C1053.76 97.0218 1053.13 98.5989 1052.53 100.636C1057.49 100.227 1057.46 97.4306 1060.08 94.344C1067.38 93.9187 1076.25 89.3796 1083.29 89.1197C1087.12 88.9806 1089.7 92.4195 1090.25 95.9383L1081.54 105.34L1085.82 106.449L1102.37 144.224C1105.22 147.953 1109.62 150.605 1111.46 154.991L1102.2 157.883C1101.63 158.06 1098.53 164.036 1097.52 164.917L1101.9 178.951L1093.62 177.611L1099.28 187.208L1095.22 190.189C1095.11 190.511 1095.56 194.459 1095.77 194.94C1097.05 197.988 1109.58 205.95 1112.15 209.426L1116.15 209.895L1115.67 206.144C1119.47 204.859 1121.54 203.395 1125.02 205.827C1127.84 207.802 1128.4 209.916 1132.82 210.109L1137.64 207.436L1147.15 210.851C1148.61 212.8 1146.01 216.057 1144.13 216.152C1142.83 216.218 1141.2 213.856 1139.4 215.098C1141.87 216.863 1148.55 223.514 1151.11 223.717C1153.67 223.92 1158.99 222.169 1161.33 224.485C1166.32 229.428 1161.05 231.722 1160.7 233.995C1160.53 235.13 1161.44 238.109 1162.01 239.151C1163.47 241.836 1173.65 243.832 1175.27 246.303C1176.89 248.774 1173.77 249.445 1173.79 251.341C1173.8 252.223 1175.01 256.418 1175.46 257.117C1175.77 257.598 1181.06 258.85 1182.21 259.717C1185.36 262.1 1190.16 273.626 1191.78 277.702C1192.34 279.125 1192.32 281.229 1192.71 282.051C1193.41 283.517 1198.33 282.975 1197.17 286.551L1194.83 287.591C1197.93 287.964 1201.77 296.926 1199.76 298.425C1195.98 300.469 1190.85 295.078 1190.19 291.654L1189.26 293.896C1185.72 293.948 1186.55 292.543 1185.14 291.285C1184.65 290.842 1182.34 291.315 1182.91 288.822C1182.94 288.647 1184.73 286.754 1185.02 286.727C1185.31 286.701 1189.48 289.183 1189.64 289.859L1189.49 287.289L1193.26 286.763L1192.33 285.026L1190.12 285.115L1191.06 281.877L1135.91 270.868C1131.61 269.706 1110.91 260.487 1108.91 257.58C1107.71 255.837 1107.06 252.283 1105.58 250.591C1104.58 249.448 1102.03 249.36 1101.65 249.006C1100.66 248.083 1101.01 246.479 1098.05 246.047C1099.98 243.097 1097.54 241.422 1097.41 239.809C1097.3 238.408 1100.03 236.056 1099.56 234.446C1096.11 229.748 1091.16 224.489 1088.46 219.388C1086.57 215.804 1085.42 209.957 1083.58 206.781C1082.64 205.161 1078.69 202.857 1078.21 201.76C1077.06 199.104 1078.83 193.281 1076.68 190.466C1074.53 187.65 1067.36 188.555 1064.47 187.032C1062.55 186.024 1058.65 181.693 1058.77 179.335C1055.54 179.471 1055.1 184.689 1056.73 186.499C1058.37 188.309 1068.69 190.911 1067.67 194.21C1067.38 195.188 1065.65 196.008 1065.78 197.2C1065.9 198.303 1070.3 204.625 1071.15 206.674C1072.53 210.017 1073.43 211.597 1069.61 213.25C1064.47 215.463 1061.03 209.277 1056.04 208.365L1056.02 212.849C1054.78 213.601 1053.16 213.479 1052.04 214.517C1051.59 214.932 1047.9 224.253 1047.86 225.313C1047.65 231.993 1052.03 233.173 1054.67 238.111C1056.42 241.373 1058.9 251.097 1060.77 252.905C1064.29 256.31 1064.45 249.097 1066.9 248.971C1067.63 248.936 1072.27 250.417 1072.83 250.962C1075.69 253.711 1069.23 260.894 1066.19 261.64C1065.99 262.129 1067.64 269.171 1067.36 270.99C1067.21 271.975 1063.37 277.69 1062.42 277.731C1061.57 277.191 1059.13 276.857 1058.62 276.393C1058.04 275.849 1058.47 273.847 1055.47 273.752L1056.19 271.896C1053.38 273.103 1052.21 276.817 1049.82 278.79C1048.06 280.243 1045.23 281.574 1043.12 282.527L1046.93 290.513C1041.94 291.134 1040.14 296.109 1036.92 299.059C1035.77 300.12 1034.15 298.753 1034.47 301.969C1034.57 302.98 1036.01 304.816 1035.31 305.632L1028.7 307.671L1015.44 327.183C1016.03 329.462 1018.02 331.426 1018.47 333.743C1018.87 335.801 1017.49 338.996 1018.13 341.112C1018.81 343.377 1021.54 345.059 1022.14 347.657C1022.74 350.255 1022.03 355.218 1022.38 358.312C1023.02 363.874 1025.42 370.511 1025.59 375.976C1025.77 381.441 1022.58 389.588 1022.49 395.325C1022.33 405.567 1033.02 392.266 1034.9 391.886C1038.14 393.307 1039.67 395.869 1042.19 398.149L1044.67 393.483L1050.25 395.645L1049.75 383.638C1050.03 382.828 1057.29 376.649 1058.18 376.332C1060.98 375.331 1073.59 373.864 1076.53 374.375C1081.58 375.261 1078.86 379.632 1079.89 380.502L1088.93 380.937C1086.88 379.296 1084.51 376.096 1082.42 374.768C1080.72 373.687 1076.67 373.454 1076.13 372.967C1075.63 372.524 1075.61 371.483 1074.95 370.908C1074.51 370.522 1073.46 370.864 1073.13 370.343C1072.46 369.262 1072.82 367.591 1072.59 366.377C1073.8 366.713 1076.71 366.321 1076.64 364.739C1076.53 362.413 1071.26 362.812 1069.65 361.98C1068.34 361.308 1068.15 360.428 1067.28 359.804C1066.57 359.298 1065.39 359.548 1065.23 359.434C1065.08 359.329 1065.07 356.342 1065.36 355.859C1067.73 351.947 1072.24 356.332 1075.07 357.358C1079.13 358.828 1085.39 358.858 1088.98 360.832C1093.48 363.313 1096.59 368.056 1102.13 370.52C1116.09 376.732 1132.18 378.116 1146.89 381.853L1145.29 383.008L1146.67 383.232C1148.49 384.382 1139.14 386.844 1138.46 387.162C1137.02 387.833 1133.05 390.451 1134.23 392.126C1135.16 393.441 1143.38 402.645 1144.16 403.059C1146.08 404.105 1154.34 405.016 1156.64 404.725C1161.51 404.101 1162.49 401.573 1167.09 404.811C1167.89 405.374 1172.72 410.11 1172.28 410.622C1170.68 411.585 1168.55 410.134 1167.2 410.413C1165.65 410.734 1162.69 413.984 1160.15 413.768C1161.26 415 1164.55 423.555 1163.02 423.995C1159 422.011 1155.03 420.002 1151.78 416.856C1151.04 416.153 1150.85 414.707 1150.36 414.328C1149.68 413.8 1146.01 414.757 1144.4 413.793C1142.42 412.607 1139.68 408.449 1138.19 407.525C1137 406.788 1134.31 406.818 1132.53 405.929C1128.2 403.755 1122 398.227 1117.64 395.269C1115.4 393.753 1112.42 392.863 1110.24 391.29C1108.32 389.91 1104.97 385.595 1103.6 384.902C1103.01 384.606 1094.05 383.57 1093.83 384.007C1097.15 387.263 1099.22 394.074 1102.22 397.066C1103.19 398.046 1105.29 398.484 1106.49 399.395C1110.41 402.392 1124.52 414.044 1126.45 417.544C1129.58 423.211 1129.41 431.871 1131.68 438.078C1133.45 442.926 1137.94 448.511 1139.04 453.356C1140.01 457.615 1138.99 464.397 1139.61 469.16C1141.16 481.11 1147.12 492.908 1142.06 504.772C1141.57 505.928 1135.1 513.578 1134.02 514.179C1130.42 516.166 1123.61 516.624 1120.62 518.645C1119.63 519.315 1116.27 525.162 1115.46 526.68L1114.86 526.867L1113.67 523.365C1111.78 523.85 1109.98 521.491 1107.58 520.287C1104.87 518.932 1098.2 517.305 1096.31 515.975C1095.26 515.233 1095.83 514.138 1095.64 513.968C1095.39 513.739 1093.51 514.058 1092.93 512.994L1094.92 502.435L1109.5 497.081C1107.98 495.417 1104.99 493.926 1103.98 491.896C1101.58 487.076 1101.76 479.684 1099.64 474.927C1098.89 473.246 1095.04 470.777 1094.25 468.644C1093.64 467.012 1094.81 464.46 1094.34 463.578C1093.86 462.697 1090.41 461.6 1090.01 459.914C1085.1 463.953 1080.63 470.008 1078.37 476.03C1077.81 477.516 1078.51 478.833 1077.45 480.54C1076.7 481.729 1067.87 488.646 1066.68 488.847C1063.08 489.451 1054.4 483.878 1051.97 481.026C1048.81 484.288 1043.27 482.366 1040.16 483.554C1038.89 484.044 1037.93 485.7 1036.92 486.061C1035.43 486.591 1032.7 485.571 1030.48 486.35C1028.4 487.078 1024.59 491.169 1023.08 491.012L976.035 472.063C972.118 472.763 968.931 475.633 965.161 476.679C961.861 477.592 957.546 476.495 954.786 477.291C950.817 478.433 946.333 486.362 941.529 485.988L942.688 487.579C938.672 490.774 934.772 494.489 934.05 499.794C937.671 497.831 945.656 505.286 945.492 508.012C945.403 509.554 942.729 511.674 942.273 513.592C941.921 515.046 942.891 526.168 943.402 527.699C944.207 530.109 947.961 531.761 947.944 534.015C944.56 538.205 941.118 540.617 942.061 546.7L922.574 550.224L917.537 555.081C916.264 555.433 914.779 553.701 913.208 554.002C912.46 554.144 903.324 557.528 902.831 557.859C902.418 558.132 897.257 565.237 897.021 565.802C896.466 567.11 896.793 570.298 896.425 570.734C895.854 571.404 891.606 572.849 890.276 573.756C886.137 576.576 882.052 582.636 877.806 585.726L853.065 591.632C852.336 591.689 849.211 587.979 848.687 587.874C847.299 587.586 845.17 589.982 844.796 587.653L843.737 589.341C842.327 589.231 840.161 590.084 838.94 589.784C837.975 589.548 837.375 587.92 835.919 587.916C833.694 587.909 831.023 590.225 828.425 590.807C825.828 591.389 822.114 590.537 819.764 591.199C817.56 591.822 812.914 598.143 810.058 599.658C806.16 601.721 795.117 602.817 791.24 600.75C788.355 599.213 785.269 593.216 783.367 592.899C780.381 592.403 773.224 594.252 769.578 594.434C763.847 594.723 757.436 594.13 751.692 593.788L752.314 598.109L748.212 599.456L749.308 603.027C746.072 602.969 746.331 607.765 747.581 609.669C748.392 610.903 751.662 611.468 752.612 612.515C756.199 616.487 751.128 626.146 746.056 627.01C744.887 627.211 743.888 626.323 742.869 626.353C738.343 626.489 720.286 631.886 717.849 629.77C717.409 629.39 717.389 628.341 717.019 628.037C716.24 627.389 715.57 627.552 715.158 627.242C714.707 626.911 714.705 625.98 714.107 625.787C712.001 625.128 705.558 627.291 702.968 627.202C701.544 627.155 700.619 625.602 699.198 625.961C688.5 629.735 679.958 637.306 670.557 643.428L669.251 642.479C670.501 643.898 665.953 648.727 664.896 649.437C662.639 650.961 657.32 651.39 656.078 652.807C655.344 653.646 656.07 655.845 654.904 656.687C653.873 657.435 650.233 658.015 648.9 657.966C645.706 657.856 642.449 653.387 639.509 652.097L634.518 655.845C631.991 653.147 626.932 655.75 625.346 655.249C624.567 655.001 624.343 653.465 623.598 652.819C623.167 652.449 622.153 652.792 621.812 652.223C619.038 647.643 620.294 651.013 616.994 649.265C613.302 647.305 611.134 640.175 608.887 639.717C602.632 638.433 600.299 644.372 596.509 644.599C595.86 644.638 587.123 643.487 586.668 643.288C584.713 642.444 583.284 639.148 580.7 639.437C578.824 639.957 579.98 644.204 575.515 645.585C571.865 646.719 573.157 644.854 571.757 643.606C563.145 635.947 559.027 622.217 551.456 613.256C550.749 612.421 540.2 603.977 539.484 603.696C537.421 602.885 535.507 605.403 535.036 603.119L534.457 603.3C534.521 605.875 528.932 606.828 526.742 608.502C525.434 609.5 525.281 611.128 523.015 612.078C520.111 613.293 516.691 611.556 513.659 614.378L512.726 611.392L510.332 612.14C508.619 609.175 511.589 608.529 512.424 606.249L505.071 607.89C504.544 602.549 499.131 605.806 495.347 605.002L491.179 600.851C491.251 599.485 493.523 597.169 493.368 596.064C493.266 595.362 492.357 594.695 492.198 593.913C491.916 592.506 493.488 590.973 491.371 589.229L490.807 590.762C484.417 592.987 482.468 583.2 476.153 588.732L474.401 587.319L475.233 589.039C473.35 589.85 471.213 592.641 469.508 593.226C467.106 594.055 456.25 595.499 453.268 595.71C451.671 595.822 446.08 595.045 445.729 595.181C444.756 595.55 444.248 598.226 442.347 598.538C441.045 598.754 437.69 597.606 435.805 597.572C432.557 597.519 427.026 599.535 425.12 597.462C423.973 599.413 416.469 601.285 414.355 601.336C410.263 601.434 406.923 595.065 403.072 604.1C403.381 606.999 409.984 609 409.455 611.525C408.461 616.253 405.27 612.708 402.753 613.002C401.285 613.172 396.773 615.054 396.428 616.381C396.21 617.235 397.368 619.371 396.872 620.614C380.836 625.262 395.393 628.45 396.668 633.288C397.351 635.894 394.854 640.763 392.272 641.478C391.657 641.651 386.317 641.969 385.759 641.861C384.418 641.598 384.077 639.646 382.266 639.557C380.096 639.448 378.981 642.385 375.52 642.09C373.736 641.939 369.097 638.82 367.982 637.431C366.867 636.042 366.673 633.743 366 633.101C365.777 632.889 362.708 632.465 362.062 631.592C358.372 639.023 355.773 632.527 352.95 631.338C351.743 630.83 346.348 631.289 345.166 631.809C343.793 632.408 343.339 634.373 341.536 634.582C338.944 634.887 338.782 632.899 337.567 631.823C336.734 631.087 334.631 631.174 334.512 628.379L329.012 631.795C328.129 630.314 324.731 628.813 324.125 627.756C323.52 626.7 324.789 624.803 324.369 623.374C324.253 623.004 321.118 618.235 320.852 618.01C320 617.299 318 618.114 316.585 617.298C316.139 617.044 316.037 616.151 315.492 615.646C314.275 614.519 312.573 615.175 313.064 612.151C310.758 612.347 309.91 615.548 307.37 614.906C306.21 614.613 301.619 610.135 300.834 608.755C298.368 610.2 294.135 612.931 291.539 613.663C289.989 614.095 288.882 612.92 287.066 613.697C285.372 614.423 284.768 616.683 283.456 617.27C282.145 617.856 279.032 617.439 277.939 618.029C276.205 618.964 275.195 626.621 271.658 627.594C271.309 627.671 266.439 623.726 266.097 623.052C265.399 621.697 265.873 620.173 265.408 618.81C265.106 617.928 262.868 618.234 263.119 615.953C261.879 616.157 263.454 617.297 262.717 618.085C261.931 618.926 257.551 620.832 255.955 621.934C255.297 622.388 251.41 625.451 251.247 625.705C250.774 626.436 251.497 628.393 251.255 629.465C251.013 630.536 246.477 633.808 245.532 633.953C244.837 634.058 245.114 632.425 244.2 633.005C245.399 635.141 243.61 635.313 241.955 636.329L246.716 641.311C245.879 641.926 242.725 645.448 243.739 646.239C253.979 646.455 250.355 657.262 251.988 664.191L248.698 666.333L250.794 670.922C246.068 672.686 241.346 675.112 236.343 676.091C234.182 676.517 229.747 675.687 228.521 676.188C226.381 677.059 222.533 682.115 218.401 681.748L216.567 680.957C218.07 683.437 214.224 684.514 214.277 686.025C214.307 686.9 215.611 688.092 215.926 689.311C216.467 691.423 216.503 694.263 217.168 696.5C216.987 697.724 211.919 703.344 211.01 705.26C210.266 706.843 210.9 714.307 211.321 716.411C212.17 720.661 216.509 726.601 210.811 728.67C208.732 729.424 205.144 728.447 204.872 728.565C204.497 728.728 204.677 731.969 201.546 732.081C200.198 732.129 194.403 728.033 193.681 726.941C192.536 725.228 192.962 720.231 191.155 717.531C190.589 716.686 185.965 714.368 184.697 712.699C184.263 712.127 182.837 709.157 182.889 708.525C183.029 706.666 185.261 706.427 185.429 705.097C183.033 705.275 180.795 701.215 178.728 700.242C177.091 699.469 171.772 699.858 171.359 699.522C170.946 699.186 170.91 698.024 170.22 697.407C169.794 697.029 168.772 697.387 168.416 696.836C167.361 695.18 167.491 691.337 167.261 691.167C167.056 691.015 165.566 691.362 164.819 690.566C164.03 689.718 164.038 688.339 163.412 687.532C160.979 684.379 158.003 685.302 155.01 683.294C152.016 681.286 151.711 679.008 150.033 676.845C148.764 675.216 145.524 673.993 144.235 672.134L140.98 674.095C133.466 670.182 136.131 661.675 133.384 655.041C132.951 653.99 130.185 649.25 129.512 648.332C128.532 647 124.565 644.601 124.337 643.873C123.955 642.649 126.684 640.223 124.083 637.666C122.16 637.638 118.342 637.251 116.782 636.368C115.817 635.817 115.303 632.996 111.996 633.091C110.301 633.142 109.411 634.613 108.204 634.715C106.997 634.817 104.028 632.572 102.209 632.773C99.9803 633.023 97.5153 634.449 95.4039 635.18L86.5423 629.788L86.1693 628.593C88.4859 625.917 92.1428 625.495 93.0331 621.442C92.4429 619.594 90.0625 619.066 89.2598 618.406C88.1376 617.478 88.4353 615.766 85.6869 615.655L85.5446 613.772C87.5493 613.139 89.6055 612.189 91.6937 611.845C94.0421 611.452 97.7496 612.431 99.6991 611.894C101.649 611.357 102.821 608.815 105.708 608.719C105.89 608.715 108.811 610.261 108.947 610.382C109.408 610.788 114.344 616.811 114.578 617.308C115.27 618.789 114.559 622.348 116.217 624.36L112.811 627.81C115.16 629.789 117.284 627.441 119.913 627.59C122.542 627.739 124.562 630.7 125.009 630.81C125.393 630.906 127.312 629.979 129.736 631.673C131.304 632.77 132.131 634.517 133.872 635.304C137.275 631.448 141.553 630.643 146.465 630.715C146.921 629.216 144.631 624.11 145.931 623.698L154.242 626.929C157.133 622.565 159.24 624.588 163.43 624.111C162.114 622.962 159.331 623.622 157.797 622.908C156.938 622.508 156.827 619.907 154.325 620.08C155.145 619.201 156.767 615.686 157.352 615.228C157.836 614.847 166.276 613.161 167.403 613.202C170.229 613.309 172.748 616.717 174.902 615.933C175.574 615.691 178.509 613.568 178.934 612.996C179.839 611.782 179.734 608.695 180.811 607.487C181.769 606.421 183.132 606.376 183.863 605.59C184.435 604.966 184.169 603.358 184.908 602.642C186.263 601.334 189.072 601.367 190.724 600.445C190.979 600.169 189.016 593.506 188.821 593.154C187.646 591.011 179.913 586.839 178.126 584.159C177.226 582.808 176.856 580.053 176.288 579.555C176.062 579.357 171.097 579.197 170.34 578.516C169.013 577.331 167.132 574.688 165.791 573.376C164.82 572.427 163.385 572.03 162.616 570.828C162.192 569.807 164.896 564.781 166.538 564.792C164.396 563.495 165.327 561.565 163.6 559.437C162.32 557.857 159.009 557.561 160.052 554.751C160.402 553.816 161.827 554.118 162.271 553.586C162.562 553.239 162.137 552.068 162.311 551.489C162.803 549.854 167.321 547.951 169.035 547.626L166.374 547.48L168.552 541.884L164.918 543.635C163.829 543.005 161.242 539.632 160.092 539.224C158.559 538.68 155.929 540.374 154.804 540.004C153.933 539.713 153.913 538.224 153.279 537.662C152.689 537.138 150.513 537.097 150.165 534.807C150.042 533.908 154.891 529.267 155.604 527.858C156.481 526.109 155.822 523.077 157.543 522.356C159.827 521.4 160.481 523.555 162.504 522.877C163.537 528.323 168.525 525.703 172.434 524.934L170.756 523.82C170.411 522.381 172.159 521.199 172.111 519.975C172.05 518.5 169.904 516.142 169.626 513.718C169.414 511.929 172.185 502.753 173.302 501.165C174.259 499.804 179.908 495.392 180.107 494.982C180.196 494.804 178.791 492.804 179.61 491.251C175.078 492.352 176.344 491.032 174.423 489.436C173.725 488.861 172.797 489.269 172.112 487.871C170.812 485.222 173.218 484.09 173.005 483.154C170.921 481.793 167.641 477.797 168.209 475.273C168.427 474.313 173.462 470.453 173.552 470.091C173.8 469.102 172.407 467.223 172.456 466.015C173.497 464.923 176.706 464.347 177.401 463.612C177.754 463.233 178.126 458.778 179.577 457.485C181.028 456.193 183.907 457.182 185.795 455.779C186.402 455.328 187.006 452.563 187.809 451.335C188.838 449.762 194.338 443.05 196.319 444.122L197.49 445.67C195.991 443.366 199.819 442.78 201.798 441.185C202.998 440.22 203.774 438.864 204.82 437.763C206.057 437.088 208.849 439.29 209.998 439.443C211.236 439.607 212.489 438.96 213.655 439.107C214.305 439.192 217.317 441.03 217.861 440.611C219.147 439.627 215.33 434.69 216 432.639C219.702 429.759 223.679 427.173 228.352 426.185L229.7 427.082L229.712 425.754C232.1 425.552 233.981 423.726 236 423.095C241.874 421.274 250.853 421.294 256.332 419.215C256.737 419.063 259.751 417.086 259.835 416.895C260.37 415.732 257.521 405.584 258.986 402.97C262.075 401.212 265.328 402.438 267.62 399.493L265.403 396.338C268.556 395.648 268.144 388.81 268.757 388.107C269.26 387.537 271.309 387.402 272.347 386.737C274.067 385.635 275.43 383.283 277.133 382.253C278.445 381.456 280.134 381.512 281.339 380.461C283.496 378.574 286.566 368.321 288.754 366.366C290.942 364.411 296.184 364.615 298.115 362.78C298.387 362.518 300.768 356.229 300.776 355.689C300.813 353.646 299.841 352.212 299.561 350.307C302.225 349.121 305.393 344.258 307.417 343.186C314.675 339.353 325.016 339.158 332.704 341.548C334.671 342.159 341.637 345.594 339.703 348.217C337.662 350.978 335.377 347.523 333.804 348.008C329.264 349.4 339.59 355.724 340.696 356.808C346.659 362.679 344.984 367.935 347.555 374.132C350.448 381.107 355.853 381.582 354.586 392.38C354.496 393.162 351.167 400.867 350.758 401.362C349.377 403.045 342.623 405.85 340.409 405.958C339.511 406.002 326.432 403.979 325.745 403.689C324.349 403.102 321.477 398.67 320.357 397.519C318.82 395.935 316.211 394.528 314.868 392.745C311.986 388.913 312.122 383.45 306.556 381.452C307.263 386.193 309.439 394.375 305.704 398.242C304.233 399.764 302.022 400.323 300.551 402.035C299.628 403.109 295.306 411.853 295.475 412.895C295.629 413.849 297.117 413.955 297.778 414.791C298.222 415.353 298.127 417.736 298.636 418.881C299.437 420.689 300.958 422.246 301.658 424.151L306.061 424.165C305.74 423.033 307.004 421.688 306.936 420.903C306.763 418.965 303.601 418.052 303.224 416.93C302.814 415.721 304.012 412.424 303.373 410.755C306.848 408.785 309.821 407.057 313.715 408.443C314.889 410.377 314.765 414.387 315.665 415.987C316.274 417.075 322.897 423.318 323.874 423.235C325.89 423.058 325.446 413.621 326.66 412.219C327.311 411.471 333.629 408.554 334.819 408.248C336.865 407.727 339.687 408.242 341.97 407.745C347.283 406.583 348.023 403.455 353.364 406.978C355.403 408.321 357.221 410.407 358.499 412.42C359.791 410.155 364.158 405.901 364.963 403.82C365.72 401.86 364.355 399.442 365.01 398.097C365.962 396.128 372.187 392.368 373.61 389.367C374.519 387.451 373.992 384.778 374.333 382.744C374.445 382.093 373.866 381.835 375.113 381.674L386.502 386.638C388.095 390.709 391.317 396.113 387.879 399.881C382.833 399.654 379.79 397.59 375.692 402.455C375.45 403.107 377.307 403.996 377.628 405.423C378.072 407.388 375.987 409.842 380.653 410.279C382.786 410.477 388.464 402.444 391.144 402.486C392.092 402.498 393.452 403.58 394.206 403.181C394.898 402.814 394.733 401.155 396.688 400.466C398.076 399.979 415.114 398.184 416.851 398.31C417.983 398.389 419.864 399.729 420.657 399.415C421.403 399.117 421.874 396.302 422.892 395.702C423.209 395.518 429.597 394.63 430.131 394.66C430.918 394.703 431.861 396.506 433.478 395.66C434.356 395.975 433.176 401.994 432.5 402.749C431.228 404.175 427.628 403.392 428.792 405.546C432.035 404.658 435.014 402.318 438.439 401.91C440.632 401.651 443.773 403.711 446.168 403.363C450.063 402.802 454.679 400.331 458.646 399.452L459.625 401.034L461.483 400.939L462.867 405.331C465.806 405.547 467.488 402.832 469.338 400.969C467.475 398.72 468.703 394.109 467.944 392.353C466.938 390.032 460.918 389.121 462.001 383.86C462.158 383.083 465.932 380.77 466.505 380.651C466.745 380.602 470.162 382.792 470.61 383.406C471.823 385.065 473.004 390.609 473.442 390.878C473.579 390.96 475.523 390.615 476.644 390.953C483.85 393.1 498.351 402.257 503.983 407.406C506.02 409.267 506.933 411.728 508.639 413.771C509.059 414.276 508.627 414.929 509.863 414.333L514.253 408.596C514.227 407.11 511.296 406.433 510.491 404.443C509.854 402.865 510.949 401.271 510.398 400.139C510.238 399.815 508.293 399.695 507.364 399.048C506.376 398.361 503.384 395.539 503.279 394.471C507.937 391.587 510.018 390.046 511.03 384.408L505.865 379.519C507.587 378.633 507.712 376.785 509.202 375.514C511.423 373.621 514.829 372.838 517.099 370.661C520.997 366.92 525.186 352.843 530.123 351.734C531.079 351.521 532.318 351.92 533.291 351.931C531.653 349.729 530.459 348.614 530.736 345.598L536.59 343.795L537.262 345.316C540.159 344.267 540.9 349.725 541.808 351.899C540.364 352.415 538.494 352.39 537.912 354.092C539.408 355.211 542.795 355.982 543.594 357.594C544.053 358.519 544.877 365.059 544.784 366.189C544.58 368.684 540.195 372.355 539.858 374.131C539.66 375.176 541.404 377.463 541.797 379.077C543.484 386.055 537.402 399.989 537.662 406.908C537.78 409.991 540.028 411.419 540.14 414.694C540.164 415.506 537.807 425.314 537.41 426.244C536.449 428.478 526.126 437.713 523.843 438.649C521.996 439.409 510.867 437.563 510.485 438.357C510.718 439.753 510.943 439.906 512.179 440.358C513.415 440.811 527.953 443.205 528.776 443.027C530.697 441.601 530.892 438.911 532.603 437.21C534.587 435.234 538.045 434.134 539.927 432.058C541.809 429.983 543.292 425.665 545.488 423.485L543.618 414.014C544.888 410.924 548.959 409.102 546.674 405.457L544.786 405.646L542.321 399.39L547.437 385.05C546.528 379.514 541.928 373.518 545.92 368.272C547.012 366.837 548.866 366.31 550.2 365.021C553.557 361.771 552.726 358.039 554 353.977C553.817 352.028 550.845 352.858 550.538 350.47C554.107 348.759 557.325 351.024 557.772 354.765L555.483 355.807L557.272 355.681C558.119 355.895 559.549 362.613 559.553 363.929C559.571 367.574 555.196 369.891 557.185 373.471C558.722 376.229 566.651 376.977 569.499 378.624L568.558 375.654L559.965 370.197L559.765 365.278L567.628 367.41C568.084 364.548 566.922 363.24 566.132 360.753L563.525 360.506L567.158 356.421L568.048 356.143L568.634 357.874L570.086 357.421C572.651 361.752 572.72 359.285 576.395 358.819C580.071 358.352 584.749 364.055 587.547 366.131L594.809 364.177C593.185 361.014 589.301 361.296 586.872 359.794C586.651 359.653 583.59 356.965 583.459 356.776C581.772 354.229 579.816 345.283 581.81 342.642C583.803 340.001 596.743 337.925 600.495 337.474L600.995 335.719C596.719 333.358 599.505 337.325 596.09 337.474C594.668 337.538 593.307 334.377 591.345 334.053C591.319 330.299 594.146 331.92 596.449 332.452C597.905 332.791 598.428 332.765 599.423 332.972C603.75 333.855 601.276 335.316 604.401 336.844L612.802 333.669C611.178 330.821 606.968 329.973 607.207 326.247C604.296 328.343 604.314 325.421 603.181 324.398C602.971 324.208 599.893 323.839 600.764 322.367C601.74 320.706 607.453 323.889 607.655 323.486C606.714 316.799 613.809 316.601 617.267 314.283C619.239 312.959 621.484 308.436 623.9 306.77C625.642 305.571 634.683 302.367 634.976 301.836L633.486 297.064L643.644 293.892C643.859 293.824 646.386 295.893 647.316 295.91C647.587 295.918 651.966 295.186 652.261 295.08C653.742 294.533 653.514 292.336 655.095 291.606C656.459 290.977 658.31 291.552 659.73 290.833C659.318 288.465 656.369 288.737 656.268 286.022L664.629 283.411C663.7 281.027 660.81 279.747 661.385 276.991C661.522 276.339 665.298 267.15 665.613 266.691C666.555 265.322 669.748 263.203 671.413 263.267C671.897 263.286 678.292 265.313 678.746 265.591C679.651 266.14 679.084 267.976 680.843 268.193C682.867 268.439 685.972 266.565 687.348 270.028L687.371 274.341C689.253 272.875 689.193 268.987 691.116 268.052C691.953 267.646 701.702 265.368 702.269 265.44L719.008 273.432C720.71 282.49 718.483 290.828 715.492 299.319C718.01 299.11 722.402 299.449 721.846 302.893C723.216 303.376 726.749 298.34 727.192 296.969C726.361 296.154 723.587 296.254 723.075 295.791C722.563 295.328 722.559 294.287 721.909 293.717C721.031 292.962 719.289 294.456 720.114 290.738C720.631 288.427 722.331 288.584 724.484 288.822C729.734 289.411 729.558 292.415 727.915 296.743L733.489 299.23C734.027 299.062 735.776 293.855 736.947 293.07C737.949 292.397 751.495 288.047 752.863 287.915C753.778 290.382 755.014 288.882 755.738 289.416C756.251 289.8 756.198 291.141 756.432 291.303C757.047 291.741 760.335 292.195 761.281 291.867C764.949 290.577 771.287 283.36 775.36 281.478L773.145 269.834C773.338 269.361 781.107 269.91 782.576 269.537C788.255 268.097 787.967 263.861 795.763 265.254C797.881 265.634 808.888 271.976 809.951 273.387C811.071 274.873 809.566 277.591 807.817 278.013C807.571 278.673 820.261 282.955 820.964 282.938C823.28 282.883 827.286 281.462 829.723 280.995L825.246 266.663L837.754 263.982L838.546 256.885C843.043 256.49 847.517 256.691 851.411 253.902C846.786 249.461 850.598 247.038 855.331 245.468C854.281 244.832 851.326 241.331 850.623 241.118C850.37 241.04 849.094 242.684 847.941 242.434L843.348 238.284L845.995 233.014L842.386 229.205C849.747 224.966 854.909 216.583 863.438 214.764L862.8 216.917L865.595 215.395L864.782 216.966L866.162 217.19L865.524 219.343C867.636 217.962 868.053 219.045 869.065 219.305C869.65 219.457 870.409 219.056 870.591 219.156C871.332 219.554 871.057 222.118 872.088 222.543L874.34 218.254L869.122 210.99L873.931 205.109L883.258 202.674L882.62 204.827L885.609 203.906C885.328 205.587 886.8 206.523 888.282 206.965C889.538 206.808 889.772 203.655 891.485 202.739C896.983 199.796 899.321 202.101 903.401 200.997C910.223 199.148 906.594 195.378 907.967 190.394C909.34 185.41 916.843 175.476 921.102 172.809C922.813 171.737 926.285 171.374 926.501 171.142C927.898 169.677 924.061 169.669 923.906 169.278C923.655 167.214 924.635 165.485 926.877 165.421C927.5 165.403 927.804 166.396 928.341 166.563C928.988 166.767 929.603 165.021 930.937 168.472C931.278 169.355 931.025 170.666 931.473 171.26C932.12 172.114 937.893 173.915 939.144 173.302C939.621 173.068 946.765 166.622 947.034 166.164C948.642 163.42 948.465 157.924 949.924 155.187C950.827 153.502 958.204 146.734 957.853 145.612L955.149 136.952L965.698 138.2C968.698 135.447 971.932 133.336 976.007 132.404L974.842 128.527C973.272 128.434 971.114 127.548 969.62 127.864C967.91 128.221 965.886 130.367 964.838 130.308C962.374 130.16 957.337 125.198 955.001 123.909C958.711 120.05 960.574 115.647 965.834 113.329C965.991 112.886 964.844 111.711 964.659 110.785C964.406 109.514 967.956 99.3471 968.833 97.939C971.819 93.1457 989.072 80.4945 994.487 75.4208C998.478 71.6835 1006.9 61.0947 1010.72 58.939C1014.07 57.0398 1026.1 58.8534 1030.28 56.4672C1030.19 54.1543 1026.1 56.2255 1025.53 55.9832C1025.58 53.5184 1024.74 53.182 1022.55 52.6614C1025.49 48.532 1025.44 45.6422 1024.2 40.8001L1036.74 28.8925L1037.94 28.5194L1037.88 28.5362ZM1051.35 105.515L1050.74 101.207L1047.02 103.746L1047.87 106.691L1051.35 105.515ZM235.204 438.531C235.235 438.632 234.155 439.055 233.667 439.948C232.237 442.59 230.775 445.315 229.677 448.116C233.199 445.417 235.11 448.975 237.574 448.763C239.75 448.575 241.649 447.142 243.932 447.609C242.24 444.605 245.732 443.448 246.056 441.84C246.499 439.65 244.895 437.201 244.673 435.252C244.482 433.568 246.591 431.402 244.681 429.023C240.833 429.779 237.328 430.139 233.94 432.364L232.404 429.567L235.204 438.531ZM277.894 430.453C276.721 431.147 274.533 430.67 273.635 431.423C273.074 431.893 268.768 439.471 268.301 440.64C266.066 446.286 269.423 445.703 269.228 449.127C269.173 450.022 268.119 450.319 267.989 450.7C267.924 450.891 268.679 451.337 268.602 451.571C268.488 451.921 266.955 451.777 267.969 453.197C273.464 451.776 271.524 447.308 272.806 443.5C273.242 442.21 274.517 440.061 275.254 438.789C276.995 435.781 280.224 434.366 277.892 430.447L277.894 430.453ZM705.297 317.251C710.659 315.301 713.04 310.625 717.263 307.274L717.607 306.551C717.064 305.757 714.676 303.002 713.571 303.826L705.295 317.246L705.297 317.251ZM566.89 426.029L563.082 422.315C564.595 417.359 567.878 415.049 564.257 409.626C563.95 409.165 557.854 405.851 557.282 405.781C555.237 405.528 552.671 407.136 550.63 407.525L556.504 407.066C557.26 407.997 558.838 407.51 559.291 407.847C559.539 408.032 562.881 412.291 563.141 412.767C565.84 417.777 557.867 423.308 563.391 427.502L566.89 426.029ZM829.597 513.747C823.424 514.842 826.289 523.281 826.758 527.742L825.381 527.51C825.774 528.305 826.176 528.711 826.201 529.673C826.489 539.638 823.09 547.477 820.255 556.549C819.441 559.15 819.886 561.351 817.757 563.976C822.771 563.976 822.243 559.808 824.364 557.704C827.041 555.045 830.635 554.821 831.17 549.273C831.279 548.111 830.538 546.789 830.672 546.275C830.807 545.761 833.063 545.22 833.611 543.555C834.329 541.384 832.363 540.503 832.294 538.919C832.234 537.489 835.87 535.069 835.077 531.292C834.665 529.343 833.26 528.897 832.616 527.505C830.52 522.956 829.519 518.746 829.595 513.741L829.597 513.747ZM807.328 580.991C807.943 577.043 813.627 575.622 816.113 572.354C818.021 569.858 818.103 567.119 817.154 564.164C815.274 565.806 814.775 569.456 813.617 571.181C812.639 572.646 808.636 576.492 807.124 577.633C805.321 578.996 802.571 579.383 802.181 581.281L806.371 579.985L806.131 581.358L807.32 580.987L807.328 580.991Z" fill="white"/>
<path d="M524.581 298.486C524.85 298.172 531.467 294.827 531.984 294.803C534.177 294.708 538.046 297.865 538.759 300.126C540.01 304.108 537.765 306.238 534.447 308.395C532.251 309.822 527.834 311.608 525.257 312.57C518.67 315.027 507.533 316.848 501.951 319.837C500.076 320.842 499.581 324.673 498.417 325.247C497.252 325.82 494.564 325.375 493.451 325.946C492.581 326.394 492.216 328.206 490.957 328.37C489.919 328.511 488.335 327.006 487.042 327.757C487.733 329.508 487.667 331.226 486.669 332.836C485.669 333.935 484.492 332.519 483.486 332.152L483.341 334.813L479.396 334.734L480.144 337.129C476.26 336.821 477.149 341.178 476.502 341.563C474.222 342.931 471.265 342.694 468.758 342.645C471.291 348.926 465.776 349.508 462.463 352.582C454.829 359.659 460.228 369.201 460.723 377.901L453.821 378.759L453.025 376.484C451.698 376.224 450.086 377.002 448.814 376.391C448.443 376.211 442.917 371.298 442.655 370.901C441.583 369.296 442.064 367.35 441.197 365.667L439.604 366.82L438.207 362.347L441.278 361.709C439.285 358.831 435.494 358.194 437.521 354.001C439.548 349.809 442.172 351.349 445.102 350.008C447.528 348.896 451.315 345.662 449.15 342.864L453.849 341.331L453.419 337.604C458.507 338.027 461.064 338.913 463.274 333.543L460.334 332.482C460.157 328.788 463.653 329.951 466.041 329.034C466.83 328.729 473.197 324.833 473.521 324.423C474.294 323.455 473.75 321.737 474.009 321.433C474.657 320.693 476.965 321.073 477.609 319.568C478.075 318.479 477.291 315.151 477.413 313.717C477.643 313.383 480.922 315.256 482.033 314.889C482.824 314.629 483.212 313.374 484.08 312.965C485.715 312.199 487.339 312.13 489.057 311.083C490.609 310.133 492.904 306.591 494.349 306.074C495.664 305.604 498.165 306.54 499.609 306.063C501.271 305.511 501.977 303.069 504.381 302.665C506.213 302.361 509.258 304.452 511.023 304.372C512.522 304.304 523.032 301.67 523.879 300.855C524.564 300.195 524.257 298.856 524.581 298.486Z" fill="white"/>
<path d="M614.588 225.44C615.117 225.623 615.821 225.088 616.38 225.49C617.02 225.946 618.536 228.868 618.728 228.939L624.756 222.028C628.87 222.041 636.639 227.545 637.831 231.172C638.826 234.19 633.511 234.736 636.153 238.578L637.146 237.605L638.688 240.401L640.205 237.974L646.553 240.376C647.546 243.914 649.582 246.719 646.923 249.955C650.975 251.01 651.8 258.624 647.148 259.113C644.121 259.43 636.405 256.216 633.095 255.356C631.855 255.035 629.943 255.442 629.281 255.21C628.506 254.934 628.516 253.581 627.837 252.98C627.158 252.379 625.421 253.158 625.428 250.429C622.885 253.557 613.745 247.484 614.3 245.377C615.247 241.778 622.685 243.997 623.195 243.261L618.413 238.567C618.946 235.405 621.6 233.39 619.691 229.942L612.338 231.583L611.351 228.654L609.491 228.868C607.808 225.978 610.005 224.178 612.927 224.301C613.691 224.331 614.031 225.254 614.582 225.442L614.588 225.44Z" fill="white"/>
<path d="M819.911 195.777C820.12 195.797 823.415 197.573 823.618 197.74C826.014 199.705 826.051 203.095 827.143 205.795L824.748 206.543C826.458 207.818 827.391 208.392 826.413 210.657C825.12 213.65 822.555 212.091 821.543 213.07C820.134 214.434 820.938 219.23 816.19 219.035L817.301 222.863L816.685 224.039C813.186 225.532 809.272 226.413 805.482 225.65C800.424 220.977 794.25 218.127 794.049 210.18C798.328 206.504 802.286 208.139 807.085 208.77C806.729 204.988 803.129 206.387 803.055 202.163C804.689 201.037 807.479 201.575 808.895 200.988C810.311 200.401 811.155 197.817 812.991 197.126C813.531 196.925 819.559 195.743 819.911 195.777Z" fill="white"/>
<path d="M654.662 243.277L655.224 245.075L656.827 243.912L657.958 247.491C659.185 242.585 667.481 246.608 668.335 249.133C668.543 249.756 669.593 255.301 669.607 255.848C669.721 260.348 663.463 261.044 660.864 262.754C659.657 263.55 655.516 269.156 654.783 268.802C654.257 266.259 649.897 265.143 649.607 262.389C649.436 260.791 651.872 257.343 651.772 255.493C651.64 252.991 649.921 249.628 650.01 246.828L654.668 243.275L654.662 243.277Z" fill="white"/>
<path d="M955.022 70.3848C960.542 73.2818 957.476 74.9669 957.246 78.932C957.104 81.4147 959.029 89.695 956.028 89.8457C954.942 89.8964 948.025 86.3218 946.864 85.4785C946.458 85.1858 943.573 82.6654 943.448 82.4751C939.178 76.127 947.652 66.5127 955.022 70.3848Z" fill="white"/>
<path d="M841.213 180.878C841.7 181.053 842.383 180.532 843.007 180.934C847.756 183.967 846.476 188.83 844.365 193.088L830.821 197.318L824.923 192.37C823.782 190.629 827.42 191.426 827.766 190.898C827.405 187.223 829.128 188.166 830.562 186.859C831.301 186.183 831.521 185.124 832.147 184.693C834.687 182.943 838.642 184.041 839.608 179.623C839.984 179.525 840.609 180.667 841.213 180.878Z" fill="white"/>
<path d="M831.394 221.502L834.012 216.372C840.008 215.128 846.256 214.147 848.312 221.357C844.529 224.629 840.67 227.781 835.793 229.311L834.86 226.325C833.01 227.703 832.284 226.094 831.666 226.045C830.933 225.986 829.831 226.821 828.986 226.574C828.142 226.326 828.092 224.782 827.462 224.232C827.164 223.971 826.267 224.185 825.615 223.524C824.963 222.862 823.489 220.222 823.778 219.28L825.321 218.26C827.462 218.818 830.809 219.063 831.398 221.514L831.394 221.502Z" fill="white"/>
<path d="M415.667 391.247C413.22 391.932 409.968 393.794 407.508 393.265C406.58 393.063 401.739 389.443 401.328 388.798C400.95 388.195 400.953 384.661 401.253 384.194C401.553 383.726 406.081 381.099 406.865 381.071C407.176 381.059 412.164 383.053 412.686 383.382C415.32 385.037 415.755 388.316 415.667 391.247Z" fill="white"/>
<path d="M814.838 234.054C816.249 234.249 820.379 237.796 818.51 239.494C814.862 242.817 810.289 237.894 807.576 235.503C807.791 235.206 814.467 234 814.838 234.054Z" fill="white"/>
<path d="M578.496 350.5C580.175 351.634 580.492 354.432 581.169 356.246C580.149 358.583 578.141 357.526 576.628 356.459C573.933 354.567 571.405 352.348 574.023 349.21C574.238 349.123 578.155 350.266 578.495 350.494L578.496 350.5Z" fill="white"/>
<path d="M801.009 227.047C796.511 230.17 792.031 224.012 789.253 220.907C793.679 219.99 799.254 222.942 801.009 227.047Z" fill="white"/>
<path d="M587.916 317.348C587.5 316.98 584.836 317.393 584.831 315.572C588.442 310.092 598.099 319.313 591.288 319.979C587.84 320.315 588.105 317.512 587.922 317.346L587.916 317.348Z" fill="white"/>
<path d="M678.468 253.139C680.369 253.79 681.711 254.898 681.9 257.055L677.011 257.834C675.846 254.797 672.729 255.626 672.509 252.129C674.411 252.636 676.62 252.51 678.47 253.145L678.468 253.139Z" fill="white"/>
<path d="M621.731 288.958C618.544 289.37 618.47 288.043 616.678 286.649C615.518 285.747 613.34 286.728 615.621 283.014C619.091 284.493 621.229 284.454 621.731 288.958Z" fill="white"/>
<path d="M815.905 174.809C818.149 175.321 819.469 177.071 818.81 179.453L815.942 180.447L814.959 177.51L813.216 178.015L812.898 174.837C813.857 174.655 814.951 174.589 815.903 174.803L815.905 174.809Z" fill="white"/>
<path d="M577.007 326.701C578.544 326.837 581.094 330.235 580.663 331.857L579.386 332.846C576.911 332.099 571.462 326.217 577.007 326.701Z" fill="white"/>
<path d="M643.609 280.623C644.779 281.011 646.344 279.978 646.582 283.175C646.939 287.927 641.126 282.264 639.782 281.674L642.026 279.374C642.459 279.291 643.023 280.426 643.607 280.617L643.609 280.623Z" fill="white"/>
<path d="M306.21 404.036C307.349 405.082 307.885 408.664 305.528 408.693L301.259 404.468C301.255 402.254 305.683 403.545 306.21 404.036Z" fill="white"/>
<path d="M592.582 307.462C592.715 307.466 593.849 308.495 595.011 308.165C595.967 310.304 596.4 313.387 593.269 312.261C593.306 309.235 589.468 310.879 590.015 308.034C590.898 307.693 591.61 307.411 592.582 307.462Z" fill="white"/>
<path d="M640.633 289.143C639.849 288.582 637.433 289.369 639.101 286.816C640.949 286.167 645.514 290.142 643.148 291.444C641.628 292.286 641.494 289.759 640.633 289.143Z" fill="white"/>
<path d="M604.132 327.378C604.463 327.642 604.293 329.406 605.032 329.883L603.64 330.652C602.348 330.479 602.351 328.728 601.699 328.151C601.156 327.672 599.513 328.349 599.463 326.72C599.867 326.043 603.781 327.094 604.136 327.37L604.132 327.378Z" fill="white"/>
<path d="M1219.84 372.353C1220 372.374 1222.61 373.928 1222.72 374.056C1226.21 378.132 1222.33 380.458 1221.99 383.964C1221.69 387.107 1223.05 391.447 1223.67 394.589L1221.89 395.147C1221.9 392.644 1219.9 392.995 1219.29 392.469C1217.81 391.171 1214.29 382.955 1214.16 380.976C1215.49 378.223 1219.49 376.041 1216.96 373.09C1217.9 372.867 1218.83 372.215 1219.85 372.357L1219.84 372.353Z" fill="white"/>
<path d="M1110.87 189.508C1115.58 190.769 1114.49 198.745 1115.9 202.771C1112.93 201.173 1109.1 200.356 1106.33 198.548C1105.44 197.973 1105.48 197.313 1104.86 196.714C1104.34 196.213 1103.01 196.132 1102.69 195.444C1102.35 194.685 1102.92 190.155 1103.71 189.606C1104.74 188.893 1109.5 189.142 1110.88 189.512L1110.87 189.508Z" fill="white"/>
<path d="M1221.38 355.078C1222.34 355.468 1223.77 355.539 1224.49 356.324C1225.15 357.049 1227.13 361.215 1227.39 362.274C1227.57 363.018 1227.25 368.097 1227.04 368.624C1225.51 372.346 1223.77 368.267 1223.14 367.724C1222.4 367.091 1221.42 367.626 1220.74 366.351C1219.61 364.226 1216.7 355.46 1219.24 354.038C1220.27 353.474 1220.72 354.8 1221.39 355.076L1221.38 355.078Z" fill="white"/>
<path d="M1180.3 193.068C1179.57 195.197 1171.42 196.872 1169.31 196.64C1167.96 196.492 1163.24 192.393 1163.61 191.801C1169 189.141 1177.34 185.531 1180.31 193.06L1180.3 193.068Z" fill="white"/>
<path d="M1218.1 398.52C1218.24 398.554 1220.53 399.771 1220.61 399.889C1222.84 402.989 1220.55 404.386 1220.78 406.308C1221 408.23 1222.2 409.849 1222.25 412.088C1222.27 412.928 1222.55 413.56 1221.43 413.63C1220.7 412.638 1217.92 411.335 1217.45 410.697C1215.29 407.85 1216.07 404.52 1213.53 401.965L1213.73 400.623C1215.2 399.254 1216.03 398.005 1218.1 398.52Z" fill="white"/>
<path d="M1218.08 337.449C1220.97 335.498 1227.09 339.106 1226.56 342.882L1221.93 345.038C1220.53 343.24 1214.45 339.893 1218.07 337.451L1218.08 337.449Z" fill="white"/>
<path d="M1183.43 179.717L1183.19 181.082L1185.7 181.066C1187.34 183.954 1184.13 185.102 1182.63 187.575C1182.36 187.744 1179.35 186.943 1179.22 186.826C1179.04 186.66 1179.42 183.701 1176.41 184.518C1175.44 183.754 1182.11 179.409 1183.43 179.717Z" fill="white"/>
<path d="M1204.88 301.766C1205.44 301.899 1206.13 302.662 1207.36 302.377C1208.87 305.386 1206.87 307.398 1204 308.222C1202.08 305.736 1198.52 305.096 1199.12 301.304C1201.08 300.995 1202.98 301.304 1204.88 301.76L1204.88 301.766Z" fill="white"/>
<path d="M1212.54 319.574C1212.8 319.599 1216.53 321.704 1216.85 322.359C1218.04 324.806 1216.06 327.26 1213.57 325.683C1213.17 325.428 1209.84 322.713 1209.72 322.487C1209.05 321.216 1211.02 319.435 1212.54 319.574Z" fill="white"/>
<path d="M1218.37 329.387L1218.13 330.754L1220.43 330.665C1221.08 331.906 1222.01 335.494 1220.14 336.072C1217.55 336.867 1217.77 333.785 1217.61 333.649C1216.88 333 1212.96 333.871 1215.58 329.708L1218.38 329.393L1218.37 329.387Z" fill="white"/>
<path d="M1227.7 397.406C1229.95 398.98 1233.99 400.155 1232.02 403.713L1229.88 404.166C1229.4 401.976 1226.84 401.668 1226.47 401.168C1225.46 399.831 1225.37 397.079 1227.7 397.406Z" fill="white"/>
<path d="M744.5 519L751.861 501H737.139L744.5 519Z" fill="#312D2D"/>
<path d="M893 437L899.928 419H886.072L893 437Z" fill="#312D2D"/>
<path d="M999 385L1005.93 367H992.072L999 385Z" fill="#312D2D"/>
<path d="M990 205L996.928 187H983.072L990 205Z" fill="#312D2D"/>
<path d="M781 419L787.928 401.75H774.072L781 419Z" fill="#312D2D"/>
<path d="M621 463L627.928 445H614.072L621 463Z" fill="#312D2D"/>
<path d="M647.5 545L654.861 527H640.139L647.5 545Z" fill="#312D2D"/>
<path d="M557 514L563.928 496.75H550.072L557 514Z" fill="#312D2D"/>
</svg>
