<svg width="263" height="87" fill="none" xmlns="http://www.w3.org/2000/svg"><path d="M96.205 49.642a1.145 1.145 0 01-.243-.254c.598-3.623 1.063-7.362 1.77-10.98.172-.882.02-1.517.971-1.602.815-.072 2.684-.105 3.469 0 .131.017.267-.01.357.125l1.187 7.357 4.172-7.475h4.172c.05 0 .214.262.234.357l-2.113 12.318a1.205 1.205 0 01-.267.157h-3.516l.832-5.98-2.915 5.484c-.317.68-2.446.64-2.816.319-.157-.137-.236-.364-.293-.566-.462-1.64-.496-3.894-.77-5.613-.238.047-.195.264-.238.436-.4 1.644-.413 3.762-.863 5.327-.043.152-.28.59-.389.59-.591 0-2.324.125-2.741 0zm-14.423 3.986c-.071-.022-.212-.259-.233-.356l2.743-16.204c.146-.202.37-.232.59-.257.519-.062 2.39-.087 2.858.005.147.03.297.102.367.249.11.227-.246.887.11.745.164-.065.51-.436.772-.563 1.947-.952 4.474-.767 5.845 1.126 1.676 2.315.548 7.29-1.19 9.346-1.7 2.013-5.468 3.266-7.333.931-.135.088-.133.187-.166.324-.315 1.206-.286 3.042-.66 4.169-.058.169-.346.49-.485.49-.634 0-2.808.133-3.218 0v-.005zm9.316-13.66c-.75-.763-2.288-.312-2.939.393-1.354 1.473-2.34 6.75.763 6.653 2.35-.075 3.678-5.522 2.176-7.046zm-33.126-8.11c.608-.127 3.497-.125 4.136-.023.436.07.684.37.741.818-1.041 5.95-1.923 11.936-2.977 17.883-.146.815-.389 3.023-.742 3.586-.193.309-.481.463-.827.505-.706.088-3.533.12-4.172-.005-.47-.092-.622-.61-.538-1.05 1.094-5.993 1.94-12.035 3.018-18.03.188-1.048.245-3.45 1.36-3.684zm124.649 4.952c.057.02.14.138.162.208l-1.056 6.894 4.825-7.101h3.814c.017 0 .219.2.243.254l-1.978 12.134c.004.132-.217.443-.291.443h-3.457c-.071 0-.291-.364-.236-.51l.951-6.344-4.648 6.854h-3.934c-.226-.16-.193-.426-.181-.68.169-3.59 1.662-7.886 1.941-11.558.002-.152.305-.593.386-.593h3.459zm33.136 0c.033.01.222.205.243.255-.598 3.623-1.061 7.362-1.771 10.98-.057.294-.203 1.288-.348 1.443-.329.353-2.966.047-3.588.157l-.258-.878c-2.612 2.156-7.115 1.162-7.447-2.68-.252-2.918.73-6.613 3.13-8.312 1.385-.981 3.609-1.515 5.173-.74.212.105 1.018.86 1.111.77-.033-.304.217-.997.537-.997.679 0 2.741-.142 3.218 0v.003zm-6.642 2.764c-2.853.404-4.129 8.72-.004 7.23 1.759-.635 2.391-3.852 2.169-5.56-.146-1.122-1.094-1.822-2.162-1.67h-.003zM82.378 36.81c.105.036.286.38.262.534-.808 3.682-1.068 7.674-1.904 11.326-.046.2-.122.703-.232.82-.329.354-2.965.047-3.587.157l-.258-.877c-2.613 2.155-7.116 1.161-7.447-2.68-.248-2.873.71-6.563 3.058-8.263 1.402-1.014 3.645-1.584 5.245-.79.212.105 1.018.86 1.11.77-.032-.303.218-.996.537-.996h3.218-.002zm-6.641 2.764c-2.854.404-4.13 8.72-.005 7.23 1.76-.635 2.39-3.852 2.17-5.56-.146-1.122-1.095-1.822-2.163-1.67h-.002zm50.028-2.764c.129.038.346.37.293.541-.87 3.708-1.032 7.913-1.933 11.571-.107.439-.141.658-.618.725-.476.067-2.543.077-2.982-.01-.195-.04-.331-.135-.403-.331l.043-.66c-2.784 2.391-7.249 1.297-7.566-2.806-.129-1.662.302-3.822.968-5.337 1.416-3.219 5.597-5.22 8.443-2.696.058-.284.205-.996.539-.996.677 0 2.742-.142 3.218 0h-.002zm-6.644 2.769c-2.861.434-4.11 8.817.095 7.205 1.764-.675 2.289-3.979 2.07-5.663-.141-1.084-1.166-1.692-2.165-1.542zm48.66 4.581c-.41 2.806 1.805 4.114 3.695 1.932.42-.484.105-.675 1.028-.795.383-.05 2.879-.042 3.022.114-.179 1.899-2.083 3.553-3.747 4.111-1.814.61-4.956.64-6.503-.687-2.511-2.15-1.145-8.235.953-10.345 2.579-2.596 9.6-2.915 10.122 1.762.06.533.103 3.911-.524 3.911h-8.046v-.002zm4.768-2.74c-.131-3.007-3.45-2.324-4.172 0h4.172zm-13.469-1.37h-3.04c-.205.18-.209.47-.262.722-.574 2.768-.851 5.624-1.375 8.404-.024.115-.356.466-.389.466h-3.457l-.164-.207 2.081-12.365c.045-.07.191-.26.229-.26h10.727c.16 0 .236.5.167.669-.922 3.602-.982 7.913-1.928 11.443-.046.17-.215.72-.384.72h-3.457l-.159-.207 1.411-9.385zm-14.106-3.44c4.515 0 5.734 2.922 4.868 7.18-.682 3.36-2.636 5.825-6.076 6.106-5.238.429-7.052-2.367-5.8-7.556.896-3.718 3.294-5.728 7.008-5.73zm-.822 2.969c-2.248.341-3.621 5.832-1.752 7.13 1.554 1.08 3.015-.994 3.454-2.356.501-1.548.682-5.135-1.702-4.774z" fill="#fff"/><path d="M131.367 36.81l.16.208-.51 4.405.979-.03 3.157-4.36c.252-.167.445-.2.736-.227.52-.052 2.167-.082 2.627.007.699.137.01.947-.2 1.286-.436.703-3.421 4.545-3.43 4.88l2.2 5.794c.193.65.036.924-.596 1.001-.598.072-2.539.087-2.985-.249-.658-.493-1.497-4.074-2.024-4.986l-1.02-.07-.856 4.712c-.023.115-.355.466-.388.466h-3.516l-.11-.543c.732-3.575 1.101-7.24 1.814-10.816.1-.5.11-1.138.498-1.472h3.457l.007-.005zm64.723 0c.1.03.264.258.267.407.014.588-.83 4.051-.684 4.203l1.13-.127c.488-.605 2.956-4.482 3.459-4.482h3.277l-.135.792-3.772 5.267 2.277 6.18c.102.577-.374.68-.808.722-.596.057-2.437.087-2.871-.252-.724-.568-1.392-4.248-2.162-5.09-.295-.02-.848-.152-.972.19-.291 1.337-.367 2.835-.675 4.153-.062.264-.143.867-.482.867h-3.337c-.079 0-.365-.37-.274-.524.858-3.702 1.073-7.768 1.94-11.44.062-.265.143-.868.482-.868.713 0 2.827-.147 3.337 0l.003.003zm-141.663-.248l-2.145 13.33c-1.717-.088-4.127.63-4.282-1.912l1.654-9.617c.413-.87 1.354-1.801 2.33-1.801h2.443zm7.509 13.329l2.282-13.312c1.551.018 3.997-.478 4.164 1.79l-1.59 9.684c-.236.722-1.313 1.838-2.055 1.838h-2.8zm126.547-18.646c.322.291 1.216 1.657 1.089 2.113-.295 1.061-3.418 1.781-4.35 1.786-.983.008-4.105-.68-4.427-1.786-.177-.603 1.006-2.272 1.521-2.355.35-.055 1.184.603 1.678.755.803.247 1.468.292 2.286.033.744-.235 1.488-1.196 2.2-.549l.003.003zm-5.564 22.259l.937.017.851 2.474c.419-.181.951-2.381 1.087-2.474l.937-.017v3.363h-.716v-2.242l-.846 2.043a.386.386 0 01-.694 0l-.846-2.043v2.242h-.715v-3.363h.005zm30.335 0c.851.157 1.187 1.35.179 1.557.121.274.765.192.798.892.019.404-.369.914-.739.914h-2.086v-3.363c.563.072 1.316-.1 1.848 0zm-1.133 1.37c1.652.257 1.65-1.006 0-.75v.75zm0 1.495c1.919.28 1.915-1.29 0-.996v.996zm-10.965-2.865v2.242c.483-.324 1.067-2.16 1.489-2.242.203-.04.446.02.656 0v3.363h-.715v-2.242c-.463.22-1.106 2.078-1.335 2.215-.174.105-.587-.013-.811.027v-3.363h.716zm-35.878 1.869h-2.384c.007.705.553 1.193 1.228.971.164-.055.867-.78 1.034-.164-.82 1.427-2.929.852-2.982-.875-.079-2.464 3.268-2.471 3.104.068zm-.715-.499c-.122-1.166-1.483-1.153-1.669 0h1.669zm-23.72.499c.031.732.386 1.14 1.13.996.269-.052.317-.316.713-.381.834-.135.238.568-.107.76-1.154.64-2.427-.038-2.458-1.438-.057-2.506 3.349-2.437 2.989.063h-2.267zm1.669-.499c-.193-1.19-1.462-1.138-1.669 0h1.669zm66.119-1.34c2.84-.61 2.668 3.8.241 3.43-1.695-.256-1.68-3.121-.241-3.43zm.36.488c-.975.194-.941 2.571.322 2.35.997-.177.908-2.594-.322-2.35zm-4.856-.518h.716l.069 1.373 1.242-.003v-1.37h.715v3.363h-.715l-.069-1.372-1.242.002v1.37h-.716v-3.363zm-13.945 3.363l-.589-.012c.031-.755-.324-.117-.653.022-.902.381-1.86-.41-1.438-1.378.372-.854 2.386-.256 1.907-1.248-.369-.767-1.309.367-1.85.125.112-1.206 2.623-1.099 2.623-.187v2.678zm-.716-1.62c-.419.165-1.177.06-1.315.564-.182 1.096 1.783.737 1.315-.563zm6.914 1.62l-.589-.012c.031-.755-.324-.117-.653.022-.901.381-1.86-.41-1.438-1.378.372-.854 2.386-.256 1.907-1.248-.369-.767-1.308.367-1.85.125.112-1.206 2.623-1.099 2.623-.187v2.678zm-.715-1.62c-.42.165-1.178.06-1.316.564-.182 1.096 1.783.737 1.316-.563zm-40.884 1.62l-.589-.012c.029-.805-.391-.027-.715.082-.894.302-1.821-.528-1.304-1.487.381-.708 1.75-.36 1.885-.775l-.05-.424c-.655-.75-1.101.35-1.849.125.112-1.206 2.622-1.099 2.622-.187v2.678zm-.866-1.597c-.586.19-1.425.075-1.106.98.687.548 1.617-.142 1.259-.945l-.153-.035zm15.646-1.766h.596v1.37l1.361.003.069-1.373h.715v3.363h-.715v-1.37l-1.318.055-.112 1.315h-.596v-3.363zm-11.085 0v3.363h-.715v-2.74h-1.431v2.74h-.596v-3.363h2.742zm14.661 0h.715v1.121c1.111-.124 2.386.16 1.957 1.614-.067.225-.529.628-.706.628h-1.966v-3.363zm1.997 1.898l-1.282-.157v.997c.715.005 1.652.212 1.282-.842v.002zm-27.982-1.898h.716v1.121c1.065-.214 2.553.341 1.938 1.714-.072.162-.592.528-.687.528h-1.967v-3.363zm1.998 1.898c-.245-.249-.946-.13-1.282-.154v.997c.529.216 1.945-.175 1.282-.843zm-9.626-.777c-.811.214-.658-.26-1.004-.508-1.206-.86-1.8 2.593-.155 2.23.477-.105.482-.822 1.159-.6-.1 1.19-1.361 1.546-2.258.926-.801-.553-.822-2.016-.245-2.736.658-.82 2.501-.593 2.503.686v.002zm39.072-1.094c.112.068.579 1.33.736 1.219.329-.658.42-1.468 1.312-1.246l-.916 1.682.916 1.679c-.99.291-.835-.778-1.488-1.121-.355.628-.381 1.348-1.251 1.12-.151-.134.827-1.362.827-1.68 0-.32-.975-1.548-.827-1.683.197.03.531-.07.691.025v.005zm20.525 1.714c.422-.04.594.297.603.69.038 1.336-2.479 1.423-2.629.058.806-.212.822.66 1.712.354.603-.69-.124-1-.761-1.042v-.436c1.349.262 1.132-1.275.026-.787-.181.08-.262.503-.858.286.017-.892 1.068-.979 1.721-.864.827.147 1.066 1.25.186 1.49v.251zm-30.514 1.622h-.596v-.996c-1.828.216-2.214-.588-2.028-2.367h.598c-.086 1.111-.007 2.065 1.318 1.69l.112-1.69h.596v3.363zm-6.794-3.363v.623h-1.072v2.74h-.716v-2.74h-1.072v-.623h2.86zm-15.376 0v.623h-1.073v2.74h-.715v-2.74h-1.072v-.623h2.86zm46.724 0v.623h-1.43v2.74h-.596v-3.363h2.026zm-16.091 0h-.715v3.363h.715v-3.363z" fill="#fff"/><path d="M212.121 55.373v.996c1.919.28 1.915-1.288 0-.996zm-49.227-.499h1.669c-.122-1.166-1.483-1.153-1.669 0z" fill="#fff"/></svg>