<svg width="100" height="100" viewBox="0 0 100 100" fill="none" xmlns="http://www.w3.org/2000/svg">
<g clip-path="url(#clip0_1051_6063)">
<g clip-path="url(#clip1_1051_6063)">
<path d="M67.5771 34.3663H33.7393V99.614H67.5771V34.3663Z" fill="#EE3A23"/>
<path d="M99.4575 100H93.9901V61.0993H70.3108V99.6031H54.0397V55.6625H64.8434V37.0847H36.473V55.6625H47.3968V99.6031H31.0056V61.0993H7.33167V100H1.86426V55.6625H31.011V31.6479H70.3162V55.6625H99.463V100H99.4575ZM59.5072 94.1608H64.8434V61.0939H59.5072V94.1608ZM36.473 94.1608H41.9294V61.0939H36.473V94.1608Z" fill="#312D2D"/>
<path d="M13.925 49.1056C7.43523 49.1056 2.15918 43.8537 2.15918 37.4056C2.15918 30.9574 7.4407 25.7054 13.925 25.7054C20.4094 25.7054 25.6909 30.9574 25.6909 37.4056C25.6909 43.8537 20.4094 49.1056 13.925 49.1056ZM13.925 31.1369C10.4532 31.1369 7.62659 33.9477 7.62659 37.4001C7.62659 40.8525 10.4532 43.6634 13.925 43.6634C17.3969 43.6634 20.2235 40.8525 20.2235 37.4001C20.2235 33.9477 17.3969 31.1369 13.925 31.1369Z" fill="#312D2D"/>
<path d="M16.3699 28.4238H11.4766L12.1436 23.5579H15.5935L16.3699 28.4238Z" fill="#312D2D"/>
<path d="M11.4766 46.3872H16.3699L15.7029 51.2532H12.2584L11.4766 46.3872Z" fill="#312D2D"/>
<path d="M22.9521 39.8412V34.9752L27.8455 35.6385V39.0637L22.9521 39.8412Z" fill="#312D2D"/>
<path d="M4.89333 34.9752V39.8412L0 39.1779V35.7473L4.89333 34.9752Z" fill="#312D2D"/>
<path d="M20.4922 44.0276L22.958 39.825L26.8508 42.8478L25.1121 45.8109L20.4922 44.0276Z" fill="#312D2D"/>
<path d="M7.35372 30.7834L4.88791 34.9861L0.995117 31.9632L2.73375 29.0001L7.35372 30.7834Z" fill="#312D2D"/>
<path d="M16.501 46.3492L20.689 43.8319L22.6463 48.3391L19.6994 50.1115L16.501 46.3492Z" fill="#312D2D"/>
<path d="M11.3446 28.4619L7.15655 30.9791L5.19922 26.472L8.15162 24.6996L11.3446 28.4619Z" fill="#312D2D"/>
<path d="M7.26597 43.9406L11.4923 46.3872L8.45239 50.2582L5.47266 48.5348L7.26597 43.9406Z" fill="#312D2D"/>
<path d="M20.5843 30.8704L16.3525 28.4238L19.3924 24.5528L22.3722 26.2763L20.5843 30.8704Z" fill="#312D2D"/>
<path d="M4.93149 39.9663L7.4629 44.1309L2.92495 46.0828L1.14258 43.1469L4.93149 39.9663Z" fill="#312D2D"/>
<path d="M22.9191 34.8448L20.3877 30.6802L24.9202 28.7283L26.7026 31.6642L22.9191 34.8448Z" fill="#312D2D"/>
<path d="M50.5295 25.5423C44.0397 25.5423 38.7637 20.2903 38.7637 13.8422C38.7637 7.39409 44.0397 2.13666 50.5295 2.13666C57.0194 2.13666 62.2954 7.38866 62.2954 13.8368C62.2954 20.2849 57.0139 25.5369 50.5295 25.5369V25.5423ZM50.5295 7.57351C47.0577 7.57351 44.2311 10.3844 44.2311 13.8368C44.2311 17.2892 47.0577 20.1 50.5295 20.1C54.0013 20.1 56.828 17.2892 56.828 13.8368C56.828 10.3844 54.0013 7.57351 50.5295 7.57351Z" fill="#312D2D"/>
<path d="M52.9744 4.86598H48.0811L48.7535 0H52.198L52.9744 4.86598Z" fill="#312D2D"/>
<path d="M48.0811 22.8239H52.9744L52.3074 27.6899H48.8629L48.0811 22.8239Z" fill="#312D2D"/>
<path d="M59.5625 16.2779V11.4119L64.4558 12.0752V15.5059L59.5625 16.2779Z" fill="#312D2D"/>
<path d="M41.4978 11.4119V16.2779L36.6045 15.6146V12.1894L41.4978 11.4119Z" fill="#312D2D"/>
<path d="M57.1016 20.4697L59.5619 16.2616L63.4547 19.2845L61.7215 22.2476L57.1016 20.4697Z" fill="#312D2D"/>
<path d="M43.9586 7.22555L41.4983 11.4282L37.6055 8.40534L39.3386 5.44226L43.9586 7.22555Z" fill="#312D2D"/>
<path d="M53.1055 22.7913L57.2935 20.274L59.2563 24.7812L56.3039 26.5536L53.1055 22.7913Z" fill="#312D2D"/>
<path d="M47.9545 4.90403L43.7665 7.42129L41.8037 2.9087L44.7561 1.13629L47.9545 4.90403Z" fill="#312D2D"/>
<path d="M43.8705 20.3773L48.0968 22.8293L45.0569 26.7004L42.0771 24.9715L43.8705 20.3773Z" fill="#312D2D"/>
<path d="M57.1892 7.31256L52.9629 4.86054L56.0028 0.989502L58.9825 2.71842L57.1892 7.31256Z" fill="#312D2D"/>
<path d="M41.5364 16.4084L44.0678 20.5731L39.5353 22.5195L37.7529 19.589L41.5364 16.4084Z" fill="#312D2D"/>
<path d="M59.5236 11.2815L56.9922 7.11686L61.5247 5.17047L63.307 8.10637L59.5236 11.2815Z" fill="#312D2D"/>
<path d="M88.0745 49.1056C81.5846 49.1056 76.3086 43.8537 76.3086 37.4056C76.3086 30.9574 81.5901 25.7054 88.0745 25.7054C94.5588 25.7054 99.8403 30.9574 99.8403 37.4056C99.8403 43.8537 94.5588 49.1056 88.0745 49.1056ZM88.0745 31.1369C84.6026 31.1369 81.776 33.9477 81.776 37.4001C81.776 40.8525 84.6026 43.6634 88.0745 43.6634C91.5463 43.6634 94.3729 40.8525 94.3729 37.4001C94.3729 33.9477 91.5463 31.1369 88.0745 31.1369Z" fill="#312D2D"/>
<path d="M90.5242 28.4238H85.6309L86.2979 23.5579H89.7478L90.5242 28.4238Z" fill="#312D2D"/>
<path d="M85.6309 46.3872H90.5242L89.8572 51.2532H86.4072L85.6309 46.3872Z" fill="#312D2D"/>
<path d="M97.1064 39.8412V34.9752L102 35.6385V39.0637L97.1064 39.8412Z" fill="#312D2D"/>
<path d="M79.0476 34.9752V39.8412L74.1543 39.1779V35.7473L79.0476 34.9752Z" fill="#312D2D"/>
<path d="M94.6465 44.0276L97.1123 39.825L101.005 42.8478L99.2664 45.8109L94.6465 44.0276Z" fill="#312D2D"/>
<path d="M81.508 30.7834L79.0422 34.9861L75.1494 31.9632L76.8881 29.0001L81.508 30.7834Z" fill="#312D2D"/>
<path d="M90.6553 46.3492L94.8433 43.8319L96.8006 48.3391L93.8482 50.1115L90.6553 46.3492Z" fill="#312D2D"/>
<path d="M85.4989 28.4619L81.3108 30.9791L79.3535 26.472L82.3004 24.6996L85.4989 28.4619Z" fill="#312D2D"/>
<path d="M81.4148 43.9406L85.6466 46.3872L82.6067 50.2582L79.627 48.5348L81.4148 43.9406Z" fill="#312D2D"/>
<path d="M94.7386 30.8704L90.5068 28.4238L93.5467 24.5528L96.5265 26.2763L94.7386 30.8704Z" fill="#312D2D"/>
<path d="M79.0803 39.9663L81.6117 44.1309L77.0792 46.0828L75.2969 43.1469L79.0803 39.9663Z" fill="#312D2D"/>
<path d="M97.0679 34.8448L94.542 30.6802L99.0745 28.7283L100.857 31.6642L97.0679 34.8448Z" fill="#312D2D"/>
</g>
</g>
<defs>
<clipPath id="clip0_1051_6063">
<rect width="100" height="100" fill="white"/>
</clipPath>
<clipPath id="clip1_1051_6063">
<rect width="101" height="100" fill="white"/>
</clipPath>
</defs>
</svg>
