<svg width="100" height="100" fill="none" xmlns="http://www.w3.org/2000/svg"><g clip-path="url(#clip0_1051_6035)"><path d="M50.499 38.529h-18.49V85.66h18.49V38.53zm25.714-25.626h-18.49V85.66h18.49V12.903z" fill="#EE3A23"/><path d="M17.552 7.352v73.695h78.692v5.144h-83.86V7.35h5.168z" fill="#312D2D"/><path d="M100.001 83.62L85.247 97.995l-3.616-3.674 10.983-10.703L81.63 72.916l3.616-3.674L100 83.619zM29.402 17.357l-3.654 3.637-10.78-10.722-10.78 10.722-3.655-3.637L14.967 3l14.435 14.357z" fill="#312D2D"/><path d="M22.662 94.87c-10.976 0-19.907-8.886-19.907-19.809 0-10.922 8.93-19.809 19.907-19.809s19.907 8.887 19.907 19.81c0 10.922-8.93 19.808-19.907 19.808z" fill="#fff"/><path d="M22.662 57.993c9.458 0 17.153 7.657 17.153 17.068 0 9.412-7.695 17.068-17.153 17.068-9.458 0-17.152-7.656-17.152-17.068 0-9.411 7.694-17.068 17.152-17.068zm0-5.482C10.146 52.51 0 62.606 0 75.06s10.146 22.55 22.662 22.55c12.517 0 22.662-10.095 22.662-22.55S35.179 52.51 22.662 52.51z" fill="#312D2D"/><path d="M25.971 75.178l1.998 10.551H17.414l1.992-10.551a5.873 5.873 0 01-2.653-4.91c0-3.245 2.648-5.875 5.91-5.875 3.26 0 5.903 2.63 5.903 5.875a5.882 5.882 0 01-2.616 4.889l.021.02z" fill="#312D2D"/></g><defs><clipPath id="clip0_1051_6035"><path fill="#fff" d="M0 0h100v100H0z"/></clipPath></defs></svg>