<svg width="209" height="54" fill="none" xmlns="http://www.w3.org/2000/svg"><mask id="a" style="mask-type:luminance" maskUnits="userSpaceOnUse" x="42" y="19" width="126" height="24"><path d="M167.823 19H42.177v24h125.646V19z" fill="#fff"/></mask><g mask="url(#a)" fill="#312D2D"><path d="M109.257 38.975v-15.95h9.759v3.705h-5.69v12.245h-4.069zm22.036 0v-6.247h-6.045v6.247h-4.069v-15.95h4.069v5.953h6.045v-5.953h4.069v15.95h-4.069zm27.683 0V26.73h-4.752v-3.705h13.599v3.705h-4.776v12.245h-4.071zm-10.74-.003v-9.087l-6.478 9.087h-3.402V23.027h4.069v8.993l6.369-8.993h3.513v15.945h-4.071zm-62.362.003v-9.479l-4.063 5.008-4.062-5.008v9.479h-4.07v-15.95h4.016l4.116 5.485 4.116-5.485h4.016v15.95h-4.069zm11.794-5.61h3.782l-1.891-5-1.891 5zm5.902 5.607l-.851-2.234h-6.326l-.852 2.234h-4.09l6.258-15.947h3.762l6.26 15.947h-4.161zM42.173 26.266a7.4 7.4 0 012.068-5.134A6.948 6.948 0 0149.217 19h16.261v3.693H49.221a3.426 3.426 0 00-2.444 1.051 3.649 3.649 0 00-1.02 2.522l-.021 6.2a3.666 3.666 0 01-.93 2.124 3.469 3.469 0 01-1.994 1.095l-.639.101v-9.52zM42.174 43v-3.694h16.261a3.428 3.428 0 002.445-1.052 3.652 3.652 0 001.02-2.522v-5.884a3.667 3.667 0 01.841-2.326 3.462 3.462 0 012.1-1.21l.64-.099v9.519a7.403 7.403 0 01-2.068 5.135A6.95 6.95 0 0158.437 43H42.174z"/><path d="M55.95 35.8v-4.775l-2.121 2.613-2.119-2.613V35.8h-2.808v-9.395h2.66l2.267 3.02 2.268-3.02h2.66V35.8H55.95z"/></g></svg>