<svg width="345" height="222" fill="none" xmlns="http://www.w3.org/2000/svg"><path opacity=".1" fill="#312D2D" d="M0 0h345v222H0z"/><path d="M123.568 118.812c-.046-.014-.306-.283-.335-.352.826-5.016 1.468-10.194 2.446-15.203.237-1.221.026-2.101 1.339-2.218 1.126-.1 3.707-.145 4.79 0 .181.024.369-.014.494.172l1.64 10.188 5.761-10.35h5.761c.069 0 .296.363.322.494l-2.916 17.055a1.69 1.69 0 01-.369.218h-4.856l1.149-8.28-4.026 7.593c-.438.942-3.378.887-3.888.442-.217-.19-.326-.504-.405-.784-.639-2.269-.685-5.391-1.063-7.772-.329.066-.27.366-.329.604-.554 2.277-.57 5.209-1.192 7.375-.059.211-.385.818-.537.818-.816 0-3.21.173-3.786 0zm-19.916 5.52c-.099-.031-.293-.359-.323-.494l3.789-22.437c.201-.279.51-.321.813-.355.718-.086 3.302-.121 3.947.007.204.041.412.141.507.345.152.314-.339 1.228.152 1.031.227-.089.704-.604 1.066-.779 2.69-1.318 6.18-1.063 8.072 1.559 2.315 3.205.758 10.094-1.642 12.94-2.348 2.787-7.552 4.522-10.127 1.29-.187.121-.184.259-.23.449-.435 1.669-.395 4.212-.912 5.771-.079.235-.477.68-.668.68-.876 0-3.878.182-4.444 0v-.007zm12.865-18.915c-1.037-1.056-3.161-.432-4.059.545-1.87 2.039-3.233 9.345 1.053 9.211 3.246-.104 5.08-7.645 3.006-9.756zM70.77 94.188c.84-.176 4.83-.173 5.712-.031.603.096.945.51 1.024 1.131-1.439 8.238-2.657 16.528-4.112 24.763-.2 1.128-.536 4.184-1.023 4.964-.267.427-.665.641-1.143.7-.974.121-4.879.166-5.76-.007-.65-.128-.86-.845-.745-1.456 1.511-8.296 2.68-16.662 4.168-24.962.26-1.452.339-4.778 1.88-5.102zm172.135 6.858c.079.027.194.19.224.286l-1.459 9.546 6.663-9.832h5.268c.023 0 .303.276.335.352l-2.732 16.8c.007.183-.3.614-.402.614h-4.773c-.099 0-.402-.504-.326-.707l1.314-8.783-6.42 9.49h-5.432c-.313-.221-.266-.59-.25-.942.234-4.971 2.295-10.918 2.68-16.003.003-.211.421-.821.533-.821h4.777zm45.759 0c.046.014.306.283.336.352-.826 5.016-1.465 10.194-2.446 15.203-.079.407-.28 1.783-.481 1.997-.454.49-4.095.066-4.954.218l-.356-1.215c-3.608 2.984-9.826 1.608-10.284-3.712-.349-4.039 1.007-9.155 4.322-11.508 1.913-1.359 4.985-2.098 7.144-1.025.293.145 1.406 1.19 1.534 1.066-.046-.421.3-1.38.741-1.38.938 0 3.786-.196 4.444 0v.004zm-9.171 3.826c-3.941.558-5.702 12.074-.007 10.011 2.43-.88 3.302-5.334 2.996-7.7-.201-1.552-1.511-2.522-2.986-2.311h-.003zm-175.018-3.826c.144.048.395.524.362.738-1.116 5.099-1.475 10.625-2.631 15.683-.062.276-.168.973-.319 1.135-.454.49-4.095.065-4.955.217l-.355-1.214c-3.608 2.984-9.827 1.607-10.284-3.712-.343-3.978.98-9.087 4.223-11.44 1.936-1.404 5.034-2.194 7.243-1.093.293.145 1.406 1.19 1.534 1.066-.046-.421.3-1.38.741-1.38h4.444-.003zm-9.172 3.826c-3.94.558-5.702 12.074-.007 10.011 2.43-.88 3.302-5.334 2.996-7.7-.2-1.552-1.511-2.522-2.986-2.311h-.003zm69.087-3.826c.177.052.477.51.405.748-1.202 5.134-1.426 10.957-2.67 16.021-.148.607-.194.911-.853 1.004-.658.093-3.513.107-4.118-.014-.27-.055-.458-.186-.557-.459l.06-.914c-3.845 3.312-10.011 1.797-10.449-3.884-.178-2.301.418-5.292 1.336-7.39 1.956-4.457 7.73-7.227 11.661-3.732.079-.394.283-1.38.744-1.38.935 0 3.786-.197 4.444 0h-.003zm-9.175 3.833c-3.951.6-5.676 12.208.131 9.976 2.437-.935 3.161-5.509 2.858-7.841-.194-1.501-1.61-2.342-2.989-2.135zm67.197 6.344c-.566 3.884 2.492 5.695 5.103 2.673.579-.669.144-.935 1.418-1.1.53-.069 3.977-.059 4.175.158-.247 2.629-2.878 4.92-5.175 5.692-2.506.846-6.845.887-8.981-.952-3.467-2.977-1.58-11.401 1.317-14.323 3.562-3.595 13.257-4.036 13.978 2.439.082.738.141 5.416-.724 5.416h-11.111v-.003zm6.584-3.795c-.181-4.164-4.764-3.219-5.761 0h5.761zm-18.6-1.897h-4.197c-.284.248-.29.652-.363 1-.793 3.833-1.175 7.786-1.899 11.636-.033.159-.491.645-.537.645h-4.773l-.227-.286 2.874-17.121c.062-.097.263-.359.316-.359h14.814c.22 0 .326.69.23.924-1.274 4.989-1.356 10.957-2.663 15.845-.062.235-.296.997-.53.997h-4.773l-.221-.286 1.949-12.995zm-19.479-4.765c6.235 0 7.917 4.047 6.722 9.943-.941 4.653-3.641 8.065-8.391 8.455-7.233.593-9.738-3.277-8.01-10.463 1.238-5.147 4.55-7.931 9.679-7.935zm-1.136 4.113c-3.104.472-5 8.075-2.419 9.873 2.146 1.493 4.164-1.377 4.77-3.264.691-2.142.941-7.11-2.351-6.609z" fill="#312D2D"/><path d="M172.126 101.046l.221.286-.705 6.099 1.353-.041 4.359-6.037c.349-.231.615-.276 1.017-.314.718-.072 2.992-.114 3.628.01.964.19.013 1.311-.277 1.78-.602.973-4.724 6.293-4.737 6.758l3.039 8.021c.266.9.049 1.28-.823 1.387-.827.1-3.506.121-4.122-.345-.909-.683-2.067-5.64-2.795-6.903l-1.409-.097-1.182 6.524c-.033.159-.49.645-.536.645h-4.856l-.152-.752c1.011-4.95 1.521-10.025 2.506-14.975.138-.694.151-1.577.688-2.039h4.773l.01-.007zm89.379 0c.138.041.365.355.369.562.019.814-1.146 5.609-.945 5.82l1.56-.176c.675-.838 4.082-6.206 4.777-6.206h4.526l-.187 1.097-5.208 7.293 3.144 8.555c.141.8-.517.942-1.116 1-.823.08-3.365.121-3.964-.348-1.001-.787-1.922-5.882-2.986-7.048-.408-.027-1.172-.21-1.343.262-.402 1.853-.507 3.926-.932 5.751-.085.366-.197 1.201-.665 1.201h-4.608c-.109 0-.504-.511-.379-.725 1.185-5.126 1.481-10.756 2.68-15.841.085-.366.197-1.201.665-1.201.984 0 3.904-.203 4.609 0l.003.004zm-195.63-.345l-2.962 18.456c-2.37-.121-5.699.873-5.913-2.646l2.285-13.316c.57-1.204 1.87-2.494 3.216-2.494h3.374zm10.37 18.456l3.15-18.432c2.144.024 5.522-.662 5.752 2.477l-2.196 13.409c-.326 1.001-1.814 2.546-2.838 2.546h-3.868zM251 93.34c.444.403 1.679 2.293 1.504 2.924-.408 1.47-4.72 2.467-6.008 2.474-1.356.01-5.668-.942-6.113-2.474-.243-.834 1.389-3.146 2.1-3.26.484-.075 1.637.835 2.318 1.046 1.109.341 2.028.403 3.157.045 1.027-.325 2.054-1.656 3.039-.76l.003.004zm-7.684 30.819l1.294.024 1.175 3.426c.58-.252 1.314-3.298 1.502-3.426l1.293-.024v4.657h-.987v-3.104l-1.169 2.828c-.211.394-.734.407-.958 0l-1.169-2.828v3.104h-.987v-4.657h.006zm41.892 0c1.175.218 1.639 1.87.246 2.156.168.38 1.057.266 1.103 1.235.027.559-.51 1.266-1.02 1.266h-2.881v-4.657c.777.1 1.817-.138 2.552 0zm-1.564 1.898c2.281.355 2.278-1.394 0-1.039v1.039zm0 2.069c2.65.387 2.643-1.787 0-1.379v1.379zm-15.144-3.967v3.105c.669-.448 1.475-2.991 2.058-3.105.28-.055.616.028.905 0v4.657h-.987v-3.104c-.639.303-1.528 2.877-1.844 3.066-.24.145-.81-.017-1.119.038v-4.657h.987zm-49.545 2.588h-3.292c.01.976.764 1.652 1.696 1.345.227-.076 1.198-1.08 1.428-.228-1.132 1.977-4.046 1.18-4.118-1.211-.109-3.411 4.513-3.422 4.286.094zm-.987-.69c-.168-1.615-2.048-1.598-2.305 0h2.305zm-32.756.69c.043 1.014.533 1.579 1.56 1.379.372-.072.438-.438.985-.527 1.152-.187.329.786-.149 1.052-1.593.886-3.351-.052-3.394-1.991-.079-3.47 4.626-3.374 4.129.087h-3.131zm2.304-.69c-.266-1.649-2.018-1.577-2.304 0h2.304zm91.308-1.856c3.921-.846 3.684 5.26.333 4.75-2.341-.355-2.321-4.323-.333-4.75zm.497.676c-1.346.269-1.3 3.56.445 3.253 1.376-.245 1.254-3.591-.445-3.253zm-6.705-.718h.987l.096 1.901 1.715-.003v-1.898h.987v4.657h-.987l-.096-1.9-1.715.003v1.897h-.987v-4.657zm-19.259 4.657l-.813-.017c.043-1.045-.448-.162-.902.031-1.244.528-2.568-.569-1.985-1.908.513-1.183 3.295-.355 2.633-1.728-.51-1.062-1.807.507-2.554.173.155-1.67 3.621-1.522 3.621-.259v3.708zm-.988-2.242c-.579.228-1.626.083-1.817.78-.25 1.518 2.463 1.021 1.817-.78zm9.547 2.242l-.813-.017c.043-1.045-.447-.162-.902.031-1.244.528-2.568-.569-1.985-1.908.514-1.183 3.295-.355 2.634-1.728-.511-1.062-1.808.507-2.555.173.155-1.67 3.621-1.522 3.621-.259v3.708zm-.987-2.242c-.58.228-1.627.083-1.817.78-.251 1.518 2.462 1.021 1.817-.78zm-56.459 2.242l-.813-.017c.04-1.114-.54-.038-.987.114-1.235.417-2.516-.731-1.801-2.06.526-.979 2.416-.496 2.604-1.072l-.069-.587c-.906-1.038-1.521.483-2.555.173.155-1.67 3.621-1.522 3.621-.259v3.708zm-1.195-2.211c-.81.262-1.968.104-1.527 1.356.948.759 2.232-.197 1.738-1.308l-.211-.048zm21.606-2.446h.823v1.898l1.88.003.095-1.901h.988v4.657h-.988v-1.897l-1.82.076-.155 1.821h-.823v-4.657zm-15.308 0v4.657h-.988v-3.794h-1.975v3.794h-.823v-4.657h3.786zm20.246 0h.988v1.553c1.534-.173 3.295.22 2.702 2.235-.092.31-.73.869-.974.869h-2.716v-4.657zm2.759 2.629l-1.771-.217v1.379c.987.007 2.281.294 1.771-1.166v.004zm-38.642-2.629h.987v1.553c1.472-.297 3.526.472 2.677 2.373-.099.224-.817.731-.948.731h-2.716v-4.657zm2.758 2.629c-.339-.345-1.306-.179-1.771-.214v1.38c.731.3 2.687-.242 1.771-1.166zm-13.293-1.076c-1.119.296-.908-.359-1.386-.704-1.666-1.19-2.485 3.591-.214 3.087.659-.145.665-1.138 1.6-.831-.138 1.649-1.88 2.142-3.117 1.283-1.106-.766-1.136-2.791-.339-3.788.908-1.135 3.453-.821 3.456.949v.004zm53.957-1.515c.154.093.8 1.842 1.017 1.687.454-.911.579-2.032 1.811-1.725l-1.265 2.329 1.265 2.325c-1.367.404-1.153-1.076-2.055-1.552-.49.869-.526 1.866-1.728 1.552-.207-.186 1.142-1.887 1.142-2.329 0-.441-1.346-2.142-1.142-2.328.273.041.734-.097.955.034v.007zm28.344 2.374c.583-.056.82.41.833.955.053 1.849-3.424 1.97-3.631.079 1.113-.293 1.136.915 2.364.49.833-.955-.172-1.383-1.05-1.442v-.603c1.863.362 1.563-1.767.036-1.09-.25.11-.362.696-1.185.396.023-1.235 1.474-1.355 2.376-1.197 1.143.204 1.472 1.732.257 2.063v.349zm-42.138 2.245h-.823v-1.38c-2.525.301-3.058-.814-2.801-3.277h.826c-.119 1.539-.01 2.86 1.82 2.339l.155-2.339h.823v4.657zm-9.382-4.657v.863H212.7v3.794h-.987v-3.794h-1.482v-.863h3.951zm-21.234 0v.863h-1.481v3.794h-.988v-3.794h-1.481v-.863h3.95zm64.524 0v.863h-1.975v3.794h-.823v-4.657h2.798zm-22.221 0h-.988v4.657h.988v-4.657z" fill="#312D2D"/><path d="M283.644 126.747v1.379c2.65.387 2.643-1.783 0-1.379zm-67.981-.69h2.305c-.168-1.615-2.048-1.598-2.305 0z" fill="#312D2D"/></svg>