<svg width="345" height="222" fill="none" xmlns="http://www.w3.org/2000/svg"><path opacity=".1" fill="#312D2D" d="M0 0h345v222H0z"/><path d="M158.297 137.039v-4.191h1.195c.381 0 .668.093.86.279.194.186.291.465.291.838a.926.926 0 01-.147.518.994.994 0 01-.397.348.797.797 0 01.455.354c.113.179.17.393.17.645 0 .376-.104.672-.311.887-.206.214-.499.322-.881.322h-1.235zm.527-1.96v1.508h.719c.2 0 .358-.065.475-.196.117-.132.176-.317.176-.555 0-.505-.213-.757-.639-.757h-.731zm0-.444h.676a.568.568 0 00.441-.184.694.694 0 00.169-.489c0-.231-.05-.398-.152-.501-.102-.106-.257-.159-.466-.159h-.668v1.333zm4.646 1.31h-1.416l-.326 1.094h-.541l1.35-4.191h.452l1.353 4.191h-.541l-.331-1.094zm-1.278-.455h1.143l-.573-1.905-.57 1.905zm3.276-2.642v3.739h1.137v-3.739h.524v3.739h1.128v-3.739h.53v4.191h-3.849v-4.191h.53zm6.252 3.097h-1.416l-.326 1.094h-.541l1.35-4.191h.452l1.353 4.191h-.541l-.331-1.094zm-1.278-.455h1.143l-.573-1.905-.57 1.905zm6.796 1.549h-.529v-3.737h-1.641v3.737h-.527v-4.191h2.697v4.191zm3.124-4.191h.527v4.191h-.527v-3.23l-1.632 3.23h-.53v-4.191h.53v3.229l1.632-3.229zm1.465 4.191v-4.191h1.195c.381 0 .668.093.86.279.194.186.291.465.291.838a.926.926 0 01-.147.518.994.994 0 01-.397.348.797.797 0 01.455.354c.113.179.17.393.17.645 0 .376-.104.672-.311.887-.206.214-.499.322-.881.322h-1.235zm.527-1.96v1.508h.719c.2 0 .358-.065.475-.196.117-.132.176-.317.176-.555 0-.505-.213-.757-.639-.757h-.731zm0-.444h.676a.566.566 0 00.441-.184.694.694 0 00.169-.489c0-.231-.05-.398-.152-.501-.102-.106-.257-.159-.466-.159h-.668v1.333zm5.417.677c0 .572-.122 1.012-.365 1.321-.244.309-.59.463-1.039.463-.432 0-.774-.149-1.025-.449-.25-.301-.379-.726-.389-1.275v-.789c0-.56.124-.998.372-1.315.247-.319.593-.478 1.036-.478.441 0 .785.153 1.03.458.248.303.375.737.38 1.301v.763zm-.526-.734c0-.444-.073-.773-.219-.988-.144-.217-.366-.325-.665-.325-.29 0-.51.109-.659.328-.148.219-.223.541-.225.967v.752c0 .428.074.754.222.978.149.225.372.337.668.337.295 0 .514-.103.656-.311.142-.207.216-.524.222-.952v-.786zm1.341 2.461v-4.191h1.195c.382 0 .668.093.86.279.194.186.291.465.291.838a.926.926 0 01-.147.518.994.994 0 01-.397.348.794.794 0 01.455.354c.113.179.17.393.17.645 0 .376-.104.672-.311.887-.206.214-.499.322-.881.322h-1.235zm.527-1.96v1.508h.719c.2 0 .358-.065.475-.196.118-.132.176-.317.176-.555 0-.505-.213-.757-.639-.757h-.731zm0-.444h.676a.566.566 0 00.441-.184.695.695 0 00.17-.489c0-.231-.051-.398-.153-.501-.102-.106-.257-.159-.466-.159h-.668v1.333zm4.646 1.31h-1.416l-.326 1.094h-.541l1.35-4.191h.452l1.353 4.191h-.541l-.331-1.094zm-1.278-.455h1.143l-.573-1.905-.57 1.905zm3.247-.092v1.641h-.527v-4.191h1.336c.389 0 .696.117.918.351.223.232.334.542.334.93 0 .403-.106.714-.319.932-.212.217-.51.329-.896.337h-.846zm0-.452h.809c.234 0 .413-.07.538-.21.125-.14.187-.341.187-.602 0-.251-.064-.453-.193-.604a.655.655 0 00-.529-.228h-.812v1.644zm4.753.156h-1.483v1.485h1.727v.452h-2.254v-4.191h2.225v.454h-1.698v1.348h1.483v.452zm3.664 1.937h-.53v-1.937h-1.686v1.937h-.527v-4.191h.527v1.802h1.686v-1.802h.53v4.191zm3.656 0h-.53v-1.937h-1.687v1.937h-.526v-4.191h.526v1.802h1.687v-1.802h.53v4.191zm2.919-1.094h-1.416l-.326 1.094h-.541l1.35-4.191h.452l1.353 4.191h-.541l-.331-1.094zm-1.278-.455h1.143l-.573-1.905-.57 1.905zm4.548 1.549v-1.632h-.725l-.723 1.632h-.561l.82-1.793c-.457-.213-.685-.592-.685-1.135 0-.393.109-.701.328-.924.221-.224.529-.337.924-.339h1.152v4.191h-.53zm-1.344-2.928c0 .254.063.457.19.611.126.151.304.229.532.233h.622v-1.653h-.616c-.238 0-.419.072-.544.216-.123.144-.184.342-.184.593zm5.135 1.045h-.397v1.883h-.527v-4.191h.527v1.848h.322l1.181-1.848h.656l-1.33 2.026 1.428 2.165h-.645l-1.215-1.883zm4.989.156c0 .572-.122 1.012-.366 1.321-.243.309-.59.463-1.039.463-.432 0-.773-.149-1.025-.449-.249-.301-.379-.726-.388-1.275v-.789c0-.56.124-.998.371-1.315.248-.319.593-.478 1.036-.478.442 0 .785.153 1.031.458.248.303.374.737.38 1.301v.763zm-.527-.734c0-.444-.073-.773-.219-.988-.144-.217-.365-.325-.665-.325-.289 0-.509.109-.659.328-.148.219-.222.541-.224.967v.752c0 .428.074.754.221.978.15.225.373.337.668.337.296 0 .514-.103.657-.311.142-.207.215-.524.221-.952v-.786zm2.021-1.73l1.094 3.419 1.094-3.419h.679v4.191h-.527v-1.632l.049-1.635-1.097 3.267h-.403l-1.091-3.256.049 1.624v1.632h-.526v-4.191h.679zm6.5 4.191h-.53v-3.737h-1.641v3.737h-.526v-4.191h2.697v4.191zm2.893-1.094h-1.416l-.326 1.094h-.541l1.35-4.191h.452l1.353 4.191h-.541l-.331-1.094zm-1.278-.455h1.143l-.573-1.905-.57 1.905zm5.464 1.549h-.53v-1.937h-1.687v1.937h-.527v-4.191h.527v1.802h1.687v-1.802h.53v4.191zm3.097-4.191h.527v4.191h-.527v-3.23l-1.632 3.23h-.53v-4.191h.53v3.229l1.632-3.229zm3.293 4.191v-1.632h-.725l-.723 1.632h-.561l.82-1.793c-.456-.213-.685-.592-.685-1.135 0-.393.11-.701.328-.924.221-.224.529-.337.924-.339h1.152v4.191h-.53zm-1.344-2.928c0 .254.063.457.19.611.126.151.304.229.532.233h.622v-1.653h-.616c-.238 0-.419.072-.544.216-.123.144-.184.342-.184.593zm-84.179-29.478l.314-.314h14.841l.315.314v19.809l-.315.315h-2.326l-.315-.315v-16.539l-.943-.943h-7.672l-.943.943v16.539l-.315.315h-2.327l-.314-.315v-19.809zm21.125 0l.315-.314h6.917c4.496 0 7.515 2.673 7.515 6.917 0 4.214-3.207 6.918-7.861 6.918h-2.987l-.943.943v5.345l-.314.315h-2.327l-.315-.315v-19.809zm2.956 3.239v6.729l.943.943h2.956c3.207 0 4.936-1.509 4.936-4.308 0-2.892-1.603-4.307-4.747-4.307h-3.145l-.943.943zm16.205-3.239l.314-.314h2.295l.315.314v12.231l1.729.535 8.27-12.923.251-.157h2.201l.314.314v19.809l-.314.315h-2.295l-.315-.315v-11.854l-1.729-.534-8.112 12.545-.252.158h-2.358l-.314-.315v-19.809zm21.34 0l.314-.314h2.862l.283.157 4.968 8.867h1.635l4.999-8.867.283-.157h2.798l.315.314v19.809l-.315.315h-2.232l-.314-.315v-12.231l-1.761-.472-3.868 6.729-.283.157h-1.069l-.283-.157-3.741-6.666-1.761.472v12.168l-.315.315h-2.201l-.314-.315v-19.809zm23.066.126l.283-.44h2.799l.314.189 4.465 10.187h1.729l3.931-10.187.314-.189h2.641l.283.44-7.043 16.445c-1.163 2.735-2.83 3.961-4.968 3.961-1.037 0-1.824-.125-2.578-.377l-.189-.409.629-2.044.409-.188c.471.188 1.037.283 1.603.283 1.069 0 1.855-.66 2.296-1.792l.157-.409v-.881l-7.075-14.589zm35.254 1.95l-1.478 1.697-.44.032c-1.383-1.226-2.956-1.887-4.811-1.887-3.836 0-6.414 3.207-6.414 7.987 0 4.59 2.421 7.986 6.446 7.986 1.949 0 3.71-.754 5.251-2.232l.44.031 1.415 1.604-.032.44c-1.949 1.886-4.307 2.798-7.231 2.798-5.597 0-9.245-4.307-9.245-10.627 0-5.911 3.836-10.628 9.559-10.628 2.578 0 4.685.755 6.509 2.358l.031.441zm-167.644.15v-.075a6.534 6.534 0 00-3.217-5.377l-.399-15.343h-6.008l-.399 15.343a6.511 6.511 0 00-3.213 5.314.16.16 0 000 .067v29.869h13.245v-29.618c0-.058-.004-.126-.009-.18zM94.189 92.265l-.04-2.196h-5.826c0 .364-.058 2.196-.058 2.196h5.924z" fill="#312D2D"/><path d="M97.854 114.93v-.076a6.537 6.537 0 00-3.217-5.377l-.4-15.342H88.23l-.385 15.351a6.492 6.492 0 00-2.282 2.249 6.492 6.492 0 00-.93 3.065.18.18 0 000 .067v21.799h13.244v-21.561c0-.059-.018-.121-.022-.175zm26.373 0v-.076a6.507 6.507 0 00-3.217-5.377l-.394-15.342h-6.014l-.398 15.342a6.495 6.495 0 00-3.208 5.314.152.152 0 000 .067v21.799h13.231v-21.552c0-.059.005-.121 0-.175z" fill="#312D2D"/><path d="M84.783 121.171l-9.083-4.453v19.948h9.083v-15.495z" fill="#312D2D"/><path d="M76.082 121.171L67 116.718v19.948h9.082v-15.495zm47.938-.084l9.348-4.369 13.603 12.402v7.546h-23.425l.474-15.579zm-16.666-36.891L107.309 82h-5.825c0 .363-.053 2.196-.053 2.196h5.923zm13.199 8.07l-.04-2.196h-5.785c0 .364-.058 2.196-.058 2.196h5.883z" fill="#312D2D"/><path d="M133.314 118.07v17.475h12.685v-5.914l-12.685-11.561z" fill="#E1E1E1"/><path d="M141.657 133.946h-4.333v-4.454a2.165 2.165 0 013.696-1.53c.407.405.636.956.637 1.53v4.454z" fill="#312D2D"/><path d="M71.543 120.252v15.293h3.267v-13.689l-3.267-1.604zm9.245.108v15.186h3.056v-13.689l-3.056-1.497zm15.968-4.57v-.242a6.526 6.526 0 00-3.213-5.377l-.398-15.047h-1.51v17.538c.6.953.937 2.048.976 3.173v19.702h4.145V115.79zm13.123-8.187v-.241a6.53 6.53 0 00-3.217-5.377l-.399-15.047h-1.51V104.7c.514.901.804 1.912.847 2.948v27.889h4.274v-27.781c.005-.036.005-.099.005-.153zm13.201 8.187v-.242a6.51 6.51 0 00-3.217-5.377l-.394-15.047h-1.515v17.538a6.47 6.47 0 01.977 3.173v19.702h4.149V115.79z" fill="#E1E1E1"/></svg>