<svg width="164" height="166" fill="none" xmlns="http://www.w3.org/2000/svg"><path fill-rule="evenodd" clip-rule="evenodd" d="M143.5 35.61L82 0 20.5 35.61l.03.02-.03.016L82 71.249l61.5-35.603-.031-.017.031-.018zM82 47.509l-20.5-11.87-.031-.016.031-.019L82 23.736l20.499 11.875.032.018-.032.017-20.5 11.862z" fill="#32333B"/><path fill-rule="evenodd" clip-rule="evenodd" d="M143.501 130.574L164 118.707V47.249l-82 47.47L0 47.25v71.458l20.5 11.867V82.852L82 118.455l61.5-35.603v47.722z" fill="#32333B"/><path fill-rule="evenodd" clip-rule="evenodd" d="M123.01 118.522l-.009.006L82 142.264l-41.001-23.736-.01-.006v23.736l.01.006 41 23.736 41.002-23.736.009-.006v-23.736z" fill="#32333B"/></svg>