<svg width="209" height="54" fill="none" xmlns="http://www.w3.org/2000/svg"><g clip-path="url(#clip0_1074_6102)"><path fill-rule="evenodd" clip-rule="evenodd" d="M63.223 15.066a12.07 12.07 0 00-7.136 1.46 12.013 12.013 0 00-4.984 5.296 11.962 11.962 0 002.335 13.645 12.072 12.072 0 0013.682 2.37 12.021 12.021 0 005.33-4.952 11.964 11.964 0 001.486-7.108 11.965 11.965 0 00-3.446-7.254 12.037 12.037 0 00-7.267-3.457zm-.39 18.28a6.438 6.438 0 01-3.867-.693 6.408 6.408 0 01-2.739-2.808 6.38 6.38 0 011.206-7.36 6.44 6.44 0 017.38-1.225 6.41 6.41 0 012.826 2.721 6.38 6.38 0 01-1.112 7.54 6.425 6.425 0 01-3.694 1.824zM80.374 15.54a2.814 2.814 0 00-2.177 1.039 2.795 2.795 0 00-.564 2.338c.264 1.32 1.5 2.22 2.847 2.22h7.813l-12.16 16.04a.798.798 0 00.637 1.282h19.074c1.345 0 2.582-.9 2.846-2.22a2.79 2.79 0 00-.564-2.338 2.807 2.807 0 00-2.176-1.04h-9.52l12.15-16.027a.806.806 0 00-.643-1.294H80.374zm76.218.065a2.86 2.86 0 00-1.591 1.02 2.832 2.832 0 00-.599 1.789v9.32l-15.151-12.018a.809.809 0 00-1.185.204.807.807 0 00-.122.427V35.59a2.848 2.848 0 002.191 2.81 2.814 2.814 0 002.362-.553 2.797 2.797 0 001.046-2.182v-9.4l15.151 12.018a.802.802 0 00.852.093.803.803 0 00.454-.724V18.338a2.796 2.796 0 00-2.164-2.725 2.816 2.816 0 00-1.244-.008zm-39.448 4.997c6.408 0 11.197 3.375 11.197 6.395 0 3.02-4.789 6.395-11.197 6.395-6.408 0-11.197-3.376-11.197-6.395 0-3.02 4.789-6.395 11.197-6.395zm0-5.597c-9.276 0-16.795 5.369-16.795 11.992 0 6.623 7.519 11.992 16.795 11.992 9.276 0 16.795-5.369 16.795-11.992 0-6.623-7.52-11.992-16.795-11.992z" fill="#312D2D"/></g><defs><clipPath id="clip0_1074_6102"><path fill="#fff" transform="translate(50 15)" d="M0 0h110v24H0z"/></clipPath></defs></svg>