<svg width="209" height="54" fill="none" xmlns="http://www.w3.org/2000/svg"><path d="M97.612 8.065c2.661 1.145 3.423 5.233 3.922 7.778.884 4.516 1.703 9.039 2.674 13.529.181.839.906 3.776 1.59 4.178.634.373 2.417-.075 3.177.147.277.08.731.81.802 1.083.171.662-.088.946-.157 1.515-.075.62.164 1.068-.286 1.6-.882 1.044-2.155-.32-2.519-1.2l-9.564-.02-6.919-.338c-.015.408.05.824-.046 1.23-.288 1.21-2.207 1.121-2.178-.508.007-.402.086-1.888.17-2.17.067-.224.477-.753.694-.86.547-.266 2.147-.215 2.406-.585.095-.522.33-1.055.456-1.541.4-1.537.63-3.16 1.075-4.696 1.218-4.215 3.478-8.438 5.928-12.044.058-.242.04-.486-.002-.728-.093-.522-.472-1.819-.693-2.3-.313-.68-.767-1.301-1.615-1.064-.346.098-.373.533-.275.844.09.289.45.475.6.733.543.919-.077 2.555-1.2 1.976-.102-.054-.957-1.124-1.044-1.281-.673-1.244-.554-2.987.286-4.14.381-.521.91-.696 1.453-.958.069-.034.065-.198.155-.22.178-.04.957-.034 1.113.033l-.003.007zm2.136 10.067l-.496.113c-2.521 4.86-5.03 9.89-5.596 15.427 2.226.047 4.472-.048 6.706-.002.234.005.449.107.66.116.33.01 1.859.104 1.927-.174.047-.186-.636-1.87-.735-2.24-.975-3.626-1.699-8.007-2.346-11.748-.038-.22-.07-1.437-.12-1.49v-.002z" fill="#312D2D"/><path d="M118.757 14.07c.979.811 1.57 3.325 1.692 4.575.264 2.722.022 5.902.344 8.537.048.398.294.527.338.88.091.701-.221.905-.276 1.376-.187 1.53.717 4.294.928 5.855.186 1.386-.689 2.487-1.879 1.33-.213-.983-.585-2.03-.76-3.013-.128-.72-.215-1.674-.328-2.447-.044-.304.065-.821-.066-1.043-.27-.458-2.457-.142-2.993-.111-1.019.062-1.923-.091-2.887.437-.166.233-.022 3.129.091 3.588.133.544.476.795.408 1.46-.093.892-.8 1.413-1.686 1.154-1.117-.327-.678-3.324-1.132-3.973-.078-.11-.171-.177-.28-.06-.115.187-.146.347-.383.393-1.054.205-1.837-.262-1.837-1.387 0-1.35 1.7-2.498 2.506-3.382.53-4.085 1.312-9.088 3.618-12.583.979-1.485 2.884-2.995 4.588-1.585h-.006zm-.067 12.944c.104-.982-.186-1.979-.226-2.938-.093-2.134.255-4.41-.401-6.481-.1-.313-.487-1.246-.866-1.244a2.406 2.406 0 00-.654.46c-1.061 1.163-3.141 7.19-3.378 8.826-.076.515.033 1.099-.113 1.636l.257.178c1.785-.275 3.569-.535 5.383-.438h-.002zm-46.801-8.549c.07.013.79.335.928.402 2.35 1.121 2.02 4.465.676 6.286-.248.335-.793.615-.98 1.03.023.127 1.082.888 1.245 1.066 1.53 1.636 2.096 5.486.012 6.868-.286.188-1.128.559-1.44.559h-6.425l-.166-.166V18.632l.166-.167h5.984zm-.776 2.11c-.698-.154-1.896.113-2.658 0l-.166.166v4.663c0 .617 2.064-.487 2.317-.675.96-.72 1.637-1.976 1.442-3.204-.055-.356-.627-.882-.935-.95zm.127 7.145c-.99-.946-1.815-.254-2.938-.025.108 1.395-.193 3.135-.02 4.487.022.178.042.351.226.44.226.109 2.348.093 2.69.029 2.401-.446 1.278-3.75.042-4.931zm85.39-9.255c.272.053 1.373.622 1.61.828 1.6 1.401 1.148 4.299-.004 5.858-.14.188-1.008.857-.979 1.03l1.94 1.976c.576 1.52 1 3.184.361 4.765-.042.104-.179.102-.212.164-.076.142-.062.324-.151.44-.295.388-1.639 1.146-2.12 1.146h-6.591v-16.04l.166-.167h5.982-.002zm-3.434 2.11l-.166.166v4.663c0 .486 1.69-.276 1.918-.409 1.141-.668 2.134-2.196 1.823-3.564-.059-.268-.735-.857-.917-.857h-2.658zm-.166 7.105v4.829l.166.166h2.769c.122 0 .935-.457 1.048-.637.791-1.25-.022-3.38-1.032-4.318-1.011-.94-1.768-.194-2.951-.04zm-97.48-9.215v8.16c0 .118.317.213.44.166.025-.12.038-.266.111-.364 1.084-1.443 2.218-2.902 3.326-4.33.084-.106.221-.068.221-.08v-3.386l.166-.166h2.271c-.035.109.111.24.111.277v15.765l-.166.167h-2.215l-.167-.167v-8.326l-.219-.113-.443.335-3.434 4.44v3.83H53.17l-.055-16.208h2.437-.002zm84.741 0v8.326l.427-.015c.065-.098.053-.264.124-.346.426-.491 3.547-4.288 3.547-4.579v-3.386h2.437c-.035.109.111.24.111.277v15.765l-.166.167h-2.216l-.166-.167v-8.326l-.274-.167-3.824 4.83v3.83h-2.382l-.166-.167V18.854c0-.06.171-.247.111-.389h2.437zm-91.055 0v16.209h-2.437V20.852c0-.14-.346-.264-.494-.282-1.04-.14-2.548.04-3.605.115v13.822l-.166.167h-2.382V18.465h9.084zm84.741 0v16.209h-2.437V20.852c0-.14-.346-.264-.494-.282-1.039-.14-2.548.04-3.605.115v13.822l-.166.167h-2.382V18.465h9.084zM78.701 32.842c-.122-.8-.822-1.765-1.56-2.1l-.106-8.673c.769-3.235 3.848-4.807 6.93-3.495 3.944 1.676 2.038 8.901 2.495 12.276-.372 1.2-.694 2.258-1.788 2.98-1.892 1.248-3.822.76-5.97.846-.06-.57.081-1.283 0-1.832v-.002zm4.367-.675c.527-.389.789-.788.941-1.443-.208-2.572.32-5.689-.002-8.194-.19-1.487-1.278-2.455-2.807-2.171-.724.135-1.568 1.268-1.697 1.963-.388 2.1.235 5.202-.022 7.41.3.474.658.768.926 1.291.39.755.304 1.812 1.445 1.65.394-.055.921-.286 1.216-.504v-.002zm80.374.675c-.122-.8-.822-1.765-1.56-2.1l-.106-8.673c1.079-5.283 8.753-5.316 9.425.224.206 1.703.195 6.617.004 8.338-.1.901-.735 2.342-1.427 2.93-1.832 1.566-4.109 1.026-6.336 1.113-.06-.57.082-1.284 0-1.832zm4.367-.675c.527-.39.789-.788.941-1.443-.177-2.576.277-5.553-.004-8.08-.173-1.548-1.19-2.57-2.805-2.283-.74.131-1.568 1.257-1.699 1.96-.388 2.101.235 5.203-.022 7.41.299.475.658.768.926 1.292.432.838.257 1.795 1.427 1.628.449-.064.901-.235 1.234-.482l.002-.002zm-24.038 9.121c.793.79.893 2.523.122 3.382-.368.41-.618.32-1.024.528-.405.21-.451.633-1.061.447-.184-.056-.299-.313-.48-.407-.266-.137-.568-.162-.807-.306-.968-.582-.977-3.337.173-3.912.494-.02.93-.673 1.314-.693.5-.029.487.284.791.44.447.23.567.12.972.524v-.003zm-2.151 2.934v-2.276c0-.094-.228-.2-.374-.156-.572.18-.705 2.658.374 2.431zm1.017-.025c.02.029.239.127.312.087.43-.245.623-2.392-.164-2.507-.235-.036-.153.082-.199.244-.111.38-.144 1.883.051 2.178v-.002zM54.83 40.89c.157.099.153.223.173.383.097.826-.151 2.01-.005 2.78.049.253.344.417.414.806.071.388.01.764.027 1.139h-.886c.069-.97-.36-.66-.937-.664-.636-.005-.904-.329-1.01.666h-.936c.05-.446-.12-1.108.122-1.49.122-.19.366-.195.49-.508.399-.995.075-2.2.55-3.113h1.993l.005.002zm-.72 3.276v-1.998c0-.082-.184-.418-.277-.498-.534-.004-.372 2.056-.596 2.487.055.235.514.2.689.158l.184-.149zm104.201.797c-.543.466-1.732.484-2.375.229-.321-.722-.042-1.535-.037-2.236.004-.702-.337-1.566.117-2.236.93-.158 2.182-.169 2.577.868.299.79-.233.904-.242 1.246-.013.464 1.026 1.216-.038 2.13h-.002zm-.769-3.155c-.15-.109-.456-.229-.584-.033-.098.186-.105.715.119.781l.554-.337-.089-.411zm.014 1.652c-.605-.378-1.181.877-.262.884.59.004.392-.802.262-.884zM56.99 42.723c.01.04.184.195.22.166.238-.775.688-2.735 1.754-1.71-.364.675.299 3.722-.162 4.053-.16.126-.815.157-.815-.065v-1.665c0-.018-.109-.324-.22-.278-.095.376-.64 1.903-.886 2.054-.246.151-.77.076-.866-.246-.07-.244-.07-3.597 0-3.841.135-.46.975-.333.975-.134.077.469-.104 1.25 0 1.666zm104.757-2.03c2.143-.484 2.158 1.626 2.03 3.144-.18 2.114-2.77 1.823-3.082.418-.075-.34-.078-2.176.004-2.503.096-.38.656-.97 1.048-1.059zm.92 3.473v-2.331c0-.22-.738-.231-.895.017-.158.249-.147 1.819-.053 2.156.108.4.866.427.948.158zm-9.341-3.129c.091.08.342.458.366.578.06.308.053 2.593-.022 2.86-.328 1.16-2.732 1.159-2.964-.09-.069-.363-.065-2.555.022-2.86.272-.963 1.894-1.116 2.598-.488zm-1.626.798v2.331c.222.258.776.258.997 0v-2.331c-.142-.258-.924-.24-.997 0zm-90.944 2.498l.702-.018.184-.149v-3.109c0-.242.84-.197.89.018.107.88-.159 2.15 0 2.978.059.304.355.364.42.58.11.372-.034.958.022 1.365h-.997l-.104-.62c-.266-.19-2 .176-2-.326V41c.214-.151.885-.116.885.166v3.164l-.002.003zm3.656-1.443l.494-.56c.175-.65.516-1.9 1.402-1.28v4.013c-.044.382-.656.317-.789.073-.243-.45-.013-1.043.005-1.523.004-.122.068-.422-.115-.39-.41.419-.561 1.614-.889 1.94-.204.2-.884.242-.884 0v-4.108c0-.293.776-.142.776.111v1.723zm29.908.277a3.513 3.513 0 00-.14-.415c-.24-.553-.312.364-.354.475-.06.153-.21.264-.25.415-.1.375-.109.841-.158 1.23a.712.712 0 01-.744 0c.073-.273-.505-2.311-.625-2.311-.638.788.162 2.06-.664 2.66l-.277-.389.235-4.037c1.595-.65 1.036 2.019 1.703 2.871.129 0 .421-.908.465-1.085.207-.813.036-2.376 1.259-1.735.007.513-.033 1.033-.007 1.546.036.642.264 1.75.23 2.333-.041.729-.675.367-.675.222 0-.535.069-1.278 0-1.776l.002-.004zm31.876-2.361c.191.331.197.744.027 1.082.093-.009.197.018.281.007.288-.04.432-1 .713-1.173.189-.115.8-.12.88.124.115.354-.893 1.52-.973 1.97l1.265 2.287c-.31.56-.926.146-1.212-.231-.186-.244-.598-1.568-.788-.88-.109.387-.011.82-.193 1.198-.237.173-.656.222-.804-.083-.089-.182-.118-3.705-.051-4.047.086-.458.52-.476.857-.254h-.002zm10.065-.122c.505-.175.839.05 1.014.509.28.737.61 2.276.787 3.097.058.271.244.928-.06 1.03-.791.263-.762-.71-1.309-.772-.722-.082-.483.195-.674.56-.159.304-.822.341-.921.044-.178-.544.164-.92.268-1.366.055-.237.02-.484.075-.701.18-.713.512-1.492.658-2.227.02-.091.071-.142.16-.174h.002zm-4.706 3.109l-.235 1.374c-.405.225-.76.333-.926-.186-.166-.52-.135-2.973-.073-3.59.022-.207.087-.638.293-.707.496-.166 1.542 0 2 .298 1.48.957.625 3.006-1.059 2.81zm-.126-.904c1.07.171 1.205-1.188.179-1.214l-.161.175-.016 1.04h-.002zm-62.945-2.087c1.765-.21 1.694 1.93 1.575 3.142-.067.664-.328 1.257-1.057 1.383-1.83.318-1.945-1.59-1.821-2.933.077-.832.4-1.48 1.303-1.59v-.002zm.212.88c-.474.033-.51.887-.523 1.258-.022.604-.06 1.779.838 1.284.259-.395.326-2.587-.313-2.543h-.002zm11.934-.392c.096.1.287.12.289.32l-.025 2.978c-.73 1.185-2.492.986-2.716-.45-.128-.825-.195-2.657.596-3.118.694-.407 1.33-.282 1.857.27zm-.721 3.03c.137-.116.42-2.774-.479-2.65-.423.093-.268 2.092-.268 2.48.084.26.518.198.749.17h-.002zm-5.306-3.263c.09-.29.775-.175.943.054l.071 1.372.262.19.332-.117c.304-.306.093-1.13.18-1.54.17-.143.87-.2.87.04v4.107c0 .238-.7.18-.87.04-.091-.429.132-1.337-.18-1.652-1.041-.544-.374 1.203-.749 1.639-.16.186-.86.19-.86-.027v-4.108.002zm-3.656 0c.091-.29.775-.175.942.054.259.44-.32 1.332.332 1.563.702.07.445-1.224.514-1.657.17-.142.87-.2.87.04v4.108c0 .238-.7.18-.87.04-.09-.428.133-1.334-.18-1.652-1.174-.484-.352 1.18-.748 1.639-.16.186-.86.19-.86-.027v-4.108zm95.209-.388h1.994c.813 1.412-.722.81-1.059 1.048-.173.204-.184.74.078.824.387-.014 1.36-.063 1.14.613-.119.366-.961.048-1.216.228-.175.122-.186.864.078.935.286.064.598-.022.877.009.764.086.403 1.006.215 1.006h-2.105l-.166-.167v-4.33l.166-.166h-.002zM51.451 45.218c-.94.524-.908-.617-1.389-.666-.85.031-.547 1.186-1.6.664l.909-4.02c.146-.463.953-.392 1.172-.005l.908 4.027zm-5.233-.026c-.102.12-.523.18-.675.129-.51-.171-.171-1.521-.173-1.934-.007-.758-.233-1.546.006-2.314.105-.333 1.682-.195 2.005-.044.184.086.599.619.634.808.281 1.474-.445 1.818-1.673 2.21-.197.226.155.82-.126 1.145h.002zm.302-3.517c-.242.018-.583 1.394.108 1.33.61-.058.525-1.206-.108-1.33zm65.856 3.545l-.778-.301.014-4.128.762-.122c.051.408-.151 1.614.221 1.832h.778c.405-.2.153-1.306.219-1.723h.776v4.33h-.776v-1.721c-.172-.329-1.218-.178-1.218.11v1.721l.002.003zm-22.598-4.44v4.163c0 .087-.496.524-.64-.135-.175-.802.242-1.59-.026-2.363-.838.557-.805 1.828-1.345 2.645-.257.05-.587.082-.758-.147V40.78h.776c.183.937-.326 1.81-.111 2.664.687-.235.51-.68.695-1.132.09-.218.603-1.445.658-1.505.184-.198.519-.03.75-.025l.001-.002zm9.305 0v4.33l-.775.11v-3.718c0-.371-1.219-.371-1.219 0v3.608h-.775v-4.33c.906-.189 1.857-.142 2.77 0zm-17.003.11h1.883c.038 0 .235.223.26.3.272.933-1.434.005-1.434.978 0 .821 1.092.28 1.22.68.29.894-1.214.257-1.22 1.096-.005.597.611.324 1.039.413.713.15.348.975.135.975H82.08l-.166-.167v-4.108l.166-.166zm36.245 3.633c-.04.091-.732.593-.858.635-1.393.46-2.027-1.592-1.87-2.65.158-1.06 1.002-2.372 2.205-1.668.48.282.901 1.452.899 1.994 0 .155-.317 1.552-.376 1.687v.002zm-1.332-3.284c-.868.263-.815 3.413.195 3.322.689-.062.689-1.892.62-2.398-.046-.344-.392-1.05-.815-.923zm-14.092.047c.024.036.126.031.161.133.162.447.169 1.799.118 2.3-.12 1.164-1.219 2.039-2.216 1.113-1.351-1.252-.576-4.856 1.394-4.061.261.104.394.293.54.513l.003.002zm-.743.076c-.534-.453-1.005.455-1.072.925-.113.802-.102 1.821.598 2.35.754.06.92-1.812.827-2.352-.014-.08-.315-.892-.353-.923zm44.806 3.83c-.328-1.08 0-2.236-.155-3.34l-.769-.34c-.169-.186-.102-.57.064-.734.151-.151 2.136-.17 2.417-.087.348.102.366.584.25.873l-.735.15c-.299.203.055 2.796-.122 3.32-.109.318-.707.37-.953.156l.003.002zm-42.338.024c-.221-.897 0-1.8 0-2.72 0-.548-.261-1.066-.008-1.636 1.22-.575 2.811.066 2.412 1.616-.239.926-1.201.697-1.531 1.02-.529.517.257 1.847-.875 1.722l.002-.002zm1.518-3.854c-.997-.86-1.258 1.862-.244 1.43.47-.203.521-1.193.244-1.43zm-63.334.695c-.01-.06-.108-.176-.13-.26l-.596-.122-.033-.604c.038-.145.135-.158.261-.182.233-.045 2.178-.023 2.278.048.439.844-.35.607-.782 1.006v3.109c0 .35-.997.35-.997 0 0-.826.126-2.263 0-2.998v.003zm77.099-1.222c.075-.244 1.77-.282 1.869.014l.014.375-.886.056c-.561.725-.191 1.494.777 1.276v.558c-.853-.127-1.159.195-.995 1.052.144.746 1.633.031.977 1.048-.046.033-.124-.102-.15-.102h-1.606v-4.277zm-10.967.889c0-.362-.698-.476-.986-.511v-.42c.115-.142 2.258-.193 2.431-.073.183.127.17.513-.082.595-.191.062-.488-.051-.574.202-.175.897.193 2.487-.038 3.293-.084.288-.461.475-.751.413v-3.5zm63.005 1.076c.275.489-.58 1.586-1.251.98-.55-.498-.291-1.273.381-1.393.135-.024.839.358.87.413zm-131.593-.115l-.089 1.04c-.926.432-1.446-.063-1.207-1.044.53-.163.782-.34 1.296.006v-.002z" fill="#312D2D"/></svg>