<svg width="747" height="429" viewBox="0 0 747 429" fill="none" xmlns="http://www.w3.org/2000/svg">
<path d="M3.66317 298.302L126.377 326.123C127.105 326.296 127.864 326.296 128.593 326.123L310.557 278.448C311.094 278.305 311.653 278.261 312.206 278.32L579.996 306.58C580.498 306.624 581.004 306.593 581.498 306.489L803.115 257.586C804.152 257.368 805.083 256.799 805.75 255.975C806.417 255.151 806.78 254.123 806.778 253.063V227.531C806.779 226.883 806.644 226.243 806.382 225.651C806.119 225.059 805.736 224.528 805.256 224.093C804.777 223.658 804.211 223.329 803.596 223.126C802.981 222.923 802.331 222.851 801.686 222.915L580.747 245.187C580.516 245.215 580.282 245.215 580.051 245.187L315.466 231.56C314.908 231.541 314.351 231.615 313.817 231.78L128.428 291.104C127.723 291.323 126.978 291.379 126.249 291.269L5.49471 270.865C4.82298 270.738 4.13146 270.761 3.46974 270.933C2.80802 271.105 2.1925 271.421 1.66732 271.858C1.14213 272.296 0.72029 272.845 0.432041 273.464C0.143791 274.084 -0.0037242 274.76 7.14306e-05 275.444V293.759C0.000879977 294.821 0.364619 295.85 1.03092 296.676C1.69722 297.503 2.62602 298.076 3.66317 298.302Z" fill="#EE3A23"/>
<path d="M4.63686 243.151L126.252 256.576C126.983 256.65 127.723 256.557 128.413 256.302L313.839 186.227C314.355 186.038 314.9 185.939 315.45 185.934L580.402 183.901L802.111 186.868C802.724 186.875 803.332 186.761 803.901 186.531C804.469 186.301 804.987 185.961 805.423 185.53C805.859 185.099 806.205 184.586 806.442 184.02C806.678 183.454 806.799 182.847 806.799 182.234V155.732C806.8 154.604 806.389 153.515 805.643 152.669C804.898 151.823 803.87 151.277 802.752 151.134L580.86 122.617C580.561 122.59 580.261 122.59 579.962 122.617L315.432 139.889C314.895 139.925 314.368 140.056 313.875 140.273L128.376 221.447C127.708 221.74 126.98 221.872 126.252 221.832L5.49769 215.129C4.85349 215.08 4.20626 215.166 3.59725 215.382C2.98824 215.598 2.43079 215.938 1.96041 216.38C1.49003 216.823 1.11703 217.359 0.865172 217.954C0.613315 218.549 0.488122 219.19 0.497568 219.836V238.609C0.517412 239.74 0.948593 240.825 1.71045 241.661C2.47231 242.497 3.51265 243.027 4.63686 243.151Z" fill="#EE3A23"/>
<path d="M5.16796 187.949L126.38 187.088C127.085 187.09 127.781 186.927 128.413 186.612L313.912 94.5952C314.378 94.3665 314.88 94.2179 315.395 94.1556L579.907 61.3343C580.458 61.2331 581.023 61.2331 581.574 61.3343L801.066 114.852C801.749 115.019 802.46 115.028 803.146 114.879C803.833 114.731 804.477 114.428 805.029 113.994C805.581 113.56 806.027 113.006 806.334 112.374C806.641 111.742 806.8 111.049 806.799 110.346V83.8623C806.797 82.91 806.502 81.9814 805.955 81.2018C805.408 80.4223 804.635 79.8294 803.74 79.5032L583.607 0.32545C582.845 0.0251057 582.018 -0.0696391 581.208 0.0507181L315.359 48.5134C314.862 48.6016 314.385 48.7751 313.948 49.0263L128.211 151.684C127.649 152.003 127.024 152.197 126.38 152.252L4.83828 160.201C3.65125 160.276 2.53855 160.805 1.73053 161.678C0.922506 162.551 0.481038 163.701 0.497515 164.89V183.389C0.521546 184.61 1.02478 185.772 1.89858 186.625C2.77239 187.479 3.94667 187.954 5.16796 187.949Z" fill="#EE3A23"/>
<path d="M314.635 328.52V365.151C314.634 366.209 314.998 367.234 315.665 368.055C316.332 368.876 317.262 369.442 318.298 369.656L579.312 428.889C580.289 429.106 581.309 429.003 582.224 428.596L804.061 329.857C804.878 329.487 805.572 328.89 806.06 328.137C806.547 327.383 806.807 326.505 806.808 325.608V299.655C806.807 298.923 806.633 298.201 806.299 297.55C805.965 296.898 805.482 296.335 804.889 295.906C804.296 295.477 803.609 295.195 802.886 295.082C802.162 294.97 801.423 295.03 800.727 295.259L581.509 367.532C580.789 367.77 580.022 367.826 579.275 367.697L320.038 323.959C319.374 323.848 318.694 323.882 318.045 324.059C317.396 324.237 316.794 324.554 316.28 324.988C315.766 325.422 315.352 325.963 315.068 326.573C314.784 327.183 314.636 327.847 314.635 328.52Z" fill="#EE3A23"/>
<path d="M0.497401 127.967V109.798C0.497254 108.712 0.878631 107.66 1.57493 106.827C2.27124 105.993 3.23822 105.431 4.30702 105.237L121.892 83.7351C122.562 83.6118 123.251 83.637 123.91 83.809C124.569 83.981 125.182 84.2956 125.706 84.7306C126.23 85.1656 126.652 85.7103 126.943 86.3263C127.233 86.9424 127.385 87.6146 127.387 88.2957V113.388C127.383 114.517 126.968 115.606 126.22 116.452C125.471 117.298 124.441 117.843 123.321 117.985L5.73562 132.637C5.07582 132.721 4.4057 132.663 3.77047 132.466C3.13524 132.268 2.54966 131.937 2.05322 131.495C1.55678 131.052 1.16102 130.508 0.892638 129.9C0.624252 129.291 0.489477 128.632 0.497401 127.967Z" fill="#EE3A23"/>
</svg>
