<svg width="231" height="38" viewBox="0 0 231 38" fill="none" xmlns="http://www.w3.org/2000/svg">
<path d="M0.294212 24.0859L10.1501 26.3204C10.2086 26.3343 10.2696 26.3343 10.3281 26.3204L24.9428 22.4913C24.986 22.4798 25.0308 22.4763 25.0752 22.481L46.5832 24.7508C46.6235 24.7543 46.6642 24.7518 46.7038 24.7434L64.5033 20.8158C64.5866 20.7982 64.6613 20.7525 64.7149 20.6863C64.7685 20.6202 64.7976 20.5376 64.7975 20.4524V18.4018C64.7975 18.3498 64.7867 18.2984 64.7656 18.2508C64.7446 18.2033 64.7138 18.1607 64.6753 18.1257C64.6368 18.0908 64.5913 18.0643 64.5419 18.048C64.4926 18.0317 64.4403 18.026 64.3886 18.0311L46.6435 19.8199C46.6249 19.8221 46.6062 19.8221 46.5876 19.8199L25.3371 18.7254C25.2923 18.7239 25.2475 18.7298 25.2047 18.7431L10.3149 23.5078C10.2583 23.5254 10.1984 23.5299 10.1398 23.521L0.441315 21.8823C0.387364 21.8721 0.331824 21.8739 0.278677 21.8877C0.22553 21.9015 0.176094 21.9269 0.133913 21.9621C0.0917319 21.9972 0.0578511 22.0413 0.0347 22.091C0.0115488 22.1408 -0.000299114 22.1951 5.73705e-06 22.25V23.7211C7.06766e-05 23.8063 0.0292849 23.889 0.0827999 23.9553C0.136315 24.0217 0.210912 24.0678 0.294212 24.0859Z" fill="white"/>
<path d="M0.372532 19.6571L10.1402 20.7354C10.199 20.7413 10.2583 20.7338 10.3138 20.7133L25.2065 15.0851C25.248 15.07 25.2918 15.062 25.3359 15.0616L46.6159 14.8983L64.4227 15.1366C64.472 15.1372 64.5209 15.128 64.5665 15.1096C64.6122 15.0911 64.6537 15.0638 64.6888 15.0292C64.7238 14.9946 64.7516 14.9534 64.7706 14.9079C64.7896 14.8625 64.7993 14.8137 64.7993 14.7645V12.6359C64.7993 12.5453 64.7663 12.4579 64.7065 12.3899C64.6466 12.3219 64.5641 12.2781 64.4742 12.2667L46.6527 9.97625C46.6287 9.97406 46.6046 9.97406 46.5806 9.97625L25.3345 11.3634C25.2913 11.3664 25.249 11.3768 25.2094 11.3943L10.3108 17.9139C10.2571 17.9374 10.1987 17.948 10.1402 17.9448L0.441671 17.4064C0.389931 17.4026 0.337948 17.4095 0.289034 17.4268C0.240121 17.4441 0.195348 17.4714 0.157569 17.507C0.11979 17.5425 0.0898318 17.5856 0.0696036 17.6334C0.0493754 17.6811 0.0393204 17.7326 0.040079 17.7845V19.2923C0.0416728 19.3831 0.0763037 19.4703 0.137493 19.5374C0.198683 19.6046 0.28224 19.6471 0.372532 19.6571Z" fill="white"/>
<path d="M0.415188 15.2233L10.1505 15.1542C10.2071 15.1543 10.263 15.1412 10.3138 15.1159L25.2124 7.72547C25.2498 7.70711 25.2901 7.69517 25.3315 7.69017L46.5762 5.05408C46.6204 5.04595 46.6658 5.04595 46.71 5.05408L64.3389 9.35243C64.3937 9.36581 64.4508 9.36656 64.5059 9.35461C64.5611 9.34267 64.6128 9.31835 64.6571 9.28349C64.7015 9.24863 64.7373 9.20415 64.762 9.1534C64.7866 9.10265 64.7994 9.04697 64.7993 8.99056V6.86345C64.7991 6.78696 64.7755 6.71238 64.7315 6.64977C64.6876 6.58716 64.6255 6.53954 64.5536 6.51334L46.8733 0.154069C46.8121 0.129946 46.7457 0.122337 46.6806 0.132003L25.3286 4.02435C25.2887 4.03143 25.2504 4.04537 25.2153 4.06554L10.2976 12.3107C10.2524 12.3363 10.2022 12.3518 10.1505 12.3563L0.388709 12.9947C0.293371 13.0007 0.204003 13.0432 0.139106 13.1133C0.0742085 13.1834 0.0387514 13.2758 0.0400748 13.3713V14.857C0.0420049 14.9551 0.0824227 15.0485 0.152604 15.117C0.222784 15.1855 0.317099 15.2237 0.415188 15.2233Z" fill="white"/>
<path d="M25.2705 26.5132V29.4553C25.2704 29.5403 25.2996 29.6227 25.3532 29.6886C25.4068 29.7545 25.4815 29.7999 25.5647 29.8172L46.5284 34.5745C46.6069 34.5919 46.6889 34.5837 46.7623 34.551L64.5794 26.6206C64.6451 26.591 64.7008 26.543 64.74 26.4825C64.7791 26.4219 64.8 26.3514 64.8001 26.2794V24.1949C64.8 24.1361 64.786 24.0782 64.7592 24.0258C64.7324 23.9735 64.6936 23.9282 64.6459 23.8938C64.5983 23.8594 64.5432 23.8367 64.4851 23.8277C64.427 23.8186 64.3676 23.8235 64.3117 23.8419L46.7049 29.6465C46.6471 29.6656 46.5854 29.6702 46.5254 29.6598L25.7045 26.147C25.6512 26.138 25.5966 26.1407 25.5444 26.155C25.4923 26.1693 25.4439 26.1947 25.4026 26.2296C25.3613 26.2644 25.3281 26.3079 25.3053 26.3568C25.2825 26.4058 25.2706 26.4592 25.2705 26.5132Z" fill="white"/>
<path d="M0.0400656 10.4054V8.94614C0.0400538 8.8589 0.0706846 8.77444 0.126609 8.70749C0.182534 8.64054 0.260198 8.59537 0.34604 8.57985L9.79007 6.85286C9.84386 6.84295 9.89918 6.84498 9.9521 6.85879C10.005 6.87261 10.0543 6.89788 10.0964 6.93281C10.1385 6.96775 10.1724 7.0115 10.1957 7.06097C10.219 7.11045 10.2312 7.16445 10.2314 7.21915V9.23446C10.231 9.32516 10.1977 9.41263 10.1376 9.48056C10.0775 9.5485 9.99478 9.59226 9.90481 9.60369L0.460781 10.7805C0.407788 10.7872 0.353966 10.7825 0.302947 10.7667C0.251927 10.7509 0.204896 10.7243 0.165023 10.6887C0.125151 10.6532 0.0933655 10.6095 0.0718096 10.5606C0.0502538 10.5117 0.0394292 10.4588 0.0400656 10.4054Z" fill="white"/>
<path d="M122.39 3.10156H128.135C128.213 3.10156 128.288 3.13256 128.343 3.18773C128.399 3.24291 128.43 3.31774 128.43 3.39577L128.412 18.8137C128.412 18.8917 128.381 18.9665 128.326 19.0217C128.271 19.0769 128.196 19.1079 128.118 19.1079H125.279C125.201 19.1079 125.126 19.0769 125.071 19.0217C125.015 18.9665 124.984 18.8917 124.984 18.8137V6.32312C124.987 6.25365 124.965 6.18545 124.923 6.13062C124.88 6.07579 124.819 6.03787 124.751 6.02359C124.683 6.00931 124.612 6.01959 124.551 6.05261C124.49 6.08563 124.442 6.13925 124.417 6.20397L118.843 18.9284C118.82 18.9827 118.781 19.0289 118.732 19.0609C118.682 19.0929 118.624 19.1093 118.565 19.1079H114.109C114.052 19.1081 113.996 19.0915 113.947 19.0601C113.899 19.0287 113.861 18.984 113.838 18.9313L108.287 6.23045C108.261 6.16573 108.214 6.11211 108.153 6.07909C108.092 6.04607 108.021 6.03579 107.953 6.05007C107.885 6.06435 107.824 6.10227 107.781 6.1571C107.738 6.21193 107.716 6.28013 107.719 6.3496V18.8137C107.719 18.8917 107.688 18.9665 107.633 19.0217C107.578 19.0769 107.503 19.1079 107.425 19.1079H104.59C104.512 19.1079 104.437 19.0769 104.382 19.0217C104.327 18.9665 104.296 18.8917 104.296 18.8137V3.39724C104.296 3.31921 104.327 3.24438 104.382 3.1892C104.437 3.13403 104.512 3.10303 104.59 3.10303H110.339C110.397 3.10274 110.455 3.11994 110.504 3.15244C110.552 3.18494 110.59 3.23125 110.613 3.28544L116.114 16.5027C116.136 16.558 116.173 16.6056 116.222 16.6391C116.271 16.6727 116.329 16.6906 116.389 16.6906C116.448 16.6906 116.506 16.6727 116.555 16.6391C116.604 16.6056 116.641 16.558 116.663 16.5027L122.12 3.28544C122.142 3.23167 122.179 3.18552 122.227 3.15281C122.275 3.12009 122.332 3.10226 122.39 3.10156Z" fill="white"/>
<path d="M150.045 3.39772V18.8141C150.045 18.8922 150.014 18.967 149.959 19.0222C149.904 19.0773 149.829 19.1083 149.751 19.1083H146.769C146.691 19.1083 146.616 19.0773 146.561 19.0222C146.506 18.967 146.475 18.8922 146.475 18.8141V6.3236C146.475 6.24558 146.444 6.17074 146.389 6.11557C146.333 6.06039 146.259 6.0294 146.181 6.0294H136.138C136.06 6.0294 135.985 6.06039 135.93 6.11557C135.875 6.17074 135.844 6.24558 135.844 6.3236V18.8141C135.844 18.8922 135.813 18.967 135.757 19.0222C135.702 19.0773 135.627 19.1083 135.549 19.1083H132.571C132.493 19.1083 132.418 19.0773 132.363 19.0222C132.307 18.967 132.276 18.8922 132.276 18.8141V3.39772C132.276 3.31969 132.307 3.24486 132.363 3.18969C132.418 3.13451 132.493 3.10352 132.571 3.10352H149.751C149.829 3.10352 149.904 3.13451 149.959 3.18969C150.014 3.24486 150.045 3.31969 150.045 3.39772Z" fill="white"/>
<path d="M153.883 18.8141V3.39772C153.883 3.31969 153.914 3.24486 153.969 3.18969C154.024 3.13451 154.099 3.10352 154.177 3.10352H169.064C169.142 3.10352 169.217 3.13451 169.272 3.18969C169.327 3.24486 169.358 3.31969 169.358 3.39772V5.59397C169.358 5.672 169.327 5.74683 169.272 5.80201C169.217 5.85718 169.142 5.88818 169.064 5.88818H157.737C157.659 5.88818 157.584 5.91918 157.529 5.97435C157.474 6.02952 157.443 6.10436 157.443 6.18239V9.34363C157.443 9.38227 157.45 9.42053 157.465 9.45622C157.48 9.49192 157.502 9.52435 157.529 9.55167C157.556 9.57899 157.589 9.60066 157.624 9.61544C157.66 9.63023 157.698 9.63784 157.737 9.63784H166.522C166.6 9.63784 166.675 9.66884 166.73 9.72401C166.785 9.77919 166.816 9.85402 166.816 9.93205V11.9915C166.816 12.0695 166.785 12.1444 166.73 12.1995C166.675 12.2547 166.6 12.2857 166.522 12.2857H157.741C157.663 12.2857 157.588 12.3167 157.533 12.3719C157.478 12.427 157.447 12.5019 157.447 12.5799V16.0192C157.447 16.0972 157.478 16.172 157.533 16.2272C157.588 16.2824 157.663 16.3134 157.741 16.3134H169.495C169.573 16.3134 169.648 16.3444 169.703 16.3996C169.758 16.4547 169.789 16.5296 169.789 16.6076V18.8141C169.789 18.8922 169.758 18.967 169.703 19.0222C169.648 19.0773 169.573 19.1083 169.495 19.1083H154.178C154.14 19.1085 154.101 19.1011 154.065 19.0864C154.03 19.0717 153.997 19.05 153.97 19.0227C153.942 18.9954 153.92 18.9629 153.905 18.9271C153.89 18.8913 153.883 18.8529 153.883 18.8141Z" fill="white"/>
<path d="M183.377 3.10156C185.221 3.10156 186.718 3.53601 187.87 4.4049C189.021 5.27379 189.596 6.55408 189.595 8.24576C189.595 9.95216 189.035 11.2133 187.915 12.0293C186.795 12.8452 185.283 13.2527 183.377 13.2517H176.516C176.438 13.2517 176.363 13.2827 176.308 13.3379C176.253 13.393 176.222 13.4679 176.222 13.5459V18.8137C176.222 18.8917 176.191 18.9665 176.136 19.0217C176.081 19.0769 176.006 19.1079 175.928 19.1079H172.95C172.872 19.1079 172.798 19.0769 172.742 19.0217C172.687 18.9665 172.656 18.8917 172.656 18.8137V3.39724C172.656 3.31921 172.687 3.24438 172.742 3.1892C172.798 3.13403 172.872 3.10303 172.95 3.10303H183.377V3.10156ZM183.193 10.4861C184.076 10.4861 184.77 10.2954 185.275 9.91391C185.78 9.53243 186.031 8.97638 186.029 8.24576C186.029 7.51319 185.778 6.96057 185.275 6.58791C184.772 6.21525 184.078 6.02843 183.193 6.02745H176.516C176.438 6.02745 176.363 6.05844 176.308 6.11362C176.253 6.16879 176.222 6.24362 176.222 6.32165V10.189C176.222 10.267 176.253 10.3419 176.308 10.397C176.363 10.4522 176.438 10.4832 176.516 10.4832L183.193 10.4861Z" fill="white"/>
<path d="M231.001 3.3977V18.8141C231.001 18.8921 230.97 18.967 230.915 19.0221C230.86 19.0773 230.785 19.1083 230.707 19.1083H227.731C227.653 19.1083 227.578 19.0773 227.523 19.0221C227.468 18.967 227.437 18.8921 227.437 18.8141V13.3213C227.437 13.2433 227.406 13.1684 227.351 13.1132C227.295 13.0581 227.221 13.0271 227.143 13.0271H222.909C222.867 13.0271 222.825 13.0362 222.787 13.0537C222.748 13.0712 222.714 13.0967 222.687 13.1286L217.515 19.0127C217.487 19.0445 217.452 19.0698 217.414 19.0871C217.375 19.1044 217.333 19.1131 217.291 19.1127H213.594C213.536 19.114 213.478 19.0976 213.429 19.0659C213.379 19.0341 213.341 18.9883 213.318 18.9344C213.295 18.8805 213.288 18.8209 213.299 18.7633C213.31 18.7057 213.338 18.6527 213.38 18.6111L218.381 13.4228C218.419 13.3837 218.446 13.3348 218.458 13.2815C218.47 13.2282 218.466 13.1726 218.449 13.121C218.431 13.0694 218.399 13.0238 218.357 12.9893C218.314 12.9548 218.263 12.9327 218.209 12.9256C216.856 12.7461 215.769 12.3126 214.949 11.6252C214.012 10.8406 213.543 9.69371 213.543 8.18444C213.543 6.52315 214.119 5.26199 215.27 4.40094C216.421 3.5399 217.919 3.10938 219.762 3.10938H230.714C230.79 3.11125 230.862 3.14228 230.915 3.19599C230.969 3.2497 231 3.32195 231.001 3.3977ZM219.934 10.3263H227.143C227.221 10.3263 227.295 10.2953 227.351 10.2401C227.406 10.1849 227.437 10.1101 227.437 10.0321V6.25591C227.437 6.17788 227.406 6.10305 227.351 6.04788C227.295 5.9927 227.221 5.96171 227.143 5.96171H219.934C219.08 5.96171 218.394 6.15784 217.875 6.55012C217.621 6.73796 217.418 6.98527 217.283 7.27028C217.147 7.55528 217.084 7.86922 217.098 8.18444C217.098 8.86994 217.353 9.40098 217.863 9.77315C218.374 10.1453 219.065 10.3263 219.934 10.3263Z" fill="white"/>
<path d="M96.974 9.28184V18.8141C96.974 18.8922 97.005 18.967 97.0602 19.0222C97.1154 19.0773 97.1902 19.1083 97.2682 19.1083H100.15C100.228 19.1083 100.303 19.0773 100.358 19.0222C100.413 18.967 100.444 18.8922 100.444 18.8141V4.59219C100.444 4.57305 100.438 4.55445 100.426 4.53904C100.415 4.52363 100.399 4.51219 100.381 4.50633C100.363 4.50047 100.343 4.5005 100.325 4.5064C100.307 4.51231 100.291 4.52379 100.279 4.53923L96.9843 9.22889C96.976 9.24521 96.9724 9.26357 96.974 9.28184Z" fill="white"/>
<path d="M195.794 12.8859V3.39772C195.794 3.31969 195.763 3.24486 195.708 3.18969C195.653 3.13451 195.578 3.10352 195.5 3.10352H192.616C192.538 3.10352 192.464 3.13451 192.408 3.18969C192.353 3.24486 192.322 3.31969 192.322 3.39772V17.4328C192.322 17.4672 192.333 17.5006 192.354 17.5283C192.374 17.556 192.403 17.5765 192.435 17.5868C192.468 17.5971 192.503 17.5968 192.536 17.5857C192.569 17.5747 192.597 17.5536 192.616 17.5255L195.769 12.9786C195.786 12.9508 195.795 12.9185 195.794 12.8859Z" fill="white"/>
<path d="M208.58 3.10156H205.41C205.363 3.1014 205.316 3.11284 205.273 3.13487C205.231 3.15691 205.195 3.1889 205.168 3.22807L194.314 18.8754C194.299 18.8975 194.291 18.9231 194.289 18.9497C194.288 18.9763 194.294 19.0027 194.306 19.0263C194.318 19.0498 194.337 19.0696 194.36 19.0834C194.382 19.0973 194.408 19.1047 194.435 19.1049H197.646C197.694 19.1053 197.741 19.094 197.784 19.072C197.827 19.0499 197.863 19.0178 197.89 18.9784L208.701 3.33105C208.716 3.30901 208.725 3.28334 208.726 3.25678C208.727 3.23022 208.722 3.20376 208.709 3.18022C208.697 3.15667 208.678 3.13692 208.656 3.12307C208.633 3.10922 208.607 3.10179 208.58 3.10156Z" fill="white"/>
<path d="M207.27 9.28979V18.8133C207.27 18.8913 207.301 18.9661 207.356 19.0213C207.411 19.0765 207.486 19.1075 207.564 19.1075H210.447C210.525 19.1075 210.6 19.0765 210.655 19.0213C210.71 18.9661 210.741 18.8913 210.741 18.8133V4.61926C210.74 4.59216 210.731 4.56597 210.715 4.54431C210.699 4.52266 210.676 4.50661 210.65 4.49837C210.624 4.49014 210.596 4.49013 210.571 4.49834C210.545 4.50656 210.522 4.5226 210.506 4.54424L207.292 9.21477C207.277 9.23706 207.269 9.26316 207.27 9.28979Z" fill="white"/>
<path d="M85.4965 12.8432V3.39772C85.4965 3.31969 85.4655 3.24486 85.4104 3.18969C85.3552 3.13451 85.2804 3.10352 85.2023 3.10352H82.3176C82.2396 3.10352 82.1648 3.13451 82.1096 3.18969C82.0544 3.24486 82.0234 3.31969 82.0234 3.39772V17.3917C82.0269 17.4195 82.0384 17.4458 82.0563 17.4674C82.0743 17.489 82.0981 17.5049 82.1248 17.5135C82.1516 17.522 82.1802 17.5226 82.2073 17.5154C82.2345 17.5081 82.259 17.4933 82.2779 17.4726L85.4671 12.93C85.4859 12.905 85.4962 12.8745 85.4965 12.8432Z" fill="white"/>
<path d="M95.117 3.10157C95.069 3.10117 95.0217 3.11249 94.9792 3.13454C94.9366 3.15659 94.9001 3.1887 94.8728 3.22808L83.9871 18.8048C83.9688 18.8335 83.9585 18.8665 83.9572 18.9004C83.9559 18.9344 83.9636 18.9681 83.9796 18.9981C83.9957 19.028 84.0194 19.0532 84.0484 19.0709C84.0774 19.0887 84.1106 19.0984 84.1445 19.099H87.3573C87.4052 19.0994 87.4525 19.0881 87.4951 19.0661C87.5376 19.044 87.5742 19.0119 87.6015 18.9725L98.6504 3.10157H95.117Z" fill="white"/>
<path d="M85.6934 32.4597L84.3286 35.5053C84.1895 35.8174 84.0428 36.0467 83.8887 36.1934C83.7383 36.3362 83.5578 36.4077 83.3472 36.4077C83.148 36.4077 82.9882 36.3607 82.8678 36.2667L83.037 35.8606C83.1348 35.9283 83.2363 35.9621 83.3416 35.9621C83.5371 35.9621 83.6988 35.8286 83.8266 35.5617L83.8943 35.415L82.1064 32.4597H82.6479L84.1255 34.9357L85.2084 32.4597H85.6934Z" fill="white"/>
<path d="M88.9929 36.4077V32.9109H86.8497V36.4077H86.3703V32.4597H89.4723V36.4077H88.9929Z" fill="white"/>
<path d="M91.1348 36.4077H90.6554V32.4597C90.7268 32.4597 90.8941 32.4578 91.1573 32.4541C91.4243 32.4503 91.601 32.4484 91.6875 32.4484C92.2063 32.4484 92.5786 32.565 92.8042 32.7981C93.0335 33.0275 93.1482 33.3189 93.1482 33.6723C93.1482 34.0182 93.0241 34.3115 92.776 34.5521C92.5316 34.7928 92.1819 34.9131 91.7269 34.9131C91.5089 34.9131 91.3115 34.9056 91.1348 34.8905V36.4077ZM91.7326 32.8996C91.5822 32.8996 91.3829 32.9034 91.1348 32.9109V34.4337C91.3491 34.4525 91.5408 34.4619 91.71 34.4619C91.9995 34.4619 92.227 34.3923 92.3925 34.2532C92.5579 34.1103 92.6406 33.9148 92.6406 33.6667C92.6406 33.426 92.5654 33.238 92.415 33.1027C92.2646 32.9673 92.0371 32.8996 91.7326 32.8996Z" fill="white"/>
<path d="M93.1495 36.4077L94.8471 32.4372H95.2588L96.9564 36.4077H96.4432L95.9356 35.212H94.1365L93.6345 36.4077H93.1495ZM95.0389 33.0745L94.3282 34.7608H95.7495L95.0389 33.0745Z" fill="white"/>
<path d="M97.6337 36.402V32.4654C98.2202 32.4503 98.5812 32.4428 98.7165 32.4428C99.1602 32.4428 99.4817 32.5312 99.681 32.7079C99.884 32.8846 99.9855 33.1215 99.9855 33.4185C99.9855 33.6554 99.9235 33.8509 99.7994 34.0051C99.6753 34.1555 99.5118 34.2645 99.3087 34.3322V34.3435C99.5607 34.3848 99.7599 34.4863 99.9066 34.648C100.053 34.8059 100.127 35.0165 100.127 35.2797C100.127 35.6632 99.9949 35.9508 99.7317 36.1426C99.4723 36.3306 99.1264 36.4246 98.694 36.4246C98.2954 36.4246 97.942 36.4171 97.6337 36.402ZM98.7504 34.6085H98.1131V35.9508C98.286 35.9659 98.4891 35.9734 98.7222 35.9734C99.0192 35.9734 99.2467 35.9132 99.4046 35.7929C99.5663 35.6688 99.6471 35.4884 99.6471 35.2515C99.6471 35.0447 99.5682 34.8868 99.4103 34.7777C99.2561 34.6649 99.0361 34.6085 98.7504 34.6085ZM98.7053 32.894C98.5925 32.894 98.3951 32.8996 98.1131 32.9109V34.1855H98.7447C98.9628 34.1855 99.1433 34.1273 99.2862 34.0107C99.4328 33.8941 99.5061 33.7325 99.5061 33.5257C99.5061 33.1046 99.2392 32.894 98.7053 32.894Z" fill="white"/>
<path d="M103.545 36.4077V32.9109H102.113L102.045 33.6554C102 34.1442 101.942 34.5634 101.87 34.9131C101.799 35.259 101.722 35.5316 101.639 35.7309C101.556 35.9302 101.459 36.0843 101.346 36.1934C101.237 36.3024 101.13 36.3701 101.024 36.3964C100.919 36.4227 100.799 36.4265 100.663 36.4077L100.669 35.9283C100.74 35.9358 100.804 35.9302 100.861 35.9114C100.917 35.8926 100.985 35.8343 101.064 35.7365C101.147 35.635 101.218 35.494 101.278 35.3135C101.342 35.1331 101.404 34.8661 101.464 34.5127C101.524 34.1592 101.571 33.7381 101.605 33.2493L101.662 32.4597H104.025V36.4077H103.545Z" fill="white"/>
<path d="M105.207 36.4077V32.4597H107.435V32.9109H105.686V34.1855H107.265V34.6367H105.686V35.9565H107.491V36.4077H105.207Z" fill="white"/>
<path d="M111.102 36.4077V34.6198H108.93V36.4077H108.451V32.4597H108.93V34.1686H111.102V32.4597H111.581V36.4077H111.102Z" fill="white"/>
<path d="M113.186 36.4077H112.763V32.4597H113.243V35.6181L115.64 32.4597H116.063V36.4077H115.583V33.2493L113.186 36.4077Z" fill="white"/>
<path d="M117.247 36.4077V32.4597H119.475V32.9109H117.726V34.1855H119.305V34.6367H117.726V35.9565H119.531V36.4077H117.247Z" fill="white"/>
<path d="M124.408 36.4077V34.6198H122.237V36.4077H121.758V32.4597H122.237V34.1686H124.408V32.4597H124.888V36.4077H124.408Z" fill="white"/>
<path d="M126.07 36.4077V32.4597H128.298V32.9109H126.55V34.1855H128.129V34.6367H126.55V35.9565H128.354V36.4077H126.07Z" fill="white"/>
<path d="M128.807 37.1409V35.9565H129.23C129.35 35.8061 129.478 35.4996 129.613 35.0372C129.752 34.5709 129.841 33.975 129.878 33.2493L129.918 32.4597H132.241V35.9565H132.777V37.1409H132.326V36.4077H129.258V37.1409H128.807ZM130.329 33.6159C130.288 34.2175 130.207 34.7289 130.087 35.15C129.967 35.5673 129.858 35.8362 129.76 35.9565H131.762V32.9109H130.38L130.329 33.6159Z" fill="white"/>
<path d="M133.539 36.402V32.4654C134.125 32.4503 134.486 32.4428 134.622 32.4428C135.065 32.4428 135.387 32.5312 135.586 32.7079C135.789 32.8846 135.891 33.1215 135.891 33.4185C135.891 33.6554 135.829 33.8509 135.704 34.0051C135.58 34.1555 135.417 34.2645 135.214 34.3322V34.3435C135.466 34.3848 135.665 34.4863 135.812 34.648C135.958 34.8059 136.032 35.0165 136.032 35.2797C136.032 35.6632 135.9 35.9508 135.637 36.1426C135.377 36.3306 135.031 36.4246 134.599 36.4246C134.2 36.4246 133.847 36.4171 133.539 36.402ZM134.655 34.6085H134.018V35.9508C134.191 35.9659 134.394 35.9734 134.627 35.9734C134.924 35.9734 135.152 35.9132 135.31 35.7929C135.471 35.6688 135.552 35.4884 135.552 35.2515C135.552 35.0447 135.473 34.8868 135.315 34.7777C135.161 34.6649 134.941 34.6085 134.655 34.6085ZM134.61 32.894C134.498 32.894 134.3 32.8996 134.018 32.9109V34.1855H134.65C134.868 34.1855 135.048 34.1273 135.191 34.0107C135.338 33.8941 135.411 33.7325 135.411 33.5257C135.411 33.1046 135.144 32.894 134.61 32.894Z" fill="white"/>
<path d="M137.443 36.4077H137.02V32.4597H137.499V35.6181L139.896 32.4597H140.319V36.4077H139.84V33.2493L137.443 36.4077Z" fill="white"/>
<path d="M146.004 32.4597L144.407 34.3435L146.066 36.4077H145.507L143.883 34.3491L145.445 32.4597H146.004ZM143.302 36.4077V32.4597H143.781V36.4077H143.302ZM142.682 34.3491L141.086 32.4597H141.644L143.206 34.3491L141.582 36.4077H141.024L142.682 34.3491Z" fill="white"/>
<path d="M147.191 36.4077H146.768V32.4597H147.248V35.6181L149.645 32.4597H150.068V36.4077H149.588V33.2493L147.191 36.4077Z" fill="white"/>
<path d="M151.252 36.4077V32.4597H151.737L153.22 34.4845L154.641 32.4597H155.098V36.4077H154.619V33.2155L153.22 35.1782H153.147L151.731 33.2324V36.4077H151.252Z" fill="white"/>
<path d="M155.97 34.4337C155.97 33.8584 156.16 33.3771 156.54 32.9899C156.919 32.5988 157.401 32.4033 157.983 32.4033C158.563 32.4033 159.042 32.5932 159.422 32.973C159.805 33.3527 159.997 33.8396 159.997 34.4337C159.997 35.0165 159.805 35.5015 159.422 35.8888C159.038 36.2723 158.559 36.4641 157.983 36.4641C157.404 36.4641 156.923 36.2742 156.54 35.8944C156.16 35.5147 155.97 35.0278 155.97 34.4337ZM156.478 34.4337C156.478 34.8811 156.622 35.2571 156.912 35.5617C157.201 35.8625 157.559 36.0129 157.983 36.0129C158.427 36.0129 158.788 35.8625 159.066 35.5617C159.348 35.2609 159.489 34.8849 159.489 34.4337C159.489 33.9787 159.345 33.6027 159.055 33.3057C158.766 33.0049 158.408 32.8545 157.983 32.8545C157.551 32.8545 157.192 33.003 156.906 33.3001C156.62 33.5971 156.478 33.975 156.478 34.4337Z" fill="white"/>
<path d="M163.62 35.6632L163.812 36.0242C163.68 36.1595 163.502 36.2667 163.276 36.3456C163.051 36.4246 162.814 36.4641 162.566 36.4641C161.972 36.4641 161.488 36.2798 161.116 35.9114C160.748 35.5391 160.563 35.0466 160.563 34.4337C160.563 33.8509 160.74 33.3677 161.094 32.9842C161.451 32.597 161.93 32.4033 162.532 32.4033C163.036 32.4033 163.436 32.5312 163.733 32.7868L163.513 33.1478C163.25 32.9523 162.925 32.8545 162.537 32.8545C162.109 32.8545 161.757 33.0012 161.483 33.2944C161.208 33.5877 161.071 33.9675 161.071 34.4337C161.071 34.9037 161.212 35.2853 161.494 35.5786C161.78 35.8681 162.152 36.0129 162.611 36.0129C162.998 36.0129 163.335 35.8963 163.62 35.6632Z" fill="white"/>
<path d="M164.039 32.9109V32.4597H167.282V32.9109H165.9V36.4077H165.421V32.9109H164.039Z" fill="white"/>
<path d="M168.927 34.3491C168.781 34.3491 168.608 34.3604 168.409 34.3829V35.9508C168.713 35.9621 168.88 35.9678 168.91 35.9678C169.241 35.9678 169.495 35.8982 169.672 35.7591C169.852 35.6162 169.943 35.4056 169.943 35.1274C169.943 34.8755 169.854 34.6837 169.677 34.5521C169.501 34.4168 169.251 34.3491 168.927 34.3491ZM168.409 32.4597V33.9261C168.645 33.9073 168.83 33.8979 168.961 33.8979C169.458 33.8979 169.83 34.0051 170.078 34.2194C170.326 34.4337 170.45 34.7326 170.45 35.1161C170.45 35.5297 170.309 35.8512 170.027 36.0806C169.749 36.3062 169.358 36.419 168.854 36.419C168.734 36.419 168.566 36.4171 168.352 36.4133C168.138 36.4096 167.997 36.4077 167.929 36.4077V32.4597H168.409Z" fill="white"/>
<path d="M171.322 36.4077V32.4597H171.801V34.1686H172.653C172.709 33.6535 172.912 33.2305 173.262 32.8996C173.615 32.5688 174.052 32.4033 174.57 32.4033C175.146 32.4033 175.616 32.5932 175.98 32.973C176.345 33.349 176.528 33.8359 176.528 34.4337C176.528 35.0203 176.343 35.5053 175.975 35.8888C175.61 36.2723 175.142 36.4641 174.57 36.4641C174.052 36.4641 173.61 36.293 173.245 35.9508C172.884 35.6087 172.685 35.165 172.647 34.6198H171.801V36.4077H171.322ZM173.149 34.4337C173.149 34.8811 173.285 35.2571 173.555 35.5617C173.83 35.8625 174.172 36.0129 174.582 36.0129C175.025 36.0129 175.375 35.8644 175.631 35.5673C175.89 35.2703 176.02 34.8924 176.02 34.4337C176.02 33.9712 175.886 33.5933 175.62 33.3001C175.353 33.003 175.007 32.8545 174.582 32.8545C174.168 32.8545 173.826 33.003 173.555 33.3001C173.285 33.5971 173.149 33.975 173.149 34.4337Z" fill="white"/>
<path d="M127.228 26.541H125.613C125.561 26.541 125.519 26.5832 125.519 26.6352V28.2504C125.519 28.3023 125.561 28.3445 125.613 28.3445H127.228C127.28 28.3445 127.322 28.3023 127.322 28.2504V26.6352C127.322 26.5832 127.28 26.541 127.228 26.541Z" fill="white"/>
<path d="M83.001 28.9444L84.6981 25.0333H85.1097L86.8068 28.9444H86.2937L85.7863 27.7667H83.9877L83.4859 28.9444H83.001ZM84.8898 25.6611L84.1794 27.3222H85.6002L84.8898 25.6611Z" fill="white"/>
<path d="M87.9631 28.9444H87.4838V25.0556C87.5553 25.0556 87.7225 25.0537 87.9856 25.05C88.2525 25.0463 88.4292 25.0444 88.5156 25.0444C89.0344 25.0444 89.4065 25.1593 89.632 25.3889C89.8613 25.6148 89.9759 25.9019 89.9759 26.25C89.9759 26.5907 89.8519 26.8796 89.6038 27.1167C89.3595 27.3537 89.0099 27.4722 88.5551 27.4722C88.3371 27.4722 88.1398 27.4648 87.9631 27.45V28.9444ZM88.5607 25.4889C88.4104 25.4889 88.2112 25.4926 87.9631 25.5V27C88.1773 27.0185 88.369 27.0278 88.5382 27.0278C88.8276 27.0278 89.055 26.9593 89.2204 26.8222C89.3858 26.6815 89.4685 26.4889 89.4685 26.2444C89.4685 26.0074 89.3933 25.8222 89.243 25.6889C89.0926 25.5556 88.8652 25.4889 88.5607 25.4889Z" fill="white"/>
<path d="M93.6326 25.0556L92.2343 26.9667L93.6834 28.9444H93.1139L91.9186 27.3278L90.7289 28.9444H90.1651L91.6141 26.9667L90.2271 25.0556H90.7909L91.9355 26.6111L93.0632 25.0556H93.6326Z" fill="white"/>
<path d="M94.8114 28.9444H94.3885V25.0556H94.8678V28.1667L97.264 25.0556H97.6869V28.9444H97.2076V25.8333L94.8114 28.9444Z" fill="white"/>
<path d="M98.3348 25.5V25.0556H101.577V25.5H100.195V28.9444H99.7162V25.5H98.3348Z" fill="white"/>
<path d="M102.224 28.9444V25.0556H104.451V25.5H102.703V26.7556H104.282V27.2H102.703V28.5H104.507V28.9444H102.224Z" fill="white"/>
<path d="M108.354 25.0556L106.594 26.8833L108.444 28.9444H107.829L106.042 26.9167L107.773 25.0556H108.354ZM105.467 28.9444V25.0556H105.946V28.9444H105.467Z" fill="white"/>
<path d="M108.549 25.5V25.0556H111.791V25.5H110.409V28.9444H109.93V25.5H108.549Z" fill="white"/>
<path d="M115.516 25.0556L114.152 28.0556C114.013 28.363 113.866 28.5889 113.712 28.7333C113.561 28.8741 113.381 28.9444 113.171 28.9444C112.971 28.9444 112.812 28.8981 112.691 28.8056L112.86 28.4056C112.958 28.4722 113.06 28.5056 113.165 28.5056C113.36 28.5056 113.522 28.3741 113.65 28.1111L113.717 27.9667L111.93 25.0556H112.471L113.949 27.4944L115.031 25.0556H115.516Z" fill="white"/>
<path d="M116.672 28.9444H116.193V25.0556C116.264 25.0556 116.431 25.0537 116.695 25.05C116.961 25.0463 117.138 25.0444 117.225 25.0444C117.743 25.0444 118.115 25.1593 118.341 25.3889C118.57 25.6148 118.685 25.9019 118.685 26.25C118.685 26.5907 118.561 26.8796 118.313 27.1167C118.068 27.3537 117.719 27.4722 117.264 27.4722C117.046 27.4722 116.849 27.4648 116.672 27.45V28.9444ZM117.27 25.4889C117.119 25.4889 116.92 25.4926 116.672 25.5V27C116.886 27.0185 117.078 27.0278 117.247 27.0278C117.537 27.0278 117.764 26.9593 117.929 26.8222C118.095 26.6815 118.177 26.4889 118.177 26.2444C118.177 26.0074 118.102 25.8222 117.952 25.6889C117.802 25.5556 117.574 25.4889 117.27 25.4889Z" fill="white"/>
<path d="M118.686 28.9444L120.383 25.0333H120.795L122.492 28.9444H121.979L121.471 27.7667H119.673L119.171 28.9444H118.686ZM120.575 25.6611L119.865 27.3222H121.285L120.575 25.6611Z" fill="white"/>
<path d="M132.478 25.5V25.0556H135.72V25.5H134.339V28.9444H133.859V25.5H132.478Z" fill="white"/>
<path d="M136.846 28.9444H136.367V25.0556C136.438 25.0556 136.606 25.0537 136.869 25.05C137.136 25.0463 137.312 25.0444 137.399 25.0444C137.917 25.0444 138.29 25.1593 138.515 25.3889C138.744 25.6148 138.859 25.9019 138.859 26.25C138.859 26.5907 138.735 26.8796 138.487 27.1167C138.243 27.3537 137.893 27.4722 137.438 27.4722C137.22 27.4722 137.023 27.4648 136.846 27.45V28.9444ZM137.444 25.4889C137.293 25.4889 137.094 25.4926 136.846 25.5V27C137.06 27.0185 137.252 27.0278 137.421 27.0278C137.711 27.0278 137.938 26.9593 138.103 26.8222C138.269 26.6815 138.352 26.4889 138.352 26.2444C138.352 26.0074 138.276 25.8222 138.126 25.6889C137.976 25.5556 137.748 25.4889 137.444 25.4889Z" fill="white"/>
<path d="M139.371 27C139.371 26.4333 139.561 25.9593 139.941 25.5778C140.321 25.1926 140.802 25 141.384 25C141.963 25 142.442 25.187 142.822 25.5611C143.205 25.9352 143.397 26.4148 143.397 27C143.397 27.5741 143.205 28.0518 142.822 28.4333C142.439 28.8111 141.959 29 141.384 29C140.805 29 140.324 28.813 139.941 28.4389C139.561 28.0648 139.371 27.5852 139.371 27ZM139.879 27C139.879 27.4407 140.024 27.8111 140.313 28.1111C140.602 28.4074 140.96 28.5556 141.384 28.5556C141.828 28.5556 142.189 28.4074 142.467 28.1111C142.749 27.8148 142.89 27.4444 142.89 27C142.89 26.5519 142.745 26.1815 142.456 25.8889C142.166 25.5926 141.809 25.4444 141.384 25.4444C140.952 25.4444 140.593 25.5907 140.307 25.8833C140.022 26.1759 139.879 26.5481 139.879 27Z" fill="white"/>
<path d="M144.697 28.9444H144.274V25.0556H144.753V28.1667L147.149 25.0556H147.572V28.9444H147.093V25.8333L144.697 28.9444Z" fill="white"/>
<path d="M148.22 25.5V25.0556H151.462V25.5H150.081V28.9444H149.601V25.5H148.22Z" fill="white"/>
<path d="M152.109 28.9444V25.0556H154.336V25.5H152.588V26.7556H154.167V27.2H152.588V28.5H154.392V28.9444H152.109Z" fill="white"/>
<path d="M157.782 28.9444V25.5H156.35L156.282 26.2333C156.237 26.7148 156.179 27.1278 156.107 27.4722C156.036 27.813 155.959 28.0815 155.876 28.2778C155.794 28.4741 155.696 28.6259 155.583 28.7333C155.474 28.8407 155.367 28.9074 155.262 28.9333C155.156 28.9593 155.036 28.963 154.901 28.9444L154.907 28.4722C154.978 28.4796 155.042 28.4741 155.098 28.4556C155.155 28.437 155.222 28.3796 155.301 28.2833C155.384 28.1833 155.455 28.0444 155.515 27.8667C155.579 27.6889 155.641 27.4259 155.702 27.0778C155.762 26.7296 155.809 26.3148 155.842 25.8333L155.899 25.0556H158.261V28.9444H157.782Z" fill="white"/>
<path d="M160.441 26.9167C160.294 26.9167 160.121 26.9278 159.922 26.95V28.4944C160.227 28.5056 160.394 28.5111 160.424 28.5111C160.755 28.5111 161.009 28.4426 161.185 28.3056C161.366 28.1648 161.456 27.9574 161.456 27.6833C161.456 27.4352 161.368 27.2463 161.191 27.1167C161.014 26.9833 160.764 26.9167 160.441 26.9167ZM159.922 25.0556V26.5C160.159 26.4815 160.343 26.4722 160.475 26.4722C160.971 26.4722 161.343 26.5778 161.591 26.7889C161.839 27 161.963 27.2944 161.963 27.6722C161.963 28.0796 161.822 28.3963 161.54 28.6222C161.262 28.8444 160.871 28.9556 160.368 28.9556C160.247 28.9556 160.08 28.9537 159.866 28.95C159.652 28.9463 159.511 28.9444 159.443 28.9444V25.0556H159.922Z" fill="white"/>
<path d="M165.498 28.2111L165.69 28.5667C165.558 28.7 165.38 28.8056 165.154 28.8833C164.929 28.9611 164.692 29 164.444 29C163.85 29 163.367 28.8185 162.995 28.4556C162.626 28.0889 162.442 27.6037 162.442 27C162.442 26.4259 162.619 25.95 162.972 25.5722C163.329 25.1907 163.808 25 164.41 25C164.913 25 165.314 25.1259 165.611 25.3778L165.391 25.7333C165.128 25.5407 164.803 25.4444 164.415 25.4444C163.987 25.4444 163.635 25.5889 163.361 25.8778C163.087 26.1667 162.95 26.5407 162.95 27C162.95 27.463 163.09 27.8389 163.372 28.1278C163.658 28.413 164.03 28.5556 164.489 28.5556C164.876 28.5556 165.212 28.4407 165.498 28.2111Z" fill="white"/>
<path d="M165.917 25.5V25.0556H169.159V25.5H167.777V28.9444H167.298V25.5H165.917Z" fill="white"/>
<path d="M169.806 28.9389V25.0611C170.392 25.0463 170.753 25.0389 170.888 25.0389C171.332 25.0389 171.653 25.1259 171.852 25.3C172.055 25.4741 172.157 25.7074 172.157 26C172.157 26.2333 172.095 26.4259 171.971 26.5778C171.847 26.7259 171.683 26.8333 171.48 26.9V26.9111C171.732 26.9518 171.931 27.0518 172.078 27.2111C172.224 27.3667 172.298 27.5741 172.298 27.8333C172.298 28.2111 172.166 28.4944 171.903 28.6833C171.644 28.8685 171.298 28.9611 170.865 28.9611C170.467 28.9611 170.114 28.9537 169.806 28.9389ZM170.922 27.1722H170.285V28.4944C170.458 28.5093 170.661 28.5167 170.894 28.5167C171.191 28.5167 171.418 28.4574 171.576 28.3389C171.738 28.2167 171.818 28.0389 171.818 27.8056C171.818 27.6018 171.739 27.4463 171.582 27.3389C171.427 27.2278 171.208 27.1722 170.922 27.1722ZM170.877 25.4833C170.764 25.4833 170.567 25.4889 170.285 25.5V26.7556H170.916C171.134 26.7556 171.315 26.6981 171.458 26.5833C171.604 26.4685 171.677 26.3093 171.677 26.1056C171.677 25.6907 171.411 25.4833 170.877 25.4833Z" fill="white"/>
<path d="M172.975 27C172.975 26.4333 173.165 25.9593 173.545 25.5778C173.924 25.1926 174.406 25 174.988 25C175.567 25 176.046 25.187 176.426 25.5611C176.809 25.9352 177.001 26.4148 177.001 27C177.001 27.5741 176.809 28.0518 176.426 28.4333C176.042 28.8111 175.563 29 174.988 29C174.409 29 173.928 28.813 173.545 28.4389C173.165 28.0648 172.975 27.5852 172.975 27ZM173.483 27C173.483 27.4407 173.627 27.8111 173.917 28.1111C174.206 28.4074 174.563 28.5556 174.988 28.5556C175.432 28.5556 175.793 28.4074 176.071 28.1111C176.353 27.8148 176.494 27.4444 176.494 27C176.494 26.5519 176.349 26.1815 176.059 25.8889C175.77 25.5926 175.413 25.4444 174.988 25.4444C174.556 25.4444 174.197 25.5907 173.911 25.8833C173.626 26.1759 173.483 26.5481 173.483 27Z" fill="white"/>
<path d="M132.184 28.2111L132.375 28.5667C132.244 28.7 132.065 28.8056 131.84 28.8833C131.614 28.9611 131.377 29 131.129 29C130.535 29 130.052 28.8185 129.68 28.4556C129.312 28.0889 129.128 27.6037 129.128 27C129.128 26.4259 129.304 25.95 129.658 25.5722C130.015 25.1907 130.494 25 131.095 25C131.599 25 131.999 25.1259 132.296 25.3778L132.076 25.7333C131.813 25.5407 131.488 25.4444 131.101 25.4444C130.673 25.4444 130.321 25.5889 130.047 25.8778C129.772 26.1667 129.635 26.5407 129.635 27C129.635 27.463 129.776 27.8389 130.058 28.1278C130.344 28.413 130.716 28.5556 131.174 28.5556C131.562 28.5556 131.898 28.4407 132.184 28.2111Z" fill="white"/>
</svg>
