<svg width="152" height="80" viewBox="0 0 152 80" fill="none" xmlns="http://www.w3.org/2000/svg">
<path d="M0.501351 24.4443L10.5572 26.7241C10.6169 26.7384 10.6791 26.7384 10.7388 26.7241L25.6499 22.8174C25.6939 22.8056 25.7397 22.8021 25.785 22.8069L47.7292 25.1227C47.7703 25.1262 47.8118 25.1237 47.8522 25.1152L66.0127 21.1079C66.0977 21.09 66.174 21.0433 66.2286 20.9758C66.2833 20.9083 66.3131 20.824 66.3129 20.7372V18.645C66.313 18.5919 66.3019 18.5394 66.2804 18.4909C66.2589 18.4424 66.2275 18.3989 66.1882 18.3633C66.1489 18.3276 66.1026 18.3006 66.0522 18.284C66.0018 18.2674 65.9485 18.2615 65.8957 18.2667L47.7907 20.0918C47.7718 20.0941 47.7526 20.0941 47.7337 20.0918L26.0521 18.9751C26.0064 18.9735 25.9608 18.9796 25.9171 18.9932L10.7253 23.8545C10.6675 23.8724 10.6065 23.8771 10.5467 23.868L0.651438 22.196C0.596392 22.1856 0.539726 22.1875 0.485501 22.2016C0.431276 22.2156 0.380838 22.2415 0.337801 22.2774C0.294764 22.3133 0.260196 22.3582 0.236576 22.409C0.212955 22.4598 0.200867 22.5152 0.201178 22.5712V24.0721C0.201244 24.1591 0.231051 24.2434 0.285651 24.3111C0.340251 24.3788 0.416362 24.4258 0.501351 24.4443Z" fill="#EE3A23"/>
<path d="M0.579471 19.9252L10.5452 21.0254C10.6052 21.0315 10.6658 21.0238 10.7223 21.0029L25.9171 15.2606C25.9595 15.2451 26.0041 15.2369 26.0492 15.2365L47.7608 15.0699L65.9288 15.3131C65.979 15.3137 66.0289 15.3043 66.0755 15.2855C66.1221 15.2667 66.1645 15.2388 66.2002 15.2035C66.2359 15.1681 66.2643 15.1261 66.2837 15.0797C66.303 15.0334 66.313 14.9836 66.313 14.9334V12.7616C66.313 12.6692 66.2793 12.58 66.2183 12.5106C66.1572 12.4413 66.073 12.3966 65.9813 12.3849L47.7983 10.048C47.7738 10.0458 47.7492 10.0458 47.7248 10.048L26.0477 11.4634C26.0037 11.4664 25.9605 11.477 25.9201 11.4949L10.7193 18.1467C10.6646 18.1707 10.6049 18.1815 10.5452 18.1782L0.650012 17.6289C0.597223 17.625 0.544186 17.632 0.49428 17.6497C0.444374 17.6673 0.398694 17.6952 0.360148 17.7315C0.321603 17.7678 0.291037 17.8117 0.270399 17.8604C0.24976 17.9092 0.239501 17.9617 0.240275 18.0146V19.553C0.241901 19.6457 0.277235 19.7346 0.339665 19.8031C0.402096 19.8716 0.487347 19.915 0.579471 19.9252Z" fill="#EE3A23"/>
<path d="M0.622992 15.4016L10.5557 15.331C10.6135 15.3311 10.6706 15.3178 10.7223 15.292L25.9231 7.75165C25.9613 7.73291 26.0024 7.72073 26.0447 7.71562L47.7202 5.02607C47.7654 5.01778 47.8117 5.01778 47.8568 5.02607L65.8432 9.41161C65.8991 9.42525 65.9574 9.42602 66.0137 9.41383C66.0699 9.40164 66.1227 9.37683 66.1679 9.34127C66.2132 9.3057 66.2497 9.26031 66.2749 9.20854C66.3 9.15676 66.313 9.09995 66.313 9.04239V6.87214C66.3128 6.7941 66.2887 6.718 66.2438 6.65412C66.199 6.59024 66.1357 6.54166 66.0623 6.51493L48.0234 0.0266768C47.961 0.00206493 47.8932 -0.00569897 47.8268 0.00416374L26.0417 3.97546C26.001 3.98268 25.9619 3.9969 25.9261 4.01749L10.7058 12.4299C10.6597 12.456 10.6085 12.4718 10.5557 12.4764L0.595977 13.1278C0.498705 13.1339 0.407524 13.1772 0.341311 13.2488C0.275097 13.3203 0.238921 13.4145 0.240271 13.512V15.0279C0.24224 15.1279 0.283478 15.2232 0.355082 15.2931C0.426686 15.363 0.522914 15.402 0.622992 15.4016Z" fill="#EE3A23"/>
<path d="M25.9844 26.9207V29.9224C25.9843 30.0091 26.0141 30.0931 26.0688 30.1604C26.1235 30.2277 26.1997 30.274 26.2845 30.2916L47.6734 35.1454C47.7535 35.1632 47.8371 35.1548 47.9121 35.1214L66.0906 27.0302C66.1576 27 66.2145 26.951 66.2544 26.8893C66.2943 26.8275 66.3156 26.7556 66.3157 26.682V24.5553C66.3156 24.4953 66.3013 24.4362 66.274 24.3828C66.2467 24.3294 66.2071 24.2832 66.1584 24.2481C66.1098 24.2129 66.0536 24.1898 65.9943 24.1806C65.935 24.1714 65.8744 24.1764 65.8174 24.1951L47.8535 30.1175C47.7945 30.137 47.7316 30.1416 47.6704 30.131L26.4271 26.5469C26.3728 26.5378 26.317 26.5406 26.2639 26.5551C26.2107 26.5697 26.1613 26.5957 26.1192 26.6312C26.077 26.6668 26.0432 26.7111 26.0199 26.7611C25.9966 26.8111 25.9845 26.8655 25.9844 26.9207Z" fill="#EE3A23"/>
<path d="M0.240261 10.4861V8.99726C0.240249 8.90826 0.271502 8.82208 0.32856 8.75378C0.385619 8.68547 0.464859 8.63938 0.552442 8.62355L10.188 6.86153C10.2429 6.85142 10.2993 6.85349 10.3533 6.86758C10.4073 6.88168 10.4576 6.90746 10.5005 6.9431C10.5435 6.97875 10.5781 7.02339 10.6019 7.07387C10.6257 7.12435 10.6381 7.17944 10.6383 7.23525V9.29143C10.6379 9.38397 10.6039 9.47322 10.5426 9.54253C10.4813 9.61185 10.3969 9.6565 10.3051 9.66815L0.66951 10.8688C0.615442 10.8757 0.560529 10.8709 0.508475 10.8548C0.45642 10.8386 0.408435 10.8115 0.367754 10.7752C0.327073 10.7389 0.294642 10.6944 0.272649 10.6445C0.250656 10.5946 0.239612 10.5406 0.240261 10.4861Z" fill="#EE3A23"/>
<path d="M41.1872 44.579H47.0496C47.1292 44.579 47.2056 44.6107 47.2619 44.667C47.3182 44.7233 47.3498 44.7996 47.3498 44.8792L47.3318 60.6098C47.3318 60.6894 47.3002 60.7658 47.2439 60.8221C47.1876 60.8784 47.1112 60.91 47.0316 60.91H44.135C44.0553 60.91 43.979 60.8784 43.9227 60.8221C43.8664 60.7658 43.8348 60.6894 43.8348 60.6098V47.8659C43.8376 47.7951 43.8152 47.7255 43.7716 47.6695C43.7279 47.6136 43.6659 47.5749 43.5965 47.5603C43.5271 47.5458 43.4547 47.5563 43.3923 47.5899C43.3299 47.6236 43.2814 47.6783 43.2554 47.7444L37.5687 60.7269C37.5452 60.7823 37.5056 60.8294 37.455 60.8621C37.4044 60.8947 37.3452 60.9114 37.285 60.91H32.7389C32.6803 60.9102 32.6229 60.8932 32.5738 60.8612C32.5248 60.8292 32.4861 60.7836 32.4627 60.7299L26.7984 47.7714C26.7725 47.7054 26.724 47.6506 26.6616 47.617C26.5991 47.5833 26.5268 47.5728 26.4574 47.5874C26.388 47.6019 26.3259 47.6406 26.2823 47.6965C26.2387 47.7525 26.2163 47.8221 26.2191 47.893V60.6098C26.2191 60.6894 26.1875 60.7658 26.1312 60.8221C26.0749 60.8784 25.9985 60.91 25.9189 60.91H23.0267C22.9471 60.91 22.8708 60.8784 22.8145 60.8221C22.7582 60.7658 22.7266 60.6894 22.7266 60.6098V44.8807C22.7266 44.8011 22.7582 44.7248 22.8145 44.6685C22.8708 44.6122 22.9471 44.5805 23.0267 44.5805H28.8921C28.9519 44.5802 29.0104 44.5978 29.0601 44.631C29.1099 44.6641 29.1486 44.7114 29.1713 44.7666L34.7845 58.2519C34.8064 58.3084 34.8448 58.3569 34.8948 58.3912C34.9448 58.4254 35.0039 58.4437 35.0645 58.4437C35.125 58.4437 35.1841 58.4254 35.2341 58.3912C35.2841 58.3569 35.3225 58.3084 35.3444 58.2519L40.9126 44.7666C40.9348 44.7118 40.9727 44.6647 41.0216 44.6313C41.0704 44.5979 41.1281 44.5798 41.1872 44.579Z" fill="#191919"/>
<path d="M69.4005 44.8807V60.6098C69.4005 60.6894 69.3688 60.7657 69.3125 60.822C69.2563 60.8783 69.1799 60.91 69.1003 60.91H66.058C65.9784 60.91 65.9021 60.8783 65.8458 60.822C65.7895 60.7657 65.7579 60.6894 65.7579 60.6098V47.8659C65.7579 47.7863 65.7262 47.7099 65.6699 47.6537C65.6137 47.5974 65.5373 47.5657 65.4577 47.5657H55.2113C55.1317 47.5657 55.0553 47.5974 54.999 47.6537C54.9427 47.7099 54.9111 47.7863 54.9111 47.8659V60.6098C54.9111 60.6894 54.8795 60.7657 54.8232 60.822C54.7669 60.8783 54.6905 60.91 54.6109 60.91H51.5717C51.492 60.91 51.4157 60.8783 51.3594 60.822C51.3031 60.7657 51.2715 60.6894 51.2715 60.6098V44.8807C51.2715 44.8011 51.3031 44.7247 51.3594 44.6684C51.4157 44.6121 51.492 44.5805 51.5717 44.5805H69.1003C69.1799 44.5805 69.2563 44.6121 69.3125 44.6684C69.3688 44.7247 69.4005 44.8011 69.4005 44.8807Z" fill="#191919"/>
<path d="M73.3164 60.6098V44.8807C73.3164 44.8011 73.348 44.7247 73.4043 44.6684C73.4606 44.6121 73.537 44.5805 73.6166 44.5805H88.8054C88.885 44.5805 88.9613 44.6121 89.0176 44.6684C89.0739 44.7247 89.1056 44.8011 89.1056 44.8807V47.1215C89.1056 47.2011 89.0739 47.2774 89.0176 47.3337C88.9613 47.39 88.885 47.4216 88.8054 47.4216H77.2487C77.1691 47.4216 77.0927 47.4533 77.0364 47.5096C76.9801 47.5659 76.9485 47.6422 76.9485 47.7218V50.9472C76.9485 50.9866 76.9563 51.0256 76.9714 51.0621C76.9865 51.0985 77.0086 51.1316 77.0364 51.1594C77.0643 51.1873 77.0974 51.2094 77.1338 51.2245C77.1702 51.2396 77.2093 51.2474 77.2487 51.2474H86.2119C86.2915 51.2474 86.3678 51.279 86.4241 51.3353C86.4804 51.3916 86.512 51.4679 86.512 51.5475V53.6488C86.512 53.7284 86.4804 53.8047 86.4241 53.861C86.3678 53.9173 86.2915 53.9489 86.2119 53.9489H77.2532C77.1736 53.9489 77.0972 53.9805 77.0409 54.0368C76.9846 54.0931 76.953 54.1695 76.953 54.2491V57.7581C76.953 57.8377 76.9846 57.9141 77.0409 57.9704C77.0972 58.0267 77.1736 58.0583 77.2532 58.0583H89.2451C89.3247 58.0583 89.4011 58.0899 89.4574 58.1462C89.5137 58.2025 89.5453 58.2789 89.5453 58.3585V60.6098C89.5453 60.6894 89.5137 60.7657 89.4574 60.822C89.4011 60.8783 89.3247 60.91 89.2451 60.91H73.6181C73.5785 60.9102 73.5393 60.9025 73.5028 60.8875C73.4662 60.8725 73.4329 60.8505 73.4049 60.8226C73.3768 60.7947 73.3546 60.7615 73.3394 60.725C73.3242 60.6885 73.3164 60.6493 73.3164 60.6098Z" fill="#191919"/>
<path d="M103.409 44.579C105.29 44.579 106.818 45.0223 107.993 45.9088C109.167 46.7953 109.754 48.1016 109.753 49.8276C109.753 51.5686 109.182 52.8553 108.039 53.6878C106.897 54.5203 105.353 54.936 103.409 54.935H96.409C96.3294 54.935 96.253 54.9667 96.1967 55.023C96.1404 55.0792 96.1088 55.1556 96.1088 55.2352V60.6098C96.1088 60.6894 96.0772 60.7658 96.0209 60.8221C95.9646 60.8784 95.8882 60.91 95.8086 60.91H92.7709C92.6913 60.91 92.6149 60.8784 92.5586 60.8221C92.5023 60.7658 92.4707 60.6894 92.4707 60.6098V44.8807C92.4707 44.8011 92.5023 44.7248 92.5586 44.6685C92.6149 44.6122 92.6913 44.5805 92.7709 44.5805H103.409V44.579ZM103.221 52.1134C104.122 52.1134 104.83 51.9188 105.345 51.5296C105.86 51.1403 106.117 50.573 106.115 49.8276C106.115 49.0801 105.858 48.5163 105.345 48.1361C104.832 47.7559 104.124 47.5653 103.221 47.5643H96.409C96.3294 47.5643 96.253 47.5959 96.1967 47.6522C96.1404 47.7085 96.1088 47.7848 96.1088 47.8644V51.8102C96.1088 51.8898 96.1404 51.9662 96.1967 52.0225C96.253 52.0788 96.3294 52.1104 96.409 52.1104L103.221 52.1134Z" fill="#191919"/>
<path d="M152 44.8805V60.6096C152 60.6892 151.968 60.7656 151.912 60.8219C151.856 60.8782 151.779 60.9098 151.7 60.9098H148.663C148.584 60.9098 148.507 60.8782 148.451 60.8219C148.395 60.7656 148.363 60.6892 148.363 60.6096V55.0054C148.363 54.9258 148.332 54.8494 148.275 54.7931C148.219 54.7368 148.143 54.7052 148.063 54.7052H143.744C143.701 54.7052 143.658 54.7145 143.619 54.7324C143.58 54.7502 143.545 54.7763 143.517 54.8088L138.24 60.8122C138.211 60.8446 138.176 60.8705 138.137 60.8881C138.098 60.9058 138.055 60.9147 138.012 60.9143H134.24C134.18 60.9156 134.121 60.8989 134.071 60.8665C134.021 60.8341 133.981 60.7873 133.958 60.7323C133.934 60.6773 133.928 60.6165 133.939 60.5578C133.95 60.499 133.979 60.4449 134.021 60.4025L139.124 55.1089C139.163 55.0691 139.19 55.0192 139.202 54.9648C139.214 54.9104 139.211 54.8537 139.193 54.8011C139.175 54.7484 139.142 54.7019 139.099 54.6666C139.056 54.6314 139.004 54.6089 138.948 54.6016C137.567 54.4185 136.459 53.9763 135.622 53.2749C134.666 52.4744 134.188 51.3042 134.188 49.7643C134.188 48.0694 134.775 46.7826 135.95 45.9041C137.124 45.0256 138.652 44.5863 140.533 44.5863H151.707C151.784 44.5883 151.858 44.6199 151.913 44.6747C151.967 44.7295 151.998 44.8032 152 44.8805ZM140.709 51.9496H148.063C148.143 51.9496 148.219 51.918 148.275 51.8617C148.332 51.8054 148.363 51.729 148.363 51.6494V47.7967C148.363 47.7171 148.332 47.6407 148.275 47.5845C148.219 47.5282 148.143 47.4965 148.063 47.4965H140.709C139.837 47.4965 139.137 47.6966 138.608 48.0969C138.349 48.2885 138.141 48.5409 138.003 48.8316C137.865 49.1224 137.8 49.4427 137.815 49.7643C137.815 50.4638 138.075 51.0056 138.596 51.3853C139.116 51.765 139.822 51.9496 140.709 51.9496Z" fill="#191919"/>
<path d="M15.2523 50.8841V60.6097C15.2523 60.6893 15.284 60.7657 15.3403 60.822C15.3966 60.8783 15.4729 60.9099 15.5525 60.9099H18.4927C18.5723 60.9099 18.6487 60.8783 18.705 60.822C18.7613 60.7657 18.7929 60.6893 18.7929 60.6097V46.0993C18.7927 46.0798 18.7863 46.0608 18.7748 46.0451C18.7632 46.0294 18.7469 46.0177 18.7283 46.0117C18.7097 46.0057 18.6897 46.0058 18.6711 46.0118C18.6526 46.0178 18.6364 46.0295 18.6248 46.0453L15.2629 50.8301C15.2543 50.8467 15.2507 50.8655 15.2523 50.8841Z" fill="#191919"/>
<path d="M116.077 54.5613V44.8807C116.077 44.8011 116.046 44.7247 115.989 44.6684C115.933 44.6121 115.857 44.5805 115.777 44.5805H112.835C112.756 44.5805 112.679 44.6121 112.623 44.6684C112.567 44.7247 112.535 44.8011 112.535 44.8807V59.2005C112.535 59.2355 112.546 59.2696 112.567 59.2979C112.588 59.3261 112.617 59.347 112.651 59.3576C112.684 59.3681 112.72 59.3677 112.753 59.3565C112.786 59.3452 112.815 59.3237 112.835 59.295L116.052 54.6558C116.069 54.6275 116.078 54.5946 116.077 54.5613Z" fill="#191919"/>
<path d="M129.122 44.579H125.888C125.839 44.5789 125.791 44.5905 125.748 44.613C125.705 44.6355 125.668 44.6681 125.64 44.7081L114.567 60.6729C114.552 60.6953 114.543 60.7215 114.541 60.7486C114.54 60.7757 114.546 60.8027 114.558 60.8267C114.571 60.8508 114.59 60.8709 114.613 60.885C114.636 60.8992 114.663 60.9068 114.69 60.907H117.966C118.015 60.9074 118.063 60.8958 118.107 60.8734C118.15 60.8509 118.187 60.8181 118.215 60.7779L129.245 44.8132C129.26 44.7907 129.269 44.7645 129.271 44.7374C129.272 44.7103 129.266 44.6833 129.254 44.6593C129.241 44.6353 129.222 44.6151 129.199 44.601C129.176 44.5869 129.149 44.5793 129.122 44.579Z" fill="#191919"/>
<path d="M127.785 50.8932V60.6098C127.785 60.6894 127.817 60.7657 127.873 60.822C127.929 60.8783 128.006 60.91 128.085 60.91H131.027C131.107 60.91 131.183 60.8783 131.239 60.822C131.296 60.7657 131.327 60.6894 131.327 60.6098V46.1279C131.326 46.1002 131.317 46.0735 131.3 46.0514C131.284 46.0293 131.261 46.013 131.234 46.0046C131.208 45.9962 131.18 45.9961 131.153 46.0045C131.127 46.0129 131.104 46.0293 131.087 46.0514L127.808 50.8166C127.793 50.8394 127.785 50.866 127.785 50.8932Z" fill="#191919"/>
<path d="M3.54355 54.5179V44.8808C3.54355 44.8012 3.51192 44.7248 3.45562 44.6685C3.39933 44.6122 3.32298 44.5806 3.24337 44.5806H0.300174C0.220563 44.5806 0.144207 44.6122 0.087914 44.6685C0.0316205 44.7248 0 44.8012 0 44.8808V59.1585C0.00358078 59.187 0.0152167 59.2138 0.033546 59.2358C0.0518754 59.2578 0.0761269 59.2741 0.103432 59.2828C0.130737 59.2915 0.159955 59.2922 0.187636 59.2848C0.215317 59.2774 0.240308 59.2622 0.259647 59.2411L3.51353 54.6064C3.53271 54.5808 3.54323 54.5498 3.54355 54.5179Z" fill="#191919"/>
<path d="M13.3589 44.579C13.31 44.5786 13.2618 44.5902 13.2184 44.6127C13.1749 44.6352 13.1377 44.6679 13.1098 44.7081L2.00338 60.6008C1.9847 60.63 1.97415 60.6637 1.9728 60.6983C1.97146 60.733 1.97937 60.7674 1.99573 60.7979C2.01209 60.8285 2.03629 60.8542 2.06587 60.8723C2.09544 60.8904 2.12931 60.9003 2.16397 60.901H5.44187C5.49077 60.9014 5.53903 60.8898 5.58245 60.8673C5.62587 60.8448 5.66314 60.8121 5.69102 60.7719L16.964 44.579H13.3589Z" fill="#191919"/>
<path d="M0.177734 71.655L1.90979 67.6039H2.32985L4.06191 71.655H3.53826L3.02037 70.4351H1.18474L0.672607 71.655H0.177734ZM2.10543 68.2542L1.38039 69.9747H2.83048L2.10543 68.2542Z" fill="#191919"/>
<path d="M5.24199 71.655H4.75288V67.6269C4.82576 67.6269 4.99648 67.625 5.26501 67.6212C5.53738 67.6173 5.71768 67.6154 5.80592 67.6154C6.33532 67.6154 6.7151 67.7344 6.94528 67.9722C7.17928 68.2062 7.29629 68.5035 7.29629 68.8641C7.29629 69.2171 7.16969 69.5163 6.9165 69.7618C6.66715 70.0073 6.31038 70.1301 5.8462 70.1301C5.6237 70.1301 5.4223 70.1224 5.24199 70.1071V71.655ZM5.85195 68.0758C5.6985 68.0758 5.49518 68.0796 5.24199 68.0873V69.641C5.46066 69.6601 5.65631 69.6697 5.82894 69.6697C6.12432 69.6697 6.35642 69.5988 6.52521 69.4568C6.694 69.311 6.7784 69.1116 6.7784 68.8584C6.7784 68.6128 6.70168 68.421 6.54823 68.2829C6.39478 68.1448 6.16269 68.0758 5.85195 68.0758Z" fill="#191919"/>
<path d="M11.0282 67.6269L9.60117 69.6064L11.08 71.655H10.4988L9.27893 69.9805L8.06476 71.655H7.48933L8.96819 69.6064L7.55263 67.6269H8.12806L9.29619 69.2382L10.4471 67.6269H11.0282Z" fill="#191919"/>
<path d="M12.2313 71.655H11.7997V67.6269H12.2888V70.8494L14.7344 67.6269H15.166V71.655H14.6768V68.4325L12.2313 71.655Z" fill="#191919"/>
<path d="M15.8273 68.0873V67.6269H19.136V68.0873H17.7262V71.655H17.2371V68.0873H15.8273Z" fill="#191919"/>
<path d="M19.7962 71.655V67.6269H22.0691V68.0873H20.2853V69.3878H21.8965V69.8481H20.2853V71.1946H22.1267V71.655H19.7962Z" fill="#191919"/>
<path d="M26.0523 67.6269L24.2569 69.5201L26.1443 71.655H25.5171L23.693 69.5546L25.4596 67.6269H26.0523ZM23.106 71.655V67.6269H23.5952V71.655H23.106Z" fill="#191919"/>
<path d="M26.2514 68.0873V67.6269H29.5601V68.0873H28.1503V71.655H27.6612V68.0873H26.2514Z" fill="#191919"/>
<path d="M33.3621 67.6269L31.9696 70.7343C31.8277 71.0527 31.678 71.2867 31.5208 71.4363C31.3673 71.5821 31.1832 71.655 30.9683 71.655C30.765 71.655 30.602 71.607 30.4792 71.5111L30.6519 71.0968C30.7516 71.1659 30.8552 71.2004 30.9626 71.2004C31.1621 71.2004 31.327 71.0642 31.4575 70.7918L31.5265 70.6422L29.7024 67.6269H30.2548L31.7624 70.1531L32.8673 67.6269H33.3621Z" fill="#191919"/>
<path d="M34.5419 71.655H34.0528V67.6269C34.1256 67.6269 34.2964 67.625 34.5649 67.6212C34.8373 67.6173 35.0176 67.6154 35.1058 67.6154C35.6352 67.6154 36.015 67.7344 36.2452 67.9722C36.4792 68.2062 36.5962 68.5035 36.5962 68.8641C36.5962 69.2171 36.4696 69.5163 36.2164 69.7618C35.967 70.0073 35.6103 70.1301 35.1461 70.1301C34.9236 70.1301 34.7222 70.1224 34.5419 70.1071V71.655ZM35.1518 68.0758C34.9984 68.0758 34.7951 68.0796 34.5419 68.0873V69.641C34.7605 69.6601 34.9562 69.6697 35.1288 69.6697C35.4242 69.6697 35.6563 69.5988 35.8251 69.4568C35.9939 69.311 36.0783 69.1116 36.0783 68.8584C36.0783 68.6128 36.0016 68.421 35.8481 68.2829C35.6947 68.1448 35.4626 68.0758 35.1518 68.0758Z" fill="#191919"/>
<path d="M36.5975 71.655L38.3295 67.6039H38.7496L40.4816 71.655H39.958L39.4401 70.4351H37.6045L37.0923 71.655H36.5975ZM38.5252 68.2542L37.8001 69.9747H39.2502L38.5252 68.2542Z" fill="#191919"/>
<path d="M50.6733 68.0873V67.6269H53.982V68.0873H52.5722V71.655H52.0831V68.0873H50.6733Z" fill="#191919"/>
<path d="M55.1313 71.655H54.6422V67.6269C54.7151 67.6269 54.8858 67.625 55.1543 67.6212C55.4267 67.6173 55.607 67.6154 55.6952 67.6154C56.2246 67.6154 56.6044 67.7344 56.8346 67.9722C57.0686 68.2062 57.1856 68.5035 57.1856 68.8641C57.1856 69.2171 57.059 69.5163 56.8058 69.7618C56.5565 70.0073 56.1997 70.1301 55.7355 70.1301C55.513 70.1301 55.3116 70.1224 55.1313 70.1071V71.655ZM55.7413 68.0758C55.5878 68.0758 55.3845 68.0796 55.1313 68.0873V69.641C55.35 69.6601 55.5456 69.6697 55.7183 69.6697C56.0136 69.6697 56.2457 69.5988 56.4145 69.4568C56.5833 69.311 56.6677 69.1116 56.6677 68.8584C56.6677 68.6128 56.591 68.421 56.4376 68.2829C56.2841 68.1448 56.052 68.0758 55.7413 68.0758Z" fill="#191919"/>
<path d="M57.7086 69.641C57.7086 69.054 57.9024 68.563 58.2898 68.1678C58.6773 67.7689 59.1683 67.5694 59.7629 67.5694C60.3537 67.5694 60.8428 67.7631 61.2303 68.1506C61.6216 68.538 61.8172 69.0348 61.8172 69.641C61.8172 70.2356 61.6216 70.7304 61.2303 71.1256C60.839 71.5169 60.3499 71.7125 59.7629 71.7125C59.1721 71.7125 58.6811 71.5188 58.2898 71.1313C57.9024 70.7439 57.7086 70.2471 57.7086 69.641ZM58.2265 69.641C58.2265 70.0975 58.3742 70.4811 58.6696 70.7918C58.965 71.0987 59.3294 71.2522 59.7629 71.2522C60.2156 71.2522 60.5839 71.0987 60.8678 70.7918C61.1555 70.4849 61.2993 70.1013 61.2993 69.641C61.2993 69.1768 61.1516 68.7932 60.8562 68.4901C60.5609 68.1832 60.1964 68.0297 59.7629 68.0297C59.3218 68.0297 58.9554 68.1813 58.6638 68.4843C58.3723 68.7874 58.2265 69.1729 58.2265 69.641Z" fill="#191919"/>
<path d="M63.1433 71.655H62.7117V67.6269H63.2009V70.8494L65.6465 67.6269H66.078V71.655H65.5889V68.4325L63.1433 71.655Z" fill="#191919"/>
<path d="M66.7393 68.0873V67.6269H70.0481V68.0873H68.6383V71.655H68.1491V68.0873H66.7393Z" fill="#191919"/>
<path d="M70.7082 71.655V67.6269H72.9812V68.0873H71.1974V69.3878H72.8086V69.8481H71.1974V71.1946H73.0387V71.655H70.7082Z" fill="#191919"/>
<path d="M76.4982 71.655V68.0873H75.0366L74.9676 68.8469C74.9215 69.3456 74.8621 69.7733 74.7892 70.1301C74.7163 70.483 74.6377 70.7611 74.5533 70.9645C74.4689 71.1678 74.3691 71.3251 74.254 71.4363C74.1428 71.5476 74.0334 71.6166 73.926 71.6435C73.8186 71.6703 73.6959 71.6742 73.5578 71.655L73.5635 71.1659C73.6364 71.1735 73.7016 71.1678 73.7592 71.1486C73.8167 71.1294 73.8858 71.0699 73.9663 70.9702C74.0507 70.8666 74.1236 70.7228 74.185 70.5386C74.2502 70.3545 74.3135 70.0821 74.3749 69.7215C74.4362 69.3609 74.4842 68.9313 74.5187 68.4325L74.5763 67.6269H76.9873V71.655H76.4982Z" fill="#191919"/>
<path d="M79.2119 69.5546C79.0623 69.5546 78.8858 69.5661 78.6825 69.5892V71.1889C78.9932 71.2004 79.1639 71.2061 79.1946 71.2061C79.5322 71.2061 79.7911 71.1352 79.9715 70.9932C80.1556 70.8474 80.2477 70.6326 80.2477 70.3487C80.2477 70.0917 80.1575 69.8961 79.9772 69.7618C79.7969 69.6237 79.5418 69.5546 79.2119 69.5546ZM78.6825 67.6269V69.1231C78.9242 69.1039 79.1121 69.0943 79.2464 69.0943C79.7528 69.0943 80.1326 69.2036 80.3858 69.4223C80.639 69.641 80.7655 69.9459 80.7655 70.3372C80.7655 70.7592 80.6217 71.0872 80.334 71.3212C80.0501 71.5514 79.6511 71.6665 79.1371 71.6665C79.0143 71.6665 78.8436 71.6646 78.6249 71.6607C78.4063 71.6569 78.2624 71.655 78.1934 71.655V67.6269H78.6825Z" fill="#191919"/>
<path d="M84.373 70.8954L84.5687 71.2637C84.4344 71.4018 84.2522 71.5111 84.022 71.5917C83.7918 71.6722 83.5501 71.7125 83.297 71.7125C82.6908 71.7125 82.1979 71.5245 81.8181 71.1486C81.4422 70.7688 81.2542 70.2663 81.2542 69.641C81.2542 69.0463 81.4345 68.5534 81.7951 68.1621C82.1595 67.767 82.6486 67.5694 83.2624 67.5694C83.7765 67.5694 84.185 67.6998 84.4881 67.9607L84.2637 68.329C83.9952 68.1295 83.6633 68.0297 83.2682 68.0297C82.8309 68.0297 82.4722 68.1794 82.1921 68.4786C81.9121 68.7778 81.7721 69.1653 81.7721 69.641C81.7721 70.1205 81.9159 70.5099 82.2036 70.8091C82.4952 71.1045 82.875 71.2522 83.343 71.2522C83.7381 71.2522 84.0815 71.1332 84.373 70.8954Z" fill="#191919"/>
<path d="M84.8003 68.0873V67.6269H88.109V68.0873H86.6992V71.655H86.2101V68.0873H84.8003Z" fill="#191919"/>
<path d="M88.7692 71.6492V67.6327C89.3676 67.6173 89.7359 67.6097 89.874 67.6097C90.3267 67.6097 90.6547 67.6998 90.858 67.8801C91.0652 68.0604 91.1687 68.3021 91.1687 68.6052C91.1687 68.8469 91.1054 69.0463 90.9789 69.2036C90.8523 69.3571 90.6854 69.4683 90.4782 69.5374V69.5489C90.7353 69.5911 90.9386 69.6947 91.0882 69.8596C91.2378 70.0207 91.3126 70.2356 91.3126 70.5041C91.3126 70.8954 91.1783 71.1889 90.9098 71.3845C90.6451 71.5763 90.2922 71.6722 89.851 71.6722C89.4444 71.6722 89.0838 71.6646 88.7692 71.6492ZM89.9086 69.8193H89.2583V71.1889C89.4348 71.2042 89.6419 71.2119 89.8798 71.2119C90.1828 71.2119 90.4149 71.1505 90.5761 71.0277C90.741 70.9012 90.8235 70.717 90.8235 70.4753C90.8235 70.2643 90.7429 70.1032 90.5818 69.992C90.4245 69.8769 90.2001 69.8193 89.9086 69.8193ZM89.8625 68.07C89.7474 68.07 89.546 68.0758 89.2583 68.0873V69.3878H89.9028C90.1253 69.3878 90.3094 69.3283 90.4552 69.2094C90.6048 69.0905 90.6796 68.9255 90.6796 68.7145C90.6796 68.2849 90.4073 68.07 89.8625 68.07Z" fill="#191919"/>
<path d="M92.0042 69.641C92.0042 69.054 92.1979 68.563 92.5854 68.1678C92.9728 67.7689 93.4639 67.5694 94.0585 67.5694C94.6493 67.5694 95.1384 67.7631 95.5258 68.1506C95.9171 68.538 96.1128 69.0348 96.1128 69.641C96.1128 70.2356 95.9171 70.7304 95.5258 71.1256C95.1346 71.5169 94.6454 71.7125 94.0585 71.7125C93.4677 71.7125 92.9767 71.5188 92.5854 71.1313C92.1979 70.7439 92.0042 70.2471 92.0042 69.641ZM92.5221 69.641C92.5221 70.0975 92.6698 70.4811 92.9652 70.7918C93.2606 71.0987 93.625 71.2522 94.0585 71.2522C94.5112 71.2522 94.8794 71.0987 95.1633 70.7918C95.451 70.4849 95.5949 70.1013 95.5949 69.641C95.5949 69.1768 95.4472 68.7932 95.1518 68.4901C94.8564 68.1832 94.492 68.0297 94.0585 68.0297C93.6173 68.0297 93.251 68.1813 92.9594 68.4843C92.6679 68.7874 92.5221 69.1729 92.5221 69.641Z" fill="#191919"/>
<path d="M50.3728 70.8954L50.5685 71.2637C50.4342 71.4018 50.252 71.5111 50.0218 71.5917C49.7916 71.6722 49.55 71.7125 49.2968 71.7125C48.6906 71.7125 48.1977 71.5245 47.8179 71.1486C47.442 70.7688 47.254 70.2663 47.254 69.641C47.254 69.0463 47.4343 68.5534 47.7949 68.1621C48.1593 67.767 48.6484 67.5694 49.2622 67.5694C49.7763 67.5694 50.1849 67.6998 50.4879 67.9607L50.2635 68.329C49.995 68.1295 49.6631 68.0297 49.268 68.0297C48.8307 68.0297 48.472 68.1794 48.1919 68.4786C47.9119 68.7778 47.7719 69.1653 47.7719 69.641C47.7719 70.1205 47.9157 70.5099 48.2034 70.8091C48.495 71.1045 48.8748 71.2522 49.3428 71.2522C49.7379 71.2522 50.0813 71.1332 50.3728 70.8954Z" fill="#191919"/>
<path d="M3.74178 74.5324L2.34924 77.6397C2.2073 77.9581 2.05768 78.1921 1.9004 78.3417C1.74695 78.4875 1.56281 78.5604 1.34798 78.5604C1.14466 78.5604 0.981625 78.5125 0.858866 78.4166L1.0315 78.0022C1.13124 78.0713 1.23482 78.1058 1.34223 78.1058C1.54171 78.1058 1.70667 77.9696 1.8371 77.6973L1.90615 77.5477L0.0820312 74.5324H0.634447L2.14208 77.0585L3.24691 74.5324H3.74178Z" fill="#191919"/>
<path d="M7.10816 78.5604V74.9927H4.92151V78.5604H4.43239V74.5324H7.59728V78.5604H7.10816Z" fill="#191919"/>
<path d="M9.29345 78.5604H8.80434V74.5324C8.87722 74.5324 9.04794 74.5305 9.31647 74.5266C9.58884 74.5228 9.76915 74.5209 9.85738 74.5209C10.3868 74.5209 10.7666 74.6398 10.9967 74.8776C11.2307 75.1117 11.3477 75.409 11.3477 75.7696C11.3477 76.1225 11.2212 76.4217 10.968 76.6672C10.7186 76.9128 10.3618 77.0355 9.89766 77.0355C9.67516 77.0355 9.47376 77.0278 9.29345 77.0125V78.5604ZM9.90341 74.9812C9.74996 74.9812 9.54664 74.9851 9.29345 74.9927V76.5464C9.51212 76.5656 9.70776 76.5752 9.88039 76.5752C10.1758 76.5752 10.4079 76.5042 10.5767 76.3623C10.7455 76.2165 10.8299 76.017 10.8299 75.7638C10.8299 75.5183 10.7531 75.3265 10.5997 75.1884C10.4462 75.0503 10.2141 74.9812 9.90341 74.9812Z" fill="#191919"/>
<path d="M11.3491 78.5604L13.0811 74.5094H13.5012L15.2332 78.5604H14.7096L14.1917 77.3405H12.3561L11.8439 78.5604H11.3491ZM13.2768 75.1596L12.5517 76.8801H14.0018L13.2768 75.1596Z" fill="#191919"/>
<path d="M15.9242 78.5547V74.5381C16.5226 74.5228 16.8909 74.5151 17.029 74.5151C17.4817 74.5151 17.8097 74.6053 18.013 74.7856C18.2202 74.9659 18.3237 75.2076 18.3237 75.5106C18.3237 75.7523 18.2605 75.9518 18.1339 76.1091C18.0073 76.2625 17.8404 76.3738 17.6332 76.4428V76.4543C17.8903 76.4965 18.0936 76.6001 18.2432 76.7651C18.3928 76.9262 18.4676 77.141 18.4676 77.4095C18.4676 77.8008 18.3333 78.0943 18.0648 78.29C17.8001 78.4818 17.4472 78.5777 17.006 78.5777C16.5994 78.5777 16.2388 78.57 15.9242 78.5547ZM17.0636 76.7248H16.4133V78.0943C16.5898 78.1097 16.7969 78.1173 17.0348 78.1173C17.3378 78.1173 17.5699 78.0559 17.7311 77.9332C17.896 77.8066 17.9785 77.6225 17.9785 77.3808C17.9785 77.1698 17.8979 77.0087 17.7368 76.8974C17.5795 76.7823 17.3551 76.7248 17.0636 76.7248ZM17.0175 74.9755C16.9024 74.9755 16.701 74.9812 16.4133 74.9927V76.2932H17.0578C17.2803 76.2932 17.4644 76.2337 17.6102 76.1148C17.7598 75.9959 17.8346 75.8309 17.8346 75.6199C17.8346 75.1903 17.5623 74.9755 17.0175 74.9755Z" fill="#191919"/>
<path d="M21.9558 78.5604V74.9927H20.4942L20.4252 75.7523C20.3791 76.251 20.3197 76.6787 20.2468 77.0355C20.1739 77.3884 20.0952 77.6666 20.0108 77.8699C19.9265 78.0732 19.8267 78.2305 19.7116 78.3417C19.6004 78.453 19.491 78.522 19.3836 78.5489C19.2762 78.5758 19.1535 78.5796 19.0153 78.5604L19.0211 78.0713C19.094 78.079 19.1592 78.0732 19.2168 78.054C19.2743 78.0349 19.3433 77.9754 19.4239 77.8756C19.5083 77.7721 19.5812 77.6282 19.6426 77.4441C19.7078 77.2599 19.7711 76.9876 19.8325 76.627C19.8938 76.2664 19.9418 75.8367 19.9763 75.338L20.0339 74.5324H22.4449V78.5604H21.9558Z" fill="#191919"/>
<path d="M23.651 78.5604V74.5324H25.9239V74.9927H24.1401V76.2932H25.7513V76.7536H24.1401V78.1001H25.9815V78.5604H23.651Z" fill="#191919"/>
<path d="M29.6654 78.5604V76.7363H27.4499V78.5604H26.9608V74.5324H27.4499V76.2759H29.6654V74.5324H30.1545V78.5604H29.6654Z" fill="#191919"/>
<path d="M31.7924 78.5604H31.3609V74.5324H31.85V77.7548L34.2956 74.5324H34.7271V78.5604H34.238V75.338L31.7924 78.5604Z" fill="#191919"/>
<path d="M35.9351 78.5604V74.5324H38.2081V74.9927H36.4242V76.2932H38.0354V76.7536H36.4242V78.1001H38.2656V78.5604H35.9351Z" fill="#191919"/>
<path d="M43.242 78.5604V76.7363H41.0266V78.5604H40.5374V74.5324H41.0266V76.2759H43.242V74.5324H43.7311V78.5604H43.242Z" fill="#191919"/>
<path d="M44.9375 78.5604V74.5324H47.2104V74.9927H45.4266V76.2932H47.0378V76.7536H45.4266V78.1001H47.268V78.5604H44.9375Z" fill="#191919"/>
<path d="M47.7295 79.3085V78.1001H48.161C48.2838 77.9466 48.4142 77.634 48.5523 77.1621C48.6943 76.6864 48.7844 76.0784 48.8228 75.338L48.8631 74.5324H51.2338V78.1001H51.7805V79.3085H51.3202V78.5604H48.1898V79.3085H47.7295ZM49.2831 75.712C49.2409 76.3258 49.1584 76.8475 49.0357 77.2772C48.9129 77.703 48.8017 77.9773 48.7019 78.1001H50.7447V74.9927H49.3349L49.2831 75.712Z" fill="#191919"/>
<path d="M52.5575 78.5547V74.5381C53.1559 74.5228 53.5242 74.5151 53.6623 74.5151C54.115 74.5151 54.443 74.6053 54.6463 74.7856C54.8534 74.9659 54.957 75.2076 54.957 75.5106C54.957 75.7523 54.8937 75.9518 54.7671 76.1091C54.6405 76.2625 54.4737 76.3738 54.2665 76.4428V76.4543C54.5235 76.4965 54.7269 76.6001 54.8765 76.7651C55.0261 76.9262 55.1009 77.141 55.1009 77.4095C55.1009 77.8008 54.9666 78.0943 54.6981 78.29C54.4334 78.4818 54.0804 78.5777 53.6393 78.5777C53.2326 78.5777 52.872 78.57 52.5575 78.5547ZM53.6968 76.7248H53.0466V78.0943C53.2231 78.1097 53.4302 78.1173 53.6681 78.1173C53.9711 78.1173 54.2032 78.0559 54.3643 77.9332C54.5293 77.8066 54.6118 77.6225 54.6118 77.3808C54.6118 77.1698 54.5312 77.0087 54.3701 76.8974C54.2128 76.7823 53.9884 76.7248 53.6968 76.7248ZM53.6508 74.9755C53.5357 74.9755 53.3343 74.9812 53.0466 74.9927V76.2932H53.6911C53.9136 76.2932 54.0977 76.2337 54.2435 76.1148C54.3931 75.9959 54.4679 75.8309 54.4679 75.6199C54.4679 75.1903 54.1955 74.9755 53.6508 74.9755Z" fill="#191919"/>
<path d="M56.5405 78.5604H56.109V74.5324H56.5981V77.7548L59.0437 74.5324H59.4753V78.5604H58.9861V75.338L56.5405 78.5604Z" fill="#191919"/>
<path d="M65.2752 74.5324L63.6467 76.4543L65.3385 78.5604H64.7688L63.1115 76.4601L64.7055 74.5324H65.2752ZM62.5188 78.5604V74.5324H63.008V78.5604H62.5188ZM61.8859 76.4601L60.2574 74.5324H60.8271L62.421 76.4601L60.7638 78.5604H60.1941L61.8859 76.4601Z" fill="#191919"/>
<path d="M66.487 78.5604H66.0554V74.5324H66.5445V77.7548L68.9901 74.5324H69.4217V78.5604H68.9326V75.338L66.487 78.5604Z" fill="#191919"/>
<path d="M70.6297 78.5604V74.5324H71.1245L72.6379 76.5982L74.088 74.5324H74.5541V78.5604H74.065V75.3035L72.6379 77.306H72.5631L71.1188 75.3207V78.5604H70.6297Z" fill="#191919"/>
<path d="M75.4437 76.5464C75.4437 75.9595 75.6375 75.4684 76.0249 75.0733C76.4124 74.6743 76.9034 74.4748 77.498 74.4748C78.0888 74.4748 78.5779 74.6686 78.9654 75.056C79.3567 75.4435 79.5523 75.9403 79.5523 76.5464C79.5523 77.141 79.3567 77.6359 78.9654 78.031C78.5741 78.4223 78.085 78.618 77.498 78.618C76.9073 78.618 76.4162 78.4242 76.0249 78.0368C75.6375 77.6493 75.4437 77.1525 75.4437 76.5464ZM75.9616 76.5464C75.9616 77.0029 76.1093 77.3865 76.4047 77.6973C76.7001 78.0042 77.0645 78.1576 77.498 78.1576C77.9507 78.1576 78.319 78.0042 78.6029 77.6973C78.8906 77.3904 79.0344 77.0067 79.0344 76.5464C79.0344 76.0822 78.8867 75.6986 78.5914 75.3955C78.296 75.0886 77.9315 74.9352 77.498 74.9352C77.0569 74.9352 76.6905 75.0867 76.399 75.3898C76.1074 75.6928 75.9616 76.0784 75.9616 76.5464Z" fill="#191919"/>
<path d="M83.2492 77.8008L83.4449 78.1691C83.3106 78.3072 83.1284 78.4166 82.8982 78.4971C82.668 78.5777 82.4263 78.618 82.1732 78.618C81.567 78.618 81.0741 78.43 80.6943 78.054C80.3184 77.6742 80.1304 77.1717 80.1304 76.5464C80.1304 75.9518 80.3107 75.4588 80.6713 75.0675C81.0357 74.6724 81.5248 74.4748 82.1386 74.4748C82.6527 74.4748 83.0612 74.6053 83.3643 74.8661L83.1399 75.2344C82.8714 75.0349 82.5395 74.9352 82.1444 74.9352C81.7071 74.9352 81.3484 75.0848 81.0683 75.384C80.7883 75.6832 80.6483 76.0707 80.6483 76.5464C80.6483 77.0259 80.7921 77.4153 81.0798 77.7145C81.3714 78.0099 81.7512 78.1576 82.2192 78.1576C82.6143 78.1576 82.9577 78.0387 83.2492 77.8008Z" fill="#191919"/>
<path d="M83.6765 74.9927V74.5324H86.9852V74.9927H85.5754V78.5604H85.0863V74.9927H83.6765Z" fill="#191919"/>
<path d="M88.6639 76.4601C88.5143 76.4601 88.3378 76.4716 88.1345 76.4946V78.0943C88.4452 78.1058 88.616 78.1116 88.6466 78.1116C88.9842 78.1116 89.2432 78.0406 89.4235 77.8987C89.6076 77.7529 89.6997 77.5381 89.6997 77.2542C89.6997 76.9972 89.6095 76.8015 89.4292 76.6672C89.2489 76.5291 88.9938 76.4601 88.6639 76.4601ZM88.1345 74.5324V76.0285C88.3762 76.0093 88.5642 75.9997 88.6984 75.9997C89.2048 75.9997 89.5846 76.1091 89.8378 76.3277C90.091 76.5464 90.2176 76.8514 90.2176 77.2427C90.2176 77.6647 90.0737 77.9927 89.786 78.2267C89.5021 78.4568 89.1032 78.5719 88.5891 78.5719C88.4663 78.5719 88.2956 78.57 88.077 78.5662C87.8583 78.5623 87.7144 78.5604 87.6454 78.5604V74.5324H88.1345Z" fill="#191919"/>
<path d="M91.107 78.5604V74.5324H91.5961V76.2759H92.465C92.5225 75.7504 92.7297 75.3188 93.0865 74.9812C93.4471 74.6436 93.8921 74.4748 94.4215 74.4748C95.0084 74.4748 95.4879 74.6686 95.8601 75.056C96.2322 75.4396 96.4182 75.9364 96.4182 76.5464C96.4182 77.1448 96.2303 77.6397 95.8543 78.031C95.4822 78.4223 95.0046 78.618 94.4215 78.618C93.8921 78.618 93.4413 78.4434 93.0692 78.0943C92.7009 77.7452 92.4976 77.2925 92.4593 76.7363H91.5961V78.5604H91.107ZM92.9714 76.5464C92.9714 77.0029 93.1095 77.3865 93.3857 77.6973C93.6657 78.0042 94.0148 78.1576 94.433 78.1576C94.8857 78.1576 95.2424 78.0061 95.5033 77.703C95.768 77.4 95.9003 77.0144 95.9003 76.5464C95.9003 76.0745 95.7642 75.689 95.4918 75.3898C95.2194 75.0867 94.8665 74.9352 94.433 74.9352C94.011 74.9352 93.6619 75.0867 93.3857 75.3898C93.1095 75.6928 92.9714 76.0784 92.9714 76.5464Z" fill="#191919"/>
<path d="M45.121 68.4939H43.473C43.42 68.4939 43.377 68.5369 43.377 68.59V70.2379C43.377 70.291 43.42 70.334 43.473 70.334H45.121C45.174 70.334 45.217 70.291 45.217 70.2379V68.59C45.217 68.5369 45.174 68.4939 45.121 68.4939Z" fill="#191919"/>
</svg>
