<svg width="52" height="52" fill="none" xmlns="http://www.w3.org/2000/svg"><g clip-path="url(#clip0_124_4567)"><path d="M44.053 3H9.944A4.95 4.95 0 005 7.947v11.141h2.822V7.947c0-1.171.951-2.125 2.122-2.125h34.109c1.171 0 2.125.954 2.125 2.125v34.106a2.128 2.128 0 01-2.125 2.125H32.91V47h11.142A4.953 4.953 0 0049 42.053V7.947A4.951 4.951 0 0044.053 3z" fill="#312D2D"/><path d="M27.08 21.016H3.904A3.903 3.903 0 000 24.92v23.178A3.903 3.903 0 003.903 52h23.178a3.903 3.903 0 003.903-3.903V24.919a3.903 3.903 0 00-3.903-3.903z" fill="#EE3A23"/></g><defs><clipPath id="clip0_124_4567"><path fill="#fff" d="M0 0h52v52H0z"/></clipPath></defs></svg>